<svg height="30.75" width="21.9" xmlns="http://www.w3.org/2000/svg"><path d="M7.85 2.7q2.3-2.3 4.6 0l6 7.1q1.15 1.15 1.15 1.75 0 .65-1.15 1.8l-2.95 1.1V26.7q.15 2.55-5.35 2.6-5.55 0-5.55-2.6V14.45l-2.75-1.1Q.7 12.2.7 11.55q0-.6 1.15-1.75l6-7.1" fill="url(#a)" fill-rule="evenodd" transform="translate(.8 -.05)"/><path d="m8.65 2.65-6 7.1Q1.5 10.9 1.5 11.5q0 .65 1.15 1.8l2.75 1.1v12.25q0 2.6 5.55 2.6 5.5-.05 5.35-2.6V14.4l2.95-1.1q1.15-1.15 1.15-1.8 0-.6-1.15-1.75l-6-7.1q-2.3-2.3-4.6 0z" fill="none" stroke="#840" stroke-linecap="round" stroke-linejoin="round" stroke-width="3"/><defs><linearGradient gradientTransform="matrix(0 -.0146 .0199 0 -31.65 14.6)" gradientUnits="userSpaceOnUse" id="a" spreadMethod="pad" x1="-819.2" x2="819.2"><stop offset="0" stop-color="#f60"/><stop offset=".38" stop-color="#ffc000"/><stop offset=".976" stop-color="#ff0"/></linearGradient></defs></svg>