<svg xmlns:ffdec="https://www.free-decompiler.com/flash" ffdec:objectType="shape" height="22.2" width="40.8" xmlns="http://www.w3.org/2000/svg"><path d="m34.7 10.05-4.65.15.45 4 2.1-.1-1.8-1.4 2.2-2.25q1.75.95 2.95 2.35l-1.3 1.3 1.85-.05.3 3.2-16.5.9-.3-3.25 6.75-.55-.4-3.95-5.1.5-.3-3.2 5.1-.45-.3-2.75-5.45.5-.3-3.3L35.4.85l.3 3.25-6.25.15.3 2.8 4.6-.2.35 3.2" fill="url(#a)" fill-rule="evenodd" transform="translate(2 2)"/><path d="m12.7 5.5-11.1.65-.25-2.4 10.8-.7q-.75-.5-2.45-.5l-8.75.8L.5.75 10.25 0q3 0 4.4 1.2Q16 2.3 16 4.8q0 2.35-.85 3.2-1.15 1.15-3.5 1.2l-4.2-.05 2.35 1.5-1.85 2.5 8.05 2-.85 2.75q-4.45-1.45-8.8-2.25l-1.4 2.55-2.75-1.85q2.5-4.25 5-7.2L.55 8.9l.4-2.55.65.05 9.2.2 1.6-.45.3-.65" fill="url(#b)" fill-rule="evenodd" transform="translate(2 2)"/><path d="m13.85 9.85 1.95 1.85-2.6 2.35-2.05-1.8 2.7-2.4" fill="url(#c)" fill-rule="evenodd" transform="translate(2 2)"/><path d="M3.85 10.9 2.5 14.1 0 13.25l1.35-3.2 2.5.85" fill="url(#d)" fill-rule="evenodd" transform="translate(2 2)"/><path d="m36.7 12.05-4.65.15.45 4 2.1-.1-1.8-1.4 2.2-2.25q1.75.95 2.95 2.35l-1.3 1.3 1.85-.05.3 3.2-16.5.9-.3-3.25 6.75-.55-.4-3.95-5.1.5-.3-3.2 5.1-.45-.3-2.75-5.45.5-.3-3.3 15.4-.85.3 3.25-6.25.15.3 2.8 4.6-.2.35 3.2m-20.85-.2 1.95 1.85-2.6 2.35-2.05-1.8 2.7-2.4M14.7 7.5l-11.1.65-.25-2.4 10.8-.7q-.75-.5-2.45-.5l-8.75.8-.45-2.6L12.25 2q3 0 4.4 1.2Q18 4.3 18 6.8q0 2.35-.85 3.2-1.15 1.15-3.5 1.2l-4.2-.05 2.35 1.5-1.85 2.5 8.05 2-.85 2.75q-4.45-1.45-8.8-2.25l-1.4 2.55-2.75-1.85q2.5-4.25 5-7.2l-6.65-.25.4-2.55.65.05 9.2.2 1.6-.45.3-.65m-8.85 5.4L4.5 16.1 2 15.25l1.35-3.2 2.5.85z" fill="none" stroke="#6d4201" stroke-linecap="round" stroke-linejoin="round" stroke-width="4"/><path d="m35.7 4.1-6.25.15.3 2.8 4.6-.2.35 3.2-4.65.15.45 4 2.1-.1-1.8-1.4 2.2-2.25q1.75.95 2.95 2.35l-1.3 1.3 1.85-.05.3 3.2-16.5.9-.3-3.25 6.75-.55-.4-3.95-5.1.5-.3-3.2 5.1-.45-.3-2.75-5.45.5-.3-3.3L35.4.85l.3 3.25m-23 1.4-11.1.65-.25-2.4 10.8-.7q-.75-.5-2.45-.5l-8.75.8L.5.75 10.25 0q3 0 4.4 1.2Q16 2.3 16 4.8q0 2.35-.85 3.2-1.15 1.15-3.5 1.2l-4.2-.05 2.35 1.5-1.85 2.5 8.05 2-.85 2.75q-4.45-1.45-8.8-2.25l-1.4 2.55-2.75-1.85q2.5-4.25 5-7.2L.55 8.9l.4-2.55 9.85.25 1.6-.45.3-.65m3.1 6.2-2.6 2.35-2.05-1.8 2.7-2.4 1.95 1.85m-11.95-.8L2.5 14.1 0 13.25l1.35-3.2 2.5.85" fill="url(#e)" fill-rule="evenodd" transform="translate(2 2)"/><defs><linearGradient gradientTransform="matrix(0 .0103 -.0106 0 28.4 9.5)" gradientUnits="userSpaceOnUse" id="a" spreadMethod="pad" x1="-819.2" x2="819.2"><stop offset="0" stop-color="#ff9"/><stop offset="1" stop-color="#fc0"/></linearGradient><linearGradient gradientTransform="matrix(0 .0095 -.0111 0 8.25 9.1)" gradientUnits="userSpaceOnUse" id="b" spreadMethod="pad" x1="-819.2" x2="819.2"><stop offset="0" stop-color="#ff9"/><stop offset="1" stop-color="#fc0"/></linearGradient><linearGradient gradientTransform="matrix(.0028 0 0 .0026 13.45 11.95)" gradientUnits="userSpaceOnUse" id="c" spreadMethod="pad" x1="-819.2" x2="819.2"><stop offset="0" stop-color="#ff9"/><stop offset="1" stop-color="#fc0"/></linearGradient><linearGradient gradientTransform="matrix(.0023 0 0 .0025 1.9 12.05)" gradientUnits="userSpaceOnUse" id="d" spreadMethod="pad" x1="-819.2" x2="819.2"><stop offset="0" stop-color="#ff9"/><stop offset="1" stop-color="#fc0"/></linearGradient><linearGradient gradientTransform="matrix(0 .0104 -.0225 0 18.4 8.7)" gradientUnits="userSpaceOnUse" id="e" spreadMethod="pad" x1="-819.2" x2="819.2"><stop offset="0" stop-color="#ff9"/><stop offset="1" stop-color="#fc0"/></linearGradient></defs></svg>