<svg xmlns:ffdec="https://www.free-decompiler.com/flash" ffdec:objectType="shape" height="23" width="44.2" xmlns="http://www.w3.org/2000/svg"><path d="M30.85 4.2q-.6 3.3-.95 6.7l.9-.2.45 2.6-1.6.4q-.25 3.1-.35 6.25l-3.1-.35.2-5.45H26q-1.2 0-2.2-1.05-.75-.8-.75-2.2 0-2.4 1.4-5.3l2.55.6q-1 2.3-1.25 4.05 0 1.1.85 1.25.4-4 1.05-7.65l3.2.35m-10.45.85q0 1.45-.45 2-.85.8-2.6.8l-11.9-.2v.8L19.4 8l.15 2.05-6.6.1v.35h.2l5.25.55q1.6.4 1.6 2.1v.35q0 1.05-1.1 1.4l-3.35.4h-2l.1.4 3.1-.15q1.65 0 2.6.45 1 .7 1.05 1.95-.05 1.05-.8 2.95l-2.7-.35.3-.8-1.5.75-.35-.6-6.1.7-.4-1.7 2.2-.2-.1-.55-2.75.4.35 2.25-2.85.2-.65-4L5 20.6l-3-.3q.05-9.55.9-18.25l3 .35v.05L16.15 2q2.35 0 3.35.7.9.8.9 2.35m18.75.2 2.75.4-.6 3.3-2.5-.3-.2 2.4 2.2-.1.35 3.4-2.7.1-.15 2.35 3.6-.05.3 3.2-11.7.65-.3-3.25 4.65-.4.05-2.25-2.7.25-.35-3.4 3.3-.3.2-2.95-1.3-.05-.5 2.65-3.05-.65q.55-4 1.7-7.6l3.05.65-.5 1.55 1 .05.4-2.85 3.4.35-.4 2.85m-22.35-.8-.85-.15-10.25.55-.05.4 4 .05 6.85.2.45-.1.05-.5q0-.4-.2-.45m-10.6 6-.9.05-.05 1.8q.25-.95.95-1.85m4.05 2.2-2.15.25.15.35.25.05h1.85l-.1-.65m-.3-2.35-3.1.15 1.6.3 1.6-.1-.1-.35m3.3 2.2.1.8h1.15l2.2-.05.3-.4q0-.2-.5-.3l-3.2-.05h-.05m1.25 5.8-.15-.5h-.45l.05.55.55-.05m3.05.3q0-.8-1.15-.85l.95 1.65.2-.8m-8.4-3.3L6 14.9q-.7-.4-.8-1L5.1 16l2.6-.2.15.55 2.85-.4-.15-.65h-1.4" fill="#ff9" fill-rule="evenodd"/><path d="M30.85 4.2q-.6 3.3-.95 6.7l.9-.2.45 2.6-1.6.4q-.25 3.1-.35 6.25l-3.1-.35.2-5.45H26q-1.2 0-2.2-1.05-.75-.8-.75-2.2 0-2.4 1.4-5.3l2.55.6q-1 2.3-1.25 4.05 0 1.1.85 1.25.4-4 1.05-7.65l3.2.35m-10.45.85q0 1.45-.45 2-.85.8-2.6.8l-11.9-.2v.8L19.4 8l.15 2.05-6.6.1v.35h.2l5.25.55q1.6.4 1.6 2.1v.35q0 1.05-1.1 1.4l-3.35.4h-2l.1.4 3.1-.15q1.65 0 2.6.45 1 .7 1.05 1.95-.05 1.05-.8 2.95l-2.7-.35.3-.8-1.5.75-.35-.6-6.1.7-.4-1.7 2.2-.2-.1-.55-2.75.4.35 2.25-2.85.2-.65-4L5 20.6l-3-.3q.05-9.55.9-18.25l3 .35v.05L16.15 2q2.35 0 3.35.7.9.8.9 2.35m18.75.2 2.75.4-.6 3.3-2.5-.3-.2 2.4 2.2-.1.35 3.4-2.7.1-.15 2.35 3.6-.05.3 3.2-11.7.65-.3-3.25 4.65-.4.05-2.25-2.7.25-.35-3.4 3.3-.3.2-2.95-1.3-.05-.5 2.65-3.05-.65q.55-4 1.7-7.6l3.05.65-.5 1.55 1 .05.4-2.85 3.4.35-.4 2.85m-22.35-.8-.85-.15-10.25.55-.05.4 4 .05 6.85.2.45-.1.05-.5q0-.4-.2-.45m-10.6 6-.9.05-.05 1.8q.25-.95.95-1.85m4.05 2.2-2.15.25.15.35.25.05h1.85l-.1-.65m-.3-2.35-3.1.15 1.6.3 1.6-.1-.1-.35m3.3 2.2.1.8h1.15l2.2-.05.3-.4q0-.2-.5-.3l-3.2-.05h-.05m1.25 5.8-.15-.5h-.45l.05.55.55-.05m3.05.3q0-.8-1.15-.85l.95 1.65.2-.8m-8.4-3.3L6 14.9q-.7-.4-.8-1L5.1 16l2.6-.2.15.55 2.85-.4-.15-.65h-1.4z" fill="none" stroke="#6d4201" stroke-linecap="round" stroke-linejoin="round" stroke-width="4"/><path d="M28.85 2.2q-.6 3.3-.95 6.7l.9-.2.45 2.6-1.6.4q-.25 3.1-.35 6.25l-3.1-.35.2-5.45H24q-1.2 0-2.2-1.05-.75-.8-.75-2.2 0-2.4 1.4-5.3l2.55.6q-1 2.3-1.25 4.05 0 1.1.85 1.25.4-4 1.05-7.65l3.2.35m-10.45.85q0 1.45-.45 2-.85.8-2.6.8l-11.9-.2v.8L17.4 6l.15 2.05-6.6.1v.35h.2l5.25.55q1.6.4 1.6 2.1v.35q0 1.05-1.1 1.4l-3.35.4h-2l.1.4 3.1-.15q1.65 0 2.6.45 1 .7 1.05 1.95-.05 1.05-.8 2.95l-2.7-.35.3-.8-1.5.75-.35-.6-6.1.7-.4-1.7 2.2-.2-.1-.55-2.75.4.35 2.25-2.85.2-.65-4L3 18.6l-3-.3Q.05 8.75.9.05l3 .35v.05L14.15 0q2.35 0 3.35.7.9.8.9 2.35m18.75.2 2.75.4-.6 3.3-2.5-.3-.2 2.4 2.2-.1.35 3.4-2.7.1-.15 2.35 3.6-.05.3 3.2-11.7.65-.3-3.25 4.65-.4.05-2.25-2.7.25-.35-3.4 3.3-.3.2-2.95-1.3-.05-.5 2.65-3.05-.65q.55-4 1.7-7.6l3.05.65-.5 1.55 1 .05.4-2.85 3.4.35-.4 2.85m-22.35-.8-.85-.15-10.25.55-.05.4 4 .05 6.85.2.45-.1.05-.5q0-.4-.2-.45M3.25 10.3q.25-.95.95-1.85l-.9.05-.05 1.8m4.8-1.65-.1-.35-3.1.15 1.6.3 1.6-.1m.2 2-2.15.25.15.35.25.05h1.85l-.1-.65m3-.15.1.8h1.15l2.2-.05.3-.4q0-.2-.5-.3l-3.2-.05h-.05m1.25 5.8-.15-.5h-.45l.05.55.55-.05m3.05.3q0-.8-1.15-.85l.95 1.65.2-.8m-8.4-3.3L4 12.9q-.7-.4-.8-1L3.1 14l2.6-.2.15.55 2.85-.4-.15-.65h-1.4" fill="url(#a)" fill-rule="evenodd" transform="translate(2 2)"/><defs><linearGradient gradientTransform="matrix(0 .0112 -.0116 0 9.15 9.5)" gradientUnits="userSpaceOnUse" id="a" spreadMethod="pad" x1="-819.2" x2="819.2"><stop offset="0" stop-color="#ff9"/><stop offset="1" stop-color="#fc0"/></linearGradient></defs></svg>