<svg xmlns:ffdec="https://www.free-decompiler.com/flash" ffdec:objectType="shape" height="23.8" width="44.35" xmlns="http://www.w3.org/2000/svg"><path d="m41.05 4.65.3 2.55-4.8.15-.05.6.1.4q.15.2.55.2l4.3-.7.6 3-2.25.45-2.45.2h-.25q-1.75 0-2.65-.65-1-.75-1.1-2.05l-1.5 1.5-.7-.7-2.1.5-2.95.4q-1.25 0-2.05-.8-.8-.75-.8-2.25 0-1.25 1.05-2.7Q26.8 2.2 28.8 2l1.65 2.35q-1.6.5-2.65 1.3-1 .8-1.15 1.5v.3l-.05.15 2.2-.4-.35-.25 2-2.2q1.7 1.1 2.9 2.8l.3-1.9 1.15-3.3L38 3.4l-.65 1.4 3.7-.15M38.2 12.6l-.7 1.4 3.85-.15.25 2.45-5.05.25-.05.8.2.5.6.2 4.45-.75.6 3-2.4.55-2.45.2h-.35q-1.75 0-2.7-.7-1.1-.8-1.1-2.45 0-1.4.35-2.9.55-1.8 1.4-3.5l3.1 1.1M20.55 5.4l-.2 3.25-3.85-.25-.4 1.9q1.7 0 2.7.75 1.15.8 1.15 2.55 0 .9-.75 1.95l-.65.95 2.25.6-1 3.2-3.9-1-2.75 2.5-2-2.5.95-.8-2.55-.45 1-3.15 4.55.8.7-.7.4-.8q0-.7-.9-.7-2.3.3-4.65 1.2l-1.1-3.1 2.8-.9.55-2.55-3.4-.2.45-3.3 3.75.2.7-2.5 3.45.7-.5 2.1 3.2.25m-11.4 4.65-1.8.05.15 1.3 1.35-.4.85 3.05-2 .75.25 3.35-3.35.35-.2-2.95-1.4.3-.8-3.2 1.9-.35-.1-1.8-1.7.35L2 7.6l1.7-.35-.2-2.65 3.4-.35.2 2.7 1.75-.1.3 3.2M26.3 11.1l2.8-.4q1.45 0 2.65.75 1.35.8 1.35 2.95v.5l-.25 3.25-.5 2.75-3.05-.65.65-3.55.15-2.25q0-.8-.6-1.05l-1.2-.15-1.7.4v.4l3.1.25-.2 2.2-2.65-.2.05.65 2.55.2-.2 2.15-2.05-.15.2 1.8-3.15.35-1.05-10.1 3.05-.35.05.25" fill="#6d4201" fill-rule="evenodd"/><path d="m41.05 4.65.3 2.55-4.8.15-.05.6.1.4q.15.2.55.2l4.3-.7.6 3-2.25.45-2.45.2h-.25q-1.75 0-2.65-.65-1-.75-1.1-2.05l-1.5 1.5-.7-.7-2.1.5-2.95.4q-1.25 0-2.05-.8-.8-.75-.8-2.25 0-1.25 1.05-2.7Q26.8 2.2 28.8 2l1.65 2.35q-1.6.5-2.65 1.3-1 .8-1.15 1.5v.3l-.05.15 2.2-.4-.35-.25 2-2.2q1.7 1.1 2.9 2.8l.3-1.9 1.15-3.3L38 3.4l-.65 1.4 3.7-.15M38.2 12.6l-.7 1.4 3.85-.15.25 2.45-5.05.25-.05.8.2.5.6.2 4.45-.75.6 3-2.4.55-2.45.2h-.35q-1.75 0-2.7-.7-1.1-.8-1.1-2.45 0-1.4.35-2.9.55-1.8 1.4-3.5l3.1 1.1M20.55 5.4l-.2 3.25-3.85-.25-.4 1.9q1.7 0 2.7.75 1.15.8 1.15 2.55 0 .9-.75 1.95l-.65.95 2.25.6-1 3.2-3.9-1-2.75 2.5-2-2.5.95-.8-2.55-.45 1-3.15 4.55.8.7-.7.4-.8q0-.7-.9-.7-2.3.3-4.65 1.2l-1.1-3.1 2.8-.9.55-2.55-3.4-.2.45-3.3 3.75.2.7-2.5 3.45.7-.5 2.1 3.2.25m-11.4 4.65-1.8.05.15 1.3 1.35-.4.85 3.05-2 .75.25 3.35-3.35.35-.2-2.95-1.4.3-.8-3.2 1.9-.35-.1-1.8-1.7.35L2 7.6l1.7-.35-.2-2.65 3.4-.35.2 2.7 1.75-.1.3 3.2M26.3 11.1l2.8-.4q1.45 0 2.65.75 1.35.8 1.35 2.95v.5l-.25 3.25-.5 2.75-3.05-.65.65-3.55.15-2.25q0-.8-.6-1.05l-1.2-.15-1.7.4v.4l3.1.25-.2 2.2-2.65-.2.05.65 2.55.2-.2 2.15-2.05-.15.2 1.8-3.15.35-1.05-10.1 3.05-.35.05.25z" fill="none" stroke="#6d4201" stroke-linecap="round" stroke-linejoin="round" stroke-width="4"/><path d="m39.05 2.65.3 2.55-4.8.15-.05.6.1.4q.15.2.55.2l4.3-.7.6 3-2.25.45-2.45.2h-.25q-1.75 0-2.65-.65-1-.75-1.1-2.05l-1.5 1.5-.7-.7-2.1.5-2.95.4q-1.25 0-2.05-.8-.8-.75-.8-2.25 0-1.25 1.05-2.7Q24.8.2 26.8 0l1.65 2.35q-1.6.5-2.65 1.3-1 .8-1.15 1.5v.3l-.05.15 2.2-.4-.35-.25 2-2.2q1.7 1.1 2.9 2.8l.3-1.9L32.8.35 36 1.4l-.65 1.4 3.7-.15M36.2 10.6l-.7 1.4 3.85-.15.25 2.45-5.05.25-.05.8.2.5.6.2 4.45-.75.6 3-2.4.55-2.45.2h-.35q-1.75 0-2.7-.7-1.1-.8-1.1-2.45 0-1.4.35-2.9.55-1.8 1.4-3.5l3.1 1.1M18.55 3.4l-.2 3.25-3.85-.25-.4 1.9q1.7 0 2.7.75 1.15.8 1.15 2.55 0 .9-.75 1.95l-.65.95 2.25.6-1 3.2-3.9-1-2.75 2.5-2-2.5.95-.8-2.55-.45 1-3.15 4.55.8.7-.7.4-.8q0-.7-.9-.7-2.3.3-4.65 1.2l-1.1-3.1 2.8-.9.55-2.55-3.4-.2.45-3.3 3.75.2.7-2.5 3.45.7-.5 2.1 3.2.25M7.15 8.05l-1.8.05.15 1.3L6.85 9l.85 3.05-2 .75.25 3.35-3.35.35-.2-2.95-1.4.3-.8-3.2 1.9-.35L2 8.5l-1.7.35L0 5.6l1.7-.35-.2-2.65 3.4-.35.2 2.7 1.75-.1.3 3.2M24.3 9.1l2.8-.4q1.45 0 2.65.75 1.35.8 1.35 2.95v.5l-.25 3.25-.5 2.75-3.05-.65.65-3.55.15-2.25q0-.8-.6-1.05l-1.2-.15-1.7.4v.4l3.1.25-.2 2.2-2.65-.2.05.65 2.55.2-.2 2.15-2.05-.15.2 1.8-3.15.35L21.2 9.2l3.05-.35.05.25" fill="url(#a)" fill-rule="evenodd" transform="translate(2 2)"/><defs><linearGradient gradientTransform="matrix(0 .0122 -.0087 0 4.45 10)" gradientUnits="userSpaceOnUse" id="a" spreadMethod="pad" x1="-819.2" x2="819.2"><stop offset="0" stop-color="#ff9"/><stop offset="1" stop-color="#fc0"/></linearGradient></defs></svg>