<svg xmlns:ffdec="https://www.free-decompiler.com/flash" ffdec:objectType="shape" height="23.9" width="43.95" xmlns="http://www.w3.org/2000/svg"><path d="m7.25 1.7-.3-.6L9.85 0l.85 1.85 2.45.1L14 .1l3.15 1.05-.55 1.1 1.65.1-.25 2.7-5.85-.4-.4.7 2.45.15q1.75.2 3.2 1.2Q19 8 19 10.75v.85q0 2-2 3.35-1.85 1.2-4.65 1.3l.45 2.15q-2.85.85-5.3.85h-.95q-2.65 0-4.5-.9Q0 17.15 0 14.95q0-2.75 1.2-6.2l3.2.75q-1.15 2.7-1.15 4.85 0 1.05.95 1.5.9.55 2.95.55l2.6-.25q-2-.2-3.3-1.2-1.95-1.4-1.95-4 0-2.45 1.6-5.45l1 .25.95-.1.6-1.2-3.4-.1.25-2.65h1.75m.45 8.9 3.65.35-.15 1.8-3.1-.2.45.45q1 .65 2.5.65h.75q1.8 0 2.95-.65 1.15-.7 1.15-1.65v-.45q0-1.75-.9-2.3L12.9 8l-1.75-.05-2.85.4 3.25.25-.2 1.8-3.65-.2v.4" fill="url(#a)" fill-rule="evenodd" transform="translate(2 2)"/><path d="m.5 4.35.8-2.7q1.95.4 3.3 1.1l-.9 2.9q-1.65-.9-3.2-1.3" fill="url(#b)" fill-rule="evenodd" transform="translate(2 2)"/><path d="m21.65 13.75 2.65-.3-1-12.35 3.3-.3v.3l.85-.15 5.7-.45q2.35 0 3.75 1.35 1.3 1.4 1.3 3.2v.5l-.25 4.75-.25 2.6 2-.1.25 2.95-3.35.05 2.55 1.65-2.25 2.25-4.6-2.65 1.2-1.2-5.05.3 1 .9-4.2 2.85-2.3-2.05 1.95-1.45-2.9.25-.35-2.9m5.2-9.5 6-.3.25 2.5-6.05.25.05.45 5.8-.2.25 2.45-5.85.3v.45l5.6-.25.25 2.45-5.65.25.1.6 6.75-.25.4-3.65.2-3.65q0-1.1-.6-1.6-.6-.7-1.7-.7l-3.2.15-2.6.45v.3" fill="url(#c)" fill-rule="evenodd" transform="translate(2 2)"/><path d="m9.25 3.7-.3-.6 2.9-1.1.85 1.85 2.45.1L16 2.1l3.15 1.05-.55 1.1 1.65.1-.25 2.7-5.85-.4-.4.7 2.45.15q1.75.2 3.2 1.2Q21 10 21 12.75v.85q0 2-2 3.35-1.85 1.2-4.65 1.3l.45 2.15q-2.85.85-5.3.85h-.95q-2.65 0-4.5-.9Q2 19.15 2 16.95q0-2.75 1.2-6.2l3.2.75q-1.15 2.7-1.15 4.85 0 1.05.95 1.5.9.55 2.95.55l2.6-.25q-2-.2-3.3-1.2-1.95-1.4-1.95-4 0-2.45 1.6-5.45l1 .25.95-.1.6-1.2-3.4-.1.25-2.65h1.75m.45 8.9 3.65.35-.15 1.8-3.1-.2.45.45q1 .65 2.5.65h.75q1.8 0 2.95-.65 1.15-.7 1.15-1.65v-.45q0-1.75-.9-2.3l-2.1-.6-1.75-.05-2.85.4 3.25.25-.2 1.8-3.65-.2v.4M2.5 6.35l.8-2.7q1.95.4 3.3 1.1l-.9 2.9q-1.65-.9-3.2-1.3m21.15 9.4 2.65-.3-1-12.35 3.3-.3v.3l.85-.15 5.7-.45q2.35 0 3.75 1.35 1.3 1.4 1.3 3.2v.5l-.25 4.75-.25 2.6 2-.1.25 2.95-3.35.05 2.55 1.65-2.25 2.25-4.6-2.65 1.2-1.2-5.05.3 1 .9-4.2 2.85-2.3-2.05 1.95-1.45-2.9.25-.35-2.9m5.2-9.5 6-.3.25 2.5-6.05.25.05.45 5.8-.2.25 2.45-5.85.3v.45l5.6-.25.25 2.45-5.65.25.1.6 6.75-.25.4-3.65.2-3.65q0-1.1-.6-1.6-.6-.7-1.7-.7l-3.2.15-2.6.45v.3z" fill="none" stroke="#6d4201" stroke-linecap="round" stroke-linejoin="round" stroke-width="4"/><path d="m38.25 5.55-.3 4.75-.25 2.6 2-.1.25 2.95-3.3.05q1.4.75 2.5 1.65L36.9 19.7q-1.9-1.25-4.6-2.65l1.2-1.2-5.05.3 1 .9-4.2 2.85-2.3-2.05 2-1.45-2.95.25-.3-2.9 2.65-.3-1-12.35L26.6.8v.3l.85-.15L33.2.5q2.3 0 3.7 1.35 1.35 1.4 1.35 3.2v.5m-5.6-2.2-3.2.15-2.6.45v.3l6-.3.25 2.5-6.05.25.1.45 5.75-.2.3 2.45-5.85.3v.45l5.55-.25.3 2.45-5.65.25.05.6 6.8-.25.4-3.65.2-3.65q0-1.1-.6-1.6-.6-.7-1.75-.7m-16-1.1 1.65.1-.3 2.7-5.85-.4-.35.7 2.45.15q1.7.2 3.2 1.2Q19 8 19 10.75v.85q0 2-1.95 3.35-1.9 1.2-4.7 1.3l.5 2.15-5.35.85h-.9q-2.65 0-4.55-.9Q0 17.15 0 14.95q0-2.75 1.2-6.2l3.2.75q-1.15 2.7-1.15 4.85 0 1.05.95 1.5.95.55 3 .55l2.6-.25q-2-.2-3.35-1.2-1.9-1.4-1.9-4 0-2.45 1.55-5.45l1 .25.95-.1.6-1.2-3.4-.1.3-2.65h1.7L7 1.1 9.85 0l.85 1.85 2.45.1.9-1.85 3.1 1.05-.5 1.1M11.4 10.4l-3.7-.2v.4l3.7.35-.15 1.8-3.15-.2.5.45q1 .65 2.45.65h.8q1.8 0 2.9-.65 1.15-.7 1.15-1.65v-.45q0-1.75-.85-2.3-.8-.45-2.15-.6l-1.7-.05-2.9.4 3.3.25-.2 1.8M.55 4.35l.8-2.7q1.9.4 3.25 1.1l-.85 2.9q-1.7-.9-3.2-1.3" fill="url(#d)" fill-rule="evenodd" transform="translate(2 2)"/><defs><linearGradient gradientTransform="matrix(.0116 0 0 .0118 9.5 9.6)" gradientUnits="userSpaceOnUse" id="a" spreadMethod="pad" x1="-819.2" x2="819.2"><stop offset="0" stop-color="#ff9"/><stop offset="1" stop-color="#fc0"/></linearGradient><linearGradient gradientTransform="matrix(.0025 0 0 .0024 2.5 3.65)" gradientUnits="userSpaceOnUse" id="b" spreadMethod="pad" x1="-819.2" x2="819.2"><stop offset="0" stop-color="#ff9"/><stop offset="1" stop-color="#fc0"/></linearGradient><linearGradient gradientTransform="matrix(.0112 0 0 .0119 30.75 10.2)" gradientUnits="userSpaceOnUse" id="c" spreadMethod="pad" x1="-819.2" x2="819.2"><stop offset="0" stop-color="#ff9"/><stop offset="1" stop-color="#fc0"/></linearGradient><linearGradient gradientTransform="matrix(0 .0116 -.0118 0 9.85 9.95)" gradientUnits="userSpaceOnUse" id="d" spreadMethod="pad" x1="-819.2" x2="819.2"><stop offset="0" stop-color="#ff9"/><stop offset="1" stop-color="#fc0"/></linearGradient></defs></svg>