<svg xmlns:ffdec="https://www.free-decompiler.com/flash" ffdec:objectType="shape" height="23.6" width="44.3" xmlns="http://www.w3.org/2000/svg"><path d="M36.95 5.05 36.15 8 32.2 6.7l.8-2.85q2.4.55 3.95 1.2m.55 7.9-.6-9.7 3.35-.35.65 9.6 1.05-.15.35 3.2-1.2.15.25 4.9-3.25.35-.35-4.8-4.95.4-.35-3.2 5.05-.4m-1.65-.6L31.7 11.1l.9-2.8q2.4.55 4.05 1.25l-.8 2.8M14.65 5.4l1.5 1.4-.9 1q2.6.85 5.55 1.25l-.6 2.9q-4.15-.5-7.15-1.8l-1.35 1.5 2.25-.1q2.5 0 4 .6 1.55.95 1.55 2.15v.45q-.15 2-.7 3.6l-3.3-.6q.55-1.05.65-2.45 0-.45-.6-.65l-2.1-.1-2.2.1 2.6.7-1.35 2.2 5.15 1-.95 2.85-5.65-1.05-.65 1.25-2.9-1q1.55-3.4 3.35-5.9l-3.6.55.35 4.3-3 .35-.65-7.8 2.95-.25v.3l3.15-.4-1.4-1.3 4.4-4.8Q11.7 6 10.5 6.6l-.6 2.2-2.85-.6.6 2.05q-2.1.8-4.8 1.1L2 8.25 6.8 7.1l.2.75Q7.65 4.8 9.05 2l3.05.65-.3.6 5.25-.65q1.35 0 2.3.65.95.65.95 1.65-.1 1.5-.6 3.35l-3.2-.6q.55-.85.55-1.65 0-.7-1.3-.7l-1.1.1M6.9 6.5 2 6.1l.35-3.05 4.9.35-.35 3.1m22.15-2.9.2 2.65 1.45-.85 1.4 2.2q-1.3.7-2.7 1.65l.05.65 1.85-.15.35 3.2-2.05.1.15 1.85 2.35.5-.65 2.8-1.6-.2.1 1.8-3.15.3-.2-3-1.6 1.85L22.95 17l2.65-2.95.85.85-.05-1.45-2.85.6-.35-3.15 3.05-.65-.05-.9-2 1q-.9-1.65-1.45-3.75l2.5-1 .9 2.7-.2-4.4 3.1-.3" fill="#6d4201" fill-rule="evenodd"/><path d="M36.95 5.05 36.15 8 32.2 6.7l.8-2.85q2.4.55 3.95 1.2m.55 7.9-.6-9.7 3.35-.35.65 9.6 1.05-.15.35 3.2-1.2.15.25 4.9-3.25.35-.35-4.8-4.95.4-.35-3.2 5.05-.4m-1.65-.6L31.7 11.1l.9-2.8q2.4.55 4.05 1.25l-.8 2.8M14.65 5.4l1.5 1.4-.9 1q2.6.85 5.55 1.25l-.6 2.9q-4.15-.5-7.15-1.8l-1.35 1.5 2.25-.1q2.5 0 4 .6 1.55.95 1.55 2.15v.45q-.15 2-.7 3.6l-3.3-.6q.55-1.05.65-2.45 0-.45-.6-.65l-2.1-.1-2.2.1 2.6.7-1.35 2.2 5.15 1-.95 2.85-5.65-1.05-.65 1.25-2.9-1q1.55-3.4 3.35-5.9l-3.6.55.35 4.3-3 .35-.65-7.8 2.95-.25v.3l3.15-.4-1.4-1.3 4.4-4.8Q11.7 6 10.5 6.6l-.6 2.2-2.85-.6.6 2.05q-2.1.8-4.8 1.1L2 8.25 6.8 7.1l.2.75Q7.65 4.8 9.05 2l3.05.65-.3.6 5.25-.65q1.35 0 2.3.65.95.65.95 1.65-.1 1.5-.6 3.35l-3.2-.6q.55-.85.55-1.65 0-.7-1.3-.7l-1.1.1M6.9 6.5 2 6.1l.35-3.05 4.9.35-.35 3.1m22.15-2.9.2 2.65 1.45-.85 1.4 2.2q-1.3.7-2.7 1.65l.05.65 1.85-.15.35 3.2-2.05.1.15 1.85 2.35.5-.65 2.8-1.6-.2.1 1.8-3.15.3-.2-3-1.6 1.85L22.95 17l2.65-2.95.85.85-.05-1.45-2.85.6-.35-3.15 3.05-.65-.05-.9-2 1q-.9-1.65-1.45-3.75l2.5-1 .9 2.7-.2-4.4 3.1-.3z" fill="none" stroke="#6d4201" stroke-linecap="round" stroke-linejoin="round" stroke-width="4"/><path d="M34.95 3.05 34.15 6 30.2 4.7l.8-2.85q2.4.55 3.95 1.2m-1.1 7.3L29.7 9.1l.9-2.8q2.4.55 4.05 1.25l-.8 2.8m1.65.6-.6-9.7L38.25.9l.65 9.6 1.05-.15.35 3.2-1.2.15.25 4.9-3.25.35-.35-4.8-4.95.4-.35-3.2 5.05-.4M12.65 3.4l1.5 1.4-.9 1q2.6.85 5.55 1.25l-.6 2.9q-4.15-.5-7.15-1.8L9.7 9.65l2.25-.1q2.5 0 4 .6 1.55.95 1.55 2.15v.45q-.15 2-.7 3.6l-3.3-.6q.55-1.05.65-2.45 0-.45-.6-.65l-2.1-.1-2.2.1 2.6.7-1.35 2.2 5.15 1-.95 2.85-5.65-1.05-.65 1.25-2.9-1q1.55-3.4 3.35-5.9l-3.6.55.35 4.3-3 .35-.65-7.8 2.95-.25v.3l3.15-.4-1.4-1.3 4.4-4.8Q9.7 4 8.5 4.6l-.6 2.2-2.85-.6.6 2.05q-2.1.8-4.8 1.1L0 6.25 4.8 5.1l.2.75Q5.65 2.8 7.05 0l3.05.65-.3.6L15.05.6q1.35 0 2.3.65.95.65.95 1.65-.1 1.5-.6 3.35l-3.2-.6q.55-.85.55-1.65 0-.7-1.3-.7l-1.1.1M4.9 4.5 0 4.1l.35-3.05 4.9.35-.35 3.1m22.15-2.9.2 2.65 1.45-.85 1.4 2.2q-1.3.7-2.7 1.65l.05.65 1.85-.15.35 3.2-2.05.1.15 1.85 2.35.5-.65 2.8-1.6-.2.1 1.8-3.15.3-.2-3-1.6 1.85L20.95 15l2.65-2.95.85.85-.05-1.45-2.85.6-.35-3.15 3.05-.65-.05-.9-2 1q-.9-1.65-1.45-3.75l2.5-1 .9 2.7-.2-4.4 3.1-.3" fill="url(#a)" fill-rule="evenodd" transform="translate(2 2)"/><defs><linearGradient gradientTransform="matrix(0 .0115 -.012 0 9.4 9.75)" gradientUnits="userSpaceOnUse" id="a" spreadMethod="pad" x1="-819.2" x2="819.2"><stop offset="0" stop-color="#ff9"/><stop offset="1" stop-color="#fc0"/></linearGradient></defs></svg>