<svg xmlns:ffdec="https://www.free-decompiler.com/flash" xmlns:xlink="http://www.w3.org/1999/xlink" ffdec:objectType="frame" height="12.95" width="67.35" xmlns="http://www.w3.org/2000/svg"><g transform="translate(.5 .5)"><use ffdec:characterId="178" height="12.95" transform="translate(-.5 -.5)" width="67.35" xlink:href="#a"/><use ffdec:characterId="183" height="11.2" width="66" xlink:href="#b"/></g><defs><linearGradient gradientTransform="matrix(.0327 0 0 .0068 31.25 7.1)" gradientUnits="userSpaceOnUse" id="d" spreadMethod="pad" x1="-819.2" x2="819.2"><stop offset="0" stop-color="#930"/><stop offset="1" stop-color="#5c1c01"/></linearGradient><linearGradient gradientTransform="matrix(.0409 0 0 .0074 33 5.6)" gradientUnits="userSpaceOnUse" id="e" spreadMethod="pad" x1="-819.2" x2="819.2"><stop offset="0" stop-color="#651f01"/><stop offset="1" stop-color="#210101"/></linearGradient><linearGradient gradientTransform="matrix(.0345 0 0 .0068 33.4 6.25)" gradientUnits="userSpaceOnUse" id="c" spreadMethod="pad" x1="-819.2" x2="819.2"><stop offset="0" stop-color="#cf0"/><stop offset=".392" stop-color="#ff0"/><stop offset=".741" stop-color="#f90"/><stop offset="1" stop-color="#f60"/></linearGradient><path d="m65.7 5.75-1.5 1.9.2 2.1q.35 1.55-1.35 1.4l-3.15-.95-2.1.85h-.05q-1.65.55-1.7-1.25l.25-2.3-1.5-1.7q-1-1.4.4-1.9l2.3-.6L58.9.95l.05-.15Q59.9-.7 61 .7l1.9 2.6 2.5.65q1.05.55.3 1.8m-13.6 0-1.5 1.9.2 2.1q.35 1.55-1.35 1.4l-3.15-.95-2.1.85h-.05q-1.65.55-1.7-1.25l.25-2.3-1.5-1.7q-1-1.4.4-1.9l2.3-.6L45.3.95l.05-.15Q46.3-.7 47.4.7l1.9 2.6 2.5.65q1.05.55.3 1.8m-13.6 0L37 7.65l.2 2.1q.35 1.55-1.35 1.4l-3.15-.95-2.1.85h-.05q-1.65.55-1.7-1.25l.25-2.3-1.5-1.7q-1-1.4.4-1.9l2.3-.6L31.7.95l.05-.15Q32.7-.7 33.8.7l1.9 2.6 2.5.65q1.05.55.3 1.8m-13.6 0-1.5 1.9.2 2.1q.35 1.55-1.35 1.4l-3.15-.95-2.1.85h-.05q-1.65.55-1.7-1.25l.25-2.3L14 5.8q-1-1.4.4-1.9l2.3-.6L18.1.95l.05-.15Q19.1-.7 20.2.7l1.9 2.6 2.5.65q1.05.55.3 1.8m-13.6 0-1.5 1.9.2 2.1q.35 1.55-1.35 1.4L5.5 10.2l-2.1.85h-.05q-1.65.55-1.7-1.25l.25-2.3L.4 5.8q-1-1.4.4-1.9l2.3-.6L4.5.95 4.55.8Q5.5-.7 6.6.7l1.9 2.6 2.5.65q1.05.55.3 1.8" fill="url(#c)" fill-rule="evenodd" id="b"/><g id="a"><path d="M65.25 11q.35 1.55-1.35 1.4l-3.15-.95-2.1.85h-.05q-1.65.55-1.7-1.25l.25-2.3-1.5-1.7q-1-1.4.4-1.9l2.3-.6 1.4-2.35.05-.15q.95-1.5 2.05-.1l1.9 2.6 2.5.65q1.05.55.3 1.8l-1.5 1.9.05.75.15 1.35m-13.6 0q.35 1.55-1.35 1.4l-3.15-.95-2.1.85H45q-1.65.55-1.7-1.25l.25-2.3-1.5-1.7q-1-1.4.4-1.9l2.3-.6 1.4-2.35.05-.15q.95-1.5 2.05-.1l1.9 2.6 2.5.65q1.05.55.3 1.8l-1.5 1.9.05.75.15 1.35m-12.6-5.8q1.05.55.3 1.8l-1.5 1.9.05.75.15 1.35q.35 1.55-1.35 1.4l-3.15-.95-2.1.85h-.05q-1.65.55-1.7-1.25l.25-2.3-1.5-1.7q-1-1.4.4-1.9l2.3-.6 1.4-2.35.05-.15q.95-1.5 2.05-.1l1.9 2.6 2.5.65m-16.1-.65 2.5.65q1.05.55.3 1.8l-1.5 1.9.05.8.15 1.3q.35 1.55-1.35 1.4l-3.15-.95-2.1.85h-.05q-1.65.55-1.7-1.25l.25-2.3-1.5-1.7q-1-1.4.4-1.9l2.3-.6 1.4-2.35.05-.15q.95-1.5 2.05-.1l1.9 2.6M10.85 11q.35 1.55-1.35 1.4l-3.15-.95-2.1.85H4.2q-1.65.55-1.7-1.25l.25-2.3-1.5-1.7q-1-1.4.4-1.9l2.3-.6 1.4-2.35.05-.15q.95-1.5 2.05-.1l1.9 2.6 2.5.65q1.05.55.3 1.8l-1.5 1.9.05.8.15 1.3" fill-opacity=".502" fill-rule="evenodd" transform="translate(.5 .5)"/><path d="M64.4 9.75q.35 1.55-1.35 1.4l-3.15-.95-2.1.85h-.05q-1.65.55-1.7-1.25l.25-2.3-1.5-1.7q-1-1.4.4-1.9l2.3-.6L58.9.95l.05-.15Q59.9-.7 61 .7l1.9 2.6 2.5.65q1.05.55.3 1.8l-1.5 1.9.2 2v.1m-12.3-4-1.5 1.9.2 2v.1q.35 1.55-1.35 1.4l-3.15-.95-2.1.85h-.05q-1.65.55-1.7-1.25l.25-2.3-1.5-1.7q-1-1.4.4-1.9l2.3-.6L45.3.95l.05-.15Q46.3-.7 47.4.7l1.9 2.6 2.5.65q1.05.55.3 1.8m-13.6 0L37 7.65l.2 2v.1q.35 1.55-1.35 1.4l-3.15-.95-2.1.85h-.05q-1.65.55-1.7-1.25l.05-.1.2-2.2-1.5-1.7q-1-1.4.4-1.9l2.3-.6L31.7.95l.05-.15Q32.7-.7 33.8.7l1.9 2.6 2.5.65q1.05.55.3 1.8m-13.6 0-1.5 1.9.2 2.05v.05q.35 1.55-1.35 1.4l-3.15-.95-2.1.85h-.05q-1.65.55-1.7-1.25l.05-.1.2-2.2L14 5.8q-1-1.4.4-1.9l2.3-.6L18.1.95l.05-.15Q19.1-.7 20.2.7l1.9 2.6 2.5.65q1.05.55.3 1.8m-13.6 0-1.5 1.9.2 2.05v.05q.35 1.55-1.35 1.4L5.5 10.2l-2.1.85h-.05q-1.65.55-1.7-1.25v-.1l.25-2.2L.4 5.8q-1-1.4.4-1.9l2.3-.6L4.5.95 4.55.8Q5.5-.7 6.6.7l1.9 2.6 2.5.65q1.05.55.3 1.8" fill="url(#d)" fill-rule="evenodd" transform="translate(.5 .5)"/><path d="M64.4 9.75q.35 1.55-1.35 1.4l-3.15-.95-2.1.85h-.05q-1.65.55-1.7-1.25l.25-2.3-1.5-1.7q-1-1.4.4-1.9l2.3-.6L58.9.95l.05-.15Q59.9-.7 61 .7l1.9 2.6 2.5.65q1.05.55.3 1.8l-1.5 1.9.2 2v.1m-12.3-4-1.5 1.9.2 2v.1q.35 1.55-1.35 1.4l-3.15-.95-2.1.85h-.05q-1.65.55-1.7-1.25l.25-2.3-1.5-1.7q-1-1.4.4-1.9l2.3-.6L45.3.95l.05-.15Q46.3-.7 47.4.7l1.9 2.6 2.5.65q1.05.55.3 1.8m-13.6 0L37 7.65l.2 2v.1q.35 1.55-1.35 1.4l-3.15-.95-2.1.85h-.05q-1.65.55-1.7-1.25l.05-.1.2-2.2-1.5-1.7q-1-1.4.4-1.9l2.3-.6L31.7.95l.05-.15Q32.7-.7 33.8.7l1.9 2.6 2.5.65q1.05.55.3 1.8m-13.6 0-1.5 1.9.2 2.05v.05q.35 1.55-1.35 1.4l-3.15-.95-2.1.85h-.05q-1.65.55-1.7-1.25l.05-.1.2-2.2L14 5.8q-1-1.4.4-1.9l2.3-.6L18.1.95l.05-.15Q19.1-.7 20.2.7l1.9 2.6 2.5.65q1.05.55.3 1.8m-13.6 0-1.5 1.9.2 2.05v.05q.35 1.55-1.35 1.4L5.5 10.2l-2.1.85h-.05q-1.65.55-1.7-1.25v-.1l.25-2.2L.4 5.8q-1-1.4.4-1.9l2.3-.6L4.5.95 4.55.8Q5.5-.7 6.6.7l1.9 2.6 2.5.65q1.05.55.3 1.8z" fill="none" stroke="url(#e)" stroke-linecap="round" stroke-linejoin="round" transform="translate(.5 .5)"/></g></defs></svg>