<svg xmlns:ffdec="https://www.free-decompiler.com/flash" ffdec:objectType="shape" height="19" width="52.1" xmlns="http://www.w3.org/2000/svg"><path d="m6.65 6.35-.8.9L9 5.85q1-.45 1-.7 0-.65-1.25-.65l-3.4.55 1.3 1.3M9.3 2.3q1.45 0 2.45.6 1.1.7 1.1 2.15-.05 1.15-1.5 2-1.5 1-3.65 2h.7l2.45.1q1.15.15 2.15.8 1.2.75 1.2 2.15v.45q0 1.15-1.2 1.85-1.65 1.2-4.6 1.2H7.15q-2.3 0-3.7-.6-1.55-.85-1.55-2.45l.2-1.15-1.1.4-1-2.4 4.5-1.7-1.7-1.4-.5.8L.35 5.75q1.95-2.95 4-5L6.1 1.9l-.65.8 3.85-.4m-4.2 9.8q0 .8.55 1.1l1.65.3h.55l2.55-.4q.6-.35.6-.8 0-.6-.65-.9l-2.1-.3q-1.35 0-3.15 1m43-5.35q0 .7-.5 1.25-.5.5-1.2.5T45.2 8q-.5-.55-.5-1.25 0-.65.5-1.2.5-.45 1.2-.45t1.2.45q.5.55.5 1.2m-2.9 4.5q.5-.55 1.2-.55t1.2.55q.5.45.5 1.2 0 .7-.5 1.2t-1.2.5q-.7 0-1.2-.5t-.5-1.2q0-.75.5-1.2M29.8 2.8l2.35-.15 2.5.4q.95.55 1.05 1.65l-.55 2.55-2.15-.3.05.4q0 .75-.55 1.3l-1.3.9.5.8 3.75-.05.3 2.25-3.9.15q-.3 1.95-2.35 3.05l-1.95-1.4q1.4-.65 1.75-1.55l-7.3.75-.25-2.25 7.15-.75q-.65-.65-1.9-.9l1.3-1.55.9.2.9-.55.05-.1-.25-.1q-2.45.1-5.45 1.35l-.2-.6-2 .6Q21.3 6.55 20.9 4l2.25-.7.15.75 3.55-.85-.5-1.3L28.9.85l.9 1.95m-5.75 4.1q3.5-1.4 6.1-1.4l2.05.4.65.6.3-1.25q0-.6-1.45-.6-4.35.25-7.95 1.45l.3.8" fill="url(#a)" fill-rule="evenodd" transform="translate(2 1.25)"/><path d="m8.65 7.6-.8.9L11 7.1q1-.45 1-.7 0-.65-1.25-.65l-3.4.55 1.3 1.3m2.65-4.05q1.45 0 2.45.6 1.1.7 1.1 2.15-.05 1.15-1.5 2-1.5 1-3.65 2h.7l2.45.1q1.15.15 2.15.8 1.2.75 1.2 2.15v.45q0 1.15-1.2 1.85-1.65 1.2-4.6 1.2H9.15q-2.3 0-3.7-.6Q3.9 15.4 3.9 13.8l.2-1.15-1.1.4-1-2.4 4.5-1.7-1.7-1.4-.5.8L2.35 7q1.95-2.95 4-5L8.1 3.15l-.65.8 3.85-.4m-4.2 9.8q0 .8.55 1.1l1.65.3h.55l2.55-.4q.6-.35.6-.8 0-.6-.65-.9l-2.1-.3q-1.35 0-3.15 1M50.1 8q0 .7-.5 1.25-.5.5-1.2.5t-1.2-.5q-.5-.55-.5-1.25 0-.65.5-1.2.5-.45 1.2-.45t1.2.45q.5.55.5 1.2m-2.9 4.5q.5-.55 1.2-.55t1.2.55q.5.45.5 1.2 0 .7-.5 1.2t-1.2.5q-.7 0-1.2-.5t-.5-1.2q0-.75.5-1.2M31.8 4.05l2.35-.15 2.5.4q.95.55 1.05 1.65l-.55 2.55L35 8.2l.05.4q0 .75-.55 1.3l-1.3.9.5.8 3.75-.05.3 2.25-3.9.15q-.3 1.95-2.35 3.05l-1.95-1.4q1.4-.65 1.75-1.55l-7.3.75-.25-2.25 7.15-.75q-.65-.65-1.9-.9l1.3-1.55.9.2.9-.55.05-.1-.25-.1q-2.45.1-5.45 1.35l-.2-.6-2 .6q-.95-2.35-1.35-4.9l2.25-.7.15.75 3.55-.85-.5-1.3L30.9 2.1l.9 1.95m-5.75 4.1q3.5-1.4 6.1-1.4l2.05.4.65.6.3-1.25q0-.6-1.45-.6-4.35.25-7.95 1.45l.3.8z" fill="none" stroke="#6d4201" stroke-linecap="round" stroke-linejoin="round" stroke-width="4"/><path d="M9.3 1.55q1.45 0 2.45.6 1.1.7 1.1 2.15-.05 1.15-1.5 2-1.5 1-3.65 2h.7l2.45.1q1.15.15 2.15.8 1.2.75 1.2 2.15v.45q0 1.15-1.2 1.85-1.65 1.2-4.6 1.2H7.15q-2.3 0-3.7-.6Q1.9 13.4 1.9 11.8l.2-1.15-1.1.4-1-2.4 4.5-1.7-1.7-1.4-.5.8L.35 5q1.95-2.95 4-5L6.1 1.15l-.65.8 3.85-.4M5.35 4.3l1.3 1.3-.8.9L9 5.1q1-.45 1-.7 0-.65-1.25-.65l-3.4.55m-.25 7.05q0 .8.55 1.1l1.65.3h.55l2.55-.4q.6-.35.6-.8 0-.6-.65-.9l-2.1-.3q-1.35 0-3.15 1M47.6 4.8q.5.55.5 1.2 0 .7-.5 1.25-.5.5-1.2.5t-1.2-.5q-.5-.55-.5-1.25 0-.65.5-1.2.5-.45 1.2-.45t1.2.45m-2.4 5.7q.5-.55 1.2-.55t1.2.55q.5.45.5 1.2 0 .7-.5 1.2t-1.2.5q-.7 0-1.2-.5t-.5-1.2q0-.75.5-1.2M29.8 2.05l2.35-.15 2.5.4q.95.55 1.05 1.65l-.55 2.55L33 6.2l.05.4q0 .75-.55 1.3l-1.3.9.5.8 3.75-.05.3 2.25-3.9.15q-.3 1.95-2.35 3.05l-1.95-1.4q1.4-.65 1.75-1.55l-7.3.75-.25-2.25 7.15-.75q-.65-.65-1.9-.9l1.3-1.55.9.2.9-.55.05-.1-.25-.1q-2.45.1-5.45 1.35l-.2-.6-2 .6q-.95-2.35-1.35-4.9l2.25-.7.15.75 3.55-.85-.5-1.3L28.9.1l.9 1.95m-5.75 4.1q3.5-1.4 6.1-1.4l2.05.4.65.6.3-1.25q0-.6-1.45-.6-4.35.25-7.95 1.45l.3.8" fill="url(#b)" fill-rule="evenodd" transform="translate(2 1.25)"/><defs><linearGradient gradientTransform="matrix(0 .0087 -.009 0 6.95 8)" gradientUnits="userSpaceOnUse" id="a" spreadMethod="pad" x1="-819.2" x2="819.2"><stop offset="0" stop-color="#ff9"/><stop offset=".992" stop-color="#fc0"/></linearGradient><linearGradient gradientTransform="matrix(0 .0087 -.009 0 6.95 7.25)" gradientUnits="userSpaceOnUse" id="b" spreadMethod="pad" x1="-819.2" x2="819.2"><stop offset="0" stop-color="#ff9"/><stop offset=".992" stop-color="#fc0"/></linearGradient></defs></svg>