<svg xmlns:ffdec="https://www.free-decompiler.com/flash" ffdec:objectType="shape" height="19" width="51.5" xmlns="http://www.w3.org/2000/svg"><path d="M44.2 6.7q0-.7.45-1.2.5-.5 1.2-.5t1.2.5q.45.5.45 1.2l-.45 1.2q-.5.5-1.2.5t-1.2-.5q-.45-.55-.45-1.2m-10.6-.5Q31.95 7.3 29 7.3h-1.35l-4.25-.55q-1.75-.8-1.75-2.2 0-1.7 1.35-3.25l.8.35 5.1-.3 2.45.1q1.15.2 2.2.7 1.15.75 1.15 1.95v.45q0 1.05-1.1 1.65m-.8 9.2-2.9-.55.5-1.4-.1-.45-.2-.2-2.25.2-1.95.2q-2.6 0-2.6-2.6l.05-.95-2.55-.05.3-2.1 13.85.4-.15 2.15-8.65-.3-.2.9q0 .35.65.35h.3l3.55-.35q1.2 0 2 .5.85.5.85 1.5l-.5 2.75m13.05-4.8q.7 0 1.2.5.45.45.45 1.2 0 .7-.45 1.2-.5.45-1.2.45t-1.2-.45q-.45-.5-.45-1.2 0-.75.45-1.2.5-.5 1.2-.5M8.55 2.15l5.1-.1.25 2.15-10.55.55-.6 5.1 3.45-.9.5-1.7 2.75.6v-.1q0-.9-.85-.9-2.5.1-4.45 1.2L3.45 6q3.2-1.2 6.2-1.2 1 0 1.7.55.75.65.75 1.5l-.3 1.9q.55.1.95.4.9.55.9 1.5l-.55 2.9-2.65-.5q.55-.8.55-1.55 0-.7-1.55-.7l.2 1.7q0 2.1-1.85 3.25l-2-1.45q1.3-.7 1.3-2 0-.8-.4-1.2-1.8.3-3.35 1l-.65-1.75-.2 4.6L0 14.7q.05-5.05.75-9.75L.3 5 .05 2.85l5.45-.5-.2-.65L7.75.75l.8 1.4M25.35 5l2.3.3h.9l2.7-.35.55-.65q0-.5-.6-.7l-2.4-.25q-1.9 0-4.25.75 0 .75.8.9" fill="url(#a)" fill-rule="evenodd" transform="translate(2 1.25)"/><path d="M46.2 7.95q0-.7.45-1.2.5-.5 1.2-.5t1.2.5q.45.5.45 1.2l-.45 1.2q-.5.5-1.2.5t-1.2-.5q-.45-.55-.45-1.2m-10.6-.5q-1.65 1.1-4.6 1.1h-1.35L25.4 8q-1.75-.8-1.75-2.2 0-1.7 1.35-3.25l.8.35 5.1-.3 2.45.1q1.15.2 2.2.7 1.15.75 1.15 1.95v.45q0 1.05-1.1 1.65m-.8 9.2-2.9-.55.5-1.4-.1-.45-.2-.2-2.25.2-1.95.2q-2.6 0-2.6-2.6l.05-.95-2.55-.05.3-2.1 13.85.4-.15 2.15-8.65-.3-.2.9q0 .35.65.35h.3l3.55-.35q1.2 0 2 .5.85.5.85 1.5l-.5 2.75m13.05-4.8q.7 0 1.2.5.45.45.45 1.2 0 .7-.45 1.2-.5.45-1.2.45t-1.2-.45q-.45-.5-.45-1.2 0-.75.45-1.2.5-.5 1.2-.5M10.55 3.4l5.1-.1.25 2.15L5.35 6l-.6 5.1 3.45-.9.5-1.7 2.75.6V9q0-.9-.85-.9-2.5.1-4.45 1.2l-.7-2.05q3.2-1.2 6.2-1.2 1 0 1.7.55.75.65.75 1.5l-.3 1.9q.55.1.95.4.9.55.9 1.5l-.55 2.9-2.65-.5q.55-.8.55-1.55 0-.7-1.55-.7l.2 1.7q0 2.1-1.85 3.25l-2-1.45q1.3-.7 1.3-2 0-.8-.4-1.2-1.8.3-3.35 1L4.7 11.6l-.2 4.6-2.5-.25q.05-5.05.75-9.75l-.45.05-.25-2.15 5.45-.5-.2-.65L9.75 2l.8 1.4m16.8 2.85 2.3.3h.9l2.7-.35.55-.65q0-.5-.6-.7l-2.4-.25q-1.9 0-4.25.75 0 .75.8.9z" fill="none" stroke="#6d4201" stroke-linecap="round" stroke-linejoin="round" stroke-width="4"/><path d="M44.2 5.95q0-.7.45-1.2.5-.5 1.2-.5t1.2.5q.45.5.45 1.2l-.45 1.2q-.5.5-1.2.5t-1.2-.5q-.45-.55-.45-1.2m-10.6-.5q-1.65 1.1-4.6 1.1h-1.35L23.4 6q-1.75-.8-1.75-2.2 0-1.7 1.35-3.25l.8.35 5.1-.3 2.45.1q1.15.2 2.2.7 1.15.75 1.15 1.95v.45q0 1.05-1.1 1.65m-.8 9.2-2.9-.55.5-1.4-.1-.45-.2-.2-2.25.2-1.95.2q-2.6 0-2.6-2.6l.05-.95-2.55-.05.3-2.1 13.85.4-.15 2.15-8.65-.3-.2.9q0 .35.65.35h.3l3.55-.35q1.2 0 2 .5.85.5.85 1.5l-.5 2.75m13.05-4.8q.7 0 1.2.5.45.45.45 1.2 0 .7-.45 1.2-.5.45-1.2.45t-1.2-.45q-.45-.5-.45-1.2 0-.75.45-1.2.5-.5 1.2-.5M8.55 1.4l5.1-.1.25 2.15L3.35 4l-.6 5.1 3.45-.9.5-1.7 2.75.6V7q0-.9-.85-.9-2.5.1-4.45 1.2l-.7-2.05q3.2-1.2 6.2-1.2 1 0 1.7.55.75.65.75 1.5L11.8 8q.55.1.95.4.9.55.9 1.5l-.55 2.9-2.65-.5q.55-.8.55-1.55 0-.7-1.55-.7l.2 1.7q0 2.1-1.85 3.25l-2-1.45q1.3-.7 1.3-2 0-.8-.4-1.2-1.8.3-3.35 1L2.7 9.6l-.2 4.6-2.5-.25Q.05 8.9.75 4.2l-.45.05L.05 2.1l5.45-.5-.2-.65L7.75 0l.8 1.4m16.8 2.85 2.3.3h.9l2.7-.35.55-.65q0-.5-.6-.7l-2.4-.25q-1.9 0-4.25.75 0 .75.8.9" fill="url(#b)" fill-rule="evenodd" transform="translate(2 1.25)"/><defs><linearGradient gradientTransform="matrix(0 .0102 -1 0 29.7 8.25)" gradientUnits="userSpaceOnUse" id="a" spreadMethod="pad" x1="-819.2" x2="819.2"><stop offset="0" stop-color="#ff9"/><stop offset=".992" stop-color="#fc0"/></linearGradient><linearGradient gradientTransform="matrix(0 .0102 -1 0 29.7 7.5)" gradientUnits="userSpaceOnUse" id="b" spreadMethod="pad" x1="-819.2" x2="819.2"><stop offset="0" stop-color="#ff9"/><stop offset=".992" stop-color="#fc0"/></linearGradient></defs></svg>