<svg xmlns:ffdec="https://www.free-decompiler.com/flash" ffdec:objectType="shape" height="19" width="51.6" xmlns="http://www.w3.org/2000/svg"><path d="m29.35 3.75-4.8.6q-.8 5.3-.9 11.2l-2.4-.3q.05-5.5.85-10.5l-.35.05-.25-2.3q7.1-1.15 13.6-1.25l.25 2.3-5.25.15 1.65.4-.2.75 3.6.35-.2 2L31 6.85l-.1.65h.5q1.75 0 2.8.5 1 .8 1 1.9v.4q-.05 1.75-.45 3.15l-2.4-.45q.45-1.05.5-2.35 0-.55-.4-.75l-1.4-.2q-2.3.05-4.15.7l.2 3.5-2.2.3-.45-6.35 2.25-.25v.45l1.7-.35.15-1-3.65-.15.15-2 4 .15.3-.95m-16.2 6.9q-.05 1.55-.5 2.65l-2.45-.4.45-1.85q0-.35-.4-.5l-1.6-.1-1.65.1 1.95.55-1 1.65 3.85.75-.7 2.15-4.25-.85-.5 1-2.15-.75q1.15-2.55 2.45-4.5l-2.7.4.3 3.3-2.3.2-.45-5.8 2.25-.25v.3l2.3-.35-1-.95 3.3-3.65q-1 .3-1.95.7l-.45 1.7-2.1-.5.45 1.55q-1.6.65-3.65.9L0 5.7l3.6-.8.2.5Q4.3 3.05 5.35 1l2.25.55-.2.45 3.95-.55q1 0 1.75.5.7.5.7 1.25l-.45 2.5-2.4-.45q.4-.65.4-1.25 0-.45-1-.45l-.8.05 1.1 1-.7.8 4.25.95-.45 2.15q-3.15-.4-5.4-1.35l-1 1.15 1.7-.05 3.05.45q1.05.65 1.05 1.6v.35m13.75 4.6q1.15-3 2.35-5.3l2.2.6-.95 2.1 3.1 1-.7 2.2q-1.65-.7-3.3-1.15l-.55 1.3-2.15-.75M3.75 4.4 0 4.15.3 1.8l3.65.3-.2 2.3m42.2 6.45q.7 0 1.2.5.45.5.45 1.25l-.45 1.2q-.5.45-1.2.45t-1.2-.45q-.45-.55-.45-1.2 0-.75.45-1.25.5-.5 1.2-.5m-1.65-3.9q0-.65.45-1.2.5-.45 1.2-.45t1.2.45l.45 1.2-.45 1.2q-.5.55-1.2.55t-1.2-.55q-.45-.5-.45-1.2" fill="url(#a)" fill-rule="evenodd" transform="translate(2 1)"/><path d="m31.35 4.75-4.8.6q-.8 5.3-.9 11.2l-2.4-.3q.05-5.5.85-10.5l-.35.05-.25-2.3q7.1-1.15 13.6-1.25l.25 2.3-5.25.15 1.65.4-.2.75 3.6.35-.2 2L33 7.85l-.1.65h.5q1.75 0 2.8.5 1 .8 1 1.9v.4q-.05 1.75-.45 3.15l-2.4-.45q.45-1.05.5-2.35 0-.55-.4-.75l-1.4-.2q-2.3.05-4.15.7l.2 3.5-2.2.3-.45-6.35 2.25-.25v.45l1.7-.35.15-1-3.65-.15.15-2 4 .15.3-.95m-16.2 6.9q-.05 1.55-.5 2.65l-2.45-.4.45-1.85q0-.35-.4-.5l-1.6-.1-1.65.1 1.95.55-1 1.65 3.85.75-.7 2.15-4.25-.85-.5 1-2.15-.75q1.15-2.55 2.45-4.5l-2.7.4.3 3.3-2.3.2-.45-5.8 2.25-.25v.3l2.3-.35-1-.95 3.3-3.65q-1 .3-1.95.7l-.45 1.7-2.1-.5.45 1.55q-1.6.65-3.65.9L2 6.7l3.6-.8.2.5Q6.3 4.05 7.35 2l2.25.55-.2.45 3.95-.55q1 0 1.75.5.7.5.7 1.25l-.45 2.5-2.4-.45q.4-.65.4-1.25 0-.45-1-.45l-.8.05 1.1 1-.7.8 4.25.95-.45 2.15q-3.15-.4-5.4-1.35l-1 1.15 1.7-.05 3.05.45q1.05.65 1.05 1.6v.35m13.75 4.6q1.15-3 2.35-5.3l2.2.6-.95 2.1 3.1 1-.7 2.2q-1.65-.7-3.3-1.15l-.55 1.3-2.15-.75M5.75 5.4 2 5.15l.3-2.35 3.65.3-.2 2.3m42.2 6.45q.7 0 1.2.5.45.5.45 1.25l-.45 1.2q-.5.45-1.2.45t-1.2-.45q-.45-.55-.45-1.2 0-.75.45-1.25.5-.5 1.2-.5m-1.65-3.9q0-.65.45-1.2.5-.45 1.2-.45t1.2.45l.45 1.2-.45 1.2q-.5.55-1.2.55t-1.2-.55q-.45-.5-.45-1.2z" fill="none" stroke="#6d4201" stroke-linecap="round" stroke-linejoin="round" stroke-width="4"/><path d="m29.35 2.75-4.8.6q-.8 5.3-.9 11.2l-2.4-.3q.05-5.5.85-10.5l-.35.05-.25-2.3Q28.6.35 35.1.25l.25 2.3-5.25.15 1.65.4-.2.75 3.6.35-.2 2L31 5.85l-.1.65h.5q1.75 0 2.8.5 1 .8 1 1.9v.4q-.05 1.75-.45 3.15l-2.4-.45q.45-1.05.5-2.35 0-.55-.4-.75l-1.4-.2q-2.3.05-4.15.7l.2 3.5-2.2.3-.45-6.35 2.25-.25v.45l1.7-.35.15-1-3.65-.15.15-2 4 .15.3-.95m-16.2 6.9q-.05 1.55-.5 2.65l-2.45-.4.45-1.85q0-.35-.4-.5l-1.6-.1-1.65.1 1.95.55-1 1.65 3.85.75-.7 2.15-4.25-.85-.5 1-2.15-.75q1.15-2.55 2.45-4.5l-2.7.4.3 3.3-2.3.2-.45-5.8 2.25-.25v.3l2.3-.35-1-.95 3.3-3.65q-1 .3-1.95.7l-.45 1.7-2.1-.5.45 1.55q-1.6.65-3.65.9L0 4.7l3.6-.8.2.5Q4.3 2.05 5.35 0L7.6.55 7.4 1l3.95-.55q1 0 1.75.5.7.5.7 1.25l-.45 2.5-2.4-.45q.4-.65.4-1.25 0-.45-1-.45l-.8.05 1.1 1-.7.8 4.25.95-.45 2.15q-3.15-.4-5.4-1.35l-1 1.15 1.7-.05 3.05.45q1.05.65 1.05 1.6v.35m13.75 4.6q1.15-3 2.35-5.3l2.2.6-.95 2.1 3.1 1-.7 2.2q-1.65-.7-3.3-1.15l-.55 1.3-2.15-.75M3.75 3.4 0 3.15.3.8l3.65.3-.2 2.3M44.3 5.95q0-.65.45-1.2.5-.45 1.2-.45t1.2.45l.45 1.2-.45 1.2q-.5.55-1.2.55t-1.2-.55q-.45-.5-.45-1.2m1.65 3.9q.7 0 1.2.5.45.5.45 1.25l-.45 1.2q-.5.45-1.2.45t-1.2-.45q-.45-.55-.45-1.2 0-.75.45-1.25.5-.5 1.2-.5" fill="url(#b)" fill-rule="evenodd" transform="translate(2 1)"/><defs><linearGradient gradientTransform="matrix(0 .0087 -.009 0 7.2 8.5)" gradientUnits="userSpaceOnUse" id="a" spreadMethod="pad" x1="-819.2" x2="819.2"><stop offset="0" stop-color="#ff9"/><stop offset=".992" stop-color="#fc0"/></linearGradient><linearGradient gradientTransform="matrix(0 .0087 -.009 0 7.2 7.5)" gradientUnits="userSpaceOnUse" id="b" spreadMethod="pad" x1="-819.2" x2="819.2"><stop offset="0" stop-color="#ff9"/><stop offset=".992" stop-color="#fc0"/></linearGradient></defs></svg>