<svg xmlns:ffdec="https://www.free-decompiler.com/flash" ffdec:objectType="shape" height="19" width="80.1" xmlns="http://www.w3.org/2000/svg"><path d="m61.15 8.8.1-2.8q0-1.35-.65-1.8-.45-.3-1.35-.3l-2.85.75-.6-2.2q2-.9 4.15-.9 1.35 0 2.5.8 1.3.95 1.3 3.45v.65l-.2 3.85-.35 3.2-2.55-.55.35-2.05.15-2.1m13.25 2.25q.7 0 1.2.55.5.45.5 1.25 0 .7-.5 1.2t-1.2.5q-.7 0-1.25-.5-.45-.5-.45-1.2 0-.8.45-1.25.55-.55 1.25-.55m0-2.2q-.7 0-1.25-.55-.45-.5-.45-1.25 0-.7.45-1.2.55-.5 1.25-.5t1.2.5q.5.5.5 1.2 0 .75-.5 1.25-.5.55-1.2.55M27.85 3.8q-.5-.35-1.65-.35-1.1 0-2.3.55l3.1.2-.1 1.45-3.25-.15.3.3 1.4.2h.55l1.95-.35.45-.65q0-.8-.45-1.2M30 2.35q.95.85.95 2.35v.55q0 1.1-.9 1.75-1.35 1.05-3.65 1.05h-1.05l-3.25-.5q-1.25-.85-1.25-2.25l-3.5 1.3-1-2.05q2-.75 3.75-1.35l.75 1.7q.1-1.6 1.05-3.05l.5.2q1.8-.7 3.9-.7l2 .1q.9.2 1.7.9M21.25 8.6l-1 .4.4 4.8L18 14l-.35-4.1-.7.25-.95-2.1 4.35-1.5.9 2.05m.8 2.6 4.1-.2-.1-.7-4 .5-.2-2.1 4.6-.45 3.7-.2.2 2.1-1.65.05.05.65 2-.15.25 2.2-2 .15.3 2.4-2.65.2-.3-2.45-1.7.05 1.05 1.45-2.2 1.15-1.4-2.05 1-.5-.95.05h-.95L21 11.2h1.05M38.5 4.85q.45.75.45 3.05l-.05 1.45q-.1 1.8-.55 2.7-.8 1.9-2.7 1.9-1.6 0-2.35-1.15-.7-1.2-.7-3.5 0-3.05.9-5.85l1.5.25.65-.1 1.8.25q.6.15 1.05 1m-3.6 2.6 1.55.25-.3 2.25-1.35-.25.15 1.45q.1.65.55.65.75 0 1.05-.9l.25-2.6q0-2.1-.25-2.25l-.55-.2-.45-.05-.4.05-.25 1.6m4.35-3 3.6-.4-.2-2.55 2.7-.3.2 2.75 1.7-.05.3 2.55H45.8l.65 9.15-2.75.3-.25-3.95L43 6.6l-3.5.35-.25-2.5M52 3.55 51.3 3 53 1.25q1.55.95 2.55 2.35l-1.7 1.7L52 3.55m1.95 2.15.9.25 1.95-.4 1.4.05q.9.25 1.55 1.05.8 1.15.8 3.5v.7q0 1.95-1.05 3.2-1.05 1.3-2.7 1.3h-.5q-1.55 0-2.55-.9-1.15-1.1-1.15-3 0-2.6 1.35-5.75m1.15 5.75q0 .7.35 1.05l.95.3h.25q.65 0 1.1-.6.35-.65.35-1.55v-.35l-.25-1.65-.7-.5-.55-.1-1 .2-.2.9 1.9.2-.15 2.2-2.05-.25v.15m-2.95 0 .1 1.6-2.5.25-.6-9.3 2.5-.2.5 7.65M41.5 8.35q.5 2 1.5 3.8l-2.15 1.05q-1.05-1.75-1.6-3.95l2.25-.9M5.75 5l.05.65-1 .05 1.15 1.1-1.05.9.4.55.6 1.25.15-1.15 2.1.2L9 5.9l2.45.8-.35 1.1-.4 1.05 2.05.3-1.3-1.25L13 6.5q1 .65 1.7 1.75L13.55 9.3l.85.15-.15 2.4-4.35-.65-1.45 4.7L6 15l1.35-4.1-1.15-.2h-.1v.45q0 2.15-.65 3.35-1 1.5-2.7 1.5-1.1 0-1.85-.8-.75-.7-.75-1.95t1.1-2.1l.55-.35q.8-.45 1.55-.45h.45L3.15 9.2l-1.5 1.35L0 9.05 1.15 8l-1-.3.6-2 1.7.35.65.3.65-.5-.45.05-.15-.75-2.4.1H.4L.15 2.8l2.65-.2-.1-1 2.55-.25.15 1.2 3.6-.1L9.6 1l2.5.85-.3.5h2.25l.25 2.55h-3.55l-.5 1.3-2.5-.9.15-.35h-.15l-2 .05m6.3 7.05q1.25.9 2.2 2.4L12.55 16q-1-1.35-2.3-2.4l1.8-1.55m-9.4.65-.3.45q0 .7.3.7.6 0 .95-.7l.2-.5-.45-.1-.7.15" fill="url(#a)" fill-rule="evenodd" transform="translate(2 1)"/><path d="m63.15 9.8.1-2.8q0-1.35-.65-1.8-.45-.3-1.35-.3l-2.85.75-.6-2.2q2-.9 4.15-.9 1.35 0 2.5.8 1.3.95 1.3 3.45v.65l-.2 3.85-.35 3.2-2.55-.55.35-2.05.15-2.1m13.25 2.25q.7 0 1.2.55.5.45.5 1.25 0 .7-.5 1.2t-1.2.5q-.7 0-1.25-.5-.45-.5-.45-1.2 0-.8.45-1.25.55-.55 1.25-.55m0-2.2q-.7 0-1.25-.55-.45-.5-.45-1.25 0-.7.45-1.2.55-.5 1.25-.5t1.2.5q.5.5.5 1.2 0 .75-.5 1.25-.5.55-1.2.55M29.85 4.8q-.5-.35-1.65-.35-1.1 0-2.3.55l3.1.2-.1 1.45-3.25-.15.3.3 1.4.2h.55l1.95-.35.45-.65q0-.8-.45-1.2M32 3.35q.95.85.95 2.35v.55q0 1.1-.9 1.75-1.35 1.05-3.65 1.05h-1.05l-3.25-.5q-1.25-.85-1.25-2.25l-3.5 1.3-1-2.05q2-.75 3.75-1.35l.75 1.7q.1-1.6 1.05-3.05l.5.2q1.8-.7 3.9-.7l2 .1q.9.2 1.7.9M23.25 9.6l-1 .4.4 4.8L20 15l-.35-4.1-.7.25-.95-2.1 4.35-1.5.9 2.05m.8 2.6 4.1-.2-.1-.7-4 .5-.2-2.1 4.6-.45 3.7-.2.2 2.1-1.65.05.05.65 2-.15.25 2.2-2 .15.3 2.4-2.65.2-.3-2.45-1.7.05 1.05 1.45-2.2 1.15-1.4-2.05 1-.5-.95.05h-.95L23 12.2h1.05M40.5 5.85q.45.75.45 3.05l-.05 1.45q-.1 1.8-.55 2.7-.8 1.9-2.7 1.9-1.6 0-2.35-1.15-.7-1.2-.7-3.5 0-3.05.9-5.85l1.5.25.65-.1 1.8.25q.6.15 1.05 1m-3.6 2.6 1.55.25-.3 2.25-1.35-.25.15 1.45q.1.65.55.65.75 0 1.05-.9l.25-2.6q0-2.1-.25-2.25l-.55-.2-.45-.05-.4.05-.25 1.6m4.35-3 3.6-.4-.2-2.55 2.7-.3.2 2.75 1.7-.05.3 2.55H47.8l.65 9.15-2.75.3-.25-3.95L45 7.6l-3.5.35-.25-2.5M54 4.55 53.3 4 55 2.25q1.55.95 2.55 2.35l-1.7 1.7L54 4.55m1.95 2.15.9.25 1.95-.4 1.4.05q.9.25 1.55 1.05.8 1.15.8 3.5v.7q0 1.95-1.05 3.2-1.05 1.3-2.7 1.3h-.5q-1.55 0-2.55-.9-1.15-1.1-1.15-3 0-2.6 1.35-5.75m1.15 5.75q0 .7.35 1.05l.95.3h.25q.65 0 1.1-.6.35-.65.35-1.55v-.35l-.25-1.65-.7-.5-.55-.1-1 .2-.2.9 1.9.2-.15 2.2-2.05-.25v.15m-2.95 0 .1 1.6-2.5.25-.6-9.3 2.5-.2.5 7.65M43.5 9.35q.5 2 1.5 3.8l-2.15 1.05q-1.05-1.75-1.6-3.95l2.25-.9M7.75 6l.05.65-1 .05 1.15 1.1-1.05.9.4.55.6 1.25.15-1.15 2.1.2L11 6.9l2.45.8-.35 1.1-.4 1.05 2.05.3-1.3-1.25L15 7.5q1 .65 1.7 1.75l-1.15 1.05.85.15-.15 2.4-4.35-.65-1.45 4.7L8 16l1.35-4.1-1.15-.2h-.1v.45q0 2.15-.65 3.35-1 1.5-2.7 1.5-1.1 0-1.85-.8-.75-.7-.75-1.95t1.1-2.1l.55-.35q.8-.45 1.55-.45h.45l-.65-1.15-1.5 1.35L2 10.05 3.15 9l-1-.3.6-2 1.7.35.65.3.65-.5-.45.05-.15-.75-2.4.1H2.4L2.15 3.8l2.65-.2-.1-1 2.55-.25.15 1.2 3.6-.1.6-1.45 2.5.85-.3.5h2.25l.25 2.55h-3.55l-.5 1.3-2.5-.9.15-.35h-.15l-2 .05m6.3 7.05q1.25.9 2.2 2.4L14.55 17q-1-1.35-2.3-2.4l1.8-1.55m-9.4.65-.3.45q0 .7.3.7.6 0 .95-.7l.2-.5-.45-.1-.7.15z" fill="none" stroke="#6d4201" stroke-linecap="round" stroke-linejoin="round" stroke-width="4"/><path d="m61.15 7.8.1-2.8q0-1.35-.65-1.8-.45-.3-1.35-.3l-2.85.75-.6-2.2q2-.9 4.15-.9 1.35 0 2.5.8 1.3.95 1.3 3.45v.65l-.2 3.85-.35 3.2-2.55-.55L61 9.9l.15-2.1m13.25.05q-.7 0-1.25-.55-.45-.5-.45-1.25 0-.7.45-1.2.55-.5 1.25-.5t1.2.5q.5.5.5 1.2 0 .75-.5 1.25-.5.55-1.2.55m1.2 2.75q.5.45.5 1.25 0 .7-.5 1.2t-1.2.5q-.7 0-1.25-.5-.45-.5-.45-1.2 0-.8.45-1.25.55-.55 1.25-.55t1.2.55M30 1.35q.95.85.95 2.35v.55q0 1.1-.9 1.75-1.35 1.05-3.65 1.05h-1.05l-3.25-.5q-1.25-.85-1.25-2.25l-3.5 1.3-1-2.05q2-.75 3.75-1.35l.75 1.7q.1-1.6 1.05-3.05l.5.2q1.8-.7 3.9-.7l2 .1q.9.2 1.7.9M27.85 2.8q-.5-.35-1.65-.35-1.1 0-2.3.55l3.1.2-.1 1.45-3.25-.15.3.3 1.4.2h.55l1.95-.35.45-.65q0-.8-.45-1.2m-5.8 7.4 4.1-.2-.1-.7-4 .5-.2-2.1 4.6-.45 3.7-.2.2 2.1-1.65.05.05.65 2-.15.25 2.2-2 .15.3 2.4-2.65.2-.3-2.45-1.7.05 1.05 1.45-2.2 1.15-1.4-2.05 1-.5-.95.05h-.95L21 10.2h1.05m-.8-2.6-1 .4.4 4.8L18 13l-.35-4.1-.7.25-.95-2.1 4.35-1.5.9 2.05m16.2-4.75q.6.15 1.05 1 .45.75.45 3.05l-.05 1.45q-.1 1.8-.55 2.7-.8 1.9-2.7 1.9-1.6 0-2.35-1.15-.7-1.2-.7-3.5 0-3.05.9-5.85l1.5.25.65-.1 1.8.25m-2.55 3.6 1.55.25-.3 2.25-1.35-.25.15 1.45q.1.65.55.65.75 0 1.05-.9l.25-2.6q0-2.1-.25-2.25l-.55-.2-.45-.05-.4.05-.25 1.6m4.35-3 3.6-.4-.2-2.55 2.7-.3.2 2.75 1.7-.05.3 2.55H45.8l.65 9.15-2.75.3-.25-3.95L43 5.6l-3.5.35-.25-2.5M51.3 2 53 .25q1.55.95 2.55 2.35l-1.7 1.7L52 2.55 51.3 2m3.8 8.45q0 .7.35 1.05l.95.3h.25q.65 0 1.1-.6.35-.65.35-1.55V9.3l-.25-1.65-.7-.5-.55-.1-1 .2-.2.9 1.9.2-.15 2.2-2.05-.25v.15M53.95 4.7l.9.25 1.95-.4 1.4.05q.9.25 1.55 1.05.8 1.15.8 3.5v.7q0 1.95-1.05 3.2-1.05 1.3-2.7 1.3h-.5q-1.55 0-2.55-.9-1.15-1.1-1.15-3 0-2.6 1.35-5.75m-1.8 5.75.1 1.6-2.5.25-.6-9.3 2.5-.2.5 7.65M41.5 7.35q.5 2 1.5 3.8l-2.15 1.05q-1.05-1.75-1.6-3.95l2.25-.9M5.75 4l.05.65-1 .05 1.15 1.1-1.05.9.4.55.6 1.25.15-1.15 2.1.2L9 4.9l2.45.8-.35 1.1-.4 1.05 2.05.3-1.3-1.25L13 5.5q1 .65 1.7 1.75L13.55 8.3l.85.15-.15 2.4-4.35-.65-1.45 4.7L6 14l1.35-4.1-1.15-.2h-.1v.45q0 2.15-.65 3.35-1 1.5-2.7 1.5-1.1 0-1.85-.8-.75-.7-.75-1.95t1.1-2.1l.55-.35q.8-.45 1.55-.45h.45L3.15 8.2l-1.5 1.35L0 8.05 1.15 7l-1-.3.6-2 1.7.35.65.3.65-.5-.45.05-.15-.75-2.4.1H.4L.15 1.8l2.65-.2-.1-1L5.25.35l.15 1.2 3.6-.1L9.6 0l2.5.85-.3.5h2.25l.25 2.55h-3.55l-.5 1.3-2.5-.9.15-.35h-.15l-2 .05m6.3 7.05q1.25.9 2.2 2.4L12.55 15q-1-1.35-2.3-2.4l1.8-1.55m-9.4.65-.3.45q0 .7.3.7.6 0 .95-.7l.2-.5-.45-.1-.7.15" fill="url(#b)" fill-rule="evenodd" transform="translate(2 1)"/><defs><linearGradient gradientTransform="matrix(0 .009 -.0092 0 7.35 8.5)" gradientUnits="userSpaceOnUse" id="a" spreadMethod="pad" x1="-819.2" x2="819.2"><stop offset="0" stop-color="#ff9"/><stop offset=".992" stop-color="#fc0"/></linearGradient><linearGradient gradientTransform="matrix(0 .009 -.0092 0 7.35 7.5)" gradientUnits="userSpaceOnUse" id="b" spreadMethod="pad" x1="-819.2" x2="819.2"><stop offset="0" stop-color="#ff9"/><stop offset=".992" stop-color="#fc0"/></linearGradient></defs></svg>