<svg xmlns:ffdec="https://www.free-decompiler.com/flash" ffdec:objectType="shape" height="19" width="53.6" xmlns="http://www.w3.org/2000/svg"><path d="m7.75 4.85-.55-.1q.4-2 1.3-3.75l2.15.45-.15.45h.2l3.9-.25.15 1.95-2 .05.6.75-1.55 1.4-2.1-1.85-.25 1.2L8.2 4.9l.15 1 3.45.15h.55l-.2 2.1L8.6 8.1l.1.5 3.45-.25 2.2-.2.15 2.15-2.65.2v.4h.05l2.1-.1.25 2.25-2.15.1.25 2.55-2.55.25-.25-2.7-4.35.2.8 1.25-2.1 1q-.7-1-1.15-2.2H2.1l-.2-2.2 7.4-.25v-.4l-7.4.4H1l-.15-2.1L6.1 8.7l-.05-.65L2.25 8l.25-2.15h1.85L2.75 4.3 2.3 5.8l-.05.25L0 5.5q.5-2.3 1.5-4.45l2.25.55-.2.45h.25l3-.15.2 1.9-1.7.05.65.8-1.4 1.2h1.2l-.1-.8 2.1-.2m20.35 1.5q-1.8 1.05-2.6 2.9 0 .45.4.45l1.55-.5.55 2.35-.85.2-1.85.25H25q-.95 0-1.45-.5-.55-.55-.55-1.3 0-.85.4-1.65l-.75-.5Q22 7.4 22 6.5q0-.75.65-2.1 1-1.4 2.9-2.8l1.55 1.45q-1.95 1.7-2.4 2.35-.4.45-.4.95l.35.15h.05l1.85-1.75 1.55 1.6m1.1-2.1-.45.25L28 2.2q1.95-.85 4-.85 1.9 0 2.8.6 1 .75 1.05 2.15v.65L35.5 6.7l.5.2q.8.7.8 1.8l-.65 2.5-.15.4 1.2.4-.45 2.55L34.8 14l-1.2 2-2.5-1.05 1.1-1.7-1.25-.2.45-2.55 2.15.45.25-.45.45-1.2q0-.4-.45-.4l-1.4.3-.45.1-.35-2.4 1.2-.35.45-1.8q0-.65-.6-.9l-.7-.15-.5 3.15-.5 3.55-.35 2.6-.3 2.3-2.55-.6.05-.2-.1.05-4.15 1.15-.6-2.35 4.35-1.2.55 1.75.3-2.3 1-7.05.05-.3m18.7.95q.7 0 1.25.5.45.5.45 1.2l-.45 1.25q-.55.55-1.25.55t-1.25-.55q-.5-.5-.5-1.25 0-.7.5-1.2.55-.5 1.25-.5m0 5.75q.7 0 1.25.55.45.45.45 1.25L49.15 14q-.55.45-1.25.45T46.65 14q-.5-.55-.5-1.25 0-.8.5-1.25.55-.55 1.25-.55" fill="url(#a)" fill-rule="evenodd" transform="translate(2 1)"/><path d="m9.75 5.85-.55-.1q.4-2 1.3-3.75l2.15.45-.15.45h.2l3.9-.25.15 1.95-2 .05.6.75-1.55 1.4-2.1-1.85-.25 1.2-1.25-.25.15 1 3.45.15h.55l-.2 2.1-3.55-.05.1.5 3.45-.25 2.2-.2.15 2.15-2.65.2v.4h.05l2.1-.1.25 2.25-2.15.1.25 2.55-2.55.25-.25-2.7-4.35.2.8 1.25-2.1 1q-.7-1-1.15-2.2H4.1l-.2-2.2 7.4-.25v-.4l-7.4.4H3l-.15-2.1L8.1 9.7l-.05-.65L4.25 9l.25-2.15h1.85L4.75 5.3 4.3 6.8l-.05.25L2 6.5q.5-2.3 1.5-4.45l2.25.55-.2.45h.25l3-.15.2 1.9-1.7.05.65.8-1.4 1.2h1.2l-.1-.8 2.1-.2m20.35 1.5q-1.8 1.05-2.6 2.9 0 .45.4.45l1.55-.5.55 2.35-.85.2-1.85.25H27q-.95 0-1.45-.5-.55-.55-.55-1.3 0-.85.4-1.65l-.75-.5Q24 8.4 24 7.5q0-.75.65-2.1 1-1.4 2.9-2.8l1.55 1.45q-1.95 1.7-2.4 2.35-.4.45-.4.95l.35.15h.05l1.85-1.75 1.55 1.6m1.1-2.1-.45.25L30 3.2q1.95-.85 4-.85 1.9 0 2.8.6 1 .75 1.05 2.15v.65L37.5 7.7l.5.2q.8.7.8 1.8l-.65 2.5-.15.4 1.2.4-.45 2.55L36.8 15l-1.2 2-2.5-1.05 1.1-1.7-1.25-.2.45-2.55 2.15.45.25-.45.45-1.2q0-.4-.45-.4l-1.4.3-.45.1-.35-2.4 1.2-.35.45-1.8q0-.65-.6-.9l-.7-.15-.5 3.15-.5 3.55-.35 2.6-.3 2.3-2.55-.6.05-.2-.1.05-4.15 1.15-.6-2.35 4.35-1.2.55 1.75.3-2.3 1-7.05.05-.3m18.7.95q.7 0 1.25.5.45.5.45 1.2l-.45 1.25q-.55.55-1.25.55t-1.25-.55q-.5-.5-.5-1.25 0-.7.5-1.2.55-.5 1.25-.5m0 5.75q.7 0 1.25.55.45.45.45 1.25L51.15 15q-.55.45-1.25.45T48.65 15q-.5-.55-.5-1.25 0-.8.5-1.25.55-.55 1.25-.55z" fill="none" stroke="#6d4201" stroke-linecap="round" stroke-linejoin="round" stroke-width="4"/><path d="m7.75 3.85-.55-.1q.4-2 1.3-3.75l2.15.45-.15.45h.2l3.9-.25.15 1.95-2 .05.6.75-1.55 1.4-2.1-1.85-.25 1.2L8.2 3.9l.15 1 3.45.15h.55l-.2 2.1L8.6 7.1l.1.5 3.45-.25 2.2-.2.15 2.15-2.65.2v.4h.05l2.1-.1.25 2.25-2.15.1.25 2.55-2.55.25-.25-2.7-4.35.2.8 1.25-2.1 1q-.7-1-1.15-2.2H2.1l-.2-2.2 7.4-.25v-.4l-7.4.4H1l-.15-2.1L6.1 7.7l-.05-.65L2.25 7l.25-2.15h1.85L2.75 3.3 2.3 4.8l-.05.25L0 4.5Q.5 2.2 1.5.05L3.75.6l-.2.45h.25l3-.15.2 1.9-1.7.05.65.8-1.4 1.2h1.2l-.1-.8 2.1-.2m21.45-.6-.45.25L28 1.2q1.95-.85 4-.85 1.9 0 2.8.6 1 .75 1.05 2.15v.65L35.5 5.7l.5.2q.8.7.8 1.8l-.65 2.5-.15.4 1.2.4-.45 2.55L34.8 13l-1.2 2-2.5-1.05 1.1-1.7-1.25-.2.45-2.55 2.15.45.25-.45.45-1.2q0-.4-.45-.4l-1.4.3-.45.1-.35-2.4 1.2-.35.45-1.8q0-.65-.6-.9l-.7-.15-.5 3.15-.5 3.55-.35 2.6-.3 2.3-2.55-.6.05-.2-.1.05-4.15 1.15-.6-2.35 4.35-1.2.55 1.75.3-2.3 1-7.05.05-.3m-1.1 2.1q-1.8 1.05-2.6 2.9 0 .45.4.45l1.55-.5.55 2.35-.85.2-1.85.25H25q-.95 0-1.45-.5Q23 9.95 23 9.2q0-.85.4-1.65l-.75-.5Q22 6.4 22 5.5q0-.75.65-2.1 1-1.4 2.9-2.8l1.55 1.45q-1.95 1.7-2.4 2.35-.4.45-.4.95l.35.15h.05l1.85-1.75 1.55 1.6m21.05-.65q.45.5.45 1.2l-.45 1.25q-.55.55-1.25.55t-1.25-.55q-.5-.5-.5-1.25 0-.7.5-1.2.55-.5 1.25-.5t1.25.5M47.9 9.95q.7 0 1.25.55.45.45.45 1.25L49.15 13q-.55.45-1.25.45T46.65 13q-.5-.55-.5-1.25 0-.8.5-1.25.55-.55 1.25-.55" fill="url(#b)" fill-rule="evenodd" transform="translate(2 1)"/><defs><linearGradient gradientTransform="matrix(0 .009 -.0091 0 7.4 8.5)" gradientUnits="userSpaceOnUse" id="a" spreadMethod="pad" x1="-819.2" x2="819.2"><stop offset="0" stop-color="#ff9"/><stop offset=".992" stop-color="#fc0"/></linearGradient><linearGradient gradientTransform="matrix(0 .009 -.0091 0 7.4 7.5)" gradientUnits="userSpaceOnUse" id="b" spreadMethod="pad" x1="-819.2" x2="819.2"><stop offset="0" stop-color="#ff9"/><stop offset=".992" stop-color="#fc0"/></linearGradient></defs></svg>