<svg xmlns:ffdec="https://www.free-decompiler.com/flash" ffdec:objectType="shape" height="19" width="53.9" xmlns="http://www.w3.org/2000/svg"><path d="m31.6 1.85-.25.45 1.6-.1q1.8 0 2.85.55t1.05 1.6q0 1.15-.85 1.75l-.5.45 1.85.35-.5 2.35Q34.7 9 32.9 8.4l-1.7 1.05 1.45-.2 2.1.15q.75.1 1.55.7.75.55.75 2.85v.3q0 1.3-1 2.05-1 .7-2.8.7h-.4q-2.6 0-3.85-.9-.85-.65-.85-1.95 0-1.25.4-2.5l-.4-.85-.4 1.5-.8-.25.3 3.35-2.55.25-.4-3.45-1.1.95-1.25-2.1L24 8.1 23.85 7l-1.45.25-.25-2.55 1.5-.3-.2-2.05 2.6-.2.2 2h1.1l.15 1q.55-1.7 1.4-3.3l.45-.85 2.45.55-.2.3m2.15 3-1.2-.2-1.8.3 1.85.75.35-.2.8-.65m-1.2 6.85q-.4 0-1.8.5l-.05.45q0 .5.4.75l1.75.15 1.3-.25q.35-.2.35-.7-.1-.75-.7-.85l-1.25-.05m16.9-6q.45.55.45 1.25t-.45 1.25q-.55.55-1.25.55t-1.25-.55q-.5-.55-.5-1.25t.5-1.25q.55-.45 1.25-.45t1.25.45m0 5.85q.45.45.45 1.25 0 .7-.45 1.25-.55.45-1.25.45t-1.25-.45q-.5-.55-.5-1.25 0-.8.5-1.25.55-.55 1.25-.55t1.25.55M12.6 3.6l2.15.4-.45 2.55-1.9-.25-.2 1.85h1.75l.2 2.6-2.1.05-.1 1.85 2.8-.05.25 2.55-9.15.5-.25-2.5 3.7-.35V11l-2.15.25-.25-2.7 1.45-.15 1.1-.1.2-2.25-1-.1Q8.4 7 8.3 8l-2.45-.45q.4-3.05 1.25-5.7l.05-.25 2.45.55-.35 1.15.7.1.25-1.55.1-.65 2.6.2-.05.45-.25 1.75M29.5 7l-.1.45L27 6.9v-.15h-.45l.1 1.45 1.15.35 2.25-1.3L29.5 7M3.35 4.35l.3-1.85 2.5.3-.8 5.3.75-.2.35 2.05-1.25.3q-.2 2.4-.25 4.9l-2.5-.3.2-4.2v-.05h-.3q-.95 0-1.75-.8Q0 9.15 0 8q0-1.8 1.1-4.15l2 .5q-.75 1.85-.95 3.2 0 .85.65.95.2-2.1.55-4.1v-.05" fill="url(#a)" fill-rule="evenodd" transform="translate(2 1)"/><path d="m33.6 2.85-.25.45 1.6-.1q1.8 0 2.85.55t1.05 1.6q0 1.15-.85 1.75l-.5.45 1.85.35-.5 2.35Q36.7 10 34.9 9.4l-1.7 1.05 1.45-.2 2.1.15q.75.1 1.55.7.75.55.75 2.85v.3q0 1.3-1 2.05-1 .7-2.8.7h-.4q-2.6 0-3.85-.9-.85-.65-.85-1.95 0-1.25.4-2.5l-.4-.85-.4 1.5-.8-.25.3 3.35-2.55.25-.4-3.45-1.1.95-1.25-2.1L26 9.1 25.85 8l-1.45.25-.25-2.55 1.5-.3-.2-2.05 2.6-.2.2 2h1.1l.15 1q.55-1.7 1.4-3.3l.45-.85 2.45.55-.2.3m2.15 3-1.2-.2-1.8.3 1.85.75.35-.2.8-.65m-1.2 6.85q-.4 0-1.8.5l-.05.45q0 .5.4.75l1.75.15 1.3-.25q.35-.2.35-.7-.1-.75-.7-.85l-1.25-.05m16.9-6q.45.55.45 1.25t-.45 1.25q-.55.55-1.25.55t-1.25-.55q-.5-.55-.5-1.25t.5-1.25q.55-.45 1.25-.45t1.25.45m0 5.85q.45.45.45 1.25 0 .7-.45 1.25-.55.45-1.25.45t-1.25-.45q-.5-.55-.5-1.25 0-.8.5-1.25.55-.55 1.25-.55t1.25.55M14.6 4.6l2.15.4-.45 2.55-1.9-.25-.2 1.85h1.75l.2 2.6-2.1.05-.1 1.85 2.8-.05.25 2.55-9.15.5-.25-2.5 3.7-.35V12l-2.15.25-.25-2.7 1.45-.15 1.1-.1.2-2.25-1-.1Q10.4 8 10.3 9l-2.45-.45q.4-3.05 1.25-5.7l.05-.25 2.45.55-.35 1.15.7.1.25-1.55.1-.65 2.6.2-.05.45-.25 1.75M31.5 8l-.1.45L29 7.9v-.15h-.45l.1 1.45 1.15.35 2.25-1.3L31.5 8M5.35 5.35l.3-1.85 2.5.3-.8 5.3.75-.2.35 2.05-1.25.3q-.2 2.4-.25 4.9l-2.5-.3.2-4.2v-.05h-.3q-.95 0-1.75-.8Q2 10.15 2 9q0-1.8 1.1-4.15l2 .5q-.75 1.85-.95 3.2 0 .85.65.95.2-2.1.55-4.1v-.05z" fill="none" stroke="#6d4201" stroke-linecap="round" stroke-linejoin="round" stroke-width="4"/><path d="m33.75 3.85-1.2-.2-1.8.3 1.85.75.35-.2.8-.65m-2.15-3-.25.45 1.6-.1q1.8 0 2.85.55t1.05 1.6q0 1.15-.85 1.75l-.5.45 1.85.35-.5 2.35Q34.7 8 32.9 7.4l-1.7 1.05 1.45-.2 2.1.15q.75.1 1.55.7.75.55.75 2.85v.3q0 1.3-1 2.05-1 .7-2.8.7h-.4q-2.6 0-3.85-.9-.85-.65-.85-1.95 0-1.25.4-2.5l-.4-.85-.4 1.5-.8-.25.3 3.35-2.55.25-.4-3.45-1.1.95-1.25-2.1L24 7.1 23.85 6l-1.45.25-.25-2.55 1.5-.3-.2-2.05 2.6-.2.2 2h1.1l.15 1q.55-1.7 1.4-3.3l.45-.85 2.45.55-.2.3m.95 9.85q-.4 0-1.8.5l-.05.45q0 .5.4.75l1.75.15 1.3-.25q.35-.2.35-.7-.1-.75-.7-.85l-1.25-.05M48.2 4.25q.7 0 1.25.45.45.55.45 1.25t-.45 1.25q-.55.55-1.25.55t-1.25-.55q-.5-.55-.5-1.25t.5-1.25q.55-.45 1.25-.45m1.25 6.3q.45.45.45 1.25 0 .7-.45 1.25-.55.45-1.25.45t-1.25-.45q-.5-.55-.5-1.25 0-.8.5-1.25.55-.55 1.25-.55t1.25.55M14.75 3l-.45 2.55-1.9-.25-.2 1.85h1.75l.2 2.6-2.1.05-.1 1.85 2.8-.05.25 2.55-9.15.5-.25-2.5 3.7-.35V10l-2.15.25-.25-2.7 1.45-.15 1.1-.1.2-2.25-1-.1Q8.4 6 8.3 7l-2.45-.45Q6.25 3.5 7.1.85L7.15.6l2.45.55-.35 1.15.7.1.25-1.55.1-.65 2.6.2-.05.45-.25 1.75 2.15.4M29.5 6l-.1.45L27 5.9v-.15h-.45l.1 1.45 1.15.35 2.25-1.3L29.5 6M3.35 3.35l.3-1.85 2.5.3-.8 5.3.75-.2.35 2.05-1.25.3q-.2 2.4-.25 4.9l-2.5-.3.2-4.2V9.6h-.3Q1.4 9.6.6 8.8 0 8.15 0 7q0-1.8 1.1-4.15l2 .5q-.75 1.85-.95 3.2 0 .85.65.95.2-2.1.55-4.1v-.05" fill="url(#b)" fill-rule="evenodd" transform="translate(2 1)"/><defs><linearGradient gradientTransform="matrix(0 .0099 -.0077 0 2.9 8.5)" gradientUnits="userSpaceOnUse" id="a" spreadMethod="pad" x1="-819.2" x2="819.2"><stop offset="0" stop-color="#ff9"/><stop offset=".992" stop-color="#fc0"/></linearGradient><linearGradient gradientTransform="matrix(0 .0099 -.0077 0 2.9 7.5)" gradientUnits="userSpaceOnUse" id="b" spreadMethod="pad" x1="-819.2" x2="819.2"><stop offset="0" stop-color="#ff9"/><stop offset=".992" stop-color="#fc0"/></linearGradient></defs></svg>