<svg xmlns:ffdec="https://www.free-decompiler.com/flash" ffdec:objectType="shape" height="19" width="48.3" xmlns="http://www.w3.org/2000/svg"><path d="m10.9 1.45-.2.45 4.2-.25.25 1.85-2.45.1.65.7-1.25 1.2 1.4.5q1.3.75 1.3 2.7v.55l-.25 3q-.1 1.65-.4 2.55l-2.55-.55.55-3.25.1-2.2q0-.7-.65-1l-1.25-.1-2.95.6-.6-2.2q2.05-.7 4.2-.7h.4L9.9 4.05l-.25.9L7.5 4.5Q7.85 2.7 8.65 1l2.25.45m-7.2.65 3.2-.2.2 1.8-1.75.05.65.8L4.75 5.7q1 .7 1.65 1.75l-1.3 1.3.85.2L7.4 8.9l1.75.05q.9.1 1.4.55.85.4.85 2.5v.55l-.15 1.5q-.3.85-1.15 1.3-.8.45-2.35.5H7.2q-1.9 0-2.6-.65-.9-.7-.9-1.85 0-2.55.9-4.65L2.7 6.9 4 5.45 2.8 4.3l-.55 1.75L0 5.5q.5-2.35 1.6-4.4l2.35.5-.25.5m20.4-.25 7.7 1.05-.5 3.05-7.55-1.1-2.9 2.7 1.45.2q-.45 3.65-.6 7.7l-2.95-.35q0-2.95.35-5.8h-.05l-2.2-2.05 6.55-6.1.7.7m18.45 6.9q-.75 0-1.3-.55-.45-.5-.45-1.25 0-.7.45-1.25.55-.5 1.3-.5.7 0 1.25.5.5.55.5 1.25 0 .75-.5 1.25-.55.55-1.25.55m1.25 5.35q-.55.5-1.25.5-.75 0-1.3-.5-.45-.5-.45-1.25t.45-1.25q.55-.55 1.3-.55.7 0 1.25.55.5.5.5 1.25t-.5 1.25M27.45 16l-1.1-9.6 2.95-.3 1.15 9.55-3 .35M2.55 7.1l.75 7.7-2.35.25L.2 7.3l2.35-.2m6.2 3.65-1.6-.1-1.1.15-.1.5 2.8.25-.15 1.65-2.85-.2q0 .6.35.8l1.65.25q1 0 1.3-.45.3-.3.3-1.65 0-.95-.6-1.2" fill="url(#a)" fill-rule="evenodd" transform="translate(2 1)"/><path d="m12.9 2.45-.2.45 4.2-.25.25 1.85-2.45.1.65.7-1.25 1.2 1.4.5q1.3.75 1.3 2.7v.55l-.25 3q-.1 1.65-.4 2.55l-2.55-.55.55-3.25.1-2.2q0-.7-.65-1l-1.25-.1-2.95.6-.6-2.2q2.05-.7 4.2-.7h.4l-1.5-1.35-.25.9L9.5 5.5q.35-1.8 1.15-3.5l2.25.45m-7.2.65 3.2-.2.2 1.8-1.75.05.65.8L6.75 6.7q1 .7 1.65 1.75l-1.3 1.3.85.2L9.4 9.9l1.75.05q.9.1 1.4.55.85.4.85 2.5v.55l-.15 1.5q-.3.85-1.15 1.3-.8.45-2.35.5H9.2q-1.9 0-2.6-.65-.9-.7-.9-1.85 0-2.55.9-4.65L4.7 7.9 6 6.45 4.8 5.3l-.55 1.75L2 6.5q.5-2.35 1.6-4.4l2.35.5-.25.5m20.4-.25 7.7 1.05-.5 3.05-7.55-1.1-2.9 2.7 1.45.2q-.45 3.65-.6 7.7l-2.95-.35q0-2.95.35-5.8h-.05l-2.2-2.05 6.55-6.1.7.7m18.45 6.9q-.75 0-1.3-.55-.45-.5-.45-1.25 0-.7.45-1.25.55-.5 1.3-.5.7 0 1.25.5.5.55.5 1.25 0 .75-.5 1.25-.55.55-1.25.55m1.25 5.35q-.55.5-1.25.5-.75 0-1.3-.5-.45-.5-.45-1.25t.45-1.25q.55-.55 1.3-.55.7 0 1.25.55.5.5.5 1.25t-.5 1.25M29.45 17l-1.1-9.6 2.95-.3 1.15 9.55-3 .35M4.55 8.1l.75 7.7-2.35.25L2.2 8.3l2.35-.2m6.2 3.65-1.6-.1-1.1.15-.1.5 2.8.25-.15 1.65-2.85-.2q0 .6.35.8l1.65.25q1 0 1.3-.45.3-.3.3-1.65 0-.95-.6-1.2z" fill="none" stroke="#6d4201" stroke-linecap="round" stroke-linejoin="round" stroke-width="4"/><path d="M3.7 1.1 6.9.9l.2 1.8-1.75.05.65.8L4.75 4.7q1 .7 1.65 1.75l-1.3 1.3.85.2L7.4 7.9l1.75.05q.9.1 1.4.55.85.4.85 2.5v.55l-.15 1.5q-.3.85-1.15 1.3-.8.45-2.35.5H7.2q-1.9 0-2.6-.65-.9-.7-.9-1.85 0-2.55.9-4.65L2.7 5.9 4 4.45 2.8 3.3l-.55 1.75L0 4.5Q.5 2.15 1.6.1l2.35.5-.25.5m7.2-.65-.2.45 4.2-.25.25 1.85-2.45.1.65.7-1.25 1.2 1.4.5q1.3.75 1.3 2.7v.55l-.25 3q-.1 1.65-.4 2.55l-2.55-.55.55-3.25.1-2.2q0-.7-.65-1l-1.25-.1-2.95.6-.6-2.2q2.05-.7 4.2-.7h.4L9.9 3.05l-.25.9L7.5 3.5Q7.85 1.7 8.65 0l2.25.45m13.2.4 7.7 1.05-.5 3.05-7.55-1.1-2.9 2.7 1.45.2q-.45 3.65-.6 7.7l-2.95-.35q0-2.95.35-5.8h-.05l-2.2-2.05L23.4.15l.7.7m18.45 6.9q-.75 0-1.3-.55-.45-.5-.45-1.25 0-.7.45-1.25.55-.5 1.3-.5.7 0 1.25.5.5.55.5 1.25 0 .75-.5 1.25-.55.55-1.25.55m1.25 5.35q-.55.5-1.25.5-.75 0-1.3-.5-.45-.5-.45-1.25t.45-1.25q.55-.55 1.3-.55.7 0 1.25.55.5.5.5 1.25t-.5 1.25M27.45 15l-1.1-9.6 2.95-.3 1.15 9.55-3 .35M2.55 6.1l.75 7.7-2.35.25L.2 6.3l2.35-.2m6.2 3.65-1.6-.1-1.1.15-.1.5 2.8.25-.15 1.65-2.85-.2q0 .6.35.8l1.65.25q1 0 1.3-.45.3-.3.3-1.65 0-.95-.6-1.2" fill="url(#b)" fill-rule="evenodd" transform="translate(2 1)"/><defs><linearGradient gradientTransform="matrix(0 .007 -.009 0 5.75 8.5)" gradientUnits="userSpaceOnUse" id="a" spreadMethod="pad" x1="-819.2" x2="819.2"><stop offset="0" stop-color="#ff9"/><stop offset=".992" stop-color="#fc0"/></linearGradient><linearGradient gradientTransform="matrix(0 .007 -.009 0 5.75 7.5)" gradientUnits="userSpaceOnUse" id="b" spreadMethod="pad" x1="-819.2" x2="819.2"><stop offset="0" stop-color="#ff9"/><stop offset=".992" stop-color="#fc0"/></linearGradient></defs></svg>