<svg xmlns:ffdec="https://www.free-decompiler.com/flash" ffdec:objectType="shape" height="19" width="141.45" xmlns="http://www.w3.org/2000/svg"><path d="M135.9 5.6q.65 0 1.05.45.5.45.5 1.1 0 .65-.5 1.05l-1.05.45q-.6 0-1-.45-.5-.4-.5-1.05t.5-1.1q.4-.45 1-.45m-1 5.8q.4-.5 1-.5.65 0 1.05.5.5.45.5 1 0 .65-.5 1.1-.4.5-1.05.5-.6 0-1-.5-.5-.45-.5-1.1 0-.55.5-1" fill="url(#a)" fill-rule="evenodd" transform="translate(2 1.4)"/><path d="m127.25 4.3-2.95-.2-.1.4 2 .35q1 .5 1 2.1 0 2.5-.7 5.95h.9l.25 2.1-10.65.5-.15-2.15.9-.05q.1-4.75.95-9.05l2.4.3-.05.35.5-.15.2-.85-3.25-.05.2-2.05 3.65.1.4-1.05 2.4.5-.25.7 2.5.25-.15 2m-3.3 2.8-.2 1.65-3.2-.15-.1.35 3.25.15-.1 1.6-3.25-.15-.05.55 3.15-.2.2 1.7-3.4.15v.35l3.65-.15q.65-2.8.8-5.3 0-1.15-1.45-1.15l-1.75.4 2.45.2m-5.45-2.9-1.35.45q-.8 4.95-.9 10.2l-2.65-.25q.05-4.6.75-8.9l-.7.25-.75-2.55 4.75-1.65.85 2.45m-7.6-.05-4.25.15-.15.4 2.05.4q.9.55.9 2.2v.55l1.3-.45.4 2.25-1.8.55-.05.85 2.35.6-.4 2.35-2.2-.65-.2 2.1-2.55-.5.3-2-2 2.05-1.75-1.55 2.85-2.9 1.05 1 .05-1q-1.3-.05-2.1-.75-.85-.8-.85-2.3l-.9.5-.5-1.45q-1.45 1-2.2 2.45 0 .45.4.45l1.6-.5.5 2.35-2.65.5-.3.05q-.9 0-1.45-.6-.55-.5-.55-1.3 0-.9.45-1.75l-.8-.45q-.65-.7-.65-1.6 0-.75.7-2 .95-1.35 2.95-2.7l1.55 1.6q-2 1.5-2.45 2.05-.45.5-.45.9l.35.15h.3l1.6-1.5 1.05 1.1q.9-.4 1.65-.65l.1-.5-1.35.15-.2-2.25 2.3-.35.7-1.55 2.3.8-.2.55 3-.05.2 2.25M107 8q0-.95-.85-1.1l.2.95q.25.4.65.4V8m-4.05 6.1q-2 .8-4.6 1.2l-.65-2.35 4.55-1.1.7 2.25m-8-10.5-10.5.4-.4 3.2q1.8-.9 3.75-1.35l.75-1.9 2.75.65-.4 1q1.6.1 2.7.85 1.1 1.15 1.1 2.8v.6q-.1 2.7-.85 4.75l-2.9-.5q.75-1.7.9-3.8 0-1.2-.35-1.75-.5-.35-1.3-.35h-.3q-1.05 3.25-1.75 6.8l-2.7-.6q.5-2.85 1.35-5.5-1.05.35-2 .95L84 7.5q-.4 3.8-.55 7.8L80.8 15q.05-5.6.95-10.8l-.55.05L81 1.9l13.7-.65.25 2.35m-16.7-.55h-4.2l-.2.55 1.35.15q1.85.15 2.7.85.75.5.75 2.05v.3q0 .65-.4 1.45-.55 1.05-2.35 1.35h-.2l.05.45 2.8-.05.2 2.05-2.5.05.05.35 1.2-.25.4 2.1-1.15.25.2.65-2.7.25-.15-.6h-.05l-3.45.3H70q-1.85 0-2.75-.75-.75-.55-.85-1.65l-1.5.15-.25-2 1.8-.25.35-1.35h-.05q-2.2-.55-2.2-2.35 0-1.05.8-3.2l1 .25 2.55-.4.15-.55-3.85.25-.2-2.1L78.05.9l.2 2.15m-7.05.1-.1.4h.6l.15-.45-.65.05m2.15 2.45L73 7.5l-2.05-.4.3-1.55-.65.05-.35 1.8-2-.5.15-1.1-1 .2-.2.95q0 .6 1.15.8l4.4.2 1.9-.1q.8-.05 1.1-.45l.25-.75-.25-.7-1.55-.35h-.85M71.5 9.95l-2.05-.1-.2.7 3.85-.25-.1-.35h-1.5m-9.7-7.2h-1.25l-.2.65 1.1.25q1.4.65 1.4 1.55v.35l-.65 2.5-2.4-.45q.5-.75.65-1.75 0-.4-.55-.55l-.35 2.2-2.15-.4.3-2h-.85l-.15 2.5-2.5-.2.05-2.05-.85.2.35 1.9-2.1.15-.3-1.55-.45.15.5 1.6-.5.1 10.65.35-.25 2.05-6.3-.25-.2.5 2.6-.05 3.5.45q1.25.65 1.25 1.6v.25l-.45 2.7-2.45-.5q.45-.75.5-1.75 0-.3-.55-.5l-1.1-.05-.2 2.55-2.2-.3q0-1.15.15-2.2l-.85.05-.2 2.4-2.2-.3.05-1.75-1.1.25.45 1.35-2.45.75q-.6-1.9-.85-4l2.35-.7.05.4.8-.25.4-.95-2.6-.05.3-1.75-.7.15q-.75-1.95-1.1-4.15l2.1-.65.1.75.6-.15-.2-1.1-1.2.05-.15-1.9 12.2-.35.15 1.9m7.5 10.2 1.45.3 2.5-.2.45-.05-.2-.7-4.4.3.2.35M57.65 3.2h.45l.15-.4h-1.2v.4h.6m-3.2.2.05-.55-1.55.05.15.7 1.35-.2m-7.85 0-4.2.95-.2 1.85 4.35-.2.2 2.3-1.25.05.5 6.9-2.5.25-.5-7-1.05.15q-.35 3.2-.4 6.45l-2.35-.25q.05-5.85.85-11.25l-.3-1.1 5.95-1.35.9 2.25m-7.4-.35-4.25.9-.05.95 1.6-.15q1.7 0 2.25.85.55.7.55 1.7V8q0 1.8-.65 2.5t-1.65.7h-.75l-1.7-.1-.1 3.85-2.45-.2q.05-5.8.6-11l-.5-1.5 6.35-1.4.75 2.2m-4.55 5.8 1.5.1q.65 0 .7-.2l.05-.85-.05-.75-.45-.2-1.7.2-.05 1.7M29.3 4.5l-.35 1.9.45.25q.8.6.8 1.7l-.65 2.45-.15.4 1.2.4-.45 2.5-1.9-.6-1.15 2-2.45-1.05 1.05-1.65-1.25-.2.5-2.5 2.05.45.25-.45.45-1.15q0-.4-.45-.4l-1.35.3-.45.1-.35-2.3q.6-.25 1.15-.35l.5-1.8q0-.65-.6-.9l-.7-.1-1.6 11.3-2.5-.6.05-.15-4.15 1.15-.6-2.3 4.3-1.2.5 1.75L22.8 4l-.45.25L21.6 2q1.9-.8 3.9-.8 1.85 0 2.75.55.95.75 1.05 2.1v.65m-7.7 6.65-2.65.45h-.25q-.95 0-1.45-.5-.55-.55-.55-1.3 0-.8.4-1.6l-.75-.45q-.6-.65-.6-1.55 0-.75.6-2.05 1-1.35 2.85-2.75l1.5 1.45Q18.8 4.5 18.4 5.1q-.4.5-.4.95l.35.15h.05l1.8-1.7 1.5 1.55Q19.95 7.1 19.15 8.9q0 .45.4.45l1.5-.5.55 2.3M11.95 6.5h1.7L13.9 9l-1.65.05.6 5.75-2.75.3-.6-6-4.6.25q-.25 2.65-.35 5.4l-2.7-.35.2-4.9-1.85.2L0 7.2l2.35-.25.3-2.05-1.5.45L.4 2.8 7.2.85l.95 2.5q-1.3.3-2.55.75l-.4 2.65 4.05-.2L8.8 2l2.7-.3.45 4.8" fill="url(#b)" fill-rule="evenodd" transform="translate(2 1.4)"/><path d="M137.9 7q.65 0 1.05.45.5.45.5 1.1 0 .65-.5 1.05l-1.05.45q-.6 0-1-.45-.5-.4-.5-1.05t.5-1.1q.4-.45 1-.45m-1 5.8q.4-.5 1-.5.65 0 1.05.5.5.45.5 1 0 .65-.5 1.1-.4.5-1.05.5-.6 0-1-.5-.5-.45-.5-1.1 0-.55.5-1m-7.65-7.1-2.95-.2-.1.4 2 .35q1 .5 1 2.1 0 2.5-.7 5.95h.9l.25 2.1-10.65.5-.15-2.15.9-.05q.1-4.75.95-9.05l2.4.3-.05.35.5-.15.2-.85-3.25-.05.2-2.05 3.65.1.4-1.05 2.4.5-.25.7 2.5.25-.15 2m-3.3 2.8-.2 1.65-3.2-.15-.1.35 3.25.15-.1 1.6-3.25-.15-.05.55 3.15-.2.2 1.7-3.4.15v.35l3.65-.15q.65-2.8.8-5.3 0-1.15-1.45-1.15l-1.75.4 2.45.2m-5.45-2.9-1.35.45q-.8 4.95-.9 10.2L115.6 16q.05-4.6.75-8.9l-.7.25-.75-2.55 4.75-1.65.85 2.45m-7.6-.05-4.25.15-.15.4 2.05.4q.9.55.9 2.2v.55l1.3-.45.4 2.25-1.8.55-.05.85 2.35.6-.4 2.35-2.2-.65-.2 2.1-2.55-.5.3-2-2 2.05-1.75-1.55 2.85-2.9 1.05 1 .05-1q-1.3-.05-2.1-.75-.85-.8-.85-2.3l-.9.5-.5-1.45q-1.45 1-2.2 2.45 0 .45.4.45l1.6-.5.5 2.35-2.65.5-.3.05q-.9 0-1.45-.6-.55-.5-.55-1.3 0-.9.45-1.75l-.8-.45q-.65-.7-.65-1.6 0-.75.7-2 .95-1.35 2.95-2.7l1.55 1.6q-2 1.5-2.45 2.05-.45.5-.45.9l.35.15h.3l1.6-1.5 1.05 1.1q.9-.4 1.65-.65l.1-.5-1.35.15-.2-2.25 2.3-.35.7-1.55 2.3.8-.2.55 3-.05.2 2.25M109 9.4q0-.95-.85-1.1l.2.95q.25.4.65.4V9.4m-4.05 6.1q-2 .8-4.6 1.2l-.65-2.35 4.55-1.1.7 2.25m-8-10.5-10.5.4-.4 3.2q1.8-.9 3.75-1.35l.75-1.9L93.3 6l-.4 1q1.6.1 2.7.85 1.1 1.15 1.1 2.8v.6q-.1 2.7-.85 4.75l-2.9-.5q.75-1.7.9-3.8 0-1.2-.35-1.75-.5-.35-1.3-.35h-.3q-1.05 3.25-1.75 6.8l-2.7-.6q.5-2.85 1.35-5.5-1.05.35-2 .95L86 8.9q-.4 3.8-.55 7.8l-2.65-.3q.05-5.6.95-10.8l-.55.05L83 3.3l13.7-.65.25 2.35m-16.7-.55h-4.2l-.2.55 1.35.15q1.85.15 2.7.85.75.5.75 2.05v.3q0 .65-.4 1.45-.55 1.05-2.35 1.35h-.2l.05.45 2.8-.05.2 2.05-2.5.05.05.35 1.2-.25.4 2.1-1.15.25.2.65-2.7.25-.15-.6h-.05l-3.45.3H72q-1.85 0-2.75-.75-.75-.55-.85-1.65l-1.5.15-.25-2 1.8-.25.35-1.35h-.05q-2.2-.55-2.2-2.35 0-1.05.8-3.2l1 .25 2.55-.4.15-.55-3.85.25-.2-2.1 13.05-.45.2 2.15m-7.05.1-.1.4h.6l.15-.45-.65.05M75.35 7 75 8.9l-2.05-.4.3-1.55-.65.05-.35 1.8-2-.5.15-1.1-1 .2-.2.95q0 .6 1.15.8l4.4.2 1.9-.1q.8-.05 1.1-.45l.25-.75-.25-.7L76.2 7h-.85m-1.85 4.35-2.05-.1-.2.7 3.85-.25-.1-.35h-1.5m-9.7-7.2h-1.25l-.2.65 1.1.25q1.4.65 1.4 1.55v.35l-.65 2.5L61.8 9q.5-.75.65-1.75 0-.4-.55-.55l-.35 2.2-2.15-.4.3-2h-.85L58.7 9l-2.5-.2.05-2.05-.85.2.35 1.9-2.1.15-.3-1.55-.45.15.5 1.6-.5.1 10.65.35-.25 2.05-6.3-.25-.2.5 2.6-.05 3.5.45q1.25.65 1.25 1.6v.25l-.45 2.7-2.45-.5q.45-.75.5-1.75 0-.3-.55-.5l-1.1-.05-.2 2.55-2.2-.3q0-1.15.15-2.2l-.85.05-.2 2.4-2.2-.3.05-1.75-1.1.25.45 1.35-2.45.75q-.6-1.9-.85-4l2.35-.7.05.4.8-.25.4-.95-2.6-.05.3-1.75-.7.15q-.75-1.95-1.1-4.15l2.1-.65.1.75.6-.15-.2-1.1-1.2.05-.15-1.9 12.2-.35.15 1.9m7.5 10.2 1.45.3 2.5-.2.45-.05-.2-.7-4.4.3.2.35M59.65 4.6h.45l.15-.4h-1.2v.4h.6m-3.2.2.05-.55-1.55.05.15.7 1.35-.2m-7.85 0-4.2.95-.2 1.85 4.35-.2.2 2.3-1.25.05.5 6.9-2.5.25-.5-7-1.05.15q-.35 3.2-.4 6.45l-2.35-.25q.05-5.85.85-11.25l-.3-1.1 5.95-1.35.9 2.25m-7.4-.35-4.25.9-.05.95 1.6-.15q1.7 0 2.25.85.55.7.55 1.7v.7q0 1.8-.65 2.5t-1.65.7h-.75l-1.7-.1-.1 3.85-2.45-.2q.05-5.8.6-11l-.5-1.5 6.35-1.4.75 2.2m-4.55 5.8 1.5.1q.65 0 .7-.2l.05-.85-.05-.75-.45-.2-1.7.2-.05 1.7M31.3 5.9l-.35 1.9.45.25q.8.6.8 1.7l-.65 2.45-.15.4 1.2.4-.45 2.5-1.9-.6-1.15 2-2.45-1.05 1.05-1.65-1.25-.2.5-2.5 2.05.45.25-.45.45-1.15q0-.4-.45-.4l-1.35.3-.45.1-.35-2.3q.6-.25 1.15-.35l.5-1.8q0-.65-.6-.9l-.7-.1-1.6 11.3-2.5-.6.05-.15-4.15 1.15-.6-2.3 4.3-1.2.5 1.75L24.8 5.4l-.45.25-.75-2.25q1.9-.8 3.9-.8 1.85 0 2.75.55.95.75 1.05 2.1v.65m-7.7 6.65-2.65.45h-.25q-.95 0-1.45-.5-.55-.55-.55-1.3 0-.8.4-1.6l-.75-.45q-.6-.65-.6-1.55 0-.75.6-2.05 1-1.35 2.85-2.75l1.5 1.45Q20.8 5.9 20.4 6.5q-.4.5-.4.95l.35.15h.05l1.8-1.7 1.5 1.55q-1.75 1.05-2.55 2.85 0 .45.4.45l1.5-.5.55 2.3M13.95 7.9h1.7l.25 2.5-1.65.05.6 5.75-2.75.3-.6-6-4.6.25q-.25 2.65-.35 5.4l-2.7-.35.2-4.9-1.85.2L2 8.6l2.35-.25.3-2.05-1.5.45L2.4 4.2l6.8-1.95.95 2.5q-1.3.3-2.55.75l-.4 2.65 4.05-.2-.45-4.55 2.7-.3.45 4.8z" fill="none" stroke="#6d4201" stroke-linecap="round" stroke-linejoin="round" stroke-width="4"/><path d="m127.25 3.7-2.95-.2-.1.4 2 .35q1 .5 1 2.1 0 2.5-.7 5.95h.9l.25 2.1-10.65.5-.15-2.15.9-.05q.1-4.75.95-9.05l2.4.3-.05.35.5-.15.2-.85-3.25-.05.2-2.05 3.65.1.4-1.05 2.4.5-.25.7 2.5.25-.15 2m-2.55 3.35q0-1.15-1.45-1.15l-1.75.4 2.45.2-.2 1.65-3.2-.15-.1.35 3.25.15-.1 1.6-3.25-.15-.05.55 3.15-.2.2 1.7-3.4.15v.35l3.65-.15q.65-2.8.8-5.3m-6.2-3.45-1.35.45q-.8 4.95-.9 10.2L113.6 14q.05-4.6.75-8.9l-.7.25-.75-2.55 4.75-1.65.85 2.45m-7.6-.05-4.25.15-.15.4 2.05.4q.9.55.9 2.2v.55l1.3-.45.4 2.25-1.8.55-.05.85 2.35.6-.4 2.35-2.2-.65-.2 2.1-2.55-.5.3-2-2 2.05-1.75-1.55 2.85-2.9 1.05 1 .05-1q-1.3-.05-2.1-.75-.85-.8-.85-2.3l-.9.5-.5-1.45q-1.45 1-2.2 2.45 0 .45.4.45l1.6-.5.5 2.35-2.65.5-.3.05q-.9 0-1.45-.6-.55-.5-.55-1.3 0-.9.45-1.75l-.8-.45q-.65-.7-.65-1.6 0-.75.7-2 .95-1.35 2.95-2.7l1.55 1.6q-2 1.5-2.45 2.05-.45.5-.45.9l.35.15h.3l1.6-1.5 1.05 1.1q.9-.4 1.65-.65l.1-.5-1.35.15-.2-2.25 2.3-.35.7-1.55 2.3.8-.2.55 3-.05.2 2.25m-3.9 4.1V7.4q0-.95-.85-1.1l.2.95q.25.4.65.4m-4.05 5.85q-2 .8-4.6 1.2l-.65-2.35 4.55-1.1.7 2.25m-8-10.5-10.5.4-.4 3.2q1.8-.9 3.75-1.35l.75-1.9L91.3 4l-.4 1q1.6.1 2.7.85 1.1 1.15 1.1 2.8v.6q-.1 2.7-.85 4.75l-2.9-.5q.75-1.7.9-3.8 0-1.2-.35-1.75-.5-.35-1.3-.35h-.3q-1.05 3.25-1.75 6.8l-2.7-.6q.5-2.85 1.35-5.5-1.05.35-2 .95L84 6.9q-.4 3.8-.55 7.8l-2.65-.3q.05-5.6.95-10.8l-.55.05L81 1.3 94.7.65 94.95 3m-16.7-.55h-4.2l-.2.55 1.35.15q1.85.15 2.7.85.75.5.75 2.05v.3q0 .65-.4 1.45-.55 1.05-2.35 1.35h-.2l.05.45 2.8-.05.2 2.05-2.5.05.05.35 1.2-.25.4 2.1-1.15.25.2.65-2.7.25-.15-.6h-.05l-3.45.3H70q-1.85 0-2.75-.75-.75-.55-.85-1.65l-1.5.15-.25-2 1.8-.25.35-1.35h-.05q-2.2-.55-2.2-2.35 0-1.05.8-3.2l1 .25 2.55-.4.15-.55-3.85.25-.2-2.1L78.05.3l.2 2.15M73.35 5 73 6.9l-2.05-.4.3-1.55-.65.05-.35 1.8-2-.5.15-1.1-1 .2-.2.95q0 .6 1.15.8l4.4.2 1.9-.1q.8-.05 1.1-.45l.25-.75-.25-.7L74.2 5h-.85M71.2 2.55l-.1.4h.6l.15-.45-.65.05m1.8 6.8h-1.5l-2.05-.1-.2.7 3.85-.25-.1-.35m-11.2-7.2h-1.25l-.2.65 1.1.25q1.4.65 1.4 1.55v.35l-.65 2.5L59.8 7q.5-.75.65-1.75 0-.4-.55-.55l-.35 2.2-2.15-.4.3-2h-.85L56.7 7l-2.5-.2.05-2.05-.85.2.35 1.9-2.1.15-.3-1.55-.45.15.5 1.6-.5.1 10.65.35-.25 2.05-6.3-.25-.2.5 2.6-.05 3.5.45q1.25.65 1.25 1.6v.25l-.45 2.7-2.45-.5q.45-.75.5-1.75 0-.3-.55-.5l-1.1-.05-.2 2.55-2.2-.3q0-1.15.15-2.2l-.85.05-.2 2.4-2.2-.3.05-1.75-1.1.25.45 1.35-2.45.75q-.6-1.9-.85-4l2.35-.7.05.4.8-.25.4-.95-2.6-.05.3-1.75-.7.15q-.75-1.95-1.1-4.15l2.1-.65.1.75.6-.15-.2-1.1-1.2.05-.15-1.9 12.2-.35.15 1.9m7.5 10.2 1.45.3 2.5-.2.45-.05-.2-.7-4.4.3.2.35M57.05 2.6h1.05l.15-.4h-1.2v.4M53.1 3l1.35-.2.05-.55-1.55.05.15.7m-6.5-.2-4.2.95-.2 1.85 4.35-.2.2 2.3-1.25.05.5 6.9-2.5.25-.5-7-1.05.15q-.35 3.2-.4 6.45l-2.35-.25q.05-5.85.85-11.25l-.3-1.1L45.7.55l.9 2.25m-7.4-.35-4.25.9-.05.95 1.6-.15q1.7 0 2.25.85.55.7.55 1.7v.7q0 1.8-.65 2.5t-1.65.7h-.75l-1.7-.1-.1 3.85-2.45-.2q.05-5.8.6-11l-.5-1.5 6.35-1.4.75 2.2m-4.55 5.8 1.5.1q.65 0 .7-.2l.05-.85-.05-.75-.45-.2-1.7.2-.05 1.7M29.3 3.9l-.35 1.9.45.25q.8.6.8 1.7l-.65 2.45-.15.4 1.2.4-.45 2.5-1.9-.6-1.15 2-2.45-1.05 1.05-1.65-1.25-.2.5-2.5 2.05.45.25-.45.45-1.15q0-.4-.45-.4l-1.35.3-.45.1-.35-2.3q.6-.25 1.15-.35l.5-1.8q0-.65-.6-.9l-.7-.1-1.6 11.3-2.5-.6.05-.15-4.15 1.15-.6-2.3 4.3-1.2.5 1.75L22.8 3.4l-.45.25-.75-2.25q1.9-.8 3.9-.8 1.85 0 2.75.55.95.75 1.05 2.1v.65m-7.7 6.65-2.65.45h-.25q-.95 0-1.45-.5-.55-.55-.55-1.3 0-.8.4-1.6l-.75-.45q-.6-.65-.6-1.55 0-.75.6-2.05 1-1.35 2.85-2.75l1.5 1.45Q18.8 3.9 18.4 4.5q-.4.5-.4.95l.35.15h.05l1.8-1.7 1.5 1.55Q19.95 6.5 19.15 8.3q0 .45.4.45l1.5-.5.55 2.3M13.65 5.9l.25 2.5-1.65.05.6 5.75-2.75.3-.6-6-4.6.25q-.25 2.65-.35 5.4l-2.7-.35.2-4.9-1.85.2L0 6.6l2.35-.25.3-2.05-1.5.45L.4 2.2 7.2.25l.95 2.5q-1.3.3-2.55.75l-.4 2.65 4.05-.2L8.8 1.4l2.7-.3.45 4.8h1.7" fill="url(#c)" fill-rule="evenodd" transform="translate(2 1.4)"/><path d="M135.9 5q.65 0 1.05.45.5.45.5 1.1 0 .65-.5 1.05l-1.05.45q-.6 0-1-.45-.5-.4-.5-1.05t.5-1.1q.4-.45 1-.45m-1 5.8q.4-.5 1-.5.65 0 1.05.5.5.45.5 1 0 .65-.5 1.1-.4.5-1.05.5-.6 0-1-.5-.5-.45-.5-1.1 0-.55.5-1" fill="url(#d)" fill-rule="evenodd" transform="translate(2 1.4)"/><defs><linearGradient gradientTransform="matrix(0 .01 -.0103 0 -165 5.25)" gradientUnits="userSpaceOnUse" id="a" spreadMethod="pad" x1="-819.2" x2="819.2"><stop offset="0" stop-color="#ff9"/><stop offset=".992" stop-color="#fc0"/></linearGradient><linearGradient gradientTransform="matrix(0 .01 -.0103 0 -170.2 5.25)" gradientUnits="userSpaceOnUse" id="b" spreadMethod="pad" x1="-819.2" x2="819.2"><stop offset="0" stop-color="#ff9"/><stop offset=".992" stop-color="#fc0"/></linearGradient><linearGradient gradientTransform="matrix(0 .01 -.0103 0 -170.2 4.65)" gradientUnits="userSpaceOnUse" id="c" spreadMethod="pad" x1="-819.2" x2="819.2"><stop offset="0" stop-color="#ff9"/><stop offset=".992" stop-color="#fc0"/></linearGradient><linearGradient gradientTransform="matrix(0 .01 -.0103 0 -165 4.65)" gradientUnits="userSpaceOnUse" id="d" spreadMethod="pad" x1="-819.2" x2="819.2"><stop offset="0" stop-color="#ff9"/><stop offset=".992" stop-color="#fc0"/></linearGradient></defs></svg>