<svg xmlns:ffdec="https://www.free-decompiler.com/flash" ffdec:objectType="shape" height="15.55" width="42.95" xmlns="http://www.w3.org/2000/svg"><path d="M41.45 10.3q0 .6-.45 1.05-.45.4-1.05.4-.6 0-1.05-.4-.45-.45-.45-1.05 0-.65.45-1.05.45-.45 1.05-.45.6 0 1.05.45.45.4.45 1.05m0-4.9q0 .65-.45 1.05-.45.45-1.05.45-.6 0-1.05-.45-.45-.4-.45-1.05 0-.6.45-1.05.45-.4 1.05-.4.6 0 1.05.4.45.45.45 1.05" fill="#fff06e" fill-rule="evenodd"/><path d="m33 4.1.55 4.75.4 6.25-2.2.2-.45-6.6-.5-4.4 2.2-.2M28.95 6l-.05.6 1.65-.15.7 6.7-2 .25-.6-5.65q-.35.55-1 .7L26 8.7h-1.5l1.3.25-.1.35-.05.05h.2q1.25 0 2.05.75.85.95.85 2.15v.45q-.25 1.7-.9 3.1l-2.3-.45q.9-1.55.9-2.65 0-.7-.3-.95l-.95-.2h-.3q-.6 1.95-.95 4.1l-2.2-.5q.25-1.6.65-3.1l-.45.15-.75-2.15 1.95-.45.4-1-1.1-.2q-1.1-.4-1.1-2.1 0-1.35.7-2.6l.55.15q1.3-.6 2.65-.6l1.5.15q.95.2 1.6.7.6.55.6 1.65V6m-2.7-.65-1.15-.1-1.5.4-.05.2q0 .65.2.75l1.6.1h.95l.4-.35.05-.4q0-.5-.5-.6m-11.3.35-.35 2.15-1.65-.2-.15 1.55h1.45l.2 2.2-1.8.05L12.6 13l2.35-.05.25 2.15-7.75.4-.2-2.1 3.1-.3v-1.5l-1.8.2-.2-2.25 2.15-.2.15-1.9-.85-.1-.3 1.75-2.05-.4q.35-2.65 1.1-5l2.05.45-.3 1 .6.05.3-1.85 2.25.2-.3 1.85 1.8.3M5.6 4.45l2.1.25-.65 4.45.6-.15.3 1.7-1.05.25-.2 4.15-2.1-.25.15-3.6H4.5q-.8 0-1.45-.65-.5-.55-.5-1.5 0-1.55.95-3.5l1.65.4q-.65 1.55-.8 2.7 0 .7.55.8.15-1.8.45-3.5l.25-1.55" fill="url(#a)" fill-rule="evenodd" transform="translate(-1.05 -1.75)"/><path d="M41.45 10.3q0 .6-.45 1.05-.45.4-1.05.4-.6 0-1.05-.4-.45-.45-.45-1.05 0-.65.45-1.05.45-.45 1.05-.45.6 0 1.05.45.45.4.45 1.05m0-4.9q0 .65-.45 1.05-.45.45-1.05.45-.6 0-1.05-.45-.45-.4-.45-1.05 0-.6.45-1.05.45-.4 1.05-.4.6 0 1.05.4.45.45.45 1.05m-9.5-3.05.55 4.75.4 6.25-2.2.2-.45-6.6-.5-4.4 2.2-.2m-4.05 1.9-.05.6 1.65-.15.7 6.7-2 .25L27.6 6q-.35.55-1 .7l-1.65.25h-1.5l1.3.25-.1.35-.05.05h.2q1.25 0 2.05.75.85.95.85 2.15v.45q-.25 1.7-.9 3.1l-2.3-.45q.9-1.55.9-2.65 0-.7-.3-.95l-.95-.2h-.3q-.6 1.95-.95 4.1l-2.2-.5q.25-1.6.65-3.1l-.45.15-.75-2.15 1.95-.45.4-1-1.1-.2q-1.1-.4-1.1-2.1 0-1.35.7-2.6l.55.15q1.3-.6 2.65-.6l1.5.15q.95.2 1.6.7.6.55.6 1.65v.25m-2.7-.65-1.15-.1-1.5.4-.05.2q0 .65.2.75l1.6.1h.95l.4-.35.05-.4q0-.5-.5-.6m-11.3.35-.35 2.15-1.65-.2-.15 1.55h1.45l.2 2.2-1.8.05-.05 1.55 2.35-.05.25 2.15-7.75.4-.2-2.1 3.1-.3v-1.5l-1.8.2-.2-2.25 2.15-.2.15-1.9-.85-.1-.3 1.75-2.05-.4q.35-2.65 1.1-5l2.05.45-.3 1 .6.05.3-1.85 2.25.2-.3 1.85 1.8.3M4.55 2.7l2.1.25L6 7.4l.6-.15.3 1.7-1.05.25-.2 4.15-2.1-.25.15-3.6h-.25q-.8 0-1.45-.65-.5-.55-.5-1.5 0-1.55.95-3.5l1.65.4q-.65 1.55-.8 2.7 0 .7.55.8.15-1.8.45-3.5l.25-1.55z" fill="none" stroke="#6d4201" stroke-linecap="round" stroke-linejoin="round" stroke-width="3"/><path d="m33 3.6.55 4.75.4 6.25-2.2.2-.45-6.6-.5-4.4 2.2-.2" fill="url(#b)" fill-rule="evenodd" transform="translate(-1.05 -1.75)"/><path d="m7.7 4.2-.65 4.45.6-.15.3 1.7-1.05.25-.2 4.15-2.1-.25.15-3.6H4.5q-.8 0-1.45-.65-.5-.55-.5-1.5 0-1.55.95-3.5l1.65.4q-.65 1.55-.8 2.7 0 .7.55.8l.7-5.05 2.1.25" fill="url(#c)" fill-rule="evenodd" transform="translate(-1.05 -1.75)"/><path d="m14.95 5.2-.35 2.15-1.65-.2-.15 1.55h1.45l.2 2.2-1.8.05-.05 1.55 2.35-.05.25 2.15-7.75.4-.2-2.1 3.1-.3v-1.5l-1.8.2-.2-2.25 2.15-.2.15-1.9-.85-.1-.3 1.75-2.05-.4q.35-2.65 1.1-5l2.05.45-.3 1 .6.05.3-1.85 2.25.2-.3 1.85 1.8.3" fill="url(#d)" fill-rule="evenodd" transform="translate(-1.05 -1.75)"/><path d="m26.25 4.85-1.15-.1-1.5.4-.05.2q0 .65.2.75l1.6.1h.95l.4-.35.05-.4q0-.5-.5-.6M28.9 6.1l1.65-.15.7 6.7-2 .25-.6-5.65q-.35.55-1 .7L26 8.2h-1.5l1.3.25-.15.4h.2q1.25 0 2.05.75.85.95.85 2.15v.45q-.25 1.7-.9 3.1l-2.3-.45q.9-1.55.9-2.65 0-.7-.3-.95l-.95-.2h-.3q-.6 1.95-.95 4.1l-2.2-.5q.25-1.6.65-3.1l-.45.15-.75-2.15 1.95-.45.4-1-1.1-.2q-1.1-.4-1.1-2.1 0-1.35.7-2.6l.55.15q1.3-.6 2.65-.6l1.5.15q.95.2 1.6.7.6.55.6 1.65v.25l-.05.6" fill="url(#e)" fill-rule="evenodd" transform="translate(-1.05 -1.75)"/><path d="M41 10.85q-.45.4-1.05.4-.6 0-1.05-.4-.45-.45-.45-1.05 0-.65.45-1.05.45-.45 1.05-.45.6 0 1.05.45.45.4.45 1.05 0 .6-.45 1.05m0-4.9q-.45.45-1.05.45-.6 0-1.05-.45-.45-.4-.45-1.05 0-.6.45-1.05.45-.4 1.05-.4.6 0 1.05.4.45.45.45 1.05 0 .65-.45 1.05" fill="#fff06e" fill-rule="evenodd"/><defs><linearGradient gradientTransform="translate(0 .5)" gradientUnits="userSpaceOnUse" id="a" spreadMethod="pad" x1="-819.2" x2="819.2"><stop offset="0" stop-color="#fc0"/><stop offset="1" stop-color="#ff6"/></linearGradient><linearGradient gradientTransform="matrix(.0019 0 0 .0068 32.35 9.2)" gradientUnits="userSpaceOnUse" id="b" spreadMethod="pad" x1="-819.2" x2="819.2"><stop offset="0" stop-color="#fc0"/><stop offset="1" stop-color="#ff6"/></linearGradient><linearGradient gradientTransform="matrix(0 .0033 -.0065 0 5.3 9.3)" gradientUnits="userSpaceOnUse" id="c" spreadMethod="pad" x1="-819.2" x2="819.2"><stop offset="0" stop-color="#fc0"/><stop offset="1" stop-color="#ff6"/></linearGradient><linearGradient gradientTransform="matrix(0 .0049 -.0074 0 11.2 8.9)" gradientUnits="userSpaceOnUse" id="d" spreadMethod="pad" x1="-819.2" x2="819.2"><stop offset="0" stop-color="#fc0"/><stop offset="1" stop-color="#ff6"/></linearGradient><linearGradient gradientTransform="matrix(.0016 .0059 -.0074 .002 26.2 9)" gradientUnits="userSpaceOnUse" id="e" spreadMethod="pad" x1="-819.2" x2="819.2"><stop offset="0" stop-color="#fc0"/><stop offset="1" stop-color="#ff6"/></linearGradient></defs></svg>