<svg xmlns:ffdec="https://www.free-decompiler.com/flash" xmlns:xlink="http://www.w3.org/1999/xlink" ffdec:objectType="frame" height="12.95" width="67.35" xmlns="http://www.w3.org/2000/svg"><g transform="translate(.5 .5)"><filter id="a"><feColorMatrix in="SourceGraphic" result="filterResult0" values="0 0 0 0 0.4,0 0 0 0 1.0,0 0 0 0 1.0,0 0 0 1 0"/><feConvolveMatrix divisor="16" in="filterResult0" kernelMatrix="1 1 1 1 1 1 1 1 1 1 1 1 1 1 1 1" order="4 4" result="filterResult1"/><feComposite in="SourceGraphic" in2="filterResult1" result="filterResult2"/></filter><use ffdec:characterId="185" filter="url(#a)" height="12.95" transform="translate(-.5 -.5)" width="67.35" xlink:href="#b"/></g><defs><linearGradient gradientTransform="matrix(.0327 0 0 .0068 31.25 7.1)" gradientUnits="userSpaceOnUse" id="d" spreadMethod="pad" x1="-819.2" x2="819.2"><stop offset="0" stop-color="#930"/><stop offset="1" stop-color="#5c1c01"/></linearGradient><linearGradient gradientTransform="matrix(.0345 0 0 .0068 33.4 6.25)" gradientUnits="userSpaceOnUse" id="e" spreadMethod="pad" x1="-819.2" x2="819.2"><stop offset="0" stop-color="#82fdfd"/><stop offset=".392" stop-color="#70fefe"/><stop offset=".741" stop-color="#f90"/><stop offset="1" stop-color="#f60"/></linearGradient><linearGradient gradientTransform="matrix(.0345 0 0 .0068 33.4 6.25)" gradientUnits="userSpaceOnUse" id="f" spreadMethod="pad" x1="-819.2" x2="819.2"><stop offset="0" stop-color="#83fdfd"/><stop offset=".392" stop-color="#83fdfd"/><stop offset=".741" stop-color="#3ffcfb"/><stop offset="1" stop-color="#03afaf"/></linearGradient><linearGradient gradientTransform="matrix(.0345 0 0 .0068 33.4 6.25)" gradientUnits="userSpaceOnUse" id="g" spreadMethod="pad" x1="-819.2" x2="819.2"><stop offset="0" stop-color="#83fdfd"/><stop offset=".392" stop-color="#83fdfd"/><stop offset=".741" stop-color="#18dede"/><stop offset="1" stop-color="#83fdfd"/></linearGradient><linearGradient gradientTransform="matrix(.0345 0 0 .0068 33.4 6.25)" gradientUnits="userSpaceOnUse" id="h" spreadMethod="pad" x1="-819.2" x2="819.2"><stop offset="0" stop-color="#84fdfd"/><stop offset=".392" stop-color="#83fdfd"/><stop offset=".741" stop-color="#17d7d7"/><stop offset="1" stop-color="#04fbfb"/></linearGradient><linearGradient gradientTransform="matrix(.0345 0 0 .0068 33.4 6.25)" gradientUnits="userSpaceOnUse" id="i" spreadMethod="pad" x1="-819.2" x2="819.2"><stop offset="0" stop-color="#cdfefd"/><stop offset=".008" stop-color="#8afdfd"/><stop offset=".392" stop-color="#80fdfd"/><stop offset=".741" stop-color="#1adede"/><stop offset="1" stop-color="#80fdfd"/></linearGradient><use ffdec:characterId="184" height="12.95" width="67.35" xlink:href="#c" id="b"/><g id="c"><path d="m66 5.15.25.05q1.05.55.3 1.8l-1.5 1.9.2 2.1q.35 1.55-1.35 1.4l-3.15-.95-2.1.85h-.05q-1.6.55-1.7-1.1l.65-.05.2-.1h.05l2.1-.85 3.15.95q1.7.15 1.35-1.4l-.2-2.1 1.5-1.9.3-.6m-9.7 2.6-.65-.7-.35-.7.5.6.5.55v.25m-3.9-2.6.25.05q1.05.55.3 1.8l-1.5 1.9.2 2.1q.35 1.55-1.35 1.4l-3.15-.95-2.1.85H45q-1.6.55-1.7-1.1l.65-.05.2-.1h.05l2.1-.85 3.15.95q1.7.15 1.35-1.4l-.2-2.1 1.5-1.9.3-.6m-9.7 2.6-.65-.7-.35-.7.5.6.5.55v.25m-3.9-2.6.25.05q1.05.55.3 1.8l-1.5 1.9.2 2.1q.35 1.55-1.35 1.4l-3.15-.95-2.1.85h-.05q-1.6.55-1.7-1.1l.65-.05.2-.1h.05l2.1-.85 3.15.95q1.7.15 1.35-1.4l-.2-2.1 1.5-1.9.3-.6m-9.7 2.6-.65-.7-.35-.7.5.6.5.55v.25m-13 3.45.65-.05.2-.1H17l2.1-.85 3.15.95q1.7.15 1.35-1.4l-.2-2.1 1.5-1.9.3-.6.25.05q1.05.55.3 1.8l-1.5 1.9.2 2.1q.35 1.55-1.35 1.4l-3.15-.95-2.1.85h-.05q-1.6.55-1.7-1.1M15 6.95l.5.55v.25l-.65-.7-.35-.7.5.6m-3.4-1.8.25.05q1.05.55.3 1.8l-1.5 1.9.2 2.1q.35 1.55-1.35 1.4l-3.15-.95-2.1.85H4.2q-1.6.55-1.7-1.1l.65-.05.2-.1h.05l2.1-.85 3.15.95q1.7.15 1.35-1.4l-.2-2.1 1.5-1.9.3-.6m-9.7 2.6-.65-.7-.35-.7.5.6.5.55v.25" fill-opacity=".502" fill-rule="evenodd" transform="translate(.5 .5)"/><path d="m55.3 6.35-.4-.45.9 1.05-.5-.6m-13.6 0-.4-.45.9 1.05-.5-.6m-13.6 0-.4-.45.9 1.05-.5-.6m-14-.45.9 1.05-.5-.6-.4-.45M.9 6.35.5 5.9l.9 1.05-.5-.6" fill="url(#d)" fill-rule="evenodd" transform="translate(.5 .5)"/><path d="m.5 5.9-.1-.1q-1-1.4.4-1.9l2.3-.6L4.5.95 4.55.8Q5.5-.7 6.6.7l1.9 2.6 2.5.65q.75.4.6 1.2l-.3.6-1.5 1.9.2 2.1q.35 1.55-1.35 1.4L5.5 10.2l-2.1.85h-.05l-.2.1-.65.05q-.8-.15-.85-1.4l.25-2.05V7.5l-.5-.55L.5 5.9" fill="url(#e)" fill-rule="evenodd" transform="translate(.5 .5)"/><path d="M56.9 11.2q-.8-.15-.85-1.4l.25-2.05V7.5l-.5-.55-.9-1.05-.1-.1q-1-1.4.4-1.9l2.3-.6L58.9.95l.05-.15Q59.9-.7 61 .7l1.9 2.6 2.5.65q.75.4.6 1.2l-.3.6-1.5 1.9.2 2.1q.35 1.55-1.35 1.4l-3.15-.95-2.1.85h-.05l-.2.1-.65.05" fill="url(#f)" fill-rule="evenodd" transform="translate(.5 .5)"/><path d="m41.3 5.9-.1-.1q-1-1.4.4-1.9l2.3-.6L45.3.95l.05-.15Q46.3-.7 47.4.7l1.9 2.6 2.5.65q.75.4.6 1.2l-.3.6-1.5 1.9.2 2.1q.35 1.55-1.35 1.4l-3.15-.95-2.1.85h-.05l-.2.1-.65.05q-.8-.15-.85-1.4l.25-2.05V7.5l-.5-.55-.9-1.05" fill="url(#g)" fill-rule="evenodd" transform="translate(.5 .5)"/><path d="m27.7 5.9-.1-.1q-1-1.4.4-1.9l2.3-.6L31.7.95l.05-.15Q32.7-.7 33.8.7l1.9 2.6 2.5.65q.75.4.6 1.2l-.3.6-1.5 1.9.2 2.1q.35 1.55-1.35 1.4l-3.15-.95-2.1.85h-.05l-.2.1-.65.05q-.8-.15-.85-1.4l.25-2.05V7.5l-.5-.55-.9-1.05" fill="url(#h)" fill-rule="evenodd" transform="translate(.5 .5)"/><path d="m25.2 5.15-.3.6-1.5 1.9.2 2.1q.35 1.55-1.35 1.4l-3.15-.95-2.1.85h-.05l-.2.1-.65.05q-.8-.15-.85-1.4l.25-2.05V7.5l-.5-.55-.9-1.05-.1-.1q-1-1.4.4-1.9l2.3-.6L18.1.95l.05-.15Q19.1-.7 20.2.7l1.9 2.6 2.5.65q.75.4.6 1.2" fill="url(#i)" fill-rule="evenodd" transform="translate(.5 .5)"/><path d="M56.9 11.2q-.8-.15-.85-1.4l.25-2.05V7.5l-.5-.55-.5-.6-.4-.45-.1-.1q-1-1.4.4-1.9l2.3-.6L58.9.95l.05-.15Q59.9-.7 61 .7l1.9 2.6 2.5.65q.75.4.6 1.2l-.3.6-1.5 1.9.2 2.1q.35 1.55-1.35 1.4l-3.15-.95-2.1.85h-.05l-.2.1-.65.05M41.3 5.9l-.1-.1q-1-1.4.4-1.9l2.3-.6L45.3.95l.05-.15Q46.3-.7 47.4.7l1.9 2.6 2.5.65q.75.4.6 1.2l-.3.6-1.5 1.9.2 2.1q.35 1.55-1.35 1.4l-3.15-.95-2.1.85h-.05l-.2.1-.65.05q-.8-.15-.85-1.4l.25-2.05V7.5l-.5-.55-.5-.6-.4-.45m-13.6 0-.1-.1q-1-1.4.4-1.9l2.3-.6L31.7.95l.05-.15Q32.7-.7 33.8.7l1.9 2.6 2.5.65q.75.4.6 1.2l-.3.6-1.5 1.9.2 2.1q.35 1.55-1.35 1.4l-3.15-.95-2.1.85h-.05l-.2.1-.65.05q-.8-.15-.85-1.4l.25-2.05V7.5l-.5-.55-.5-.6-.4-.45m-2.5-.75-.3.6-1.5 1.9.2 2.1q.35 1.55-1.35 1.4l-3.15-.95-2.1.85h-.05l-.2.1-.65.05q-.8-.15-.85-1.4l.25-2.05V7.5l-.5-.55-.5-.6-.4-.45-.1-.1q-1-1.4.4-1.9l2.3-.6L18.1.95l.05-.15Q19.1-.7 20.2.7l1.9 2.6 2.5.65q.75.4.6 1.2M.5 5.9l-.1-.1q-1-1.4.4-1.9l2.3-.6L4.5.95 4.55.8Q5.5-.7 6.6.7l1.9 2.6 2.5.65q.75.4.6 1.2l-.3.6-1.5 1.9.2 2.1q.35 1.55-1.35 1.4L5.5 10.2l-2.1.85h-.05l-.2.1-.65.05q-.8-.15-.85-1.4l.25-2.05V7.5l-.5-.55-.5-.6-.4-.45z" fill="none" stroke="#013232" stroke-linecap="round" stroke-linejoin="round" transform="translate(.5 .5)"/></g></defs></svg>