<svg xmlns:ffdec="https://www.free-decompiler.com/flash" ffdec:objectType="shape" height="19.15" width="19.15" xmlns="http://www.w3.org/2000/svg"><path d="M2.6 15.1Q0 12.5 0 8.85T2.6 2.6Q5.2 0 8.85 0t6.25 2.6q2.55 2.6 2.55 6.25T15.1 15.1q-2.6 2.55-6.25 2.55T2.6 15.1" fill="url(#a)" fill-rule="evenodd" transform="translate(.75 .75)"/><path d="M3.35 15.85Q.75 13.25.75 9.6t2.6-6.25Q5.95.75 9.6.75t6.25 2.6q2.55 2.6 2.55 6.25t-2.55 6.25q-2.6 2.55-6.25 2.55t-6.25-2.55z" fill="none" stroke="#723d1c" stroke-linecap="round" stroke-linejoin="round" stroke-width="1.5"/><path d="M9.5 14.1q-.55 0-1.15-.55L5.3 8.85q-.45-1.25.95-1.35h6.7q1.2.3.85 1.4l-3.25 4.65q-.5.55-1.05.55" fill="#bd5e26" fill-rule="evenodd"/><path d="M8.75 13.35q-.55 0-1.15-.55L4.55 8.1q-.45-1.25.95-1.35h6.7q1.2.3.85 1.4L9.8 12.8q-.5.55-1.05.55z" fill="none" stroke="url(#b)" stroke-linecap="round" stroke-linejoin="round" stroke-width=".8" transform="translate(.75 .75)"/><defs><linearGradient gradientTransform="matrix(0 -.0038 .0108 0 8.75 6.15)" gradientUnits="userSpaceOnUse" id="a" spreadMethod="pad" x1="-819.2" x2="819.2"><stop offset=".008" stop-color="#ffeac4"/><stop offset="1" stop-color="#fff"/></linearGradient><linearGradient gradientTransform="matrix(.0002 .0045 -.0058 .0002 8.7 10.1)" gradientUnits="userSpaceOnUse" id="b" spreadMethod="pad" x1="-819.2" x2="819.2"><stop offset="0" stop-color="#b18a5c"/><stop offset="1" stop-color="#fff"/></linearGradient></defs></svg>