<svg xmlns:ffdec="https://www.free-decompiler.com/flash" ffdec:objectType="shape" height="20.85" width="73.5" xmlns="http://www.w3.org/2000/svg"><path d="M71.5 4.25V16.9q.1 1.5-1.75 1.4H59.3q-2 .15-1.85-1.4V4.4q.1-1.4 1.3-1.5H70.1q1.4 0 1.4 1.35m-2.1 1.2q0-.5-.35-.5h-9q-.4.05-.5.55v1.9h9.85V5.45m0 4h-9.85v2.45h9.85V9.45m-9.85 6.4q0 .65.45.55h8.9q.6.1.5-.5v-1.95h-9.85v1.9M52.1 4.9v-.25l-.25-.25H45.7l-.2.25v.45h6.35l.25-.2M53.25 7q1-.15 1.05.7.05.9-.9.9l-3.05.15v.65h2.1q1.2 0 1.15 1.05v1.6q.05 1.05-1 1h-2.3v.55h2.65q1.35-.15 1.2 1.25v2.7q.2 1.4-1.7 1.25-1.65.05-1.55-.75 0-.75.65-.75h.5q.4.1.35-.35V15.5l-.35-.3H50.3v.95h.05l.2-.1-.05-.2q-.15-.3.3-.5l.7.05.4.75.2.35q.3.4-.1.6l-.75-.05-3.5.7q-.9.05-.9-.65-.15-.55.75-.6l.85-.1v-1.2h-1.6q-.3-.05-.3.35v2.6q-.75 1.3-1.6.1v-3.2q-.1-1.5 1.1-1.45h2.4v-.55H46.5q-1 .1-.9-1v-1.7q-.1-1.05.95-.95h1.9v-.65h-2.4q-.4.05-.55-.3v.45q-.15 5.55-1.75 8.85-.5.9-1.25.55-.65-.15-.5-.7h-2.2q-1.1.05-1.05-1.1V4.25q-.05-1.4 1-1.25h2.05q1.2-.15 1.1 1.25V15q.7-2.8.8-6.6V3.95q-.1-1.3 1.15-1.25h7.9q1.25-.05 1.2 1.1v1.8Q54 6.7 52.8 6.65h-7.3v.85q0-.3.5-.3h5.05l2.2-.2m-5.75 4.65h.95v-.8h-.95q-.3-.05-.25.3v.25q-.05.3.25.25m2.85 0h1.25l.3-.25v-.25l-.3-.3h-1.25v.8m-9.15-6.5-.25-.25h-.3l-.2.25V7.2h.75V5.15m-.75 6.25h.75V9.1h-.75v2.3m0 2v2.25q-.1.35.2.25h.3l.25-.25V13.4h-.75m-4-4.95q-.35 1-1.65.5-2.35-1-5.7-4-.6-.65-.9-.65l-.35.35-.35.35q-2.65 2.4-5.6 3.95-1.35.7-1.8-.35-.4-1 .75-1.55 3.35-1.6 6.15-4.3.8-.85 1.3-.75l1.45.85.15.15q2.25 2.15 5.7 3.9 1.2.6.85 1.55m.2 9.95-1.6.05q-2.5-2.3-3.6-4.5-1.05 2.75-2.1 4.15-.65.9-1.55.5-.8-.45-.5-1.3l.45-.65q-.8.7-1.65-.25l-1.55-2.85q-1 2.5-2.45 4.25-.7.95-1.5.5-.85-.5-.4-1.4 2.8-3.6 3.6-8 .1-1.3 1.25-1 1 .15.75 1.2l-.2.9-.2.9.75 1.35 1.65 2.95q.35.8.15 1.3 1.75-2.75 2.5-7.55.2-1.1 1.2-.9 1.15.05.85 1.2l-.2 1.55-.15.7q1.55 3.1 4.45 5.45.7.6.05 1.45M18.6 4.1q-.1 1-1 1.05H8.4L8.25 7.5h7.15q1.9-.15 1.75 1.8.1 2.7-.2 6v.2q-.2 2.95-3.15 2.9l-3.85-.8q-1.1-.3-.7-1.35.25-.9 1.45-.55l.3.1 2.45.45q1.35.15 1.45-1.55l.1-.4.05-4.15q0-.7-.5-.65H8.1q-.85 5.15-3.75 8.25Q3.4 19 2.5 18.4q-.85-.65 0-1.65 3.9-4.35 3.75-11.6H2.9Q2.05 5.1 2 4.1q.05-1 .9-1.05h14.7q.9.05 1 1.05" fill="#fe0" fill-rule="evenodd"/><path d="M71.5 4.25V16.9q.1 1.5-1.75 1.4H59.3q-2 .15-1.85-1.4V4.4q.1-1.4 1.3-1.5H70.1q1.4 0 1.4 1.35m-2.1 1.2q0-.5-.35-.5h-9q-.4.05-.5.55v1.9h9.85V5.45m0 4h-9.85v2.45h9.85V9.45m-9.85 6.4q0 .65.45.55h8.9q.6.1.5-.5v-1.95h-9.85v1.9M52.1 4.9v-.25l-.25-.25H45.7l-.2.25v.45h6.35l.25-.2M53.25 7q1-.15 1.05.7.05.9-.9.9l-3.05.15v.65h2.1q1.2 0 1.15 1.05v1.6q.05 1.05-1 1h-2.3v.55h2.65q1.35-.15 1.2 1.25v2.7q.2 1.4-1.7 1.25-1.65.05-1.55-.75 0-.75.65-.75h.5q.4.1.35-.35V15.5l-.35-.3H50.3v.95h.05l.2-.1-.05-.2q-.15-.3.3-.5l.7.05.4.75.2.35q.3.4-.1.6l-.75-.05-3.5.7q-.9.05-.9-.65-.15-.55.75-.6l.85-.1v-1.2h-1.6q-.3-.05-.3.35v2.6q-.75 1.3-1.6.1v-3.2q-.1-1.5 1.1-1.45h2.4v-.55H46.5q-1 .1-.9-1v-1.7q-.1-1.05.95-.95h1.9v-.65h-2.4q-.4.05-.55-.3v.45q-.15 5.55-1.75 8.85-.5.9-1.25.55-.65-.15-.5-.7h-2.2q-1.1.05-1.05-1.1V4.25q-.05-1.4 1-1.25h2.05q1.2-.15 1.1 1.25V15q.7-2.8.8-6.6V3.95q-.1-1.3 1.15-1.25h7.9q1.25-.05 1.2 1.1v1.8Q54 6.7 52.8 6.65h-7.3v.85q0-.3.5-.3h5.05l2.2-.2m-5.75 4.65h.95v-.8h-.95q-.3-.05-.25.3v.25q-.05.3.25.25m2.85 0h1.25l.3-.25v-.25l-.3-.3h-1.25v.8m-9.15-6.5-.25-.25h-.3l-.2.25V7.2h.75V5.15m-.75 6.25h.75V9.1h-.75v2.3m0 2v2.25q-.1.35.2.25h.3l.25-.25V13.4h-.75m-4-4.95q-.35 1-1.65.5-2.35-1-5.7-4-.6-.65-.9-.65l-.35.35-.35.35q-2.65 2.4-5.6 3.95-1.35.7-1.8-.35-.4-1 .75-1.55 3.35-1.6 6.15-4.3.8-.85 1.3-.75l1.45.85.15.15q2.25 2.15 5.7 3.9 1.2.6.85 1.55m.2 9.95-1.6.05q-2.5-2.3-3.6-4.5-1.05 2.75-2.1 4.15-.65.9-1.55.5-.8-.45-.5-1.3l.45-.65q-.8.7-1.65-.25l-1.55-2.85q-1 2.5-2.45 4.25-.7.95-1.5.5-.85-.5-.4-1.4 2.8-3.6 3.6-8 .1-1.3 1.25-1 1 .15.75 1.2l-.2.9-.2.9.75 1.35 1.65 2.95q.35.8.15 1.3 1.75-2.75 2.5-7.55.2-1.1 1.2-.9 1.15.05.85 1.2l-.2 1.55-.15.7q1.55 3.1 4.45 5.45.7.6.05 1.45M18.6 4.1q-.1 1-1 1.05H8.4L8.25 7.5h7.15q1.9-.15 1.75 1.8.1 2.7-.2 6v.2q-.2 2.95-3.15 2.9l-3.85-.8q-1.1-.3-.7-1.35.25-.9 1.45-.55l.3.1 2.45.45q1.35.15 1.45-1.55l.1-.4.05-4.15q0-.7-.5-.65H8.1q-.85 5.15-3.75 8.25Q3.4 19 2.5 18.4q-.85-.65 0-1.65 3.9-4.35 3.75-11.6H2.9Q2.05 5.1 2 4.1q.05-1 .9-1.05h14.7q.9.05 1 1.05z" fill="none" stroke="#69290a" stroke-linecap="round" stroke-linejoin="round" stroke-width="4"/><path d="M71.5 4.25V16.9q.1 1.5-1.75 1.4H59.3q-2 .15-1.85-1.4V4.4q.1-1.4 1.3-1.5H70.1q1.4 0 1.4 1.35m-2.45.7h-9q-.4.05-.5.55v1.9h9.85V5.45q0-.5-.35-.5m.35 4.5h-9.85v2.45h9.85V9.45M60 16.4h8.9q.6.1.5-.5v-1.95h-9.85v1.9q0 .65.45.55m-8.15-12H45.7l-.2.25v.45h6.35l.25-.2v-.25l-.25-.25m2.1-.6v1.8Q54 6.7 52.8 6.65h-7.3v.85q0-.3.5-.3h5.05l2.2-.2q1-.15 1.05.7.05.9-.9.9l-3.05.15v.65h2.1q1.2 0 1.15 1.05v1.6q.05 1.05-1 1h-2.3v.55h2.65q1.35-.15 1.2 1.25v2.7q.2 1.4-1.7 1.25-1.65.05-1.55-.75 0-.75.65-.75h.5q.4.1.35-.35V15.5l-.35-.3H50.3v.95h.05l.2-.1-.05-.2q-.15-.3.3-.5l.7.05.4.75.2.35q.3.4-.1.6l-.75-.05-3.5.7q-.9.05-.9-.65-.15-.55.75-.6l.85-.1v-1.2h-1.6q-.3-.05-.3.35v2.6q-.75 1.3-1.6.1v-3.2q-.1-1.5 1.1-1.45h2.4v-.55H46.5q-1 .1-.9-1v-1.7q-.1-1.05.95-.95h1.9v-.65h-2.4q-.4.05-.55-.3v.45q-.15 5.55-1.75 8.85-.5.9-1.25.55-.65-.15-.5-.7h-2.2q-1.1.05-1.05-1.1V4.25q-.05-1.4 1-1.25h2.05q1.2-.15 1.1 1.25V15q.7-2.8.8-6.6V3.95q-.1-1.3 1.15-1.25h7.9q1.25-.05 1.2 1.1m-6.7 7.6q-.05.3.25.25h.95v-.8h-.95q-.3-.05-.25.3v.25m3.1.25h1.25l.3-.25v-.25l-.3-.3h-1.25v.8m-9.4-6.75h-.3l-.2.25V7.2h.75V5.15l-.25-.25m-.5 6.5h.75V9.1h-.75v2.3m0 2v2.25q-.1.35.2.25h.3l.25-.25V13.4h-.75m-4-4.95q-.35 1-1.65.5-2.35-1-5.7-4-.6-.65-.9-.65l-.35.35-.35.35q-2.65 2.4-5.6 3.95-1.35.7-1.8-.35-.4-1 .75-1.55 3.35-1.6 6.15-4.3.8-.85 1.3-.75l1.45.85.15.15q2.25 2.15 5.7 3.9 1.2.6.85 1.55m.2 9.95-1.6.05q-2.5-2.3-3.6-4.5-1.05 2.75-2.1 4.15-.65.9-1.55.5-.8-.45-.5-1.3l.45-.65q-.8.7-1.65-.25l-1.55-2.85q-1 2.5-2.45 4.25-.7.95-1.5.5-.85-.5-.4-1.4 2.8-3.6 3.6-8 .1-1.3 1.25-1 1 .15.75 1.2l-.2.9-.2.9.75 1.35 1.65 2.95q.35.8.15 1.3 1.75-2.75 2.5-7.55.2-1.1 1.2-.9 1.15.05.85 1.2l-.2 1.55-.15.7q1.55 3.1 4.45 5.45.7.6.05 1.45m-19.5-9.1q.1 2.7-.2 6v.2q-.2 2.95-3.15 2.9l-3.85-.8q-1.1-.3-.7-1.35.25-.9 1.45-.55l.3.1 2.45.45q1.35.15 1.45-1.55l.1-.4.05-4.15q0-.7-.5-.65H8.1q-.85 5.15-3.75 8.25Q3.4 19 2.5 18.4q-.85-.65 0-1.65 3.9-4.35 3.75-11.6H2.9Q2.05 5.1 2 4.1q.05-1 .9-1.05h14.7q.9.05 1 1.05-.1 1-1 1.05H8.4L8.25 7.5h7.15q1.9-.15 1.75 1.8" fill="#ffa800" fill-rule="evenodd"/></svg>