<svg xmlns:ffdec="https://www.free-decompiler.com/flash" ffdec:objectType="shape" height="20.9" width="74.8" xmlns="http://www.w3.org/2000/svg"><path d="M72.65 7.1q-.1.8-.85.9h-4.5v1.25h2.8q1.75-.15 1.6 1.5v4.2q-.05.7-.95.8-.95-.1-1-.8v-3.5q0-.45-.4-.45H63.2q-.4 0-.4.45v3.45q-.1.75-1 .85-.9-.1-1-.85v-4.15q-.05-1.65 1.5-1.5h3V8h-4.6q-.7-.1-.8-.9.1-.85.8-.95h4.6v-1.6l-2.15.05-3.1.15q-.5-.05-.4.45v5.45q-.1 4.6-1.35 7.05-.5 1.05-1.35.85-.9-.3-.55-1.2 1.25-3.45 1.35-7.25V4.6q-.1-1.8 1.55-1.8l11.95-.5q1.25-.15 1.3.75.15 1.15-1.1 1.2l-2.05.1-2.1.15v1.65h4.5q.75.1.85.95m-5.55 5.75q-.35 5.15-6.65 5.9-1.4.2-1.6-.7-.15-1.05 1-1.2 5-.15 5.25-4.35.2-1 1.2-.85.85.2.8 1.2m4.35 5.9q-2.1-1.2-4.25-1.9-.9-.35-.6-1.2.5-.85 1.4-.55l4.3 1.9q.75.55.4 1.4-.4.75-1.25.35M51.1 6.85l-.4-.1H40q-.9-.1-.95-1.1.05-.95.95-1.05h5.9l-.9-.55q-.55-.55-.2-1.35.55-.75 1.35-.45l1.55.9q.8.7.2 1.45h4.15q2.45.1 1.2 2.7-2.35 5.05-8.75 7.25l-.2.2.2.2q1.05.85 2.75 1.05l6.2.2q1.1 0 1.1.95.1 1.1-1.1 1.05l-7.1-.45q-2.1-.35-3.95-1.65l-.3-.25-.55-.25q-.4-.1-.6.7l-.25.55-.35.9q-.4.8-1.3.5-.85-.15-.6-1.2.45-1.3 1.4-3.1.8-1.2 2.15-.75 6.1-1.4 9.05-5.9l.05-.45M34.55 10.8H29.8v4.95h5.85q1 .05 1.05 1.05-.05.9-1 .95H21.45q-1-.05-1.05-.95.15-1 1.1-1.05h6V10.8h-5q-.85-.05-.9-1.1.15-1 .95-1.1h4.95V5.3h-5.2q-.9-.05-1-1.1.1-1.05 1-1.15h12.8q.9.1.95 1.15-.05 1.05-.95 1.1h-5.3v3.3h4.75q.9.1.95 1.1-.05 1.05-.95 1.1m.35 3.1q.4.75-.3 1.35-.85.55-1.4-.15l-.15-.2-1.85-2.15q-.6-.7.15-1.4.8-.5 1.55.15l2 2.4M17.65 6.85H16.4q.15.25-.3 1.2h1.2q.75.1.85.85 0 .85-.85.85h-3.45v.7h2.95q.9 0 .9.8t-.9.9h-3.1l-.05.4v.3h4q1.05 0 1.05.85t-1.05.9h-3.1q1.75 1.5 3.45 2.25.85.3.55 1.25-.5.95-1.65.35-1.9-.9-4.3-3.1-1.05 1.8-4 3.25-1.05.5-1.65-.25-.6-.85.5-1.5 2.25-1.05 3.1-2.25h-3l-.5.75L4 16.8l-.5.1q-1.05.45-1.4-.2-.4-.95.65-1.45l1.1-.5v-4.3H3.1q-.8 0-.8-1 .1-.7.8-.75h.75V5.1H3.1q-.85-.05-.9-.9 0-.9.9-.9h3.7q.8.05.8.9-.05.85-.8.9H5.75v3.6h.7q.8 0 .8.75 0 1-.8 1h-.7v3.4q.7-.35 1.05-.25 0-.75.8-.75h3.95l.05-.45.1-.25H8.85q-.9 0-.95-.85 0-.85.95-.85h3.05v-.7H8.35q-.9 0-.9-.85.1-.75.9-.85H9.9l-.4-.6-.05-.6h-1.5Q7.2 6.8 7.05 6q0-.8.9-.8h.55l-.25-.6-.45-.75q-.2-.7.35-1.05.85-.45 1.2.2l.5.85.2.4-.05.85v.1h.5V2.95q.05-.95.9-.95.75.1.85.95V5.1h.95V2.8q0-.8.95-.8.85 0 .85.8v2.4h.55q-.15-.15.05-.65l.5-1 .15-.35q.35-.75 1.35-.4.6.4.35 1.05l-.5 1.05-.15.3h.35q1.05-.1 1 .8.05.85-1 .85M14.2 7.9v-.1l.45-.95H11.3q.65.8.5 1.2h2.35l.05-.15" fill="#79ff8c" fill-rule="evenodd"/><path d="M72.65 7.1q-.1.8-.85.9h-4.5v1.25h2.8q1.75-.15 1.6 1.5v4.2q-.05.7-.95.8-.95-.1-1-.8v-3.5q0-.45-.4-.45H63.2q-.4 0-.4.45v3.45q-.1.75-1 .85-.9-.1-1-.85v-4.15q-.05-1.65 1.5-1.5h3V8h-4.6q-.7-.1-.8-.9.1-.85.8-.95h4.6v-1.6l-2.15.05-3.1.15q-.5-.05-.4.45v5.45q-.1 4.6-1.35 7.05-.5 1.05-1.35.85-.9-.3-.55-1.2 1.25-3.45 1.35-7.25V4.6q-.1-1.8 1.55-1.8l11.95-.5q1.25-.15 1.3.75.15 1.15-1.1 1.2l-2.05.1-2.1.15v1.65h4.5q.75.1.85.95m-5.55 5.75q-.35 5.15-6.65 5.9-1.4.2-1.6-.7-.15-1.05 1-1.2 5-.15 5.25-4.35.2-1 1.2-.85.85.2.8 1.2m4.35 5.9q-2.1-1.2-4.25-1.9-.9-.35-.6-1.2.5-.85 1.4-.55l4.3 1.9q.75.55.4 1.4-.4.75-1.25.35M51.1 6.85l-.4-.1H40q-.9-.1-.95-1.1.05-.95.95-1.05h5.9l-.9-.55q-.55-.55-.2-1.35.55-.75 1.35-.45l1.55.9q.8.7.2 1.45h4.15q2.45.1 1.2 2.7-2.35 5.05-8.75 7.25l-.2.2.2.2q1.05.85 2.75 1.05l6.2.2q1.1 0 1.1.95.1 1.1-1.1 1.05l-7.1-.45q-2.1-.35-3.95-1.65l-.3-.25-.55-.25q-.4-.1-.6.7l-.25.55-.35.9q-.4.8-1.3.5-.85-.15-.6-1.2.45-1.3 1.4-3.1.8-1.2 2.15-.75 6.1-1.4 9.05-5.9l.05-.45M34.55 10.8H29.8v4.95h5.85q1 .05 1.05 1.05-.05.9-1 .95H21.45q-1-.05-1.05-.95.15-1 1.1-1.05h6V10.8h-5q-.85-.05-.9-1.1.15-1 .95-1.1h4.95V5.3h-5.2q-.9-.05-1-1.1.1-1.05 1-1.15h12.8q.9.1.95 1.15-.05 1.05-.95 1.1h-5.3v3.3h4.75q.9.1.95 1.1-.05 1.05-.95 1.1m.35 3.1q.4.75-.3 1.35-.85.55-1.4-.15l-.15-.2-1.85-2.15q-.6-.7.15-1.4.8-.5 1.55.15l2 2.4M17.65 6.85H16.4q.15.25-.3 1.2h1.2q.75.1.85.85 0 .85-.85.85h-3.45v.7h2.95q.9 0 .9.8t-.9.9h-3.1l-.05.4v.3h4q1.05 0 1.05.85t-1.05.9h-3.1q1.75 1.5 3.45 2.25.85.3.55 1.25-.5.95-1.65.35-1.9-.9-4.3-3.1-1.05 1.8-4 3.25-1.05.5-1.65-.25-.6-.85.5-1.5 2.25-1.05 3.1-2.25h-3l-.5.75L4 16.8l-.5.1q-1.05.45-1.4-.2-.4-.95.65-1.45l1.1-.5v-4.3H3.1q-.8 0-.8-1 .1-.7.8-.75h.75V5.1H3.1q-.85-.05-.9-.9 0-.9.9-.9h3.7q.8.05.8.9-.05.85-.8.9H5.75v3.6h.7q.8 0 .8.75 0 1-.8 1h-.7v3.4q.7-.35 1.05-.25 0-.75.8-.75h3.95l.05-.45.1-.25H8.85q-.9 0-.95-.85 0-.85.95-.85h3.05v-.7H8.35q-.9 0-.9-.85.1-.75.9-.85H9.9l-.4-.6-.05-.6h-1.5Q7.2 6.8 7.05 6q0-.8.9-.8h.55l-.25-.6-.45-.75q-.2-.7.35-1.05.85-.45 1.2.2l.5.85.2.4-.05.85v.1h.5V2.95q.05-.95.9-.95.75.1.85.95V5.1h.95V2.8q0-.8.95-.8.85 0 .85.8v2.4h.55q-.15-.15.05-.65l.5-1 .15-.35q.35-.75 1.35-.4.6.4.35 1.05l-.5 1.05-.15.3h.35q1.05-.1 1 .8.05.85-1 .85M14.2 7.9v-.1l.45-.95H11.3q.65.8.5 1.2h2.35l.05-.15z" fill="none" stroke="#008361" stroke-linecap="round" stroke-linejoin="round" stroke-width="4"/><path d="M72.65 7.1q-.1.8-.85.9h-4.5v1.25h2.8q1.75-.15 1.6 1.5v4.2q-.05.7-.95.8-.95-.1-1-.8v-3.5q0-.45-.4-.45H63.2q-.4 0-.4.45v3.45q-.1.75-1 .85-.9-.1-1-.85v-4.15q-.05-1.65 1.5-1.5h3V8h-4.6q-.7-.1-.8-.9.1-.85.8-.95h4.6v-1.6l-2.15.05-3.1.15q-.5-.05-.4.45v5.45q-.1 4.6-1.35 7.05-.5 1.05-1.35.85-.9-.3-.55-1.2 1.25-3.45 1.35-7.25V4.6q-.1-1.8 1.55-1.8l11.95-.5q1.25-.15 1.3.75.15 1.15-1.1 1.2l-2.05.1-2.1.15v1.65h4.5q.75.1.85.95m-5.55 5.75q-.35 5.15-6.65 5.9-1.4.2-1.6-.7-.15-1.05 1-1.2 5-.15 5.25-4.35.2-1 1.2-.85.85.2.8 1.2m4.35 5.9q-2.1-1.2-4.25-1.9-.9-.35-.6-1.2.5-.85 1.4-.55l4.3 1.9q.75.55.4 1.4-.4.75-1.25.35M51.1 6.85l-.4-.1H40q-.9-.1-.95-1.1.05-.95.95-1.05h5.9l-.9-.55q-.55-.55-.2-1.35.55-.75 1.35-.45l1.55.9q.8.7.2 1.45h4.15q2.45.1 1.2 2.7-2.35 5.05-8.75 7.25l-.2.2.2.2q1.05.85 2.75 1.05l6.2.2q1.1 0 1.1.95.1 1.1-1.1 1.05l-7.1-.45q-2.1-.35-3.95-1.65l-.3-.25-.55-.25q-.4-.1-.6.7l-.25.55-.35.9q-.4.8-1.3.5-.85-.15-.6-1.2.45-1.3 1.4-3.1.8-1.2 2.15-.75 6.1-1.4 9.05-5.9l.05-.45M34.9 13.9q.4.75-.3 1.35-.85.55-1.4-.15l-.15-.2-1.85-2.15q-.6-.7.15-1.4.8-.5 1.55.15l2 2.4m-.35-3.1H29.8v4.95h5.85q1 .05 1.05 1.05-.05.9-1 .95H21.45q-1-.05-1.05-.95.15-1 1.1-1.05h6V10.8h-5q-.85-.05-.9-1.1.15-1 .95-1.1h4.95V5.3h-5.2q-.9-.05-1-1.1.1-1.05 1-1.15h12.8q.9.1.95 1.15-.05 1.05-.95 1.1h-5.3v3.3h4.75q.9.1.95 1.1-.05 1.05-.95 1.1m-16.9-3.95H16.4q.15.25-.3 1.2h1.2q.75.1.85.85 0 .85-.85.85h-3.45v.7h2.95q.9 0 .9.8t-.9.9h-3.1l-.05.4v.3h4q1.05 0 1.05.85t-1.05.9h-3.1q1.75 1.5 3.45 2.25.85.3.55 1.25-.5.95-1.65.35-1.9-.9-4.3-3.1-1.05 1.8-4 3.25-1.05.5-1.65-.25-.6-.85.5-1.5 2.25-1.05 3.1-2.25h-3l-.5.75L4 16.8l-.5.1q-1.05.45-1.4-.2-.4-.95.65-1.45l1.1-.5v-4.3H3.1q-.8 0-.8-1 .1-.7.8-.75h.75V5.1H3.1q-.85-.05-.9-.9 0-.9.9-.9h3.7q.8.05.8.9-.05.85-.8.9H5.75v3.6h.7q.8 0 .8.75 0 1-.8 1h-.7v3.4q.7-.35 1.05-.25 0-.75.8-.75h3.95l.05-.45.1-.25H8.85q-.9 0-.95-.85 0-.85.95-.85h3.05v-.7H8.35q-.9 0-.9-.85.1-.75.9-.85H9.9l-.4-.6-.05-.6h-1.5Q7.2 6.8 7.05 6q0-.8.9-.8h.55l-.25-.6-.45-.75q-.2-.7.35-1.05.85-.45 1.2.2l.5.85.2.4-.05.85v.1h.5V2.95q.05-.95.9-.95.75.1.85.95V5.1h.95V2.8q0-.8.95-.8.85 0 .85.8v2.4h.55q-.15-.15.05-.65l.5-1 .15-.35q.35-.75 1.35-.4.6.4.35 1.05l-.5 1.05-.15.3h.35q1.05-.1 1 .8.05.85-1 .85m-3.45.95.45-.95H11.3q.65.8.5 1.2h2.35l.05-.15v-.1" fill="#79ff8c" fill-rule="evenodd"/></svg>