<svg xmlns:ffdec="https://www.free-decompiler.com/flash" ffdec:objectType="shape" height="20.85" width="74.5" xmlns="http://www.w3.org/2000/svg"><path d="M72.15 3.95q-.1.8-.8.85H66.7v.65h4.25q.75.05.8.75-.05.8-.8.85H66.7v.65h4.7q.75.05.8.7-.05.7-.8.75h-4.7q.1.55-.95.55-1 0-1-.8V2.85q.05-.8 1-.85.9 0 .95.75v.35h4.65q.7.1.8.85m-6.5 8.95h4.7q.8.05.85.85-.05.8-.85.9h-4.7v.85h6.05q.7.05.8.85-.1.7-.8.75h-6.05v.9q-.05.8-1 .85-.9-.05-.95-.85v-.9h-6.9q-.8-.05-.85-.75.05-.8.85-.85h6.9v-.85h-4q-1.65-.15-.95-1.5l.15-.15.9-1.25h-2.35q-.7-.05-.7-.85 0-.75.7-.85h3.7l.55-.6-.05-.3H57q-.6-.05-.7-.75.1-.65.7-.7h4.65v-.65h-4.1q-.7-.05-.7-.85 0-.7.7-.75h4.1v-.6H57.1q-.7-.05-.7-.85.05-.75.75-.8h4.5v-.35q.05-.7 1-.8.9.1.95.8V8.9q.6.4-.05 1.15h7.5q.7.1.8.85-.1.8-.8.85H62.2l-.6.85-.1.2.2.1h2v-.25q.05-.6.95-.7.95.1 1 .7v.25M50.4 6.65H39.7q-.9-.1-.95-1.1.05-.95.95-1.05h5.9l-.9-.55q-.55-.55-.2-1.35.55-.75 1.35-.45.6.2 1.55.9.8.7.2 1.45h4.15q2.45.1 1.2 2.7-2.35 5.05-8.75 7.25l-.2.2.2.2q1.05.85 2.75 1.05l6.2.2q1.1 0 1.1.95.1 1.1-1.1 1.05l-7.1-.45q-2.1-.35-3.95-1.65l-.3-.25q-.4-.25-.55-.25-.4-.1-.6.7l-.25.55-.35.9q-.4.8-1.3.5-.85-.15-.6-1.2.45-1.3 1.4-3.1.8-1.2 2.15-.75 6.1-1.4 9.05-5.9l.05-.45-.4-.1m-14.5-3.4q.25 1-.75 1.25l-4.5.6q.5.75.6 1.45.15.5-.1.65h2.8q2.1-.1 1.6 1.3-1.65 4.95-6.3 6.7.6.85 5.7.8 1.3.05 1.45 1.05 0 1.1-1.35 1.2l-4.6-.3q-1.8-.35-3.25-1.7l-.45-.35q-.25 0-.95 1.6l-.3.6q-.5.85-1.4.55-.75-.4-.4-1.35l.55-1.1.7-1.4q1-1.8 2.65-1.15 2.55-.5 5.1-3.85.25-.5-.25-.55h-7.1q-.9-.1-.95-1.1.05-.9 1.05-.95h3.8q-.95-1.85-.35-2.05h-.8L26 5.2q-1.05-.05-1.1-.95Q25 3.2 26 3.1l8.6-.6q1.05-.15 1.3.75M24.6 5.5l-1.35.05L21.1 4q-.7-.55-.25-1.25.5-.6 1.35-.25l2.4 1.65q.55.7 0 1.35m.15 7.15q-.95 3-2.25 4.95-.7.9-1.65.55-.85-.5-.35-1.4l2.2-4.7q.4-1.05 1.4-.85.9.4.65 1.45m-2.1-2.45-1.45-.95-.8-.6q-.65-.6-.25-1.3.6-.65 1.4-.25l2.35 1.7q.55.7.05 1.35l-1.3.05m-10-5.1q.5.75.6 1.45.15.5-.1.65h2.8q2.1-.1 1.6 1.3-1.65 4.95-6.3 6.7.6.85 5.7.8 1.3.05 1.45 1.05 0 1.1-1.35 1.2l-4.6-.3q-1.8-.35-3.25-1.7l-.45-.35q-.25 0-.95 1.6l-.3.6q-.5.85-1.4.55-.75-.4-.4-1.35l.55-1.1.7-1.4q1-1.8 2.65-1.15 2.55-.5 5.1-3.85.25-.5-.25-.55h-7.1q-.9-.1-.95-1.1.05-.9 1.05-.95h3.8q-.95-1.85-.35-2.05h-.8L8 5.2q-1.05-.05-1.1-.95Q7 3.2 8 3.1l8.6-.6q1.05-.15 1.3.75.25 1-.75 1.25l-4.5.6m-7.4.45L3.1 4q-.7-.55-.25-1.25.5-.6 1.35-.25 1.25.6 2.4 1.65.55.7 0 1.35l-1.35.05M3.55 7.1q1.5.8 2.35 1.7.55.7.05 1.35l-1.3.05-1.45-.95-.8-.6q-.65-.6-.25-1.3.6-.65 1.4-.25m3.2 5.55q-.95 3-2.25 4.95-.7.9-1.65.55-.85-.5-.35-1.4 1.05-1.7 2.2-4.7.4-1.05 1.4-.85.9.4.65 1.45" fill="#e8ffaa" fill-rule="evenodd"/><path d="M72.15 3.95q-.1.8-.8.85H66.7v.65h4.25q.75.05.8.75-.05.8-.8.85H66.7v.65h4.7q.75.05.8.7-.05.7-.8.75h-4.7q.1.55-.95.55-1 0-1-.8V2.85q.05-.8 1-.85.9 0 .95.75v.35h4.65q.7.1.8.85m-6.5 8.95h4.7q.8.05.85.85-.05.8-.85.9h-4.7v.85h6.05q.7.05.8.85-.1.7-.8.75h-6.05v.9q-.05.8-1 .85-.9-.05-.95-.85v-.9h-6.9q-.8-.05-.85-.75.05-.8.85-.85h6.9v-.85h-4q-1.65-.15-.95-1.5l.15-.15.9-1.25h-2.35q-.7-.05-.7-.85 0-.75.7-.85h3.7l.55-.6-.05-.3H57q-.6-.05-.7-.75.1-.65.7-.7h4.65v-.65h-4.1q-.7-.05-.7-.85 0-.7.7-.75h4.1v-.6H57.1q-.7-.05-.7-.85.05-.75.75-.8h4.5v-.35q.05-.7 1-.8.9.1.95.8V8.9q.6.4-.05 1.15h7.5q.7.1.8.85-.1.8-.8.85H62.2l-.6.85-.1.2.2.1h2v-.25q.05-.6.95-.7.95.1 1 .7v.25M50.4 6.65H39.7q-.9-.1-.95-1.1.05-.95.95-1.05h5.9l-.9-.55q-.55-.55-.2-1.35.55-.75 1.35-.45.6.2 1.55.9.8.7.2 1.45h4.15q2.45.1 1.2 2.7-2.35 5.05-8.75 7.25l-.2.2.2.2q1.05.85 2.75 1.05l6.2.2q1.1 0 1.1.95.1 1.1-1.1 1.05l-7.1-.45q-2.1-.35-3.95-1.65l-.3-.25q-.4-.25-.55-.25-.4-.1-.6.7l-.25.55-.35.9q-.4.8-1.3.5-.85-.15-.6-1.2.45-1.3 1.4-3.1.8-1.2 2.15-.75 6.1-1.4 9.05-5.9l.05-.45-.4-.1m-14.5-3.4q.25 1-.75 1.25l-4.5.6q.5.75.6 1.45.15.5-.1.65h2.8q2.1-.1 1.6 1.3-1.65 4.95-6.3 6.7.6.85 5.7.8 1.3.05 1.45 1.05 0 1.1-1.35 1.2l-4.6-.3q-1.8-.35-3.25-1.7l-.45-.35q-.25 0-.95 1.6l-.3.6q-.5.85-1.4.55-.75-.4-.4-1.35l.55-1.1.7-1.4q1-1.8 2.65-1.15 2.55-.5 5.1-3.85.25-.5-.25-.55h-7.1q-.9-.1-.95-1.1.05-.9 1.05-.95h3.8q-.95-1.85-.35-2.05h-.8L26 5.2q-1.05-.05-1.1-.95Q25 3.2 26 3.1l8.6-.6q1.05-.15 1.3.75M24.6 5.5l-1.35.05L21.1 4q-.7-.55-.25-1.25.5-.6 1.35-.25l2.4 1.65q.55.7 0 1.35m.15 7.15q-.95 3-2.25 4.95-.7.9-1.65.55-.85-.5-.35-1.4l2.2-4.7q.4-1.05 1.4-.85.9.4.65 1.45m-2.1-2.45-1.45-.95-.8-.6q-.65-.6-.25-1.3.6-.65 1.4-.25l2.35 1.7q.55.7.05 1.35l-1.3.05m-10-5.1q.5.75.6 1.45.15.5-.1.65h2.8q2.1-.1 1.6 1.3-1.65 4.95-6.3 6.7.6.85 5.7.8 1.3.05 1.45 1.05 0 1.1-1.35 1.2l-4.6-.3q-1.8-.35-3.25-1.7l-.45-.35q-.25 0-.95 1.6l-.3.6q-.5.85-1.4.55-.75-.4-.4-1.35l.55-1.1.7-1.4q1-1.8 2.65-1.15 2.55-.5 5.1-3.85.25-.5-.25-.55h-7.1q-.9-.1-.95-1.1.05-.9 1.05-.95h3.8q-.95-1.85-.35-2.05h-.8L8 5.2q-1.05-.05-1.1-.95Q7 3.2 8 3.1l8.6-.6q1.05-.15 1.3.75.25 1-.75 1.25l-4.5.6m-7.4.45L3.1 4q-.7-.55-.25-1.25.5-.6 1.35-.25 1.25.6 2.4 1.65.55.7 0 1.35l-1.35.05M3.55 7.1q1.5.8 2.35 1.7.55.7.05 1.35l-1.3.05-1.45-.95-.8-.6q-.65-.6-.25-1.3.6-.65 1.4-.25m3.2 5.55q-.95 3-2.25 4.95-.7.9-1.65.55-.85-.5-.35-1.4 1.05-1.7 2.2-4.7.4-1.05 1.4-.85.9.4.65 1.45z" fill="none" stroke="#7b6e11" stroke-linecap="round" stroke-linejoin="round" stroke-width="4"/><path d="M72.15 3.95q-.1.8-.8.85H66.7v.65h4.25q.75.05.8.75-.05.8-.8.85H66.7v.65h4.7q.75.05.8.7-.05.7-.8.75h-4.7q.1.55-.95.55-1 0-1-.8V2.85q.05-.8 1-.85.9 0 .95.75v.35h4.65q.7.1.8.85m-6.5 8.95h4.7q.8.05.85.85-.05.8-.85.9h-4.7v.85h6.05q.7.05.8.85-.1.7-.8.75h-6.05v.9q-.05.8-1 .85-.9-.05-.95-.85v-.9h-6.9q-.8-.05-.85-.75.05-.8.85-.85h6.9v-.85h-4q-1.65-.15-.95-1.5l.15-.15.9-1.25h-2.35q-.7-.05-.7-.85 0-.75.7-.85h3.7l.55-.6-.05-.3H57q-.6-.05-.7-.75.1-.65.7-.7h4.65v-.65h-4.1q-.7-.05-.7-.85 0-.7.7-.75h4.1v-.6H57.1q-.7-.05-.7-.85.05-.75.75-.8h4.5v-.35q.05-.7 1-.8.9.1.95.8V8.9q.6.4-.05 1.15h7.5q.7.1.8.85-.1.8-.8.85H62.2l-.6.85-.1.2.2.1h2v-.25q.05-.6.95-.7.95.1 1 .7v.25M50.4 6.65H39.7q-.9-.1-.95-1.1.05-.95.95-1.05h5.9l-.9-.55q-.55-.55-.2-1.35.55-.75 1.35-.45.6.2 1.55.9.8.7.2 1.45h4.15q2.45.1 1.2 2.7-2.35 5.05-8.75 7.25l-.2.2.2.2q1.05.85 2.75 1.05l6.2.2q1.1 0 1.1.95.1 1.1-1.1 1.05l-7.1-.45q-2.1-.35-3.95-1.65l-.3-.25q-.4-.25-.55-.25-.4-.1-.6.7l-.25.55-.35.9q-.4.8-1.3.5-.85-.15-.6-1.2.45-1.3 1.4-3.1.8-1.2 2.15-.75 6.1-1.4 9.05-5.9l.05-.45-.4-.1m-14.5-3.4q.25 1-.75 1.25l-4.5.6q.5.75.6 1.45.15.5-.1.65h2.8q2.1-.1 1.6 1.3-1.65 4.95-6.3 6.7.6.85 5.7.8 1.3.05 1.45 1.05 0 1.1-1.35 1.2l-4.6-.3q-1.8-.35-3.25-1.7l-.45-.35q-.25 0-.95 1.6l-.3.6q-.5.85-1.4.55-.75-.4-.4-1.35l.55-1.1.7-1.4q1-1.8 2.65-1.15 2.55-.5 5.1-3.85.25-.5-.25-.55h-7.1q-.9-.1-.95-1.1.05-.9 1.05-.95h3.8q-.95-1.85-.35-2.05h-.8L26 5.2q-1.05-.05-1.1-.95Q25 3.2 26 3.1l8.6-.6q1.05-.15 1.3.75M24.6 5.5l-1.35.05L21.1 4q-.7-.55-.25-1.25.5-.6 1.35-.25l2.4 1.65q.55.7 0 1.35m-1.95 4.7-1.45-.95-.8-.6q-.65-.6-.25-1.3.6-.65 1.4-.25l2.35 1.7q.55.7.05 1.35l-1.3.05m2.1 2.45q-.95 3-2.25 4.95-.7.9-1.65.55-.85-.5-.35-1.4l2.2-4.7q.4-1.05 1.4-.85.9.4.65 1.45M12.65 5.1q.5.75.6 1.45.15.5-.1.65h2.8q2.1-.1 1.6 1.3-1.65 4.95-6.3 6.7.6.85 5.7.8 1.3.05 1.45 1.05 0 1.1-1.35 1.2l-4.6-.3q-1.8-.35-3.25-1.7l-.45-.35q-.25 0-.95 1.6l-.3.6q-.5.85-1.4.55-.75-.4-.4-1.35l.55-1.1.7-1.4q1-1.8 2.65-1.15 2.55-.5 5.1-3.85.25-.5-.25-.55h-7.1q-.9-.1-.95-1.1.05-.9 1.05-.95h3.8q-.95-1.85-.35-2.05h-.8L8 5.2q-1.05-.05-1.1-.95Q7 3.2 8 3.1l8.6-.6q1.05-.15 1.3.75.25 1-.75 1.25l-4.5.6m-9.1 2q1.5.8 2.35 1.7.55.7.05 1.35l-1.3.05-1.45-.95-.8-.6q-.65-.6-.25-1.3.6-.65 1.4-.25m1.7-1.55L3.1 4q-.7-.55-.25-1.25.5-.6 1.35-.25 1.25.6 2.4 1.65.55.7 0 1.35l-1.35.05m1.5 7.1q-.95 3-2.25 4.95-.7.9-1.65.55-.85-.5-.35-1.4 1.05-1.7 2.2-4.7.4-1.05 1.4-.85.9.4.65 1.45" fill="#e8ffaa" fill-rule="evenodd"/></svg>