<svg xmlns:ffdec="https://www.free-decompiler.com/flash" ffdec:objectType="shape" height="20.55" width="74.4" xmlns="http://www.w3.org/2000/svg"><path d="M71.3 11.45H56.9q-.85-.1-.9-1.15.05-1.05.9-1.1h14.4q1 .05 1.1 1.1-.1 1.05-1.1 1.15M54.1 5.8l-1.9 1.85q-.85.75-1.35.2V9.2l1.5 1.1 1.4 1.15q.75.8.2 1.65-.65.6-1.4 0l-.9-.7-.8-.6v3.9q-.15.65.85.6.85.05.8-.6v-.9q.05-.85.95-.9.95.05 1 .85v1.4q.15 2.25-2.8 2.1-3.2.15-2.9-1.85V3.15q.05-.95 1.05-1 1 .05 1.05 1V6.1l1.85-1.75q.6-.75 1.45-.15.65.6-.05 1.6m-9.9-1.55q.9 1.6 1.4 3.1.25.85-.5 1.1-.9.45-1.25-.35l-.7-1.5q-.1.55-.75.55h-.7v2.1l.35-.3.3-.1q.7-.25 1.05.45.55.8-.4 1.5l-1.3.85v5q.15 1.8-1.9 1.55-2.1 0-1.8-1.3 0-.95 1.4-.6.3.05.3-.45v-3.3l-.65.3q-.85.25-1.15-.5-.4-.85.3-1.35l.7-.35.8-.35V7.15h-.85q-.85-.1-.95-1.05.1-1.05.85-1.15h.95V3q.05-.9 1.05-1 .9.1.95 1v1.95h.8l-.1-.2q0-.65.65-.85.7-.35 1.15.35M47 2.2q1 0 1.05.95V8.4q0 3.85-.65 5.65-.6 1.9-2.6 3.7-1.2 1.2-1.9.65-.9-.7-.2-1.65 3.25-2.65 3.15-5.2l-1.9 1.55q-.6.45-1.25-.25-.5-.85.3-1.5l2.95-2.4V3.2q.05-.9 1.05-1m-11.7 2v6.05q.15 1.55-1.3 1.4h-4.7v1.25h5.45q.85.05.9.9-.05.95-.9 1H29.3v1.25h6.35q.75.1.8.85-.05.85-.8.95H20.7q-.8-.1-.85-.95.05-.75.85-.85h6.45V14.8H21.6q-.75-.05-.85-1 .1-.85.85-.9h5.55v-1.25h-4.7q-1.45.05-1.35-1.4V4.2q-.05-1.4 1.2-1.35H34q1.4-.05 1.3 1.35m-2 .9-.3-.3h-3.7v1.5h4V5.1m.05 4.3V8.2H29.3v1.45h3.75l.3-.25M23.1 5.1v1.2h4V4.8h-3.75q-.25 0-.25.3m4 3.1h-4v1.2l.25.25h3.75V8.2m-12.5.5H5.8q-.5 0-.45.25v2.5h9.6V9.1q0-.4-.35-.4m3-3.75h-6.1L11 6.7h4.15q2.15-.1 1.95 1.55v7.9q.35 2.15-1.95 1.8H5.3q-2.45.3-2.1-1.45V8.35Q3 6.6 5.3 6.7h3.3l.5-1.75h-6q-.95-.05-1.1-1Q2.05 3 3.05 2.9H17.6q.9.1 1 1-.1 1-1 1.05M5.35 15.8q0 .35.35.35h8.95l.3-.3V13.4h-9.6v2.4" fill="#79cfff" fill-rule="evenodd"/><path d="M71.3 11.45H56.9q-.85-.1-.9-1.15.05-1.05.9-1.1h14.4q1 .05 1.1 1.1-.1 1.05-1.1 1.15M54.1 5.8l-1.9 1.85q-.85.75-1.35.2V9.2l1.5 1.1 1.4 1.15q.75.8.2 1.65-.65.6-1.4 0l-.9-.7-.8-.6v3.9q-.15.65.85.6.85.05.8-.6v-.9q.05-.85.95-.9.95.05 1 .85v1.4q.15 2.25-2.8 2.1-3.2.15-2.9-1.85V3.15q.05-.95 1.05-1 1 .05 1.05 1V6.1l1.85-1.75q.6-.75 1.45-.15.65.6-.05 1.6m-9.9-1.55q.9 1.6 1.4 3.1.25.85-.5 1.1-.9.45-1.25-.35l-.7-1.5q-.1.55-.75.55h-.7v2.1l.35-.3.3-.1q.7-.25 1.05.45.55.8-.4 1.5l-1.3.85v5q.15 1.8-1.9 1.55-2.1 0-1.8-1.3 0-.95 1.4-.6.3.05.3-.45v-3.3l-.65.3q-.85.25-1.15-.5-.4-.85.3-1.35l.7-.35.8-.35V7.15h-.85q-.85-.1-.95-1.05.1-1.05.85-1.15h.95V3q.05-.9 1.05-1 .9.1.95 1v1.95h.8l-.1-.2q0-.65.65-.85.7-.35 1.15.35M47 2.2q1 0 1.05.95V8.4q0 3.85-.65 5.65-.6 1.9-2.6 3.7-1.2 1.2-1.9.65-.9-.7-.2-1.65 3.25-2.65 3.15-5.2l-1.9 1.55q-.6.45-1.25-.25-.5-.85.3-1.5l2.95-2.4V3.2q.05-.9 1.05-1m-11.7 2v6.05q.15 1.55-1.3 1.4h-4.7v1.25h5.45q.85.05.9.9-.05.95-.9 1H29.3v1.25h6.35q.75.1.8.85-.05.85-.8.95H20.7q-.8-.1-.85-.95.05-.75.85-.85h6.45V14.8H21.6q-.75-.05-.85-1 .1-.85.85-.9h5.55v-1.25h-4.7q-1.45.05-1.35-1.4V4.2q-.05-1.4 1.2-1.35H34q1.4-.05 1.3 1.35m-2 .9-.3-.3h-3.7v1.5h4V5.1m.05 4.3V8.2H29.3v1.45h3.75l.3-.25M23.1 5.1v1.2h4V4.8h-3.75q-.25 0-.25.3m4 3.1h-4v1.2l.25.25h3.75V8.2m-12.5.5H5.8q-.5 0-.45.25v2.5h9.6V9.1q0-.4-.35-.4m3-3.75h-6.1L11 6.7h4.15q2.15-.1 1.95 1.55v7.9q.35 2.15-1.95 1.8H5.3q-2.45.3-2.1-1.45V8.35Q3 6.6 5.3 6.7h3.3l.5-1.75h-6q-.95-.05-1.1-1Q2.05 3 3.05 2.9H17.6q.9.1 1 1-.1 1-1 1.05M5.35 15.8q0 .35.35.35h8.95l.3-.3V13.4h-9.6v2.4z" fill="none" stroke="#395cad" stroke-linecap="round" stroke-linejoin="round" stroke-width="4"/><path d="M72.4 10.3q-.1 1.05-1.1 1.15H56.9q-.85-.1-.9-1.15.05-1.05.9-1.1h14.4q1 .05 1.1 1.1M54.1 5.8l-1.9 1.85q-.85.75-1.35.2V9.2l1.5 1.1 1.4 1.15q.75.8.2 1.65-.65.6-1.4 0l-.9-.7-.8-.6v3.9q-.15.65.85.6.85.05.8-.6v-.9q.05-.85.95-.9.95.05 1 .85v1.4q.15 2.25-2.8 2.1-3.2.15-2.9-1.85V3.15q.05-.95 1.05-1 1 .05 1.05 1V6.1l1.85-1.75q.6-.75 1.45-.15.65.6-.05 1.6M47 2.2q1 0 1.05.95V8.4q0 3.85-.65 5.65-.6 1.9-2.6 3.7-1.2 1.2-1.9.65-.9-.7-.2-1.65 3.25-2.65 3.15-5.2l-1.9 1.55q-.6.45-1.25-.25-.5-.85.3-1.5l2.95-2.4V3.2q.05-.9 1.05-1m-2.8 2.05q.9 1.6 1.4 3.1.25.85-.5 1.1-.9.45-1.25-.35l-.7-1.5q-.1.55-.75.55h-.7v2.1l.35-.3.3-.1q.7-.25 1.05.45.55.8-.4 1.5l-1.3.85v5q.15 1.8-1.9 1.55-2.1 0-1.8-1.3 0-.95 1.4-.6.3.05.3-.45v-3.3l-.65.3q-.85.25-1.15-.5-.4-.85.3-1.35l.7-.35.8-.35V7.15h-.85q-.85-.1-.95-1.05.1-1.05.85-1.15h.95V3q.05-.9 1.05-1 .9.1.95 1v1.95h.8l-.1-.2q0-.65.65-.85.7-.35 1.15.35m-10.9.85-.3-.3h-3.7v1.5h4V5.1m2-.9v6.05q.15 1.55-1.3 1.4h-4.7v1.25h5.45q.85.05.9.9-.05.95-.9 1H29.3v1.25h6.35q.75.1.8.85-.05.85-.8.95H20.7q-.8-.1-.85-.95.05-.75.85-.85h6.45V14.8H21.6q-.75-.05-.85-1 .1-.85.85-.9h5.55v-1.25h-4.7q-1.45.05-1.35-1.4V4.2q-.05-1.4 1.2-1.35H34q1.4-.05 1.3 1.35m-1.95 5.2V8.2H29.3v1.45h3.75l.3-.25M23.1 5.1v1.2h4V4.8h-3.75q-.25 0-.25.3m4 3.1h-4v1.2l.25.25h3.75V8.2m-12.15.9q0-.4-.35-.4H5.8q-.5 0-.45.25v2.5h9.6V9.1m3.65-5.2q-.1 1-1 1.05h-6.1L11 6.7h4.15q2.15-.1 1.95 1.55v7.9q.35 2.15-1.95 1.8H5.3q-2.45.3-2.1-1.45V8.35Q3 6.6 5.3 6.7h3.3l.5-1.75h-6q-.95-.05-1.1-1Q2.05 3 3.05 2.9H17.6q.9.1 1 1M5.35 15.8q0 .35.35.35h8.95l.3-.3V13.4h-9.6v2.4" fill="#79cfff" fill-rule="evenodd"/></svg>