<svg xmlns:ffdec="https://www.free-decompiler.com/flash" ffdec:objectType="shape" height="19.65" width="69.8" xmlns="http://www.w3.org/2000/svg"><path d="M40.05 6.25H39l-1.15 4.55q-.15.3.05.45l1.15 1.05q1.05-2.05 1.35-5.7l-.35-.35m-3.85 0q-.6-.05-.7-.85.05-.9.65-.95h1.3l.2-1.65q.05-.75.9-.8 1 .1.95.85l-.2 1.6h1.8q1.1-.05 1.1 1.1-.1 4.9-1.65 8l.9.9q.6.75.1 1.3l-1.35.05-.85-.7q-1.1 1.4-2.5 2.2-.7.35-1.2-.3-.4-.75.15-1.25l2.1-1.85-1.85-1.75q-.45-.45-.15-1.5l1.2-4.4h-.9M31.1 2.8l2.1 1.9q.6.6.05 1.35-.65.55-1.4 0l-2-1.85q-.65-.65-.15-1.3l1.4-.1m19.15.55q.2.9-.55 1.15-.7.4-2.5.65v3.4h3.1q.7.05.75.85-.05.85-.75.9h-2.9q.95 3 3.45 5.6.4.6 0 1.3-.6.65-1.3.15-1.65-1.8-3.15-4.95-1.35 3.35-3.45 5.1-.8.35-1.3-.3-.4-.65.25-1.25 2.95-2.6 3.2-5.65h-2.4q-.65-.05-.65-.9 0-.8.65-.85h2.6V5.4l-2.05.15q-.6 0-.75-.8 0-.85.65-.9 3.2-.4 6-1.15.8-.2 1.1.65m9 1.45h-5.5q-.75-.05-.8-.9.05-.85.8-.95h12.6q.9.1.95.95-.05.85-.95.9H61.2v3.8h4.6q.8.05.85.9-.05.9-.85.95h-4.6v4.25h5.65q.85.05.95.95-.1.8-.95.85H53.2q-.8-.05-.85-.85.05-.9.8-.95h6.1v-4.25h-4.6q-.9-.05-.95-.95 0-.85.85-.9h4.7V4.8m-49.7 6h1.8V8.35H9.9l-.35.3v2.15m3.55 0h1.5l.25-.3V8.65q0-.35-.25-.3h-1.5v2.45m11-3.5 1.4-.05 1.35-.1-.1-.8-.15-3.2q.1-.8 1-.8.8.05.85.95l.1 1.9.15 1.9 2.1-.05L33.2 7q.9.05 1.05.9 0 1-.85 1.05L31.2 9l-2.2.1q.55 3.75 2.05 5.75l.6.65q.3 0 .45-.65l.25-2.1q.1-.65.95-.65.8.15.8.8-.05 2.55-.55 3.7-1.1 1.95-3.45 0-2.2-1.9-3.1-7.45h-1.15l-1.65.05q-.95-.05-1.05-.9.05-.95.95-1M22 2.95q.25-.85 1.3-.65.9.35.65 1.25l-1.2 3.05v10.15q-.05.85-1 .9-.95-.05-1.05-.9v-7l-.45.7q-.5.6-1.25 0-.55-.5-.15-1.25Q20.7 6.45 22 2.95M6.95 5.55l.55.65q.95-1.05 2.4-3.4.4-.7 1.2-.5l.6.65h3.2q1.5.1 1 1.4l-1 1.95-.1.2h.8q1.15-.05 1.15 1.25v3.3q.1 1.7-1.4 1.6h-5.8v1.95q-.05 1.2 1.15 1.15h3.4q1.5 0 1.45-1.6-.1-1.35.85-1.25 1.05-.05.9 1.25-.05 1.85-.7 2.6-.65.75-2.1.75h-4.05q-2.9.05-2.75-1.75v-.25l-.3.25h-.1l-4.05 1.3q-1 .25-1.2-.5-.25-1 .5-1.1l.3-.05 3.8-1.25q.8-.25 1.05.35V8.55Q7 9.1 6.5 8.2l-1.65 2.55-.05.3.25.05.3-.05 1-.15q1.05-.15 1.1.8.1.95-.95 1.05L3.9 13h-.3q-.9.1-1.3-.4-.3-.5.15-1.3l.3-.4 1.4-2.35H3.2Q1.5 8.4 2.25 6.5l.5-.85L4.3 2.8q.6-.9 1.4-.55.8.4.45 1.1l-.85 1.4-.95 1.6Q4.1 7 4.5 7h.6l.3-.55.55-.65q.4-.55 1-.25m3.45 0-.65.95h2.95l.8-1.5.05-.25-.3-.05H11l-.6.85" fill="#ff0" fill-rule="evenodd"/><path d="m10.4 5.55.6-.85h2.25l.3.05-.05.25-.8 1.5H9.75l.65-.95m-3.45 0q-.6-.3-1 .25l-.55.65-.3.55h-.6q-.4 0-.15-.65l.95-1.6.85-1.4q.35-.7-.45-1.1-.8-.35-1.4.55L2.75 5.65l-.5.85q-.75 1.9.95 2.05h.95l-1.4 2.35-.3.4q-.45.8-.15 1.3.4.5 1.3.4h.3l2.6-.25q1.05-.1.95-1.05-.05-.95-1.1-.8l-1 .15-.3.05-.25-.05.05-.3L6.5 8.2q.5.9 1.2.35v5.95q-.25-.6-1.05-.35l-3.8 1.25-.3.05q-.75.1-.5 1.1.2.75 1.2.5l4.05-1.3h.1l.3-.25v.25q-.15 1.8 2.75 1.75h4.05q1.45 0 2.1-.75.65-.75.7-2.6.15-1.3-.9-1.25-.95-.1-.85 1.25.05 1.6-1.45 1.6h-3.4q-1.2.05-1.15-1.15v-1.95h5.8q1.5.1 1.4-1.6v-3.3q0-1.3-1.15-1.25h-.8l.1-.2 1-1.95q.5-1.3-1-1.4h-3.2l-.6-.65q-.8-.2-1.2.5-1.45 2.35-2.4 3.4l-.55-.65M22 2.95q-1.3 3.5-3.15 6.25-.4.75.15 1.25.75.6 1.25 0l.45-.7v7q.1.85 1.05.9.95-.05 1-.9V6.6l1.2-3.05q.25-.9-.65-1.25-1.05-.2-1.3.65m2.1 4.35q-.9.05-.95 1 .1.85 1.05.9l1.65-.05H27q.9 5.55 3.1 7.45 2.35 1.95 3.45 0 .5-1.15.55-3.7 0-.65-.8-.8-.85 0-.95.65l-.25 2.1q-.15.65-.45.65l-.6-.65q-1.5-2-2.05-5.75l2.2-.1 2.2-.05q.85-.05.85-1.05-.15-.85-1.05-.9l-2.4.05-2.1.05-.15-1.9-.1-1.9q-.05-.9-.85-.95-.9 0-1 .8l.15 3.2.1.8-1.35.1-1.4.05m-11 3.5V8.35h1.5q.25-.05.25.3v1.85l-.25.3h-1.5m-3.55 0V8.65l.35-.3h1.45v2.45h-1.8m49.7-6v3.8h-4.7q-.85.05-.85.9.05.9.95.95h4.6v4.25h-6.1q-.75.05-.8.95.05.8.85.85h13.65q.85-.05.95-.85-.1-.9-.95-.95H61.2v-4.25h4.6q.8-.05.85-.95-.05-.85-.85-.9h-4.6V4.8h5.15q.9-.05.95-.9-.05-.85-.95-.95h-12.6q-.75.1-.8.95.05.85.8.9h5.5m-9-1.45q-.3-.85-1.1-.65-2.8.75-6 1.15-.65.05-.65.9.15.8.75.8l2.05-.15v3.15h-2.6q-.65.05-.65.85 0 .85.65.9h2.4q-.25 3.05-3.2 5.65-.65.6-.25 1.25.5.65 1.3.3 2.1-1.75 3.45-5.1 1.5 3.15 3.15 4.95.7.5 1.3-.15.4-.7 0-1.3-2.5-2.6-3.45-5.6h2.9q.7-.05.75-.9-.05-.8-.75-.85h-3.1v-3.4q1.8-.25 2.5-.65.75-.25.55-1.15M31.1 2.8l-1.4.1q-.5.65.15 1.3l2 1.85q.75.55 1.4 0 .55-.75-.05-1.35l-2.1-1.9m5.1 3.45h.9l-1.2 4.4q-.3 1.05.15 1.5l1.85 1.75-2.1 1.85q-.55.5-.15 1.25.5.65 1.2.3 1.4-.8 2.5-2.2l.85.7 1.35-.05q.5-.55-.1-1.3l-.9-.9q1.55-3.1 1.65-8 0-1.15-1.1-1.1h-1.8l.2-1.6q.05-.75-.95-.85-.85.05-.9.8l-.2 1.65h-1.3q-.6.05-.65.95.1.8.7.85m3.85 0 .35.35q-.3 3.65-1.35 5.7l-1.15-1.05q-.2-.15-.05-.45L39 6.25h1.05z" fill="none" stroke="#ff5300" stroke-linecap="round" stroke-linejoin="round" stroke-width="4"/><path d="M33.2 4.3q.6.65.05 1.35-.65.6-1.4 0l-2-1.85q-.65-.6-.15-1.3l1.4-.1 2.1 1.9M23.15 7.9q.05-.95.95-1l1.4-.05 1.35-.1-.1-.75-.15-3.25q.1-.75 1-.75.8.05.85.95l.1 1.85.15 1.9 2.1-.05 2.4-.05q.9.05 1.05.9 0 1-.85 1.05l-2.2.05-2.2.1q.55 3.8 2.05 5.8l.6.6q.3 0 .45-.6l.25-2.1q.1-.7.95-.7.8.15.8.85-.05 2.5-.55 3.65-1.1 1.95-3.45 0-2.2-1.9-3.1-7.45h-1.15l-1.65.05q-.95-.05-1.05-.9m.15-5.95q.9.3.65 1.25l-1.2 3.05v10.1q-.05.85-1 .9-.95-.05-1.05-.9V9.4l-.45.65q-.5.6-1.25 0-.55-.5-.15-1.25Q20.7 6.1 22 2.55q.25-.85 1.3-.6m-8.7 6h-1.5v2.5h1.5l.25-.35V8.3l-.25-.35m-3.25 0H9.9l-.35.35v2.15h1.8v-2.5M13.5 4.6l.05-.25-.3-.05H11l-.6.9-.65.95h2.95l.8-1.55M2.25 6.15l.5-.85L4.3 2.4q.6-.9 1.4-.5.8.35.45 1.1L5.3 4.35 4.35 6q-.25.6.15.6h.6l.3-.5.55-.7q.4-.55 1-.2l.55.6q.95-1.05 2.4-3.4.4-.7 1.2-.45.5.2.6.6h3.2q1.5.1 1 1.45l-1 1.9-.1.25h.8q1.15-.05 1.15 1.25v3.25q.1 1.75-1.4 1.65h-5.8v1.9q-.05 1.25 1.15 1.15h3.4q1.5 0 1.45-1.6-.1-1.3.85-1.2 1.05-.05.9 1.2-.05 1.9-.7 2.6-.65.75-2.1.75h-4.05q-2.9.05-2.75-1.75v-.25l-.3.25h-.1L3.25 16.7q-1 .2-1.2-.55-.25-1 .5-1.1l.3-.05 3.8-1.25q.8-.2 1.05.35V8.2q-.7.5-1.2-.4l-1.65 2.6-.05.25.25.05.3-.05 1-.1q1.05-.15 1.1.8.1.95-.95 1.05l-2.6.25h-.3q-.9.05-1.3-.45-.3-.5.15-1.3l.3-.35 1.4-2.35H3.2Q1.5 8 2.25 6.15m50.7-2.65q.05-.85.8-.95h12.6q.9.1.95.95-.05.85-.95.9H61.2v3.85h4.6q.8.05.85.9-.05.85-.85.9h-4.6v4.25h5.65q.85.1.95.95-.1.8-.95.85H53.2q-.8-.05-.85-.85.05-.85.8-.95h6.1v-4.25h-4.6q-.9-.05-.95-.9 0-.85.85-.9h4.7V4.4h-5.5q-.75-.05-.8-.9M40.4 6.25l-.35-.4H39l-1.15 4.6q-.15.25.05.4l1.15 1.05q1.05-2.05 1.35-5.65M42.05 9q0-.75.65-.8h2.6V5.05l-2.05.15q-.6 0-.75-.85 0-.85.65-.9 3.2-.35 6-1.15.8-.15 1.1.7.2.9-.55 1.15-.7.35-2.5.6V8.2h3.1q.7.05.75.8-.05.85-.75.9h-2.9q.95 3 3.45 5.65.4.55 0 1.3l-1.3.1Q47.9 15.15 46.4 12q-1.35 3.35-3.45 5.1-.8.35-1.3-.25-.4-.7.25-1.25 2.95-2.65 3.2-5.7h-2.4q-.65-.05-.65-.9m-3.5-7.4q1 .1.95.85l-.2 1.65h1.8q1.1-.05 1.1 1.1-.1 4.85-1.65 7.95l.9.9q.6.75.1 1.3l-1.35.1-.85-.7q-1.1 1.35-2.5 2.15-.7.35-1.2-.25-.4-.8.15-1.3l2.1-1.8-1.85-1.8q-.45-.4-.15-1.45 1-3.15 1.2-4.45h-.9q-.6-.05-.7-.8.05-.9.65-.95h1.3l.2-1.7q.05-.75.9-.8" fill="#ff0" fill-rule="evenodd"/><path d="m33.45 5.15-.2.35q-.65.55-1.35 0l-.35-.35h1.9m-12.6 0h2.25l-.35.9v4.15H20.7v-1l-.4.7q-.55.6-1.3 0-.55-.55-.15-1.25 1.05-1.6 2-3.5m3.35 3.5q-.95-.05-1.05-.9.05-.95.95-1l1.45-.05 1.3-.1-.1-.8v-.65h1.9l.1 1.4 2.1-.05 2.35-.05q.9.05 1.05.9 0 .95-.85 1.05l-2.2.05-2.2.1.3 1.65h-2L27 8.6h-1.15l-1.65.05M4.15 8H3.2q-1.7-.15-.95-2.05l.5-.8h2l-.4.65q-.25.65.2.65h.55l.3-.55.55-.65.05-.1h1.2l.3.5.45-.5h2.35l-.5.8h2.9l.45-.8h2.15l-.4.6-.1.2h.8q1.15-.05 1.15 1.25v3h-2l.1-.25V8.1q0-.35-.25-.3h-1.5v2.4h-1.75V7.8H9.9l-.35.3v2.1h-1.8V8Q7 8.55 6.5 7.65L4.85 10.2h-2L4.15 8m49.55.95q0-.85.85-.9h4.7v-2.9h2v2.9h4.55q.8.05.85.9-.05.9-.85.95h-4.55v.3h-2v-.3h-4.6q-.9-.05-.95-.95m-11.65-.1q0-.8.65-.85h2.6V5.15h1.9V8h3.1q.7.05.75.85-.05.85-.75.9h-2.9l.2.45h-2.55l.05-.45h-2.4q-.65-.05-.65-.9m-2-3.15H39l-1.1 4.5h-2v-.1l1.25-4.4h-.95q-.5-.05-.6-.55h6.6q-.05 2.85-.6 5.05h-1.9q.55-1.7.7-4.15l-.35-.35" fill="#fff" fill-rule="evenodd"/></svg>