<svg xmlns:ffdec="https://www.free-decompiler.com/flash" ffdec:objectType="shape" height="20.9" width="74.9" xmlns="http://www.w3.org/2000/svg"><path d="M71.75 7.25h.2q1.45.4.6 1.55l-.8.2q-1.9 0-5.1-1.2Q64.25 9 61.3 9q-.95 0-1.05-.8.05-.8.95-.9 1.9 0 3.55-.6l-1.05-.75-.45-.25-.3.2q-1.05.7-1.65.85-1.05.05-1.15-.85l-1.1-.15-1.9-1.3q-.8-.6-.35-1.35.55-.7 1.45-.3 2.7 1.55 2.35 2.35l.6-.45 1.85-1.4.55-.5.65-.5q1.45-.4 1.45.65h4.6q1.6.05 1.05 1.25-.7 1.3-2.55 2.4l2.95.65m-5-1.55 1.5-1H65.1q.7.55 1.65 1m-1.15 5.05h-3.75q-.7-.05-.7-.75t.7-.8h3.75v-.25q.05-.75 1.05-.8.95.05 1.05.8v.25h3.55q.85.1.95.8-.15.75-1 .75h-3.5v.8H71q.7.05.75.75-.05.7-.75.75h-3.3v.85h4.2q.8.1.85.8-.05.75-.9.75H67.7v.45q0 .7-.75.7h4.9q.95.05 1.05.9-.1.9-1.05 1h-8.4q-2.5 0-4.2-1.85l-.5.45-.9 1.05q-.7.75-1.5.2-.6-.65 0-1.55l.65-.7 1.2-1.35v-4.3q0-.4-.3-.35h-.55Q56.3 10.05 56.2 9q.1-1 1.15-1.05h1.4q1.6-.1 1.55 1.35v5.55q.35 1.55 4 1.75h2.15q-.95-.05-.85-.8v-.35h-3.8q-.8-.05-.85-.75.05-.7.85-.8h3.8v-.85h-3.4q-.75-.05-.85-.75.1-.75.9-.75h3.35v-.8M54.75 5.6q-.05.85-.85.95h-2.65v2h2.5q.8.1.85.95-.05.75-.9.85h-2.45v2h2.35q.85.1.95.85-.1.85-.95.95h-2.35v2h2.5q.95.1.95.85-.1.85-1 .95H47v.2q-.05.75-.95.75-.85-.05-.95-.85V9q-.6 1.25-1.3.85l-.5 2.3q1.45 3.75 1.4 4.45-.1.7-1 .85-.7-.1-1-.95l-.25-.9-.3-.75q-1.1 2.25-2.25 3.3-.75.75-1.45.2-.6-.65.05-1.55 1.35-1.6 2.6-4.35l-2.1-4-.35-.65q-.5-.9.15-1.5.75-.4 1.4.4l1.7 2.8.05.15q.55-2.25.55-4.6l-.2-.2h-3.15q-.7-.05-.7-.9.05-.8.75-.85h4.15q1.15.05 1.05 1.45l-.15 2.25 1.5-2.85.15-.35.55-1.2 1.4-.1q.45.6-.15 1.75l-.25.65h2.65l-.5-.55-.6-.85q-.3-1 .75-1.25.65 0 1 .5 1.6 1.65.7 2.15h2.4q.85.1.9.9M47 12.35h2.4v-2H47v2m0 1.8v2h2.4v-2H47m0-5.6h2.4v-2H47v2M33.15 4q-.6-.65-.15-1.25l1.35-.1 1.55 1.5q.5 1.25-.7 1.55-.5 0-1.25-.85l-.8-.85m3.4 3.15q-.1.85-.8.95H32.3l.35 3.15.85-2.05q.35-.85 1.2-.55.85.4.55 1.35-.45 1.75-1.8 4 .9 2.45 1.4 2.15.3-.05.3-2.1.05-.75.9-.85.75.1.75.95 0 4.5-1.55 4.6-1.9.1-3.3-2.95l-2.65 2.4-1.5-.05q-.6-.8 0-1.35h-1.25V18q-.05.7-1 .75-.9-.05-.95-.75v-1.05l-3.2.25q-.8 0-.95-.8 0-.85.85-.95l3.3-.2v-1h-2.5q-1.4 0-1.1-1.4l.7-1.8.05-.15h-.7q-.75-.1-.75-.9.05-.85.85-.95h1.3q.3-.95.8-.95h-2.2q-.75-.1-.85-.95 0-.85.8-.9h3.6v-.9h-2.85q-.75-.1-.75-1 .05-.85.85-.9h2.75V2.9q.05-.7.95-.8 1 0 1.05.7v.65h2.35q.75.05.85.9-.1.9-.85 1H26.6v.9h3.7v-3.3q.05-.85.95-.9.95.15 1 .95v3.25h3.6q.7.05.7.9M24.6 12.5V12q.05-.7.95-.75.95.05 1 .75v.5h2.2q.85.1.85.95-.15.8-1 .8h-2.05v.85l2.25-.15q.55-.05.85.35l1.4-1.65q-.5-1.75-.7-5l-.05-.55h-5.95q.6.1.25.95H29q.8.1.8 1-.15.85-.95.85h-4.9l-.4 1-.1.2q-.15.4.2.4h.95m-7.55-8L11.7 5.55v3.5h6.55q.8.1.85 1.15-.05 1.05-.85 1.1H11.7v6.5q-.05.85-1.2.9-1.1-.05-1.15-.9v-6.5H3.2q-1.1-.05-1.2-1.1 0-1.05 1.15-1.15h6.2v-3.3L4.6 5.9q-1.2-.05-1.25-1.1.05-1.15 1.2-1.2l5.75-.25 5.8-.95.25-.1q1-.2 1.35.7.25 1.05-.65 1.5" fill="#cf80ff" fill-rule="evenodd"/><path d="M71.75 7.25h.2q1.45.4.6 1.55l-.8.2q-1.9 0-5.1-1.2Q64.25 9 61.3 9q-.95 0-1.05-.8.05-.8.95-.9 1.9 0 3.55-.6l-1.05-.75-.45-.25-.3.2q-1.05.7-1.65.85-1.05.05-1.15-.85l-1.1-.15-1.9-1.3q-.8-.6-.35-1.35.55-.7 1.45-.3 2.7 1.55 2.35 2.35l.6-.45 1.85-1.4.55-.5.65-.5q1.45-.4 1.45.65h4.6q1.6.05 1.05 1.25-.7 1.3-2.55 2.4l2.95.65m-5-1.55 1.5-1H65.1q.7.55 1.65 1m-1.15 5.05h-3.75q-.7-.05-.7-.75t.7-.8h3.75v-.25q.05-.75 1.05-.8.95.05 1.05.8v.25h3.55q.85.1.95.8-.15.75-1 .75h-3.5v.8H71q.7.05.75.75-.05.7-.75.75h-3.3v.85h4.2q.8.1.85.8-.05.75-.9.75H67.7v.45q0 .7-.75.7h4.9q.95.05 1.05.9-.1.9-1.05 1h-8.4q-2.5 0-4.2-1.85l-.5.45-.9 1.05q-.7.75-1.5.2-.6-.65 0-1.55l.65-.7 1.2-1.35v-4.3q0-.4-.3-.35h-.55Q56.3 10.05 56.2 9q.1-1 1.15-1.05h1.4q1.6-.1 1.55 1.35v5.55q.35 1.55 4 1.75h2.15q-.95-.05-.85-.8v-.35h-3.8q-.8-.05-.85-.75.05-.7.85-.8h3.8v-.85h-3.4q-.75-.05-.85-.75.1-.75.9-.75h3.35v-.8M54.75 5.6q-.05.85-.85.95h-2.65v2h2.5q.8.1.85.95-.05.75-.9.85h-2.45v2h2.35q.85.1.95.85-.1.85-.95.95h-2.35v2h2.5q.95.1.95.85-.1.85-1 .95H47v.2q-.05.75-.95.75-.85-.05-.95-.85V9q-.6 1.25-1.3.85l-.5 2.3q1.45 3.75 1.4 4.45-.1.7-1 .85-.7-.1-1-.95l-.25-.9-.3-.75q-1.1 2.25-2.25 3.3-.75.75-1.45.2-.6-.65.05-1.55 1.35-1.6 2.6-4.35l-2.1-4-.35-.65q-.5-.9.15-1.5.75-.4 1.4.4l1.7 2.8.05.15q.55-2.25.55-4.6l-.2-.2h-3.15q-.7-.05-.7-.9.05-.8.75-.85h4.15q1.15.05 1.05 1.45l-.15 2.25 1.5-2.85.15-.35.55-1.2 1.4-.1q.45.6-.15 1.75l-.25.65h2.65l-.5-.55-.6-.85q-.3-1 .75-1.25.65 0 1 .5 1.6 1.65.7 2.15h2.4q.85.1.9.9M47 12.35h2.4v-2H47v2m0 1.8v2h2.4v-2H47m0-5.6h2.4v-2H47v2M33.15 4q-.6-.65-.15-1.25l1.35-.1 1.55 1.5q.5 1.25-.7 1.55-.5 0-1.25-.85l-.8-.85m3.4 3.15q-.1.85-.8.95H32.3l.35 3.15.85-2.05q.35-.85 1.2-.55.85.4.55 1.35-.45 1.75-1.8 4 .9 2.45 1.4 2.15.3-.05.3-2.1.05-.75.9-.85.75.1.75.95 0 4.5-1.55 4.6-1.9.1-3.3-2.95l-2.65 2.4-1.5-.05q-.6-.8 0-1.35h-1.25V18q-.05.7-1 .75-.9-.05-.95-.75v-1.05l-3.2.25q-.8 0-.95-.8 0-.85.85-.95l3.3-.2v-1h-2.5q-1.4 0-1.1-1.4l.7-1.8.05-.15h-.7q-.75-.1-.75-.9.05-.85.85-.95h1.3q.3-.95.8-.95h-2.2q-.75-.1-.85-.95 0-.85.8-.9h3.6v-.9h-2.85q-.75-.1-.75-1 .05-.85.85-.9h2.75V2.9q.05-.7.95-.8 1 0 1.05.7v.65h2.35q.75.05.85.9-.1.9-.85 1H26.6v.9h3.7v-3.3q.05-.85.95-.9.95.15 1 .95v3.25h3.6q.7.05.7.9M24.6 12.5V12q.05-.7.95-.75.95.05 1 .75v.5h2.2q.85.1.85.95-.15.8-1 .8h-2.05v.85l2.25-.15q.55-.05.85.35l1.4-1.65q-.5-1.75-.7-5l-.05-.55h-5.95q.6.1.25.95H29q.8.1.8 1-.15.85-.95.85h-4.9l-.4 1-.1.2q-.15.4.2.4h.95m-7.55-8L11.7 5.55v3.5h6.55q.8.1.85 1.15-.05 1.05-.85 1.1H11.7v6.5q-.05.85-1.2.9-1.1-.05-1.15-.9v-6.5H3.2q-1.1-.05-1.2-1.1 0-1.05 1.15-1.15h6.2v-3.3L4.6 5.9q-1.2-.05-1.25-1.1.05-1.15 1.2-1.2l5.75-.25 5.8-.95.25-.1q1-.2 1.35.7.25 1.05-.65 1.5z" fill="none" stroke="#8132b1" stroke-linecap="round" stroke-linejoin="round" stroke-width="4"/><path d="M71.75 7.25h.2q1.45.4.6 1.55l-.8.2q-1.9 0-5.1-1.2Q64.25 9 61.3 9q-.95 0-1.05-.8.05-.8.95-.9 1.9 0 3.55-.6l-1.05-.75-.45-.25-.3.2q-1.05.7-1.65.85-1.05.05-1.15-.85l-1.1-.15-1.9-1.3q-.8-.6-.35-1.35.55-.7 1.45-.3 2.7 1.55 2.35 2.35l.6-.45 1.85-1.4.55-.5.65-.5q1.45-.4 1.45.65h4.6q1.6.05 1.05 1.25-.7 1.3-2.55 2.4l2.95.65m-5-1.55 1.5-1H65.1q.7.55 1.65 1m-1.15 5.05h-3.75q-.7-.05-.7-.75t.7-.8h3.75v-.25q.05-.75 1.05-.8.95.05 1.05.8v.25h3.55q.85.1.95.8-.15.75-1 .75h-3.5v.8H71q.7.05.75.75-.05.7-.75.75h-3.3v.85h4.2q.8.1.85.8-.05.75-.9.75H67.7v.45q0 .7-.75.7h4.9q.95.05 1.05.9-.1.9-1.05 1h-8.4q-2.5 0-4.2-1.85l-.5.45-.9 1.05q-.7.75-1.5.2-.6-.65 0-1.55l.65-.7 1.2-1.35v-4.3q0-.4-.3-.35h-.55Q56.3 10.05 56.2 9q.1-1 1.15-1.05h1.4q1.6-.1 1.55 1.35v5.55q.35 1.55 4 1.75h2.15q-.95-.05-.85-.8v-.35h-3.8q-.8-.05-.85-.75.05-.7.85-.8h3.8v-.85h-3.4q-.75-.05-.85-.75.1-.75.9-.75h3.35v-.8M54.75 5.6q-.05.85-.85.95h-2.65v2h2.5q.8.1.85.95-.05.75-.9.85h-2.45v2h2.35q.85.1.95.85-.1.85-.95.95h-2.35v2h2.5q.95.1.95.85-.1.85-1 .95H47v.2q-.05.75-.95.75-.85-.05-.95-.85V9q-.6 1.25-1.3.85l-.5 2.3q1.45 3.75 1.4 4.45-.1.7-1 .85-.7-.1-1-.95l-.25-.9-.3-.75q-1.1 2.25-2.25 3.3-.75.75-1.45.2-.6-.65.05-1.55 1.35-1.6 2.6-4.35l-2.1-4-.35-.65q-.5-.9.15-1.5.75-.4 1.4.4l1.7 2.8.05.15q.55-2.25.55-4.6l-.2-.2h-3.15q-.7-.05-.7-.9.05-.8.75-.85h4.15q1.15.05 1.05 1.45l-.15 2.25 1.5-2.85.15-.35.55-1.2 1.4-.1q.45.6-.15 1.75l-.25.65h2.65l-.5-.55-.6-.85q-.3-1 .75-1.25.65 0 1 .5 1.6 1.65.7 2.15h2.4q.85.1.9.9M47 12.35h2.4v-2H47v2m0-3.8h2.4v-2H47v2m0 5.6v2h2.4v-2H47M34.35 2.65l1.55 1.5q.5 1.25-.7 1.55-.5 0-1.25-.85l-.8-.85q-.6-.65-.15-1.25l1.35-.1m2.2 4.5q-.1.85-.8.95H32.3l.35 3.15.85-2.05q.35-.85 1.2-.55.85.4.55 1.35-.45 1.75-1.8 4 .9 2.45 1.4 2.15.3-.05.3-2.1.05-.75.9-.85.75.1.75.95 0 4.5-1.55 4.6-1.9.1-3.3-2.95l-2.65 2.4-1.5-.05q-.6-.8 0-1.35h-1.25V18q-.05.7-1 .75-.9-.05-.95-.75v-1.05l-3.2.25q-.8 0-.95-.8 0-.85.85-.95l3.3-.2v-1h-2.5q-1.4 0-1.1-1.4l.7-1.8.05-.15h-.7q-.75-.1-.75-.9.05-.85.85-.95h1.3q.3-.95.8-.95h-2.2q-.75-.1-.85-.95 0-.85.8-.9h3.6v-.9h-2.85q-.75-.1-.75-1 .05-.85.85-.9h2.75V2.9q.05-.7.95-.8 1 0 1.05.7v.65h2.35q.75.05.85.9-.1.9-.85 1H26.6v.9h3.7v-3.3q.05-.85.95-.9.95.15 1 .95v3.25h3.6q.7.05.7.9m-12.9 5.35h.95V12q.05-.7.95-.75.95.05 1 .75v.5h2.2q.85.1.85.95-.15.8-1 .8h-2.05v.85l2.25-.15q.55-.05.85.35l1.4-1.65q-.5-1.75-.7-5l-.05-.55h-5.95q.6.1.25.95H29q.8.1.8 1-.15.85-.95.85h-4.9l-.4 1-.1.2q-.15.4.2.4m-6.6-8L11.7 5.55v3.5h6.55q.8.1.85 1.15-.05 1.05-.85 1.1H11.7v6.5q-.05.85-1.2.9-1.1-.05-1.15-.9v-6.5H3.2q-1.1-.05-1.2-1.1 0-1.05 1.15-1.15h6.2v-3.3L4.6 5.9q-1.2-.05-1.25-1.1.05-1.15 1.2-1.2l5.75-.25 5.8-.95.25-.1q1-.2 1.35.7.25 1.05-.65 1.5" fill="#daaaff" fill-rule="evenodd"/></svg>