<svg xmlns:ffdec="https://www.free-decompiler.com/flash" xmlns:xlink="http://www.w3.org/1999/xlink" ffdec:objectType="frame" height="200" width="200" xmlns="http://www.w3.org/2000/svg"><use ffdec:characterId="542" height="200" width="200" xlink:href="#a"/><defs><linearGradient gradientTransform="matrix(0 .0749 -.0512 0 88.7 100.05)" gradientUnits="userSpaceOnUse" id="b" spreadMethod="pad" x1="-819.2" x2="819.2"><stop offset="0" stop-color="#cbb88e"/><stop offset="1" stop-color="#b79562"/></linearGradient><linearGradient gradientTransform="matrix(0 .0704 -.0481 0 88.75 100.15)" gradientUnits="userSpaceOnUse" id="c" spreadMethod="pad" x1="-819.2" x2="819.2"><stop offset="0" stop-color="#cbb88e"/><stop offset="1" stop-color="#b79562"/></linearGradient><g id="a" fill-rule="evenodd"><path d="M97.3 60.85h2.2q16.4 0 27.9 11.75Q139 84.25 139 100.7q0 16.65-11.6 28.3-10.9 11.25-26.25 11.75l-.1-.1q6.3-.65 11.05-4.9l1.05-.85 1.85-2.3q3.9-5.2 3.9-11.85 0-6.85-3.9-12l-1.85-2.15q-4.05-4.25-9.15-5.45l-2.7-.45-2.1-.1-2.3.1-2.65-.3q-5.1-1.3-9.05-5.35-5.8-6-5.8-14.15 0-4.25 1.45-7.85 1.5-3.5 4.35-6.3 5-5.25 12.1-5.9M94.7 75.1q-1.95 2.1-1.95 4.9 0 3.2 1.95 5.25 2.1 2.05 4.95 2.05 2.9 0 5.1-2.05 2.05-2.05 2.05-5.25 0-2.8-2.05-4.9-2.15-1.95-4.9-2.05h-.4q-2.8.1-4.75 2.05m10.05 40.85q2.05 2.05 2.05 5.1 0 2.85-2.05 5.05-2.2 2.15-5.1 2.15-2.85 0-4.95-2.15-1.95-2.2-1.95-5.05 0-3.05 1.95-5.1 2.1-2.05 4.95-2.05 2.9 0 5.1 2.05" fill="#fff"/><path d="M94.7 75.1q1.95-1.95 4.75-2.05h.4q2.75.1 4.9 2.05 2.05 2.1 2.05 4.9 0 3.2-2.05 5.25-2.2 2.05-5.1 2.05-2.85 0-4.95-2.05-1.95-2.05-1.95-5.25 0-2.8 1.95-4.9" fill="#cbb88e"/><path d="M155.15 96.8h-5.6V85.25h5.6V96.8m16.95 6.85v10.55h-5.55v-10.55h5.55M157.35 62.7l-20.1-20.55 3.9-3.95 20.25 20.5-4.05 4m14.75 22.55V96.8h-5.55V85.25h5.55m-8.55 0v28.95h-5.65V85.25h5.65m-2.15 56.6-20.25 20.5-3.9-4.15 20.1-20.35 4.05 4m-6.25-27.65h-5.6v-10.55h5.6v10.55M135 44.3l20.25 20.5-3.9 4-20.2-20.45L135 44.3m-9.8 10.05 3.85-3.95 8.05 8.05-4.05 3.85-7.85-7.95m11.9 12.05 4-3.9 8.15 8.25-3.8 4.15-8.35-8.5m-22.95-33.95H85.6V26.8h28.55v5.65m0 8.7H85.6V35.5h28.55v5.65m0 8.4H85.6V44h28.55v5.55M97 150.55v5.6H85.6v-5.6H97m5.7 0h11.45v5.6H102.7v-5.6m-17.1 22.8v-5.55H97v5.55H85.6m17.1-14.2h11.45v5.7H102.7v-5.7m11.45 14.2H102.7v-5.55h11.45v5.55M97 159.15v5.7H85.6v-5.7H97m52.4-29.6-8.55 8.6-3.8-3.9 8.4-8.6 3.95 3.9m-6.55 10.7 8.5-8.75 3.9 4.15-8.55 8.5-3.85-3.9m-.25 8.15-7.45 7.6-4-3.9 7.55-7.6 3.9 3.9m-9.75-10 3.9 4-7.55 7.65-4-3.95 7.65-7.7m-64.3-90.3-20.2 20.4-3.8-3.85L64.7 44.1l3.85 4m-6-6.05L54.4 50.2l-4-3.95L58.5 38l4.05 4.05M42 96.8h-5.55v-11H42v11m8.35-11v28.95H44.8V85.8h5.55M42.3 62.5l-3.9-4.15 8.4-8.4L50.65 54l-8.35 8.5m8.05 8.15 20.2-20.45L74.5 54 54.3 74.6l-3.95-3.95M33.4 85.8v28.95h-5.5V85.8h5.5m37.15 64.25-20.2-20.5 3.95-3.9 20.2 20.45-3.95 3.95M64.7 156l-8-8.05 4.05-3.9 7.8 8.05-3.85 3.9m-8.15-16.2-4.05 4-7.95-8.15 3.9-4.15 8.1 8.3m-1.95 10.35 7.95 8.05-4.05 4.15-7.95-8.3 4.05-3.9M50.4 146l-4.05 3.8-7.95-7.95 3.9-4 8.1 8.15m-13.95-42.8H42v11.55h-5.55V103.2" fill="url(#b)"/><path d="M97.3 60.85q-7.1.65-12.1 5.9-2.85 2.8-4.35 6.3-1.45 3.6-1.45 7.85 0 8.15 5.8 14.15 3.95 4.05 9.05 5.35l2.65.3 2.3.25 2.1-.25 2.7.45q5.1 1.2 9.15 5.45l1.85 2.15q3.9 5.15 3.9 12 0 6.65-3.9 11.85l-1.85 2.3-1.05.85q-4.75 4.25-11.05 4.9h-2.6v.1q-9.95-.2-18.15-5l-4.3-2.7q-2.3-1.85-4.4-4.05-11.45-11.65-11.45-28.3 0-16.45 11.45-28.1 10.75-11 25.7-11.75m7.45 55.1q-2.2-2.05-5.1-2.05-2.85 0-4.95 2.05-1.95 2.05-1.95 5.1 0 2.85 1.95 5.05 2.1 2.15 4.95 2.15 2.9 0 5.1-2.15 2.05-2.2 2.05-5.05 0-3.05-2.05-5.1" fill="url(#c)"/><path d="M194 94.3v.3q0 .55-.4.9l-.65.1h-.25q-1.6-.65-2.9-1.55l-1.5-1.3q-1.95-1.85-2.9-4.25-.1-.4.15-.55l.6-.2q.55 0 .8.35l2.3 3.8.5.55q1.4 1.5 3.1 1.5l.05-.65.05-.55-.1-1.5-.15-.65.4-.8q.25-.3.65-.3h.25l.3.75.05 1-.15 1.5-.2 1.55m3.05 4.55H186l-2.3.1-.65-.1-.25-.55q0-.3.35-.65.35-.3.8-.3H198l1.2.1q.5.2.8.75l-.55.65-.9.1h-.65l-.85-.1m-3.3 1.55.25.3-.2.45-.25.45.7 1.3.8 1.1.5 1.4-.1.55-.6.55q-1-.35-1.1-1.65l-.35-1.55-.25-1.05q-.1-.55-.7-.55h-.35q-1.3.75-2.15 2.05-.5.65-.9 1.65-.7 1.75-.95 4.9l-1.25-1.65-.45-.55-.15-.55q0-.65.6-1.7l.55-1q1.1-1.95 2.35-3.05l.25-.1q1.45-1.3 3.1-1.3h.65M175.5 35.95q-1.3.4-2.35 1.4l-2.45 2.3-1.5 2.05-.85 1.1q-1.1 2.15-.35 4l.75 1.3.95 1.35-1.65.1q-.9-.1-1.4-.65l-.2-.35q-.75-1.95-.2-4.25l.6-1.95 1.65-1.65 1.5-1.6 2.55-2.85 1.15-1.4v-.75l-1.35-1.45-1.25-1.3-1.35-1.3-1.5-1.2q-.45-.45-1.1-.45-.5 0-1.4 1l-.35.3-.35.35.2.2.95.35.65.1 3.05 3.15 2.2 2.4-.05.2h-.6l-.7-.1-.6-.4-.5-.65-.6-.55q-.3-.45-.75-.55l-1.6 1.6 2 1.75q.3.45.25.9l-.45.75-.65.55-.2.1-.3.2-1.9.1-1.85-1.6-.3.45-.85.3q-1.35.2-1.55.35l.45.5.5.55.75.8.45.3.35-.1.3-.2.5-.65.3-.55q.3.1.3.65l.1.2-.2.75q-.2 1.1-.6 1.45l-.55.2-.55-.45-.6-.4-.75-.9-.75-.75-.95-.9-.65-.4-1.2-.55q-.35-.45-.05-1l1.25-.1 2.25.2.6-.1.7-.2.15-.35-1.35-.75-.7-.55-.35-.3 1.35-2.1.7-.95.6-.45.95.65.8.9.55.5.25.25.75-.45.5-.55q.2-.2.35-.3l.15-.25-.45-.55-.75-.65-.95-.55-.35-.3-.3-.45h-.15l-3.1 2.75-.5.2q-2.25 1.55-4.35 1.95l-1.75.35-.95-.25-.35-.5q-.15-.55.1-.9l.75-.1h.9q2.05 0 4.1-1l1.15-.65q2-1.3 4.45-3.8l.6-.65.8-1.2.45-.45.7.1 6.65 6.75q.15 0 .3.25l.25.2q.55.55.7 1.3v.8m-11.95-1.85q-.3.1-.55.3l-.35.35-.1.1-.4.55.3.55 1.2 1.05.6-.3.25-.25.2-.2.3-.3.15-.15-.45-.65-.6-.65-.35-.3-.2-.1m2.4 2.35-1.4 1.55 1.55 1.3.75-.3.25-.25.45-.3-.15-.45-.35-.55-.4-.3-.45-.35-.25-.35m8.25 123.9q-.25.35-.75.35l-.85-.45-5.5-5-.65-.2q-.3-.1-.7.3l-.35.55-.45.45.95 5.75.2 1 3.7 3.8 1.2 1.2.15.2.25.55-.25.65-.3.25-.6-.1-.95-.7-.95-.85-2.2-2.6-1.4-1.65-5.75-.1-.9-.2q-.3 0-.8.5l-.35.35q0 .85.7 1.75l1.3 1.4.6.9 2.05 2.7.25.55-.3.45-.45.3-.6-.1-2.35-2.7-1.5-1.85-1.45-2.3q-.3-.55-.2-.9.05-.4.4-.85l.55-.35q.3-.2.75-.3l2.05-1.75 1.9-1.95 2.85-2.95 1-1.2.3-1.3q.25-.65.65-1.1l.3-.1.45-.1 4 3.15.7.55.95.95.65.55 1.1.8.45.5.15.55q.2.45 0 .65M164 158.1q0-.35-.25-.35l-4.9 4.7q.7-.45 1.9-.45h2l.95-.3q.5-.45.5-1.85l-.15-1.2-.05-.55M107.45 5.65l-.6.35h-4.8l-.3.3v.65l-.1.45.15.55.55.2 1 .65 2.5 1.65 3.65 2.05q2 .9 4 1.45-.5.65-1.4 1.05l-.75.35q-2-.55-4.35-2.4L104.75 11l-1.7-1.2q-1-.75-1.75-.75h-.4l-2.8 3.25-2.45 1.95-1.05.75-.8.25-.8.2-.75-.2-.2-.65 4.25-2.75 1.95-1.5L99.7 8.8l.2-.3q.7-1.2.7-2.4L99.45 6l-1.35.1-2.2.55q-.35-.1-.35-.45l.25-.75.5-.55 1 .1h1.65l.5-.1.4.1.85-.2.2-.1V1.3l-.3-.3h-.65l-1.6.2-2.55.45h-.6l-.05-.35q0-.55.45-.85l1-.25.75.15L107.9 0l-.55 1-.5.3-1.9-.2-1.7-.1h-.9l-.25 1.05-.05 1.2.05 1.45.05.2h5.05q.55 0 .55.35l-.3.4m-11.75 189-.15-.4q.6-1.45 1.6-2.95h.1l.85-1.2.25-.2q.2-.15.35-.15l.1.35-.45 1.2-.3.65q-.5 1.1-.55 1.95h.3l.5.1.9-.1h.65l.25-2.6v-.65q0-.75.15-1.2.25-.75.7-.55l.25 1 .1 1.05v.9l-.1.95v.35l.1.2 2.4-.85-.15-.9v-.4l-.05-.55v-.55l.05-.35q0-1.5-1.65-2.25l-2.75-.9-1.65-.2-1.45-.1-2.85.2-1.1.2q.35-1.05 1.3-1.95l.8-.65q2.2.2 4.45.9l3.35 1.2 1.25.5q1.25.8 1.45 2.5l.05 2 .1 1.05.85-.2 1.5-.55q.35 0 .65.35 0 1.1-1.1 1.3l-1.9.45-.1.3.1.65.05 1-.15.85q-.05.45-.5.75-.55-.1-.8-.4-.35-.45-.35-1 0-.45.15-.75l.3-.9-.7-.1-1.3.25-.6.3v3.4l-.15.95q.1.55-.15.8-.2.3-.55.3-.4 0-.7-.55l.45-4.9L97 195l-.45.1-.85-.45m17.75-8.15h.5l.25.1q-.75 1.2-2.1 1.85l-1.25.45v4.45l.45.1h.6l.4-.1h.25q.2-.2.55-.2l.65.2.45.65-.75.65-.85.25-.75-.1-.1-.15h-.9v4.25q-.05.65-.5.65l-.65-.2-.45-.75.35-1.45.15-1.85v-.3l-.05-.2-.7-.15-.8.15-.85.1-.25-.1-.05-.35q0-.55 1.15-.65l1.4-.1.3-4.05q0-.45-.55-.45h-.55l-.35.15-.55.2-.6.1q-.3 0-.3-.45l3.85-1.6q.55-.65 1.4-.9l1.2-.2M39.15 24.8l-.85.8-.95.85-.5.45-.25.2.35.55.4.35.3.1 2.45-2.5.55-.55q.25-.25.5 0l.15.3-.25.65-.55.65-.85.8-.9.75q-.25.2-.35.55-.15.2.1.55l.4.4.3.25 1-.9 1.15-.95.95-1.1 1-1.1 1.25-.95.6-.45.25 1-.6.85-.7.65-.6.45-.5.3-.55.55q-.5.45-.25.9l.75.1.05.1q.2.2.05.75l-.15.9.5-.25.3-.3.3-.35.15-.1q.2-.35.6-.35l.55.15q.35.4-.05.95l-2.65 1.95.2.55.4.35.25.2.05.1 2.8-2.25 2.2-2q.65.55.55 1.35l-.2.65-3.1 1.95-1.3 1.1.4.55.4.3.25.1.25.25.25.3.5.75-.3.65-.7-.1-.65-.55-.4-.4-.45-.55-.3-.25-.45.25-.45.4-.2.25-.1.1-.25.2-.7 1-1.2 1.85-.95.55-.3-.1q-.25-.25-.1-.8l.2-.95 1.2-1.1 1.2-1.1.65-.65.35-.4-.25-.45-.35-.45-.3-.2-.1-.1-.3.2-.3.1-.45.75-.4.8-.3.4-.4.55-.55.25-.5-.15q.2-.85.8-1.6l.45-.55.05-.45h-.35l-.6.1-1-.1-.1-.1q-.25-.35-.15-.75l-.9.65-1.3 1.75-.95 1.05-.6-.1-.1-.55.05-.85 4.55-4.45-.3-.45-.25-.35-.25-.2-.1-.1-.5.3-.4.35-1.15 1.5-.65.8-.25.2-.65.1-.15-.55.1-.65 2.75-2.7-.35-.65-.2-.25h-.05q-.6.35-1.05.9l-.8.95-.35.55-1.55.1-1.6-1.2-.6-.5.5-1 .65-.75.7-.65.7-.65.3-.25.15-.3 1-1 .95-1.1q.65-.65 1.4-1.2.55-.4 1.45-.75l.3.2.2.15q.75.85.95 1.95v.95m2.65 7.65-.25-3.05-1.1.85-.6.65-.4.55-.3.25-.4.3-.25.25-.5.65-.05.2 1-.1h1.55l.6.1.7-.65m-7.2-7.1-1.1.9q-.15.3.2.75l.3.2.35.35.1.2 1.15-.95q.15-.35-.25-.65l-.25-.35-.3-.3-.2-.15m.95-.95.35.4.35.35.25.35.25.2 1.3-1.3-.6-1.1h-.75q-.25.1-.55.35l-.4.3-.2.45m-9.25 9.45.5-.85q.25-.35.6-.35l2.6.55-1.15.9-.6.2-.85.45-.9-.15q-.25-.2-.2-.75m6.45-6.2-.25-.1q-.25-.1-.5.2l-.65.65q0 .35.15.55l.35.45q.25.3.65.45l.4.1.85-1.1-.55-.65-.45-.55m-2.8 12.4q-.5-.1-.35-.85.05-.65.45-1.1l1-.1q1.25-.35 1.85 0L31 39.5l-1.05.55m6.6 5q-.55 0-1-.4l-.25-.35.35-2.6.1-1.1q0-1.3.25-1.95.8 1.2 1.05 2.85l.45 3.05q-.25.5-.95.5m-30.1 46.4.1.55v1.5l-.1 1.55v.65l-.25.35-.7-2.1-.5-.85q-.3-.25-.3-.65 0-.45.4-.65.45-.45.9-.45l.45.1M1.7 98.2l4.5.1h2.55l1.15-.4.1-.15 3.15-4.55q1.4-2.4 2.45-5.25l.2-.65q.15-.3.45-.2l.7 1.75.2 1.5v.8l-4.7 5.1-.9 1.4q-.65.9-.65 1.55 1.55 1.5 3 3.35l2.05 2.85.7 1.2.3 1.1-.2.95-.65.45-.6-.35q-.5-1.75-1.4-3.35l-1.4-2.3-.65-.85q-.8-1.3-2.1-1.85l-.8-.35-3.65-.45-4.65.45q-.85 0-.85-.75 0-.45.35-1 .35-.4.85-.4l.5.3m5.3 6.2.2.55q0 .55-.6.65l-.3.1-.55.15q-.5 0-.85-.45l-.15-.55 1.45-2.5.1-.35.25-.1h.15l.05.1.25 2.4m16.9 54.45 1.45-1.1.3-.3.3-.35q.75-.65 1.1-.75.45 0 .75.3l-1.25 1.65q-1 1.2-.9 2.2l.95 1.5 1.3 1.4.95 1 1 .85.55.35 3.2-3.25.4-.25h.2l.25.25-.05.2-.25.85-.7.9-.8.75-.9.75-.3.45-.35.45 2.6 2.4 1.25 1.05q.65.65 1.6.65.9-.1 1.6-.75l.25-.2.8-.75q.75-.65 1.1-.35l.15.55-.3.55-.5.45-.95.85-1.75 1.3-.65.1-.65-.3-.25-.35-.05-.1-1.75-1.5-2.15-2-.6-.65-.3-.4-.25.1-.25.2-.9 1.4q1.2 1.2 3 2.2l1.55.75q.5.45 0 1l-.9.45q-.55 0-.85-.35l-.25-.55-2.15-1.75-2.05-2.05-2.8-2.85-2.05-2.25 1.05-.15q.75-.2 1.05 0 .35.9 1.1 1.85.7 1.1 1.55 2l.25.2h.7l.5-.45.35-.55.1-.2-5.6-6.3-.05-.55q.05-.35.25-.55m3.9.85.35.65.55.55 1 .9.25.1.4.3.25.45-.2.55q-.3.35-.8.35l-.55-.9-.6-.65-.5-.55-.45-.4-.8-1 1.1-.35m.45-.65q-.35-.4-.1-.65.25-.2.6-.2.4 0 .65.3l.2.25.5.65.75.65 1.15.85.2.35-.1.2-.6.35-.3.1-1.05-1-1-.95-.5-.55-.4-.35m5.5-6.5q.4-.45.95-.55h.55l1.85 1.85 2.8 2.95 1.1 1.05.95.9 1.35.75.65.45q.35.3.25.85l-1.65 2.4-2.5 2.6-.6.35-3.65-3.7-2.35-2.3-1.6-1.65-1.45-1.6-.45-.9.7-.85 2-1.65 1.1-.95m-.1 2.15 2.9 3.15h.5l.45-.3.4-.45.3-.55-2.85-2.8-.75.1q-.4.1-.6.3l-.3.35-.05.2m-.75.75q-.4 0-.65.25l-.25.3-.25.9.95 1.1 1.05 1.15.65.7.5.3 1.2-1.2-1.05-1.2-1.1-1.2-.7-.65-.35-.45m3.4 5.35-.25.55 3.1 2.7.5.25.5-.35.3-.3.2-.25-.85-.95-.9-.9-.95-.95-.95-.75-.7.95m1.7-1.95.6.75.5.45 1.2 1.2.85.75q.45.2.85-.2l.3-.45.05-.55-3-3.05q-.25.1-.6.35l-.35.4-.25.25q-.1 0-.15.1m-.75 8.6-.3-.2-.95-.8-.9-.65q-.45-.4-.45-.95l.2-.1q.35-.45.8.1.45.4.65.4l1.05.8.65.55.3.4-.25.35q-.35.45-.8.1m-3.05-.65 1.1.65 1 .65q.4.45.4.85l-.2.35-.2.1-.2.1-1.95-1.5-.8-.65-.2-.55.1-.45.4-.1.45.2.1.35" fill="#fc0"/></g></defs></svg>