<svg xmlns:ffdec="https://www.free-decompiler.com/flash" xmlns:xlink="http://www.w3.org/1999/xlink" ffdec:objectType="frame" height="195.2" width="314.9" xmlns="http://www.w3.org/2000/svg"><g transform="translate(3 2.05)"><use ffdec:characterId="1" height="195.2" transform="translate(-3 -2.05)" width="314.9" xlink:href="#a"/><use ffdec:characterId="3" height="85.2" transform="matrix(.3533 .0947 -.0947 .3533 268.5 141.8)" width="85.8" xlink:href="#b"/><use ffdec:characterId="3" height="85.2" transform="matrix(.2587 -.2587 .2587 .2587 6.25 160.95)" width="85.8" xlink:href="#b"/><use ffdec:characterId="3" height="85.2" transform="rotate(-44.998 302.455 -224.244) scale(.1557)" width="85.8" xlink:href="#b"/><use ffdec:characterId="3" height="85.2" transform="rotate(30.02 -257.592 183.41) scale(.1558)" width="85.8" xlink:href="#b"/><use ffdec:characterId="4" height="124.5" transform="translate(5.5 6.4)" width="296.9" xlink:href="#c"/><filter id="d"><feColorMatrix in="SourceGraphic" result="filterResult0" values="0 0 0 0 0.0,0 0 0 0 0.0,0 0 0 0 0.0,0 0 0 1 0"/><feConvolveMatrix divisor="25" in="filterResult0" kernelMatrix="1 1 1 1 1 1 1 1 1 1 1 1 1 1 1 1 1 1 1 1 1 1 1 1 1" order="5 5" result="filterResult1"/><feComposite in="SourceGraphic" in2="filterResult1" result="filterResult2"/></filter><use ffdec:characterId="6" filter="url(#d)" height="86.1" transform="matrix(1 0 0 1.3552 19.45 12.082)" width="269" xlink:href="#e"/></g><defs><linearGradient gradientTransform="matrix(0 -.1011 .1099 0 154.55 94.1)" gradientUnits="userSpaceOnUse" id="f" spreadMethod="pad" x1="-819.2" x2="819.2"><stop offset="0" stop-color="#9cf" stop-opacity=".8"/><stop offset=".412" stop-color="#9ff"/><stop offset="1" stop-color="#9cf" stop-opacity=".953"/></linearGradient><linearGradient gradientTransform="matrix(0 -.0923 .106 0 154.45 94.1)" gradientUnits="userSpaceOnUse" id="g" spreadMethod="pad" x1="-819.2" x2="819.2"><stop offset="0" stop-color="#9394db" stop-opacity=".8"/><stop offset=".157" stop-color="#0cf" stop-opacity=".6"/><stop offset="1" stop-color="#029adb" stop-opacity=".8"/></linearGradient><linearGradient gradientTransform="matrix(0 .0429 -.106 0 153.95 87.9)" gradientUnits="userSpaceOnUse" id="h" spreadMethod="pad" x1="-819.2" x2="819.2"><stop offset="0" stop-color="#0ff" stop-opacity=".4"/><stop offset="1" stop-color="#fff" stop-opacity=".2"/></linearGradient><linearGradient gradientTransform="matrix(0 .008 -.0995 0 152.9 14.4)" gradientUnits="userSpaceOnUse" id="i" spreadMethod="pad" x1="-819.2" x2="819.2"><stop offset="0" stop-color="#fff" stop-opacity=".051"/><stop offset="1" stop-color="#fff" stop-opacity=".251"/></linearGradient><linearGradient gradientTransform="matrix(0 .0536 -.0525 0 134.45 43)" gradientUnits="userSpaceOnUse" id="j" spreadMethod="pad" x1="-819.2" x2="819.2"><stop offset="0" stop-color="#cae9f0"/><stop offset="1" stop-color="#9bd6e3"/></linearGradient><g id="a"><path d="M296.05 3.5H18.85Q3.5 3.5 3.5 19.55v156.1q0 16.05 15.35 16.05h277.2q15.35 0 15.35-16.05V19.55q0-16.05-15.35-16.05z" fill="none" stroke="#036" stroke-linecap="round" stroke-linejoin="round" stroke-width="7"/><path d="M288.1 6.15H20.8Q6 6.15 6 21.15v145.9q0 15 14.8 15h267.3q14.8 0 14.8-15V21.15q0-15-14.8-15M293.05 0q15.35 0 15.35 16.05v156.1q0 16.05-15.35 16.05H15.85Q.5 188.2.5 172.15V16.05Q.5 0 15.85 0h277.2" fill="url(#f)" fill-rule="evenodd" transform="translate(3 2.05)"/><path d="M288.1 6.15q14.8 0 14.8 15v145.9q0 15-14.8 15H20.8q-14.8 0-14.8-15V21.15q0-15 14.8-15h267.3" fill="url(#g)" fill-rule="evenodd" transform="translate(3 2.05)"/><path d="M296.05 2.05H18.85Q3.5 2.05 3.5 18.1v156.1q0 16.05 15.35 16.05h277.2q15.35 0 15.35-16.05V18.1q0-16.05-15.35-16.05z" fill="none" stroke="#0ff" stroke-linecap="round" stroke-linejoin="round" stroke-width="1.5"/></g><g id="k" fill="#fff" fill-rule="evenodd"><path d="M54.8 24.2 41.2 6l-9.35 20.6L6.3 36.2 23 51.65l1.45 28.25L47.2 66.8l25.45 8.35L67.9 48.7l12.8-19.45-25.9-5.05m-25.35-.5L40.25 0 55.9 20.9l29.9 5.9-14.85 22.35 5.5 30.5-29.3-9.6-26.2 15.15-1.7-32.6L0 34.8l29.45-11.1" fill-opacity=".255"/><path d="m54.8 24.2 25.9 5.05L67.9 48.7l4.75 26.45L47.2 66.8 24.45 79.9 23 51.65 6.3 36.2l25.55-9.6L41.2 6l13.6 18.2" fill-opacity=".408"/></g><g id="c" fill-rule="evenodd"><path d="M287.6 44.9q14.8 0 14.8 7.35v71.35q0 7.3-14.8 7.3H20.3q-14.8 0-14.8-7.3V52.25q0-7.35 14.8-7.35h267.3" fill="url(#h)" transform="translate(-5.5 -6.4)"/><path d="M292.3 7.75q0 14.65-13.9 14.65H27.45q-13.9 0-13.9-14.65 0-1.35 13.9-1.35H278.4q13.9 0 13.9 1.35" fill="url(#i)" transform="translate(-5.5 -6.4)"/></g><g id="l"><path d="M253.9 0q15 0 15 15v56q0 15-15 15H15Q0 86 0 71V15Q0 0 15 0h238.9" fill="url(#j)" fill-rule="evenodd" transform="translate(.05 .05)"/><path d="M253.95.05H15.05q-15 0-15 15v56q0 15 15 15h238.9q15 0 15-15v-56q0-15-15-15z" fill="none" stroke="#fff" stroke-linecap="round" stroke-linejoin="round" stroke-width=".1"/></g><use ffdec:characterId="2" height="85.2" width="85.8" xlink:href="#k" id="b"/><use ffdec:characterId="5" height="86.1" width="269" xlink:href="#l" id="e"/></defs></svg>