<svg xmlns:ffdec="https://www.free-decompiler.com/flash" xmlns:xlink="http://www.w3.org/1999/xlink" ffdec:objectType="frame" height="56.35" width="58.2" xmlns="http://www.w3.org/2000/svg"><use ffdec:characterId="573" height="54.7" transform="translate(.8 .8)" width="56.55" xlink:href="#a"/><defs><linearGradient gradientTransform="matrix(0 .0321 -.0333 0 28.65 29.45)" gradientUnits="userSpaceOnUse" id="e" spreadMethod="pad" x1="-819.2" x2="819.2"><stop offset="0" stop-color="#f90"/><stop offset=".455" stop-color="#ff6"/><stop offset="1" stop-color="#f90"/></linearGradient><linearGradient gradientTransform="matrix(0 .0275 -.0285 0 28.65 29.45)" gradientUnits="userSpaceOnUse" id="f" spreadMethod="pad" x1="-819.2" x2="819.2"><stop offset="0" stop-color="#ff6966"/><stop offset=".733" stop-color="#ffa947"/><stop offset="1" stop-color="#ff9"/></linearGradient><linearGradient gradientTransform="matrix(0 .0108 -.0246 0 28.85 15.35)" gradientUnits="userSpaceOnUse" id="g" spreadMethod="pad" x1="-819.2" x2="819.2"><stop offset="0" stop-color="#ff6b19"/><stop offset=".361" stop-color="#ff9c80"/><stop offset="1" stop-color="#ff9"/></linearGradient><g id="a" transform="translate(-.4 -2.05)"><use ffdec:characterId="570" height="54.7" transform="translate(.4 2.05)" width="56.55" xlink:href="#b"/><filter id="c"><feColorMatrix in="SourceGraphic" result="filterResult0" values="0 0 0 0 0.4,0 0 0 0 0.0,0 0 0 0 0.0,0 0 0 1 0"/><feConvolveMatrix divisor="25" in="filterResult0" kernelMatrix="1 1 1 1 1 1 1 1 1 1 1 1 1 1 1 1 1 1 1 1 1 1 1 1 1" order="5 5" result="filterResult1"/><feComposite in="SourceGraphic" in2="filterResult1" result="filterResult2"/></filter><use ffdec:characterId="572" filter="url(#c)" height="34.65" transform="translate(13.4 12.25)" width="32.35" xlink:href="#d"/></g><g id="b"><path d="M9.35 10.75q8.05-7.7 19.3-7.7 11.3 0 19.3 7.7 8 7.8 8 18.6 0 10.9-8 18.65-8 7.75-19.3 7.75-11.25 0-19.3-7.75Q1.4 40.25 1.4 29.35q0-10.8 7.95-18.6M11.8 14q-2 1.9-3.3 4-3.05 5.1-3.05 11.35 0 9.25 6.85 15.85 6.8 6.7 16.35 6.7 9.7 0 16.4-6.7 6.85-6.6 6.85-15.85 0-6.25-3.05-11.35-1.4-2.1-3.4-4l-.4-.45q-6.7-6.6-16.4-6.6-9.55 0-16.35 6.6l-.5.45" fill="url(#e)" fill-rule="evenodd" transform="translate(-.4 -2.05)"/><path d="M45.45 14q2 1.9 3.4 4 3.05 5.1 3.05 11.35 0 9.25-6.85 15.85-6.7 6.7-16.4 6.7-9.55 0-16.35-6.7-6.85-6.6-6.85-15.85Q5.45 23.1 8.5 18q1.3-2.1 3.3-4 4.45 1.5 9.1 2.25l1.25.1q12.6 1.3 23.3-2.35" fill="url(#f)" fill-rule="evenodd" transform="translate(-.4 -2.05)"/><path d="m11.8 14 .5-.45q6.8-6.6 16.35-6.6 9.7 0 16.4 6.6l.4.45q-10.7 3.65-23.3 2.35l-1.25-.1q-4.65-.75-9.1-2.25" fill="url(#g)" fill-rule="evenodd" transform="translate(-.4 -2.05)"/><path d="M8.95 8.7Q17 1 28.25 1q11.3 0 19.3 7.7 8 7.8 8 18.6 0 10.9-8 18.65-8 7.75-19.3 7.75-11.25 0-19.3-7.75Q1 38.2 1 27.3 1 16.5 8.95 8.7z" fill="none" stroke="#7c303d" stroke-linecap="round" stroke-linejoin="round" stroke-width="2"/></g><g id="h"><path d="M-7 1.65q.85.05.9.75v12.25q-.05.85-.9.9-.8-.1-.85-.95v-2.05h-2.1q-.8-.05-.8-.95 0-.8.8-.85h2.1V8.6H-9.5q-.55 0-.7-.2.3.7-1.3 1.3v4.15q.05 1.7-2 1.45-1.3-.1-1.2-1.05 0-.75.8-.65.75.15.7-.2v-3.05l-1.5.1q-.6-.8 0-1.35l.35-.1 1.15-.55V5.7h-.9q-.75-.05-.8-.95.05-.85.8-.9h.9V2.3q.05-.65.8-.75.85 0 .9.65v1.65h.3q.75.05.8.85 0 .9-.7.95h-.4v2.1q.7-.3 1.05 0-.05-1 .75-1h1.85V5.4h-1.5q-.75-.05-.8-.9.05-.85.75-.9h1.55V2.35q.05-.65.85-.7m2.3 0q.9 0 .95.75v1.2H-2q.8.05.95.9 0 .85-.8.9h-1.9v1.5H-2q.85.05.95.85-.1.9-.95.95h-1.75v2.05H-2q.85.05.95.85-.1.9-.95.95h-1.75v2.1q-.05.85-.9.9-.8-.05-.85-.8V2.55q.05-.75.8-.9m-6.2-13.45h-.95l-1.05 4.1.05.35 1.05.95q.95-1.8 1.2-5.05 0-.35-.3-.35m-2.2-3.1q.1-.65.85-.7.85.1.8.75l-.15 1.45h1.65q.95-.05.95 1-.1 4.35-1.5 7.1l.8.85q.55.6.1 1.15l-1.2.05-.75-.65q-1 1.25-2.25 1.95-.65.35-1.05-.25-.4-.7.15-1.1 1.4-1.05 1.85-1.65L-14.5-6.5q-.4-.45-.1-1.35.9-2.85 1.05-3.95h-.8q-.55-.05-.65-.75.05-.75.55-.85h1.2l.15-1.5m4.95.95 5.3-1q.75-.2 1 .6.2.8-.45 1.05l-2.25.5v3.05h2.8q.55.05.6.75-.05.8-.6.85h-2.6q.8 2.6 3.05 4.95.35.55 0 1.2-.55.6-1.1.1-1.55-1.6-2.85-4.4-1.2 3-3.1 4.5-.7.4-1.15-.2-.35-.6.25-1.1 2.6-2.35 2.85-5.05h-2.15q-.6-.05-.6-.85 0-.7.6-.75h2.35v-2.8l-1.85.15q-.6 0-.7-.75 0-.75.6-.8M9.6 6.8l.1-.2-.2-.05H6.2l1.5.7.8.35.7-.5.4-.3M12.1 5q1.05 0 .85 1-.4.9-3.6 2.95h3.35q1 .05 1 1.15-.05 1.6-2.25 3.15-1.15.85-1.8.5-.7-.85.2-1.6l1.6-1.1.25-.4q0-.15-.3-.15H8.7v3.1q0 1.55-1.75 1.75L4.6 15.1q-1.05-.5-1-1.2.25-.75 1.25-.45l.9.3q1.4.15 1.25-.65v-2.6H3.85q-.75-.05-.75-.8 0-.7.75-.75h3.6l-.8-.35L5.4 8q-1.1-.6-.5-1.45h-.95q-.6-.1-.7-.8 0-.7.65-.75h8.2m1.05-2.3q.65.1.7.8-.05.75-.7.8H2.55v3.95q-.05 3.65-.8 6.25-.3.85-1 .85-.8-.2-.7-1.05.85-3.05.85-6.55V4q0-1.3 1.3-1.3h4.05l-.05-.35q-.05-.65.7-.75.8-.05 1 .6l.05.2.05.3h5.15M.85-12.65q.65.05.7.7v2.05L1.5-8.85q-.05.75-.75.8-.7-.05-.7-.8l.1-3.1q.05-.65.7-.7M8.2-7.8q.05-.7.8-.75.75.05.85.7v.8h2.6q.7.05.8.8-.1.8-.8.85h-2.6v1.7h3.25q.6.05.65.75-.05.7-.65.75H4.65q-.55-.05-.6-.75.05-.7.6-.75H8.2v-1.7H5.45q-.6-.05-.6-.85 0-.75.6-.8H8.2v-.75m-3.1-4.85.5 1.55q.25.85-.4 1.1-.7.2-1-.55l-.45-1.75q-.15-.6.45-.85.7-.1.9.5m2.25-.3.2.15 1.7 1.65 1.75-1.7q.25-.25.1-.35l-.45-.2h-3.7l.4.45m-2.5-1.25q.05-.75.65-.8h6.85q1.1.1.9 1.35-.55 1.8-2.4 3.3l2.5.9q.75.25.4 1.1-.35.6-1.2.4-1.95-.6-3.4-1.35-1.45.8-3.4 1.45l-.3.1q-.95.3-1.35-.4-.25-.85.7-1.15 1.8-.4 2.9-1.05L6-12.15q-.45-.7 0-1.25h-.5q-.6-.05-.65-.8m-2.95-.7q.1-.6.85-.65.75.05.8.65v12.6q-.05.6-.8.65Q2-1.7 1.9-2.3v-12.6" fill="#ffc" fill-rule="evenodd" transform="translate(16.75 17.35)"/><path d="M18.65 2.45v12.6q.1.6.85.65.75-.05.8-.65V2.45q-.05-.6-.8-.65-.75.05-.85.65m2.95.7q.05.75.65.8h.5q-.45.55 0 1.25l1.7 1.8q-1.1.65-2.9 1.05-.95.3-.7 1.15.4.7 1.35.4l.3-.1q1.95-.65 3.4-1.45 1.45.75 3.4 1.35.85.2 1.2-.4.35-.85-.4-1.1L27.6 7q1.85-1.5 2.4-3.3.2-1.25-.9-1.35h-6.85q-.6.05-.65.8m2.5 1.25-.4-.45h3.7l.45.2q.15.1-.1.35L26 6.2l-1.7-1.65-.2-.15m-2.25.3q-.2-.6-.9-.5-.6.25-.45.85l.45 1.75q.3.75 1 .55.65-.25.4-1.1l-.5-1.55m3.1 4.85v.75H22.2q-.6.05-.6.8 0 .8.6.85h2.75v1.7H21.4q-.55.05-.6.75.05.7.6.75h8.45q.6-.05.65-.75-.05-.7-.65-.75H26.6v-1.7h2.6q.7-.05.8-.85-.1-.75-.8-.8h-2.6v-.8q-.1-.65-.85-.7-.75.05-.8.75M17.6 4.7q-.65.05-.7.7l-.1 3.1q0 .75.7.8.7-.05.75-.8l.05-1.05V5.4q-.05-.65-.7-.7m12.3 15.35h-5.15l-.05-.3-.05-.2q-.2-.65-1-.6-.75.1-.7.75l.05.35h-4.05q-1.3 0-1.3 1.3v3.75q0 3.5-.85 6.55-.1.85.7 1.05.7 0 1-.85.75-2.6.8-6.25v-3.95h10.6q.65-.05.7-.8-.05-.7-.7-.8m-1.05 2.3h-8.2q-.65.05-.65.75.1.7.7.8h.95q-.6.85.5 1.45l1.25.6.8.35h-3.6q-.75.05-.75.75 0 .75.75.8h3.15v2.6q.15.8-1.25.65l-.9-.3q-1-.3-1.25.45-.05.7 1 1.2l2.35.25q1.75-.2 1.75-1.75v-3.1h2.7q.3 0 .3.15l-.25.4-1.6 1.1q-.9.75-.2 1.6.65.35 1.8-.5 2.2-1.55 2.25-3.15 0-1.1-1-1.15H26.1q3.2-2.05 3.6-2.95.2-1-.85-1m-2.5 1.8-.4.3-.7.5-.8-.35-1.5-.7h3.3l.2.05-.1.2M8.6 3.4q-.6.05-.6.8.1.75.7.75l1.85-.15v2.8H8.2q-.6.05-.6.75 0 .8.6.85h2.15q-.25 2.7-2.85 5.05-.6.5-.25 1.1.45.6 1.15.2 1.9-1.5 3.1-4.5 1.3 2.8 2.85 4.4.55.5 1.1-.1.35-.65 0-1.2Q13.2 11.8 12.4 9.2H15q.55-.05.6-.85-.05-.7-.6-.75h-2.8V4.55l2.25-.5q.65-.25.45-1.05-.25-.8-1-.6l-5.3 1m-4.95-.95-.15 1.5H2.3q-.5.1-.55.85.1.7.65.75h.8q-.15 1.1-1.05 3.95-.3.9.1 1.35L3.9 12.4q-.45.6-1.85 1.65-.55.4-.15 1.1.4.6 1.05.25 1.25-.7 2.25-1.95l.75.65 1.2-.05q.45-.55-.1-1.15l-.8-.85q1.4-2.75 1.5-7.1 0-1.05-.95-1H5.15L5.3 2.5q.05-.65-.8-.75-.75.05-.85.7m2.2 3.1q.3 0 .3.35-.25 3.25-1.2 5.05L3.9 10l-.05-.35 1.05-4.1h.95M12.05 19q-.75.15-.8.9v12.2q.05.75.85.8.85-.05.9-.9v-2.1h1.75q.85-.05.95-.95-.1-.8-.95-.85H13v-2.05h1.75q.85-.05.95-.95-.1-.8-.95-.85H13v-1.5h1.9q.8-.05.8-.9-.15-.85-.95-.9H13v-1.2q-.05-.75-.95-.75m-2.3 0q-.8.05-.85.7v1.25H7.35q-.7.05-.75.9.05.85.8.9h1.5v1.35H7.05q-.8 0-.75 1-.35-.3-1.05 0V23h.4q.7-.05.7-.95-.05-.8-.8-.85h-.3v-1.65q-.05-.65-.9-.65-.75.1-.8.75v1.55h-.9q-.75.05-.8.9.05.9.8.95h.9v2.75l-1.15.55-.35.1q-.6.55 0 1.35l1.5-.1v3.05q.05.35-.7.2-.8-.1-.8.65-.1.95 1.2 1.05 2.05.25 2-1.45v-4.15q1.6-.6 1.3-1.3.15.2.7.2H8.9v2.15H6.8q-.8.05-.8.85 0 .9.8.95h2.1v2.05q.05.85.85.95.85-.05.9-.9V19.75q-.05-.7-.9-.75z" fill="none" stroke="#c60" stroke-linecap="round" stroke-linejoin="round" stroke-width="3.5"/><path d="M-7.85 1.85q.05-.65.85-.7.85.05.9.75v12.25q-.05.85-.9.9-.8-.1-.85-.95v-2.05h-2.1q-.8-.05-.8-.95 0-.8.8-.85h2.1V8.1H-9.5q-.55 0-.7-.2.3.7-1.3 1.3v4.15q.05 1.7-2 1.45-1.3-.1-1.2-1.05 0-.75.8-.65.75.15.7-.2V9.85l-1.5.1q-.6-.8 0-1.35l.35-.1 1.15-.55V5.2h-.9q-.75-.05-.8-.95.05-.85.8-.9h.9V1.8q.05-.65.8-.75.85 0 .9.65v1.65h.3q.75.05.8.85 0 .9-.7.95h-.4v2.1q.7-.3 1.05 0-.05-1 .75-1h1.85V4.9h-1.5q-.75-.05-.8-.9.05-.85.75-.9h1.55V1.85m4.1.05v1.2H-2q.8.05.95.9 0 .85-.8.9h-1.9v1.5H-2q.85.05.95.85-.1.9-.95.95h-1.75v2.05H-2q.85.05.95.85-.1.9-.95.95h-1.75v2.1q-.05.85-.9.9-.8-.05-.85-.8V2.05q.05-.75.8-.9.9 0 .95.75m-6.85-13.85q0-.35-.3-.35h-.95l-1.05 4.1.05.35 1.05.95q.95-1.8 1.2-5.05m.65-1.95q.95-.05.95 1-.1 4.35-1.5 7.1l.8.85q.55.6.1 1.15l-1.2.05-.75-.65q-1 1.25-2.25 1.95-.65.35-1.05-.25-.4-.7.15-1.1 1.4-1.05 1.85-1.65L-14.5-7q-.4-.45-.1-1.35.9-2.85 1.05-3.95h-.8q-.55-.05-.65-.75.05-.75.55-.85h1.2l.15-1.5q.1-.65.85-.7.85.1.8.75l-.15 1.45h1.65m7.65.1-2.25.5v3.05h2.8q.55.05.6.75-.05.8-.6.85h-2.6q.8 2.6 3.05 4.95.35.55 0 1.2-.55.6-1.1.1Q-3.95-4-5.25-6.8q-1.2 3-3.1 4.5-.7.4-1.15-.2-.35-.6.25-1.1 2.6-2.35 2.85-5.05h-2.15q-.6-.05-.6-.85 0-.7.6-.75h2.35v-2.8l-1.85.15q-.6 0-.7-.75 0-.75.6-.8l5.3-1q.75-.2 1 .6.2.8-.45 1.05m12 19.9-.2-.05H6.2l1.5.7.8.35.7-.5.4-.3.1-.2m3 2.35q1 .05 1 1.15-.05 1.6-2.25 3.15-1.15.85-1.8.5-.7-.85.2-1.6l1.6-1.1.25-.4q0-.15-.3-.15H8.7v3.1q0 1.55-1.75 1.75L4.6 14.6q-1.05-.5-1-1.2.25-.75 1.25-.45l.9.3q1.4.15 1.25-.65V10H3.85q-.75-.05-.75-.8 0-.7.75-.75h3.6l-.8-.35-1.25-.6q-1.1-.6-.5-1.45h-.95q-.6-.1-.7-.8 0-.7.65-.75h8.2q1.05 0 .85 1-.4.9-3.6 2.95h3.35M13.85 3q-.05.75-.7.8H2.55v3.95Q2.5 11.4 1.75 14q-.3.85-1 .85-.8-.2-.7-1.05.85-3.05.85-6.55V3.5q0-1.3 1.3-1.3h4.05l-.05-.35q-.05-.65.7-.75.8-.05 1 .6l.05.2.05.3h5.15q.65.1.7.8M9-9.05q.75.05.85.7v.8h2.6q.7.05.8.8-.1.8-.8.85h-2.6v1.7h3.25q.6.05.65.75-.05.7-.65.75H4.65q-.55-.05-.6-.75.05-.7.6-.75H8.2v-1.7H5.45q-.6-.05-.6-.85 0-.75.6-.8H8.2v-.75q.05-.7.8-.75m-6.25-7q.75.05.8.65v12.6q-.05.6-.8.65Q2-2.2 1.9-2.8v-12.6q.1-.6.85-.65m-1.9 2.9q.65.05.7.7v2.05L1.5-9.35q-.05.75-.75.8-.7-.05-.7-.8l.1-3.1q.05-.65.7-.7m2.9.35q-.15-.6.45-.85.7-.1.9.5l.5 1.55q.25.85-.4 1.1-.7.2-1-.55l-.45-1.75m8.6-2.7q1.1.1.9 1.35-.55 1.8-2.4 3.3l2.5.9q.75.25.4 1.1-.35.6-1.2.4-1.95-.6-3.4-1.35-1.45.8-3.4 1.45l-.3.1q-.95.3-1.35-.4-.25-.85.7-1.15 1.8-.4 2.9-1.05L6-12.65q-.45-.7 0-1.25h-.5q-.6-.05-.65-.8.05-.75.65-.8h6.85m-1.25 1.8-.45-.2h-3.7l.4.45.2.15 1.7 1.65 1.75-1.7q.25-.25.1-.35" fill="#ff0" fill-rule="evenodd" transform="translate(16.75 17.35)"/><path d="M-3.75 8.2v.15H-5.5v-3.4h1.75V6.4H-2q.85.05.95.85-.1.9-.95.95h-1.75m-4.1-3.25h1.75v3.4h-1.75V8.1H-9.5q-.55 0-.7-.2v.45H-14l.8-.4V5.2h-.9l-.55-.25h4.05q-.2.2-.5.2h-.4v2.1q.7-.3 1.05 0-.05-1 .75-1h1.85v-1.3m3.5-13.6.3.75H-6.5l.1-.75h-2.15q-.6-.05-.6-.85 0-.7.6-.75h2.35v-1.65h1.65v1.65h2.8q.55.05.6.75-.05.8-.6.85h-2.6m-7 .75q.55-1.6.75-4h1.55q-.15 2.25-.6 4h-1.7m-3.35 0 .1-.45q.75-2.4 1-3.55h1.7l-1 3.7v.3h-1.8M.9 4.95h1.65v3.4H.9v-3.4M9.7 6.1l-.2-.05H6.2l1.5.7.8.35.7-.5.4-.3.1-.2m3.25-1.15v.55q-.4.9-3.45 2.85H7.2l-.55-.25-1.25-.6q-1.1-.6-.5-1.45h-.95q-.6-.1-.7-.8l.05-.3h9.65M1.9-7.9v-4h1.65v4H1.9m-.35-4v1.5L1.5-9.35q-.05.75-.75.8-.7-.05-.7-.8l.1-2.55h1.4m8.3 3.55v.45H8.2v-.4q.05-.7.8-.75.75.05.85.7m-4.3-3.55.05.3q.25.85-.4 1.1-.7.2-1-.55l-.25-.85h1.6m3.7.25.35-.25h2.35l-1.1 1.05 2.5.9q.75.25.4 1.1-.35.6-1.2.4-1.95-.6-3.4-1.35-1.45.8-3.4 1.45l-.3.1q-.95.3-1.35-.4-.25-.85.7-1.15 1.8-.4 2.9-1.05L6.65-11.9h2.3l.3.25" fill="#fff" fill-rule="evenodd" transform="translate(16.75 17.35)"/></g><use ffdec:characterId="571" height="34.65" width="32.35" xlink:href="#h" id="d"/></defs></svg>