<svg xmlns:ffdec="https://www.free-decompiler.com/flash" ffdec:objectType="shape" height="37.5" width="87.5" xmlns="http://www.w3.org/2000/svg"><path d="M73.5 4q4.15 0 7.05 2.9l1.1 1.3q1.85 2.5 1.85 5.8v9.5l-.1 1.55q-.45 3.15-2.85 5.5l-.2.25q-2.85 2.7-6.85 2.7H14q-4.15 0-7.1-2.95l-.95-1.1q-1.5-2-1.85-4.5L4 23.5V14q0-2.25.85-4.15.7-1.6 2.05-2.95Q9.85 4 14 4h59.5" fill-rule="evenodd"/><path d="M69.5 0H10Q5.85 0 2.9 2.9 1.55 4.25.85 5.85 0 7.75 0 10v9.5l.1 1.45q.35 2.5 1.85 4.5l.95 1.1Q5.85 29.5 10 29.5h59.5q4 0 6.85-2.7l.2-.25q2.4-2.35 2.85-5.5l.1-1.55V10q0-3.3-1.85-5.8l-1.1-1.3Q73.65 0 69.5 0z" fill="none" stroke="url(#a)" stroke-linecap="round" stroke-linejoin="round" stroke-width="8" transform="translate(4 4)"/><path d="M73.5 4q4.15 0 7.05 2.9l1.1 1.3q1.85 2.5 1.85 5.8v9.5l-.1 1.55q-.45 3.15-2.85 5.5l-.2.25q-2.85 2.7-6.85 2.7H14q-4.15 0-7.1-2.95l-.95-1.1q-1.5-2-1.85-4.5L4 23.5V14q0-2.25.85-4.15.7-1.6 2.05-2.95Q9.85 4 14 4h59.5" fill-rule="evenodd"/><path d="M73.5 4H14Q9.85 4 6.9 6.9 5.55 8.25 4.85 9.85 4 11.75 4 14v9.5l.1 1.45q.35 2.5 1.85 4.5l.95 1.1Q9.85 33.5 14 33.5h59.5q4 0 6.85-2.7l.2-.25q2.4-2.35 2.85-5.5l.1-1.55V14q0-3.3-1.85-5.8l-1.1-1.3Q77.65 4 73.5 4z" fill="none" stroke="#fc0" stroke-linecap="round" stroke-linejoin="round" stroke-width="2"/><path d="M77.65 4.2Q79.5 6.7 79.5 10v.55l-15.45-2.1-27.6-1.3-26.15 1.6L0 10.05V10q0-2.25.85-4.15l10.4-2q11.95-1.7 28.7-1.7 19.15 0 35.7 1.8l2 .25m1.85 12.35v2.95Q41.2 15.6 0 17.55v-2l22.95-.4q13.25 0 39.3.8l17.25.6m-.1 4.5q-.45 3.15-2.85 5.5l-.2.25-22.65.8q-22.25 0-38.65-1.05l-13.1-1.1q-1.5-2-1.85-4.5 3.25.9 9.05 1.35 10.25.8 38.4.8l26.1-1.25 5.75-.8" fill="url(#b)" fill-rule="evenodd" transform="translate(4 4)"/><path d="M79.5 10.55v6l-17.25-.6q-26.05-.8-39.3-.8L0 15.55v-5.5l10.3-1.3 26.15-1.6 27.6 1.3 15.45 2.1m0 8.95-.1 1.55-5.75.8-26.1 1.25q-28.15 0-38.4-.8-5.8-.45-9.05-1.35L0 19.5v-1.95q41.2-1.95 79.5 1.95m-3.15 7.3q-2.85 2.7-6.85 2.7H10q-4.15 0-7.1-2.95l-.95-1.1 13.1 1.1q16.4 1.05 38.65 1.05l22.65-.8M.85 5.85q.7-1.6 2.05-2.95Q5.85 0 10 0h59.5q4.15 0 7.05 2.9l1.1 1.3-2-.25q-16.55-1.8-35.7-1.8-16.75 0-28.7 1.7l-10.4 2" fill="url(#c)" fill-rule="evenodd" transform="translate(4 4)"/><path d="m75.65 3.95 1.05 1.2q1.8 2.3 1.8 5.35v4.55Q39.65 19 .75 15.05V10.5q0-2.05.85-3.85.65-1.45 2-2.7 2.85-2.7 6.95-2.7h58.2q4.05 0 6.9 2.7" fill="url(#d)" fill-rule="evenodd" transform="translate(4 4)"/><path d="M79.8 10.1q-2.85-2.7-6.9-2.7H14.7q-4.1 0-6.95 2.7l-1.3 1.5-.7 1.2-.5 1.35v-.25q0-1.2.3-2.3l.55-1.55q.65-1.45 2-2.7 2.85-2.7 6.95-2.7h58.2q4.05 0 6.9 2.7l1.05 1.2q1.8 2.3 1.8 5.35v4.55l-.35.05v-1.85q0-3.05-1.8-5.35l-1.05-1.2" fill="#ffc" fill-opacity=".8" fill-rule="evenodd"/><defs><linearGradient gradientTransform="matrix(0 -.0238 .0229 0 40.75 13.5)" gradientUnits="userSpaceOnUse" id="a" spreadMethod="pad" x1="-819.2" x2="819.2"><stop offset="0" stop-color="#9b5628"/><stop offset="1" stop-color="#4a2d02"/></linearGradient><linearGradient gradientTransform="matrix(0 .0175 -.0025 0 26.45 14.75)" gradientUnits="userSpaceOnUse" id="b" spreadMethod="pad" x1="-819.2" x2="819.2"><stop offset="0" stop-color="#c18702"/><stop offset="1" stop-color="#a47200"/></linearGradient><linearGradient gradientTransform="matrix(0 .0249 -.0025 0 26.8 8.65)" gradientUnits="userSpaceOnUse" id="c" spreadMethod="pad" x1="-819.2" x2="819.2"><stop offset="0" stop-color="#ba881d"/><stop offset="1" stop-color="#815400"/></linearGradient><linearGradient gradientTransform="matrix(0 -.0096 .0101 0 39.7 9.3)" gradientUnits="userSpaceOnUse" id="d" spreadMethod="pad" x1="-819.2" x2="819.2"><stop offset="0" stop-color="#fff" stop-opacity=".4"/><stop offset="1" stop-color="#fff" stop-opacity="0"/></linearGradient></defs></svg>