<svg xmlns:ffdec="https://www.free-decompiler.com/flash" xmlns:xlink="http://www.w3.org/1999/xlink" ffdec:objectType="frame" height="33.7" width="32.95" xmlns="http://www.w3.org/2000/svg"><g transform="translate(1.5 1.85)"><use ffdec:characterId="550" height="88.05" transform="matrix(.3287 0 0 .3486 3.724 -.339)" width="68.6" xlink:href="#a"/><use ffdec:characterId="78" height="30" width="30" xlink:href="#b"/></g><defs><path d="M30 0v30H0V0h30" fill="#fff" fill-opacity="0" fill-rule="evenodd" id="b"/><g id="a"><path d="m-6-36.3 2.7-6.7 24.5 56.5-1 .3-1.65.45-1.6.5-13.45 3.9Q4.85 14.1 5.45 9.5L5.5 9l6.85-4-.1-4.1-.05-.85-6.3 3.7Q6.35-15.35-6-36.3M5.45 9.5l7.1-3.8L12.4.8l-.15.1.15-.1.15 4.9-7.1 3.8" fill="#ca0202" fill-rule="evenodd" transform="translate(34.3 44)"/><path d="M-3.3-43-6-36.3l-2.15 5.35-2.15 5.35-2.7 6.7-4.5 11.2-5.15 12.8-4.8 11.95L-32.3 29l-1-7.2 5.85-4.75-2.1-8.7 6.9-3.25-2.15-8.05 7.3-4.75-3.8-7.2 8.3-4-2.8-8.55 7.65-3.5V-43h4.85m6.8 61.65 13.45-3.9v.05q-1.6 1.6-5.75 6.95l-7.7-3.1L1.75 24l-7.2-2.8-1.85 5.55-7.1-2.95-3.65 6.95-5.3-4.35 8.95-2.6 8.95-2.6 8.95-2.55" fill="#fff" fill-rule="evenodd" transform="translate(34.3 44)"/><path d="M-6-36.3Q6.35-15.35 5.9 3.75l-.15.05L-4.7-14.25l-1.75 2.2q-1.2-6.5-3.85-13.55l2.15-5.35L-6-36.3M5.45 9.5q-.6 4.6-1.95 9.15l-8.95 2.55-8.95 2.6Q-5.8 13.3-5.45-.7v-.05l4.95 8.6-.05.05-5.15 2.95.05.05h-.05l4.05 2.4 7.1-3.8-7.1 3.8-4.05-2.4h.05l3.95 2.25L5.5 9l-.05.5m-6-1.6-4.9-8.6 4.9 8.6" fill="#fd0202" fill-rule="evenodd" transform="translate(34.3 44)"/><path d="M-10.3-25.6q2.65 7.05 3.85 13.55L-12.8-4.2l3.2 5.6.2.3.05.05L-6.4-2.3l.95 1.6-.95-1.6-2.95 4.05-.05-.05 2.95-4.15 1 1.7v.05q-.35 14-8.95 24.5l-8.95 2.6-8.95 2.6 4.85-11.95 4.8-11.95 5.15-12.8 4.5-11.2 2.7-6.7" fill="#fe4545" fill-rule="evenodd" transform="translate(34.3 44)"/><path d="m5.9 3.75 6.3-3.7.05.85L5.9 4.3l-.05-.05-10.45-18.2-8.2 9.75 6.35-7.85 1.75-2.2L5.75 3.8l.15-.05M-5.65 10.9l-.05-.05L-.55 7.9l.1.2-5.2 2.8" fill="#f9f7fd" fill-rule="evenodd" transform="translate(34.3 44)"/><path d="m-9.4 1.7-.2-.3-3.2-5.6 8.2-9.75L5.85 4.25l.05.05L12.25.9l.1 4.1L5.5 9l-7.2 4.15-3.95-2.25 5.2-2.8-.1-.2.05-.05-4.95-8.6-1-1.7L-9.4 1.7" fill="#facd1f" fill-rule="evenodd" transform="translate(34.3 44)"/><path d="m20.2 13.8 1-.3 12.1 28-1.05.35L20.2 13.8" fill="#433061" fill-rule="evenodd" transform="translate(34.3 44)"/><path d="m16.95 14.75 1.6-.5 12.1 28.2-1.6.6-12.1-28.25v-.05" fill="#473267" fill-rule="evenodd" transform="translate(34.3 44)"/><path d="m18.55 14.25 1.65-.45 12.05 28.05-1.6.6-12.1-28.2" fill="#63478d" fill-rule="evenodd" transform="translate(34.3 44)"/><path d="m31 1-2.7 6.7-2.15 5.35L24 18.4l-2.7 6.7-4.5 11.2-5.15 12.8-4.8 11.95L2 73l8.95-2.6 8.95-2.6 8.95-2.6 8.95-2.55 13.45-3.9 1.6-.5 1.65-.45 1-.3L31 1h-4.85v12.05l-7.65 3.5 2.8 8.55-8.3 4 3.8 7.2-7.3 4.75 2.15 8.05-6.9 3.25 2.1 8.7L1 65.8 2 73m8.95-2.6 5.3 4.35 3.65-6.95 7.1 2.95 1.85-5.55 7.2 2.8 1.75-5.35 7.7 3.1q4.15-5.35 5.75-6.95v-.05m15.3 27.1 1.05-.35-12.1-28m9.45 28.95 1.6-.6M51.25 58.8l12.1 28.25 1.6-.6" fill="none" stroke="#473267" stroke-linecap="round" stroke-linejoin="round" stroke-width="2"/><path d="m46.55 44.9.15-.1.15 4.9-7.1 3.8-7.1 3.8-4.05-2.4h.05l5.2-2.8-.1-.2-4.9-8.6-.95-1.6-2.95 4.05-.05-.05m-.2-.3-3.2-5.6 8.2-9.75 10.45 18.2.05.05 6.35-3.4" fill="none" stroke="#473267" stroke-linecap="round" stroke-linejoin="round" stroke-width="1.5"/><path d="M66.55 85.85 54.5 57.8m10.45 28.65-12.1-28.2" fill="none" stroke="#473267" stroke-linecap="round" stroke-linejoin="round" stroke-width=".5"/></g></defs></svg>