<svg xmlns:ffdec="https://www.free-decompiler.com/flash" xmlns:xlink="http://www.w3.org/1999/xlink" ffdec:objectType="frame" height="32.95" width="33.75" xmlns="http://www.w3.org/2000/svg"><g transform="translate(1.8)"><use ffdec:characterId="575" height="36.5" transform="matrix(-.277 0 0 .3154 17.04 2.998)" width="32.7" xlink:href="#a"/><use ffdec:characterId="575" height="36.5" transform="matrix(.3078 0 0 .3083 20.392 3.177)" width="32.7" xlink:href="#a"/><use ffdec:characterId="576" height="125.05" transform="matrix(.159 0 0 .1592 6.676 6.94)" width="121.7" xlink:href="#b"/><use ffdec:characterId="577" height="18" transform="matrix(.1008 0 0 .1241 6.482 16.634)" width="43" xlink:href="#c"/><use ffdec:characterId="577" height="18" transform="matrix(.1008 0 0 .1241 18.183 16.134)" width="43" xlink:href="#c"/><use ffdec:characterId="578" height="13.65" transform="matrix(-.1593 0 0 .1867 8.464 16.623)" width="17.4" xlink:href="#d"/><use ffdec:characterId="580" height="53.45" transform="matrix(-.1593 0 0 .1867 9.579 11.823)" width="61.9" xlink:href="#e"/><use ffdec:characterId="581" height="47.9" transform="matrix(-.1593 0 0 .1867 8.894 12.283)" width="54.1" xlink:href="#f"/><use ffdec:characterId="78" height="30" width="30" xlink:href="#g"/></g><defs><g id="a"><path d="M43.4 116.1q-.9-1.1-1.5-2.85l-.25-.75q-.2-1.45.2-2.95.4-1.5 1.5-3.05-1 1.5-1.4 3-.45 1.5-.2 2.95l.2.75q.6 1.8 1.6 2.9h-.15" fill="#cbbaf2" fill-rule="evenodd" transform="translate(-40.1 -86.7)"/><path d="M51.55 112.2q.3 2.1-1.7 3.5l-.3.15q-1.95.4-3.4-.05l-1.5-.85q-1.05-.9-1.65-2.6-.6-5.1 5.95-10.15l1.35-1.05q4.75-3.9 7.45-8.45 1.85-4 4.9-3 5.4 5.05-2.75 17.2l-1.4 2.05q4.1-1.1 6.85-5.9l.1-.35 1.35-2.9q4.3.8 1.95 7.3-2.35 6.5-13.45 7.65 2.5 2.3 7.8 1.65-.6 4.15-6.45 4.25-4.5-.5-6.15-1.75 2.35-.75 2.6-4.15-.25-3.05-1.95-4.05l.35 1.25-.6-.9-.95-.65q-.8-.45-1.75-.45-1.05 0-1.85.5l1.8-.4q1.55 0 2.7 1.05l.6.9.1.2-.1-.2-.6-.9q-1.15-1.05-2.7-1.05l-1.8.4q.8-.5 1.85-.5.95 0 1.75.45l.95.65.6.9.05.25m7.1-18.2q-2.55 6.45-8.5 9.45-4.35 2.15-6.1 5.95-.8 5.45 3.75 5.55 2.8-.5 2.05-2.75-2.55-2.8-3.35.9-2.65-2.6-.05-4.6l5.05-.3 1.05.3q2.6 1.5 1.5 5.95l2.6-1.05q1.7.3 5.45-1.05 4-1.45 6.15-7 .9-3.7-.85-3.55-3.25 8.35-11 8.65.55-2.8 3.15-6l.1-.1.1-.15q4.7-5.75 2.35-11.7-1.9-2.1-3.45 1.5" fill="#e2dbf9" fill-rule="evenodd" transform="translate(-40.1 -86.7)"/><path d="m43.35 106.5 2.65-3.1 2-1.75.05-.05.35-.25.35-.25.15-.1 2.5-2.2 5.05-6.3.95-1.6q1.85-2.75 4.9-2.7 2.1.2 3.3 2.4.9 3.4.3 6.75 5.5.5 5.4 6.2l-.7 3.2-.35.9-2.15 3.2-1.45 1.25-1.75 1v.05l-.15 1.5-.15.85-.15.5-.45 1.55-.45.8-.4.7-1.05 1.1-1.6 1-1 .25-1.1.3-4.6-.2q-5.25-.95-7.35-3.8h.1l1.95-.15h.25q1.2-.2 2.15-1.05l.75-1.1v-.1l-.7 1.1q-.95.9-2.15 1.1l-2.3.15q-1.8-.2-2.95-1.55-1-1.1-1.6-2.9l-.2-.75q-.25-1.45.2-2.95.4-1.5 1.4-3m8.2 5.7q.35.7.35 1.6v.35l-.15.95-.1.2.1-.2.15-.95v-.35q0-.9-.35-1.6l-.05-.25-.35-1.25q1.7 1 1.95 4.05-.25 3.4-2.6 4.15 1.65 1.25 6.15 1.75 5.85-.1 6.45-4.25-5.3.65-7.8-1.65 11.1-1.15 13.45-7.65 2.35-6.5-1.95-7.3l-1.35 2.9-.1.35q-2.75 4.8-6.85 5.9l1.4-2.05q8.15-12.15 2.75-17.2-3.05-1-4.9 3-2.7 4.55-7.45 8.45l-1.35 1.05q-6.55 5.05-5.95 10.15.6 1.7 1.65 2.6l1.5.85q1.45.45 3.4.05l.3-.15q2-1.4 1.7-3.5M65.9 97.35v.1h-.05q.6-3.45-.35-6.8-1.1-2.2-3.2-2.4-3 0-4.9 2.65 1.9-2.65 4.9-2.65 2.1.2 3.2 2.4.95 3.35.35 6.8h.05v-.1m-14 16.8.05-.4q0-1-.45-1.8.45.8.45 1.8l-.05.4m13-1-.1.05q-3.3 1.6-8.3 1.95h-.2l-.25-.15.45.1q5.05-.35 8.4-2-3.35 1.65-8.4 2l-.45-.1.25.15h.2q5-.35 8.3-1.95l.1-.05m.95-15.7-.5 1.9-.75 1.9q-1.65 3.45-5 6.95 3.35-3.5 5-6.95l.75-1.9.5-1.9M48 101.65l.4-.3-.4.3m17.35-2.3.55-1.9q5.45.45 5.35 6.15l-.65 3.15.65-3.15q.1-5.7-5.35-6.15l-.55 1.9m-.9 16.65-.5 1.6-.4.75.4-.75.5-1.6m.35-2.8-.05 1.45.05-1.45m-5.3 8.2-1 .25-4.7-.2q-5.15-.95-7.25-3.75 2.1 2.8 7.25 3.75l4.7.2 1-.25m-7.75-6.3-.1.25.1-.25" fill="#c3b0f1" fill-rule="evenodd" transform="translate(-40.1 -86.7)"/><path d="M58.65 94q1.55-3.6 3.45-1.5 2.35 5.95-2.35 11.7l-.1.15-.1.1q-2.6 3.2-3.15 6 7.75-.3 11-8.65 1.75-.15.85 3.55-2.15 5.55-6.15 7-3.75 1.35-5.45 1.05l-2.6 1.05q1.1-4.45-1.5-5.95l-1.05-.3-5.05.3q-2.6 2 .05 4.6.8-3.7 3.35-.9.75 2.25-2.05 2.75-4.55-.1-3.75-5.55 1.75-3.8 6.1-5.95 5.95-3 8.5-9.45" fill="#f9f7fd" fill-rule="evenodd" transform="translate(-40.1 -86.7)"/><path d="m46.5 117.65 2.3-.15q1.2-.2 2.15-1.1l.7-1.1v.1l-.75 1.1q-.95.85-2.15 1.05h-.25l-1.95.15-.05-.05" fill="url(#h)" fill-rule="evenodd" transform="translate(-40.1 -86.7)"/><path d="m3.25 19.8 2.65-3.1 2-1.75.05-.05.35-.25.35-.25.15-.1 2.5-2.2 5.05-6.3.95-1.6q1.85-2.75 4.9-2.7 2.1.2 3.3 2.4.9 3.4.3 6.75 5.5.5 5.4 6.2l-.7 3.2-.35.9-2.15 3.2-1.45 1.25-1.75 1.05-.15 1.5-.15.85-.15.5-.45 1.55-.45.8-.4.7-1.05 1.1-1.6 1-1 .25-1.1.3-4.6-.2q-5.25-.95-7.35-3.8-1.8-.2-3.05-1.6-.9-1.1-1.5-2.85l-.25-.75q-.2-1.45.2-2.95.4-1.5 1.5-3.05-1 1.5-1.4 3-.45 1.5-.2 2.95l.2.75q.6 1.8 1.6 2.9 1.15 1.35 2.95 1.55l2.3-.15q1.2-.2 2.15-1.1l.7-1.1.1-.2.15-.95v-.35q0-.9-.35-1.6l-.1-.2-.6-.9q-1.15-1.05-2.7-1.05l-1.8.4q.8-.5 1.85-.5.95 0 1.75.45l.95.65.6.9q.45.8.45 1.8l-.05.4M17.3 4.2q1.9-2.65 4.9-2.65 2.1.2 3.2 2.4.95 3.35.35 6.8h.05v-.1M19.5 21.5q3.35-3.5 5-6.95l.75-1.9.5-1.9M24.8 26.4q-3.35 1.65-8.4 2l-.45-.1.25.15h.2q5-.35 8.3-1.95l.1-.05v-.05l1.75-1m-1.9 2.55.05-1.45m-1.25 5.15.4-.75.5-1.6m6.15-9.25.65-3.15q.1-5.7-5.35-6.15l-.55 1.9m-16.95 2-.4.3m3.65 13.7v.05l-.75 1.1q-.95.85-2.15 1.05H8.4L6.45 31q2.1 2.8 7.25 3.75l4.7.2 1-.25M3.45 29.4H3.3M6.45 31h-.1m.1 0-.05-.05m5.15-2.3.1-.25" fill="none" stroke="#473267" stroke-linecap="round" stroke-linejoin="round" stroke-width="3"/><path d="M44.65 114.95q-1.05-.9-1.65-2.6-.6-5.1 5.95-10.15l1.35-1.05q4.75-3.9 7.45-8.45 1.85-4 4.9-3 5.4 5.05-2.75 17.2l-1.4 2.05q4.1-1.1 6.85-5.9l.1-.35 1.35-2.9q4.3.8 1.95 7.3-2.35 6.5-13.45 7.65 2.5 2.3 7.8 1.65-.6 4.15-6.45 4.25-4.5-.5-6.15-1.75 2.35-.75 2.6-4.15-.25-3.05-1.95-4.05l.35 1.25q.45 2.3-1.65 3.75l-.3.15q-1.95.4-3.4-.05l-1.5-.85m1.7-4.5q.8-.5 1.85-.5.95 0 1.75.45l.95.65.6.9-.6-.9-.95-.65q-.8-.45-1.75-.45-1.05 0-1.85.5M58.65 94q-2.55 6.45-8.5 9.45-4.35 2.15-6.1 5.95-.8 5.45 3.75 5.55 2.8-.5 2.05-2.75-2.55-2.8-3.35.9-2.65-2.6-.05-4.6l5.05-.3 1.05.3q2.6 1.5 1.5 5.95l2.6-1.05q1.7.3 5.45-1.05 4-1.45 6.15-7 .9-3.7-.85-3.55-3.25 8.35-11 8.65.55-2.8 3.15-6l.1-.1.1-.15q4.7-5.75 2.35-11.7-1.9-2.1-3.45 1.5" fill="#e2dbf9" fill-rule="evenodd" transform="translate(-40.1 -86.7)"/><path d="M58.65 94q1.55-3.6 3.45-1.5 2.35 5.95-2.35 11.7l-.1.15-.1.1q-2.6 3.2-3.15 6 7.75-.3 11-8.65 1.75-.15.85 3.55-2.15 5.55-6.15 7-3.75 1.35-5.45 1.05l-2.6 1.05q1.1-4.45-1.5-5.95l-1.05-.3-5.05.3q-2.6 2 .05 4.6.8-3.7 3.35-.9.75 2.25-2.05 2.75-4.55-.1-3.75-5.55 1.75-3.8 6.1-5.95 5.95-3 8.5-9.45" fill="#f9f7fd" fill-rule="evenodd" transform="translate(-40.1 -86.7)"/><path d="m44.65 114.95 1.5.85q1.45.45 3.4.05l.3-.15q2.1-1.45 1.65-3.75.45.8.45 1.8l-.3 1.55-.7 1.1q-.95.9-2.15 1.1l-2.3.15q-1.8-.2-2.95-1.55-1-1.1-1.6-2.9l-.2-.75q-.25-1.45.2-2.95.45 3.7 2.7 5.55v-.1" fill="url(#i)" fill-rule="evenodd" transform="translate(-40.1 -86.7)"/><path d="m51.5 111.95-.6-.9-.95-.65q-.8-.45-1.75-.45-1.05 0-1.85.5m-4.4-.95q1-3.8 6.1-7.9l3.35-2.8q3.4-3.3 5.65-7.35 1.9-3.3 5.25-3.25 2.1.2 3.3 2.4.9 3.4.3 6.75 5.5.5 5.4 6.2-.7 6.7-6.4 9.55l-.25 2.1-.65 2.35q-1.5 3.5-5.5 4.1l-4.7-.2q-5.2-.95-7.3-3.8-1.8-.2-2.95-1.55-1-1.1-1.6-2.9l-.2-.75q-.25-1.45.2-2.95m4.55 8.15 2.3-.15q1.2-.2 2.15-1.1l.7-1.1.3-1.55q0-1-.45-1.8m4.55 3.05.45.1q5.05-.35 8.4-2m1-15.75q-1.05 5.4-6.3 10.85" fill="none" stroke="#624293" stroke-linecap="round" stroke-linejoin="round" stroke-opacity=".671" transform="translate(-40.1 -86.7)"/><path d="M19.4 21.55q5.3-5.4 6.35-10.8.6-3.45-.35-6.8-1.1-2.2-3.2-2.4-3.35 0-5.3 3.25-2.25 4.05-5.65 7.35L8.1 14.8l-.2.15q-5.1 4.1-6.15 7.9-.4 1.5-.2 2.95l.25.75q1.35 4.1 4.55 4.45l2.3-.15q1.2-.2 2.15-1.05l.75-1.15.25-1.55q0-1-.45-1.8l-.6-.9q-1.15-1.05-2.7-1.05-1.05 0-1.85.45m9.65 4.55.35.1h.2q5-.35 8.3-1.95 5.75-2.9 6.45-9.6.1-5.7-5.4-6.15M6.35 31q2.1 2.85 7.35 3.8l4.6.2q4.05-.6 5.55-4.1l.7-2.35.15-2.05" fill="none" stroke="#473267" stroke-linecap="round" stroke-linejoin="round" stroke-width="3"/></g><g id="b"><path d="m-28.1-49.85-.2.2-.2.2-.2.2-.15.2-.2.2-.2.2-.2.2-.2.2-.15.2-.1.2-.1.15-.05.2-.05.2v1.2l.05.2.05.2.1.15.1.2.15.2.2.2.2.2.4.2.45.15.25.05.2.05.3.1.4.05h1.05l.4-.05.3-.1.3-.05.25-.05.45-.15.6-.2.55-.2.5-.1.25-.1.25-.05.4-.15.4-.2.35-.15.55-.2.5-.2.4-.2.25-.2.35-.2.25-.2.35-.2.25-.2.4-.2.3-.2.2-.15.2-.2.2-.2.1-.2.3-.2.2-.2.3-.2.35-.2.2-.2.1-.2.15-.2.1-.15.1-.2.1-.2.1-.2.05-.2.05-.2.05-.2v-.95l-.05-.2-.05-.2-.05-.2-.15-.2-.15-.2-.1-.2-.2-.2-.2-.2-.2-.2-.25-.2-.35-.2-.45-.1-.4-.05H-21v.05h-.4l-.45.1-.35.2-.4.2-.4.2-.4.2-.4.2-.25.2-.25.2-.4.2-.4.2-.2.2-.2.2-.25.15-.3.2-.35.2-.2.2-.2.2-.2.2-.2.2-.1.2-.2.2-.2.2-.2.2-.2.15m14.8-9.5q1.95-.25 1.9 2.05l-.15 2.8q2.85 0 4.9 2.05 2.1 2.1 2.1 5t-2.1 4.95q-2.05 2.1-4.95 2.1-2.65 0-4.65-1.75Q-19-37.3-23.5-33.8l-2.6 1.85q-4.1 2.6-8.9 2.95l-5 .35q-2.85.1-5.4-.85-3.65-1.35-4.95-4.2 6.75-11.25 17.85-18.6 7.6-5.1 19.05-7l.1-.05h.05M-55.35 26l1.35.95q1.75 0 1.15 2.3-.8 2.2-3.7 1.4-.4-3.1 1.2-4.65m67.95-1.85.4-.2.25-.1.3-.1h.4v-.05h.5l.4.05.45.15.35.2.25.2.2.2.2.15.15.2.1.2.1.2.05.2.05.2.05.2v1l-.05.15-.05.2-.05.2-.15.2-.15.2-.1.2-.2.2-.35.2-.25.1-.3.1-.4.05h-1.3l-.4-.05-.45-.15-.4-.2-.2-.2-.2-.2-.15-.2-.1-.15-.05-.2-.1-.2-.05-.2v-1.2l.05-.2.1-.15.05-.2.1-.2.15-.2.2-.2.2-.2.4-.2" fill="#fdedac" fill-rule="evenodd" transform="translate(60.85 62.55)"/><path d="m-28.1-49.85.2-.15.2-.2.2-.2.2-.2.1-.2.2-.2.2-.2.2-.2.2-.2.35-.2.3-.2.25-.15.2-.2.2-.2.4-.2.4-.2.25-.2.25-.2.4-.2.4-.2.4-.2.4-.2.35-.2.45-.1h.4v-.05h3.65l.4.05.45.1.35.2.25.2.2.2.2.2.2.2.1.2.15.2.15.2.05.2.05.2.05.2v.95l-.05.2-.05.2-.05.2-.1.2-.1.2-.1.2-.1.15-.15.2-.1.2-.2.2-.35.2-.3.2-.2.2-.3.2-.1.2-.2.2-.2.2-.2.15-.3.2-.4.2-.25.2-.35.2-.25.2-.35.2-.25.2-.4.2-.5.2-.55.2-.35.15-.4.2-.4.15-.25.05-.25.1-.5.1-.55.2-.6.2-.45.15-.25.05-.3.05-.3.1-.4.05h-1.05l-.4-.05-.3-.1-.2-.05-.25-.05-.45-.15-.4-.2-.2-.2-.2-.2-.15-.2-.1-.2-.1-.15-.05-.2-.05-.2v-1.2l.05-.2.05-.2.1-.15.1-.2.15-.2.2-.2.2-.2.2-.2.2-.2.15-.2.2-.2.2-.2.2-.2" fill="#fff" fill-rule="evenodd" transform="translate(60.85 62.55)"/><path d="m-6.95-60.1 3.2.55Q1.7-59.4 13.2-50l10.55 8.8Q38.4-18.85 34.85-7.15q-3.6 11.7-7.3 16.25-3.7 4.55-6.4 6.5l-6.2 4.35q-3.35 2.5-7 4.5Q-.9 29-10.8 29.5q-9.75.55-19.25-1.5-5.15-1.1-9.65-3.6-7.95-12.2-14.25-25.35l.3 2.5q1.7 10 7.05 18.85l-7.75-5.1-.35-.95Q-57 8.25-58 1.25q-2.25-15.35 4.9-29.95l2.75-5q1.3 2.85 4.95 4.2 2.55.95 5.4.85l5-.35q4.8-.35 8.9-2.95l2.6-1.85q4.5-3.5 7.25-8.35 2 1.75 4.65 1.75 2.9 0 4.95-2.1 2.1-2.05 2.1-4.95 0-2.9-2.1-5-2.05-2.05-4.9-2.05l.15-2.8q.05-2.3-1.9-2.05l6.3-.75.5.3-.45-.3m9.3 32.45-.3.05-.3.15-.3.2-.2.15-.25.2-.35.2-.2.2-.2.2-.1.2-.15.2-.15.2-.15.2-.15.2-.2.2-.2.15-.1.2-.1.2-.05.2-.05.2v1.55l.05.2.05.2.1.2.1.2.2.2.2.2.25.2.4.2.4.2.45.1.4.05h.75l.4-.05.35-.05.25-.15.4-.2.3-.2.3-.15.15-.2.2-.2.2-.2.4-.2.25-.2.2-.2.15-.2.2-.2.1-.2.1-.2.1-.15.15-.2.05-.2.05-.2.1-.2.05-.2v-1l-.05-.2-.1-.15-.05-.2-.1-.2-.15-.2-.15-.2-.1-.2-.2-.2-.25-.2-.35-.2-.45-.1-.4-.1H2.75v.1h-.4m10.9 10.8-.4.05-.35.1-.3.05-.35.15-.5.2-.8.1-.4.05-.3.1-.2.05-.4.05-.4.1-.45.1-.4.2-.45.15-.45.1-.4.2-.2.2-.15.2-.15.2-.15.2-.05.2-.05.2v.1l-.1-.05v.05H5.5l-.35.1-.15.05-.25.15-.25.15-.2.2-.2.2-.1.2-.1.2-.05.2-.05.2v.8l.05.2.05.15.1.2.1.2.2.2.2.2.2.2.2.2.2.2.3.2.35.2.2.2.2.15.2.2.15.2.4.2.25.2.35.2.25.2.25.2.2.2.2.2.2.2.2.15.2.2.2.2.2.2.2.2.2.2.2.2.15.2.2.2.4.2.45.1.4.1.4-.1.45-.1.35-.2.25-.2.2-.2.1-.2.05-.05-.15-.15-.2-.2-.2-.2-.2-.2-.2-.2-.2-.15-.1-.2-.15-.2-.35-.2-.15-.2-.2-.2-.2-.2-.2-.2-.15-.2-.05-.2-.05-.2L10.5-9l-.05-.2-.15-.2-.15-.2-.05-.2v-.2l-.05-.2v-.95l-.25-.2-.3-.2.2-.1.3-.1.2-.05.05-.15.1-.2.15-.2.2-.2.2-.2.4-.2.45-.1h.4v-.1l.35.1.25.05.15-.15.35-.2.25-.1.3-.05.4-.1 1.25-.05.15-.05.3-.1.55-.1.5-.15.4-.05.65-.15.5-.1.35-.1.6-.1.35-.15.2-.05.3-.1.25-.05.25-.05.45-.15.65-.2.55-.1.3-.1.4-.05.3-.05.35-.05.3-.1.35-.05.2-.05v-.3l-.05-.15v-.2l-.1-.2-.1-.2-.1-.2-.1-.2-.2-.2-.25-.2-.35-.2-.45-.1-.4-.1h-3.4v.1h-.35l-.55.1-.65.2-.45.15-.25.05-.25.05-.3.1-.25.05-1.1.05-.4.1-.3.05-.3.05-.25.05-.25.1-.25.05m11.9-1-2.2-.2-1.95-.1h-1.85l-5.55.65-4.05 1.2-1.2.4-1.7.75Q4-14 1.6-12.35l9.3 9.25-9.3-9.25Q4-14 6.65-15.15l1.7-.75 1.2-.4 4.05-1.2 5.55-.65H21l1.95.1 2.2.2m-44.9-6.95-.15-.2-.1-.2-.15-.2-.1-.2-.15-.2-.15-.15-.15-.2-.2-.2-.2-.2-.2-.2-.15-.2-.2-.2-.25-.2-.3-.2-.5-.1-.35-.1h-1.6v.1h-.4l-.45.1-.35.2-.3.2-.3.2-.2.2-.2.2-.2.2-.15.2-.1.2-.05.15-.1.2-.05.2v1l.05.2.1.2.05.2.1.2.15.15.05.2.15.2.05.2.15.2.15.2.15.2.2.2.2.2.2.2.2.2.2.15.4.2.25.2.25.2.4.2.4.2.45.15.4.05h1.3l.4-.05.45-.15.3-.2.3-.2.15-.2.2-.2.15-.2.15-.15.05-.2.05-.2.1-.2.05-.2v-1.2l-.05-.15v-.2l-.1-.2-.1-.2-.1-.2-.1-.2-.15-.2m-10.4 8.3-.35-.2-.35-.2-.45-.2-.45-.2-.25-.2-.25-.2-.25-.2-.2-.2-.35-.2-.4-.2-.2-.15-.1-.2-.2-.2-.25-.2-.4-.2-.4-.2-.45-.15-.4-.05h-.5v.05h-.3v.1l.15.2.15.2.05.15.2.2.2.2.2.2.2.2.1.2.1.2.1.2.05.2.15.2.05.2.15.15.25.2.2.2.2.2.15.2.05.2.15.2.15.2.2.2.15.2.15.2.05.15.1.2.1.2.05.2.05.2.1.2v.4l-.1.2v.05l.3.15.25.2.25.2.25.15.4.2.4.2.05.05-.2.05-.25.05-.25.05-.15.05-.25.15-.35.2-.1.1v.15l-.05.2-.1.2-.05.2-.15.2-.1.2-.15.2-.2.2-.25.15-.2.2-.1.2-.2.2-.35.2-.3.2-.2.2-.2.2-.2.2-.2.2-.2.2-.35.2-.25.15-.25.2-.2.2-.2.2-.25.2-.2.2-.15.2-.15.2-.3.2-.2.2-.1.2-.2.15-.35.2-.1.15.3.05.4.1h.8l.4-.1.3-.05.25-.15.65-.2.4-.15.35-.2.55-.2.55-.2.4-.2.4-.2.25-.2.25-.2.4-.1.4-.15.35-.2.4-.2.4-.2.35-.2.3-.2.4-.1.25-.1.4-.1.4-.2.25-.2.35-.2.25-.2.2-.2.1-.2.15-.2.1-.15.05-.1.3-.05.35-.05.1-.1.25-.1.3-.2.15-.2.15-.2.15-.2.05-.2.05-.2.1-.2.05-.2v-.35l-.05-.2-.1-.2-.05-.2-.05-.2-.1-.2-.1-.2-.1-.2-.1-.2-.2-.2-.2-.15-.3-.2-.4-.2-.4-.2-.2-.2-.2-.2-.25-.2-.45-.2-.55-.2-.4-.2-.25-.2-.25-.15-.3-.2M-11.6-3.95l-.25-.25.25.25-6.95 7.55 14.6.1-7.65-7.65m-25.9.8 15.25-7.5Q-22.7-12-24.8-13.5l-1.05-.7-.5-.35-1.45-.95-8.35-5.35 8.35 5.35 1.45.95.5.35 1.05.7q2.1 1.5 2.55 2.85l-15.25 7.5m36.4 9.7L-3.95 3.7l2.85 2.85m-20-.25 2.55-2.7-2.55 2.7" fill="#fbda59" fill-rule="evenodd" transform="translate(60.85 62.55)"/><path d="M-3.75-59.55q.3-.95 3.95.85 7.5.4 16.05 6.25 9.5 4.4 16.2 14.9 2.05 1.1 8 15.9Q46.4-6.9 38.4 11.3q-7.95 18.15-8 17.5v.05q-.25.3-.6.25l-.9-.75-.45-.45q-5 .65-9.7 3.45-2.5 1.45-5.5 1.3-4.05-.45-6.3-3.85.25 3.65 4.9 6.3 1.8 1.05 3.7 1.3v1.05q2.15 1.4 4.65 1.85 4.05.7 7.8-1l1.15 2.5q8.6 17.15 25.95 9.75l1.25-.55-1.25.55-.25-.75 1.5.2q2 .15 2.5-1 .15 6.05-7.1 9.8-7.25 3.7-18.05-.6l-3.9-1.4q-4.55-2.4-8.75-5.8-4.65-3.75-6.95-4.85-2.35-1.15-5.6-.4l-8.4.8h-10.25q-5-.1-9.5-1.85l-6.5-1.7q-8.4-2.65-14.8-8.15l-3.45-3.5-1.35-1.4 1.35 1.4q-1.7 3.15-4.15 4.15l-3.45.25q-4.7.25-6.7-3.75l-.1-.5-.05-1.15q.55 1.75 2.3 2.05l3.55.35q2.05 0 3.35-1.2L-47 28.4l-.5-.65-2.9-4.35-.1-.15q-2.25-3.8-3.85-7.95l7.75 5.1q6.1 10.55 16.8 15.55l4.1 1.6q-8.35-5.2-14-13.15 4.5 2.5 9.65 3.6 9.5 2.05 19.25 1.5 9.9-.5 18.75-5.05 3.65-2 7-4.5l6.2-4.35q2.7-1.95 6.4-6.5t7.3-16.25q3.55-11.7-11.1-34.05L13.2-50Q1.7-59.4-3.75-59.55m17 42.7.25-.05.25-.1.25-.05.3-.05.3-.05.4-.1 1.1-.05.25-.05.3-.1.25-.05.25-.05.45-.15.65-.2.55-.1h.35v-.1h3.4l.4.1.45.1.35.2.25.2.2.2.1.2.1.2.1.2.1.2v.2l.05.15v.3l-.2.05-.35.05-.3.1-.35.05-.3.05-.4.05-.3.1-.55.1-.65.2-.45.15-.25.05-.25.05-.3.1-.2.05-.35.15-.6.1-.35.1-.5.1-.65.15-.4.05-.5.15-.55.1-.3.1-.15.05-1.25.05-.4.1-.3.05-.25.1-.35.2-.15.15-.25-.05-.35-.1v.1h-.4l-.45.1-.4.2-.2.2-.2.2-.15.2-.1.2-.05.15-.2.05-.3.1-.2.1.3.2.25.2v.95l.05.2v.2l.05.2.15.2.15.2.05.2.15.15.05.2.05.2.15.2.2.2.2.2.2.2.15.2.35.2.15.2.1.2.2.15.2.2.2.2.2.2.2.2.15.15-.05.05-.1.2-.2.2-.25.2-.35.2-.45.1-.4.1-.4-.1-.45-.1-.4-.2-.2-.2-.15-.2-.2-.2-.2-.2-.2-.2-.2-.2-.2-.2-.2-.2-.2-.15-.2-.2-.2-.2-.2-.2-.25-.2-.25-.2-.35-.2-.25-.2-.4-.2-.15-.2-.2-.2-.2-.15-.2-.2-.35-.2-.3-.2-.2-.2-.2-.2-.2-.2-.2-.2-.2-.2-.1-.2-.1-.2-.05-.15-.05-.2v-.8l.05-.2.05-.2.1-.2.1-.2.2-.2.2-.2.25-.15.25-.15.15-.05.35-.1h.35v-.05l.1.05v-.1l.05-.2.05-.2.15-.2.15-.2.15-.2.2-.2.4-.2.45-.1.45-.15.4-.2.45-.1.4-.1.4-.05.2-.05.3-.1.4-.05.8-.1.5-.2.35-.15.3-.05.35-.1.4-.05M7 27.45q.15-1.4.9-2.9l.05-.1-.05.1q-.75 1.5-.9 2.9M-7-60.1h.05l.45.3-.5-.3m-23.15 43.6.3.2.25.15.25.2.4.2.55.2.45.2.25.2.2.2.2.2.4.2.4.2.3.2.2.15.2.2.1.2.1.2.1.2.1.2.05.2.05.2.1.2.05.2v.35l-.05.2-.1.2-.05.2-.05.2-.15.2-.15.2-.15.2-.3.2-.25.1-.1.1-.35.05-.3.05-.05.1-.1.15-.15.2-.1.2-.2.2-.25.2-.35.2-.25.2-.4.2-.4.1-.25.1-.4.1-.3.2-.35.2-.4.2-.4.2-.35.2-.4.15-.4.1-.25.2-.25.2-.4.2-.4.2-.55.2-.55.2-.35.2-.4.15-.65.2-.25.15-.3.05-.4.1h-.8l-.4-.1-.3-.05.1-.15.35-.2.2-.15.1-.2.2-.2.3-.2.15-.2.15-.2.2-.2.25-.2.2-.2.2-.2.25-.2.25-.15.35-.2.2-.2.2-.2.2-.2.2-.2.2-.2.3-.2.35-.2.2-.2.1-.2.2-.2.25-.15.2-.2.15-.2.1-.2.15-.2.05-.2.1-.2.05-.2v-.15l.1-.1.35-.2.25-.15.15-.05.25-.05.25-.05.2-.05-.05-.05-.4-.2-.4-.2-.25-.15-.25-.2-.25-.2-.3-.15v-.05l.1-.2v-.4l-.1-.2-.05-.2-.05-.2-.1-.2-.1-.2-.05-.15-.15-.2-.15-.2-.2-.2-.15-.2-.15-.2-.05-.2-.15-.2-.2-.2-.2-.2-.25-.2-.15-.15-.05-.2-.15-.2-.05-.2-.1-.2-.1-.2-.1-.2-.2-.2-.2-.2-.2-.2-.2-.2-.05-.15-.15-.2-.15-.2v-.1h.3v-.05h.5l.4.05.45.15.4.2.4.2.25.2.2.2.1.2.2.15.4.2.35.2.2.2.25.2.25.2.25.2.45.2.45.2.35.2.35.2m-15.6 46.45L-47 28.4l1.25 1.55m63.6-7.55-1.3.35-3.4.65q-1.9.2-2.8 1.9-1.4 2.6 1.2 4.15 1.25.7 2.75.6 2.65-.25 5.05-1.5l1.8-1.45.8-1.45q.7-2.4-1.55-3l-2.55-.25" fill="#facd1f" fill-rule="evenodd" transform="translate(60.85 62.55)"/><path d="M2.35-27.65h.4v-.1H4.3l.4.1.45.1.35.2.25.2.2.2.1.2.15.2.15.2.1.2.05.2.1.15.05.2v1l-.05.2-.1.2-.05.2-.05.2-.15.2-.1.15-.1.2-.1.2-.2.2-.15.2-.2.2-.25.2-.4.2-.2.2-.2.2-.15.2-.3.15-.3.2-.4.2-.25.15-.35.05-.4.05h-.75l-.4-.05-.45-.1-.4-.2-.4-.2-.25-.2-.2-.2-.2-.2-.1-.2-.1-.2-.05-.2-.05-.2v-1.55l.05-.2.05-.2.1-.2.1-.2.2-.15.2-.2.15-.2.15-.2.15-.2.15-.2.1-.2.2-.2.2-.2.35-.2.25-.2.2-.15.3-.2.3-.15.3-.05m54.6 22.7q-.55-2.3-.15-4.45l.15 3L57-4.95h-.05m-76.7-19.85.15.2.1.2.1.2.1.2.1.2v.2l.05.15v1.2l-.05.2-.1.2-.05.2-.05.2-.15.15-.15.2-.2.2-.15.2-.3.2-.3.2-.45.15-.4.05h-1.3l-.4-.05-.45-.15-.4-.2-.4-.2-.25-.2-.25-.2-.4-.2-.2-.15-.2-.2-.2-.2-.2-.2-.2-.2-.15-.2-.15-.2-.15-.2-.05-.2-.15-.2-.05-.2-.15-.15-.1-.2-.05-.2-.1-.2-.05-.2v-1l.05-.2.1-.2.05-.15.1-.2.15-.2.2-.2.2-.2.2-.2.3-.2.3-.2.35-.2.45-.1h.4v-.1h1.6l.35.1.5.1.3.2.25.2.2.2.15.2.2.2.2.2.2.2.15.2.15.15.15.2.1.2.15.2.1.2.15.2m-21.2 59.65q-7.7 6.4-12.4 3.8-4.45-2.5-5.35-6.65 2 4 6.7 3.75l3.45-.25q2.45-1 4.15-4.15l3.45 3.5M45.3 43.6h.05l.75 1.55q1.05 1.65 3.2 2.6l1.65.7q-3.3-.75-4.9-3.25l-.75-1.6" fill="#be9905" fill-rule="evenodd" transform="translate(60.85 62.55)"/><path d="M56.95-4.95H57q.05 19.15-7.95 33.75-5.35 9.75-3.7 14.8h-.05q-1.1-1-1.65-2.2-1-2.2-1.2-5.85-.2-3.65 2.2-7.55 2.35-4 1.75-2.75-.65 1.2 1.1-1.55 1.7-2.75 4-8.95L55.1 4.1q1.35-4.45 1.85-9.05" fill="#fad238" fill-rule="evenodd" transform="translate(60.85 62.55)"/><path d="M-58.85 30.35q.1-2.6 2.5-3.85l2.9-1.45 2.95-1.8.1.15 2.9 4.35.5.65-2.65 3.15q-1.3 1.2-3.35 1.2l-3.55-.35q-1.75-.3-2.3-2.05m3.5-4.35q-1.6 1.55-1.2 4.65 2.9.8 3.7-1.4.6-2.3-1.15-2.3l-1.35-.95m67.95-1.85-.4.2-.2.2-.2.2-.15.2-.1.2-.05.2-.1.15-.05.2v1.2l.05.2.1.2.05.2.1.15.15.2.2.2.2.2.4.2.45.15.4.05h1.3l.4-.05.3-.1.25-.1.35-.2.2-.2.1-.2.15-.2.15-.2.05-.2.05-.2.05-.15v-1l-.05-.2-.05-.2-.05-.2-.1-.2-.1-.2-.15-.2-.2-.15-.2-.2-.25-.2-.35-.2-.45-.15-.4-.05h-.5v.05h-.4l-.3.1-.25.1-.4.2m5.25-1.75 2.55.25q2.25.6 1.55 3l-.8 1.45-1.8 1.45q-2.4 1.25-5.05 1.5-1.5.1-2.75-.6-2.6-1.55-1.2-4.15.9-1.7 2.8-1.9l3.4-.65 1.3-.35" fill="#fbdb62" fill-rule="evenodd" transform="translate(60.85 62.55)"/><path d="m-11.6-3.95 7.65 7.65-14.6-.1 6.95-7.55" fill="#f33" fill-rule="evenodd" transform="translate(60.85 62.55)"/><path d="M-46.6 20.4q-5.35-8.85-7.05-18.85l-.3-2.5q6.3 13.15 14.25 25.35 5.65 7.95 14 13.15l-4.1-1.6q-10.7-5-16.8-15.55" fill="#fde99b" fill-rule="evenodd" transform="translate(60.85 62.55)"/><path d="M-6.95-60.1q7.5-.5 13.3-.3l5.75.45q5.5.6 10.3 2.05Q36-53.8 44.1-43 55.5-27.8 56.8-9.4q-.4 2.15.15 4.45-.5 4.6-1.85 9.05l-3.6 10.65q-2.3 6.2-4 8.95-1.75 2.75-1.1 1.55Q47 24 44.65 28q-2.4 3.9-2.2 7.55.2 3.65 1.2 5.85.55 1.2 1.65 2.2l.75 1.6q1.6 2.5 4.9 3.25l3.9 1.35.25.75q-17.35 7.4-25.95-9.75L28 38.3q-3.75 1.7-7.8 1-2.5-.45-4.65-1.85V36.4q-1.9-.25-3.7-1.3-4.65-2.65-4.9-6.3 2.25 3.4 6.3 3.85 3 .15 5.5-1.3 4.7-2.8 9.7-3.45l.45.45.9.75q.35.05.6-.25v-.05q.05.65 8-17.5 8-18.2 2.05-32.95-5.95-14.8-8-15.9-6.7-10.5-16.2-14.9Q7.7-58.3.2-58.7q-3.65-1.8-3.95-.85l-3.2-.55M28.9 30.2q-3.75 4.5-10.5 6.05l-2.85.15 2.85-.15q6.75-1.55 10.5-6.05m-48.55 14.5q4.5 1.75 9.5 1.85H.1l8.4-.8q3.25-.75 5.6.4 2.3 1.1 6.95 4.85 4.2 3.4 8.75 5.8-9.3-2.95-20.45-3.1-13.55-.25-22.7-5.5l-6.3-3.5" fill="#e7b907" fill-rule="evenodd" transform="translate(60.85 62.55)"/><path d="m53.9 2.45.45.3-.5-.3m63.35 110.1-1.25.55" fill="none" stroke="#3c0c00" stroke-linecap="round" stroke-linejoin="round" stroke-width=".25"/><path d="M47.55 3.2h-.05m6.35-.75h.05m-40.05 88.5 1.25 1.55" fill="none" stroke="#3c0c00" stroke-linecap="round" stroke-linejoin="round" stroke-width="2"/><path d="m47.5 3.2-.1.05" fill="none" stroke="#473267" stroke-linecap="round" stroke-linejoin="round" stroke-width=".25"/><path d="M117.65 53.15q-1.3-18.4-12.7-33.6-8.1-10.8-21.7-14.9-4.8-1.45-10.3-2.05l-5.75-.45q-5.8-.2-13.3.3m13.9 88.9q.25 3.65 4.9 6.3 1.8 1.05 3.7 1.3l2.85-.15q6.75-1.55 10.5-6.05M68.8 87l-.05.1q-.75 1.5-.9 2.9m-14-87.55-6.3.75M111.8 111l3.9 1.35" fill="none" stroke="#473267" stroke-linecap="round" stroke-linejoin="round" stroke-width="4.25"/><path d="m117.85 57.6-.05-1.45-.15-3M47.4 3.25q-11.45 1.9-19.05 7-11.1 7.35-17.85 18.6l-2.75 5Q.6 48.45 2.85 63.8q1 7 3.3 13.1l.35.95Q8.1 82 10.35 85.8l.1.15 2.9 4.35.5.65m27.35 16.3 6.3 3.5q9.15 5.25 22.7 5.5 11.15.15 20.45 3.1l3.9 1.4q10.8 4.3 18.05.6 7.25-3.75 7.1-9.8-.5 1.15-2.5 1l-1.5-.2m-74.5-5.1-6.5-1.7q-8.4-2.65-14.8-8.15-7.7 6.4-12.4 3.8-4.45-2.5-5.35-6.65l-.1-.5L2 92.9q.1-2.6 2.5-3.85l2.9-1.45 2.95-1.8m4.75 6.7 1.35 1.4 3.45 3.5m86.3 8.75q-1.65-5.05 3.7-14.8 8-14.6 7.95-33.75M111.8 111l-1.65-.7q-2.15-.95-3.2-2.6l-.75-1.55" fill="none" stroke="#473267" stroke-linecap="round" stroke-linejoin="round" stroke-width="4"/><path d="m71.75 59.45-9.3-9.25q2.4-1.65 5.05-2.8l1.7-.75 1.2-.4 4.05-1.2L80 44.4h1.85l1.95.1 2.2.2m-61.3-3 8.35 5.35 1.45.95.5.35 1.05.7q2.1 1.5 2.55 2.85l-15.25 7.5M49 58.35l.25.25 7.65 7.65 2.85 2.85m-2.85-2.85-14.6-.1-2.55 2.7m9.5-10.25-6.95 7.55" fill="none" stroke="#473267" stroke-linecap="round" stroke-linejoin="round" stroke-width="1.5"/></g><g id="j"><path d="M55.5 9.95h.4q1.55 4.7 2.15 9.45-.75-4.7-2.55-9.45M57.95 31q-.6 4.35-2.05 8.7l-.35.05q1.7-4.35 2.4-8.75m-3.05 8.85-.6.1-.7.1h-.05l-.15-.1-.1-.1h1.6M30.7 49.7v.05l-1.35.2 1.35-.25M5.5 33.95 2.75 30.7q-1.4-1.6-2.1-3.1l4.85 6.35m19.4-32.1Q27 .85 29.25 0h.7L24.9 1.85M30.5 0h.1q1.85 3.95 2.5 8.15-.75-4.1-2.6-8.15m23.8 39.95.2-.1-.2.1" fill="#f0960f" fill-rule="evenodd" transform="translate(1.75 1.75)"/><path d="m58.05 19.4.3 3.15q.15 3.6-.25 7.2L57.95 31q-.7 4.4-2.4 8.75l-.15.05-.5.05h-1.6l-.2-.1q-9.35-6.95-19.3-7.1v.2l.05.35Q35 42.9 30.7 49.7l-1.35.25h-.1l-.3-.1-.05-.05Q15.25 45.3 5.5 33.95L.65 27.6l-.15-.35-.15-.45-.05-.15L0 25.3l.2-2.25q0-.5.25-.8l.55-.9.8-1.05.95-1Q11.55 8 24.9 1.85L29.95 0h.55q1.85 4.05 2.6 8.15l.25 8.3q10.65.75 20.2-6.5h1.95q1.8 4.75 2.55 9.45" fill="#f03" fill-rule="evenodd" transform="translate(1.75 1.75)"/><path d="m57.15 41.55-.5.05h-.05m-1.55 0-.2-.1m.2.1h1.2" fill="none" stroke="#c55810" stroke-linecap="round" stroke-linejoin="round" stroke-width=".05"/><path d="m56.05 41.7-.7.1m.9-.2h.35m-.35 0-.2.1" fill="none" stroke="#30c" stroke-linecap="round" stroke-linejoin="round" stroke-width="1.5"/><path d="M2.4 29.35 2.25 29l-.15-.45M31 1.75h.7" fill="none" stroke="#473267" stroke-linecap="round" stroke-linejoin="round" stroke-width="1.5"/><path d="m59.8 21.15.3 3.15q.15 3.6-.25 7.2l-.15 1.25q-.7 4.4-2.4 8.75m-2.15.2q-10.4-7.25-19.5-7.1l-.05.35q1.15 9.7-3.15 16.5v.05m-1.8.05Q17 47.05 7.25 35.7L2.4 29.35m-.35-.95-.3-1.35.2-2.25m.25-.8.55-.9.8-1.05Q13.3 9.2 26.65 3.6l5.05-1.85m3.15 8.15.25 8.3q10.25.4 19.9-6.65l.25-.2h2.25m-.25 0v.35q1.8 4.75 2.55 9.45M32.25 1.75q1.85 4.05 2.6 8.15M31.1 51.7l1.35-.25" fill="none" stroke="#473267" stroke-linecap="round" stroke-linejoin="round" stroke-width="3.5"/></g><g id="f" fill-rule="evenodd"><path d="m1.15 17.8-.2-.4.2.25v.1l.15.3-.15-.25" fill="#fda51c" transform="translate(-.35 2.5)"/><path d="M1.15 17.75 4.3 12.8l.35-.45.35-.45q3.4-4.3 10-8.25l7.95-4.8-1.1.7q-1.75 1.05 1.7-1Q26.95-3.5 28-1.5 29 .45 29.35 3l.7 4.9q.4 2.35.1 5.95l5.55.25q4.1-.25 10.3-3.7l-.05.15 4.25-1.9v1.6q1.2 15.25-.1 17.9l-.65 1.35q-12.4-5.25-22.6-4l-.75 9.75q-11.65-1.65-18.85-9.2L3.9 22.2l.15.15.25.3.3.3.3.35.35.3.3.35.35.3.3.3.3.35.35.3.3.35.35.3.3.3.45.35.75.2h.4l.55-.1.3-.2.35-.35.2-.3.1-.3v-1.3l-.1-.35-.2-.3-.25-.3-.1-.35-.2-.3-.1-.35-.1-.3v-.3l.1-.35.1-.3v-.35l.2-.3.1-.3.25-.35.4-.3.35-.35.3-.3.65-.3.65-.25.3-.2.75-.3.4-.35.35-.3.65-.35.75-.3.4-.3.35-.35.3-.3.3-.35.35-.3.3-.3.35-.35.6-.3.45-.35.2-.3.1-.3.25-.35.3-.3.45-.35.2-.3.2-.35.1-.3v-.65l.1-.3.15-.35.1-.3.1-.3-.1-.35-.1-.3-.15-.35-.1-.3-.1-.3-.1-.35-.1-.3-.35-.35-.5-.3-.65-.3-.75-.25h-.85v.1h-.65l-.4.25-.55.3-.35.35-.05.1h-.15l-.5.1-.25.1-.3.2-.45.35-.95.3-.4.3-.45.35-.65.3-.3.35-.55.3-.65.3-.65.35-.15.15-.15-.05-.55.1-.2.1-.3.25-.35.3-.3.3-.35.35-.3.3-.3.35-.35.3-.3.3-.35.35-.3.3-.3.35-.35.3-.2.3-.1.35-.2.3-.35.35-.3.3-.35.3-.3.35-.1.3-.1.35v.3l-.25.3-.1.35-.1.3v1.95l.2.3.1.2-.55-.7-.75-1.75-.1-.05h-.2V18l.1-.2.15.25-.15-.3m28 10.25 1.3.9q1.25 8.85-2.9 16.5l-1.95-.8.4-.65v-.05l1.15-2.75q2.3-4.7 1.7-13.4l.3.25m21.8 6.75Q53.6 28.9 54.45 20q.25 8.8-2.4 14.75h-1.1" fill="#e23636" transform="translate(-.35 2.5)"/><path d="m50.2 8.65 1.55.95Q55 27.25 51 34.35 38.75 25.8 29.2 27.8h-.05v.2l-.3-.25q.6 8.7-1.7 13.4L26 43.9v.05q-15.25-7.6-21.35-15-3.15-3.8-4.3-7.5 0-3.45.7-3.45v.1h.2l.1.05.75 1.75.55.7.05.15.2.3.1.3.3.35.35.3.25.2 3.35 3.85q7.2 7.55 18.85 9.2l.75-9.75q10.2-1.25 22.6 4l.65-1.35q1.3-2.65.1-17.9v-1.6" fill="#c91d1d" transform="translate(-.35 2.5)"/><path d="m3.9 22.2-.25-.2-.35-.3-.3-.35-.1-.3-.2-.3-.05-.15-.1-.2-.2-.3v-1.95l.1-.3.1-.35.25-.3v-.3l.1-.35.1-.3.3-.35.35-.3.3-.3.35-.35.2-.3.1-.35.2-.3.35-.3.3-.35.3-.3.35-.35.3-.3.35-.3.3-.35.3-.3.35-.35.3-.3.35-.3.3-.25.2-.1.55-.1.15.05.15-.15.65-.35.65-.3.55-.3.3-.35.65-.3.45-.35.4-.3.95-.3.45-.35.3-.2.25-.1.5-.1h.15l.05-.1.35-.35.55-.3.4-.25h.65v-.1h.85l.75.25.65.3.5.3.35.35.1.3.1.35.1.3.1.3.15.35.1.3.1.35-.1.3-.1.3-.15.35-.1.3v.65l-.1.3-.2.35-.2.3-.45.35-.3.3-.25.35-.1.3-.2.3-.45.35-.6.3-.35.35-.3.3-.35.3-.3.35-.3.3-.35.35-.4.3-.75.3-.65.35-.35.3-.4.35-.75.3-.3.2-.65.25-.65.3-.3.3-.35.35-.4.3-.25.35-.1.3-.2.3v.35l-.1.3-.1.35v.3l.1.3.1.35.2.3.1.35.25.3.2.3.1.35v1.3l-.1.3-.2.3-.35.35-.3.2-.55.1H9l-.75-.2-.45-.35-.3-.3-.35-.3-.3-.35-.35-.3-.3-.35-.3-.3-.35-.3-.3-.35-.35-.3-.3-.35-.3-.3-.25-.3-.15-.15" fill="#ef8f8f" transform="translate(-.35 2.5)"/></g><path d="M15.2-6.4q6.3 2.65 6.3 6.4 0 3.75-6.3 6.35Q8.9 9 0 9q-8.9 0-15.2-2.65-6.3-2.6-6.3-6.35 0-3.75 6.3-6.4Q-8.9-9 0-9q8.9 0 15.2 2.6" fill="#f66" fill-rule="evenodd" transform="translate(21.5 9)" id="c"/><path d="m0 0 17.4 13.65" fill="none" stroke="#000" stroke-linecap="round" stroke-linejoin="round" stroke-width=".05" id="d"/><path d="M30 0v30H0V0h30" fill="#fff" fill-opacity="0" fill-rule="evenodd" id="g"/><linearGradient gradientTransform="matrix(.0119 .0119 .0144 -.0144 59.7 109.7)" gradientUnits="userSpaceOnUse" id="h" spreadMethod="pad" x1="-819.2" x2="819.2"><stop offset="0" stop-color="#b8abed"/><stop offset="1" stop-color="#a284ea"/></linearGradient><linearGradient gradientTransform="matrix(.0119 .0119 .0144 -.0144 59.7 109.7)" gradientUnits="userSpaceOnUse" id="i" spreadMethod="pad" x1="-819.2" x2="819.2"><stop offset="0" stop-color="#cfc7f3"/><stop offset="1" stop-color="#9c7de8"/></linearGradient><use ffdec:characterId="579" height="53.45" width="61.9" xlink:href="#j" id="e"/></defs></svg>