<svg xmlns:ffdec="https://www.free-decompiler.com/flash" xmlns:xlink="http://www.w3.org/1999/xlink" ffdec:objectType="frame" height="32.95" width="34.2" xmlns="http://www.w3.org/2000/svg"><g transform="translate(2.1 1.5)"><use ffdec:characterId="552" height="116.15" transform="matrix(.1929 0 0 .1926 -.574 3.822)" width="161.55" xlink:href="#a"/><use ffdec:characterId="78" height="30" width="30" xlink:href="#b"/></g><defs><path d="M30 0v30H0V0h30" fill="#fff" fill-opacity="0" fill-rule="evenodd" id="b"/><g id="a"><path d="m68.8-14.2-.1-.1-.1-.1-.2-.05h-.5l-.05-.1-.2-.05H65.5v.05h-.15l-.1.05-.25.05-.25.05-.2.1h-.05l-.1.1-.25.05-.15.1-.1.05-.15.1-.25.05-.2.05h-.05l-.1.1-.25.05-.15.1h-.1l-.05.1-.1.05-.25.1-.1.1-.05.1-.1.1-.2.1-.1.1-.1.1-.1.05-.1.1-.1.1-.05.05-.15.1-.3.25-.25.15-.1.2-.05.25-.05.1-.05.05-.05.1-.05.1-.05.1-.05.05-.05.05-.05.1-.05.1-.05.1-.05.1-.05.1-.05.1v.1l-.05.1v.05l-.05.1v.25l-.05.1-.05.05-.05.1v.05l-.05.1-.05.1v.35l-.05.1-.05.1v.1l-.05.1v.05l-.05.1-.05.1v.15l-.1.1-.05.1v.3l-.05.1-.05.1v2.7l.05.1.05.1v.1l.05.1.05.05.05.1v.2l.05.1.05.1.05.1.1.1.05.1.1.05.1.1v.1l.05.05v.05l.05.05.05.1v.1l.1.1v.2l.05.1.1.05.05.1.05.1.05.1.1.1.1.1.1.1.15.1.15.05.1.1.25.1h.1l.05.05.2.1.25.1.4.05.25.05.35.05.1.05.1.05.05.05.25.05h.15l.15-.05h.2L64-.8h.15l.1.05.05.05.2.1.25.05.15.05.25.1.2-.1.05-.1h.1l.2.1.2.1.15.1.1.1.1.1.15.1.1.1.05.05.1.1.1.1.05.05q1.75 20.7-8.9 34.4 14.5-13.15 14-31.7l.05-.1.05-.05v-.3l.1-.1v-.3l.1-.05v-.1l.05-.1v-.2l.1-.1v-.2l.1-.05v-.1l.05-.1v-.2l.1-.1v-.3l.1-.05V.5l.05-.1V.2l.05-.1.05-.1v-.1l.1-.05v-.1l.05-.1v-.1l.1-.1.05-.1.05-.1.05-.1.1-.05.05-.1.05-.1.05-.1.1-.1v-.2l.1-.1.1-.05v-.1l.05-.1.1-.1.05-.1.05-.1.05-.1v-.1l.1-.05.1-.1.05-.1v-.1l.1-.1v-.1l.1-.1v-.15l.05-.1v-.1l.05-.1.05-.1v-.1l.1-.1v-.75l-.05-.1-.05-.1-.1-.05h-.05V-8.2l-.05-.25-.05-.2-.05-.25-.15-.15v-.45l-.05-.2-.05-.25-.05-.15-.1-.25v-.2l-.15-.25-.05-.15v-.65l-.1-.2-.05-.2-.05-.25-.15-.2-.15-.2-.15-.2-.1-.25-.2-.2-.1-.15-.25-.25-.3-.2-.35-.25-.5-.15-.55-.2h-1.1v.1h-.45l-.2.1-.25.1M54.95-3.6q-.4-2.5.4-5 3.95-12.9 16.8-9.15 2 .55 2.55 2.65 3.05 11.1.55 22.6Q68.9 37.6 39.8 47.25q2.9-3.9 2.5-8.75Q41.25 24.75 55.2 24q-8.25-3.9-4.3-12.4 3.85-8.15 10.15-5.55-5.25-4.25-6.1-9.65m16.6 2.9-.05.05h-.2l.25-.05M62.4 10.8h-.05l-.1-.1-.1-.05-.15-.1h-.1v.05h-.15l-.1.05-.05.05-.05-.05-.25-.1-.45-.15-.4-.1-.55-.05h-.6v.05l-.6.1-.65.15-.2.05-.25.1-.45.25-.35.2-.05.15h-.1l-.2.05-.05.05-.05.05-.25.1-.05.1-.1.05-.1.1-.1.1-.15.1-.15.1-.15.1-.05.1-.15.05-.1.05-.1.1-.05.1-.05.1-.05.1-.05.1v.05l-.1.1-.1.1-.05.1-.05.1-.1.1-.05.1-.05.1v.15l-.05.1-.05.1v.2l-.1.1-.05.1v.1l-.05.05-.05.1v.1l-.05.1-.05.1-.05.1v.45l-.1.1v1.6l.05.1.05.1v.15l.05.1.1.1v.2l.05.1.05.1v.55l.1.1.05.1.05.1.05.1v.55l.05.1.05.1.05.1v.3l.1.1v.55l.05.1.05.1.05.05v.2l.05.05v.05l.05.1v.1l.05.1.05.1.05.05v.2l.1.1.1.1.05.1.25.05h.15l.1-.1.05-.1.05-.1V22l-.05-.1-.05-.1.05-.05.05-.1V20.6l.1-.1v-.1l.05-.1v-.75l.05-.1.05-.1v-.2l.1-.05V19l.05-.1v-.1l.1-.1v-.1l.05-.1.05-.1.1-.05.15-.1.05-.1.05-.1.05-.1v-.1l.05-.1.1-.1.05-.1.05-.05.1-.1v-.1l.1-.1v-.15l.15.1.05.1.1.05.1.1.1.1.05.1.1.1.1.1.25.05.15.05.15.1.1.05.2.05.4.05.25.1h1.85l.15-.1.5-.05h.15l.1-.1.25-.05.1-.05.05-.1.15-.1.1-.1.1-.1.15-.1.1-.1.1-.05.15-.1.15-.1h.05l.05-.05.05-.1.05-.1v-.2l.05-.1.05-.1.05-.1.1-.05v-.4l.05-.1.05-.1v-.45l.05-.1.05-.1.05-.1V14l-.1-.1-.05-.1v-.85l-.05-.1v-.1l-.05-.1-.1-.1-.1-.1-.05-.05v-.1l-.1-.1-.1-.1-.05-.1-.05-.1-.05-.1-.1-.1-.05-.05-.05-.1-.05-.1-.1-.1-.1-.1-.05-.1-.15-.1-.1-.1-.1-.05-.15-.1m-6.25 19.7-.1-.1-.05-.1-.15-.1-.15-.1-.15-.05h-.05l-.15-.15-.5-.2-.2-.1-.1-.05-.2-.1h-.15l-.05-.05-.15-.05h-.15l-.05-.05-.2-.1h-.3l-.05-.05-.15-.05h-1.75v.05h-.15l-.1.05-.05.05-.1.1v.05h-.35l-.4.25-.15.2-.3.15-.45.25-.35.2-.2.25-.05.05-.2.1v.05l-.15.05-.1.1-.05.1-.1.05-.1.1-.1.1-.05.1v.1l-.1.1-.1.1-.1.1-.1.05-.1.1-.1.1-.05.1v.2l-.05.1-.05.1v.05l-.1.1-.05.1-.05.1v.1l-.05.1-.1.1-.05.1-.05.05-.05.1-.1.1-.05.1v.1l-.05.1-.05.1v.15l-.1.1-.05.1v.2l-.05.1-.05.1-.05.1-.05.05-.05.1v.3l-.05.1-.05.1v.1l-.05.1-.05.05-.05.1v.4l-.05.1v.1l-.05.05v.85l-.1.1-.05.1v2.75l-.05.05-.05.1v.3l-.05.1-.05.1-.05.1v.35l-.05.1-.05.1v.2l-.1.05-.05.1-.05.1-.05.1-.1.1-.05.1v.35l.05.1.1.1.25.05.15-.05.15-.1.1-.1.1-.1.05-.05.1-.1.1-.1.1-.1.05-.1.1-.1V42l.15-.1.05-.05.1-.1.15-.1.1-.1.15-.1.1-.1.1-.1.1-.1.05-.05.1-.1.1-.1.1-.1.1-.1.1-.1.05-.1.05-.1.1-.05.05-.1.1-.1.1-.1.05-.1.05-.1.05-.1.05-.1.05-.05.05-.1.05-.1v-.2l.05-.05.05-.1.05-.05v-.1l.1-.1.05-.1.1-.1v-.1l.15-.1.05-.1.05-.05v-.3l.1-.1.05-.1.05-.1.05-.1v-.15l.05-.1.05-.1v-.1l.05-.1.05-.1.05-.1v-.05l.05-.1.05-.1.05-.1.1-.1v-.2l.05-.1.05-.05.05-.1.05-.1.05-.1v-.2l.05-.1.05-.1v-.05l.05-.1.05-.1.05-.1.1-.1.05-.1h.05l.05.1.05.1.05.1.1.1.1.1.1.05.2.1.05.05.25.1.25.05.1.05.15.1.25.1.1.1.25.05.15.05h.1l.15.05h.35l.15-.05h.1l.25-.05H54l.1-.1.1-.1.15-.05h.15l.1-.1.1-.1.1-.05.1-.1.2-.1.1-.1.1-.1.05-.1.05-.1.05-.1.1-.1.1-.05.1-.1.1-.1.05-.1.05-.1.05-.1.1-.1.1-.1.1-.05v-.1l.05-.1v-.2l.1-.1.05-.1.05-.1.05-.05.05-.1v-.2l.05-.1V31.7l-.05-.05v-.2l-.1-.1v-.1l-.1-.1v-.2l-.05-.05-.05-.1-.05-.1-.05-.1-.1-.1M-57.15-5.65l.1-.1v-.1l.05-.05v-.05l.05-.05v-.75L-57-6.8l.05-.05v-.9L-57-7.8v-.05l-.05-.05v-.65h-.05V-9h.05l.05-.05.05-.05v-.15L-57-9.3v-.05l-.1-.1v-.1l-.05-.05v-.1l-.05-.05-.05-.05v-.25h-.05v-.3h-.05v-.15l-.05-.05v-.1l-.1-.1v-.1l-.05-.05v-.15l-.05-.05v-.05l-.05-.05v-.05l-.05-.05-.05-.05v-.05l-.05-.05-.05-.05v-.05l-.05-.05v-.05l-.05-.05v-.05l-.15-.15-.05-.05V-12l-.15-.15-.05-.05-.05-.05v-.05l-.05-.05v-.05l-.1-.1-.05-.05v-.05l-.05-.05-.05-.05-.1-.05-.05-.05v-.05l-.05-.05v-.05l-.1-.1-.1-.05-.1-.1v-.05l-.05-.05-.35-.35-.05-.05v-.05l-.05-.05v-.05l-.1-.1-.1-.05-.05-.05-.05-.05-.05-.05-.1-.05v-.05l-.05-.05v-.05l-.05-.05-.1-.05-.1-.05-.1-.05v.05l-.1-.1-.05-.05-.1-.05h-.05l-.1-.1H-61v-.05l-.1-.05h-.05l-.05-.05-.15-.05v-.05l-.05-.05v-.05l-.05-.05-.1-.05h-.05v.05l-.1-.1-.05-.05-.1-.05h-.05l-.05-.05-.05-.05-.1-.05-.05-.05-.05-.05-.1-.05-.1-.1-.05-.05-.05-.05-.1-.05h-.1l-.15-.05-.1-.1-.15-.05-.1-.05h-.1l-.05-.05-.05-.05-.05-.05-.1-.05h-.15l-.05-.05h-.2l-.05-.05-.1-.05h-.5l-.05-.05-.1-.05h-2.2v.05l-.05.1-.05.1-.05.05-.05.05h-.2l-.6.1-.15.05-.05.1h-.2l-.15.1-.1.05-.05.1-.15.05-.05.1-.05.1-.1.1-.1.05-.05.1-.1.1-.05.1-.05.1-.05.1-.1.1v.1l-.1.05-.05.1-.05.1-.05.1-.1.1-.05.1-.1.1v.1l-.1.05-.1.1-.05.1-.05.1v.1l-.05.1-.05.1-.05.1v.45l-.05.1-.05.1v.35l.05-.05v-.05l.1-.1-.05.1-.05.1-.05.1v.35q-2.6 9.7-1.2 18.65l.05.3.05.4.05.25.15.85.05.2.1.45q.95 4.15 2.75 8.2 2.8 8.4 12.65 18.2l-1.5-2.8-.05-.05-.1-.1-.1-.1-.05-.05-.1-.1-.05-.1-.15-.1-.1-.1-.05-.1-.05-.1-.1-.1-.1-.05-.05-.1-.1-.1-.05-.1-.05-.1-.05-.1-.1-.1-.1-.1-.05-.05-.1-.1-.1-.1-.05-.1-.05-.1-.05-.1-.1-.1-.05-.1-.1-.05-.05-.1-.05-.1-.05-.1-.1-.1-.1-.1-.05-.1-.1-.1v-.05l-.1-.1v-.1l-.05-.1v-.1l-.05-.1-.05-.1-.05-.1-.05-.1-.05-.05-.05-.1-.05-.1-.05-.1-.1-.1-.05-.1-.05-.1-.1-.1-.05-.05-.1-.1-.1-.1-.05-.1v-.1l-.1-.1-.05-.1-.05-.1-.05-.05v-.1l-.1-.1-.05-.1-.05-.1-.1-.1-.05-.1-.05-.1-.05-.05-.1-.1-.05-.1v-.1l-.1-.1v-.1l-.1-.1v-.1l-.05-.05-.05-.1-.05-.1-.05-.1-.05-.1-.05-.1-.05-.1-.05-.1-.05-.1-.05-.05-.05-.1v-.1l-.1-.1v-.1l-.05-.1-.05-.1v-.1l-.05-.05-.05-.1-.05-.1-.05-.05-.05-.1v-.1l-.05-.1-.1-.1-.05-.1-.05-.1-.05-.1-.05-.05-.05-.1-.05-.1-.05-.1-.05-.1-.05-.1-.05-.1v-.1l-.05-.05-.05-.1-.05-.1v-.05l-.1-.1V22l-.1-.1v-.1l-.05-.1v-.1l-.05-.1-.05-.05-.05-.1-.05-.1-.05-.1-.05-.1-.05-.1-.05-.1-.05-.1-.05-.1v-.05l-.1-.1v-.1l-.05-.1-.05-.1-.05-.1V20l-.05-.1-.05-.05-.05-.1-.05-.1-.05-.1v-.1l-.05-.1v-.1l-.05-.1v-.25l-.05-.1-.05-.1v-.1l-.05-.1-.05-.1-.05-.05v-.1l-.05-.1-.05-.1v-.2l-.05-.1v-.15l-.1-.1v-.1l-.05-.1-.05-.1v-.05l-.05-.05-.05-.1v-.1l-.05-.1v-.1l-.05-.1-.05-.1v-.1l-.05-.1-.05-.05v-.1l-.05-.1v-.1l-.05-.1-.05-.1v-.1l-.05-.1-.05-.05v-.6l-.05-.1v-.05l-.05-.1-.05-.1v-.1l-.05-.1-.05-.1v-.45l-.05-.1v-.1l-.05-.1v-.25l-.05-.1v-.1l-.05-.1-.05-.1v-.35l-.05-.1v-.1l-.05-.1v-.55l-.05-.1v-.1l-.05-.1-.05-.1v-.55l-.05-.1-.05-.1v-.85l-.05-.1v-.1l-.1-.05V8.25l-.05-.1v-.1l-.05-.1V5.6l.05-.05.05-.1v-.6l.1-.05.05-.1v-.3l.05-.1.05-.1v-.85l.1-.1.05-.05v-.5l.05-.1.1-.1.1-.05.1-.1v-.1l.05-.1.05-.1.05-.1v-.1l.05-.1.05-.05v-.2l.05-.1.1-.1.1-.1.1-.05.15-.05.3-.05.1-.05h.15V.95h.1l.15.05V.95h.6l.2.05.1.1.2.1.15.1.05.1.1.1.15.1v.1l.15.05.1.1.05.1.15.1.05.1.1.1.05.1.25.1.1.05.1.1.2.1.1.05h.7l.1-.05.05-.05h.2l.1-.05h.15l.1-.05.05-.05.15-.05.1-.05h.1l.1-.05V2.3l.1-.05.05-.05.05-.05.05-.05.1-.05.1-.1V1.9l.05-.05.05-.05h.05v-.05l.1-.1.05-.05v-.05l.15-.15.05-.05.05-.05v-.05l.05-.05v-.05l.1-.05v-.05l.05-.05V.9l.05-.05V.6l.05-.05.1-.05.15-.05.15-.1.05-.1.1-.1.1-.1.05-.1.05-.1.05-.1.1-.1.05-.05v-.65l.05-.05.15-.2.15-.25.05-.2.05-.2.05-.2.1-.25.1-.2.05-.15.05-.25v-.45l.15-.15.05-.25.05-.2v-1.6m-12.95-7.2.05-.05h.05l-.05.05h-.05m.25-.25v-.05l.05-.05h.05l-.05.05-.05.05m12.5 6.6v.2l-.05-.05v-.1l.05-.05m-8.95-9.7h-.15.15m14.5 26 .4.8.45 1.05q1.65 4.3 0 7.35-1.3 2.4-4.7 4l4.7.75q1.85.5 3.25 1.4 5.55 3.45 4.9 12.35-.4 4.85 2.5 8.75-3.9-1.25-7.4-2.95-3.6-1.7-6.7-3.8-16.7-11.1-21.35-33l-.65-3.4q-1.4-9.75 1.2-19.2.55-2.1 2.55-2.65l4.75-.8q8.85-.35 12.05 9.95.8 2.5.4 5-.85 5.4-6.1 9.65 5.6-2.3 9.2 3.75l.1.05.1.1v.1l.05.1.1.1.05.1.05.1v.1l.05.05.05.1v.1M-56.1 8h-.05l-.05-.05-.05-.05-.25-.1-.15-.1-.2-.1-.2-.05-.15-.1-.25-.1-.15-.1-.15-.1-.3-.1-.15-.1-.15-.05-.05-.05-.15-.1-.15-.05-.2-.1-.2-.05-.1-.1-.1-.05v-.05h-.15v.05l.05.05.05.05v.05l.05.05.05.05v.1l.1.1v.1l.05.05v.05l.05.05v.05l.05.05h.05l.05.05v.05l.05.05v.1l.05.05.05.05.1.05.05.05.15.15.1.05.1.05v.05h.05l.05.05.1.05.05.05.15.15.05.05.05.05.1.05.15.15.05.05.05.05v.55l-.2-.05-.2-.05-.25.1-.05.1-.05.05-.1.1h-.55l-.05-.05-.85.05-.1.1-.1.05-.2.1-.1.1-.25.1-.1.1-.05.1-.1.1-.1.1v.05l-.05.1-.1.1-.1.1-.05.1-.1.1v.1l-.1.1v.1l-.05.05-.1.1v.2l-.1.1v.3l-.05.05-.05.1-.05.1-.1.1v.45l-.05.1-.05.1-.05.1v.55l-.1.1v.8l.05.1.05.1V15l.05.1.05.1.05.1v.65l.05.1.05.1v.15l.1.1.05.1v.1l.05.1.05.1.1.1v.1l.05.05.1.1.1.1.05.1v.1l.05.1.05.1.1.1v.05l.15.1.1.1.05.1.05.05.05.05.1.05.1.1.1.05.05.05h.05l.05.05.05.05.1.05.05.05.1.05.1.05.1.05.05.05.15.05.1.05h.05l.1.05.15.05h.2l.15.05.1.05h.25l.15.05.05.05.05.05.25.05.25.05h.1l.15.05h.95l.1-.1.15-.1.1-.1.15-.1.05-.05.05-.1h.05l.15-.1.1-.05v-.1l.05-.1.05-.1.05-.1.05-.1.05-.1.05-.1.1-.05.05-.1.05-.1.05-.1v-.1l.05-.1.1-.1.1-.1.05-.05v-.1l.05-.1.1-.1.05-.1v-.1l.05-.1.05-.1.05-.05v-.1l.05-.1.05-.1v-.1l.05-.1.05-.1.05-.1.05-.05v-.1l.05-.1v-.2l.05-.1.05-.1.05-.1v-.25l.05-.1.05-.1v-1.55l-.05-.1-.05-.05v-.2l-.05-.1-.05-.1v-.1l-.05-.1v-.15l-.05-.1v-.2l-.05-.1v-.3l-.05-.05-.05-.1v-.1l-.05-.1-.05-.1-.05-.1-.1-.1-.1-.1-.05-.1-.05-.05-.05-.1-.05-.1-.05-.1-.05-.1-.1-.1-.05-.1V9.7l-.1-.05-.05-.05-.1-.1-.1-.1-.05-.1-.05-.1-.05-.1-.05-.05v-.1l-.1-.1-.05-.1-.05-.1-.1-.1-.1-.1-.05-.1-.05-.05v-.1l-.1-.1-.15-.1m6.7 20.2v-.1l-.05-.05-.05-.05v-.05l-.05-.05v-.05l-.05-.05-.05-.05v-.05l-.05-.05-.05-.05-.1-.1-.05-.05-.15-.05-.05-.05-.05-.05h-.05l-.1-.1-.1-.05v-.05l-.05-.05-.1-.05-.1-.05h-.15l-.1-.05h-.15l-.05-.05-.1-.05h-.6v.05h-.1l-.05.05h-.1l-.1.05-.05.05h-.1l-.1.05h-.05v.05l-.05.05-.1.05-.05.05-.1.05-.05.05-.05.05-.1.05h-.1l-.1.05-.1.05-.05.05-.1.05h-.1l-.1.05h-.05l-.05.05-.05.05v.05l-.1.05h-.05l-.05.05V28l-.05.05v.05l-.05.05v.05l-.05.05-.05.05-.05.05v.1l-.05.05v.1l-.05.05v.95l.05.05v.3l.05.05v.15l.05.05.05.05v.1l.05.05v.1l.05.05v.1l.05.05v.1l.05.05h.05v.05l.05.05.05.05v.2l.05.05.05.05.1.05.05.05v.05l.05.05.05.05.05.05.1.05.05.05.1.05.1.05.05.05v.05l.05.05.1.05.1.05.1.05.1.05h.05l.05.05.15.05.1.05h.05l.05.05h.05l.1.1.15.05.1.05h.45v-.05h.1l.1-.05.05-.05.05-.05.1-.05h.15l.05.1.1.05.1.1.15.1.05.1.15.1.05.1.1.1.05.1.1.05.1.1.1.1v.2l.05.1.05.1.1.1.05.05.05.1.1.1.05.1.1.1.05.1.05.1.05.1.1.1.05.05.05.1.1.1v.1l.05.1.05.1.05.1.05.1.05.05v.2l.05.1.05.1v.1l.05.1.05.1.05.05.05.1.05.1v.2l.05.1.05.1.05.1v.05l.05.1.05.1v.1l.05.1.1.1v.2l.05.05.05.1v.2l.05.1.1.1.05.1.05.1v.25l.05.1.1.1.05.1.05.1v.1l.05.1.05.05v.1l.05.05v.05l.05.05v.05l.05.05v.05h.05v.15l.05.05v.2l.05.05v.05l.05.05.05.05v.05l.05.05v.1l.05.05.05.05.15.15.05.05v.05l.1.1v.05l.05.05.05.05.05.05v.05l.05.05h.05l.1.1.05.05h.05l.05.05.05.05.05.05.05.05.15.15.05.05.05.05V42l.05.05.1.05.1.1.05.05.1.05.1.1.05.05.05.05.05.05.05.05.05.05.05.05.05.05.1.05h.2v-.05h.05l.15-.15v-.2l-.05-.05v-.05l-.05-.05v-.1l-.05-.05v-.05l-.05-.05-.05-.05v-.1l-.05-.05v-.1l-.05-.05v-.05h-.05v-.05l-.05-.05v-.1l-.05-.05v-.1l-.05-.05v-.1l-.05-.05V41l-.05-.05-.05-.05v-.05l-.05-.05v-.1l-.05-.05v-.1l-.05-.05v-.15l-.05-.05v-.05l-.05-.05v-.05l-.05-.05v-.2l-.05-.05v-.1l-.05-.05v-.15l-.05-.05v-.05l-.05-.05v-.3l-.05-.05v-.2l-.05-.05v-.9l.05-.1.05-.1v-1.4l-.05-.1-.05-.1v-.45l-.05-.1-.05-.1-.05-.1v-.45l-.05-.1-.05-.1v-.2l-.1-.1-.05-.1v-.15l-.05-.1-.05-.1-.05-.1-.05-.1-.05-.1v-.25l-.1-.1v-.1l-.05-.1-.05-.1-.05-.1v-.1l-.05-.1v-.1l-.05-.05v-.1l-.05-.05v-.05h-.05v-.05l-.05-.05v-.05l-.05-.05v-.1l-.05-.05v-.05l-.05-.05v-.05l-.05-.05v-.05l-.05-.05-.05-.05v-.1l-.05-.05v-.1l-.05-.05v-.05l-.05-.05-.05-.05v-.05l-.05-.05v-.05l-.05-.05v-.05l-.05-.05v-.05l-.05-.05v-.05l-.05-.05v-.05l-.05-.05h-.05v-.05l-.1-.1-.05-.05-.05-.05v-.05l-.05-.05v-.1l-.05-.05v-.05l-.05-.05-.05-.05-.05-.05-.05-.05v-.05l-.05-.05v-.05l-.05-.05-.05-.05v-.05l-.15-.15-.1-.05-.05-.05-.05-.05v-.05l-.05-.05v-.05l-.05-.05h-.1l-.15-.15-.1-.05-.05-.05-.05-.05-.05-.05-.05-.05-.1-.05h-.1v.05h-.05l-.05-.05-.05-.1-.15-.1-.1-.1-.1-.1m-2-.8v.05h-.1l.05-.05h.05" fill="#4dca3e" fill-rule="evenodd" transform="translate(80.75 58.05)"/><path d="M65.5-.6h-.1l-.05.1-.2.1-.25-.1-.15-.05-.25-.05-.2-.1-.05-.05-.1-.05H64l-.25-.05h-.2l-.15.05h-.15L63-.85l-.05-.05-.1-.05-.1-.05-.35-.05-.25-.05-.4-.05-.25-.1-.2-.1-.05-.05h-.1l-.25-.1-.1-.1-.15-.05-.15-.1-.1-.1-.1-.1-.1-.1-.05-.1-.05-.1-.05-.1-.1-.05-.05-.1v-.2l-.1-.1v-.1l-.05-.1-.05-.05v-.05l-.05-.05v-.1l-.1-.1-.1-.05-.05-.1-.1-.1-.05-.1-.05-.1-.05-.1v-.2l-.05-.1-.05-.05-.05-.1v-.1l-.05-.1-.05-.1v-2.7l.05-.1.05-.1v-.3l.05-.1.1-.1v-.15l.05-.1.05-.1v-.05l.05-.1v-.1l.05-.1.05-.1v-.35l.05-.1.05-.1v-.05l.05-.1.05-.05.05-.1v-.25l.05-.1v-.05l.05-.1v-.1l.05-.1.05-.1.05-.1.05-.1.05-.1.05-.1.05-.05.05-.05.05-.1.05-.1.05-.1.05-.05.05-.1.05-.25.1-.2.25-.15.3-.25.15-.1.05-.05.1-.1.1-.1.1-.05.1-.1.1-.1.2-.1.1-.1.05-.1.1-.1.25-.1.1-.05.05-.1h.1l.15-.1.25-.05.1-.1h.05l.2-.05.25-.05.15-.1.1-.05.15-.1.25-.05.1-.1h.05l.2-.1.25-.05.25-.05.1-.05h.15v-.05h2.15l.2.05.05.1h.5l.2.05.1.1.1.1.15.05.2.05.2.05.1.1.2.1.1.1v.05l.25.1.3.25.25.2.2.25.1.15.25.1.2.2.3.2.1.25.1.2.1.2.05.2.2.2.1.25.1.2.05.2v.1h.05v.1l.05.05v.1l.1.1v.2l.1.1v.1l.05.1v.15l.1.1v.2l.1.1v.1l.05.1v1.4l-.05.1-.05.1-.05.05v.1l-.1.1v.1l-.05.1v.1l-.1.1-.05.1-.05.05v.1l-.05.1-.1.1-.05.1-.05.1-.05.1-.05.1-.15.05-.05.1-.1.1-.1.1-.05.1-.15.1-.1.1-.05.1-.1.05-.2.05-.1.1-.05.1-.15.1-.05.1-.1.05-.2.05-.2.1-.05.05-.05.05-.2.05-.2.1-.05.05-.05.05h-.15l-.15.05-.05.05H68l-.25-.05-.25-.1-.05-.05-.05-.05-.25-.05-.25-.1-.1-.1-.1-.05-.4-.1-.3-.25-.25-.2-.2-.2-.25-.2-.15-.25-.25-.2-.15-.15-.1-.25-.05-.2-.15-.25v-1.2l.05-.05v-1.3l.05-.1.05-.1v-.65l.05-.1.1-.1v-.3l.05-.05v-.05h-.3l-.1.05h-.15l-.25.05-.1.1h-.15l-.45.1-.15.05-.1.1h-.15l-.15.1-.1.05-.05.05v.1l-.05.1v.1l-.05.1-.05.05-.05.1-.05.1-.05.1-.1.1-.1.1v.2l-.05.05-.05.1v.1l-.1.1v.1l-.1.1v.1l-.05.1v1.85l.05.1v.2l.05.1v.35l.05.1.05.1.05.1v.1l.05.1v.15l.05.1v.4l.05.1.05.05.05.1v.1l.05.1v.2l.1.1v.1l.1.1v.05l.05.1v.1l.05.1.05.1.1.1.05.1.05.1.05.05.05.1.05.1.05.1.05.05h.05v-.05l.15.05.1.1.1.1.15.1.05.1.15.1.05.05.5.05.15.05.1.1.1.1v.05l.25.05.15.05.2.1.05.1.05.1.05.1v.25m6.75-7.55v-.05l-.05.15-.05.25v.15l.05-.05.05-.1v-.35M62.4 10.8l.15.1.1.05.1.1.15.1.05.1.1.1.1.1.05.1.05.1.05.05.1.1.05.1.05.1.05.1.1.1.1.1v.1l.05.05.1.1.1.1.05.1v.1l.05.1v.85l.05.1.1.1v.9l-.05.1-.05.1-.05.1v.45l-.05.1-.05.1v.4l-.1.05-.05.1-.05.1-.05.1v.2l-.05.1-.05.1-.05.05h-.05l-.15.1-.15.1-.1.05-.1.1-.15.1-.1.1-.1.1-.15.1-.05.1-.1.05-.25.05-.1.1h-.15l-.5.05-.15.1H59.4l-.25-.1-.4-.05-.2-.05-.1-.05-.15-.1-.15-.05-.25-.05-.1-.1-.1-.1-.05-.1-.1-.1-.1-.1-.1-.05-.05-.1-.15-.1v.15l-.1.1v.1l-.1.1-.05.05-.05.1-.1.1-.05.1v.1l-.05.1-.05.1-.05.1-.15.1-.1.05-.05.1-.05.1v.1l-.1.1v.1l-.05.1v.1l-.1.05v.2l-.05.1-.05.1v.75l-.05.1v.1l-.1.1v1.05l-.05.1-.05.05.05.1.05.1v.15l-.05.1-.05.1-.1.1h-.15l-.25-.05-.05-.1-.1-.1-.1-.1v-.2l-.05-.05-.05-.1-.05-.1v-.1l-.05-.1v-.05l-.05-.05v-.2l-.05-.05-.05-.1-.05-.1v-.55l-.1-.1v-.3l-.05-.1-.05-.1-.05-.1v-.55l-.05-.1-.05-.1-.05-.1-.1-.1v-.55l-.05-.1-.05-.1v-.2l-.1-.1-.05-.1v-.15l-.05-.1-.05-.1v-1.6l.1-.1v-.45l.05-.1.05-.1.05-.1v-.1l.05-.1.05-.05v-.1l.05-.1.1-.1V14l.05-.1.05-.1v-.15l.05-.1.05-.1.1-.1.05-.1.05-.1.1-.1.1-.1v-.05l.05-.1.05-.1.05-.1.05-.1.1-.1.1-.05.15-.05.05-.1.15-.1.15-.1.15-.1.1-.1.1-.1.1-.05.05-.1.25-.1.05-.05.05-.05.2-.05h.1l.05-.15.35-.2.45-.25.25-.1.2-.05.65-.15.6-.1v-.05h.6l.55.05.4.1.45.15.25.1.05.05.05-.05.1-.05h.15v-.05h.1l.15.1.1.05.1.1h.05m-.55.85-.55-.15h-1.15v.05h-.45l-.3.15-.3.25-.3.15-.1.25-.15.2-.15.25-.15.15-.1.2-.15.25-.1.2-.05.2-.1.2-.05.25-.05.2-.05.2-.15.2V15h.05l.2.05.1.1.05.1.05.05v.2l.05.1.05.1v.1l.05.1.05.1.05.05.05.1.2-.05h.1l.2.05.1.1.1.1.05.1.05.1.05.1.05.1.05.05.05.1.7.1.15.05h.35l.25-.05.25-.1.3-.1.1-.05.2-.05.05-.05.2-.1.05-.05.2-.05.1-.1.15-.1.05-.1.05-.1V16l.05-.1.1-.1.05-.1v-.1l.05-.1.05-.1.1-.1v-.15l.05-.1V15l.05-.1v-.05l-.05-.05-.05-.05v-.4l.05-.1.05-.1V14l.05-.1.1-.1v-.1l-.05-.2-.05-.15v-.25l-.1-.2v-.05l-.15-.1-.1-.1-.05-.1v-.15l.05-.05-.05-.05-.1-.25-.2-.2-.35-.2m-5.7 18.85.1.1.05.1.05.1.05.1.05.05v.2l.1.1v.1l.1.1v.2l.05.05v1.05l-.05.1v.2l-.05.1-.05.05-.05.1-.05.1-.1.1v.2l-.05.1v.1l-.1.05-.1.1-.1.1-.05.1-.05.1-.05.1-.1.1-.1.1-.1.05-.1.1-.05.1-.05.1-.05.1-.1.1-.1.1-.2.1-.1.1-.1.05-.1.1-.1.1h-.15l-.15.05-.1.1-.1.1h-.15l-.25.05h-.1l-.15.05H53l-.15-.05h-.1L52.6 36l-.25-.05-.1-.1-.25-.1-.15-.1-.1-.05-.25-.05-.25-.1-.05-.05-.2-.1-.1-.05-.1-.1-.1-.1-.05-.1-.05-.1-.05-.1h-.05l-.05.1-.1.1-.05.1-.05.1-.05.1v.05l-.05.1-.05.1v.2l-.05.1-.05.1-.05.1-.05.05-.05.1v.2l-.1.1-.05.1-.05.1-.05.1v.05l-.05.1-.05.1-.05.1v.1l-.05.1-.05.1v.15l-.05.1-.05.1-.05.1-.1.1v.3l-.05.05-.05.1-.15.1v.1l-.1.1-.05.1-.1.1v.1l-.05.05-.05.1-.05.05v.2l-.05.1-.05.1-.05.05-.05.1-.05.1-.05.1-.05.1-.1.1-.1.1-.05.1-.1.05-.05.1-.05.1-.1.1-.1.1-.1.1-.1.1-.1.1-.05.05-.1.1-.1.1-.1.1-.15.1-.1.1-.15.1-.1.1-.05.05-.15.1v.1l-.1.1-.05.1-.1.1-.1.1-.1.1-.05.05-.1.1-.1.1-.15.1-.15.05-.25-.05-.1-.1-.05-.1v-.35l.05-.1.1-.1.05-.1.05-.1.05-.1.1-.05v-.2l.05-.1.05-.1v-.35l.05-.1.05-.1.05-.1v-.3l.05-.1.05-.05V37.6l.05-.1.1-.1v-.85l.05-.05v-.1l.05-.1v-.4l.05-.1.05-.05.05-.1v-.1l.05-.1.05-.1v-.3l.05-.1.05-.05.05-.1.05-.1.05-.1v-.2l.05-.1.1-.1v-.15l.05-.1.05-.1v-.1l.05-.1.1-.1.05-.1.05-.05.05-.1.1-.1.05-.1V33l.05-.1.05-.1.1-.1v-.05l.05-.1.05-.1v-.2l.05-.1.1-.1.1-.1.1-.05.1-.1.1-.1.1-.1v-.1l.05-.1.1-.1.1-.1.1-.05.05-.1.1-.1.15-.05v-.05l.2-.1.05-.05.2-.25.35-.2.45-.25.3-.15.15-.2.4-.25h.35v-.05l.1-.1.05-.05.1-.05h.15v-.05h1.75l.15.05.05.05h.3l.2.1.05.05H54l.15.05.05.05h.15l.2.1.1.05.2.1.5.2.15.15h.05l.15.05.15.1.15.1.05.1.1.1m-1.6.75-.2-.05-1.5-.05-.05.05-.2.1-.15.1-.15.05-.1.1-.1.1-.1.1-.05.1-.05.1-.05.1.1.1v.25l-.05.1-.05.1v.35l.1.1v.3l.05.1v.1l.1.1v.05l.05.1.05.1v.1l.05.1.05.1.05.1v.25l.1.1.1.1.05.1.15.1h.7l.15-.05.15-.05.15-.05.1-.1.1-.1.1-.1.1-.1.05-.1.15-.1.05-.05.1-.1.1-.1.1-.1v-.1l.1-.1v-.1l.05-.1.05-.05.05-.1v-1.25l-.05-.1-.1-.05v-.2l-.05-.1-.05-.1v-.1l-.25-.1-.05-.05M-70.4-12.4l-.1.1v.05l-.05.05v-.35l.05-.1.05-.1v-.45l.05-.1.05-.1.05-.1v-.1l.05-.1.05-.1.1-.1.1-.05v-.1l.1-.1.05-.1.1-.1.05-.1.05-.1.05-.1.1-.05v-.1l.1-.1.05-.1.05-.1.05-.1.1-.1.05-.1.1-.05.1-.1.05-.1.05-.1.15-.05.05-.1.1-.05.15-.1h.2l.05-.1.15-.05.6-.1h.2l.05-.05.05-.05.05-.1.05-.1v-.05h2.2l.1.05.05.05h.5l.1.05.05.05h.2l.05.05h.15l.1.05.05.05.05.05.05.05h.1l.1.05.15.05.1.1.15.05h.1l.1.05.05.05.05.05.1.1.1.05.05.05.05.05.1.05.05.05.05.05h.05l.1.05.05.05.1.1v-.05h.05l.1.05.05.05v.05l.05.05v.05l.15.05.05.05h.05l.1.05v.05h.05l.1.1h.05l.1.05.05.05.1.1v-.05l.1.05.1.05.1.05.05.05v.05l.05.05v.05l.1.05.05.05.05.05.05.05.1.05.1.1v.05l.05.05v.05l.05.05.35.35.05.05v.05l.1.1.1.05.1.1v.05l.05.05v.05l.05.05.1.05.05.05.05.05v.05l.05.05.1.1v.05l.05.05v.05l.05.05.05.05.15.15v.05l.05.05.15.15v.05l.05.05v.05l.05.05v.05l.05.05.05.05v.05l.05.05.05.05v.05l.05.05v.05l.05.05v.15l.05.05v.1l.1.1v.1l.05.05v.15h.05v.3h.05v.25l.05.05.05.05v.1l.05.05v.1l.1.1v.05l.05.05v.15l-.05.05-.05.05h-.05v.45h.05v.65l.05.05v.05l.05.05v.9l-.05.05.05.05V-6l-.05.05v.05l-.05.05v.1l-.1.1-.1.05-.1-.05-.05-.05h-.05v-.35l.1-.1v-.5l-.05-.05v-.05l-.05-.05v-.35l-.05-.05v-.6l-.1-.05-.05-.05-.05-.05v-.55l-.05-.05v-.3l-.05-.05v-.15l-.05-.05-.05-.05v-.2l-.05-.05v-.15H-58v-.3l-.05-.05-.05-.05-.05-.05v-.1l-.05-.05v-.1l-.05-.05v-.05l-.05-.05v-.05l-.05-.05-.05-.05v-.05l-.05-.05v-.1l-.05-.05v-.05l-.05-.05v-.05l-.05-.05-.05-.05-.05-.05v-.1l-.05-.05v-.1h-.05l-.1-.05-.05-.05-.05-.05v-.1h-.05l-.05-.05-.05-.05v-.15l-.05-.05-.1-.05-.05-.05-.05-.05-.05-.05v-.05l-.1-.05-.05-.05-.05-.05v-.05l-.1-.1-.1-.05-.05-.05v-.05l-.05-.05v-.05l-.05-.05v-.05l-.05-.05-.05-.05h-.05l-.05-.05V-13l-.05-.05-.1-.05-.05-.05-.05-.05-.05-.05v-.05l-.05-.05-.1-.05-.05-.05h-.05l-.1-.05-.05-.05-.05-.05v-.05H-61l-.1-.05-.05-.05-.05-.05v-.05l-.05-.05-.1-.05-.1-.05-.05-.05h-.05l-.1-.05-.05-.05h-.05l-.05-.05v-.1l-.1-.1h-.15l-.05-.05-.1-.05-.15-.05-.1-.05-.05-.05-.1-.05-.05-.05-.1-.05h-.1l-.1-.05-.1-.05h-.05l-.1-.1-.1-.05h-.05l-.1-.05-.1-.05-.1-.05h-.1l-.1-.05-.1-.05-.05-.05-.1-.05-.1-.05h-.1l-.1-.05-.15-.05-.05-.05h-.15q-2.35 0-4.5 1.95h-.05v.05l-.1.05-.1.1-.1.1-.1.1-.05.05h-.05l-.05.05v.1l-.05.05v.05l-.05.05h-.1l-.05.05v.05l-.1.1v.05l-.05.05v.05l-.05.05-.1.1m4.1-3.8h-.15.15m3.25 3.8h.3l.05.05h.55l-.15.05-.3.05-.5-.15h.05m.8-1.35h-.05v-.05l.05.05M-64.8-15v-.1l.1.1h-.1m.2.05-.1-.05.15.05h-.05M-56.1 8l.15.1.1.1v.05h-.05l-.05-.05-.05-.05-.05-.05-.05-.05V8m1.2 1.65.1.05v.1l-.05-.05V9.7l-.05-.05m.15.4.1.1.05.1.05.1.05.1.05.1.05.05.05.1.1.1.1.1.05.1.05.1.05.1v.1l.05.1.05.05v.3l.05.1v.2l.05.1v.15l.05.1v.1l.05.1.05.1v.2l.05.05.05.1v1.55l-.05.1-.05.1v.25l-.05.1-.05.1-.05.1v.2l-.05.1v.1l-.05.05-.05.1-.05.1-.05.1v.1l-.05.1-.05.1v.1l-.05.05-.05.1-.05.1v.1l-.05.1-.1.1-.05.1v.1l-.05.05-.1.1-.1.1-.05.1v.1l-.05.1-.05.1-.05.1-.1.05-.05.1-.05.1-.05.1-.05.1-.05.1-.05.1v.1l-.1.05-.15.1h-.05l-.05.1-.05.05-.15.1-.1.1-.15.1-.1.1h-.95l-.15-.05h-.1l-.25-.05-.25-.05-.05-.05-.05-.05-.15-.05h-.25l-.1-.05-.15-.05h-.2l-.15-.05-.1-.05h-.05l-.1-.05-.15-.05-.05-.05-.1-.05-.1-.05-.1-.05-.05-.05-.1-.05-.05-.05-.05-.05h-.05l-.05-.05-.1-.05-.1-.1-.1-.05-.05-.05-.05-.05-.05-.1-.1-.1-.15-.1v-.05l-.1-.1-.05-.1-.05-.1v-.1l-.05-.1-.1-.1-.1-.1-.05-.05v-.1l-.1-.1-.05-.1-.05-.1v-.1l-.05-.1-.1-.1v-.15l-.05-.1-.05-.1v-.65l-.05-.1-.05-.1-.05-.1v-.35l-.05-.1-.05-.1v-.8l.1-.1v-.5l.1-.05h.05l.05-.05.05-.05.1-.05.05-.05.1-.05.1-.05.05-.05.1-.05.15-.05h.15l.1-.05h.15l.1-.05.05-.05.15-.05h.3l.05.05h.1l.1-.05h.25l.1-.05h.4l.1.05h.7l.05.05h.25l.05.05.1.05h.2l.05.05h.45l.15.05h.05q.05 0 .15.1l.2.1.35.2.6.2h.25l.35-.15.1-.05.25-.1.15-.2.05-.1-.05-.05v-.05l.05-.05v-1.2l-.05-.05v-.25l-.05-.05v-.25l-.05-.05v-.2l-.05-.05v-.05l-.05-.05v-.1l-.05-.05v-.05m-2.85-.9.2.05-.05.05-.15-.1m-.75-2.25.15.05.15.1-.1-.05h-.05l-.1-.05-.05-.05m1.7 2.75-.1-.05v-.1l.1.1v.05m7.25 18.55.1.1.1.1.15.1.05.1.05.05h.05v-.05h.1l.1.05.05.05.05.05.05.05.05.05.1.05.15.15h.1l.05.05v.05l.05.05v.05l.05.05.05.05.1.05.15.15v.05l.05.05.05.05v.05l.05.05v.05l.05.05.05.05.05.05.05.05v.05l.05.05v.1l.05.05v.05l.05.05.05.05.1.1v.05h.05l.05.05v.05l.05.05v.05l.05.05v.05l.05.05V31l.05.05v.05l.05.05v.05l.05.05.05.05v.05l.05.05v.1l.05.05v.1l.05.05.05.05v.05l.05.05v.05l.05.05V32l.05.05v.1l.05.05v.05l.05.05v.05h.05v.05l.05.05v.1l.05.05v.1l.05.1v.1l.05.1.05.1.05.1v.1l.1.1v.25l.05.1.05.1.05.1.05.1.05.1v.15l.05.1.1.1v.2l.05.1.05.1v.45l.05.1.05.1.05.1v.45l.05.1.05.1v1.4l-.05.1-.05.1v.9l.05.05v.2l.05.05v.3l.05.05v.05l.05.05v.15l.05.05v.1l.05.05v.2l.05.05v.05l.05.05v.05l.05.05v.15l.05.05v.1l.05.05v.1l.05.05v.05l.05.05.05.05v.05l.05.05v.1l.05.05v.1l.05.05v.1l.05.05v.05h.05v.05l.05.05v.1l.05.05v.1l.05.05.05.05v.05l.05.05v.1l.05.05v.05l.05.05v.2l-.15.15h-.05v.05h-.2l-.1-.05-.05-.05-.05-.05-.05-.05-.05-.05-.05-.05-.05-.05-.05-.05-.1-.1-.1-.05-.05-.05-.1-.1-.1-.05-.05-.05v-.05l-.05-.05-.05-.05-.15-.15-.05-.05-.05-.05-.05-.05-.05-.05h-.05l-.05-.05-.1-.1h-.05l-.05-.05v-.05l-.05-.05-.05-.05-.05-.05v-.05l-.1-.1v-.05l-.05-.05-.15-.15-.05-.05-.05-.05v-.1l-.05-.05v-.05l-.05-.05-.05-.05v-.05l-.05-.05V40l-.05-.05v-.15h-.05v-.05l-.05-.05v-.05l-.05-.05v-.05l-.05-.05v-.1l-.05-.05-.05-.1v-.1l-.05-.1-.05-.1-.1-.1-.05-.1v-.25l-.05-.1-.05-.1-.1-.1-.05-.1v-.2l-.05-.1-.05-.05v-.2l-.1-.1-.05-.1v-.1l-.05-.1-.05-.1V37l-.05-.1-.05-.1-.05-.1v-.2l-.05-.1-.05-.1-.05-.05-.05-.1-.05-.1v-.1l-.05-.1-.05-.1v-.2l-.05-.05-.05-.1-.05-.1-.05-.1-.05-.1V35l-.1-.1-.05-.1-.05-.05-.1-.1-.05-.1-.05-.1-.05-.1-.1-.1-.05-.1-.1-.1-.05-.1-.05-.05-.1-.1-.05-.1-.05-.1v-.2l-.1-.1-.1-.1-.1-.05-.05-.1-.1-.1-.05-.1-.15-.1-.05-.1-.15-.1-.1-.1-.1-.05-.05-.1h-.1l.05-.05v-.05l.1-.1v-.05l.05-.05.1-.1h.05l.05-.05.05-.05.05-.05v-.05l.05-.05.05-.05v-.05l.05-.05.05-.05.05-.05v-.05l.05-.05.05-.05v-.05l.05-.05v-.05h.05l.05-.05V31l.05-.05.05-.05v-.05l.05-.05v-.05l.05-.05v-.05l.05-.05v-.1l.05-.05v-.1l.05-.05v-.35l.05-.05v-.4l.05-.05v-.05l.05-.05v-.65l-.05-.05v-.05l-.05-.05v-.25l-.05-.05v-.05" fill="#bff986" fill-rule="evenodd" transform="translate(80.75 58.05)"/><path d="M54.95-3.6q.85 5.4 6.1 9.65-6.3-2.6-10.15 5.55-3.95 8.5 4.3 12.4-13.95.75-12.9 14.5.4 4.85-2.5 8.75Q68.9 37.6 75.25 7.5q2.5-11.5-.55-22.6-.55-2.1-2.55-2.65Q59.3-21.5 55.35-8.6q-.8 2.5-.4 5m20.2-13.45Q76.65-11.9 77.3-7q1.05 7.65 0 14.65-3.05 20.5-24 35.05-12.6 6.4-14.15 6l1.7-9.5q.5-13.5 9.8-16-6.2-13.8 6-19-3.5-3.3-2.9-10.15 4.7-19.95 21.4-11.1M-52.35 8.8q-3.6-6.05-9.2-3.75Q-56.3.8-55.45-4.6q.4-2.5-.4-5-3.2-10.3-12.05-9.95l-4.75.8q-2 .55-2.55 2.65-2.6 9.45-1.2 19.2l.65 3.4q4.65 21.9 21.35 33 3.1 2.1 6.7 3.8 3.5 1.7 7.4 2.95-2.9-3.9-2.5-8.75.65-8.9-4.9-12.35-1.4-.9-3.25-1.4l-4.7-.75q3.4-1.6 4.7-4 1.65-3.05 0-7.35l-.45-1.05-.4-.8v-.1l-.05-.1-.05-.05v-.1l-.05-.1-.05-.1-.1-.1-.05-.1v-.1l-.1-.1-.1-.05m-24.2-26.45q4.1-3.95 11.75-3.2 15.95 4.2 8.3 22.9 3.65 1.95 5.55 4.4 4.35 5.6 0 13.9l-.35.65.9.45q9.45 5.55 9.15 17.4l1.85 9.1q-10.15-3.3-17.6-8.45-25.8-17.7-19.55-57.15m19.65 20.6.4-.9-.4.9" fill="#473267" fill-rule="evenodd" transform="translate(80.75 58.05)"/><path d="m68.8-14.2.25-.1.2-.1h.45v-.1h1.1l.55.2.5.15.35.25.3.2.25.25.1.15.2.2.1.25.15.2.15.2.15.2.05.25.05.2.1.2v.65l.05.15.15.25v.2l.1.25.05.15.05.25.05.2v.45l.15.15.05.25.05.2.05.25v3.45h.05l.1.05.05.1.05.1v.75l-.1.1v.1l-.05.1-.05.1v.1l-.05.1V-3l-.1.1v.1l-.1.1v.1l-.05.1-.1.1-.1.05v.1l-.05.1-.05.1-.05.1-.1.1-.05.1v.1l-.1.05-.1.1v.2l-.1.1-.05.1-.05.1-.05.1-.1.05-.05.1-.05.1-.05.1-.1.1v.1l-.05.1v.1l-.1.05V0l-.05.1-.05.1v.2l-.05.1v.1l-.1.05v.3l-.1.1v.2l-.05.1v.1l-.1.05v.2l-.1.1V2l-.05.1v.1l-.1.05v.3l-.1.1v.3l-.05.05-.05.1q.5 18.55-14 31.7Q68.55 21.1 66.8.4l-.05-.05-.1-.1-.1-.1L66.5.1l-.1-.1-.15-.1-.1-.1-.1-.1-.15-.1-.2-.1-.2-.1v-.25l-.05-.1-.05-.1-.05-.1-.2-.1L65-1.3l-.25-.05v-.05l-.1-.1-.1-.1-.15-.05-.5-.05-.05-.05-.15-.1-.05-.1-.15-.1-.1-.1-.1-.1-.15-.05v.05h-.05l-.05-.05-.05-.1-.05-.1-.05-.1-.05-.05-.05-.1-.05-.1-.1-.1-.05-.1-.05-.1v-.1l-.05-.1v-.05l-.1-.1v-.1l-.1-.1v-.2l-.05-.1v-.1l-.05-.1-.05-.05-.05-.1v-.4l-.05-.1V-5L62-5.1v-.1l-.05-.1-.05-.1-.05-.1v-.35l-.05-.1v-.2l-.05-.1V-8.1l.05-.1v-.1l.1-.1v-.1l.1-.1v-.1l.05-.1.05-.05v-.2l.1-.1.1-.1.05-.1.05-.1.05-.1.05-.05.05-.1v-.1l.05-.1v-.1l.05-.05.1-.05.15-.1h.15l.1-.1.15-.05.45-.1h.15l.1-.1.25-.05h.15l.1-.05h.3v.05l-.05.05v.3l-.1.1-.05.1v.65l-.05.1-.05.1v1.3l-.05.05v1.2l.15.25.05.2.1.25.15.15.25.2.15.25.25.2.2.2.25.2.3.25.4.1.1.05.1.1.25.1.25.05.05.05.05.05.25.1.25.05h1.3l.05-.05.15-.05h.15L69.7-4l.05-.05.2-.1.2-.05.05-.05.05-.05.2-.1.2-.05.1-.05.05-.1.15-.1.05-.1.1-.1.2-.05.1-.05.05-.1.1-.1.15-.1.05-.1.1-.1.1-.1.05-.1.15-.05.05-.1.05-.1.05-.1.05-.1.1-.1.05-.1v-.1l.05-.05.05-.1.1-.1v-.1l.05-.1V-7l.1-.1v-.1l.05-.05.05-.1.05-.1v-1.4l-.05-.1v-.1l-.1-.1v-.2l-.1-.1v-.15l-.05-.1v-.1l-.1-.1v-.2l-.1-.1v-.1l-.05-.05v-.1h-.05v-.1l-.05-.2-.1-.2-.1-.25-.2-.2-.05-.2-.1-.2-.1-.2-.1-.25-.3-.2-.2-.2-.25-.1-.1-.15-.2-.25-.25-.2-.3-.25-.25-.1v-.05l-.1-.1-.2-.1-.1-.1-.2-.05-.2-.05-.15-.05m3.45 6.05v.35l-.05.1-.05.05v-.15l.05-.25.05-.15v.05m-.7 7.45-.25.05h.2l.05-.05m-128.7-4.95v1.6l-.05.2-.05.25-.15.15V-3l-.05.25-.05.15-.1.2-.1.25-.05.2-.05.2-.05.2-.15.25-.15.2-.05.05v.65l-.05.05-.1.1-.05.1-.05.1-.05.1-.1.1-.1.1-.05.1-.15.1-.15.05-.1.05-.05.05v.25l-.05.05V1l-.05.05v.05l-.1.05v.05l-.05.05v.05l-.05.05-.05.05-.15.15v.05l-.05.05-.1.1v.05h-.05l-.05.05-.05.05v.05l-.1.1-.1.05-.05.05-.05.05-.05.05-.1.05v.05l-.1.05h-.1l-.1.05-.15.05-.05.05-.1.05h-.15l-.1.05h-.2l-.05.05-.1.05h-.7l-.1-.05-.2-.1-.1-.1-.1-.05-.25-.1-.05-.1-.1-.1-.05-.1-.15-.1-.05-.1-.1-.1-.15-.05v-.1l-.15-.1-.1-.1-.05-.1-.15-.1-.2-.1-.1-.1-.2-.05h-.6V1l-.15-.05h-.1V1h-.15l-.1.05-.3.05-.15.05-.1.05-.1.1-.1.1-.05.1v.2l-.05.05-.05.1v.1l-.05.1-.05.1-.05.1v.1l-.1.1-.1.05-.1.1-.05.1v.5l-.05.05-.1.1v.85l-.05.1-.05.1v.3l-.05.1-.1.05v.6l-.05.1-.05.05v2.35l.05.1v.1l.05.1V9.4l.1.05v.1l.05.1v.85l.05.1.05.1v.55l.05.1.05.1v.1l.05.1v.55l.05.1v.1l.05.1v.35l.05.1.05.1v.1l.05.1v.25l.05.1v.1l.05.1v.45l.05.1.05.1v.1l.05.1.05.1v.05l.05.1v.6l.05.05.05.1v.1l.05.1.05.1v.1l.05.1v.1l.05.05.05.1v.1l.05.1.05.1v.1l.05.1v.1l.05.1.05.05v.05l.05.1.05.1v.1l.1.1v.15l.05.1v.2l.05.1.05.1v.1l.05.05.05.1.05.1v.1l.05.1.05.1v.25l.05.1v.1l.05.1v.1l.05.1.05.1.05.1.05.05.05.1v.1l.05.1.05.1.05.1v.1l.1.1v.05l.05.1.05.1.05.1.05.1.05.1.05.1.05.1.05.1.05.05.05.1v.1l.05.1v.1l.1.1v.1l.1.1v.05l.05.1.05.1.05.05v.1l.05.1.05.1.05.1.05.1.05.1.05.1.05.05.05.1.05.1.05.1.1.1.05.1v.1l.05.1.05.05.05.1.05.1.05.05v.1l.05.1.05.1v.1l.1.1v.1l.05.1.05.05.05.1.05.1.05.1.05.1.05.1.05.1.05.1.05.1.05.05v.1l.1.1v.1l.1.1v.1l.05.1.1.1.05.05.05.1.05.1.1.1.05.1.05.1.1.1v.1l.05.05.05.1.05.1.1.1v.1l.05.1.1.1.1.1.05.05.1.1.05.1.05.1.1.1.05.1.05.1.05.1.05.05.05.1.05.1.05.1.05.1v.1l.05.1v.1l.1.1v.05l.1.1.05.1.1.1.1.1.05.1.05.1.05.1.1.05.05.1.1.1.05.1.05.1.05.1.1.1.1.1.05.05.1.1.1.1.05.1.05.1.05.1.1.1.05.1.1.05.1.1.05.1.05.1.1.1.15.1.05.1.1.1.05.05.1.1.1.1.05.05 1.5 2.8q-9.85-9.8-12.65-18.2-1.8-4.05-2.75-8.2l-.1-.45-.05-.2-.15-.85-.05-.25-.05-.4-.05-.3q-1.4-8.95 1.2-18.65v-.35l.05-.1.05-.1.05-.1.1-.1.05-.05v-.05l.05-.05v-.05l.1-.1v-.05h.05l.05-.05h.05l.05-.05V-13l.05-.05v-.05l.05-.05.05-.05.05-.05.1-.1.1-.1.1-.1.1-.05v-.05h.05q2.15-1.95 4.5-1.95h.15l.05.05.15.05.1.05h.1l.1.05.1.05.05.05.1.05.1.05h.1l.1.05.1.05.1.05h.05l.1.05.1.1h.05l.1.05.1.05h.1l.1.05.05.05.1.05.05.05.1.05.15.05.1.05.05.05h.15l.1.1v.1l.05.05h.05l.05.05.1.05h.05l.05.05.1.05.1.05.05.05v.05l.05.05.05.05.1.05h.05v.05l.05.05.05.05.1.05h.05l.05.05.1.05.05.05v.05l.05.05.05.05.05.05.1.05.05.05v.05l.05.05h.05l.05.05.05.05v.05l.05.05v.05l.05.05v.05l.05.05.1.05.1.1v.05l.05.05.05.05.1.05v.05l.05.05.05.05.05.05.1.05.05.05v.15l.05.05.05.05h.05v.1l.05.05.05.05.1.05h.05v.1l.05.05v.1l.05.05.05.05.05.05v.05l.05.05v.05l.05.05v.1l.05.05v.05l.05.05.05.05v.05l.05.05v.05l.05.05v.1l.05.05v.1l.05.05.05.05.05.05v.3h.05v.15l.05.05v.2l.05.05.05.05v.15l.05.05v.3l.05.05v.55l.05.05.05.05.1.05v.6l.05.05v.35l.05.05v.05l.05.05v.15l-.05.05v.1l.05.05v.15l-.1.1v.35h.05l.05.05.1.05.1-.05m-7.45-9.3h.05l-.15-.05.1.05m-.2-.05h.1l-.1-.1v.1m2.55 1.25-.05-.05v.05h.05m-.8 1.35h-.05l.5.15.3-.05.15-.05h-.55l-.05-.05h-.3m1 .95-.55-.1h-.85v.1l-.65.05-.35.25-.3.15-.2.2-.2.25-.2.2-.25.2-.1.2-.15.25-.05.2-.2.2-.05.2-.05.25v3.35l.05.2v.2l.2.2.1.2.05.25.15.15.15.25.15.2.1.25.15.15.15.25.2.2.3.25.35.15.4.2.4.25.7.1h.25l.4-.05.25-.05.25-.15.35-.2.45-.2.3-.25.15-.2.25-.2.2-.2.1-.25.15-.2.1-.15.05-.25.1-.2.05-.25.1-.15.15-.25.1-.2v-.25l.05-.15v-1.7l-.05-.2-.05-.25-.05-.2-.2-.15-.05-.25-.05-.2-.1-.25-.15-.15-.2-.25-.05-.2-.2-.25-.1-.15-.2-.2-.25-.25-.15-.2-.25-.2-.2-.2-.4-.25-.55-.1" fill="#9df744" fill-rule="evenodd" transform="translate(80.75 58.05)"/><path d="m61.85 11.65.35.2.2.2.1.25.05.05-.05.05v.15l.05.1.1.1.15.1v.05l.1.2v.25l.05.15.05.2v.1l-.1.1-.05.1v.15l-.05.1-.05.1v.4l.05.05.05.05v.05l-.05.1v.05l-.05.1v.15l-.1.1-.05.1-.05.1v.1l-.05.1-.1.1-.05.1v.05l-.05.1-.05.1-.15.1-.1.1-.2.05-.05.05-.2.1-.05.05-.2.05-.1.05-.3.1-.25.1-.25.05h-.35L59.9 17l-.7-.1-.05-.1-.05-.05-.05-.1-.05-.1-.05-.1-.05-.1-.1-.1-.1-.1-.2-.05h-.1l-.2.05-.05-.1-.05-.05-.05-.1-.05-.1v-.1l-.05-.1-.05-.1v-.2l-.05-.05-.05-.1-.1-.1-.2-.05h-.05v-.15l.15-.2.05-.2.05-.2.05-.25.1-.2.05-.2.1-.2.15-.25.1-.2.15-.15.15-.25.15-.2.1-.25.3-.15.3-.25.3-.15h.45v-.05h1.15l.55.15m-7.3 19.6.05.05.25.1v.1l.05.1.05.1v.2l.1.05.05.1v1.25l-.05.1-.05.05-.05.1v.1l-.1.1v.1l-.1.1-.1.1-.1.1-.05.05-.15.1-.05.1-.1.1-.1.1-.1.1-.1.1-.15.05-.15.05-.15.05h-.7l-.15-.1-.05-.1-.1-.1-.1-.1v-.25l-.05-.1-.05-.1-.05-.1v-.1l-.05-.1-.05-.1v-.05l-.1-.1v-.1l-.05-.1v-.3l-.1-.1v-.35l.05-.1.05-.1v-.25l-.1-.1.05-.1.05-.1.05-.1.1-.1.1-.1.1-.1.15-.05.15-.1.2-.1.05-.05 1.5.05.2.05m-116.6-42.7.55.1.4.25.2.2.25.2.15.2.25.25.2.2.1.15.2.25.05.2.2.25.15.15.1.25.05.2.05.25.2.15.05.2.05.25.05.2v1.7l-.05.15v.25l-.1.2-.15.25-.1.15-.05.25-.1.2-.05.25-.1.15-.15.2-.1.25-.2.2-.25.2-.15.2-.3.25-.45.2-.35.2-.25.15-.25.05-.4.05h-.25l-.7-.1-.4-.25-.4-.2-.35-.15-.3-.25-.2-.2-.15-.25-.15-.15-.1-.25-.15-.2-.15-.25-.15-.15-.05-.25-.1-.2-.2-.2v-.2l-.05-.2v-3.35l.05-.25.05-.2.2-.2.05-.2.15-.25.1-.2.25-.2.2-.2.2-.25.2-.2.3-.15.35-.25.65-.05v-.1h.85l.55.1m4 18.5.3.1.15.1.15.1.25.1.15.1.2.05.2.1.15.1.25.1.05.05.05.05h.05v.05l.05.05.05.05.05.05.05.05h.05v.05l.05.05.05.1.1.1.1.1.05.1.05.1.1.1v.1l.05.05.05.1.05.1.05.1.1.1.1.1.05.05.05.05v.05l.05.05v.15l.05.1v.05l.05.05v.1l.05.05v.05l.05.05v.2l.05.05v.25l.05.05v.25l.05.05v1.2l-.05.05v.05l.05.05-.05.1-.15.2-.25.1-.1.05-.35.15h-.25l-.6-.2-.35-.2-.2-.1q-.1-.1-.15-.1h-.05l-.15-.05h-.45l-.05-.05h-.2l-.1-.05-.05-.05h-.25l-.05-.05h-.7l-.1-.05h-.4l-.1.05h-.25l-.1.05h-.1l-.05-.05h-.3l-.15.05-.05.05-.1.05h-.15l-.1.05h-.15l-.15.05-.1.05-.05.05-.1.05-.1.05-.05.05-.1.05-.05.05-.05.05h-.05l-.1.05V13l.05-.1.05-.1.05-.1v-.45l.1-.1.05-.1.05-.1.05-.05v-.3l.1-.1v-.2l.1-.1.05-.05v-.1l.1-.1v-.1l.1-.1.05-.1.1-.1.1-.1.05-.1v-.05l.1-.1.1-.1.05-.1.1-.1.25-.1.1-.1.2-.1.1-.05.1-.1.85-.05.05.05h.55l.1-.1.05-.05.05-.1.25-.1.2.05.15.1.05-.05v-.55l-.05-.05-.05-.05-.15-.15-.1-.05-.05-.05-.05-.05-.15-.15-.05-.05-.1-.05-.05-.05h-.05V7.9l-.1-.05-.1-.05-.15-.15-.05-.05-.1-.05-.05-.05-.05-.05v-.1l-.05-.05v-.05l-.05-.05H-59l-.05-.05V7.1l-.05-.05V7l-.05-.05v-.1l-.1-.1v-.1l-.05-.05-.05-.05V6.5l-.05-.05-.05-.05v-.05h.15v.05l.1.05.1.1.2.05.2.1.15.05.15.1.05.05.05.05.1.05h.05l.1.05m1.4 2.6V9.6l-.1-.1v.1l.1.05m5.9 22.65h-.05l-.1.05-.05.05-.05.05-.1.05h-.1v.05h-.45l-.1-.05-.15-.05-.1-.1h-.05l-.05-.05h-.05l-.1-.05-.15-.05-.05-.05h-.05l-.1-.05-.1-.05-.1-.05-.1-.05-.05-.05v-.05l-.05-.05-.1-.05-.1-.05-.05-.05-.1-.05-.05-.05-.05-.05-.05-.05v-.05l-.05-.05-.1-.05-.05-.05-.05-.05V31l-.05-.05-.05-.05v-.05h-.05l-.05-.05v-.1l-.05-.05v-.1l-.05-.05v-.1l-.05-.05v-.1l-.05-.05-.05-.05V30l-.05-.05v-.3l-.05-.05v-.95l.05-.05v-.1l.05-.05v-.1l.05-.05.05-.05.05-.05v-.05l.05-.05v-.05l.05-.05v-.05l.05-.05h.05l.1-.05v-.05l.05-.05.05-.05h.05l.1-.05h.1l.1-.05.05-.05.1-.05.1-.05h.1l.1-.05.05-.05.05-.05.1-.05.05-.05.1-.05.05-.05v-.05h.05l.1-.05h.1l.05-.05.1-.05h.1l.05-.05h.1v-.05h.6l.1.05.05.05h.15l.1.05h.15l.1.05.1.05.05.05v.05l.1.05.1.1h.05l.05.05.05.05.15.05.05.05.1.1.05.05.05.05v.05l.05.05.05.05v.05l.05.05V28l.05.05.05.05v.15l.05.05v.25l.05.05v.05l.05.05v.65l-.05.05v.05l-.05.05v.4l-.05.05v.35l-.05.05v.1l-.05.05v.1l-.05.05v.05l-.05.05v.05l-.05.05v.05l-.05.05-.05.05v.05l-.05.05h-.05v.05l-.05.05v.05l-.05.05-.05.05v.05l-.05.05-.05.05-.05.05v.05l-.05.05-.05.05v.05l-.05.05-.05.05-.05.05h-.05l-.1.1-.05.05v.05l-.1.1v.05l-.05.05m-.65-4.9h-.05l-.05.05h.1v-.05" fill="#ddfcbe" fill-rule="evenodd" transform="translate(80.75 58.05)"/><path d="m17.15-52.8 3.15 3.85L15.65-9.7h2.45q11.25-1.5 21.55-.05l.4.05 2.2 2.55v19.5l-2.6 1.2-24.75-2.1 4.35 36.85-.15.15-3.45 2H-8.7v-.55h-4.8l-3.5-2.1-.1-.05 4.35-36.8-24.65 2.15h-.1l-2.55-1.15V-7.7l2.45-3.5 23.65 2.3h.45l-2-17.95.05-.1v-.75l-.1-.6-.15-.2-2.45-21 3.25-3.45q12-2.35 23.95-1.2l8.1 1.35" fill="#f03" fill-rule="evenodd" transform="translate(80.75 58.05)"/><path d="M135.7 54.45q.85 5.4 6.1 9.65-6.3-2.6-10.15 5.55-3.95 8.5 4.3 12.4-13.95.75-12.9 14.5.4 4.85-2.5 8.75 29.1-9.65 35.45-39.75 2.5-11.5-.55-22.6-.55-2.1-2.55-2.65-12.85-3.75-16.8 9.15-.8 2.5-.4 5M28.95 67.85l.4.8.45 1.05q1.65 4.3 0 7.35-1.3 2.4-4.7 4l4.7.75q1.85.5 3.25 1.4 5.55 3.45 4.9 12.35-.4 4.85 2.5 8.75-3.9-1.25-7.4-2.95-3.6-1.7-6.7-3.8-16.7-11.1-21.35-33l-.65-3.4q-1.4-9.75 1.2-19.2.55-2.1 2.55-2.65l4.75-.8q8.85-.35 12.05 9.95.8 2.5.4 5-.85 5.4-6.1 9.65 5.6-2.3 9.2 3.75" fill="none" stroke="#02d202" stroke-linecap="round" stroke-linejoin="round" stroke-width="2.25"/><path d="M60.4 28.4q-1.1-9.45-1.2-18.95.6-4 5.7-4.85 12.1-2.4 24-1.25l9.95 1.25 4.85 5.3-5.75 37.9q11.45-1.5 22 0h2.3l2.2 3.1v22.55l-3.1 3.5-22.5-2.65 3.1 33.55-4 4.35q-16.7 1.9-31.3 0-4.85-.3-7.05-3.95l3.7-34.35-22.25 2.15-3.5-2.6q-2.85-11-.45-23l3.55-3.05 1.55-1.1 20.95 1.1q-1.35-7.15-2.2-14.45M155.9 41q-16.7-8.85-21.4 11.1-.6 6.85 2.9 10.15-12.2 5.2-6 19-9.3 2.5-9.8 16l-1.7 9.5q1.55.4 14.15-6 20.95-14.55 24-35.05 1.05-7 0-14.65-.65-4.9-2.15-10.05M4.2 40.4l.15-.9m-.15.9q4.1-3.95 11.75-3.2 15.95 4.2 8.3 22.9 3.65 1.95 5.55 4.4 4.35 5.6 0 13.9l-.35.65m.9.45q9.45 5.55 9.15 17.4l1.85 9.1q-10.15-3.3-17.6-8.45Q-2.05 79.85 4.2 40.4m20.05 19.7-.4.9" fill="none" stroke="#473267" stroke-linecap="round" stroke-linejoin="round" stroke-width="6"/></g></defs></svg>