<svg xmlns:ffdec="https://www.free-decompiler.com/flash" xmlns:xlink="http://www.w3.org/1999/xlink" ffdec:objectType="frame" height="32.95" width="33.9" xmlns="http://www.w3.org/2000/svg"><g transform="translate(1.95 1.5)"><use ffdec:characterId="558" height="139.45" transform="matrix(.1638 0 0 .1636 -.41 3.59)" width="188.2" xlink:href="#a"/><use ffdec:characterId="559" height="112.15" transform="matrix(.1209 .0192 -.0192 .1208 9.338 8.846)" width="117.75" xlink:href="#b"/><use ffdec:characterId="560" height="19.5" transform="matrix(.1515 .0241 -.0241 .1514 10.408 15.09)" width="19.5" xlink:href="#c"/><use ffdec:characterId="560" height="19.5" transform="matrix(.1515 .0241 -.0241 .1514 15.408 13.94)" width="19.5" xlink:href="#c"/><use ffdec:characterId="78" height="30" width="30" xlink:href="#d"/></g><defs><g id="a"><path d="M183.2 37.05q-.1 28.3-26.9 29.65l-11 67.75-97.35-.2-15.8-66.65q-30-.9-32.1-25.75-.5-5.8 5.55-7.6 4.2 9.1 20.4 9.35Q56.15 31.35 85.1 2.75q6.6-5.15 16.15-.6 26.9 28.95 58.75 39.3 13.1-1.7 17.95-10.65 5.35-1.4 5.25 6.25m-16.55 20.8q3.75 0 6.35-3.25 2.15-2.65 2.15-4.75 0-3-2.2-4.35-1.95-1.2-4.8-.65-2.85.5-4.8 2.45-2.2 2.15-2.2 5.05.15 1.45.9 2.8 1.45 2.7 4.6 2.7M138.2 124.4l9.7-63.9L93.15 20 39.9 61.55l13.6 62.65 84.7.2M34.65 56.95q0-4.3-4.25-4.3t-4.25 4.3q-.05 1.05.4 2.15.9 2.25 3.6 2.25 1.95 0 3.35-1.75 1.15-1.45 1.15-2.65M22.8 51.7q-2.2-2.25-5.15-3.5-3.1-1.3-5.15-.7-2.35.75-2.35 3.85 0 2.1 2.5 5.05 3.3 3.95 8.25 3.95 2 0 3.25-1.45 1-1.2 1-2.65 0-2.15-2.35-4.55M92.15 1.85h.5Q88.2.95 86.5 3.2q-.8 1.1-.85 2.95-1 1.05-1 2.6 0 1.7 1.65 3.85 2.5 3.25 7.35 3.25 2.9 0 5-1.25 1.4-.55 2.35-2.25 1.15-1.95 1.15-4 0-2.6-1.05-3.8-2.15-2.35-8.95-2.7" fill="#6ff" fill-rule="evenodd" transform="translate(2.5 2.5)"/><path d="M166.65 57.85q-3.15 0-4.6-2.7-.75-1.35-.9-2.8 0-2.9 2.2-5.05 1.95-1.95 4.8-2.45 2.85-.55 4.8.65 2.2 1.35 2.2 4.35 0 2.1-2.15 4.75-2.6 3.25-6.35 3.25m-74.5-56q6.8.35 8.95 2.7 1.05 1.2 1.05 3.8 0 2.05-1.15 4-.95 1.7-2.35 2.25-2.1 1.25-5 1.25-4.85 0-7.35-3.25-1.65-2.15-1.65-3.85 0-1.55 1-2.6.05-1.85.85-2.95 1.7-2.25 6.15-1.35h-.5M22.8 51.7q2.35 2.4 2.35 4.55 0 1.45-1 2.65-1.25 1.45-3.25 1.45-4.95 0-8.25-3.95-2.5-2.95-2.5-5.05 0-3.1 2.35-3.85 2.05-.6 5.15.7 2.95 1.25 5.15 3.5m11.85 5.25q0 1.2-1.15 2.65-1.4 1.75-3.35 1.75-2.7 0-3.6-2.25-.45-1.1-.4-2.15 0-4.3 4.25-4.3t4.25 4.3" fill="#bcfefd" fill-rule="evenodd" transform="translate(2.5 2.5)"/><path d="m138.2 124.4-84.7-.2-13.6-62.65L93.15 20l54.75 40.5-9.7 63.9" fill="#22a7aa" fill-rule="evenodd" transform="translate(2.5 2.5)"/><path d="M185.7 39.55q-.1 28.3-26.9 29.65l-11 67.75-97.35-.2-15.8-66.65q-30-.9-32.1-25.75-.5-5.8 5.55-7.6 4.2 9.1 20.4 9.35Q58.65 33.85 87.6 5.25q6.6-5.15 16.15-.6 26.9 28.95 58.75 39.3 13.1-1.7 17.95-10.65 5.35-1.4 5.25 6.25z" fill="none" stroke="#473267" stroke-linecap="round" stroke-linejoin="round" stroke-width="5"/></g><g id="b"><path d="M95.5 107.2q-4.25-5.8-4.25-11.5 0-5.9 3.9-16.95 3.85-11 3.85-12v-.2q2.35-7.05 2.55-13.5.2-7.5-2.55-14.25-5.95-14.8-8-15.9Q84.3 12.4 74.8 8q-8.55-5.85-16.05-6.25Q55.1-.05 54.8.9L51.6.35q7.5-.5 13.3-.3l5.75.45q5.5.6 10.3 2.05 13.6 4.1 21.7 14.9 11.4 15.2 12.7 33.6-.2 1-.15 2 0 1.2.3 2.45-.5 4.6-1.85 9.05l-2.8 8.5-.35 1-.45 1.15q-2.3 6.2-4 8.95-1.75 2.75-1.1 1.55.6-1.25-1.75 2.75-1.1 1.85-1.65 3.6-.65 2-.55 3.95.15 2.65.75 4.55l.45 1.3q.55 1.2 1.65 2.2l.75 1.6.7.9.85 1.45-.4.9.4-.9.55 1v.05l-.95-.15-10.25-1.7m11.2 1.75q-.3-1.5-.15-1.4l.2.6-.05.8" fill="#e7b907" fill-rule="evenodd" transform="translate(1.1 1.1)"/><path d="M54.8.9q.3-.95 3.95.85 7.5.4 16.05 6.25 9.5 4.4 16.2 14.9 2.05 1.1 8 15.9 2.75 6.75 2.55 14.25-.2 6.45-2.55 13.5v.2q0 1-3.85 12-3.9 11.05-3.9 16.95 0 5.7 4.25 11.5-11.65-.55-23.15 1.1l-5.75.95q-12.8 2.05-27.15-1.9-14.4-4-19.95-9.8l-6.7-7.15-1.25-1.55-.5-.65-2.9-4.35-.1-.15Q5.8 79.9 4.2 75.75l7.75 5.1q3.9 6.75 9.65 11.2 2.1 1.65 4.55 3l2.6 1.35 3.5 1.4.6.2-.4-.25-1.5-1q-3.1-2.1-5.85-4.7-3.45-3.25-6.25-7.2 4.5 2.5 9.65 3.6 9.5 2.05 19.25 1.5 9.9-.5 18.75-5.05l7-4.5 6.2-4.35 2.35-2 1-1 3.05-3.5Q89.8 65 93.4 53.3l.1-.25q3.3-11.7-11.2-33.8.95.55-10.55-8.8Q60.25 1.05 54.8.9M51.6.35l.45.3-.5-.3h.05" fill="#facd1f" fill-rule="evenodd" transform="translate(1.1 1.1)"/><path d="m106.15 108-.85-1.45-.7-.9-.75-1.6 1.55 2.5 1.3 2.4v.05l-.55-1 .55.95-.55-.95m9.35-52.5q-.3-1.25-.3-2.45-.05-1 .15-2l.1 2 .05 1 .05 1.45h-.05" fill="#be9905" fill-rule="evenodd" transform="translate(1.1 1.1)"/><path d="M103.85 104.05q-1.1-1-1.65-2.2l-.45-1.3q-.6-1.9-.75-4.55-.1-1.95.55-3.95.55-1.75 1.65-3.6 2.35-4 1.75-2.75-.65 1.2 1.1-1.55 1.7-2.75 4-8.95l.45-1.15.35-1 2.8-8.5q1.35-4.45 1.85-9.05h.05q0 9.3-1.85 17.55l-.25 1q-2 8.15-5.85 15.2l-1.45 2.8q-2.35 4.95-2.6 8.5-.15 1.95 1.85 6l-1.55-2.5" fill="#fad238" fill-rule="evenodd" transform="translate(1.1 1.1)"/><path d="m51.6.35 3.2.55q5.45.15 16.95 9.55 11.5 9.35 10.55 8.8 14.5 22.1 11.2 33.8l-.1.25Q89.8 65 86.1 69.55l-3.05 3.5-1 1-2.35 2-6.2 4.35-7 4.5q-8.85 4.55-18.75 5.05-9.75.55-19.25-1.5-5.15-1.1-9.65-3.6-3.45-5.3-6.6-10.8l-.55-1Q7.9 66.4 4.6 59.5l.3 2.5q.95 5.7 3.15 11.05l.4 1q1.5 3.5 3.5 6.8l-7.75-5.1-.35-.95-.25-.75-.35-1Q1.4 67.7.55 61.7q-.65-4.35-.5-8.65.3-10.85 5.4-21.3l2.75-5q1.3 2.85 4.95 4.2 2.55.95 5.4.85l5-.35q4.8-.35 8.9-2.95l2.6-1.85q4.5-3.5 7.25-8.35 2 1.75 4.65 1.75 2.9 0 4.95-2.1Q54 15.9 54 13q0-2.9-2.1-5-2.05-2.05-4.9-2.05l.15-2.8q.05-2.3-1.9-2.05l6.3-.75.5.3-.45-.3" fill="#fbda59" fill-rule="evenodd" transform="translate(1.1 1.1)"/><path d="M45.25 1.1q1.95-.25 1.9 2.05L47 5.95q2.85 0 4.9 2.05 2.1 2.1 2.1 5t-2.1 4.95q-2.05 2.1-4.95 2.1-2.65 0-4.65-1.75-2.75 4.85-7.25 8.35l-2.6 1.85q-4.1 2.6-8.9 2.95l-5 .35q-2.85.1-5.4-.85-3.65-1.35-4.95-4.2 6.75-11.25 17.85-18.6 7.6-5.1 19.05-7l.1-.05h.05m-3.2 5L41.6 6l-.4-.05h-3.65V6h-.4l-.45.1-.35.2-.4.2-.4.2-.4.2-.4.2-.25.2-.25.2-.4.2-.4.2-.2.2-.2.2-.25.15-.3.2-.35.2-.2.2-.2.2-.2.2-.2.2-.1.2-.2.2-.2.2-.2.2-.2.15-.2.2-.2.2-.2.2-.15.2-.2.2-.2.2-.2.2-.2.2-.15.2-.1.2-.1.15-.05.2-.05.2v1.2l.05.2.05.2.1.15.1.2.15.2.2.2.2.2.4.2.45.15.25.05.2.05.3.1.4.05h1.05l.4-.05.3-.1.3-.05.25-.05.45-.15.6-.2.55-.2.5-.1.25-.1.25-.05.4-.15.4-.2.35-.15.55-.2.5-.2.4-.2.25-.2.35-.2.25-.2.35-.2.25-.2.4-.2.3-.2.2-.15.2-.2.2-.2.1-.2.3-.2.2-.2.3-.2.35-.2.2-.2.1-.2.15-.2.1-.15.1-.2.1-.2.1-.2.05-.2.05-.2.05-.2V8.3l-.05-.2-.05-.2-.05-.2-.15-.2-.15-.2-.1-.2-.2-.2-.2-.2-.2-.2-.25-.2-.35-.2" fill="#fdedac" fill-rule="evenodd" transform="translate(1.1 1.1)"/><path d="m42.05 6.1.35.2.25.2.2.2.2.2.2.2.1.2.15.2.15.2.05.2.05.2.05.2v.95l-.05.2-.05.2-.05.2-.1.2-.1.2-.1.2-.1.15-.15.2-.1.2-.2.2-.35.2-.3.2-.2.2-.3.2-.1.2-.2.2-.2.2-.2.15-.3.2-.4.2-.25.2-.35.2-.25.2-.35.2-.25.2-.4.2-.5.2-.55.2-.35.15-.4.2-.4.15-.25.05-.25.1-.5.1-.55.2-.6.2-.45.15-.25.05-.3.05-.3.1-.4.05H31.3l-.4-.05-.3-.1-.2-.05-.25-.05-.45-.15-.4-.2-.2-.2-.2-.2-.15-.2-.1-.2-.1-.15-.05-.2-.05-.2v-1.2l.05-.2.05-.2.1-.15.1-.2.15-.2.2-.2.2-.2.2-.2.2-.2.15-.2.2-.2.2-.2.2-.2.2-.15.2-.2.2-.2.2-.2.1-.2.2-.2.2-.2.2-.2.2-.2.35-.2.3-.2.25-.15.2-.2.2-.2.4-.2.4-.2.25-.2.25-.2.4-.2.4-.2.4-.2.4-.2.35-.2.45-.1h.4v-.05h3.65l.4.05.45.1" fill="#fff" fill-rule="evenodd" transform="translate(1.1 1.1)"/><path d="M18.85 84.85q2.8 3.95 6.25 7.2 2.75 2.6 5.85 4.7l1.5 1 .4.25-.6-.2-3.5-1.4-2.6-1.35q-2.45-1.35-4.55-3-5.75-4.45-9.65-11.2-2-3.3-3.5-6.8l-.4-1Q5.85 67.7 4.9 62l-.3-2.5q3.3 6.9 7.1 13.55l.55 1q3.15 5.5 6.6 10.8" fill="#fde99b" fill-rule="evenodd" transform="translate(1.1 1.1)"/><path d="m96.6 108.3 10.25 1.7.4-.9.55.95v.05-.05l-1.3-2.4q-2-4.05-1.85-6 .25-3.55 2.6-8.5l1.45-2.8q3.85-7.05 5.85-15.2l.25-1q1.85-8.25 1.85-17.55l-.05-1.45-.05-1-.1-2q-1.3-18.4-12.7-33.6-8.1-10.8-21.7-14.9-4.8-1.45-10.3-2.05L66 1.15q-5.8-.2-13.3.3M5.3 76.85Q6.9 81 9.15 84.8l.1.15 2.9 4.35.5.65m1.25 1.55 6.7 7.15q5.55 5.8 19.95 9.8 14.35 3.95 27.15 1.9l5.75-.95q11.5-1.65 23.15-1.1M52.65 1.45l-6.3.75M9.3 27.85l-2.75 5q-5.1 10.45-5.4 21.3-.15 4.3.5 8.65.85 6 2.7 11.35l.35 1 .25.75.35.95m41-74.65-.1.05q-11.45 1.9-19.05 7-11.1 7.35-17.85 18.6M106.85 110l-.05.15h1l-.95-.15m.95.1v.05" fill="none" stroke="#473267" stroke-linecap="round" stroke-linejoin="round" stroke-width="2.2"/><path d="m52.65 1.45.5.3-.45-.3" fill="none" stroke="#3c0c00" stroke-linecap="round" stroke-linejoin="round" stroke-width=".25"/><path d="m12.65 89.95 1.25 1.55M52.7 1.45h-.05m-6.3.75h-.05" fill="none" stroke="#3c0c00" stroke-linecap="round" stroke-linejoin="round" stroke-width="2"/><path d="M57.25 30.35q0 1.7-1.2 3.4Q54.5 36 51.75 36q-3.25 0-4.2-2.25-.3-.75-.3-2.5 0-2.5 1.55-4.15 1.4-1.5 3.45-1.7 2.05-.2 3.45 1.05 1.55 1.35 1.55 3.9M30.75 44.5q-3.45 0-4.95-2.7L25 39q0-2.15 1.65-3.5 1.5-1.25 3.6-1.25 5.25-.05 5.25 5.4 0 4.85-4.75 4.85" fill="#be9905" fill-rule="evenodd" transform="translate(1.1 1.1)"/><path d="M88 64.1q-5.45 1.45-9.8.55l-2.75-.95q-1.95-1.05-2.4-2.8-.75-2.75 2.4-5.7l.15-.15q3.35-3 8.8-4.45 5.45-1.45 9.8-.55 4.4.95 5.15 3.75t-2.55 5.85q-3.35 3-8.8 4.45M9 89.25q-4.4-.95-5.15-3.75t2.55-5.85q3.35-3 8.8-4.45 5.45-1.45 9.8-.55 4.4.95 5.15 3.75t-2.55 5.85q-3.35 3-8.8 4.45-5.45 1.45-9.8.55" fill="#f66" fill-rule="evenodd" transform="translate(1.1 1.1)"/><path d="M54.65 67.85q-3.2-.15-2.95 3.25.15 1.9 2.15 2.1l2 .1q-.1 1.15.15 3.4 1 2.3 3.45 2.5 2.9.2 3.65-2.05" fill="none" stroke="#473267" stroke-linecap="round" stroke-linejoin="round" stroke-width="2.2"/></g><g id="c"><path d="M0 9q-3.75 0-6.4-2.65Q-9 3.75-9 0q0-3.75 2.6-6.4Q-3.75-9 0-9q3.75 0 6.35 2.6Q9-3.75 9 0q0 3.75-2.65 6.35Q3.75 9 0 9" fill="#fff" fill-rule="evenodd" transform="translate(9.75 9.75)"/><path d="M9.75 18.75q-3.75 0-6.4-2.65-2.6-2.6-2.6-6.35 0-3.75 2.6-6.4Q6 .75 9.75.75q3.75 0 6.35 2.6 2.65 2.65 2.65 6.4 0 3.75-2.65 6.35-2.6 2.65-6.35 2.65z" fill="none" stroke="#473267" stroke-linecap="round" stroke-linejoin="round" stroke-width="1.5"/><path d="M-2.85 2.8Q-4 1.65-4 0t1.15-2.85Q-1.65-4 0-4q1.65 0 2.8 1.15Q4-1.65 4 0q0 1.65-1.2 2.8Q1.65 4 0 4t-2.85-1.2" fill="#473267" fill-rule="evenodd" transform="translate(9.75 9.75)"/></g><path d="M30 0v30H0V0h30" fill="#fff" fill-opacity="0" fill-rule="evenodd" id="d"/></defs></svg>