<svg xmlns:ffdec="https://www.free-decompiler.com/flash" xmlns:xlink="http://www.w3.org/1999/xlink" ffdec:objectType="frame" height="36.15" width="36.1" xmlns="http://www.w3.org/2000/svg"><g transform="translate(.75 2.6)"><use ffdec:characterId="78" height="30" transform="matrix(1.096 0 0 1.097 .85 -.95)" width="30" xlink:href="#a"/><use ffdec:characterId="565" height="88.8" transform="matrix(.1365 0 0 .1366 3.745 18.945)" width="189.15" xlink:href="#b"/><use ffdec:characterId="567" height="80.4" transform="matrix(.3067 0 0 .307 7.243 1.293)" width="76.85" xlink:href="#c"/></g><defs><use ffdec:characterId="564" height="88.8" width="189.15" xlink:href="#d" id="b"/><use ffdec:characterId="566" height="80.4" width="76.85" xlink:href="#e" id="c"/><g id="d"><path d="M7 19.6q-2.9 3.35-2.9 7 0 9.3 18.6 16.25l7.45 2.5 4.95 1.4q24.6 6.45 58.1 6.45l18.75-.55q25.1-1.5 44.25-7.3l7.5-2.5q7.15-2.65 11.6-5.7 7.05-4.85 7.05-10.55 0-3.75-3.05-7.1 4.2 3.2 5.85 6.05.5 1.55.5 3.2 0 2.8-1.6 5.45-3.95 6.5-17.7 11.75l-7.8 2.65q-19 5.75-43.5 7.5l-21.85.7q-32.9 0-57.55-6.05l-7.9-2.15L20 45.95Q.7 38.55.7 28.75q0-2 .8-3.95 1.75-2.45 5.5-5.2" fill="#f0a8a8" fill-rule="evenodd" transform="translate(1.5 1.5)"/><path d="M175.3 37.15q-4.45 3.05-11.6 5.7l-7.5 2.5q-19.15 5.8-44.25 7.3l-18.75.55q-33.5 0-58.1-6.45l-4.95-1.4-7.45-2.5Q4.1 35.9 4.1 26.6q0-3.65 2.9-7 5.8-6.65 23.15-11.8Q49.2 2.1 74 .6L63.3 3.3Q47.8 7.9 42.6 13.85q-2.6 3-2.6 6.25 0 2.8 1.9 5.4 3.7 5.05 14.75 9.15l6.65 2.25q18.4 5.5 42.8 6.7l13.65.3q32.5 0 55.55-6.75M133.6 63q.75 1.4 1.5 1.35l9.05.3q2.8.4 5.5-.05l2.4-.4 4.05-.8q5.1-1.15 10.05-3.35l1.95-.7 3.4-1.15q4.7-1.85 9.6-2.95l4.7-.75q-2 5.55-16.25 11.1-5.5 2.6-13.35 4.95-26.05 7.8-63 7.8-21.6 0-39.55-2.65-1.45-1.05-2.95-1.95l-2.6-1.85q-5.9-4.8-9.05-11.55 23.3 5.45 54.15 5.45 22.05 0 40.25-2.75l.15-.05" fill="#e1e1e1" fill-rule="evenodd" transform="translate(1.5 1.5)"/><path d="M115.05 56.1q24.5-1.75 43.5-7.5l7.8-2.65q13.75-5.25 17.7-11.75 1.6-2.65 1.6-5.45 0-1.65-.5-3.2.9 1.6.95 3.05v12.05q-.65 6.2-16.55 12.4-5.5 2.6-13.35 4.95-10.4 3.1-22.6 5l-.15.05q-3.15.3-6.35-.65l-1.5-.5q-4.8-1.65-9.05-5.9l-1.5.1" fill="#db7c3e" fill-rule="evenodd" transform="translate(1.5 1.5)"/><path d="M179.3 19.5q3.05 3.35 3.05 7.1 0 5.7-7.05 10.55-23.05 6.75-55.55 6.75l-13.65-.3q-24.4-1.2-42.8-6.7l-6.65-2.25Q45.6 30.55 41.9 25.5 40 22.9 40 20.1q0-3.25 2.6-6.25Q47.8 7.9 63.3 3.3L74 .6 93.2 0q36.95 0 63 7.8 17.25 5.1 23.1 11.7m6.8 21.15V53.2l-.3 1.3-4.7.75q-4.9 1.1-9.6 2.95l-3.4 1.15-1.95.7q-4.95 2.2-10.05 3.35l-4.05.8-2.4.4q-2.7.45-5.5.05l-9.05-.3q-.75.05-1.5-1.35 12.2-1.9 22.6-5 7.85-2.35 13.35-4.95 15.9-6.2 16.55-12.4" fill="#fff" fill-rule="evenodd" transform="translate(1.5 1.5)"/><path d="M186.1 53.2v1.3h-.3l.3-1.3" fill="#de3a3a" fill-rule="evenodd" transform="translate(1.5 1.5)"/><path d="M35.65 50.75Q60.3 56.8 93.2 56.8l21.85-.7 1.5-.1q4.25 4.25 9.05 5.9l1.5.5q3.2.95 6.35.65-18.2 2.75-40.25 2.75-30.85 0-54.15-5.45l-1.75-4.5-.95-2.85-.7-2.25M186.1 54.5v5.1q.7 6.7-16.55 13.45-5.5 2.6-13.35 4.9-26.05 7.85-63 7.85l-27-1.15q-3.8-2.05-7.05-4.8-2.65-2.25-5.5-4.15 17.95 2.65 39.55 2.65 36.95 0 63-7.8 7.85-2.35 13.35-4.95 14.25-5.55 16.25-11.1h.3" fill="#d92626" fill-rule="evenodd" transform="translate(1.5 1.5)"/><path d="M1.5 24.8q-.8 1.95-.8 3.95 0 9.8 19.3 17.2l7.75 2.65 7.9 2.15.7 2.25.95 2.85 1.75 4.5-8.9-2.35q-7.95-2.35-13.45-5Q.7 46.85.05 40.65V28.6q.1-1.8 1.45-3.8m64.7 59.85q-20.05-1.9-36.05-6.7-7.95-2.35-13.45-5Q-.65 66.3.05 59.6v-6.4Q.7 59.4 16.7 65.55q5.5 2.65 13.45 5Q41 73.8 53.65 75.7q2.85 1.9 5.5 4.15 3.25 2.75 7.05 4.8" fill="#bc2121" fill-rule="evenodd" transform="translate(1.5 1.5)"/><path d="M.05 53.2V40.65Q.7 46.85 16.7 53q5.5 2.65 13.45 5l8.9 2.35Q42.2 67.1 48.1 71.9l2.6 1.85q1.5.9 2.95 1.95-12.65-1.9-23.5-5.15-7.95-2.35-13.45-5Q.7 59.4.05 53.2" fill="#c4c4c4" fill-rule="evenodd" transform="translate(1.5 1.5)"/><path d="M8.5 21.1Q4.75 23.85 3 26.3q-1.35 2-1.45 3.8v31q-.7 6.7 16.65 13.35 5.5 2.65 13.45 5 16 4.8 36.05 6.7l27 1.15q36.95 0 63-7.85 7.85-2.3 13.35-4.9Q188.3 67.8 187.6 61.1v-31q-.05-1.45-.95-3.05Q185 24.2 180.8 21q-5.85-6.6-23.1-11.7-26.05-7.8-63-7.8l-19.2.6Q50.7 3.6 31.65 9.3 14.3 14.45 8.5 21.1z" fill="none" stroke="#603" stroke-linecap="round" stroke-linejoin="round" stroke-width="3"/></g><g id="e"><path d="m21.8 20.75.85-1q1.6-2.2 2.1-4.85l.5-.15 4.9-.1 4.7.35q-2.2 6.7-3.05 14.4-.5 4.55-.5 9.45l.25 3.95q.3 2.2.9 4.35l-4.8-.5q-2.3 0-5.2.75l-1.15.35.5-27m18 27.9L40 45q.5-6.35 2.45-11.75 2.3-6.35 6.5-11.35l3.4 3.4q5.1 5.55 7.7 7.3 4.25 2.85 9.7 3.25-3.4 5.4-8.05 8.9-5.6 4.15-11.5 5l-2.8.15-7.6-1.25" fill="#ff0f0f" fill-rule="evenodd" transform="translate(1 1)"/><path d="M37.5 8.2q6 .75 10.7 3.4 3.2 1.8 6.35 4.95-2.55 1.85-4.8 4.4l-.8.95q-2.75-2.55-5.1-3.95-4-2.3-9-2.95.6-1.95 1.35-3.75l1.3-3.05m3 46.5-1.45-.4-4.2-1.1-.55-1.1q-1.15-2.45-1.85-4.95l5.8 1.15 1.55.35v1.2q0 2.3.7 4.85" fill="#fff375" fill-rule="evenodd" transform="translate(1 1)"/><path d="M8.05 5.85h-.4q-.7.65-1.45 1.85-.95 1.6-1.25 3-.15.65-.15 1.25 0 1.95.85 3l.4.4q.95.75 3 .75 2.55 0 3.95-2l.3-.5q1-1.85 1-4.25 0-2.3-1.75-3l-4.35-.5h-.15m-2.55 17L3.65 21.3Q0 17.65 0 12.5t3.65-8.85Q7.25.05 12.3 0h.15q3.8 0 6.8 2 1.8 3.85 1.8 8.2 0 2.75-1.5 5.2-1.25 1.95-3.5 3.7-4.75 3.65-10.55 3.75M21.2 54.6l-.1 3.7.9.45.55.35q1.25 2.8 1.25 4.75l-.15 1.45q-.55 2.5-2.85 5.55-3.8 5-9.4 5l-1.5-.1-.5-.45-1.05-1.25-.15-.15q-1.9-2.65-1.9-6 0-4.35 3.1-7.45 1.15-1.15 2.5-1.85L9.95 24.75l2.5.2 2.35-.2-.35 4.05-.1 1.8q-.3 4.7-.3 9.1 0 2.75.3 5 .55 4.8 2.45 7.4.9 1.2 2 1.85 1.1.6 2.4.65m-.1 3.7q-1.95-.9-4.3-.9-2.7 0-4.9 1.2 2.2-1.2 4.9-1.2 2.35 0 4.3.9m-4.3 5.8q-.75-.5-2.4-.5-.9 0-1.55.35l-.65.35-.3.3-.35.65-.1.25q-.4 1.15-.4 2.7 0 1.15.45 1.85l.3.35.25.2q.75.5 2.25.5 1.8 0 2.75-1.5.65-1.1.75-2.75v-.4q0-1.2-.45-1.85l-.55-.5" fill="#ffbb14" fill-rule="evenodd" transform="translate(1 1)"/><path d="M32.45 47.15q-.6-2.15-.9-4.35l-.25-3.95q0-4.9.5-9.45.85-7.7 3.05-14.4 5 .65 9 2.95 2.35 1.4 5.1 3.95-4.2 5-6.5 11.35Q40.5 38.65 40 45l-.2 3.65-1.55-.35-5.8-1.15" fill="#ffd1dc" fill-rule="evenodd" transform="translate(1 1)"/><path d="M24.45 8.9q1.35-.55 2.75-.8l5.2-.2 5.1.3-1.3 3.05q-.75 1.8-1.35 3.75l-4.7-.35-4.9.1-.5.15.2-2.4q0-1.9-.5-3.6m10.4 44.3-6.8-.8-3.2.15h-.3L22.2 53l-1 .4.1-5.65 1.15-.35q2.9-.75 5.2-.75l4.8.5q.7 2.5 1.85 4.95l.55 1.1" fill="#ffc041" fill-rule="evenodd" transform="translate(1 1)"/><path d="m54.55 16.55 2.95 3.25 6.8 8.15q3.6 3.45 7.8 3.7h.55l1.75-.1.45-.15-1.75 4.3q-5.95 13.85-11.75 17Q54.7 56.25 50 56.2l-1.55-.05q-3.65-.25-7.95-1.45-.7-2.55-.7-4.85v-1.2l7.6 1.25 2.8-.15q5.9-.85 11.5-5 4.65-3.5 8.05-8.9-5.45-.4-9.7-3.25-2.6-1.75-7.7-7.3l-3.4-3.4.8-.95q2.25-2.55 4.8-4.4" fill="#fd8b4d" fill-rule="evenodd" transform="translate(1 1)"/><path d="M8.05 5.85h.15l4.35.5q1.75.7 1.75 3 0 2.4-1 4.25l-.3.5q-1.4 2-3.95 2-2.05 0-3-.75l-.4-.4q-.85-1.05-.85-3 0-.6.15-1.25.3-1.4 1.25-3 .75-1.2 1.45-1.85h.4M16.8 64.1l.55.5q.45.65.45 1.85v.4q-.1 1.65-.75 2.75-.95 1.5-2.75 1.5-1.5 0-2.25-.5l-.25-.2-.3-.35q-.45-.7-.45-1.85 0-1.55.4-2.7l.1-.25.35-.65.3-.3.65-.35q.65-.35 1.55-.35 1.65 0 2.4.5" fill="#ffffc1" fill-rule="evenodd" transform="translate(1 1)"/><path d="M21.2 53.4v1.2q-1.3-.05-2.4-.65-1.1-.65-2-1.85-1.9-2.6-2.45-7.4-.3-2.25-.3-5 0-4.4.3-9.1l.1-1.8.35-4.05q3.65-.65 6.45-3.45l.55-.55-.5 27-.1 5.65" fill="#ffdd4c" fill-rule="evenodd" transform="translate(1 1)"/><path d="m19.25 2 2 1.65Q23.6 6 24.45 8.9q.5 1.7.5 3.6l-.2 2.4q-.5 2.65-2.1 4.85l-.85 1-.55.55q-2.8 2.8-6.45 3.45l-2.35.2-2.5-.2q-2.4-.5-4.45-1.9 5.8-.1 10.55-3.75 2.25-1.75 3.5-3.7 1.5-2.45 1.5-5.2 0-4.35-1.8-8.2m3.3 57.1 1.65 1.35q2 2 2.7 4.5.4 1.4.4 2.95 0 4.3-3.1 7.4-3.05 3.1-7.4 3.1-4 0-6.9-2.65l1.5.1q5.6 0 9.4-5 2.3-3.05 2.85-5.55l.15-1.45q0-1.95-1.25-4.75" fill="#fd790f" fill-rule="evenodd" transform="translate(1 1)"/><path d="M6.5 23.85 4.65 22.3Q1 18.65 1 13.5t3.65-8.85Q8.25 1.05 13.3 1h.15q3.8 0 6.8 2l2 1.65Q24.6 7 25.45 9.9q1.35-.55 2.75-.8l5.2-.2 5.1.3q6 .75 10.7 3.4 3.2 1.8 6.35 4.95l2.95 3.25 6.8 8.15q3.6 3.45 7.8 3.7h.55l1.75-.1.45-.15-1.75 4.3q-5.95 13.85-11.75 17Q55.7 57.25 51 57.2l-1.55-.05q-3.65-.25-7.95-1.45l-1.45-.4-4.2-1.1-6.8-.8-3.2.15h-.3L23.2 54l-1 .4v1.2l-.1 3.7.9.45.55.35 1.65 1.35q2 2 2.7 4.5.4 1.4.4 2.95 0 4.3-3.1 7.4-3.05 3.1-7.4 3.1-4 0-6.9-2.65l-.5-.45-1.05-1.25-.15-.15q-1.9-2.65-1.9-6 0-4.35 3.1-7.45 1.15-1.15 2.5-1.85l-1.95-33.85q-2.4-.5-4.45-1.9m19.25-7.95q-.5 2.65-2.1 4.85l-.85 1-.5 27-.1 5.65m3.55-38.5.2-2.4q0-1.9-.5-3.6M22.8 21.75l-.55.55q-2.8 2.8-6.45 3.45l-2.35.2-2.5-.2M12.9 59.6q2.2-1.2 4.9-1.2 2.35 0 4.3.9" fill="none" stroke="#ac3d20" stroke-linecap="round" stroke-linejoin="round" stroke-width="2"/></g><path d="M30 0v30H0V0h30" fill="#fff" fill-opacity="0" fill-rule="evenodd" id="a"/></defs></svg>