<svg xmlns:ffdec="https://www.free-decompiler.com/flash" xmlns:xlink="http://www.w3.org/1999/xlink" ffdec:objectType="frame" height="36.15" width="38.25" xmlns="http://www.w3.org/2000/svg"><g transform="translate(2.85 3.7)"><use ffdec:characterId="554" height="130" transform="matrix(.2397 0 0 .24 -.59 -.598)" width="143.05" xlink:href="#a"/><use ffdec:characterId="562" height="43.15" transform="matrix(.762 0 0 .7627 -1.139 -2.009)" width="43.15" xlink:href="#b"/></g><defs><g id="a"><path d="m-63.4-7.35-.15-.15L-65-6.35l-2.45-6.55 60-40.9-50.75 41.9.05.1.05.2.15.2.05.2.15.15.05.2.1.2v1.3l.15.2.05.2.05.15v1.15l-.05.2-.1.15-.1.2v1.15l-.05.15-.1.2-.1.2-.1.2-.05.15-.15.2.15.1.1.2.05.2.15.2.05.15.15.2.1.2.05.2.15.15.05.2.15.2.05.2.1.15.1.2.05.2.1.2.1.15.05.2.05.2.15.2.1.15.15.2.05.2.1.2.1.15.05.2v.2l.05.2.05.2.1.15.1.2.05.2.15.2.1.15.15.2.1.2.15.2.05.15.15.2.05.2.1.2.1.15.1.2.05.2.15.2.05.15.15.2.05.2.05.2.15.15v.2l.05.2.05.2.05.15v.2l.15.2.05.2.05.15.1.2.05.2.1.2.1.15v.2l.05.2.05.2.05.1.15.2.05.2.15.15.05.2.05.2.05.2.1.15.05.2.05.2.05.2.15.15.05.2.05.2.1.2.05.15.05.2.05.2v.35l.1.2.15.2.15.2.05.15.05.2-.05.2-.05.2v.05l.05.2.05.15.1.2.05.2.05.2.05.15.1.2.05.2.05.2.05.15.1.2.1.2.05.2.15.15.05.2.05.2v.2l-.1.15-.05.2-.15.15-.1.05-.35.05-.4-.1-.2-.2-.15-.2-.05-.2-.1-.15-.1-.2-.1-.2-.05-.2-.15-.15-.05-.2-.05-.2-.1-.2-.05-.15-.05-.2-.05-.2-.1-.2-.05-.15-.05-.2-.05-.2-.1-.2-.05-.15-.05-.2-.05-.2-.1-.2v-.1l-.15-.05-.2-.2-.15-.2-.05-.2-.1-.15-.1-.2-.05-.2-.05-.2-.05-.15-.1-.2-.1-.2-.05-.2-.15-.15v-.2l-.05-.2-.05-.2-.1-.15-.05-.2-.05-.2-.05-.2-.1-.15v-.2l-.05-.2-.05-.2-.05-.1-.1-.15V6.8l-.05-.2v-.05l-.05-.1-.05-.1-.1-.15v-.15l-.05-.15v-.05l-.05-.15-.15-.15v-.1l-.05-.15-.1-.2-.1-.2-.1-.2-.15-.15-.05-.15-.2.05-.4-.1-.2-.2-.15-.2V3.4l-.1-.2-.15-.15-.1-.2-.15-.2-.15-.05-.2-.2-.15-.2-.05-.15-.1-.2-.1-.2-.1-.2-.05-.15-.15-.2-.05-.2-.05-.2-.1-.15-.05-.2-.05-.2-.15-.2-.05-.15-.1-.2-.15-.2-.1-.2-.15-.15-.1-.2-.1-.2-.1-.2-.05-.15-.15-.2-.05-.2-.05-.2-.1-.15-.15-.2-.2-.2-.1-.1-.2-.05-.1-.2-.15-.2v-.3l-.1-.2-.15-.15-.05-.15-.1-.2-.15-.2-.15-.15-.05-.15-.15-.2-.05-.2-.05-.15-.15-.15-.2-.2-.15-.2-.2-.15-.1-.15-.05-.2-.1-.2-.15-.15-.05-.15-.15-.2-.1-.15m60.6-34.1-.05-.05-.5-.7v-6.95l-.15-.25h-.85l-.45-.05-.1-.2-.2-.2-.2-.2-.15-.1-.15-.2-.15-.2-.05-.2-.15-.1-.15-.2-.1-.2v-.3l-.1-.2-.15-.2-.05-.15-.15-.15-.05-.2v-1.9l.05-.2.15-.15.2-.2.15-.15.05-.05v-1.7l.2-.7.7-.7.7-.45 1.15-.5.7-.45h1.15v-.25H.4l1.4.5.9.7.7.65.1.15 1.05.35.7.7.5.7.2.7v.6H6l.25.1.15.2.05.2.1.2.05.1.15.2.05.2v1l-.05.2-.15.2-.05.15-.1.15-.05.2-.1.2-.05.15-.15.15-.3.2-.1.2-.1.15-.2.15-.2.2-.15.2-.2.15-.35.15-.2.15-.3.1-.2.1-.25.1-.2.15-.25.1-.2.15-.3.1-.15.1-.2.05v6.05l-.45.7-.25.7-.3.3-.15.15-.5.25-1.15.25-1.6-.5-.65-.65M-59.7-10.6l.1.15v-.1l-.05-.15-.05.05v.05m.25.65.05.2v.2l.05.15v-.4l-.05-.15-.1-.2-.1-.2v.1l.05.15.1.15m21.25 55 .05.15v.05l.2.05.2.15.1.2.1.2v.2l.05.15.1.2.1.2.1.2.05.15.1.2v.4l.05.15.1.2.1.2v.35l.05.2.05.2.15.2v.55l.05.2.05.15.05.2.1.2v.35l.05.2.05.2.15.2v1.2h.25l.35.1.25.2.2.2.2.15.15.2.15.2.1.2.1.15.1.2.05.2.1.2v.15l.1.2.05.2.15.2.05.15.15.2.05.2.1.2.1.15v.4l.05.2.05.15.15.2v.35l.5.05.5.1.55.2.35.1 1.1.1.5.1 1 .15.3.05.25.05.25.05.95.1.4.1 1.35.15.35.1.2.2.1.2.1.15v.2l-.15.2-.05.2-.15.1-.1.05-.3.1h-1.2l-.15.1-.1.05-.3.1h-.5l-.45-.15-.45-.2-.3-.1-1.3-.05-.5-.15-1.5-.1-.5-.15-2.75-.1-.2-.05-.2.15-.35.15h-.75l-.45-.15-.2-.2-.1-.15-.1-.2-.1-.2-.05-.2v-.15l-.1-.2-.1-.2-.05-.2v-1.65l.1-.2.05-.05-.35-.15-.2-.2-.15-.15v-.4l-.1-.2-.15-.15v-4.9l-.05-.2-.05-.2-.05-.15-.1-.2v-.4l-.05-.15-.05-.2-.15-.2v-.55l-.05-.2-.05-.2-.05-.15-.1-.2v-.2l-.05-.2-.1-.15-.1-.2v-.4l-.05-.15-.05-.2-.15-.2v-.35l.1-.2.1-.2.15-.1.1-.1h.3v-.05l.4.15.25.15.05.2.15.2.05.2m96.7-51 .15.15.05.2v.2l-.15.2-.05.15-.1.2-.1.2-.1.2-.05.15.15-.15.2-.2.2-.2.2-.2.1-.1.15-.05h.3v-.1l.35.15.2.2.15.15.05.2v.2l-.15.2-.05.15-.1.2-.1.2-.1.2-.2.15-.2.2-.15.2-.2.2-.2.15-.1.2-.1.2-.1.2-.2.15-.05.2-.15.2-.1.2-.2.15-.05.2v.2l-.15.2-.05.15-.05.2v.2l-.05.2-.15.15-.05.2v.2l-.05.2-.15.15-.05.2-.15.2-.05.2-.1.15-.15.2-.05.2v.2l-.05.15-.15.2-.1.2-.2.2v.15l-.05.2-.1.2-.1.2-.05.15-.15.2-.1.2-.2.2-.05.15-.15.2-.05.1v.05l-.05.15-.15.2-.05.2v.35l-.05.2-.1.2-.1.2-.2.1-.3.05-.25-.05v.15l-.05.15-.1.2-.1.2v.35l-.05.2-.1.2-.1.2-.2.1-.3.05-.45-.1-.2-.2-.1-.2v-.9l.05-.2.15-.2.05-.2v-.35l.05-.2.05-.2.15-.15.05-.05-.05-.05v-.75l.1-.15.1-.2.05-.2v-.2l.1-.15.1-.2.1-.2.05-.2.15-.15v-.75l.05-.2.15-.2.05-.2.05-.15.05-.2.1-.2.05-.2.1-.15.1-.1V.9l.05-.2.05-.15.05-.2.1-.2.05-.2.05-.15.05-.2.1-.2.05-.2.05-.15.05-.2.1-.2.05-.2.05-.15.05-.2.1-.2.05-.2.1-.15.1-.2.05-.2v-.25l.05-.2.05-.15.1-.2.05-.1v-.2l.05-.2.15-.2.05-.2v-.25l.05-.05v-.05l.15-.2.05-.2v-.25L56-5.6v-.05l.05-.05h.05l.1-.2v-.55l.05-.2.2-.2.2-.1h.3v-.1h.25l.35.15.2.2.15.15.05.2v.05l.35.15.2.2m-16.8 45.1.35.15.2.15.15.2.05.2v1.1l-.05.2-.15.2-.05.2v.35l-.05.2-.1.2-.1.15v1.15l-.15.2-.05.15-.05.2v.55l-.05.2-.1.2-.05.2-.05.15-.05.2-.1.2-.05.2-.05.15v.75l-.05.2-.1.2-.05.2-.05.15v.2l-.05.2-.1.2-.05.15v.2l-.05.2v.75l-.05.2v.05l.1.1.15.2.05.2v.2l-.05.15-.15.2-.05.2v.95l-.05.2-.1.15-.1.2v.95l-.05.2-.15.15-.05.2v.75l-.15.2-.05.2v.05l.15.2.05.15v.2l-.15.2-.05.2-.05.15v.95l.05.2.15.2.05.15v1.15l-.05.2-.15.15-.2.2-.25.2-.05.2-.1.1-.15.05-.3.1h-.25l-.15-.05-.05.05-.1.1-.15.05-.3.1h-1l-.45-.15-1.8-.1-.5-.15-4.25-.1-.45-.15-.55-.1-.5-.15-.55-.2-.2-.15h-.05l-.15.05-.25.05-.25.05-.3.1h-.75l-.45-.15-.2-.2-.1-.15v-.4l.05-.2.15-.15.1-.15.15-.05.3-.05.95-.1.25-.05.25-.05.25-.05.25-.1.25-.05.25-.05.3-.05.95-.1.25-.05.25-.05h.3v-.05h4.25v-.45l.05-.2.15-.2.05-.15.1-.2.2-.2.2-.2.2-.15.15-.2.2-.2.2-.2.2-.15.1-.15.15-.05.3-.15.2-.1.3-.15.2-.1h.3V54h.75v-.4l.05-.2.15-.15-.1-.1-.1-.15v-.6l.05-.15.05-.2.1-.2v-.2l.05-.15v-1.55l.05-.15.05-.2.1-.2.05-.2v-.75l.05-.15v-.2l.05-.2.1-.2.05-.15v-.2l.05-.2.05-.2.1-.15.05-.2v-.75l.05-.2.05-.2.1-.15.05-.2.05-.2.05-.2.1-.15.05-.2v-.55l.05-.2.05-.2.15-.2v-1.3l.1-.2.15-.15v-.6l.05-.15.15-.2.05-.2v-.75l.1-.2.2-.15.45-.1v-.05" fill="#b3b4fd" fill-rule="evenodd" transform="translate(71.5 65)"/><path d="m-63.4-7.35.1.15.15.2.05.15.15.15.1.2.05.2.1.15.2.15.15.2.2.2.15.15.05.15.05.2.15.2.05.15.15.15.15.2.1.2.05.15.15.15.1.2v.3l.15.2.1.2.2.05.1.1.2.2.15.2.1.15.05.2.05.2.15.2.05.15.1.2.1.2.1.2.15.15.1.2.15.2.1.2.05.15.15.2.05.2.05.2.1.15.05.2.05.2.15.2.05.15.1.2.1.2.1.2.05.15.15.2.2.2.15.05.15.2.1.2.15.15.1.2v.55l.15.2.2.2.4.1.2-.05.05.15.15.15.1.2.1.2.1.2.05.15v.1l.15.15.05.15v.05l.05.15v.15l.1.15.05.1.05.1v.05l.05.2v.15l.1.15.05.1.05.2.05.2v.2l.1.15.05.2.05.2.05.2.1.15.05.2.05.2v.2l.15.15.05.2.1.2.1.2.05.15.05.2.05.2.1.2.1.15.05.2.15.2.2.2.15.05v.1l.1.2.05.2.05.2.05.15.1.2.05.2.05.2.05.15.1.2.05.2.05.2.05.15.1.2.05.2.05.2.15.15.05.2.1.2.1.2.1.15.05.2.15.2.2.2.4.1.35-.05.1-.05.15-.15.05-.2.1-.15v-.2l-.05-.2-.05-.2-.15-.15-.05-.2-.1-.2-.1-.2-.05-.15-.05-.2-.05-.2-.1-.2-.05-.15-.05-.2-.05-.2-.1-.2-.05-.15-.05-.2v-.05l.05-.2.05-.2-.05-.2-.05-.15-.15-.2-.15-.2-.1-.2v-.35l-.05-.2-.05-.2-.05-.15-.1-.2-.05-.2-.05-.2-.15-.15-.05-.2-.05-.2-.05-.2-.1-.15-.05-.2-.05-.2-.05-.2-.15-.15-.05-.2-.15-.2-.05-.1-.05-.2-.05-.2v-.2l-.1-.15-.1-.2-.05-.2-.1-.2-.05-.15-.05-.2-.15-.2v-.2l-.05-.15-.05-.2-.05-.2v-.2l-.15-.15-.05-.2-.05-.2-.15-.2-.05-.15-.15-.2-.05-.2-.1-.2-.1-.15-.1-.2-.05-.2-.15-.2-.05-.15-.15-.2-.1-.2-.15-.2-.1-.15-.15-.2-.05-.2-.1-.2-.1-.15-.05-.2-.05-.2v-.2l-.05-.2-.1-.15-.1-.2-.05-.2-.15-.2-.1-.15-.15-.2-.05-.2-.05-.2-.1-.15-.1-.2-.05-.2-.1-.2-.1-.15-.05-.2-.15-.2-.05-.2-.15-.15-.05-.2-.1-.2-.15-.2-.05-.15-.15-.2-.05-.2-.1-.2-.15-.1.15-.2.05-.15.1-.2.1-.2.1-.2.05-.15V-7.1l.1-.2.1-.15.05-.2V-8.8l-.05-.15-.05-.2-.15-.2v-1.3l-.1-.2-.05-.2-.15-.15-.05-.2-.15-.2-.05-.2-.05-.1 50.75-41.9-60 40.9L-65-6.35l1.45-1.15.15.15m64.65-33.6.3-.3.25-.7.45-.7v-6.05l.2-.05.15-.1.3-.1.2-.15.25-.1.2-.15.25-.1.2-.1.3-.1.2-.15.35-.15.2-.15.15-.2.2-.2.2-.15.1-.15.1-.2.3-.2.15-.15.05-.15.1-.2.05-.2.1-.15.05-.15.15-.2.05-.2v-1l-.05-.2-.15-.2-.05-.1-.1-.2-.05-.2-.15-.2-.25-.1h-.05v-.6l-.2-.7-.5-.7-.7-.7-1.05-.35-.1-.15-.7-.65-.9-.7-1.4-.5h-1.9v.25h-1.15l-.7.45-1.15.5-.7.45-.7.7-.2.7v1.7l-.05.05-.15.15-.2.2-.15.15-.05.2v1.9l.05.2.15.15.05.15.15.2.1.2v.3l.1.2.15.2.15.1.05.2.15.2.15.2.15.1.2.2.2.2.1.2.45.05h.85l.15.25v6.95l.5.7.05.05-48.45 37.1Q-29.8 13.8-29.3 41.45l-.05.05v1.4l.05.2q0 5.75-.95 11.95l23.1-.55H-7l37.95-1 1.8-.05q-12.95-30.2 17.9-60.4l-49.4-34m-60.7 31-.1-.15-.05-.15v-.1l.1.2.1.2.05.15v.4l-.05-.15v-.2l-.05-.2m-.25-.65v-.05l.05-.05.05.15v.1l-.1-.15m21.5 55.65-.05-.2-.15-.2-.05-.2-.25-.15-.4-.15v.05h-.3l-.1.1-.15.1-.1.2-.1.2v.35l.15.2.05.2.05.15v.4l.1.2.1.15.05.2v.2l.1.2.05.15.05.2.05.2v.55l.15.2.05.2.05.15v.4l.1.2.05.15.05.2.05.2v4.9l.15.15.1.2v.4l.15.15.2.2.35.15-.05.05-.1.2v1.65l.05.2.1.2.1.2v.15l.05.2.1.2.1.2.1.15.2.2.45.15h.75l.35-.15.2-.15.2.05 2.75.1.5.15 1.5.1.5.15 1.3.05.3.1.45.2.45.15h.5l.3-.1.1-.05.15-.1h1.2l.3-.1.1-.05.15-.1.05-.2.15-.2v-.2l-.1-.15-.1-.2-.2-.2-.35-.1-1.35-.15-.4-.1-.95-.1-.25-.05-.25-.05-.3-.05-1-.15-.5-.1-1.1-.1-.35-.1-.55-.2-.5-.1-.5-.05v-.35l-.15-.2-.05-.15-.05-.2v-.4l-.1-.15-.1-.2-.05-.2-.15-.2-.05-.15-.15-.2-.05-.2-.1-.2v-.15l-.1-.2-.05-.2-.1-.2-.1-.15-.1-.2-.15-.2-.15-.2-.2-.15-.2-.2-.25-.2-.35-.1h-.25v-1.2l-.15-.2-.05-.2-.05-.2v-.35l-.1-.2-.05-.2-.05-.15-.05-.2v-.55l-.15-.2-.05-.2-.05-.2v-.35l-.1-.2-.1-.2-.05-.15v-.4l-.1-.2-.05-.15-.1-.2-.1-.2-.1-.2-.05-.15v-.2l-.1-.2-.1-.2-.2-.15-.2-.05v-.05l-.05-.15m96.7-51-.2-.2-.35-.15v-.05l-.05-.2-.15-.15-.2-.2-.35-.15h-.25v.1h-.3l-.2.1-.2.2-.05.2v.55l-.1.2h-.05l-.05.05v.05l-.05.05v.25l-.05.2-.15.2v.05l-.05.05v.25l-.05.2-.15.2-.05.2v.2l-.05.1-.1.2-.05.15-.05.2v.25l-.05.2-.1.2-.1.15-.05.2-.1.2-.05.2-.05.15-.05.2-.1.2-.05.2-.05.15-.05.2-.1.2-.05.2-.05.15-.05.2-.1.2-.05.2-.05.15-.05.2v.05l-.1.1-.1.15-.05.2-.1.2-.05.2-.05.15-.05.2-.15.2-.05.2v.75l-.15.15-.05.2-.1.2-.1.2-.1.15v.2l-.05.2-.1.2-.1.15v.75l.05.05-.05.05-.15.15-.05.2-.05.2v.35l-.05.2-.15.2-.05.2v.9l.1.2.2.2.45.1.3-.05.2-.1.1-.2.1-.2.05-.2V7.6l.1-.2.1-.2.05-.15V6.9l.25.05.3-.05.2-.1.1-.2.1-.2.05-.2v-.35l.05-.2.15-.2.05-.15v-.05l.05-.1.15-.2.05-.15.2-.2.1-.2.15-.2.05-.15.1-.2.1-.2.05-.2V3.3l.2-.2.1-.2.15-.2.05-.15v-.2l.05-.2.15-.2.1-.15.05-.2.15-.2.05-.2.15-.15.05-.2v-.2l.05-.2.15-.15.05-.2v-.2l.05-.2.05-.15.15-.2v-.2l.05-.2.2-.15.1-.2.15-.2.05-.2.2-.15.1-.2.1-.2.1-.2.2-.15.2-.2.15-.2.2-.2.2-.15.1-.2.1-.2.1-.2.05-.15.15-.2v-.2l-.05-.2-.15-.15-.2-.2-.35-.15v.1h-.3l-.15.05-.1.1-.2.2-.2.2-.2.2-.15.15.05-.15.1-.2.1-.2.1-.2.05-.15.15-.2v-.2l-.05-.2-.15-.15m10.45-6.8Q42 22.55 42.35 62.5q-39.8-3.25-82.4-.35Q-39 32.35-69-11.8L-.35-62.5l69.4 49.6-.1.15M41.7 39.15v.05l-.45.1-.2.15-.1.2v.75l-.05.2-.15.2-.05.15v.6l-.15.15-.1.2v1.3l-.15.2-.05.2-.05.2v.55l-.05.2-.1.15-.05.2-.05.2-.05.2-.1.15-.05.2-.05.2v.75l-.05.2-.1.15-.05.2-.05.2v.2l-.05.15-.1.2-.05.2v.2l-.05.15v.75l-.05.2-.1.2-.05.2-.05.15v1.55l-.05.15v.2l-.1.2-.05.2-.05.15v.6l.1.15.1.1-.15.15-.05.2v.4h-.75v.05h-.3l-.2.1-.3.15-.2.1-.3.15-.15.05-.1.15-.2.15-.2.2-.2.2-.15.2-.2.15-.2.2-.2.2-.1.2-.05.15-.15.2-.05.2v.45h-4.25v.05h-.3l-.25.05-.25.05-.95.1-.3.05-.25.05-.25.05-.25.1-.25.05-.25.05-.25.05-.95.1-.3.05-.15.05-.1.15-.15.15-.05.2v.4l.1.15.2.2.45.15h.75l.3-.1.25-.05.25-.05.15-.05h.05l.2.15.55.2.5.15.55.1.45.15 4.25.1.5.15 1.8.1.45.15h1l.3-.1.15-.05.1-.1.05-.05.15.05h.25l.3-.1.15-.05.1-.1.05-.2.25-.2.2-.2.15-.15.05-.2V57.9l-.05-.15-.15-.2-.05-.2v-.95l.05-.15.05-.2.15-.2v-.2l-.05-.15-.15-.2v-.05l.05-.2.15-.2v-.75l.05-.2.15-.15.05-.2v-.95l.1-.2.1-.15.05-.2v-.95l.05-.2.15-.2.05-.15v-.2l-.05-.2-.15-.2-.1-.1v-.05l.05-.2v-.75l.05-.2v-.2l.05-.15.1-.2.05-.2v-.2l.05-.15.05-.2.1-.2.05-.2v-.75l.05-.15.05-.2.1-.2.05-.2.05-.15.05-.2.1-.2.05-.2v-.55l.05-.2.05-.15.15-.2v-1.15l.1-.15.1-.2.05-.2v-.35l.05-.2.15-.2.05-.2v-1.1l-.05-.2-.15-.2-.2-.15-.35-.15" fill="#8282fe" fill-rule="evenodd" transform="translate(71.5 65)"/><path d="m18.05-28.4-.1-.2-.3-.2-.4-.2-.35-.15-.4-.2-.25-.2-.2-.2q-.1-.1-.25-.15l-.3-.2-.45-.2-.1-.05-.05-.15-.1-.15-.1-.2-.3-.2-.35-.2-.25-.15-.3-.2-.4-.2-.3-.2-.2-.15-.15-.2-.35-.2-.35-.2-.4-.15-.3-.2-.25-.2-.25-.2-.2-.15-.15-.2-.35-.2-.3-.2-.2-.15-.15-.2-.2-.2-.2-.2-.25-.15-.35-.2-.2-.2-.2-.2q-.1-.1-.25-.15l-.35-.15v.05h-.35l-.1.1-.15.1-.1.2v.05h-.05v.05l-.45.1-.2.15-.1.2-.1.2-.1.2-.05.15v.4l-.1.2-.05.15-.1.2v.6l-.05.05v.4l-.05.1-.05.15-.05.2-.05.2-.1.2-.05.15-.05.2-.05.2v1l-.05.2-.15.2-.05.15-.05.15-.15.2-.2.15-.05.2-.1.15-.15.2-.15.15-.15.2-.15.15-.05.2-.15.15-.1.2-.2.15-.2.2-.25.1-.2.1-.2.2-.15.2-.1.1v.7l.1.15-.05.05-.05.2v.3l.1.2.15.2.45.1h.45l.25-.05.25-.05.4.1.3.1.25.05.2.2.35.1.15.15.35.1.15.15.35.1.15.15.35.1.15.15.35.1.15.15.45.1.35-.1.1-.05.25.05.05.1.15.1.1.2.4.05.05.1.1.1.15.2.4.1.05.1.1.05.15.2.2.2.2.15.15.15.15.2.2.2.2.15.15.15.15.2.2.2.2.15.15.15.15.2.2.2.15.1.2.2.15.2.4.2.25.1.15.2.15.2.1.2.05.1.15.2.15.2.15.2.05.1.1.2.15.2.15.15.05.15.15.2.1.2.15.15.05.15.15.2.05.2.1.15.15.15.15.2.05.2.05.15v.15l.15.2.05.2.1.15.1.15.05.2.05.15.15.2.05.15v.2l.05.15.15.2.05.15v1.05l.05.2.1.15.05.2v.65l.05.2.15.2.05.15v.7l.15.15.05.2.05.2v1.5l.1.2.1.2v.7l.05.2.15.1.05.15v.35l-.05.15-.15.2v.05l-.1.05-.1.2-.05.15V-2l.1.2.15.2.4.1.1.1.4.1.25.1.1.1.15.2.4.15.2.15.2.2.15.2.15.15.2.15.2.2.15.2.15.15.3.15.3.2.15.2.2.15.2.15.15.2.15.2.2.15.2.15.15.2.15.15.35.2.05.15.15.2.15.15.2.2.15.15.05.2.05.15.2.2.15.15.1.2.1.15.2.2.15.15.2.15.15.2v.2l.1.15.2.15.15.2.05.2.1.15.15.15.2.2.35.2.05.15.1.15.05.2.15.2.05.15.15.15.05.2.05.2.1.1.1.2.05.2.15.2.05.1.15.2.05.2.05.2.1.1v.2l.05.2.1.2.1.1.1.2.05.2.1.15v.55l.1.15.1.15.1.2.05.2.1.15v.15l.1.2.15.2v.15l.05.15.15.2.05.2.1.15.15.15.1.2.05.15.05.2-.05.15v.9l.1.15.2.2v.1l-.15.2-.05.15v.6l.05.15.15.2.15.2.2.2.45.1.35-.1.2-.2.15-.2.05-.2v-.6H32l.15-.05.1-.15.2-.2.1-.15.1-.2.05-.2v-.2l.1-.15.1-.2.1-.2.05-.2.15-.15v-.2l.05-.2.05-.2.15-.15.05-.2.15-.2.05-.2v-.35l-.05-.2v-.05l.05-.1v-.05l.05-.1.2.05.3-.05.2-.15.2-.15.1-.2.15-.2.05-.2.1-.15.15-.2.05-.2.2-.2.1-.15.1-.2.05-.2.05-.2.15-.15.15-.2.2-.2.05-.2.15-.15.2-.2.1-.2.15-.2.1-.15.05-.2.15-.2.05-.2.15-.15.05-.2.1-.2.2-.2.05-.15.15-.2.1-.2.2-.2.05-.15.15-.2.1-.2.1-.2.05-.15.2-.2.1-.2.15-.2.05-.15.1-.2.15-.2.05-.15.05-.1.1-.1.1-.1.2-.15.2-.2.15-.2.2-.2.05-.15.15-.2v-.25l.1-.2.2-.2.2-.15.1-.2.15-.2.2-.2.3-.15.1-.2.15-.2.05-.15.15-.15.05-.05.2-.2.35-.2.25-.2.2-.2.2-.15.15-.2.2-.2.05-.2.15-.15v-.2l-.05-.1.05-.05.2-.15.15-.2.35-.2.3-.2.2-.15.15-.2.2-.2.05-.2.15-.15v-.2l-.05-.2-.15-.2-.2-.15-.35-.15v.05h-.3l-.2.15-.2.2-.2.15-.3.2-.3.2-.2.2-.2.15-.15.2-.2.2-.3.1-.15.1-.1.1-.15.2-.05.2v.15l-.2.2-.3.2-.2.2-.2.15-.15.2-.2.2-.2.2-.3.15-.25.2-.25.2-.2.2-.1.2-.15.15-.1.2-.25.2-.35.2-.25.15-.3.2-.25.2-.2.2-.15.15-.2.2-.2.2-.2.2-.15.15-.25.2-.25.2-.35.2-.15.15-.2.2-.2.2-.2.2-.15.15-.2.2-.2.2-.2.2-.15.15-.2.2-.2.2-.2.2-.15.15-.2.2-.2.2-.05.2-.15.15-.1.2-.2.2-.2.2-.1.15-.05.2-.15.2-.05.2v.05l-.15.1-.1.2-.05.2-.15.2-.2.15-.05.15-.1-.15-.05-.15-.15-.2-.1-.15-.15-.2-.05-.15-.1-.2-.1-.15-.05-.2-.15-.15-.05-.2-.1-.15-.1-.2-.1-.15-.1-.2-.1-.15-.15-.2-.05-.15-.1-.15-.1-.2-.1-.2V5.3l-.15-.15-.05-.2-.15-.2-.05-.15-.1-.15-.1-.2-.1-.2-.1-.15-.1-.15-.15-.2-.1-.2-.05-.15-.15-.15-.05-.2-.15-.2-.1-.1-.15-.2-.1-.2-.1-.2-.1-.1-.15-.2-.1-.2-.15-.2-.1-.1-.1-.2-.1-.2-.2-.2-.2-.1-.1-.2-.15-.2-.15-.15-.1-.15-.2-.2-.15-.2-.15-.15-.2-.15-.2-.2-.15-.2-.2-.15-.1-.15-.15-.2-.1-.2-.1-.15-.25-.15-.3-.2-.2-.2-.2-.15-.15-.15-.2-.2-.35-.15-.2-.2-.15-.15-.25-.2-.3-.1.05-.1.05-.2.05-.2V-8l-.05-.15-.05-.2-.05-.2-.05-.15v-.55l-.05-.15-.05-.15-.15-.2v-.85l-.05-.1-.05-.2-.1-.2-.05-.2v-1l-.1-.2-.05-.15-.05-.15v-.2l-.1-.2-.1-.15-.05-.05v-.2l-.05-.15-.05-.15-.15-.2v-.45l-.05-.2-.1-.15-.1-.15-.05-.1-.15-.15-.05-.2-.15-.2-.05-.2v-.5l-.15-.15-.05-.15-.1-.2-.1-.2-.05-.15v-.15l-.1-.2-.1-.2-.1-.15-.15-.15-.05-.2-.15-.2v-.1l-.05-.2-.15-.2-.05-.15v-.2l-.05-.2-.15-.2-.05-.15-.15-.2-.05-.2-.2-.2-.1-.15-.15-.2-.05-.2-.2-.2-.1-.15-.15-.2-.05-.2-.2-.2-.15-.15-.2-.2-.2-.2-.2-.2-.15-.15-.2-.2-.2-.2-.2-.2-.15-.15-.2-.2-.2-.2-.2-.2-.25-.15-.3-.15-.05-.05-.15-.15-.25-.15-.3-.15-.2-.1-.35-.2-.2-.2-.2-.2-.25-.15-.3-.15-.2-.1-.3-.15-.2-.1-.3-.15-.2-.1-.35-.15-.4-.1-.35-.15-.4-.1-.35-.15-.4-.1-.3-.15-.05-.05v-.3l.1-.2.05-.2.1-.2v-.55l.05-.2.05-.15.15-.2v-.55l.05-.2.1-.2.1-.2.1-.1.35.05.25.15.4.2.3.1.4.2.3.2.45.1.3.1.3.15.5.2.35.15.15.2.25.2.6.2.55.15.4.2.15.2.2.2.5.15.25.1.25.1.3.2.2.2.05.05.2.2.4.15.15.15.2.2.45.1h.15l.15.15.2.15.3.2.3.2.2.2.4.15.35.2.4.2.35.2.45.1.3-.05.2-.15.1-.15.1-.2.05-.2-.05-.2-.1-.15-.1-.2-.25-.15v-.15l-.15-.2-.05-.2-.2-.2-.25-.15-.3-.15-.2-.1-.35-.15-.2-.05-.2-.15-.25-.15-.3-.2-.35-.2-.2-.2-.15-.15M1.25-40.95l49.4 34q-30.85 30.2-17.9 60.4l-1.8.05-37.95 1 .3-.15.2-.2.1-.15.1-.2v-.2l-.15-.2-.05-.15-.25-.2-.3-.15v-.25l-.1-.15-.1-.2-.2-.2-.35-.1-2.05-.15V50.6l-.2-.7-.5-.7-.7-.7-1.4-.5-2.3-.45-1.15-.45-.7-.45-1.4-.5-1.4-.45-1.4-.7-.7-.7-.2-.7v-.7l-.5-.7-.2-.7-.7-.7-.95-.7-.85-.25-.05-.05-.05-.2-.1-.15-.15-.15-.15-.2-.1-.2-.1-.15-.1-.15-.05-.2-.1-.2-.1-.05v-.2l-.05-.2-.05-.15-.15-.2-.05-.15-.05-.2-.2-.15-.4-.15v.05h-.2v-.15l-.1-.2-.05-.15-.05-.2-.05-.2v-2.05l-.1-.2-.1-.2-.2-.15-.35-.15v.05h-.35l-.15.15-.2.2-.05.15v2.65l.05.2.1.15.1.2v.95l.05.2.1.15.1.2v1.45l.05.2.1.15.05.1-.55.5-.4.65q-.5-27.65-21.95-45.8l48.45-37.1.65.65 1.6.5 1.15-.25.5-.25.15-.15m-8.4 95.45-23.1.55q.95-6.2.95-11.95l.15.5.5.7.35.4v3.95l-.1.2-.05.1-.05.1-.05.1v1.5l-.1.2-.1.2-.05.2v.55l-.1.2-.1.15-.05.2v.4l.1.1H-29l-.2.2-.1.2V54l.1.15.2.2.45.15h.25l.35-.15.65-.1.3-.1 1.35.4h1.85l1.05-.35.2.05 1.3.1.45.15h2.35l.25.05h5.55l1.4-.5h.05l1.2.05.45.15 2.05.1.35.15m19.8-77.15-.1-.1-.2-.2.2.05.05.15.05.1m-31.2-5.7-.2.2-.3.15-.25.2-.35.2-.35.2-.2.15-.05.1-.15.1-.15.2-.2.2-.4.15-.25.2-.15.2-.1.1-.05.05-.05.05-.1.1-.4.15-.2.15-.2.2-.05.1-.1.1-.2.2-.2.15-.2.2-.05.1-.05.05-.4.15-.35.2-.4.2-.25.2-.3.15-.3.2-.4.2-.35.2-.4.15-.35.2-.3.2-.2.2-.2.15-.2.2-.15.2-.35.1-.1.1-.15.1-.15.2-.2.2-.2.15-.1.2-.1.2-.25.1-.15.15-.45.2-.2.15-.2.2-.1.2-.05.2v.05l-.15.1-.2.2-.1.2-.05.2v.35l.1.2.2.2.45.1.3-.05.1-.05.15-.15.2-.2.15-.15.2-.2.3-.2.15-.05.1-.05.1-.1.05-.05.25-.05.1-.05.25-.15.4-.2.35-.15.4-.2.25-.2.2-.2.15-.15.4-.2.35-.2.35-.2.3-.15.25-.2.35-.2.35-.2.3-.15.25-.2.25-.15.05-.05.2-.1.25-.15.2-.1.5-.2q.1-.05.25-.15l.3-.15h.05l.05-.05.15-.1.1-.1.1-.05.25-.2.1-.05.1-.05.3-.15.5-.2.3-.2.2-.2.1-.05.4-.2.15-.05.1-.05.35-.2.2-.05.35-.15.45-.15.4-.15.35-.1.25-.2.25-.2.25-.2.3-.15.4-.2.25-.2.1-.1.25-.1.6-.15.5-.2.3-.2.2-.2.25-.15.5-.2.4-.2.4-.2.35-.15.6-.15.35-.1.15-.05v1.35l-.1.2-.05.15-.1.2v.55l-.15.2-.05.2-.1.2h-.1l-.2.15-.25.1-.15.1-.1.1-.2.15-.25.1-.2.15-.25.1-.2.15-.2.15-.15.15-.15.2-.2.2-.3.05-.1.1-.1.1-.2.2-.2.2-.15.1-.15.2-.2.2-.2.2-.1.1-.2.2-.2.2-.3.1-.1.1-.1.05-.15.2-.05.2-.1.15-.15.15-.15.2-.05.2-.1.15-.2.15-.15.2v.2l-.1.1v.05l-.2.15-.15.2-.05.2-.1.1-.15.2-.2.2-.2.2-.05.1-.05.2-.15.2-.2.2-.05.1v.2l-.05.2-.15.15-.1.15-.15.2v.35l-.1.15-.15.2v.35l-.1.2-.15.15v.35l-.05.2-.15.15v.35l-.1.2-.15.15v.35l-.1.2-.15.15v.35l-.05.2-.15.15v1.95l-.05.1-.15.2-.05.2v1l-.05.2-.15.2v5.2l.1.2.1.15v2.5h-.05l-.15.1-.2.2-.15.2-.2.15-.15.15-.2.2-.1.2-.25.1-.1.2-.15.2-.2.2-.2.1-.15.2-.4.2-.2.2-.15.1-.2.2-.15.2-.15.2-.2.1-.1.2-.1.2-.1.15-.15.15v.2l-.1.2-.2.15-.2.15-.1.2-.05.2-.1.15-.15.15-.05.2-.1.2-.2.15-.1.15-.05.2-.1.2-.1.15-.05.15-.1.2-.1.15-.1.2-.15.15-.1.2-.1.15-.1.2-.15.15-.05.2-.05.15-.2.2-.15.15-.05.2-.1.15-.1.2-.05.15-.05.15-.1.2v.2l-.05.15-.1.15-.1.2v.2l-.05.15-.1.15-.1.2-.05.2-.15.15-.05.15-.1.2-.1.2-.05.15-.1.15-.05.2-.1.2-.15.1v.4l-.1.2-.15.1v.2l-.05.2-.05.1-.15-.2-.05-.2-.2-.15-.1-.2-.15-.2-.05-.2-.1-.15-.1-.2-.1-.2-.2-.2-.2-.15-.15-.2-.2-.2-.2-.2-.2-.15-.15-.2-.2-.2-.05-.2-.15-.15-.1-.2-.35-.2-.3-.2-.2-.15-.15-.2-.2-.2-.2-.2-.2-.15-.15-.2-.35-.2-.3-.2-.2-.15-.1-.05-.05-.15-.1-.2-.1-.2-.25-.15-.3-.15-.1-.05-.15-.2-.2-.2-.2-.1-.1-.2-.2-.2-.2-.15-.25-.2-.3-.2-.15-.2-.05-.15-.2-.2-.2-.2-.15-.2-.2-.15-.2-.2-.2-.2-.15-.2-.2-.15-.25-.2-.4-.2-.15-.2-.2-.15-.25-.2-.2-.05-.1-.1-.2-.15-.25-.2-.4-.15v.1l-.4.05-.2.2-.15.15v.4l.1.2.1.15.2.2.2.2.15.2.15.15.1.2.1.2.15.2.15.15.1.2.1.2.15.2.2.15.2.2.2.2.15.2.15.15.1.2.1.2.15.2.2.15.2.2.2.2.1.2.05.15.15.2.2.2.15.05.1.2.15.2.2.15.2.2.15.2.05.2.2.15.15.2.2.2.05.2.15.15.05.2.15.2.05.2.2.15v.1l.05.1-.05.05v.4l.05.2.2.15.15.2.1.2.05.2.1.15.1.2v.2l.05.2.1.15.1.2.1.2.15.15v.05l.05.15.1.2.1.2v.2l.05.15.05.2.15.2.05.2.1.15.1.2v.2l.05.2.1.15.1.2.1.2.05.2.15.15.1.2.1.2v.2l.05.15.1.2.1.2.05.2.1.15.1.2v.2l.05.2.1.15.1.2.1.2.05.2.1.15v.6l.05.15.05.2.15.2v.75l.05.2.1.15.1.2v.4l.05.15.1.2.2.2.2.2.45.1v1.4l.05.15.1.2.1.2v1.3l.1.2.2.2.45.1.3-.05.1-.05.15-.15.05-.2.15-.15v-1.7l-.1-.2-.1-.2-.05-.15v-1.5l-.15-.2-.05-.2-.05-.2v-.8l.05-.2.1-.1v-1.95l.1-.2v-.15l.1-.2.05-.15V17.9l.1-.2.05-.15.1-.15v-.25l.15-.05.2-.15.1-.15.05-.2.1-.2v-.55l-.1-.2-.05-.1v-.1l.15-.15.05-.2v-.7l.1-.15.05-.2.1-.15v-.15l.1-.2.1-.2.05-.15v-.15l.15-.2.15-.2.05-.15.1-.15v-.2l.1-.2.15-.15.1-.15.05-.2.05-.2v-.15l.15-.15.05-.2.05-.2v-.1l.15-.2.05-.2.05-.2v-.1l.1-.2.05-.2.15-.2.15-.1.15-.2.05-.2.1-.2.05-.1.1-.2.1-.2.1-.15.05-.15.2-.2.1-.2.1-.15.05-.15.15-.2.05-.2.15-.15.1-.15.15-.2.05-.2.15-.15.05-.15.1-.2.1-.2.05-.15.05-.15.2-.2.2-.15.2-.2v-.15l.1-.2.1-.15.1-.2.3-.15.15-.2.2-.15.2-.2.15-.15.3-.15.15-.05.15-.2.15-.2.25-.2.1-.1.2-.2.15-.2.15-.2.2-.1.2-.2V.9l.05.05.45.1.25-.05.2-.1.15-.2.05-.15.05-.2v-.6l.25-.15.2-.1.35-.2.15-.15.15-.2.05-.15v-.35l-.05-.2-.15-.15-.15-.15-.1-.05v-.85l-.05-.2-.15-.15-.05-.15v-1.4l.05-.2.15-.2.05-.1v-3l.05-.2.1-.15.05-.15v-.2l.05-.2.15-.15.05-.15v-.2l.05-.2.15-.15.05-.15v-1.4l.1-.2.05-.15.05-.2v-.15l.15-.2.05-.15.05-.2v-.15l.15-.2.05-.15.05-.2.1-.15.1-.15.05-.2.15-.2.05-.15v-.15l.05-.2.15-.2v-.3l.05-.2.15-.2.05-.15V-16l.05-.2.15-.2.05-.15.15-.15.1-.2.15-.2.05-.15.2-.15.2-.2.1-.2.2-.15.15-.15.05-.2.1-.2.05-.15.1-.15.15-.15h.1l.3-.05.15-.15.3-.05.2-.15.15-.15.2-.2.15-.15.15-.2.3-.1.15-.05.1-.15.15-.15.2-.15.2-.2.15-.2.15-.15.2-.15.2-.2.15-.2.15-.15.3-.1.2-.15.25-.1.2-.15.35-.1.35-.15.25-.05.15-.05.1-.15.1-.2.1-.1v-.15l.25-.05.15-.05.1-.15.1-.2.1-.1v-.2l-.05-.2-.15-.15v-.05l.1-.2.1-.15v-.05l.05-.1.1-.15.05-.15v-.2l-.05-.2-.1-.15-.05-.05.05-.2.1-.15.05-.15v-.55l.15-.15.05-.2.05-.2v-.85l.05-.15.1-.2.05-.2.05-.15v-2.05l-.1-.2-.1-.2-.05-.2v-3.1l-.05-.2-.15-.15-.1-.15-.4-.15h-.25v.05h-.25l.2-.2.2-.2.05-.2.15-.15v-.2l-.1-.2-.1-.2-.2-.15-.35-.15h-.25v.05l-.45.1-.2.15-.1.2-.25.2-.2.2-.2.15-.1.2-.1.2-.25.1-.15.15-.2.2-.2.15-.2.2-.15.2-.2.2-.2.15-.2.2-.15.2-.2.2-.2.15-.2.2-.15.2-.2.2-.2.15-.2.2-.15.2-.2.2-.2.15-.1.2-.1.2-.25.1-.15.15-.1.1h-.25l-.1.1-.15.1-.15.2-.35.1-.25.15-.35.2-.2.15-.2.2-.15.2-.25.2-.35.15-.3.2-.3.2-.25.2-.4.15-.25.2-.15.2m32.05 80.2h-.6l.2-.05h.35l.05.05m17.45 1.65.35-.15.2-.2.15-.15.05-.2v-.95l-.15-.2-.05-.15-.2-.2-.1-.2-.05-.2-.15-.2-.2-.15-.35-.2-.05-.2-.15-.2-.15-.1V48l-.2-.7-.25-.65-.45-.7-.5-.5v-.6l-.05-.2-.1-.2-.1-.15v-5.45l-.05-.2-.15-.2-.2-.15-.35-.15h-.25v.05h-.3l-.15.1-.1.1-.15.2-.05.2v.55h-.05v.05h-.35l-.1.05-.1.1-.1.2-.05.2v.3l-.1.2-.1.2-.05.1V41l-1.15-.4v.2l-1.65.25-.7.7-.45.7v1.4l-.9.45-1.2.25-.7.45-1.15.45-.7.5-1.15.45-.7.45-.7.7-.7.7-.45.7v1.2h-.2l-.45.15-1.05.1-.45.15-1.3.1-.35.05-.15.15-.2.2-.15.2-.1.15-.05.2v.4l.1.1-.1.15v.35l.05.2.1.2.2.15.2.2.45.15h5.8l.45.1h2.75l1.4-.45 1.4-.5.8-.1 3.2.05.45.15 1.8.1.45.15.35-.15.2-.2.15-.15.05.05.2.2.15.15.2.2.45.15.15-.05.15.15.45.15" fill="#8282ab" fill-rule="evenodd" transform="translate(71.5 65)"/><path d="m18.05-28.4.15.15.2.2.35.2.3.2.25.15.2.15.2.05.35.15.2.1.3.15.25.15.2.2.05.2.15.2v.15l.25.15.1.2.1.15.05.2-.05.2-.1.2-.1.15-.2.15-.3.05-.45-.1-.35-.2-.4-.2-.35-.2-.4-.15-.2-.2-.3-.2-.3-.2-.2-.15-.15-.15h-.15l-.45-.1-.2-.2-.15-.15-.4-.15-.2-.2-.05-.05-.2-.2-.3-.2-.25-.1-.25-.1-.5-.15-.2-.2-.15-.2-.4-.2-.55-.15-.6-.2-.25-.2-.15-.2-.35-.15-.5-.2-.3-.15-.3-.1-.45-.1-.3-.2-.4-.2-.3-.1-.4-.2-.25-.15-.35-.05-.1.1-.1.2-.1.2-.05.2v.55l-.15.2-.05.15-.05.2v.55l-.1.2-.05.2-.1.2v.3l.05.05.3.15.4.1.35.15.4.1.35.15.4.1.35.15.2.1.3.15.2.1.3.15.2.1.3.15.25.15.2.2.2.2.35.2.2.1.3.15.25.15.15.15.05.05.3.15.25.15.2.2.2.2.2.2.15.15.2.2.2.2.2.2.15.15.2.2.2.2.2.2.15.15.2.2.05.2.15.2.1.15.2.2.05.2.15.2.1.15.2.2.05.2.15.2.05.15.15.2.05.2v.2l.05.15.15.2.05.2v.1l.15.2.05.2.15.15.1.15.1.2.1.2v.15l.05.15.1.2.1.2.05.15.15.15v.5l.05.2.15.2.05.2.15.15.05.1.1.15.1.15.05.2v.45l.15.2.05.15.05.15v.2l.05.05.1.15.1.2v.2l.05.15.05.15.1.2v1l.05.2.1.2.05.2.05.1v.85l.15.2.05.15.05.15v.55l.05.15.05.2.05.2.05.15v3.45l-.05.2-.05.2-.05.1.3.1.25.2.15.15.2.2.35.15.2.2.15.15.2.15.2.2.3.2.25.15.1.15.1.2.15.2.1.15.2.15.15.2.2.2.2.15.15.15.15.2.2.2.1.15.15.15.15.2.1.2.2.1.2.2.1.2.1.2.1.1.15.2.1.2.15.2.1.1.1.2.1.2.15.2.1.1.15.2.05.2.15.15.05.15.1.2.15.2.1.15.1.15.1.2.1.2.1.15.05.15.15.2.05.2.15.15v.15l.1.2.1.2.1.15.05.15.15.2.1.15.1.2.1.15.1.2.1.15.05.2.15.15.05.2.1.15.1.2.05.15.15.2.1.15.15.2.05.15.1.15.05-.15.2-.15.15-.2.05-.2.1-.2.15-.1v-.05l.05-.2.15-.2.05-.2.1-.15.2-.2.2-.2.1-.2.15-.15.05-.2.2-.2.2-.2.15-.15.2-.2.2-.2.2-.2.15-.15.2-.2.2-.2.2-.2.15-.15.2-.2.2-.2.2-.2.15-.15.35-.2.25-.2.25-.2.15-.15.2-.2.2-.2.2-.2.15-.15.2-.2.25-.2.3-.2.25-.15.35-.2.25-.2.1-.2.15-.15.1-.2.2-.2.25-.2.25-.2.3-.15.2-.2.2-.2.15-.2.2-.15.2-.2.3-.2.2-.2v-.15l.05-.2.15-.2.1-.1.15-.1.3-.1.2-.2.15-.2.2-.15.2-.2.3-.2.3-.2.2-.15.2-.2.2-.15h.3v-.05l.35.15.2.15.15.2.05.2v.2l-.15.15-.05.2-.2.2-.15.2-.2.15-.3.2-.35.2-.15.2-.2.15-.05.05.05.1v.2l-.15.15-.05.2-.2.2-.15.2-.2.15-.2.2-.25.2-.35.2-.2.2-.05.05-.15.15-.05.15-.15.2-.1.2-.3.15-.2.2-.15.2-.1.2-.2.15-.2.2-.1.2v.25l-.15.2-.05.15-.2.2-.15.2-.2.2-.2.15-.1.1-.1.1-.05.1-.05.15-.15.2-.1.2-.05.15-.15.2-.1.2-.2.2-.05.15-.1.2-.1.2-.15.2-.05.15-.2.2-.1.2-.15.2-.05.15-.2.2-.1.2-.05.2-.15.15-.05.2-.15.2-.05.2-.1.15-.15.2-.1.2-.2.2-.15.15-.05.2-.2.2-.15.2-.15.15-.05.2-.05.2-.1.2-.1.15-.2.2-.05.2-.15.2-.1.15-.05.2-.15.2-.1.2-.2.15-.2.15-.3.05-.2-.05-.05.1v.05l-.05.1v.05l.05.2v.35l-.05.2-.15.2-.05.2-.15.15-.05.2-.05.2v.2l-.15.15-.05.2-.1.2-.1.2-.1.15v.2l-.05.2-.1.2-.1.15-.2.2-.1.15-.15.05h-.05v.6l-.05.2-.15.2-.2.2-.35.1-.45-.1-.2-.2-.15-.2-.15-.2-.05-.15v-.6l.05-.15.15-.2V16l-.2-.2-.1-.15v-.9l.05-.15-.05-.2-.05-.15-.1-.2-.15-.15-.1-.15-.05-.2-.15-.2-.05-.15v-.15l-.15-.2-.1-.2v-.15l-.1-.15-.05-.2-.1-.2-.1-.15-.1-.15v-.55l-.1-.15-.05-.2-.1-.2-.1-.1-.1-.2-.05-.2v-.2l-.1-.1-.05-.2-.05-.2-.15-.2-.05-.1-.15-.2-.05-.2-.1-.2-.1-.1-.05-.2-.05-.2-.15-.15-.05-.15-.15-.2-.05-.2-.1-.15-.05-.15-.35-.2-.2-.2-.15-.15-.1-.15-.05-.2-.15-.2-.2-.15-.1-.15v-.2l-.15-.2-.2-.15-.15-.15-.2-.2-.1-.15-.1-.2-.15-.15-.2-.2-.05-.15-.05-.2-.15-.15-.2-.2-.15-.15-.15-.2-.05-.15-.35-.2-.15-.15-.15-.2-.2-.15-.2-.15-.15-.2-.15-.2-.2-.15-.2-.15-.15-.2-.3-.2-.3-.15L20.8.5l-.15-.2-.2-.2-.2-.15-.15-.15-.15-.2-.2-.2-.2-.15-.4-.15-.15-.2-.1-.1-.25-.1-.4-.1-.1-.1-.4-.1-.15-.2-.1-.2v-1.95l.05-.15.1-.2.1-.05v-.05l.15-.2.05-.15v-.35l-.05-.15-.15-.1-.05-.2v-.7l-.1-.2-.1-.2v-1.5l-.05-.2-.05-.2-.15-.15v-.7l-.05-.15-.15-.2-.05-.2v-.65l-.05-.2-.1-.15-.05-.2v-1.05l-.05-.15-.15-.2-.05-.15v-.2l-.05-.15-.15-.2-.05-.15-.05-.2-.1-.15-.1-.15-.05-.2-.15-.2v-.15l-.05-.15-.05-.2-.15-.2-.15-.15-.1-.15-.05-.2-.15-.2-.05-.15-.15-.15-.1-.2-.15-.2-.05-.15-.15-.15-.15-.2-.1-.2-.05-.1-.15-.2-.15-.2-.15-.2-.05-.1-.1-.2-.15-.2-.15-.2-.25-.1-.4-.2-.15-.2-.2-.2-.15-.1-.2-.2-.15-.2-.15-.15-.2-.15-.2-.2-.15-.2-.15-.15-.2-.15-.2-.2-.15-.2-.15-.15-.2-.15-.2-.2-.15-.2-.1-.05-.05-.1-.4-.1-.15-.2-.1-.1-.05-.1-.4-.05-.1-.2-.15-.1-.05-.1-.25-.05-.1.05-.35.1-.45-.1-.15-.15-.35-.1-.15-.15-.35-.1-.15-.15-.35-.1-.15-.15-.35-.1-.15-.15-.35-.1-.2-.2-.25-.05-.3-.1-.4-.1-.25.05-.25.05H2.4l-.45-.1-.15-.2-.1-.2v-.3l.05-.2.05-.05-.1-.15v-.7l.1-.1.15-.2.2-.2.2-.1.25-.1.2-.2.2-.15.1-.2.15-.15.05-.2.15-.15.15-.2.15-.15.15-.2.1-.15.05-.2.2-.15.15-.2.05-.15.05-.15.15-.2.05-.2v-1l.05-.2.05-.2.05-.15.1-.2.05-.2.05-.2.05-.15.05-.1v-.4l.05-.05v-.6l.1-.2.05-.15.1-.2v-.4l.05-.15.1-.2.1-.2.1-.2.2-.15.45-.1v-.05h.05v-.05l.1-.2.15-.1.1-.1h.35v-.05l.35.15q.15.05.25.15l.2.2.2.2.35.2.25.15.2.2.2.2.15.2.2.15.3.2.35.2.15.2.2.15.25.2.25.2.3.2.4.15.35.2.35.2.15.2.2.15.3.2.4.2.3.2.25.15.35.2.3.2.1.2.1.15.05.15.1.05.45.2.3.2q.15.05.25.15l.2.2.25.2.4.2.35.15.4.2.3.2.1.2M-7 54.5h-.15l-.35-.15-2.05-.1-.45-.15-1.2-.05h-.05l-1.4.5h-5.55l-.25-.05h-2.35l-.45-.15-1.3-.1-.2-.05-1.05.35h-1.85l-1.35-.4-.3.1-.65.1-.35.15h-.25l-.45-.15-.2-.2-.1-.15v-.75l.1-.2.2-.2h.05l-.1-.1v-.4l.05-.2.1-.15.1-.2v-.55l.05-.2.1-.2.1-.2v-1.5l.05-.1.05-.1.05-.1.1-.2V44.7l-.35-.4-.5-.7-.15-.5-.05-.2v-1.4l.05-.05.4-.65.55-.5-.05-.1-.1-.15-.05-.2V38.4l-.1-.2-.1-.15-.05-.2v-.95l-.1-.2-.1-.15-.05-.2V33.7l.05-.15.2-.2.15-.15h.35v-.05l.35.15.2.15.1.2.1.2v2.05l.05.2.05.2.05.15.1.2v.15h.2v-.05l.4.15.2.15.05.2.05.15.15.2.05.15.05.2v.2l.1.05.1.2.05.2.1.15.1.15.1.2.15.2.15.15.1.15.05.2.05.05.85.25.95.7.7.7.2.7.5.7v.7l.2.7.7.7 1.4.7 1.4.45 1.4.5.7.45 1.15.45 2.3.45 1.4.5.7.7.5.7.2.7v1.25l2.05.15.35.1.2.2.1.2.1.15v.25l.3.15.25.2.05.15.15.2v.2l-.1.2-.1.15-.2.2-.3.15m-11.55-82.85.15-.2.25-.2.4-.15.25-.2.3-.2.3-.2.35-.15.25-.2.15-.2.2-.2.2-.15.35-.2.25-.15.35-.1.15-.2.15-.1.1-.1h.25l.1-.1.15-.15.25-.1.1-.2.1-.2.2-.15.2-.2.15-.2.2-.2.2-.15.2-.2.15-.2.2-.2.2-.15.2-.2.15-.2.2-.2.2-.15.2-.2.15-.2.2-.2.2-.15.2-.2.15-.15.25-.1.1-.2.1-.2.2-.15.2-.2.25-.2.1-.2.2-.15.45-.1v-.05h.25l.35.15.2.15.1.2.1.2v.2l-.15.15-.05.2-.2.2-.2.2h.25v-.05h.25l.4.15.1.15.15.15.05.2v3.1l.05.2.1.2.1.2v2.05l-.05.15-.05.2-.1.2-.05.15v.85l-.05.2-.05.2-.15.15v.55l-.05.15-.1.15-.05.2.05.05.1.15.05.2v.2l-.05.15-.1.15-.05.1v.05l-.1.15-.1.2v.05l.15.15.05.2v.2l-.1.1-.1.2-.1.15-.15.05-.25.05v.15l-.1.1-.1.2-.1.15-.15.05-.25.05-.35.15-.35.1-.2.15-.25.1-.2.15-.3.1-.15.15-.15.2-.2.2-.2.15-.15.15-.15.2-.2.2-.2.15-.15.15-.1.15-.15.05-.3.1-.15.2-.15.15-.2.2-.15.15-.2.15-.3.05-.15.15-.3.05h-.1l-.15.15-.1.15-.05.15-.1.2-.05.2-.15.15-.2.15-.1.2-.2.2-.2.15-.05.15-.15.2-.1.2-.15.15-.05.15-.15.2-.05.2v.15l-.05.15-.15.2-.05.2v.3l-.15.2-.05.2v.15l-.05.15-.15.2-.05.2-.1.15-.1.15-.05.2-.05.15-.15.2v.15l-.05.2-.05.15-.15.2v.15l-.05.2-.05.15-.1.2v1.4l-.05.15-.15.15-.05.2v.2l-.05.15-.15.15-.05.2v.2l-.05.15-.1.15-.05.2v3l-.05.1-.15.2-.05.2v1.4l.05.15.15.15.05.2v.85l.1.05.15.15.15.15.05.2v.35l-.05.15-.15.2-.15.15-.35.2-.2.1-.25.15v.6l-.05.2-.05.15-.15.2-.2.1-.25.05-.45-.1-.05-.05v.05l-.2.2-.2.1-.15.2-.15.2-.2.2-.1.1-.25.2-.15.2-.15.2-.15.05-.3.15-.15.15-.2.2-.2.15-.15.2-.3.15-.1.2-.1.15-.1.2v.15l-.2.2-.2.15-.2.2-.05.15-.05.15-.1.2-.1.2-.05.15-.15.15-.05.2-.15.2-.1.15-.15.15-.05.2-.15.2-.05.15-.1.15-.1.2-.2.2-.05.15-.1.15-.1.2-.1.2-.05.1-.1.2-.05.2-.15.2-.15.1-.15.2-.05.2-.1.2v.1l-.05.2-.05.2-.15.2v.1l-.05.2-.05.2-.15.15v.15l-.05.2-.05.2-.1.15-.15.15-.1.2v.2l-.1.15-.05.15-.15.2-.15.2v.15l-.05.15-.1.2-.1.2v.15l-.1.15-.05.2-.1.15v.7l-.05.2-.15.15v.1l.05.1.1.2v.55l-.1.2-.05.2-.1.15-.2.15-.15.05v.25l-.1.15-.05.15-.1.2v1.05l-.05.15-.1.2v.15l-.1.2v1.95l-.1.1-.05.2v.8l.05.2.05.2.15.2v1.5l.05.15.1.2.1.2v1.7l-.15.15-.05.2-.15.15-.1.05-.3.05-.45-.1-.2-.2-.1-.2v-1.3l-.1-.2-.1-.2-.05-.15v-1.4l-.45-.1-.2-.2-.2-.2-.1-.2-.05-.15v-.4l-.1-.2-.1-.15-.05-.2v-.75l-.15-.2-.05-.2-.05-.15v-.6l-.1-.15-.05-.2-.1-.2-.1-.2-.1-.15-.05-.2v-.2l-.1-.2-.1-.15-.05-.2-.1-.2-.1-.2-.05-.15v-.2l-.1-.2-.1-.2-.15-.15-.05-.2-.1-.2-.1-.2-.1-.15-.05-.2v-.2l-.1-.2-.1-.15-.05-.2-.15-.2-.05-.2-.05-.15v-.2l-.1-.2-.1-.2-.05-.15V14l-.15-.15-.1-.2-.1-.2-.1-.15-.05-.2v-.2l-.1-.2-.1-.15-.05-.2-.1-.2-.15-.2-.2-.15-.05-.2v-.4l.05-.05-.05-.1v-.1l-.2-.15-.05-.2-.15-.2-.05-.2-.15-.15-.05-.2-.2-.2-.15-.2-.2-.15-.05-.2-.15-.2-.2-.2-.2-.15-.15-.2-.1-.2-.15-.05-.2-.2-.15-.2-.05-.15-.1-.2-.2-.2-.2-.2-.2-.15-.15-.2-.1-.2-.1-.2-.15-.15-.15-.2-.2-.2-.2-.2-.2-.15-.15-.2-.1-.2-.1-.2-.15-.15-.15-.2-.1-.2-.1-.2-.15-.15-.15-.2-.2-.2-.2-.2-.1-.15-.1-.2v-.4l.15-.15.2-.2.4-.05v-.1l.4.15.25.2.2.15.1.1.2.05.25.2.2.15.15.2.4.2.25.2.2.15.15.2.2.2.2.2.2.15.15.2.2.2.2.2.05.15.15.2.3.2.25.2.2.15.2.2.1.2.2.1.2.2.15.2.1.05.3.15.25.15.1.2.1.2.05.15.1.05.2.15.3.2.35.2.15.2.2.15.2.2.2.2.15.2.2.15.3.2.35.2.1.2.15.15.05.2.2.2.15.2.2.15.2.2.2.2.15.2.2.15.2.2.1.2.1.2.1.15.05.2.15.2.1.2.2.15.05.2.15.2.05-.1.05-.2v-.2l.15-.1.1-.2v-.4l.15-.1.1-.2.05-.2.1-.15.05-.15.1-.2.1-.2.05-.15.15-.15.05-.2.1-.2.1-.15.05-.15V10l.1-.2.1-.15.05-.15v-.2l.1-.2.05-.15.05-.15.1-.2.1-.15.05-.2.15-.15.2-.2.05-.15.05-.2.15-.15.1-.2.1-.15.1-.2.15-.15.1-.2.1-.15.1-.2.05-.15.1-.15.1-.2.05-.2.1-.15.2-.15.1-.2.05-.2.15-.15.1-.15.05-.2.1-.2.2-.15.2-.15.1-.2v-.2l.15-.15.1-.15.1-.2.1-.2.2-.1.15-.2.15-.2.2-.2.15-.1.2-.2.4-.2.15-.2.2-.1.2-.2.15-.2.1-.2.25-.1.1-.2.2-.2.15-.15.2-.15.15-.2.2-.2.15-.1h.05v-2.5l-.1-.15-.1-.2v-5.2l.15-.2.05-.2v-1l.05-.2.15-.2.05-.1v-1.95l.15-.15.05-.2v-.35l.15-.15.1-.2v-.35l.15-.15.1-.2v-.35l.15-.15.05-.2v-.35l.15-.15.1-.2v-.35l.15-.2.1-.15v-.35l.15-.2.1-.15.15-.15.05-.2v-.2l.05-.1.2-.2.15-.2.05-.2.05-.1.2-.2.2-.2.15-.2.1-.1.05-.2.15-.2.2-.15v-.05l.1-.1v-.2l.15-.2.2-.15.1-.15.05-.2.15-.2.15-.15.1-.15.05-.2.15-.2.1-.05.1-.1.3-.1.2-.2.2-.2.1-.1.2-.2.2-.2.15-.2.15-.1.2-.2.2-.2.1-.1.1-.1.3-.05.2-.2.15-.2.15-.15.2-.15.2-.15.25-.1.2-.15.25-.1.2-.15.1-.1.15-.1.25-.1.2-.15h.1l.1-.2.05-.2.15-.2v-.55l.1-.2.05-.15.1-.2v-1.35l-.15.05-.35.1-.6.15-.35.15-.4.2-.4.2-.5.2-.25.15-.2.2-.3.2-.5.2-.6.15-.25.1-.1.1-.25.2-.4.2-.3.15-.25.2-.25.2-.25.2-.35.1-.4.15-.45.15-.35.15-.2.05-.35.2-.1.05-.15.05-.4.2-.1.05-.2.2-.3.2-.5.2-.3.15-.1.05-.1.05-.25.2-.1.05-.1.1-.15.1-.05.05h-.05l-.3.15q-.15.1-.25.15l-.5.2-.2.1-.25.15-.2.1-.05.05-.25.15-.25.2-.3.15-.35.2-.35.2-.25.2-.3.15-.35.2-.35.2-.4.2-.15.15-.2.2-.25.2-.4.2-.35.15-.4.2-.25.15-.1.05-.25.05-.05.05-.1.1-.1.05-.15.05-.3.2-.2.2-.15.15-.2.2-.15.15-.1.05-.3.05-.45-.1-.2-.2-.1-.2v-.35l.05-.2.1-.2.2-.2.15-.1v-.05l.05-.2.1-.2.2-.2.2-.15.45-.2.15-.15.25-.1.1-.2.1-.2.2-.15.2-.2.15-.2.15-.1.1-.1.35-.1.15-.2.2-.2.2-.15.2-.2.3-.2.35-.2.4-.15.35-.2.4-.2.3-.2.3-.15.25-.2.4-.2.35-.2.4-.15.05-.05.05-.1.2-.2.2-.15.2-.2.1-.1.05-.1.2-.2.2-.15.4-.15.1-.1.05-.05.05-.05.1-.1.15-.2.25-.2.4-.15.2-.2.15-.2.15-.1.05-.1.2-.15.35-.2.35-.2.25-.2.3-.15.2-.2m31.2 5.7-.05-.1-.05-.15-.2-.05.2.2.1.1m18.3 76.15-.45-.15-.15-.15-.15.05-.45-.15-.2-.2-.15-.15-.2-.2-.05-.05-.15.15-.2.2-.35.15-.45-.15-1.8-.1-.45-.15-3.2-.05-.8.1-1.4.5-1.4.45H16.2l-.45-.1h-5.8l-.45-.15-.2-.2-.2-.15-.1-.2-.05-.2v-.35l.1-.15-.1-.1v-.4l.05-.2.1-.15.15-.2.2-.2.15-.15.35-.05 1.3-.1.45-.15 1.05-.1.45-.15h.2v-1.2l.45-.7.7-.7.7-.7.7-.45 1.15-.45.7-.5 1.15-.45.7-.45 1.2-.25.9-.45v-1.4l.45-.7.7-.7 1.65-.25v-.2l1.15.4v-.25l.05-.1.1-.2.1-.2v-.3l.05-.2.1-.2.1-.1.1-.05h.35v-.05h.05v-.55l.05-.2.15-.2.1-.1.15-.1h.3v-.05h.25l.35.15.2.15.15.2.05.2v5.45l.1.15.1.2.05.2v.6l.5.5.45.7.25.65.2.7v1.85l.15.1.15.2.05.2.35.2.2.15.15.2.05.2.1.2.2.2.05.15.15.2v.95l-.05.2-.15.15-.2.2-.35.15M13.5 51.85l-.05-.05h-.35l-.2.05h.6" fill="#727392" fill-rule="evenodd" transform="translate(71.5 65)"/><path d="m72.75 24.05 49.4 34q-30.85 30.2-17.9 60.4l-1.8.05-37.95 1m-.15 0-23.1.55q.95-6.2.95-11.95m0-1.65q-.5-27.65-21.95-45.8l48.45-37.1" fill="none" stroke="#695883" stroke-linecap="round" stroke-linejoin="round" stroke-width="2.25"/><path d="M140.45 52.25q-26.95 35.3-26.6 75.25-39.8-3.25-82.4-.35Q32.5 97.35 2.5 53.2L71.15 2.5l69.4 49.6-.1.15z" fill="none" stroke="#695883" stroke-linecap="round" stroke-linejoin="round" stroke-width="5"/><path d="m67-9.2-.2.7-.5.7-.45.7-.45.7-.95.7-2.3.7-.95.45-1.15.25h-.95l-1.6-.45-1.4-.7-1.15-.7-.7-.7-.45-.7-.5-.7-.45-.7-.45-.7v-3.5l.2-.7.25-.7.45-.7.7-.65.95-.5.1-.05L1-58.45 64.45-13.6v.45L67-9.2m.5-2.25v.15l-.1.4-.5-.7v-.3l.6.45" fill="#b3b4fd" fill-rule="evenodd" transform="translate(71.5 65)"/></g><g id="b"><path d="m18.9 3.2 1.65 1.35q2.7 2.65 2.7 6.45 0 2.25-1.05 3.9l-1.75 2.2q-.75.6-2.25 1.2l-.25.15-.1.25q.4.9 1.25 1.2 4.2 1.3 4.3-3.7l.55 1.35.15.75.15.9v.15q-.05.55-1 1.55-1.05 1.15-4.55.85l-.15-.05-.35.4q-.6 1.3-.1 2.6l.15.45.7 1.55.2.2.3.35q.4.8 1.4 1.35l.65.4q-3.95-.55-5.25-4.95-1.2-4 1.6-7.1Q20 14.6 21 11.7q1.25-3.55-.9-6.75L18.9 3.2m-4.6 24.25q-.3.05-.45.3l-.25-.05-.15.4q-.4 1.95 1.4 3.15-.1.45-.55.3l-.7-.35-.95-1.4q-.5-1.1-.6-2.35.05-.6.85-.45l1.4.45m-4.25-6.5q-.75-.05-.95.35l-.7-.05-.2.25-.1.4.1.55.05.25.05.2-.05.6-.2.45L6.5 21.5q1-2.9 3.4-.75l.15.2m-3.65-5.6.05-.05 1.3 1.4Q9.4 18 11.2 18l-.35.25-1 .2q-1.3 0-2.5-1.5-.95-1.2-.95-1.6" fill="#09cdd2" fill-rule="evenodd" transform="translate(8.45 7.55)"/><path d="M18.2 18.3q1.5 1.4 3.2 1.05l.2-.05.2-.1.35-2.15v.75l.15.1.25.05.3-.05.1-.1.05-.6q0-.9-.45-.9-.25 0-.35.35l.05-.45q.6-.6 1.15 0-.1 5-4.3 3.7-.85-.3-1.25-1.2l.1-.25.25-.15M21.5 29l.15.5q-.45 1.45-1.95 1.5-1.05-.15-1.95-.7l-1.3-2.4q-1.1-.6-2.05-.45h-.1L12.9 27q-.8-.15-.85.45.1 1.25.6 2.35l.95 1.4q-2.6-1.35-3.1-3.35-.6-2.3 1-2.4.55-1.35-.1-2.6L10.35 21l-.3-.05-.15-.2q-2.4-2.15-3.4.75-1.85-3.3 2.9-2.55l.35-.3-2.1-1.2-1.6-2.15-.1-.15q-.5-2.55.7-4.8.6-1.2 1.6-2.05.75 2.05 2.85 1.85 1.6-.15 2.4-1.55 1.25-2.15-.3-4.05-.3-.4-.85-.4.8-.65 1.8-1.1 1.55-.7 3.3-.55l.25.1 1.2.6 1.2 1.75q2.15 3.2.9 6.75-1 2.9-3.15 5.25-2.8 3.1-1.6 7.1 1.3 4.4 5.25 4.95M6.4 15.35q0 .4.95 1.6 1.2 1.5 2.5 1.5l1-.2.35-.25q-1.8 0-3.45-1.3l-1.3-1.4-.05.05m.3 4.45.85-.6-.1-.1q-.95-.1-.95.45l.05.25h.15m10.95 9.45v.3q.5.95 1.1.95l.5-.4-.65-.55q-.5-.3-.95-.3m-7.1-2.45q0 .55.5.9l.2-.1.05-.1.05-.5.05-.5-.05-.2v-.1q-.6-.1-.75.15l-.05.45" fill="#3cf7f5" fill-rule="evenodd" transform="translate(8.45 7.55)"/><path d="m22.15 17.05.05-.4q.1-.35.35-.35.45 0 .45.9l-.05.6-.1.1-.3.05-.25-.05-.15-.1v-.75m-11.2-11.5q-.65.7-1.45.7-.55 0-.6-.45v-.45q0-1.05 1.25-1.55 1.3-.5 1.3.8l-.5.95M6.7 19.8h-.15l-.05-.25q0-.55.95-.45l.1.1-.85.6m10.95 9.45q.45 0 .95.3l.65.55-.5.4q-.6 0-1.1-.95v-.3m-7.1-2.45.05-.45q.15-.25.75-.15v.1l.05.2-.05.5-.05.5-.05.1-.2.1q-.5-.35-.5-.9" fill="#cefdfc" fill-rule="evenodd" transform="translate(8.45 7.55)"/><path d="M24.25 19.35v.7l-.05.2q-.5 2.9-5.5 1.5 3.5.3 4.55-.85.95-1 1-1.55m-5.7 2.35q.15 2.15.6 3.9v.25q0 .8.3 1.4l-.3-.35-.2-.2-.7-1.55-.15-.45q-.5-1.3.1-2.6l.35-.4m-4.7 6.05q-.15.3.15.9l.8 1.8.05.8q-1.8-1.2-1.4-3.15l.15-.4.25.05M9.1 21.3q-.3.45.15 1.5.75 1-.4 1.8-.05.35-.8-.65l.2-.45.05-.6-.05-.2-.05-.25-.1-.55.1-.4.2-.25.7.05" fill="#069b9a" fill-rule="evenodd" transform="translate(8.45 7.55)"/><path d="M5.95 15.15Q5 13.25 5 11q0-3.8 2.65-6.45L9.5 3.1q2.05-1.2 4.6-1.2 1.8 0 3.35.6-1.75-.15-3.3.55-1 .45-1.8 1.1.55 0 .85.4 1.55 1.9.3 4.05-.8 1.4-2.4 1.55-2.1.2-2.85-1.85-1 .85-1.6 2.05-1.2 2.25-.7 4.8m5-9.6.5-.95q0-1.3-1.3-.8-1.25.5-1.25 1.55v.45q.05.45.6.45.8 0 1.45-.7" fill="#a6fbfa" fill-rule="evenodd" transform="translate(8.45 7.55)"/><path d="M27.35 10.75 29 12.1q2.7 2.65 2.7 6.45 0 2.25-1.05 3.9l-1.75 2.2q-.75.6-2.25 1.2 1.5 1.4 3.2 1.05l.2-.05.2-.1.35-2.15.05-.4.05-.45q.6-.6 1.15 0l.55 1.35.15.75.15.9v.85l-.05.2q-.5 2.9-5.5 1.5l-.15-.05q.15 2.15.6 3.9v.25q0 .8.3 1.4.4.8 1.4 1.35l.65.4.15.5q-.45 1.45-1.95 1.5-1.05-.15-1.95-.7l-1.3-2.4q-1.1-.6-2.05-.45h-.1q-.3.05-.45.3-.15.3.15.9l.8 1.8.05.8q-.1.45-.55.3l-.7-.35q-2.6-1.35-3.1-3.35-.6-2.3 1-2.4.55-1.35-.1-2.6l-1.05-1.85-.3-.05q-.75-.05-.95.35-.3.45.15 1.5.75 1-.4 1.8-.05.35-.8-.65l-1.55-2.45q-1.85-3.3 2.9-2.55l.35-.3-2.1-1.2-1.6-2.15-.1-.15q-.95-1.9-.95-4.15 0-3.8 2.65-6.45l1.85-1.45q2.05-1.2 4.6-1.2 1.8 0 3.35.6m.25.1 1.2.6" fill="none" stroke="#fefd81" stroke-linecap="round" stroke-linejoin="round" stroke-width="4"/><path d="m18.9 3.15 1.65 1.35q2.7 2.7 2.7 6.45 0 2.3-1.05 3.9-1 1.6-1.75 2.2-.75.65-2.25 1.25l-.2.15-.1.25q.35.85 1.25 1.15 4.2 1.3 4.25-3.7.25.15.55 1.4l.2.75.1.85v.15q-.05.55-1 1.6-1.05 1.1-4.5.8l-.2-.05-.3.45q-.65 1.25-.1 2.55l.15.45.7 1.55.15.25.3.3q.45.85 1.45 1.35l.6.4q-3.95-.55-5.25-4.9-1.2-4 1.6-7.15Q20 14.55 21 11.65q1.25-3.5-.9-6.7l-1.2-1.8M14.35 27.4q-.35.1-.45.3l-.3-.05-.15.4q-.4 1.95 1.4 3.15-.05.45-.55.3l-.7-.3-.95-1.45q-.5-1.1-.55-2.3 0-.65.8-.45l1.45.4m-4.3-6.5q-.7-.05-.95.35-.4-.2-.7 0l-.15.2-.1.4q-.05.35.05.55l.1.25v.8l-.25.45-1.55-2.45q1.05-2.85 3.4-.75l.15.2M6.5 15.3l1.3 1.35Q9.45 18 11.2 18l-.3.25-1 .15q-1.35 0-2.55-1.5-.9-1.15-.9-1.6h.05" fill="#09cdd2" fill-rule="evenodd" transform="translate(8.45 7.55)"/><path d="M18.2 18.3q1.5 1.35 3.2 1.05l.2-.1.2-.05.35-2.15v.1l.05.6.1.15.3.05.3-.1.1-.1v-.6q0-.85-.4-.85l-.4.3.1-.45q.55-.55 1.1 0-.05 5-4.25 3.7-.9-.3-1.25-1.15l.1-.25.2-.15m3.3 10.65.15.5q-.45 1.5-1.95 1.55-1.05-.2-1.95-.75l-1.25-2.4q-1.15-.55-2.05-.45h-.1L12.9 27q-.8-.2-.8.45.05 1.2.55 2.3l.95 1.45q-2.55-1.4-3.1-3.4-.6-2.25 1-2.4.55-1.35-.1-2.6l-1-1.85-.35-.05-.15-.2q-2.35-2.1-3.4.75-1.8-3.3 2.9-2.55l.35-.3-2.1-1.2-1.6-2.1-.1-.2q-.45-2.5.7-4.8.6-1.15 1.65-2.05.7 2.05 2.85 1.85 1.55-.15 2.35-1.5 1.25-2.2-.25-4.1-.3-.4-.85-.35.75-.7 1.8-1.15 1.55-.65 3.25-.55l.3.1 1.15.6 1.2 1.8q2.15 3.2.9 6.7-1 2.9-3.15 5.25-2.8 3.15-1.6 7.15 1.3 4.35 5.25 4.9M6.5 15.3h-.05q0 .45.9 1.6 1.2 1.5 2.55 1.5l1-.15.3-.25q-1.75 0-3.4-1.35L6.5 15.3m0 4.2.05.25.15.05.85-.6-.1-.1q-.95-.1-.95.4m11.2 9.7-.05.3q.5.95 1.1.95l.55-.35-.65-.6-.95-.3m-7.05-2.9-.05.45q0 .55.5.9l.15-.1.05-.05.05-.55.05-.45v-.25l-.05-.05-.7.1" fill="#3cf7f5" fill-rule="evenodd" transform="translate(8.45 7.55)"/><path d="m22.15 17.05.05-.45.4-.3q.4 0 .4.85v.6l-.1.1-.3.1-.3-.05-.1-.15-.05-.6v-.1m-10.7-12.5-.5 1q-.6.65-1.45.65-.5 0-.6-.4v-.45q0-1.05 1.25-1.55 1.3-.5 1.3.75M6.5 19.5q0-.5.95-.4l.1.1-.85.6-.15-.05-.05-.25m11.2 9.7.95.3.65.6-.55.35q-.6 0-1.1-.95l.05-.3m-7.05-2.9.7-.1.05.05v.25l-.05.45-.05.55-.05.05-.15.1q-.5-.35-.5-.9l.05-.45" fill="#cefdfc" fill-rule="evenodd" transform="translate(8.45 7.55)"/><path d="M24.25 19.3v.5l-.05.45q-.45 2.9-5.45 1.45 3.45.3 4.5-.8.95-1.05 1-1.6m-5.7 2.35q.15 2.2.65 3.9v.3q-.05.75.25 1.35l-.3-.3-.15-.25-.7-1.55-.15-.45q-.55-1.3.1-2.55l.3-.45M13.9 27.7q-.15.3.1.9l.85 1.8v.8q-1.8-1.2-1.4-3.15l.15-.4.3.05m-4.8-6.45q-.25.45.2 1.5.7 1.05-.4 1.8-.1.4-.85-.65l.25-.45v-.8l-.1-.25q-.1-.2-.05-.55l.1-.4.15-.2q.3-.2.7 0" fill="#069b9a" fill-rule="evenodd" transform="translate(8.45 7.55)"/><path d="M5.95 15.1Q5 13.25 5 10.95 5 7.2 7.65 4.5l1.9-1.45q2.05-1.2 4.55-1.2 1.8 0 3.35.6-1.7-.1-3.25.55-1.05.45-1.8 1.15.55-.05.85.35 1.5 1.9.25 4.1-.8 1.35-2.35 1.5Q9 10.3 8.3 8.25q-1.05.9-1.65 2.05-1.15 2.3-.7 4.8m5.5-10.55q0-1.25-1.3-.75-1.25.5-1.25 1.55v.45q.1.4.6.4.85 0 1.45-.65l.5-1" fill="#a6fbfa" fill-rule="evenodd" transform="translate(8.45 7.55)"/><path d="m18.9 3.15 1.65 1.35q2.7 2.7 2.7 6.45 0 2.3-1.05 3.9-1 1.6-1.75 2.2-.75.65-2.25 1.25 1.5 1.35 3.2 1.05v-.05l.2-.05.2-.05.35-2.15.05-.45.1-.45q.55-.55 1.1 0 .25.15.55 1.4l.2.75.1.85v.65l-.05.45q-.45 2.9-5.45 1.45l-.2-.05q.15 2.2.65 3.9v.3q-.05.75.25 1.35.45.85 1.45 1.35l.6.4.15.5q-.45 1.5-1.95 1.55-1.05-.2-1.95-.75l-1.25-2.4q-1.15-.55-2.05-.45h-.1q-.35.1-.45.3-.15.3.1.9l.85 1.8v.8q-.05.45-.55.3l-.7-.3q-2.55-1.4-3.1-3.4-.6-2.25 1-2.4.55-1.35-.1-2.6l-1-1.85-.35-.05q-.7-.05-.95.35-.25.45.2 1.5.7 1.05-.4 1.8-.1.4-.85-.65L6.5 21.45q-1.8-3.3 2.9-2.55l.35-.3-2.1-1.2-1.6-2.1-.1-.2Q5 13.25 5 10.95 5 7.2 7.65 4.5l1.9-1.45q2.05-1.2 4.55-1.2 1.8 0 3.35.6m.3.1 1.15.6" fill="none" stroke="#034140" stroke-linecap="round" stroke-linejoin="round" transform="translate(8.45 7.55)"/><path d="M-8.45-7.55H34.7V35.6H-8.45V-7.55" fill="#fff" fill-opacity="0" fill-rule="evenodd" transform="translate(8.45 7.55)"/></g></defs></svg>