<svg xmlns:ffdec="https://www.free-decompiler.com/flash" xmlns:xlink="http://www.w3.org/1999/xlink" ffdec:objectType="frame" height="32.95" width="34.15" xmlns="http://www.w3.org/2000/svg"><g transform="translate(2.1 1.5)"><use ffdec:characterId="554" height="130" transform="matrix(.2173 0 0 .2179 -.587 .835)" width="143.05" xlink:href="#a"/><use ffdec:characterId="555" height="61.85" transform="matrix(.3376 .0463 -.0461 .3386 10.488 4.654)" width="39.25" xlink:href="#b"/><use ffdec:characterId="556" height=".4" transform="matrix(.3109 .0426 -.0425 .3118 12.92 10.619)" width=".4" xlink:href="#c"/><use ffdec:characterId="78" height="30" width="30" xlink:href="#d"/></g><defs><path d="M.1.3.3.1" fill="none" stroke="#66c" stroke-linecap="round" stroke-linejoin="round" stroke-width=".25" id="c"/><path d="M30 0v30H0V0h30" fill="#fff" fill-opacity="0" fill-rule="evenodd" id="d"/><g id="a"><path d="m-63.4-7.35-.15-.15L-65-6.35l-2.45-6.55 60-40.9-50.75 41.9.05.1.05.2.15.2.05.2.15.15.05.2.1.2v1.3l.15.2.05.2.05.15v1.15l-.05.2-.1.15-.1.2v1.15l-.05.15-.1.2-.1.2-.1.2-.05.15-.15.2.15.1.1.2.05.2.15.2.05.15.15.2.1.2.05.2.15.15.05.2.15.2.05.2.1.15.1.2.05.2.1.2.1.15.05.2.05.2.15.2.1.15.15.2.05.2.1.2.1.15.05.2v.2l.05.2.05.2.1.15.1.2.05.2.15.2.1.15.15.2.1.2.15.2.05.15.15.2.05.2.1.2.1.15.1.2.05.2.15.2.05.15.15.2.05.2.05.2.15.15v.2l.05.2.05.2.05.15v.2l.15.2.05.2.05.15.1.2.05.2.1.2.1.15v.2l.05.2.05.2.05.1.15.2.05.2.15.15.05.2.05.2.05.2.1.15.05.2.05.2.05.2.15.15.05.2.05.2.1.2.05.15.05.2.05.2v.35l.1.2.15.2.15.2.05.15.05.2-.05.2-.05.2v.05l.05.2.05.15.1.2.05.2.05.2.05.15.1.2.05.2.05.2.05.15.1.2.1.2.05.2.15.15.05.2.05.2v.2l-.1.15-.05.2-.15.15-.1.05-.35.05-.4-.1-.2-.2-.15-.2-.05-.2-.1-.15-.1-.2-.1-.2-.05-.2-.15-.15-.05-.2-.05-.2-.1-.2-.05-.15-.05-.2-.05-.2-.1-.2-.05-.15-.05-.2-.05-.2-.1-.2-.05-.15-.05-.2-.05-.2-.1-.2v-.1l-.15-.05-.2-.2-.15-.2-.05-.2-.1-.15-.1-.2-.05-.2-.05-.2-.05-.15-.1-.2-.1-.2-.05-.2-.15-.15v-.2l-.05-.2-.05-.2-.1-.15-.05-.2-.05-.2-.05-.2-.1-.15v-.2l-.05-.2-.05-.2-.05-.1-.1-.15V6.8l-.05-.2v-.05l-.05-.1-.05-.1-.1-.15v-.15l-.05-.15v-.05l-.05-.15-.15-.15v-.1l-.05-.15-.1-.2-.1-.2-.1-.2-.15-.15-.05-.15-.2.05-.4-.1-.2-.2-.15-.2V3.4l-.1-.2-.15-.15-.1-.2-.15-.2-.15-.05-.2-.2-.15-.2-.05-.15-.1-.2-.1-.2-.1-.2-.05-.15-.15-.2-.05-.2-.05-.2-.1-.15-.05-.2-.05-.2-.15-.2-.05-.15-.1-.2-.15-.2-.1-.2-.15-.15-.1-.2-.1-.2-.1-.2-.05-.15-.15-.2-.05-.2-.05-.2-.1-.15-.15-.2-.2-.2-.1-.1-.2-.05-.1-.2-.15-.2v-.3l-.1-.2-.15-.15-.05-.15-.1-.2-.15-.2-.15-.15-.05-.15-.15-.2-.05-.2-.05-.15-.15-.15-.2-.2-.15-.2-.2-.15-.1-.15-.05-.2-.1-.2-.15-.15-.05-.15-.15-.2-.1-.15m60.6-34.1-.05-.05-.5-.7v-6.95l-.15-.25h-.85l-.45-.05-.1-.2-.2-.2-.2-.2-.15-.1-.15-.2-.15-.2-.05-.2-.15-.1-.15-.2-.1-.2v-.3l-.1-.2-.15-.2-.05-.15-.15-.15-.05-.2v-1.9l.05-.2.15-.15.2-.2.15-.15.05-.05v-1.7l.2-.7.7-.7.7-.45 1.15-.5.7-.45h1.15v-.25H.4l1.4.5.9.7.7.65.1.15 1.05.35.7.7.5.7.2.7v.6H6l.25.1.15.2.05.2.1.2.05.1.15.2.05.2v1l-.05.2-.15.2-.05.15-.1.15-.05.2-.1.2-.05.15-.15.15-.3.2-.1.2-.1.15-.2.15-.2.2-.15.2-.2.15-.35.15-.2.15-.3.1-.2.1-.25.1-.2.15-.25.1-.2.15-.3.1-.15.1-.2.05v6.05l-.45.7-.25.7-.3.3-.15.15-.5.25-1.15.25-1.6-.5-.65-.65M-59.7-10.6l.1.15v-.1l-.05-.15-.05.05v.05m.25.65.05.2v.2l.05.15v-.4l-.05-.15-.1-.2-.1-.2v.1l.05.15.1.15m21.25 55 .05.15v.05l.2.05.2.15.1.2.1.2v.2l.05.15.1.2.1.2.1.2.05.15.1.2v.4l.05.15.1.2.1.2v.35l.05.2.05.2.15.2v.55l.05.2.05.15.05.2.1.2v.35l.05.2.05.2.15.2v1.2h.25l.35.1.25.2.2.2.2.15.15.2.15.2.1.2.1.15.1.2.05.2.1.2v.15l.1.2.05.2.15.2.05.15.15.2.05.2.1.2.1.15v.4l.05.2.05.15.15.2v.35l.5.05.5.1.55.2.35.1 1.1.1.5.1 1 .15.3.05.25.05.25.05.95.1.4.1 1.35.15.35.1.2.2.1.2.1.15v.2l-.15.2-.05.2-.15.1-.1.05-.3.1h-1.2l-.15.1-.1.05-.3.1h-.5l-.45-.15-.45-.2-.3-.1-1.3-.05-.5-.15-1.5-.1-.5-.15-2.75-.1-.2-.05-.2.15-.35.15h-.75l-.45-.15-.2-.2-.1-.15-.1-.2-.1-.2-.05-.2v-.15l-.1-.2-.1-.2-.05-.2v-1.65l.1-.2.05-.05-.35-.15-.2-.2-.15-.15v-.4l-.1-.2-.15-.15v-4.9l-.05-.2-.05-.2-.05-.15-.1-.2v-.4l-.05-.15-.05-.2-.15-.2v-.55l-.05-.2-.05-.2-.05-.15-.1-.2v-.2l-.05-.2-.1-.15-.1-.2v-.4l-.05-.15-.05-.2-.15-.2v-.35l.1-.2.1-.2.15-.1.1-.1h.3v-.05l.4.15.25.15.05.2.15.2.05.2m96.7-51 .15.15.05.2v.2l-.15.2-.05.15-.1.2-.1.2-.1.2-.05.15.15-.15.2-.2.2-.2.2-.2.1-.1.15-.05h.3v-.1l.35.15.2.2.15.15.05.2v.2l-.15.2-.05.15-.1.2-.1.2-.1.2-.2.15-.2.2-.15.2-.2.2-.2.15-.1.2-.1.2-.1.2-.2.15-.05.2-.15.2-.1.2-.2.15-.05.2v.2l-.15.2-.05.15-.05.2v.2l-.05.2-.15.15-.05.2v.2l-.05.2-.15.15-.05.2-.15.2-.05.2-.1.15-.15.2-.05.2v.2l-.05.15-.15.2-.1.2-.2.2v.15l-.05.2-.1.2-.1.2-.05.15-.15.2-.1.2-.2.2-.05.15-.15.2-.05.1v.05l-.05.15-.15.2-.05.2v.35l-.05.2-.1.2-.1.2-.2.1-.3.05-.25-.05v.15l-.05.15-.1.2-.1.2v.35l-.05.2-.1.2-.1.2-.2.1-.3.05-.45-.1-.2-.2-.1-.2v-.9l.05-.2.15-.2.05-.2v-.35l.05-.2.05-.2.15-.15.05-.05-.05-.05v-.75l.1-.15.1-.2.05-.2v-.2l.1-.15.1-.2.1-.2.05-.2.15-.15v-.75l.05-.2.15-.2.05-.2.05-.15.05-.2.1-.2.05-.2.1-.15.1-.1V.9l.05-.2.05-.15.05-.2.1-.2.05-.2.05-.15.05-.2.1-.2.05-.2.05-.15.05-.2.1-.2.05-.2.05-.15.05-.2.1-.2.05-.2.1-.15.1-.2.05-.2v-.25l.05-.2.05-.15.1-.2.05-.1v-.2l.05-.2.15-.2.05-.2v-.25l.05-.05v-.05l.15-.2.05-.2v-.25L56-5.6v-.05l.05-.05h.05l.1-.2v-.55l.05-.2.2-.2.2-.1h.3v-.1h.25l.35.15.2.2.15.15.05.2v.05l.35.15.2.2m-16.8 45.1.35.15.2.15.15.2.05.2v1.1l-.05.2-.15.2-.05.2v.35l-.05.2-.1.2-.1.15v1.15l-.15.2-.05.15-.05.2v.55l-.05.2-.1.2-.05.2-.05.15-.05.2-.1.2-.05.2-.05.15v.75l-.05.2-.1.2-.05.2-.05.15v.2l-.05.2-.1.2-.05.15v.2l-.05.2v.75l-.05.2v.05l.1.1.15.2.05.2v.2l-.05.15-.15.2-.05.2v.95l-.05.2-.1.15-.1.2v.95l-.05.2-.15.15-.05.2v.75l-.15.2-.05.2v.05l.15.2.05.15v.2l-.15.2-.05.2-.05.15v.95l.05.2.15.2.05.15v1.15l-.05.2-.15.15-.2.2-.25.2-.05.2-.1.1-.15.05-.3.1h-.25l-.15-.05-.05.05-.1.1-.15.05-.3.1h-1l-.45-.15-1.8-.1-.5-.15-4.25-.1-.45-.15-.55-.1-.5-.15-.55-.2-.2-.15h-.05l-.15.05-.25.05-.25.05-.3.1h-.75l-.45-.15-.2-.2-.1-.15v-.4l.05-.2.15-.15.1-.15.15-.05.3-.05.95-.1.25-.05.25-.05.25-.05.25-.1.25-.05.25-.05.3-.05.95-.1.25-.05.25-.05h.3v-.05h4.25v-.45l.05-.2.15-.2.05-.15.1-.2.2-.2.2-.2.2-.15.15-.2.2-.2.2-.2.2-.15.1-.15.15-.05.3-.15.2-.1.3-.15.2-.1h.3V54h.75v-.4l.05-.2.15-.15-.1-.1-.1-.15v-.6l.05-.15.05-.2.1-.2v-.2l.05-.15v-1.55l.05-.15.05-.2.1-.2.05-.2v-.75l.05-.15v-.2l.05-.2.1-.2.05-.15v-.2l.05-.2.05-.2.1-.15.05-.2v-.75l.05-.2.05-.2.1-.15.05-.2.05-.2.05-.2.1-.15.05-.2v-.55l.05-.2.05-.2.15-.2v-1.3l.1-.2.15-.15v-.6l.05-.15.15-.2.05-.2v-.75l.1-.2.2-.15.45-.1v-.05" fill="#a3a4fe" fill-rule="evenodd" transform="translate(71.5 65)"/><path d="m-63.4-7.35.1.15.15.2.05.15.15.15.1.2.05.2.1.15.2.15.15.2.2.2.15.15.05.15.05.2.15.2.05.15.15.15.15.2.1.2.05.15.15.15.1.2v.3l.15.2.1.2.2.05.1.1.2.2.15.2.1.15.05.2.05.2.15.2.05.15.1.2.1.2.1.2.15.15.1.2.15.2.1.2.05.15.15.2.05.2.05.2.1.15.05.2.05.2.15.2.05.15.1.2.1.2.1.2.05.15.15.2.2.2.15.05.15.2.1.2.15.15.1.2v.55l.15.2.2.2.4.1.2-.05.05.15.15.15.1.2.1.2.1.2.05.15v.1l.15.15.05.15v.05l.05.15v.15l.1.15.05.1.05.1v.05l.05.2v.15l.1.15.05.1.05.2.05.2v.2l.1.15.05.2.05.2.05.2.1.15.05.2.05.2v.2l.15.15.05.2.1.2.1.2.05.15.05.2.05.2.1.2.1.15.05.2.15.2.2.2.15.05v.1l.1.2.05.2.05.2.05.15.1.2.05.2.05.2.05.15.1.2.05.2.05.2.05.15.1.2.05.2.05.2.15.15.05.2.1.2.1.2.1.15.05.2.15.2.2.2.4.1.35-.05.1-.05.15-.15.05-.2.1-.15v-.2l-.05-.2-.05-.2-.15-.15-.05-.2-.1-.2-.1-.2-.05-.15-.05-.2-.05-.2-.1-.2-.05-.15-.05-.2-.05-.2-.1-.2-.05-.15-.05-.2v-.05l.05-.2.05-.2-.05-.2-.05-.15-.15-.2-.15-.2-.1-.2v-.35l-.05-.2-.05-.2-.05-.15-.1-.2-.05-.2-.05-.2-.15-.15-.05-.2-.05-.2-.05-.2-.1-.15-.05-.2-.05-.2-.05-.2-.15-.15-.05-.2-.15-.2-.05-.1-.05-.2-.05-.2v-.2l-.1-.15-.1-.2-.05-.2-.1-.2-.05-.15-.05-.2-.15-.2v-.2l-.05-.15-.05-.2-.05-.2v-.2l-.15-.15-.05-.2-.05-.2-.15-.2-.05-.15-.15-.2-.05-.2-.1-.2-.1-.15-.1-.2-.05-.2-.15-.2-.05-.15-.15-.2-.1-.2-.15-.2-.1-.15-.15-.2-.05-.2-.1-.2-.1-.15-.05-.2-.05-.2v-.2l-.05-.2-.1-.15-.1-.2-.05-.2-.15-.2-.1-.15-.15-.2-.05-.2-.05-.2-.1-.15-.1-.2-.05-.2-.1-.2-.1-.15-.05-.2-.15-.2-.05-.2-.15-.15-.05-.2-.1-.2-.15-.2-.05-.15-.15-.2-.05-.2-.1-.2-.15-.1.15-.2.05-.15.1-.2.1-.2.1-.2.05-.15V-7.1l.1-.2.1-.15.05-.2V-8.8l-.05-.15-.05-.2-.15-.2v-1.3l-.1-.2-.05-.2-.15-.15-.05-.2-.15-.2-.05-.2-.05-.1 50.75-41.9-60 40.9L-65-6.35l1.45-1.15.15.15m64.65-33.6.3-.3.25-.7.45-.7v-6.05l.2-.05.15-.1.3-.1.2-.15.25-.1.2-.15.25-.1.2-.1.3-.1.2-.15.35-.15.2-.15.15-.2.2-.2.2-.15.1-.15.1-.2.3-.2.15-.15.05-.15.1-.2.05-.2.1-.15.05-.15.15-.2.05-.2v-1l-.05-.2-.15-.2-.05-.1-.1-.2-.05-.2-.15-.2-.25-.1h-.05v-.6l-.2-.7-.5-.7-.7-.7-1.05-.35-.1-.15-.7-.65-.9-.7-1.4-.5h-1.9v.25h-1.15l-.7.45-1.15.5-.7.45-.7.7-.2.7v1.7l-.05.05-.15.15-.2.2-.15.15-.05.2v1.9l.05.2.15.15.05.15.15.2.1.2v.3l.1.2.15.2.15.1.05.2.15.2.15.2.15.1.2.2.2.2.1.2.45.05h.85l.15.25v6.95l.5.7.05.05-48.45 37.1Q-29.8 13.8-29.3 41.45l-.05.05v1.4l.05.2q0 5.75-.95 11.95l23.1-.55H-7l37.95-1 1.8-.05q-12.95-30.2 17.9-60.4l-49.4-34m-60.7 31-.1-.15-.05-.15v-.1l.1.2.1.2.05.15v.4l-.05-.15v-.2l-.05-.2m-.25-.65v-.05l.05-.05.05.15v.1l-.1-.15m21.5 55.65-.05-.2-.15-.2-.05-.2-.25-.15-.4-.15v.05h-.3l-.1.1-.15.1-.1.2-.1.2v.35l.15.2.05.2.05.15v.4l.1.2.1.15.05.2v.2l.1.2.05.15.05.2.05.2v.55l.15.2.05.2.05.15v.4l.1.2.05.15.05.2.05.2v4.9l.15.15.1.2v.4l.15.15.2.2.35.15-.05.05-.1.2v1.65l.05.2.1.2.1.2v.15l.05.2.1.2.1.2.1.15.2.2.45.15h.75l.35-.15.2-.15.2.05 2.75.1.5.15 1.5.1.5.15 1.3.05.3.1.45.2.45.15h.5l.3-.1.1-.05.15-.1h1.2l.3-.1.1-.05.15-.1.05-.2.15-.2v-.2l-.1-.15-.1-.2-.2-.2-.35-.1-1.35-.15-.4-.1-.95-.1-.25-.05-.25-.05-.3-.05-1-.15-.5-.1-1.1-.1-.35-.1-.55-.2-.5-.1-.5-.05v-.35l-.15-.2-.05-.15-.05-.2v-.4l-.1-.15-.1-.2-.05-.2-.15-.2-.05-.15-.15-.2-.05-.2-.1-.2v-.15l-.1-.2-.05-.2-.1-.2-.1-.15-.1-.2-.15-.2-.15-.2-.2-.15-.2-.2-.25-.2-.35-.1h-.25v-1.2l-.15-.2-.05-.2-.05-.2v-.35l-.1-.2-.05-.2-.05-.15-.05-.2v-.55l-.15-.2-.05-.2-.05-.2v-.35l-.1-.2-.1-.2-.05-.15v-.4l-.1-.2-.05-.15-.1-.2-.1-.2-.1-.2-.05-.15v-.2l-.1-.2-.1-.2-.2-.15-.2-.05v-.05l-.05-.15m96.7-51-.2-.2-.35-.15v-.05l-.05-.2-.15-.15-.2-.2-.35-.15h-.25v.1h-.3l-.2.1-.2.2-.05.2v.55l-.1.2h-.05l-.05.05v.05l-.05.05v.25l-.05.2-.15.2v.05l-.05.05v.25l-.05.2-.15.2-.05.2v.2l-.05.1-.1.2-.05.15-.05.2v.25l-.05.2-.1.2-.1.15-.05.2-.1.2-.05.2-.05.15-.05.2-.1.2-.05.2-.05.15-.05.2-.1.2-.05.2-.05.15-.05.2-.1.2-.05.2-.05.15-.05.2v.05l-.1.1-.1.15-.05.2-.1.2-.05.2-.05.15-.05.2-.15.2-.05.2v.75l-.15.15-.05.2-.1.2-.1.2-.1.15v.2l-.05.2-.1.2-.1.15v.75l.05.05-.05.05-.15.15-.05.2-.05.2v.35l-.05.2-.15.2-.05.2v.9l.1.2.2.2.45.1.3-.05.2-.1.1-.2.1-.2.05-.2V7.6l.1-.2.1-.2.05-.15V6.9l.25.05.3-.05.2-.1.1-.2.1-.2.05-.2v-.35l.05-.2.15-.2.05-.15v-.05l.05-.1.15-.2.05-.15.2-.2.1-.2.15-.2.05-.15.1-.2.1-.2.05-.2V3.3l.2-.2.1-.2.15-.2.05-.15v-.2l.05-.2.15-.2.1-.15.05-.2.15-.2.05-.2.15-.15.05-.2v-.2l.05-.2.15-.15.05-.2v-.2l.05-.2.05-.15.15-.2v-.2l.05-.2.2-.15.1-.2.15-.2.05-.2.2-.15.1-.2.1-.2.1-.2.2-.15.2-.2.15-.2.2-.2.2-.15.1-.2.1-.2.1-.2.05-.15.15-.2v-.2l-.05-.2-.15-.15-.2-.2-.35-.15v.1h-.3l-.15.05-.1.1-.2.2-.2.2-.2.2-.15.15.05-.15.1-.2.1-.2.1-.2.05-.15.15-.2v-.2l-.05-.2-.15-.15m10.45-6.8Q42 22.55 42.35 62.5q-39.8-3.25-82.4-.35Q-39 32.35-69-11.8L-.35-62.5l69.4 49.6-.1.15M41.7 39.15v.05l-.45.1-.2.15-.1.2v.75l-.05.2-.15.2-.05.15v.6l-.15.15-.1.2v1.3l-.15.2-.05.2-.05.2v.55l-.05.2-.1.15-.05.2-.05.2-.05.2-.1.15-.05.2-.05.2v.75l-.05.2-.1.15-.05.2-.05.2v.2l-.05.15-.1.2-.05.2v.2l-.05.15v.75l-.05.2-.1.2-.05.2-.05.15v1.55l-.05.15v.2l-.1.2-.05.2-.05.15v.6l.1.15.1.1-.15.15-.05.2v.4h-.75v.05h-.3l-.2.1-.3.15-.2.1-.3.15-.15.05-.1.15-.2.15-.2.2-.2.2-.15.2-.2.15-.2.2-.2.2-.1.2-.05.15-.15.2-.05.2v.45h-4.25v.05h-.3l-.25.05-.25.05-.95.1-.3.05-.25.05-.25.05-.25.1-.25.05-.25.05-.25.05-.95.1-.3.05-.15.05-.1.15-.15.15-.05.2v.4l.1.15.2.2.45.15h.75l.3-.1.25-.05.25-.05.15-.05h.05l.2.15.55.2.5.15.55.1.45.15 4.25.1.5.15 1.8.1.45.15h1l.3-.1.15-.05.1-.1.05-.05.15.05h.25l.3-.1.15-.05.1-.1.05-.2.25-.2.2-.2.15-.15.05-.2V57.9l-.05-.15-.15-.2-.05-.2v-.95l.05-.15.05-.2.15-.2v-.2l-.05-.15-.15-.2v-.05l.05-.2.15-.2v-.75l.05-.2.15-.15.05-.2v-.95l.1-.2.1-.15.05-.2v-.95l.05-.2.15-.2.05-.15v-.2l-.05-.2-.15-.2-.1-.1v-.05l.05-.2v-.75l.05-.2v-.2l.05-.15.1-.2.05-.2v-.2l.05-.15.05-.2.1-.2.05-.2v-.75l.05-.15.05-.2.1-.2.05-.2.05-.15.05-.2.1-.2.05-.2v-.55l.05-.2.05-.15.15-.2v-1.15l.1-.15.1-.2.05-.2v-.35l.05-.2.15-.2.05-.2v-1.1l-.05-.2-.15-.2-.2-.15-.35-.15" fill="#66f" fill-rule="evenodd" transform="translate(71.5 65)"/><path d="m18.05-28.4-.1-.2-.3-.2-.4-.2-.35-.15-.4-.2-.25-.2-.2-.2q-.1-.1-.25-.15l-.3-.2-.45-.2-.1-.05-.05-.15-.1-.15-.1-.2-.3-.2-.35-.2-.25-.15-.3-.2-.4-.2-.3-.2-.2-.15-.15-.2-.35-.2-.35-.2-.4-.15-.3-.2-.25-.2-.25-.2-.2-.15-.15-.2-.35-.2-.3-.2-.2-.15-.15-.2-.2-.2-.2-.2-.25-.15-.35-.2-.2-.2-.2-.2q-.1-.1-.25-.15l-.35-.15v.05h-.35l-.1.1-.15.1-.1.2v.05h-.05v.05l-.45.1-.2.15-.1.2-.1.2-.1.2-.05.15v.4l-.1.2-.05.15-.1.2v.6l-.05.05v.4l-.05.1-.05.15-.05.2-.05.2-.1.2-.05.15-.05.2-.05.2v1l-.05.2-.15.2-.05.15-.05.15-.15.2-.2.15-.05.2-.1.15-.15.2-.15.15-.15.2-.15.15-.05.2-.15.15-.1.2-.2.15-.2.2-.25.1-.2.1-.2.2-.15.2-.1.1v.7l.1.15-.05.05-.05.2v.3l.1.2.15.2.45.1h.45l.25-.05.25-.05.4.1.3.1.25.05.2.2.35.1.15.15.35.1.15.15.35.1.15.15.35.1.15.15.35.1.15.15.45.1.35-.1.1-.05.25.05.05.1.15.1.1.2.4.05.05.1.1.1.15.2.4.1.05.1.1.05.15.2.2.2.2.15.15.15.15.2.2.2.2.15.15.15.15.2.2.2.2.15.15.15.15.2.2.2.15.1.2.2.15.2.4.2.25.1.15.2.15.2.1.2.05.1.15.2.15.2.15.2.05.1.1.2.15.2.15.15.05.15.15.2.1.2.15.15.05.15.15.2.05.2.1.15.15.15.15.2.05.2.05.15v.15l.15.2.05.2.1.15.1.15.05.2.05.15.15.2.05.15v.2l.05.15.15.2.05.15v1.05l.05.2.1.15.05.2v.65l.05.2.15.2.05.15v.7l.15.15.05.2.05.2v1.5l.1.2.1.2v.7l.05.2.15.1.05.15v.35l-.05.15-.15.2v.05l-.1.05-.1.2-.05.15V-2l.1.2.15.2.4.1.1.1.4.1.25.1.1.1.15.2.4.15.2.15.2.2.15.2.15.15.2.15.2.2.15.2.15.15.3.15.3.2.15.2.2.15.2.15.15.2.15.2.2.15.2.15.15.2.15.15.35.2.05.15.15.2.15.15.2.2.15.15.05.2.05.15.2.2.15.15.1.2.1.15.2.2.15.15.2.15.15.2v.2l.1.15.2.15.15.2.05.2.1.15.15.15.2.2.35.2.05.15.1.15.05.2.15.2.05.15.15.15.05.2.05.2.1.1.1.2.05.2.15.2.05.1.15.2.05.2.05.2.1.1v.2l.05.2.1.2.1.1.1.2.05.2.1.15v.55l.1.15.1.15.1.2.05.2.1.15v.15l.1.2.15.2v.15l.05.15.15.2.05.2.1.15.15.15.1.2.05.15.05.2-.05.15v.9l.1.15.2.2v.1l-.15.2-.05.15v.6l.05.15.15.2.15.2.2.2.45.1.35-.1.2-.2.15-.2.05-.2v-.6H32l.15-.05.1-.15.2-.2.1-.15.1-.2.05-.2v-.2l.1-.15.1-.2.1-.2.05-.2.15-.15v-.2l.05-.2.05-.2.15-.15.05-.2.15-.2.05-.2v-.35l-.05-.2v-.05l.05-.1v-.05l.05-.1.2.05.3-.05.2-.15.2-.15.1-.2.15-.2.05-.2.1-.15.15-.2.05-.2.2-.2.1-.15.1-.2.05-.2.05-.2.15-.15.15-.2.2-.2.05-.2.15-.15.2-.2.1-.2.15-.2.1-.15.05-.2.15-.2.05-.2.15-.15.05-.2.1-.2.2-.2.05-.15.15-.2.1-.2.2-.2.05-.15.15-.2.1-.2.1-.2.05-.15.2-.2.1-.2.15-.2.05-.15.1-.2.15-.2.05-.15.05-.1.1-.1.1-.1.2-.15.2-.2.15-.2.2-.2.05-.15.15-.2v-.25l.1-.2.2-.2.2-.15.1-.2.15-.2.2-.2.3-.15.1-.2.15-.2.05-.15.15-.15.05-.05.2-.2.35-.2.25-.2.2-.2.2-.15.15-.2.2-.2.05-.2.15-.15v-.2l-.05-.1.05-.05.2-.15.15-.2.35-.2.3-.2.2-.15.15-.2.2-.2.05-.2.15-.15v-.2l-.05-.2-.15-.2-.2-.15-.35-.15v.05h-.3l-.2.15-.2.2-.2.15-.3.2-.3.2-.2.2-.2.15-.15.2-.2.2-.3.1-.15.1-.1.1-.15.2-.05.2v.15l-.2.2-.3.2-.2.2-.2.15-.15.2-.2.2-.2.2-.3.15-.25.2-.25.2-.2.2-.1.2-.15.15-.1.2-.25.2-.35.2-.25.15-.3.2-.25.2-.2.2-.15.15-.2.2-.2.2-.2.2-.15.15-.25.2-.25.2-.35.2-.15.15-.2.2-.2.2-.2.2-.15.15-.2.2-.2.2-.2.2-.15.15-.2.2-.2.2-.2.2-.15.15-.2.2-.2.2-.05.2-.15.15-.1.2-.2.2-.2.2-.1.15-.05.2-.15.2-.05.2v.05l-.15.1-.1.2-.05.2-.15.2-.2.15-.05.15-.1-.15-.05-.15-.15-.2-.1-.15-.15-.2-.05-.15-.1-.2-.1-.15-.05-.2-.15-.15-.05-.2-.1-.15-.1-.2-.1-.15-.1-.2-.1-.15-.15-.2-.05-.15-.1-.15-.1-.2-.1-.2V5.3l-.15-.15-.05-.2-.15-.2-.05-.15-.1-.15-.1-.2-.1-.2-.1-.15-.1-.15-.15-.2-.1-.2-.05-.15-.15-.15-.05-.2-.15-.2-.1-.1-.15-.2-.1-.2-.1-.2-.1-.1-.15-.2-.1-.2-.15-.2-.1-.1-.1-.2-.1-.2-.2-.2-.2-.1-.1-.2-.15-.2-.15-.15-.1-.15-.2-.2-.15-.2-.15-.15-.2-.15-.2-.2-.15-.2-.2-.15-.1-.15-.15-.2-.1-.2-.1-.15-.25-.15-.3-.2-.2-.2-.2-.15-.15-.15-.2-.2-.35-.15-.2-.2-.15-.15-.25-.2-.3-.1.05-.1.05-.2.05-.2V-8l-.05-.15-.05-.2-.05-.2-.05-.15v-.55l-.05-.15-.05-.15-.15-.2v-.85l-.05-.1-.05-.2-.1-.2-.05-.2v-1l-.1-.2-.05-.15-.05-.15v-.2l-.1-.2-.1-.15-.05-.05v-.2l-.05-.15-.05-.15-.15-.2v-.45l-.05-.2-.1-.15-.1-.15-.05-.1-.15-.15-.05-.2-.15-.2-.05-.2v-.5l-.15-.15-.05-.15-.1-.2-.1-.2-.05-.15v-.15l-.1-.2-.1-.2-.1-.15-.15-.15-.05-.2-.15-.2v-.1l-.05-.2-.15-.2-.05-.15v-.2l-.05-.2-.15-.2-.05-.15-.15-.2-.05-.2-.2-.2-.1-.15-.15-.2-.05-.2-.2-.2-.1-.15-.15-.2-.05-.2-.2-.2-.15-.15-.2-.2-.2-.2-.2-.2-.15-.15-.2-.2-.2-.2-.2-.2-.15-.15-.2-.2-.2-.2-.2-.2-.25-.15-.3-.15-.05-.05-.15-.15-.25-.15-.3-.15-.2-.1-.35-.2-.2-.2-.2-.2-.25-.15-.3-.15-.2-.1-.3-.15-.2-.1-.3-.15-.2-.1-.35-.15-.4-.1-.35-.15-.4-.1-.35-.15-.4-.1-.3-.15-.05-.05v-.3l.1-.2.05-.2.1-.2v-.55l.05-.2.05-.15.15-.2v-.55l.05-.2.1-.2.1-.2.1-.1.35.05.25.15.4.2.3.1.4.2.3.2.45.1.3.1.3.15.5.2.35.15.15.2.25.2.6.2.55.15.4.2.15.2.2.2.5.15.25.1.25.1.3.2.2.2.05.05.2.2.4.15.15.15.2.2.45.1h.15l.15.15.2.15.3.2.3.2.2.2.4.15.35.2.4.2.35.2.45.1.3-.05.2-.15.1-.15.1-.2.05-.2-.05-.2-.1-.15-.1-.2-.25-.15v-.15l-.15-.2-.05-.2-.2-.2-.25-.15-.3-.15-.2-.1-.35-.15-.2-.05-.2-.15-.25-.15-.3-.2-.35-.2-.2-.2-.15-.15M1.25-40.95l49.4 34q-30.85 30.2-17.9 60.4l-1.8.05-37.95 1 .3-.15.2-.2.1-.15.1-.2v-.2l-.15-.2-.05-.15-.25-.2-.3-.15v-.25l-.1-.15-.1-.2-.2-.2-.35-.1-2.05-.15V50.6l-.2-.7-.5-.7-.7-.7-1.4-.5-2.3-.45-1.15-.45-.7-.45-1.4-.5-1.4-.45-1.4-.7-.7-.7-.2-.7v-.7l-.5-.7-.2-.7-.7-.7-.95-.7-.85-.25-.05-.05-.05-.2-.1-.15-.15-.15-.15-.2-.1-.2-.1-.15-.1-.15-.05-.2-.1-.2-.1-.05v-.2l-.05-.2-.05-.15-.15-.2-.05-.15-.05-.2-.2-.15-.4-.15v.05h-.2v-.15l-.1-.2-.05-.15-.05-.2-.05-.2v-2.05l-.1-.2-.1-.2-.2-.15-.35-.15v.05h-.35l-.15.15-.2.2-.05.15v2.65l.05.2.1.15.1.2v.95l.05.2.1.15.1.2v1.45l.05.2.1.15.05.1-.55.5-.4.65q-.5-27.65-21.95-45.8l48.45-37.1.65.65 1.6.5 1.15-.25.5-.25.15-.15m-8.4 95.45-23.1.55q.95-6.2.95-11.95l.15.5.5.7.35.4v3.95l-.1.2-.05.1-.05.1-.05.1v1.5l-.1.2-.1.2-.05.2v.55l-.1.2-.1.15-.05.2v.4l.1.1H-29l-.2.2-.1.2V54l.1.15.2.2.45.15h.25l.35-.15.65-.1.3-.1 1.35.4h1.85l1.05-.35.2.05 1.3.1.45.15h2.35l.25.05h5.55l1.4-.5h.05l1.2.05.45.15 2.05.1.35.15m19.8-77.15-.1-.1-.2-.2.2.05.05.15.05.1m-31.2-5.7-.2.2-.3.15-.25.2-.35.2-.35.2-.2.15-.05.1-.15.1-.15.2-.2.2-.4.15-.25.2-.15.2-.1.1-.05.05-.05.05-.1.1-.4.15-.2.15-.2.2-.05.1-.1.1-.2.2-.2.15-.2.2-.05.1-.05.05-.4.15-.35.2-.4.2-.25.2-.3.15-.3.2-.4.2-.35.2-.4.15-.35.2-.3.2-.2.2-.2.15-.2.2-.15.2-.35.1-.1.1-.15.1-.15.2-.2.2-.2.15-.1.2-.1.2-.25.1-.15.15-.45.2-.2.15-.2.2-.1.2-.05.2v.05l-.15.1-.2.2-.1.2-.05.2v.35l.1.2.2.2.45.1.3-.05.1-.05.15-.15.2-.2.15-.15.2-.2.3-.2.15-.05.1-.05.1-.1.05-.05.25-.05.1-.05.25-.15.4-.2.35-.15.4-.2.25-.2.2-.2.15-.15.4-.2.35-.2.35-.2.3-.15.25-.2.35-.2.35-.2.3-.15.25-.2.25-.15.05-.05.2-.1.25-.15.2-.1.5-.2q.1-.05.25-.15l.3-.15h.05l.05-.05.15-.1.1-.1.1-.05.25-.2.1-.05.1-.05.3-.15.5-.2.3-.2.2-.2.1-.05.4-.2.15-.05.1-.05.35-.2.2-.05.35-.15.45-.15.4-.15.35-.1.25-.2.25-.2.25-.2.3-.15.4-.2.25-.2.1-.1.25-.1.6-.15.5-.2.3-.2.2-.2.25-.15.5-.2.4-.2.4-.2.35-.15.6-.15.35-.1.15-.05v1.35l-.1.2-.05.15-.1.2v.55l-.15.2-.05.2-.1.2h-.1l-.2.15-.25.1-.15.1-.1.1-.2.15-.25.1-.2.15-.25.1-.2.15-.2.15-.15.15-.15.2-.2.2-.3.05-.1.1-.1.1-.2.2-.2.2-.15.1-.15.2-.2.2-.2.2-.1.1-.2.2-.2.2-.3.1-.1.1-.1.05-.15.2-.05.2-.1.15-.15.15-.15.2-.05.2-.1.15-.2.15-.15.2v.2l-.1.1v.05l-.2.15-.15.2-.05.2-.1.1-.15.2-.2.2-.2.2-.05.1-.05.2-.15.2-.2.2-.05.1v.2l-.05.2-.15.15-.1.15-.15.2v.35l-.1.15-.15.2v.35l-.1.2-.15.15v.35l-.05.2-.15.15v.35l-.1.2-.15.15v.35l-.1.2-.15.15v.35l-.05.2-.15.15v1.95l-.05.1-.15.2-.05.2v1l-.05.2-.15.2v5.2l.1.2.1.15v2.5h-.05l-.15.1-.2.2-.15.2-.2.15-.15.15-.2.2-.1.2-.25.1-.1.2-.15.2-.2.2-.2.1-.15.2-.4.2-.2.2-.15.1-.2.2-.15.2-.15.2-.2.1-.1.2-.1.2-.1.15-.15.15v.2l-.1.2-.2.15-.2.15-.1.2-.05.2-.1.15-.15.15-.05.2-.1.2-.2.15-.1.15-.05.2-.1.2-.1.15-.05.15-.1.2-.1.15-.1.2-.15.15-.1.2-.1.15-.1.2-.15.15-.05.2-.05.15-.2.2-.15.15-.05.2-.1.15-.1.2-.05.15-.05.15-.1.2v.2l-.05.15-.1.15-.1.2v.2l-.05.15-.1.15-.1.2-.05.2-.15.15-.05.15-.1.2-.1.2-.05.15-.1.15-.05.2-.1.2-.15.1v.4l-.1.2-.15.1v.2l-.05.2-.05.1-.15-.2-.05-.2-.2-.15-.1-.2-.15-.2-.05-.2-.1-.15-.1-.2-.1-.2-.2-.2-.2-.15-.15-.2-.2-.2-.2-.2-.2-.15-.15-.2-.2-.2-.05-.2-.15-.15-.1-.2-.35-.2-.3-.2-.2-.15-.15-.2-.2-.2-.2-.2-.2-.15-.15-.2-.35-.2-.3-.2-.2-.15-.1-.05-.05-.15-.1-.2-.1-.2-.25-.15-.3-.15-.1-.05-.15-.2-.2-.2-.2-.1-.1-.2-.2-.2-.2-.15-.25-.2-.3-.2-.15-.2-.05-.15-.2-.2-.2-.2-.15-.2-.2-.15-.2-.2-.2-.2-.15-.2-.2-.15-.25-.2-.4-.2-.15-.2-.2-.15-.25-.2-.2-.05-.1-.1-.2-.15-.25-.2-.4-.15v.1l-.4.05-.2.2-.15.15v.4l.1.2.1.15.2.2.2.2.15.2.15.15.1.2.1.2.15.2.15.15.1.2.1.2.15.2.2.15.2.2.2.2.15.2.15.15.1.2.1.2.15.2.2.15.2.2.2.2.1.2.05.15.15.2.2.2.15.05.1.2.15.2.2.15.2.2.15.2.05.2.2.15.15.2.2.2.05.2.15.15.05.2.15.2.05.2.2.15v.1l.05.1-.05.05v.4l.05.2.2.15.15.2.1.2.05.2.1.15.1.2v.2l.05.2.1.15.1.2.1.2.15.15v.05l.05.15.1.2.1.2v.2l.05.15.05.2.15.2.05.2.1.15.1.2v.2l.05.2.1.15.1.2.1.2.05.2.15.15.1.2.1.2v.2l.05.15.1.2.1.2.05.2.1.15.1.2v.2l.05.2.1.15.1.2.1.2.05.2.1.15v.6l.05.15.05.2.15.2v.75l.05.2.1.15.1.2v.4l.05.15.1.2.2.2.2.2.45.1v1.4l.05.15.1.2.1.2v1.3l.1.2.2.2.45.1.3-.05.1-.05.15-.15.05-.2.15-.15v-1.7l-.1-.2-.1-.2-.05-.15v-1.5l-.15-.2-.05-.2-.05-.2v-.8l.05-.2.1-.1v-1.95l.1-.2v-.15l.1-.2.05-.15V17.9l.1-.2.05-.15.1-.15v-.25l.15-.05.2-.15.1-.15.05-.2.1-.2v-.55l-.1-.2-.05-.1v-.1l.15-.15.05-.2v-.7l.1-.15.05-.2.1-.15v-.15l.1-.2.1-.2.05-.15v-.15l.15-.2.15-.2.05-.15.1-.15v-.2l.1-.2.15-.15.1-.15.05-.2.05-.2v-.15l.15-.15.05-.2.05-.2v-.1l.15-.2.05-.2.05-.2v-.1l.1-.2.05-.2.15-.2.15-.1.15-.2.05-.2.1-.2.05-.1.1-.2.1-.2.1-.15.05-.15.2-.2.1-.2.1-.15.05-.15.15-.2.05-.2.15-.15.1-.15.15-.2.05-.2.15-.15.05-.15.1-.2.1-.2.05-.15.05-.15.2-.2.2-.15.2-.2v-.15l.1-.2.1-.15.1-.2.3-.15.15-.2.2-.15.2-.2.15-.15.3-.15.15-.05.15-.2.15-.2.25-.2.1-.1.2-.2.15-.2.15-.2.2-.1.2-.2V.9l.05.05.45.1.25-.05.2-.1.15-.2.05-.15.05-.2v-.6l.25-.15.2-.1.35-.2.15-.15.15-.2.05-.15v-.35l-.05-.2-.15-.15-.15-.15-.1-.05v-.85l-.05-.2-.15-.15-.05-.15v-1.4l.05-.2.15-.2.05-.1v-3l.05-.2.1-.15.05-.15v-.2l.05-.2.15-.15.05-.15v-.2l.05-.2.15-.15.05-.15v-1.4l.1-.2.05-.15.05-.2v-.15l.15-.2.05-.15.05-.2v-.15l.15-.2.05-.15.05-.2.1-.15.1-.15.05-.2.15-.2.05-.15v-.15l.05-.2.15-.2v-.3l.05-.2.15-.2.05-.15V-16l.05-.2.15-.2.05-.15.15-.15.1-.2.15-.2.05-.15.2-.15.2-.2.1-.2.2-.15.15-.15.05-.2.1-.2.05-.15.1-.15.15-.15h.1l.3-.05.15-.15.3-.05.2-.15.15-.15.2-.2.15-.15.15-.2.3-.1.15-.05.1-.15.15-.15.2-.15.2-.2.15-.2.15-.15.2-.15.2-.2.15-.2.15-.15.3-.1.2-.15.25-.1.2-.15.35-.1.35-.15.25-.05.15-.05.1-.15.1-.2.1-.1v-.15l.25-.05.15-.05.1-.15.1-.2.1-.1v-.2l-.05-.2-.15-.15v-.05l.1-.2.1-.15v-.05l.05-.1.1-.15.05-.15v-.2l-.05-.2-.1-.15-.05-.05.05-.2.1-.15.05-.15v-.55l.15-.15.05-.2.05-.2v-.85l.05-.15.1-.2.05-.2.05-.15v-2.05l-.1-.2-.1-.2-.05-.2v-3.1l-.05-.2-.15-.15-.1-.15-.4-.15h-.25v.05h-.25l.2-.2.2-.2.05-.2.15-.15v-.2l-.1-.2-.1-.2-.2-.15-.35-.15h-.25v.05l-.45.1-.2.15-.1.2-.25.2-.2.2-.2.15-.1.2-.1.2-.25.1-.15.15-.2.2-.2.15-.2.2-.15.2-.2.2-.2.15-.2.2-.15.2-.2.2-.2.15-.2.2-.15.2-.2.2-.2.15-.2.2-.15.2-.2.2-.2.15-.1.2-.1.2-.25.1-.15.15-.1.1h-.25l-.1.1-.15.1-.15.2-.35.1-.25.15-.35.2-.2.15-.2.2-.15.2-.25.2-.35.15-.3.2-.3.2-.25.2-.4.15-.25.2-.15.2m32.05 80.2h-.6l.2-.05h.35l.05.05m17.45 1.65.35-.15.2-.2.15-.15.05-.2v-.95l-.15-.2-.05-.15-.2-.2-.1-.2-.05-.2-.15-.2-.2-.15-.35-.2-.05-.2-.15-.2-.15-.1V48l-.2-.7-.25-.65-.45-.7-.5-.5v-.6l-.05-.2-.1-.2-.1-.15v-5.45l-.05-.2-.15-.2-.2-.15-.35-.15h-.25v.05h-.3l-.15.1-.1.1-.15.2-.05.2v.55h-.05v.05h-.35l-.1.05-.1.1-.1.2-.05.2v.3l-.1.2-.1.2-.05.1V41l-1.15-.4v.2l-1.65.25-.7.7-.45.7v1.4l-.9.45-1.2.25-.7.45-1.15.45-.7.5-1.15.45-.7.45-.7.7-.7.7-.45.7v1.2h-.2l-.45.15-1.05.1-.45.15-1.3.1-.35.05-.15.15-.2.2-.15.2-.1.15-.05.2v.4l.1.1-.1.15v.35l.05.2.1.2.2.15.2.2.45.15h5.8l.45.1h2.75l1.4-.45 1.4-.5.8-.1 3.2.05.45.15 1.8.1.45.15.35-.15.2-.2.15-.15.05.05.2.2.15.15.2.2.45.15.15-.05.15.15.45.15" fill="#669" fill-rule="evenodd" transform="translate(71.5 65)"/><path d="m18.05-28.4.15.15.2.2.35.2.3.2.25.15.2.15.2.05.35.15.2.1.3.15.25.15.2.2.05.2.15.2v.15l.25.15.1.2.1.15.05.2-.05.2-.1.2-.1.15-.2.15-.3.05-.45-.1-.35-.2-.4-.2-.35-.2-.4-.15-.2-.2-.3-.2-.3-.2-.2-.15-.15-.15h-.15l-.45-.1-.2-.2-.15-.15-.4-.15-.2-.2-.05-.05-.2-.2-.3-.2-.25-.1-.25-.1-.5-.15-.2-.2-.15-.2-.4-.2-.55-.15-.6-.2-.25-.2-.15-.2-.35-.15-.5-.2-.3-.15-.3-.1-.45-.1-.3-.2-.4-.2-.3-.1-.4-.2-.25-.15-.35-.05-.1.1-.1.2-.1.2-.05.2v.55l-.15.2-.05.15-.05.2v.55l-.1.2-.05.2-.1.2v.3l.05.05.3.15.4.1.35.15.4.1.35.15.4.1.35.15.2.1.3.15.2.1.3.15.2.1.3.15.25.15.2.2.2.2.35.2.2.1.3.15.25.15.15.15.05.05.3.15.25.15.2.2.2.2.2.2.15.15.2.2.2.2.2.2.15.15.2.2.2.2.2.2.15.15.2.2.05.2.15.2.1.15.2.2.05.2.15.2.1.15.2.2.05.2.15.2.05.15.15.2.05.2v.2l.05.15.15.2.05.2v.1l.15.2.05.2.15.15.1.15.1.2.1.2v.15l.05.15.1.2.1.2.05.15.15.15v.5l.05.2.15.2.05.2.15.15.05.1.1.15.1.15.05.2v.45l.15.2.05.15.05.15v.2l.05.05.1.15.1.2v.2l.05.15.05.15.1.2v1l.05.2.1.2.05.2.05.1v.85l.15.2.05.15.05.15v.55l.05.15.05.2.05.2.05.15v3.45l-.05.2-.05.2-.05.1.3.1.25.2.15.15.2.2.35.15.2.2.15.15.2.15.2.2.3.2.25.15.1.15.1.2.15.2.1.15.2.15.15.2.2.2.2.15.15.15.15.2.2.2.1.15.15.15.15.2.1.2.2.1.2.2.1.2.1.2.1.1.15.2.1.2.15.2.1.1.1.2.1.2.15.2.1.1.15.2.05.2.15.15.05.15.1.2.15.2.1.15.1.15.1.2.1.2.1.15.05.15.15.2.05.2.15.15v.15l.1.2.1.2.1.15.05.15.15.2.1.15.1.2.1.15.1.2.1.15.05.2.15.15.05.2.1.15.1.2.05.15.15.2.1.15.15.2.05.15.1.15.05-.15.2-.15.15-.2.05-.2.1-.2.15-.1v-.05l.05-.2.15-.2.05-.2.1-.15.2-.2.2-.2.1-.2.15-.15.05-.2.2-.2.2-.2.15-.15.2-.2.2-.2.2-.2.15-.15.2-.2.2-.2.2-.2.15-.15.2-.2.2-.2.2-.2.15-.15.35-.2.25-.2.25-.2.15-.15.2-.2.2-.2.2-.2.15-.15.2-.2.25-.2.3-.2.25-.15.35-.2.25-.2.1-.2.15-.15.1-.2.2-.2.25-.2.25-.2.3-.15.2-.2.2-.2.15-.2.2-.15.2-.2.3-.2.2-.2v-.15l.05-.2.15-.2.1-.1.15-.1.3-.1.2-.2.15-.2.2-.15.2-.2.3-.2.3-.2.2-.15.2-.2.2-.15h.3v-.05l.35.15.2.15.15.2.05.2v.2l-.15.15-.05.2-.2.2-.15.2-.2.15-.3.2-.35.2-.15.2-.2.15-.05.05.05.1v.2l-.15.15-.05.2-.2.2-.15.2-.2.15-.2.2-.25.2-.35.2-.2.2-.05.05-.15.15-.05.15-.15.2-.1.2-.3.15-.2.2-.15.2-.1.2-.2.15-.2.2-.1.2v.25l-.15.2-.05.15-.2.2-.15.2-.2.2-.2.15-.1.1-.1.1-.05.1-.05.15-.15.2-.1.2-.05.15-.15.2-.1.2-.2.2-.05.15-.1.2-.1.2-.15.2-.05.15-.2.2-.1.2-.15.2-.05.15-.2.2-.1.2-.05.2-.15.15-.05.2-.15.2-.05.2-.1.15-.15.2-.1.2-.2.2-.15.15-.05.2-.2.2-.15.2-.15.15-.05.2-.05.2-.1.2-.1.15-.2.2-.05.2-.15.2-.1.15-.05.2-.15.2-.1.2-.2.15-.2.15-.3.05-.2-.05-.05.1v.05l-.05.1v.05l.05.2v.35l-.05.2-.15.2-.05.2-.15.15-.05.2-.05.2v.2l-.15.15-.05.2-.1.2-.1.2-.1.15v.2l-.05.2-.1.2-.1.15-.2.2-.1.15-.15.05h-.05v.6l-.05.2-.15.2-.2.2-.35.1-.45-.1-.2-.2-.15-.2-.15-.2-.05-.15v-.6l.05-.15.15-.2V16l-.2-.2-.1-.15v-.9l.05-.15-.05-.2-.05-.15-.1-.2-.15-.15-.1-.15-.05-.2-.15-.2-.05-.15v-.15l-.15-.2-.1-.2v-.15l-.1-.15-.05-.2-.1-.2-.1-.15-.1-.15v-.55l-.1-.15-.05-.2-.1-.2-.1-.1-.1-.2-.05-.2v-.2l-.1-.1-.05-.2-.05-.2-.15-.2-.05-.1-.15-.2-.05-.2-.1-.2-.1-.1-.05-.2-.05-.2-.15-.15-.05-.15-.15-.2-.05-.2-.1-.15-.05-.15-.35-.2-.2-.2-.15-.15-.1-.15-.05-.2-.15-.2-.2-.15-.1-.15v-.2l-.15-.2-.2-.15-.15-.15-.2-.2-.1-.15-.1-.2-.15-.15-.2-.2-.05-.15-.05-.2-.15-.15-.2-.2-.15-.15-.15-.2-.05-.15-.35-.2-.15-.15-.15-.2-.2-.15-.2-.15-.15-.2-.15-.2-.2-.15-.2-.15-.15-.2-.3-.2-.3-.15L20.8.5l-.15-.2-.2-.2-.2-.15-.15-.15-.15-.2-.2-.2-.2-.15-.4-.15-.15-.2-.1-.1-.25-.1-.4-.1-.1-.1-.4-.1-.15-.2-.1-.2v-1.95l.05-.15.1-.2.1-.05v-.05l.15-.2.05-.15v-.35l-.05-.15-.15-.1-.05-.2v-.7l-.1-.2-.1-.2v-1.5l-.05-.2-.05-.2-.15-.15v-.7l-.05-.15-.15-.2-.05-.2v-.65l-.05-.2-.1-.15-.05-.2v-1.05l-.05-.15-.15-.2-.05-.15v-.2l-.05-.15-.15-.2-.05-.15-.05-.2-.1-.15-.1-.15-.05-.2-.15-.2v-.15l-.05-.15-.05-.2-.15-.2-.15-.15-.1-.15-.05-.2-.15-.2-.05-.15-.15-.15-.1-.2-.15-.2-.05-.15-.15-.15-.15-.2-.1-.2-.05-.1-.15-.2-.15-.2-.15-.2-.05-.1-.1-.2-.15-.2-.15-.2-.25-.1-.4-.2-.15-.2-.2-.2-.15-.1-.2-.2-.15-.2-.15-.15-.2-.15-.2-.2-.15-.2-.15-.15-.2-.15-.2-.2-.15-.2-.15-.15-.2-.15-.2-.2-.15-.2-.1-.05-.05-.1-.4-.1-.15-.2-.1-.1-.05-.1-.4-.05-.1-.2-.15-.1-.05-.1-.25-.05-.1.05-.35.1-.45-.1-.15-.15-.35-.1-.15-.15-.35-.1-.15-.15-.35-.1-.15-.15-.35-.1-.15-.15-.35-.1-.2-.2-.25-.05-.3-.1-.4-.1-.25.05-.25.05H2.4l-.45-.1-.15-.2-.1-.2v-.3l.05-.2.05-.05-.1-.15v-.7l.1-.1.15-.2.2-.2.2-.1.25-.1.2-.2.2-.15.1-.2.15-.15.05-.2.15-.15.15-.2.15-.15.15-.2.1-.15.05-.2.2-.15.15-.2.05-.15.05-.15.15-.2.05-.2v-1l.05-.2.05-.2.05-.15.1-.2.05-.2.05-.2.05-.15.05-.1v-.4l.05-.05v-.6l.1-.2.05-.15.1-.2v-.4l.05-.15.1-.2.1-.2.1-.2.2-.15.45-.1v-.05h.05v-.05l.1-.2.15-.1.1-.1h.35v-.05l.35.15q.15.05.25.15l.2.2.2.2.35.2.25.15.2.2.2.2.15.2.2.15.3.2.35.2.15.2.2.15.25.2.25.2.3.2.4.15.35.2.35.2.15.2.2.15.3.2.4.2.3.2.25.15.35.2.3.2.1.2.1.15.05.15.1.05.45.2.3.2q.15.05.25.15l.2.2.25.2.4.2.35.15.4.2.3.2.1.2M-7 54.5h-.15l-.35-.15-2.05-.1-.45-.15-1.2-.05h-.05l-1.4.5h-5.55l-.25-.05h-2.35l-.45-.15-1.3-.1-.2-.05-1.05.35h-1.85l-1.35-.4-.3.1-.65.1-.35.15h-.25l-.45-.15-.2-.2-.1-.15v-.75l.1-.2.2-.2h.05l-.1-.1v-.4l.05-.2.1-.15.1-.2v-.55l.05-.2.1-.2.1-.2v-1.5l.05-.1.05-.1.05-.1.1-.2V44.7l-.35-.4-.5-.7-.15-.5-.05-.2v-1.4l.05-.05.4-.65.55-.5-.05-.1-.1-.15-.05-.2V38.4l-.1-.2-.1-.15-.05-.2v-.95l-.1-.2-.1-.15-.05-.2V33.7l.05-.15.2-.2.15-.15h.35v-.05l.35.15.2.15.1.2.1.2v2.05l.05.2.05.2.05.15.1.2v.15h.2v-.05l.4.15.2.15.05.2.05.15.15.2.05.15.05.2v.2l.1.05.1.2.05.2.1.15.1.15.1.2.15.2.15.15.1.15.05.2.05.05.85.25.95.7.7.7.2.7.5.7v.7l.2.7.7.7 1.4.7 1.4.45 1.4.5.7.45 1.15.45 2.3.45 1.4.5.7.7.5.7.2.7v1.25l2.05.15.35.1.2.2.1.2.1.15v.25l.3.15.25.2.05.15.15.2v.2l-.1.2-.1.15-.2.2-.3.15m-11.55-82.85.15-.2.25-.2.4-.15.25-.2.3-.2.3-.2.35-.15.25-.2.15-.2.2-.2.2-.15.35-.2.25-.15.35-.1.15-.2.15-.1.1-.1h.25l.1-.1.15-.15.25-.1.1-.2.1-.2.2-.15.2-.2.15-.2.2-.2.2-.15.2-.2.15-.2.2-.2.2-.15.2-.2.15-.2.2-.2.2-.15.2-.2.15-.2.2-.2.2-.15.2-.2.15-.15.25-.1.1-.2.1-.2.2-.15.2-.2.25-.2.1-.2.2-.15.45-.1v-.05h.25l.35.15.2.15.1.2.1.2v.2l-.15.15-.05.2-.2.2-.2.2h.25v-.05h.25l.4.15.1.15.15.15.05.2v3.1l.05.2.1.2.1.2v2.05l-.05.15-.05.2-.1.2-.05.15v.85l-.05.2-.05.2-.15.15v.55l-.05.15-.1.15-.05.2.05.05.1.15.05.2v.2l-.05.15-.1.15-.05.1v.05l-.1.15-.1.2v.05l.15.15.05.2v.2l-.1.1-.1.2-.1.15-.15.05-.25.05v.15l-.1.1-.1.2-.1.15-.15.05-.25.05-.35.15-.35.1-.2.15-.25.1-.2.15-.3.1-.15.15-.15.2-.2.2-.2.15-.15.15-.15.2-.2.2-.2.15-.15.15-.1.15-.15.05-.3.1-.15.2-.15.15-.2.2-.15.15-.2.15-.3.05-.15.15-.3.05h-.1l-.15.15-.1.15-.05.15-.1.2-.05.2-.15.15-.2.15-.1.2-.2.2-.2.15-.05.15-.15.2-.1.2-.15.15-.05.15-.15.2-.05.2v.15l-.05.15-.15.2-.05.2v.3l-.15.2-.05.2v.15l-.05.15-.15.2-.05.2-.1.15-.1.15-.05.2-.05.15-.15.2v.15l-.05.2-.05.15-.15.2v.15l-.05.2-.05.15-.1.2v1.4l-.05.15-.15.15-.05.2v.2l-.05.15-.15.15-.05.2v.2l-.05.15-.1.15-.05.2v3l-.05.1-.15.2-.05.2v1.4l.05.15.15.15.05.2v.85l.1.05.15.15.15.15.05.2v.35l-.05.15-.15.2-.15.15-.35.2-.2.1-.25.15v.6l-.05.2-.05.15-.15.2-.2.1-.25.05-.45-.1-.05-.05v.05l-.2.2-.2.1-.15.2-.15.2-.2.2-.1.1-.25.2-.15.2-.15.2-.15.05-.3.15-.15.15-.2.2-.2.15-.15.2-.3.15-.1.2-.1.15-.1.2v.15l-.2.2-.2.15-.2.2-.05.15-.05.15-.1.2-.1.2-.05.15-.15.15-.05.2-.15.2-.1.15-.15.15-.05.2-.15.2-.05.15-.1.15-.1.2-.2.2-.05.15-.1.15-.1.2-.1.2-.05.1-.1.2-.05.2-.15.2-.15.1-.15.2-.05.2-.1.2v.1l-.05.2-.05.2-.15.2v.1l-.05.2-.05.2-.15.15v.15l-.05.2-.05.2-.1.15-.15.15-.1.2v.2l-.1.15-.05.15-.15.2-.15.2v.15l-.05.15-.1.2-.1.2v.15l-.1.15-.05.2-.1.15v.7l-.05.2-.15.15v.1l.05.1.1.2v.55l-.1.2-.05.2-.1.15-.2.15-.15.05v.25l-.1.15-.05.15-.1.2v1.05l-.05.15-.1.2v.15l-.1.2v1.95l-.1.1-.05.2v.8l.05.2.05.2.15.2v1.5l.05.15.1.2.1.2v1.7l-.15.15-.05.2-.15.15-.1.05-.3.05-.45-.1-.2-.2-.1-.2v-1.3l-.1-.2-.1-.2-.05-.15v-1.4l-.45-.1-.2-.2-.2-.2-.1-.2-.05-.15v-.4l-.1-.2-.1-.15-.05-.2v-.75l-.15-.2-.05-.2-.05-.15v-.6l-.1-.15-.05-.2-.1-.2-.1-.2-.1-.15-.05-.2v-.2l-.1-.2-.1-.15-.05-.2-.1-.2-.1-.2-.05-.15v-.2l-.1-.2-.1-.2-.15-.15-.05-.2-.1-.2-.1-.2-.1-.15-.05-.2v-.2l-.1-.2-.1-.15-.05-.2-.15-.2-.05-.2-.05-.15v-.2l-.1-.2-.1-.2-.05-.15V14l-.15-.15-.1-.2-.1-.2-.1-.15-.05-.2v-.2l-.1-.2-.1-.15-.05-.2-.1-.2-.15-.2-.2-.15-.05-.2v-.4l.05-.05-.05-.1v-.1l-.2-.15-.05-.2-.15-.2-.05-.2-.15-.15-.05-.2-.2-.2-.15-.2-.2-.15-.05-.2-.15-.2-.2-.2-.2-.15-.15-.2-.1-.2-.15-.05-.2-.2-.15-.2-.05-.15-.1-.2-.2-.2-.2-.2-.2-.15-.15-.2-.1-.2-.1-.2-.15-.15-.15-.2-.2-.2-.2-.2-.2-.15-.15-.2-.1-.2-.1-.2-.15-.15-.15-.2-.1-.2-.1-.2-.15-.15-.15-.2-.2-.2-.2-.2-.1-.15-.1-.2v-.4l.15-.15.2-.2.4-.05v-.1l.4.15.25.2.2.15.1.1.2.05.25.2.2.15.15.2.4.2.25.2.2.15.15.2.2.2.2.2.2.15.15.2.2.2.2.2.05.15.15.2.3.2.25.2.2.15.2.2.1.2.2.1.2.2.15.2.1.05.3.15.25.15.1.2.1.2.05.15.1.05.2.15.3.2.35.2.15.2.2.15.2.2.2.2.15.2.2.15.3.2.35.2.1.2.15.15.05.2.2.2.15.2.2.15.2.2.2.2.15.2.2.15.2.2.1.2.1.2.1.15.05.2.15.2.1.2.2.15.05.2.15.2.05-.1.05-.2v-.2l.15-.1.1-.2v-.4l.15-.1.1-.2.05-.2.1-.15.05-.15.1-.2.1-.2.05-.15.15-.15.05-.2.1-.2.1-.15.05-.15V10l.1-.2.1-.15.05-.15v-.2l.1-.2.05-.15.05-.15.1-.2.1-.15.05-.2.15-.15.2-.2.05-.15.05-.2.15-.15.1-.2.1-.15.1-.2.15-.15.1-.2.1-.15.1-.2.05-.15.1-.15.1-.2.05-.2.1-.15.2-.15.1-.2.05-.2.15-.15.1-.15.05-.2.1-.2.2-.15.2-.15.1-.2v-.2l.15-.15.1-.15.1-.2.1-.2.2-.1.15-.2.15-.2.2-.2.15-.1.2-.2.4-.2.15-.2.2-.1.2-.2.15-.2.1-.2.25-.1.1-.2.2-.2.15-.15.2-.15.15-.2.2-.2.15-.1h.05v-2.5l-.1-.15-.1-.2v-5.2l.15-.2.05-.2v-1l.05-.2.15-.2.05-.1v-1.95l.15-.15.05-.2v-.35l.15-.15.1-.2v-.35l.15-.15.1-.2v-.35l.15-.15.05-.2v-.35l.15-.15.1-.2v-.35l.15-.2.1-.15v-.35l.15-.2.1-.15.15-.15.05-.2v-.2l.05-.1.2-.2.15-.2.05-.2.05-.1.2-.2.2-.2.15-.2.1-.1.05-.2.15-.2.2-.15v-.05l.1-.1v-.2l.15-.2.2-.15.1-.15.05-.2.15-.2.15-.15.1-.15.05-.2.15-.2.1-.05.1-.1.3-.1.2-.2.2-.2.1-.1.2-.2.2-.2.15-.2.15-.1.2-.2.2-.2.1-.1.1-.1.3-.05.2-.2.15-.2.15-.15.2-.15.2-.15.25-.1.2-.15.25-.1.2-.15.1-.1.15-.1.25-.1.2-.15h.1l.1-.2.05-.2.15-.2v-.55l.1-.2.05-.15.1-.2v-1.35l-.15.05-.35.1-.6.15-.35.15-.4.2-.4.2-.5.2-.25.15-.2.2-.3.2-.5.2-.6.15-.25.1-.1.1-.25.2-.4.2-.3.15-.25.2-.25.2-.25.2-.35.1-.4.15-.45.15-.35.15-.2.05-.35.2-.1.05-.15.05-.4.2-.1.05-.2.2-.3.2-.5.2-.3.15-.1.05-.1.05-.25.2-.1.05-.1.1-.15.1-.05.05h-.05l-.3.15q-.15.1-.25.15l-.5.2-.2.1-.25.15-.2.1-.05.05-.25.15-.25.2-.3.15-.35.2-.35.2-.25.2-.3.15-.35.2-.35.2-.4.2-.15.15-.2.2-.25.2-.4.2-.35.15-.4.2-.25.15-.1.05-.25.05-.05.05-.1.1-.1.05-.15.05-.3.2-.2.2-.15.15-.2.2-.15.15-.1.05-.3.05-.45-.1-.2-.2-.1-.2v-.35l.05-.2.1-.2.2-.2.15-.1v-.05l.05-.2.1-.2.2-.2.2-.15.45-.2.15-.15.25-.1.1-.2.1-.2.2-.15.2-.2.15-.2.15-.1.1-.1.35-.1.15-.2.2-.2.2-.15.2-.2.3-.2.35-.2.4-.15.35-.2.4-.2.3-.2.3-.15.25-.2.4-.2.35-.2.4-.15.05-.05.05-.1.2-.2.2-.15.2-.2.1-.1.05-.1.2-.2.2-.15.4-.15.1-.1.05-.05.05-.05.1-.1.15-.2.25-.2.4-.15.2-.2.15-.2.15-.1.05-.1.2-.15.35-.2.35-.2.25-.2.3-.15.2-.2m31.2 5.7-.05-.1-.05-.15-.2-.05.2.2.1.1m18.3 76.15-.45-.15-.15-.15-.15.05-.45-.15-.2-.2-.15-.15-.2-.2-.05-.05-.15.15-.2.2-.35.15-.45-.15-1.8-.1-.45-.15-3.2-.05-.8.1-1.4.5-1.4.45H16.2l-.45-.1h-5.8l-.45-.15-.2-.2-.2-.15-.1-.2-.05-.2v-.35l.1-.15-.1-.1v-.4l.05-.2.1-.15.15-.2.2-.2.15-.15.35-.05 1.3-.1.45-.15 1.05-.1.45-.15h.2v-1.2l.45-.7.7-.7.7-.7.7-.45 1.15-.45.7-.5 1.15-.45.7-.45 1.2-.25.9-.45v-1.4l.45-.7.7-.7 1.65-.25v-.2l1.15.4v-.25l.05-.1.1-.2.1-.2v-.3l.05-.2.1-.2.1-.1.1-.05h.35v-.05h.05v-.55l.05-.2.15-.2.1-.1.15-.1h.3v-.05h.25l.35.15.2.15.15.2.05.2v5.45l.1.15.1.2.05.2v.6l.5.5.45.7.25.65.2.7v1.85l.15.1.15.2.05.2.35.2.2.15.15.2.05.2.1.2.2.2.05.15.15.2v.95l-.05.2-.15.15-.2.2-.35.15M13.5 51.85l-.05-.05h-.35l-.2.05h.6" fill="#52537a" fill-rule="evenodd" transform="translate(71.5 65)"/><path d="m72.75 24.05 49.4 34q-30.85 30.2-17.9 60.4l-1.8.05-37.95 1m-.15 0-23.1.55q.95-6.2.95-11.95m0-1.65q-.5-27.65-21.95-45.8l48.45-37.1" fill="none" stroke="#473267" stroke-linecap="round" stroke-linejoin="round" stroke-width="2.25"/><path d="M140.45 52.25q-26.95 35.3-26.6 75.25-39.8-3.25-82.4-.35Q32.5 97.35 2.5 53.2L71.15 2.5l69.4 49.6-.1.15z" fill="none" stroke="#473267" stroke-linecap="round" stroke-linejoin="round" stroke-width="5"/><path d="m67-9.2-.2.7-.5.7-.45.7-.45.7-.95.7-2.3.7-.95.45-1.15.25h-.95l-1.6-.45-1.4-.7-1.15-.7-.7-.7-.45-.7-.5-.7-.45-.7-.45-.7v-3.5l.2-.7.25-.7.45-.7.7-.65.95-.5.1-.05L1-58.45 64.45-13.6v.45L67-9.2m.5-2.25v.15l-.1.4-.5-.7v-.3l.6.45" fill="#a3a4fe" fill-rule="evenodd" transform="translate(71.5 65)"/></g><g id="b"><path d="M5.5 19.9q.05-.9.7-1.55.7-.7 1.7-.7.95 0 1.65.7t.7 1.7q0 .95-.7 1.65-.7.75-1.65.75-1 0-1.7-.75-.6-.6-.7-1.65v-.15" fill="#ffc" fill-rule="evenodd" transform="translate(.9 .9)"/><path d="m31.85 53.35-1.55 1.5q-3.75 3.35-9 4.25-7.45 1.35-13.55-3-5.5-3.85-7.1-10.15L.3 44.3l.35.7q2.8 5.7 8.1 7 5.6 1.45 11.2-.8 5.7-2.35 7.65-8.15 1.75-5.25-.9-10.15-2.65-5-5.2-6.45-2.5-1.5-4.65-1.45 3.85-3.55 2-8-1.95-4.4-7.05-4.1l1.4-.35q4.3-.75 7.9 1.75l1.8 1.6.2.2.6.5q-.5-.15.5 2.4.9 2.55-.95 5.45 5.2 2.95 8.7 7.6 3.45 4.65 3.15 10.5-.35 5.9-3.25 10.8M.05 41.95q-.2-3 .6-5.75.8-2.85 2.65-5.5l2.35-2.75q-.8-1.4-1.1-3.15-.25-1.7 0-3.3 0 3 1.3 4.6 1.25 1.65 3.05 1.15L7.45 28v.05Q5.75 29 4.8 30.4l-1.3 1.95-.45.9q-1.5 2.4-2.4 5.85l-.6 2.85" fill="#7e1a01" fill-rule="evenodd" transform="translate(.9 .9)"/><path d="M23.7 16.6q1.25 1.9 1.7 4.55.35 1.7.15 3.3 1.6.75 3.15 1.85 6.15 4.35 7.45 11.75 1.3 7.45-3.05 13.6l-1.25 1.7q2.9-4.9 3.25-10.8.3-5.85-3.15-10.5-3.5-4.65-8.7-7.6 1.85-2.9.95-5.45-1-2.55-.5-2.4M.3 44.3l-.25-2.35.6-2.85q.9-3.45 2.4-5.85v.2l.05.25q.15 1.4 1.5 1.9l2.85-.05Q8.7 34.95 9 33.5q.25-1.4 1.8-3.2 1.5-1.8.05-2.4l.05-.1-1.2-.15q-.8-.05-.8-.4-1.8.5-3.05-1.15-1.3-1.6-1.3-4.6.15-1.75 1-3.3l.25.1q-.3.7-.3 1.6v.15q-.7 2.5.3 4.25.95 1.8 3.25 1.1 2.25-.75 3.05-2.25.8-1.5.8-3.25t-1.05-3q-1.1-1.25-2.65-1.25-1.55 0-2.65 1.25l-.15-.15q2.1-2.85 5.4-3.85 5.1-.3 7.05 4.1 1.85 4.45-2 8 2.15-.05 4.65 1.45 2.55 1.45 5.2 6.45 2.65 4.9.9 10.15-1.95 5.8-7.65 8.15-5.6 2.25-11.2.8-5.3-1.3-8.1-7l-.35-.7" fill="#ca2902" fill-rule="evenodd" transform="translate(.9 .9)"/><path d="M5.8 18.3q.25-.8.75-1.4 1.1-1.25 2.65-1.25 1.55 0 2.65 1.25 1.05 1.25 1.05 3t-.8 3.25q-.8 1.5-3.05 2.25-2.3.7-3.25-1.1-1-1.75-.3-4.25.1 1.05.7 1.65.7.75 1.7.75.95 0 1.65-.75.7-.7.7-1.65 0-1-.7-1.7t-1.65-.7q-1 0-1.7.7-.65.65-.7 1.55 0-.9.3-1.6m3.1 8.95q0 .35.8.4l1.2.15-.05.1q1.45.6-.05 2.4-1.55 1.8-1.8 3.2-.3 1.45-1.55 2.05l-2.85.05q-1.35-.5-1.5-1.9l-.05-.25v-.2l.45-.9 1.3-1.95q.95-1.4 2.65-2.35V28l1.45-.75" fill="#fb4315" fill-rule="evenodd" transform="translate(.9 .9)"/><path d="M11.25 11.75v-.05l.3-.45.4-.7.5-1.05Q14.4 5.35 14.8.65l1.45.55Q16 5.95 14.5 9.5l-.5 1.05-.35.7-.05.1H13v.4h-1.75" fill="#1f162e" fill-rule="evenodd" transform="translate(.9 .9)"/><path d="m9.9 11.25.25.05.05-.05.2-.7.25-1.05q.8-4.05-.8-8.35 2.3-2 4.95-.5-.4 4.7-2.35 8.85l-.5 1.05-.4.7-.3.45v.05h-1.4l.05-.5" fill="#302549" fill-rule="evenodd" transform="translate(.9 .9)"/><path d="M9.85 1.15q1.6 4.3.8 8.35l-.25 1.05-.2.7-.05.05-.25-.05.1-.7.05-1.05q0-3.5-2-6.45.65-1.4 1.8-1.9" fill="#46376a" fill-rule="evenodd" transform="translate(.9 .9)"/><path d="m16.05 1.55 1.45.55" fill="none" stroke="#f90" stroke-linecap="round" stroke-linejoin="round" stroke-width="1.5"/><path d="m24.65 16.45.3.4q1.6 2.05 2.05 4.8.35 1.75.15 3.4 1.65.75 3.25 1.9Q36.7 31.4 38.05 39q1.35 7.65-3.15 14l-2.85 3.25q-3.85 3.45-9.25 4.4-7.65 1.35-13.95-3.1Q2.5 53.1 1.2 45.4q-1.35-7.65 3.1-13.95l2.4-2.8q-.8-1.45-1.1-3.25-.75-4.5 1.8-8.15 2.6-3.65 7.05-4.45 4.45-.75 8.15 1.8l1.85 1.65.2.2m-13.55-3.8.05-.5.1-.7.05-1.05q0-3.5-2-6.45.65-1.4 1.8-1.9 2.3-2 4.95-.5m1.45.55q-.25 4.75-1.75 8.3l-.5 1.05-.35.7" fill="none" stroke="#473267" stroke-linecap="round" stroke-linejoin="round" stroke-width="1.8"/></g></defs></svg>