<svg xmlns:ffdec="https://www.free-decompiler.com/flash" xmlns:xlink="http://www.w3.org/1999/xlink" ffdec:objectType="frame" height="42.95" width="28.45" xmlns="http://www.w3.org/2000/svg"><use ffdec:characterId="616" height="18.05" transform="translate(.008 7.467) scale(1.5802)" width="18" xlink:href="#a"/><defs><linearGradient gradientTransform="matrix(.0065 0 0 .0081 5.3 6.6)" gradientUnits="userSpaceOnUse" id="b" spreadMethod="pad" x1="-819.2" x2="819.2"><stop offset="0" stop-color="#900"/><stop offset="1" stop-color="red"/></linearGradient><linearGradient gradientTransform="matrix(.0065 0 0 .0081 5.3 6.6)" gradientUnits="userSpaceOnUse" id="c" spreadMethod="pad" x1="-819.2" x2="819.2"><stop offset="0" stop-color="#900"/><stop offset="1" stop-color="red"/></linearGradient><linearGradient gradientTransform="matrix(.0065 0 0 .0081 5.3 6.6)" gradientUnits="userSpaceOnUse" id="d" spreadMethod="pad" x1="-819.2" x2="819.2"><stop offset="0" stop-color="#900"/><stop offset="1" stop-color="red"/></linearGradient><linearGradient gradientTransform="matrix(0 .0081 -.0081 0 5.25 7.7)" gradientUnits="userSpaceOnUse" id="e" spreadMethod="pad" x1="-819.2" x2="819.2"><stop offset=".208" stop-color="#7e0101"/><stop offset="1" stop-color="red"/></linearGradient><g id="a"><path d="m2.15 10.7.1-.05q.7-.55 2.15-1.4l.2-.45.15-.95-.35-.65.35.1.8-.1.6-.55 2.8-3.8.05.05.2 1.1q-.2.85-2.65 3.05-.3.25-.4.65-.15.35-.05.75l.05.05H6l-.8.25-.8.5-1.05 2.4-.55.4h-.2l-.55.6-.55-.15.6-1.6.7-.3h-.2l-.35.05-.1.1v-.05M1.5 4.85l1.1.95-.65-.4.05.05-.55-.35.05-.25" fill="url(#b)" fill-rule="evenodd" transform="translate(3.95 2.9)"/><path d="M8.25-.9q.3-.4.75-.5l.9.05.7.6q.45.8.5 1.5l.6 1.1.05.1L12.1 4q.2 1.5-2.55 4.2 1.05 1.45 1.15 2.9l.85 1.45.15 1-.55.85q-.45.35-.95.3l-.95-.4-3.3-2.6-2.2 1.45-.45.25-.15.25-.6.65-.9.4-1-.25Q.2 14.1.1 13.6l-.1-.45-.05-.35.2-.75q.5-1.7 1.35-3.5l-.9-.6-.1-.05-.7-.45-.75-.4L-1.4 6l-.05-.9q0-1.15.55-1.9l.05-.05L.8 1.7l1-.2q.55.05.95.5L4.7 3.75Q6.3 1.4 8.25-.9m-4.9 12.55 1.05-2.4.8-.5.8-.25h.15l-.05-.05q-.1-.4.05-.75.1-.4.4-.65Q9 4.85 9.2 4L9 2.9l-.05-.05-2.8 3.8-.6.55-.8.1-.35-.1.35.65-.15.95-.2.45q-1.45.85-2.15 1.4l-.1.05q-.3.05-.55.35l-.7.75-.4.45 1 .25.55.15.75.25q-.75 1.25-.3.85l.15-.25H2.6h.1l.15-.4.5-1.45m-1.2-.9.1-.1.35-.05h.2l-.7.3-.25.05.3-.2m-.65-5.9-.05.25.55.35-.05-.05.65.4-1.1-.95m1.4 8.05h-.1l.05-.1-.05-.35.1.45" fill="#4b0101" fill-rule="evenodd" transform="translate(3.95 2.9)"/><path d="M12.2 2q-1.95 2.3-3.55 4.65L6.7 4.9q-.4-.45-.95-.5l-1 .2L3.1 6.05l-.05.05Q2.5 6.85 2.5 8l.05.9L3 9.95l.75.4.7.45.1.05.9.6q-.85 1.8-1.35 3.5l-.2.75.05.35.1.45q.1.5.55.85l1 .25.9-.4.6-.65.15-.25.45-.25 2.2-1.45 3.3 2.6.95.4q.5.05.95-.3l.55-.85-.15-1-.85-1.45q-.1-1.45-1.15-2.9 2.75-2.7 2.55-4.2l-.35-2.05-.05-.1-.6-1.1q-.05-.7-.5-1.5l-.7-.6-.9-.05q-.45.1-.75.5M6.1 13.6l.1-.05q.7-.55 2.15-1.4l.2-.45.15-.95-.35-.65.35.1.8-.1.6-.55 2.8-3.8.05.05.2 1.1q-.2.85-2.65 3.05-.3.25-.4.65-.15.35-.05.75l.05.05h-.15l-.8.25-.8.5-1.05 2.4L6.8 16l-.15.4h-.1.05l-.15.25q-.45.4.3-.85L6 15.55l-.55-.15-1-.25.4-.45.7-.75q.25-.3.55-.35v.05l.1-.1.35-.05h.2l-.7.3-.6 1.6m0-7.65 1.1.95-.65-.4.05.05L5.4 8l.05-.25m.65 5.9-.3.2.25-.05m1.25.75-.55.4h-.2l-.55.6m.85.25-.1-.45.05.35-.05.1h.1z" fill="none" stroke="#fc0" stroke-linecap="round" stroke-linejoin="round" stroke-width=".95"/><path d="M5.95 9.95q-2.45 1.5-3.15 2.1h-.2l-.6.65-.5.55-.1-.45.05-.1q.65-2.2 1.85-4.55l-2.05-1.5-.8-.5Q.3 6 .05 6L0 5.1Q0 4.45.3 4l1.3-1.1 3.35 2.95Q6.9 2.95 9.35 0l.3.95-.05.3.75 1.15.3 1.6q0 1.3-3.15 4.1 1.75 1.7 1.75 3.4l1 1.75q-1.8-1.7-4.3-3.3" fill="url(#c)" fill-rule="evenodd" transform="translate(3.95 2.9)"/><path d="M9.9 12.85q-2.45 1.5-3.15 2.1h-.2l-.6.65-.5.55-.1-.45.05-.1q.65-2.2 1.85-4.55L5.2 9.55l-.8-.5Q4.25 8.9 4 8.9L3.95 8q0-.65.3-1.1l1.3-1.1L8.9 8.75q1.95-2.9 4.4-5.85l.3.95-.05.3.75 1.15.3 1.6q0 1.3-3.15 4.1 1.75 1.7 1.75 3.4l1 1.75q-1.8-1.7-4.3-3.3z" fill="none" stroke="#4b0101" stroke-linecap="round" stroke-linejoin="round" stroke-width="2.9"/><path d="M5.95 9.95q-2.45 1.5-3.15 2.1h-.2l-.6.65-.5.55-.1-.45.05-.1q.65-2.2 1.85-4.55l-2.05-1.5-.8-.5Q.3 6 .05 6L0 5.1Q0 4.45.3 4l1.3-1.1 3.35 2.95Q6.9 2.95 9.35 0l.3.95-.05.3.75 1.15.3 1.6q0 1.3-3.15 4.1 1.75 1.7 1.75 3.4l1 1.75q-1.8-1.7-4.3-3.3" fill="url(#d)" fill-rule="evenodd" transform="translate(3.95 2.9)"/><path d="M9.9 12.85q-2.45 1.5-3.15 2.1h-.2l-.6.65-.5.55-.1-.45.05-.1q.65-2.2 1.85-4.55L5.2 9.55l-.8-.5Q4.25 8.9 4 8.9L3.95 8q0-.65.3-1.1l1.3-1.1L8.9 8.75q1.95-2.9 4.4-5.85l.3.95-.05.3.75 1.15.3 1.6q0 1.3-3.15 4.1 1.75 1.7 1.75 3.4l1 1.75q-1.8-1.7-4.3-3.3z" fill="none" stroke="#ff6" stroke-linecap="round" stroke-linejoin="round" stroke-width=".5"/><path d="M5.95 9.95q-2.45 1.5-3.15 2.1h-.2l-.6.65-.5.55-.1-.45.05-.1q.65-2.2 1.85-4.55l-2.05-1.5-.8-.5Q.3 6 .05 6L0 5.1Q0 4.45.3 4l1.3-1.1 3.35 2.95Q6.9 2.95 9.35 0l.3.95-.05.3.75 1.15.3 1.6q0 1.3-3.15 4.1 1.75 1.7 1.75 3.4l1 1.75q-1.8-1.7-4.3-3.3" fill="url(#e)" fill-rule="evenodd" transform="translate(3.95 2.9)"/><path d="m8 6.9-.55-.3-.1-.35Q8.05 5 8.8 4.1q1.4-1.85 1.4-.1Q8.65 6.9 8 6.9" fill="#fff" fill-opacity=".302" fill-rule="evenodd" transform="translate(3.95 2.9)"/><path d="M14.05-2.9v18h-18v-18h18" fill="#666" fill-opacity="0" fill-rule="evenodd" transform="translate(3.95 2.9)"/></g></defs></svg>