<svg xmlns:ffdec="https://www.free-decompiler.com/flash" xmlns:xlink="http://www.w3.org/1999/xlink" ffdec:objectType="frame" height="139.75" width="139.95" xmlns="http://www.w3.org/2000/svg"><g transform="translate(3.4 6.95)"><use ffdec:characterId="12" height="256.6" transform="matrix(.399 0 0 .399 -.4 9.115)" width="343.2" xlink:href="#a"/><use ffdec:characterId="13" height="139.75" transform="translate(-3.4 -6.95)" width="139.75" xlink:href="#b"/></g><defs><linearGradient gradientTransform="matrix(-.0134 -.1675 .079 -.0063 137.75 156.15)" gradientUnits="userSpaceOnUse" id="g" spreadMethod="pad" x1="-819.2" x2="819.2"><stop offset="0" stop-color="#c49125"/><stop offset="1" stop-color="#ffe055"/><stop offset="1" stop-color="#e9f29a"/></linearGradient><linearGradient gradientTransform="matrix(.0286 0 0 .0365 247.25 215.7)" gradientUnits="userSpaceOnUse" id="h" spreadMethod="pad" x1="-819.2" x2="819.2"><stop offset="0" stop-color="#c49125"/><stop offset="1" stop-color="#ffe055"/><stop offset="1" stop-color="#e9f29a"/></linearGradient><linearGradient gradientTransform="matrix(.0311 0 0 .0201 175 244.6)" gradientUnits="userSpaceOnUse" id="i" spreadMethod="pad" x1="-819.2" x2="819.2"><stop offset="0" stop-color="#c49125"/><stop offset="1" stop-color="#ffe055"/><stop offset="1" stop-color="#e9f29a"/></linearGradient><linearGradient gradientTransform="matrix(.0302 0 0 .0204 124.75 246.35)" gradientUnits="userSpaceOnUse" id="j" spreadMethod="pad" x1="-819.2" x2="819.2"><stop offset="0" stop-color="#c49125"/><stop offset="1" stop-color="#ffe055"/><stop offset="1" stop-color="#e9f29a"/></linearGradient><linearGradient gradientTransform="matrix(.0347 0 0 .0391 33.1 218.65)" gradientUnits="userSpaceOnUse" id="k" spreadMethod="pad" x1="-819.2" x2="819.2"><stop offset="0" stop-color="#fef2c5"/><stop offset="1" stop-color="#ffe055"/><stop offset="1" stop-color="#e9f29a"/></linearGradient><linearGradient gradientTransform="matrix(.0617 -.0617 .0288 .0288 106.2 178.75)" gradientUnits="userSpaceOnUse" id="l" spreadMethod="pad" x1="-819.2" x2="819.2"><stop offset="0" stop-color="#730404"/><stop offset="1" stop-color="#e00a0a"/></linearGradient><linearGradient gradientTransform="matrix(.0324 0 0 .0314 26.25 25.35)" gradientUnits="userSpaceOnUse" id="F" spreadMethod="pad" x1="-819.2" x2="819.2"><stop offset=".396" stop-color="#9fb1f9" stop-opacity=".722"/><stop offset="1" stop-color="#84fbfb" stop-opacity=".573"/></linearGradient><linearGradient gradientTransform="matrix(.0734 .0525 -.023 .0322 283.95 106.25)" gradientUnits="userSpaceOnUse" id="A" spreadMethod="pad" x1="-819.2" x2="819.2"><stop offset="0" stop-color="#c49125"/><stop offset="1" stop-color="#ffe055"/><stop offset="1" stop-color="#e9f29a"/></linearGradient><linearGradient gradientTransform="matrix(.024 .0172 -.0126 .0177 287.9 222.7)" gradientUnits="userSpaceOnUse" id="B" spreadMethod="pad" x1="-819.2" x2="819.2"><stop offset="0" stop-color="#c49125"/><stop offset="1" stop-color="#ffe055"/><stop offset="1" stop-color="#e9f29a"/></linearGradient><linearGradient gradientTransform="matrix(.0335 .024 -.0105 .0147 213.8 143.65)" gradientUnits="userSpaceOnUse" id="C" spreadMethod="pad" x1="-819.2" x2="819.2"><stop offset="0" stop-color="#c49125"/><stop offset="1" stop-color="#ffe055"/><stop offset="1" stop-color="#e9f29a"/></linearGradient><linearGradient gradientTransform="matrix(.016 .0115 -.0205 .0287 177.65 58.35)" gradientUnits="userSpaceOnUse" id="D" spreadMethod="pad" x1="-819.2" x2="819.2"><stop offset="0" stop-color="#c49125"/><stop offset="1" stop-color="#ffe055"/><stop offset="1" stop-color="#e9f29a"/></linearGradient><g id="a" transform="translate(.5 -15.45)"><use ffdec:characterId="1" height="181.45" transform="translate(-.5 90.6)" width="276.55" xlink:href="#c"/><filter id="d"><feColorMatrix in="SourceGraphic" result="filterResult17" values="-0.43351808 2.4476829 -1.1241647 0.0 0.19841173 0.14213401 0.2328622 0.51500374 0.0 0.19841176 1.4009504 0.51208335 -1.0230339 0.0 0.19841172 0.0 0.0 0.0 1.0 0.0"/></filter><use ffdec:characterId="10" filter="url(#d)" height="84.65" transform="matrix(-2.2934 0 0 2.2934 220.502 31.042)" width="74.95" xlink:href="#e"/><use ffdec:characterId="11" height="223.65" transform="translate(159.2 15.45)" width="183.5" xlink:href="#f"/></g><g id="c"><path d="m274.7 163.9-4.05 21.95q-18.95-.2-18.15 29.25-2.25 19.15-16.45 12.55-7.15-5.35-4.15-12.3-12.7 10.35-5.4 24.25 5.95 7.3 13.7 5.7-10.6 6.9-22.35 11.95-26.75 11.65-55.65 13.6-27.9 1.95-55.55-1.55-32.85-17.55-42.9-58.25Q96.4 221.1 137.8 221.1q57.05 0 97.35-19.05 34.4-16.25 39.55-38.15m-7.9 42.6-3.8 20.6q-5.95.9-4.5-13 2.15-10.8 8.3-7.6m-117.3 41.1-27.5-18-22 18.5 24.5 15 25-15.5 27 13.5 24-16-26.5-17-24.5 19.5" fill="#472347" fill-rule="evenodd" transform="translate(.5 -90.6)"/><path d="M0 156.6v-.5q0-26.95 40.35-46 40.4-19 97.45-19 57.05 0 97.35 19 40.4 19.05 40.4 46v.5l-.85 7.3q-5.15 21.9-39.55 38.15-40.3 19.05-97.35 19.05-41.4 0-74.05-10.05-12.35-3.8-23.4-9Q7.9 186.7 1.6 166.4L0 156.6m245.85 30.8Q269 173.1 269 154.6q0-2.3-.35-4.5-3.35-20.95-38.05-36.2-38.35-16.85-92.6-16.85-54.25 0-92.65 16.85-34.7 15.25-38 36.2-.35 2.2-.35 4.5 0 20.4 28.2 35.7l1.75.95q3.85 2 8.4 4Q83.75 212.1 138 212.1q19.25 0 36.5-2.1 31.35-3.9 56.1-14.75 8.55-3.75 15.25-7.85" fill="url(#g)" fill-rule="evenodd" transform="translate(.5 -90.6)"/><path d="m270.65 185.85-3.85 20.65q-6.15-3.2-8.3 7.6-1.45 13.9 4.5 13-10.65 10.3-22.8 18.2-7.75 1.6-13.7-5.7-7.3-13.9 5.4-24.25-3 6.95 4.15 12.3 14.2 6.6 16.45-12.55-.8-29.45 18.15-29.25" fill="url(#h)" fill-rule="evenodd" transform="translate(.5 -90.6)"/><path d="m149.5 247.6 24.5-19.5 26.5 17-24 16-27-13.5" fill="url(#i)" fill-rule="evenodd" transform="translate(.5 -90.6)"/><path d="m149.5 247.6-25 15.5-24.5-15 22-18.5 27.5 18" fill="url(#j)" fill-rule="evenodd" transform="translate(.5 -90.6)"/><path d="M106.65 269.3q-29.3-3.45-56.1-14.95-4.95-2.15-9.6-4.7 16.9 5.25 20.55-16.05-1.7-20.75-14.5-16 8.55 13.55-11.35 12.1-11.85-4.3-10.65-9.6v-6q-.95-25.6-20.3-27.45L1.6 166.4q6.3 20.3 38.75 35.65 11.05 5.2 23.4 9 10.05 40.7 42.9 58.25M20.2 234.75q-5.15-4.75-9.7-10.15l-2.9-19q13.6 9.05 12.6 29.15" fill="#924792" fill-rule="evenodd" transform="translate(.5 -90.6)"/><path d="m36.95 191.25-1.75-.95Q7 175 7 154.6q0-2.3.35-4.5 3.3-20.95 38-36.2Q83.75 97.05 138 97.05q54.25 0 92.6 16.85 34.7 15.25 38.05 36.2.35 2.2.35 4.5 0 18.5-23.15 32.8 5.6-58.35-113.85-59.3-53.8 2.6-77.8 17.3-25.95 15.9-17.25 45.85" fill="#6b0303" fill-rule="evenodd" transform="translate(.5 -90.6)"/><path d="M40.95 249.65q-11.3-6.25-20.75-14.9 1-20.1-12.6-29.15l-2.9-18.95Q24.05 188.5 25 214.1v6q-1.2 5.3 10.65 9.6 19.9 1.45 11.35-12.1 12.8-4.75 14.5 16-3.65 21.3-20.55 16.05" fill="url(#k)" fill-rule="evenodd" transform="translate(.5 -90.6)"/><path d="M245.85 187.4q-6.7 4.1-15.25 7.85-24.75 10.85-56.1 14.75 22.9-64.95-120.3-64.6 24-14.7 77.8-17.3 119.45.95 113.85 59.3" fill="#8a0606" fill-rule="evenodd" transform="translate(.5 -90.6)"/><path d="M174.5 210q-17.25 2.1-36.5 2.1-54.25 0-92.65-16.85-4.55-2-8.4-4-8.7-29.95 17.25-45.85 143.2-.35 120.3 64.6" fill="url(#l)" fill-rule="evenodd" transform="translate(.5 -90.6)"/><path d="M0 156.6v-.5q0-26.95 40.35-46 40.4-19 97.45-19 57.05 0 97.35 19 40.4 19.05 40.4 46v.5l-.35 4.6-.5 2.7-4.05 21.95-3.85 20.65-3.8 20.6q-10.65 10.3-22.8 18.2-10.6 6.9-22.35 11.95-26.75 11.65-55.65 13.6-27.9 1.95-55.55-1.55-29.3-3.45-56.1-14.95-4.95-2.15-9.6-4.7-11.3-6.25-20.75-14.9-5.15-4.75-9.7-10.15l-2.9-19-2.9-18.95-3.1-20.25q-.8-2.55-1.2-5.2-.35-2.25-.4-4.6l1.6 9.8q6.3 20.3 38.75 35.65 11.05 5.2 23.4 9Q96.4 221.1 137.8 221.1q57.05 0 97.35-19.05 34.4-16.25 39.55-38.15l.85-7.3m-126.05 91-25 15.5-24.5-15 22-18.5 27.5 18 24.5-19.5 26.5 17-24 16-27-13.5M4.7 186.65Q24.05 188.5 25 214.1v6q-1.2 5.3 10.65 9.6 19.9 1.45 11.35-12.1 12.8-4.75 14.5 16-3.65 21.3-20.55 16.05M7.6 205.6q13.6 9.05 12.6 29.15m246.6-28.25q-6.15-3.2-8.3 7.6-1.45 13.9 4.5 13m-22.8 18.2q-7.75 1.6-13.7-5.7-7.3-13.9 5.4-24.25-3 6.95 4.15 12.3 14.2 6.6 16.45-12.55-.8-29.45 18.15-29.25" fill="none" stroke="#3e1e3e" stroke-linecap="round" stroke-linejoin="round" transform="translate(.5 -90.6)"/><path d="m36.95 191.25-1.75-.95Q7 175 7 154.6q0-2.3.35-4.5 3.3-20.95 38-36.2Q83.75 97.05 138 97.05q54.25 0 92.6 16.85 34.7 15.25 38.05 36.2.35 2.2.35 4.5 0 18.5-23.15 32.8-6.7 4.1-15.25 7.85-24.75 10.85-56.1 14.75-17.25 2.1-36.5 2.1-54.25 0-92.65-16.85-4.55-2-8.4-4-8.7-29.95 17.25-45.85 24-14.7 77.8-17.3 119.45.95 113.85 59.3" fill="none" stroke="#690303" stroke-linecap="round" stroke-linejoin="round" transform="translate(.5 -90.6)"/></g><g id="e" transform="translate(9.55 8.55)"><filter id="m"><feColorMatrix in="SourceGraphic" result="filterResult0" values="0 0 0 0 0.6431373,0 0 0 0 1.0,0 0 0 0 1.0,0 0 0 1 0"/><feConvolveMatrix divisor="81" in="filterResult0" kernelMatrix="1 1 1 1 1 1 1 1 1 1 1 1 1 1 1 1 1 1 1 1 1 1 1 1 1 1 1 1 1 1 1 1 1 1 1 1 1 1 1 1 1 1 1 1 1 1 1 1 1 1 1 1 1 1 1 1 1 1 1 1 1 1 1 1 1 1 1 1 1 1 1 1 1 1 1 1 1 1 1 1 1" order="9 9" result="filterResult1"/><feConvolveMatrix divisor="81" in="filterResult1" kernelMatrix="1 1 1 1 1 1 1 1 1 1 1 1 1 1 1 1 1 1 1 1 1 1 1 1 1 1 1 1 1 1 1 1 1 1 1 1 1 1 1 1 1 1 1 1 1 1 1 1 1 1 1 1 1 1 1 1 1 1 1 1 1 1 1 1 1 1 1 1 1 1 1 1 1 1 1 1 1 1 1 1 1" order="9 9" result="filterResult2"/><feConvolveMatrix divisor="81" in="filterResult2" kernelMatrix="1 1 1 1 1 1 1 1 1 1 1 1 1 1 1 1 1 1 1 1 1 1 1 1 1 1 1 1 1 1 1 1 1 1 1 1 1 1 1 1 1 1 1 1 1 1 1 1 1 1 1 1 1 1 1 1 1 1 1 1 1 1 1 1 1 1 1 1 1 1 1 1 1 1 1 1 1 1 1 1 1" order="9 9" result="filterResult3"/><feComposite in="SourceGraphic" in2="filterResult3" result="filterResult4"/></filter><use ffdec:characterId="3" filter="url(#m)" height="62.7" transform="translate(-1.1 -1.1)" width="62.7" xlink:href="#n"/><filter id="o"><feColorMatrix in="SourceGraphic" result="filterResult5" values="0 0 0 0 0.36862746,0 0 0 0 0.93333334,0 0 0 0 0.93333334,0 0 0 1 0"/><feConvolveMatrix divisor="25" in="filterResult5" kernelMatrix="1 1 1 1 1 1 1 1 1 1 1 1 1 1 1 1 1 1 1 1 1 1 1 1 1" order="5 5" result="filterResult6"/><feComposite in="SourceGraphic" in2="filterResult6" result="filterResult7"/><feColorMatrix in="filterResult7" result="filterResult8" values="-0.19643287 0.20941871 0.98701406 0.0 0.0 0.4062559 0.77646613 -0.18272203 0.0 0.0 -0.49205515 1.5906925 -0.09863752 0.0 0.0 0.0 0.0 0.0 1.0 0.0"/></filter><use ffdec:characterId="5" filter="url(#o)" height="111.15" transform="translate(-1.247 -2.997) scale(.5994)" width="111.2" xlink:href="#p"/><filter id="q"><feColorMatrix in="SourceGraphic" result="filterResult9" values="1.0 0.0 0.0 0.0 0.0 0.0 1.0 0.0 0.0 0.0 0.0 0.0 1.0 0.0 0.0 0.0 0.0 0.0 1.0 0.0"/></filter><use ffdec:characterId="7" filter="url(#q)" height="52.2" transform="translate(2.75 5.55)" width="54.05" xlink:href="#r"/><filter id="s"><feColorMatrix in="SourceGraphic" result="filterResult10" values="0.18659635 1.6078036 -0.7944 0.0 0.0 0.1385236 0.49779135 0.363685 0.0 0.0 1.027887 0.24028796 -0.26817492 0.0 0.0 0.0 0.0 0.0 1.0 0.0"/></filter><use ffdec:characterId="9" filter="url(#s)" height="22.4" transform="translate(45.05 -2.35) scale(.5453)" width="22.4" xlink:href="#t"/><filter id="u"><feColorMatrix in="SourceGraphic" result="filterResult11" values="0.18659635 1.6078036 -0.7944 0.0 0.0 0.1385236 0.49779135 0.363685 0.0 0.0 1.027887 0.24028796 -0.26817492 0.0 0.0 0.0 0.0 0.0 1.0 0.0"/></filter><use ffdec:characterId="9" filter="url(#u)" height="22.4" transform="translate(-3.65 26.6) scale(.3223)" width="22.4" xlink:href="#t"/><filter id="v"><feColorMatrix in="SourceGraphic" result="filterResult12" values="0.18659635 1.6078036 -0.7944 0.0 0.0 0.1385236 0.49779135 0.363685 0.0 0.0 1.027887 0.24028796 -0.26817492 0.0 0.0 0.0 0.0 0.0 1.0 0.0"/></filter><use ffdec:characterId="9" filter="url(#v)" height="22.4" transform="translate(-9.55 41.35) scale(.1803)" width="22.4" xlink:href="#t"/><filter id="w"><feColorMatrix in="SourceGraphic" result="filterResult13" values="0.18659635 1.6078036 -0.7944 0.0 0.0 0.1385236 0.49779135 0.363685 0.0 0.0 1.027887 0.24028796 -0.26817492 0.0 0.0 0.0 0.0 0.0 1.0 0.0"/></filter><use ffdec:characterId="9" filter="url(#w)" height="22.4" transform="translate(12.7 64.55) scale(.1811)" width="22.4" xlink:href="#t"/><filter id="x"><feColorMatrix in="SourceGraphic" result="filterResult14" values="0.18659635 1.6078036 -0.7944 0.0 0.0 0.1385236 0.49779135 0.363685 0.0 0.0 1.027887 0.24028796 -0.26817492 0.0 0.0 0.0 0.0 0.0 1.0 0.0"/></filter><use ffdec:characterId="9" filter="url(#x)" height="22.4" transform="translate(41.4 -8.55) scale(.2262)" width="22.4" xlink:href="#t"/><filter id="y"><feColorMatrix in="SourceGraphic" result="filterResult15" values="0.18659635 1.6078036 -0.7944 0.0 0.0 0.1385236 0.49779135 0.363685 0.0 0.0 1.027887 0.24028796 -0.26817492 0.0 0.0 0.0 0.0 0.0 1.0 0.0"/></filter><use ffdec:characterId="9" filter="url(#y)" height="22.4" transform="translate(-4.55 41.35) scale(.1803)" width="22.4" xlink:href="#t"/><filter id="z"><feColorMatrix in="SourceGraphic" result="filterResult16" values="0.18659635 1.6078036 -0.7944 0.0 0.0 0.1385236 0.49779135 0.363685 0.0 0.0 1.027887 0.24028796 -0.26817492 0.0 0.0 0.0 0.0 0.0 1.0 0.0"/></filter><use ffdec:characterId="9" filter="url(#z)" height="22.4" transform="translate(19.9 72.05) scale(.1803)" width="22.4" xlink:href="#t"/></g><g id="H"><path d="m59.3 21.6.5 1.85.05.2q-.5-.95-.55-2.05" fill="#540140" fill-rule="evenodd" transform="translate(1.1 1.1)"/><path d="m60.05 35.95-.6 2.6-1.45 4q-2.2 4.95-6.35 9.1Q49.6 53.7 47 55.5q-2.55 1.8-5.45 2.95-2.6 1-5.45 1.55l-5.85.5-1.85-.05-.8-.05q-4.55-.35-8.55-1.95-2.2-.9-4.25-2.1-3.15-1.9-5.95-4.7Q2.2 45 .55 36.25q-.4-2.15-.5-4.45L0 30.25q0-9.15 4.7-16.3 1.75-2.7 4.15-5.1 2.1-2.1 4.45-3.7-3 8.15-2.7 16.65.45 11.5 8.95 19.2 9.05 8.15 20.95 6.6 12.6-1.2 19.55-11.65" fill="#217877" fill-rule="evenodd" transform="translate(1.1 1.1)"/><path d="M60.25 26.1v.05l.25 4.1-.1 3.05-.35 2.65Q53.1 46.4 40.5 47.6 28.6 49.15 19.55 41q-8.5-7.7-8.95-19.2-.3-8.5 2.7-16.65Q20.15.35 28.95.05q-3.9 2.6-6.05 5.6-7.1 10.1-1.7 21.3 5.65 11.65 19 11.25 14-1.25 20.05-12.1" fill="#30adad" fill-rule="evenodd" transform="translate(1.1 1.1)"/><path d="m58.85 20.15.1.3.35 1.15q.05 1.1.55 2.05l.4 2.45Q54.2 36.95 40.2 38.2q-13.35.4-19-11.25-5.4-11.2 1.7-21.3 2.15-3 6.05-5.6l.5-.05q6 1.8 9.45 4.45.45.35 1.25.7-.45.15-1.15 1.1-4.75 5.9-.6 10.3 4.15 4.35 8.3 2.4 4.1-1.95 4.95-5.1 4.45 2.35 7.2 6.3" fill="#66d5d5" fill-rule="evenodd" transform="translate(1.1 1.1)"/><path d="M29.45 0h.8l1.4.05q5.9.2 11 2.5 2.85 1.25 5.45 3.2l.3.25 3.25 2.85q2.3 2.3 3.9 4.75 2.1 3.1 3.3 6.55-2.75-3.95-7.2-6.3-.85 3.15-4.95 5.1-4.15 1.95-8.3-2.4-4.15-4.4.6-10.3.7-.95 1.15-1.1-.8-.35-1.25-.7Q35.45 1.8 29.45 0" fill="#bceded" fill-rule="evenodd" transform="translate(1.1 1.1)"/><path d="M30.55 1.1h.8l1.4.05q5.9.2 11 2.5 2.85 1.25 5.45 3.2l.3.25 3.25 2.85q2.3 2.3 3.9 4.75 2.1 3.1 3.3 6.55l.1.3m.35 1.15.5 1.85.05.2.4 2.45v.05l.25 4.1-.1 3.05-.35 2.65-.6 2.6q-.3 1.8-1.4 3.95l-.05.05q-2.2 4.95-6.35 9.1-2.05 2.05-4.65 3.85-2.55 1.8-5.45 2.95-2.6 1-5.45 1.55l-5.85.5-1.85-.05m-.8-.05q-4.55-.35-8.55-1.95-2.2-.9-4.25-2.1-3.15-1.9-5.95-4.7-6.65-6.65-8.3-15.4-.4-2.15-.5-4.45l-.05-1.55q0-9.15 4.7-16.3 1.75-2.7 4.15-5.1 2.1-2.1 4.45-3.7 6.85-4.8 15.65-5.1l.5-.05m30 38.55-1.45 4" fill="none" stroke="#0f6b82" stroke-linecap="round" stroke-linejoin="round" stroke-width="2.25"/><path d="M48.7 45.7q.8-1.4 1.3-1.9l2.05-2.1q1.25-.9 1.25 1.2 0 3.6-4.45 7.85Q43.5 55.8 36.4 55.8q-6.65 0-9.8-1.6-2.25-1.1-2.35-2.7l.1-.1q.15-.15.5-.15l2.7.75 4 .75q8.05 0 11.5-1.7.85-.4 4.5-3.75l1.15-1.6" fill="#30adad" fill-opacity=".369" fill-rule="evenodd" transform="translate(1.1 1.1)"/></g><g id="f"><path d="M261.25 94.4q-17.25 8.2-9.45 24.9 3.95 8.35 12.85 12.3 18.9 8.4 31.15-4.75 3.35-3.55 4.4-7.55 5.3 3.8 6.05 10.55.75 6.85-3.45 12.7 2.55 2.5 5.95 2.75 2.35.15 4.25-.8-4.05 15.65 13.4 18.75 7.2 1.2 10.9-4.5l1.45 6.6q5.45 30.95 2.3 39.65-3.2 8.6-4.4 9-1.3.3.2.15-9.55 3.1-25.1-5.45 15.55 8.55 25.1 5.45l-19.35 8.7q-5.15-3.7-10.65-3.8-5.5-.05-8.1 3.55 6.15-13.45-9.9-19.95-17.2-7.1-21.05 9.6-2.55 10.85 8.8 14.7l4.15 1.15q-5.35 1.05-5.45 7.45l3.65 1.65-3.65-1.55q-49.95-22.1-87.6-85.95l.2-.15Q170.7 93 199.3 57.75l1.2 4.2q10.4 34.65 38.7 74.8 28.3 40.15 57.95 62.4 7.85 5.85 14.6 9.55-46.85-39.15-87.35-115.45-16.65-28.45-16.65-56.2-2.05-21.35 15.85-18.9Q233.65 21.8 247 31.8q22 16.5 43.25 42.9-7.2 3.25-10.1 3.2-12.55-.5-14.8-14.35-3.95-23.85-27.9-19.4l-1.2 1.7q12.4-.65 14.25 12.6.6 3.9-2.35 6.4-5.7 4.75-12.7.4-2.45-1.6-3-4.2-3 3.25-2.2 7-6.95.25-7.35 8.6 14.6-8.1 23.35 6.4 4.9 3.5 11.05 2.1 2.75-.7 5.1-2.1 17.75 4.15 10.6 19.5-1.45 3.25-5.4 4.05-10.95-3.85-6.35-12.2l1.45-2.05-1.45 2.05m73.35 55.05q-3.05 1.55-6.3 0-10-9 0-15.7 3.75 8.1 6.3 15.7M178.95 59.1q2.05 1.45 2.5 3.95.4 2.45-1.05 4.5-1.5 2.05-3.95 2.45-2.45.4-4.5-1.05-2.05-1.5-2.45-3.95-.45-2.45 1.05-4.5 1.45-2.05 3.95-2.45 2.4-.45 4.45 1.05m43.95 17.55q.85 1.35 2.5 1.8l-2.5-1.8m-24 74.55 34.05 23.8-4.25-38.9-33.75-24.15 3.95 39.25m8.7-4.55-2.55-16.2 14 10.05 3.15 17.6-14.6-11.45m70.45 69.75q-1.75-2.65-.75-4 1-1.4 4.1-.75 3.1.75 6.45 3.15 3.3 2.4 5 5 1.6 2.75.6 4.15-.95 1.35-4 .65-3.1-.65-6.45-3.05t-4.95-5.15" fill="#472347" fill-rule="evenodd" transform="translate(-159.2 -15.45)"/><path d="M337.3 158.75q-3.7 5.7-10.9 4.5-17.45-3.1-13.4-18.75-1.9.95-4.25.8-3.4-.25-5.95-2.75 4.2-5.85 3.45-12.7-.75-6.75-6.05-10.55-1.05 4-4.4 7.55-12.25 13.15-31.15 4.75-8.9-3.95-12.85-12.3-7.8-16.7 9.45-24.9-4.6 8.35 6.35 12.2 3.95-.8 5.4-4.05 7.15-15.35-10.6-19.5-2.35 1.4-5.1 2.1-6.15 1.4-11.05-2.1-8.75-14.5-23.35-6.4.4-8.35 7.35-8.6-.8-3.75 2.2-7 .55 2.6 3 4.2 7 4.35 12.7-.4 2.95-2.5 2.35-6.4-1.85-13.25-14.25-12.6l1.2-1.7q23.95-4.45 27.9 19.4 2.25 13.85 14.8 14.35 2.9.05 10.1-3.2 7.4 9.2 14.65 19.5 14.9 21 23.4 39.55-10 6.7 0 15.7 3.25 1.55 6.3 0 1.55 4.7 2.7 9.3" fill="url(#A)" fill-rule="evenodd" transform="translate(-159.2 -15.45)"/><path d="m317.5 222.85-35.05 15.75-3.35-1.35-.15-.05-3.65-1.65q.1-6.4 5.45-7.45l-4.15-1.15q-11.35-3.85-8.8-14.7 3.85-16.7 21.05-9.6 16.05 6.5 9.9 19.95 2.6-3.6 8.1-3.55 5.5.1 10.65 3.8m-39.45-6.45q1.6 2.75 4.95 5.15 3.35 2.4 6.45 3.05 3.05.7 4-.65 1-1.4-.6-4.15-1.7-2.6-5-5-3.35-2.4-6.45-3.15-3.1-.65-4.1.75-1 1.35.75 4" fill="url(#B)" fill-rule="evenodd" transform="translate(-159.2 -15.45)"/><path d="m207.6 146.65 14.6 11.45-3.15-17.6-14-10.05 2.55 16.2m-8.7 4.55-3.95-39.25 33.75 24.15 4.25 38.9-34.05-23.8" fill="url(#C)" fill-rule="evenodd" transform="translate(-159.2 -15.45)"/><path d="M159.85 81.15q-1.05-16 4.5-32l24-18.65q4.9 6.05-2.9 15.9-2.8 3.55-6.25 3.2 16.75 7 7.9 23.1-4.45 7.95-13.9 5.9-6.55-1.4-8.35-6.9 1.35 6.85-5 9.45m19.1-22.05q-2.05-1.5-4.45-1.05-2.5.4-3.95 2.45-1.5 2.05-1.05 4.5.4 2.45 2.45 3.95 2.05 1.45 4.5 1.05 2.45-.4 3.95-2.45 1.45-2.05 1.05-4.5-.45-2.5-2.5-3.95" fill="url(#D)" fill-rule="evenodd" transform="translate(-159.2 -15.45)"/><path d="M187.7 149.7q-9.4-15.9-18.05-34.4-8.7-17-9.8-34.15 6.35-2.6 5-9.45 1.8 5.5 8.35 6.9 9.45 2.05 13.9-5.9 8.85-16.1-7.9-23.1 3.45.35 6.25-3.2 7.8-9.85 2.9-15.9l14-11q-10.95 9.05-3.05 38.25-28.6 35.25-11.4 91.8l-.2.15" fill="#874387" fill-rule="evenodd" transform="translate(-159.2 -15.45)"/><path d="m202.35 19.5 1.4-1q7.5-4.9 19.85-.35-17.9-2.45-15.85 18.9 0 27.75 16.65 56.2 40.5 76.3 87.35 115.45-6.75-3.7-14.6-9.55-29.65-22.25-57.95-62.4-28.3-40.15-38.7-74.8l-1.2-4.2q-7.9-29.2 3.05-38.25" fill="#c471c1" fill-rule="evenodd" transform="translate(-159.2 -15.45)"/><path d="M337.3 158.75q-3.7 5.7-10.9 4.5-17.45-3.1-13.4-18.75-1.9.95-4.25.8-3.4-.25-5.95-2.75 4.2-5.85 3.45-12.7-.75-6.75-6.05-10.55-1.05 4-4.4 7.55-12.25 13.15-31.15 4.75-8.9-3.95-12.85-12.3-7.8-16.7 9.45-24.9l1.45-2.05m65.6 41.4q-10 6.7 0 15.7 3.25 1.55 6.3 0-2.55-7.6-6.3-15.7-8.5-18.55-23.4-39.55-7.25-10.3-14.65-19.5-7.2 3.25-10.1 3.2-12.55-.5-14.8-14.35-3.95-23.85-27.9-19.4l-1.2 1.7q12.4-.65 14.25 12.6.6 3.9-2.35 6.4-5.7 4.75-12.7.4-2.45-1.6-3-4.2-3 3.25-2.2 7-6.95.25-7.35 8.6 14.6-8.1 23.35 6.4 4.9 3.5 11.05 2.1 2.75-.7 5.1-2.1 17.75 4.15 10.6 19.5-1.45 3.25-5.4 4.05-10.95-3.85-6.35-12.2m75.6 119.75q-1.5.15-.2-.15 1.2-.4 4.4-9 3.15-8.7-2.3-39.65l-1.45-6.6q-1.15-4.6-2.7-9.3m-22.85 59.25q15.55 8.55 25.1 5.45l-19.35 8.7-35.05 15.75-3.35-1.35-.15-.05-3.65-1.55q-49.95-22.1-87.6-85.95-9.4-15.9-18.05-34.4-8.7-17-9.8-34.15-1.05-16 4.5-32l24-18.65 14-11 1.4-1q7.5-4.9 19.85-.35Q233.65 21.8 247 31.8q22 16.5 43.25 42.9m21.5 134q-6.75-3.7-14.6-9.55-29.65-22.25-57.95-62.4-28.3-40.15-38.7-74.8l-1.2-4.2q-7.9-29.2 3.05-38.25m-23.4 39.6q2.05 1.45 2.5 3.95.4 2.45-1.05 4.5-1.5 2.05-3.95 2.45-2.45.4-4.5-1.05-2.05-1.5-2.45-3.95-.45-2.45 1.05-4.5 1.45-2.05 3.95-2.45 2.4-.45 4.45 1.05m9.4-28.6q4.9 6.05-2.9 15.9-2.8 3.55-6.25 3.2 16.75 7 7.9 23.1-4.45 7.95-13.9 5.9-6.55-1.4-8.35-6.9 1.35 6.85-5 9.45m63.05-4.5 2.5 1.8q-1.65-.45-2.5-1.8m-15.3 70 14.6 11.45-3.15-17.6-14-10.05 2.55 16.2m-8.7 4.55-3.95-39.25 33.75 24.15 4.25 38.9-34.05-23.8m79.15 65.2q1.6 2.75 4.95 5.15 3.35 2.4 6.45 3.05 3.05.7 4-.65 1-1.4-.6-4.15-1.7-2.6-5-5-3.35-2.4-6.45-3.15-3.1-.65-4.1.75-1 1.35.75 4m39.45 6.45q-5.15-3.7-10.65-3.8-5.5-.05-8.1 3.55 6.15-13.45-9.9-19.95-17.2-7.1-21.05 9.6-2.55 10.85 8.8 14.7l4.15 1.15q-5.35 1.05-5.45 7.45l3.65 1.65" fill="none" stroke="#351a35" stroke-linecap="round" stroke-linejoin="round" transform="translate(-159.2 -15.45)"/></g><path d="M86.35 86.35q-14.8 14.8-35.75 14.8t-35.8-14.8Q0 71.55 0 50.6t14.8-35.8Q29.65 0 50.6 0q20.95 0 35.75 14.8 14.85 14.85 14.85 35.8 0 20.95-14.85 35.75z" fill="none" stroke="url(#E)" stroke-linecap="round" stroke-linejoin="round" stroke-width="10" transform="translate(5 5)" id="I"/><path d="M0 36.2q3.8 3.6 7-1.05.55-.75.3-1.55-.7-2.6.4-4.7.8-1.5 2.55-1.95l1.45-.05q-2.5-4.2-1.75-10.05.7-5.55 4.45-9.65 3.65-4.15 9.05-4 4 .15 6.5 3.8 3 4.4 1.5 9.55-1.3 4.6-6 5.2-4.05.55-6-3.45-2.35-5.15 2.35-8.25l1.05-.35q-2.7 5.05.95 8.1 1.55 1.4 2.95-.4 1.35-1.8 1.2-5.05-.1-2.05-1.7-3.35-4.4-3.45-8.75.25-4.6 3.95-3.65 9.95.85 5.8 4.95 9.25l1.55.65q.7.35 1.2 2.05v-.25q1 6.4 7.7 7.7-1.85-1.9-.3-3.5 1.55-1.65 5.15 1.25 1.7-1.05 2.95-2.95 2.95-4.35-.55-7.95-2.6-2.65-1.55-6.2 1.55-6.05 7.2-4.25l.8.5q2.25-4.25-2.45-6.8-.85-.9-1.05-2.1-1-5.85 4.6-6.6M11.7 26.9q.45.05.8.25 2.2.95 1.95 4.05.55-1 1.85-1.85 1.3-.75 2.5-.9m28.45-24.9q-1.05.15-1.4 1.1-1.85 4.1 1.4 7.55 0 2.1-1.6 3.55-1.55 1.45-3.8 1.45-.6-.15-1.2.2-.45.35-.6 1-.2.7.1 1.2l.9.8q1-1.9 3.25-1.4l.9.65q.4-3.8 4.75-5.9-1.75-1.75-.55-4.3h1.25m1.9 6.4q-1.5-1.25-3.05 0-3.8 2.2-.9 5.95-5.4-1.6-6.45 3.65-.3 1.85 1 3.1 5.55 5.35.8 11.85-.7 1-2.8 2.3l-1.05.15q.2-1.45-.4-3.15-.6-1.7-1.75-2.15-1.1-.5-2.05.55-.95 1.05-1.35 3.4-1.25-1.7-.45-5.15m-6.35 14.3q4.1-1.1 3.6-6.95l.85.85q4.25 3.75 9.2.6M5.9 43.5q2.55-4.65 7.8-5.95 5.4-1.25 10.15 1.4 1.55.9 1.55 2.8-.05 4.8-4.85 6-4.5 1.1-6.05-3.55-.75-2 1.8-3.7-.3.4-.2 1.25.6 1.15 1.8 1.2 1.25-.1 1.9-1.35v-1.3q-3.35-2.3-6.25-.4-2.95 1.95-2.9 4.5 0 2.55 2 3.8m11.7 2.5q6.95-3.3 4.9-12.1" fill="none" stroke="url(#F)" stroke-linecap="round" stroke-linejoin="round" stroke-width="1.5" transform="translate(.75 .75)" id="J"/><path d="M11.2 22.4q-4.65 0-7.95-3.3Q0 15.85 0 11.2t3.25-7.95Q6.55 0 11.2 0t7.9 3.25q3.3 3.3 3.3 7.95t-3.3 7.9q-3.25 3.3-7.9 3.3" fill="url(#G)" fill-rule="evenodd" id="K"/><path d="m1.55 6.5.3-.65Q10.05-6.95 31-6.95h70.95q34.4 0 34.4 34.4V98.4q0 20.2-11.85 28.5l-.95.65q-8.15 5.25-21.6 5.25H31q-34.4 0-34.4-34.4V27.45q0-12.9 4.95-20.95" fill="#fff" fill-opacity="0" fill-rule="evenodd" transform="translate(3.4 6.95)" id="b"/><use ffdec:characterId="2" height="62.7" width="62.7" xlink:href="#H" id="n"/><use ffdec:characterId="4" height="111.15" width="111.2" xlink:href="#I" id="p"/><use ffdec:characterId="6" height="52.2" width="54.05" xlink:href="#J" id="r"/><use ffdec:characterId="8" height="22.4" width="22.4" xlink:href="#K" id="t"/><radialGradient cx="0" cy="0" gradientTransform="matrix(.069 0 0 .069 50.6 50.6)" gradientUnits="userSpaceOnUse" id="E" r="819.2" spreadMethod="pad"><stop offset=".396" stop-color="#6deaf8"/><stop offset="1" stop-color="#e7fefd" stop-opacity="0"/></radialGradient><radialGradient cx="0" cy="0" gradientTransform="translate(11.2 11.2) scale(.0139)" gradientUnits="userSpaceOnUse" id="G" r="819.2" spreadMethod="pad"><stop offset=".396" stop-color="#c4ffff" stop-opacity=".502"/><stop offset="1" stop-color="#6fc" stop-opacity=".063"/></radialGradient></defs></svg>