<svg xmlns:ffdec="https://www.free-decompiler.com/flash" xmlns:xlink="http://www.w3.org/1999/xlink" ffdec:objectType="frame" height="113.25" width="97.3" xmlns="http://www.w3.org/2000/svg"><g transform="translate(.75 .75)"><use ffdec:characterId="128" height="61.9" transform="translate(44.05 2.45)" width="52.5" xlink:href="#a"/><filter id="b"><feColorMatrix in="SourceGraphic" result="filterResult0" values="1.7483603 0.18532383 -0.9336841 0.0 0.07843138 -0.4095253 1.2161553 0.19337004 0.0 0.078431375 0.45600763 -1.1455493 1.6895417 0.0 0.07843139 0.0 0.0 0.0 1.0 0.0"/><feColorMatrix in="filterResult0" result="filterResult1" values="0 0 0 0 1.0,0 0 0 0 1.0,0 0 0 0 0.0,0 0 0 1 0"/><feConvolveMatrix divisor="16" in="filterResult1" kernelMatrix="1 1 1 1 1 1 1 1 1 1 1 1 1 1 1 1" order="4 4" result="filterResult2"/><feComposite in="filterResult0" in2="filterResult2" result="filterResult3"/></filter><use ffdec:characterId="130" filter="url(#b)" height="93.7" transform="translate(6.75 18.8)" width="79.6" xlink:href="#c"/><use ffdec:characterId="131" height="29.75" transform="translate(-.75 -.75)" width="58.1" xlink:href="#d"/><use ffdec:characterId="126" height="16.5" transform="matrix(1.3216 0 0 1.3252 23.609 3.806)" width="16.5" xlink:href="#e"/></g><defs><g id="a"><path d="M90.2 23.75q-2.15 3.05-5.2 2h-.1q-2.45-.75-3.95-2.15-1.65-2.25-.45-4.15 1.65-2.15 4.8-2.7l1.6-.1q1.6 0 2.9.7l-.05-.45q-1.4-4.9-5.95-7.35-2.9-1.6-5.95-1.45h-.3q-1.5.1-2.95.65 3.35 4.55-.15 8.35-2.6 2.6-5.85.55-3.35-2.95-.6-7.2l1-1.1q1.15-1.15 2.4-1.5-2.15-1.95-4.9-2.7-6.2-.8-10 3.7-1.75 2.75.1 7.6-.5 1.1-1.7.6l-.85-2.25q-2.1-7.2 5.65-11.05Q66.95 1.2 72.75 6.7l.2.2 1.5-.5q8.8-2.6 15.5 6.3 1.9 2.8 1.85 5.75 1.3.9 2.2 2.1.8.9 1.3 2.1 1 3.3.2 4.8-.7 1.4-1.15.45.45-1.45 0-3.4-.35-1.45-1.2-2.5l-.05-.05q-.65-.75-1.65-1.35-.4 1.6-1.3 3.1l.05.05m-7.45-1.25q1.2.9 2.2 1.2 1.25.25 2.4-.3l.05.05q2.15-1.55 2.45-4.05-2.15-1.45-5.35-.35-3.05 1.55-1.75 3.45m-9.8-12.9-.7-.9-.85-.85.85.85.7.9q-2.95 1.25-4.2 3.5-.7 1.6.95 3.05l.1.1.15.15q2.4.9 3.75-.75l.3-.4q1.1-2.8-1.05-5.65m1.65-.85L72.95 6.9l1.65 1.85M91.45 20.6l.35-2.15-.35 2.15m-1.6-1.2-.05-2.05.05 2.05" fill="#dcfd42" fill-rule="evenodd" transform="translate(-44.05 -2.45)"/><path d="M74.9 24.35q-2.5-1.9-4.6-2.1-1.15-.85-.45-1.15l.55-.05q3.55.05 7.4 4 3.75 4.55 1.65 9.15-1.5 2.3-3.45 3.85l-.1.1-.05.05q-2.4 2.9 2.2 7.3 5.5 5 3.05 11.15-2.4 5.1-7.6 7-4.4.8-7.75-1.85l-.75-.65q0-.8 1.1-.8l1 .7.1.1q4 2.8 7.5.55 4.3-2.25 5.7-6.95.65-3.65-2.3-7.5l-.5-.5q-1.9-1.4-3.2-3.9-1.9-3.5.85-5.95 2-1.3 3.25-3.45 1.45-4.05-1.95-7.75l-.55-.55-1.1-.8" fill="#8ba916" fill-rule="evenodd" transform="translate(-44.05 -2.45)"/><path d="m74.9 24.35 1.1.8-.1.2-2.8 2.8-.25.15-.05.05-.55.15-.3.1q-.85-.55-.55-1.35 2.1-.7 2.95-1.65l.55-1.25" fill="#9fc914" fill-rule="evenodd" transform="translate(-44.05 -2.45)"/><path d="M90.2 23.75q-2.15 3.05-5.2 2h-.1q-2.45-.75-3.95-2.15-1.65-2.25-.45-4.15 1.65-2.15 4.8-2.7l1.6-.1q1.6 0 2.9.7l-.05-.45q-1.4-4.9-5.95-7.35-2.9-1.6-5.95-1.45h-.3q-1.5.1-2.95.65 3.35 4.55-.15 8.35-2.6 2.6-5.85.55-3.35-2.95-.6-7.2l1-1.1q1.15-1.15 2.4-1.5-2.15-1.95-4.9-2.7-6.2-.8-10 3.7-1.75 2.75.1 7.6-.5 1.1-1.7.6l-.85-2.25q-2.1-7.2 5.65-11.05Q66.95 1.2 72.75 6.7l.2.2 1.5-.5q8.8-2.6 15.5 6.3 1.9 2.8 1.85 5.75 1.3.9 2.2 2.1.8.9 1.3 2.1 1 3.3.2 4.8-.7 1.4-1.15.45.45-1.45 0-3.4-.35-1.45-1.2-2.5l-.05-.05q-.65-.75-1.65-1.35-.4 1.6-1.3 3.1m-7.4-1.2q1.2.9 2.2 1.2 1.25.25 2.4-.3l.05.05q2.15-1.55 2.45-4.05-2.15-1.45-5.35-.35-3.05 1.55-1.75 3.45m7.05-5.15.05 2.05m1.95-.95-.35 2.15M72.95 6.9l1.65 1.85m-3.2-.9.85.85.7.9q2.15 2.85 1.05 5.65l-.3.4q-1.35 1.65-3.75.75l-.15-.15m-.1-.1q-1.65-1.45-.95-3.05 1.25-2.25 4.2-3.5M76 25.15l.55.55q3.4 3.7 1.95 7.75-1.25 2.15-3.25 3.45-2.75 2.45-.85 5.95 1.3 2.5 3.2 3.9l.5.5q2.95 3.85 2.3 7.5-1.4 4.7-5.7 6.95-3.5 2.25-7.5-.55l-.1-.1-1-.7q-1.1 0-1.1.8l.75.65q3.35 2.65 7.75 1.85 5.2-1.9 7.6-7 2.45-6.15-3.05-11.15-4.6-4.4-2.2-7.3l.05-.05.1-.1q1.95-1.55 3.45-3.85 2.1-4.6-1.65-9.15-3.85-3.95-7.4-4l-.55.05q-.7.3.45 1.15 2.1.2 4.6 2.1l1.1.8-.1.2-2.8 2.8-.25.15-.05.05-.55.15-.3.1q-.85-.55-.55-1.35 2.1-.7 2.95-1.65l.55-1.25" fill="none" stroke="#364800" stroke-linecap="round" stroke-linejoin="round" transform="translate(-44.05 -2.45)"/><path d="M88.45 17.7q.45-.55-1.55-1.05 1.6 0 2.9.7l.05 2.05q-2.2-1.4-5.35-.25-3 1.5-1.75 3.45 1.1.8 2.1 1.1-1.6-.4-2.45-.95-1.9-1.4-2.1-3 .85-1.25 1.55-1.55-.45.45 0 1 .45.35.75.25l.1-.1.15-.05q1.5-1.2 3.4-1.1 1.9.1 2.2-.5m-18.6 3.4.55.05q-.55.35.25.75 1.55.25 3.45 1.35 1.9 1.2 3.4 2.8 1.1 1.4 1.55 2.75.6 1.9.3 3.4-.25 1.15-.85 2.05-.95 1.55-2.35 2.55l-.05.05-1.5 1.6q-.25 1.15 0 2.2l.25.85q.65 1.45 1.85 2.55l1.05 1.15q-.6.3-.7-.2v-.55l-.35-.1v.1l-.05.85 1.65 1.55q1.65 1.75 2.4 3.9.55 2.05.35 3.75-.4 2.2-2.05 4.35-1.35 1.75-3.2 2.8-1.6 1-2.95 1.35l-3.2-.1q-1.65-.45-2.9-1.3-1.15-.55-1 .2l-.7-.6q-.05-.75 1-.8l1.05.75.05.05q4.05 2.75 7.5.5 4.35-2.25 5.75-6.95.65-3.65-2.3-7.5l-.55-.45q-1.85-1.45-3.15-3.95-.95-1.65-.7-3.1.15-1.55 1.55-2.85 1.95-1.25 3.2-3.4 1.5-4-1.9-7.8l-.6-.5q-.4 1.1-1.2 1.9.9-1 .6-1.7l-.15-.15H75l-.3.5q-.7 1.1-2.1 1.6-.8.2-.55.85l.75.15-.6.2-.3.1q-.85-.55-.45-1.35 2.05-.75 2.9-1.7l.55-1.15q-2.55-1.95-4.65-2.15-1.1-.8-.4-1.2M73.1 8.65q1.5 1.8 1.65 3.65.15 1.75-.4 2.7-.4.7.3.8.85.15 1.25-.55l-.8 1.4-2.4-.1 1.25-1.25.05.05v-.1q1.1-2.8-1.05-5.65-3 1.3-4.15 3.55l-.05.05q-.7 1.5.9 3-1.3-.6-1.45-2.15 0-.9.45-1.75l.1-.2.15-.15-.1-.5q-.6-.3-.8-1l1-1.1.1-.05q-.55.5.4 1.05l.85-.05.45-.25.05-.05q.65-.75.2-1.2-.5-.6-1.95.45 1.15-1.05 2.25-1.35-2.05-1.95-4.9-2.7-6.2-.8-10 3.7-1.7 2.7.15 7.55-.55 1.15-1.7.6l-.85-2.15v-.1q-.5-1.4-.55-2.85l.6-.2-.6-.6q.05-2.05 1.85-4.45-.5.7.15 1.25.8.3 1.55-.45l.35-.35q2.55-2.25 6.35-2.75 2.4-.3 5.1 1 2.4 1.2 4.25 3.25m1.35-2.25q-.9.7.3 1.4l2.75.35-2.9.6-1.6-1.8q.75-.35 1.45-.55M93.1 21.95q-.7-.7-1.65-1.25l.35-2.15 2.2 2q-.65-.75-1.35-.75-.7.3-.35.95l.8 1.2m-4.95.65q-.55.85.5 1.6l1.3.1q-1.65 1.95-3.65 1.85-.35-1.25-1.25-2.45 1.9.3 3.1-1.1" fill-opacity=".502" fill-rule="evenodd" transform="translate(-44.05 -2.45)"/><path d="m59 52.5.55.15 2.9.4 5-.25-2.3-1.55q-4.2-3-4.55-8.65-4.75-3.95-7.65-10.15l-.25-.2Q50.65 29.2 48.55 28q-.25 3 .7 6.8l.4 2.35q.7 2.5 1.55 4.6 2.5 6.2 7.8 10.75m-8.45-26.95-.9.95 1.8 1.75q2.1 2.05 2.9 4.6 1.85 3.05 3.85 5.5 4.55 1.45 15.1-6.8.15-.15.3-.15-7.95-14.65-23.05-5.85m27 23.45-7-1.05q-4.85-1.65-8.6-4.35.05 3.8 2.5 6.3h.1l2.85 2.3q3.45-2.1 6.95-1l.4.15 1.55-1L77.55 49M75.8 36.7l-.8.7q-1.55 1.3-2.75 1.45-3.2.4-6.2-1.45l-.05.05-1.3.8q-3.15 1.95-5.35 1.45 3.9 4.25 8.85 6.4 1.9-.3 9.3-4.35l-.15-.6-1.55-4.45m-2-4.95h-.05L67.7 36.4q3.9 2.8 6.9.75l1.1-.75-.75-2.15-1.15-2.5m3.85 10.6-.7.4-6.95 4.1q3.65 1.35 7.85 1.55.8-2.25-.2-6.05m-8.8 10.4h1.65q1.8 0 3.95-1.2-3.2-.55-5.6 1.2" fill="#dcfd42" fill-rule="evenodd" transform="translate(-44.05 -2.45)"/><path d="M59.55 52.65 59 52.5q2.7 2.3 6.15 4.25 4.2 1.7 8.85 1.85 3.2.3 6.45 3.15v-.1q.5-1.75-.15-4.45l9 .3q2.95-.65 5.65 1.6l.25.2q-.2-.95.35-3.55Q96.6 51 93.45 43.7q-3.95-8.6-10.9-11.8 3.2-1.7 5.4-1.15-1.05-3.05-2.45-4.7Q73.15 9.7 58.4 16.6q-5.8 2.9-9 9.7l.25.2.9-.95q10.1-10.8 20.55-3.65l.15.2q4.05 4 6.9 7.75h.15l1 .5-1.05-.35q4 5.25 5.5 9.85 2.65-.25 4.75.55l-4.65-.3q.65 2.4.75 4.7l2 .35q2.8.55 4.5 1.45-1.7-.7-4.1-.95.2 1.9 1.85 3.05l.8.6q2.3 1.4 3.85 4.05-1.3-2.25-3.7-3.4-3.35-2.2-3.9-4.4h-.3l-1-.3q0 2.05-.65 3.95 3.65.9 5.45 2.85l2.6 3.5-1.35-1.75q-2.45-3.2-6.75-4.25-.85 2.35-2.7 4.4L82.75 55l-1.6-.95-.85.95q-8.95 4.9-20.75-2.35" fill="#518602" fill-rule="evenodd" transform="translate(-44.05 -2.45)"/><path d="M48.55 28q2.1 1.2 4.15 4.25l.25.2q2.9 6.2 7.65 10.15.35 5.65 4.55 8.65l2.3 1.55q2 1.15 4.4 2l.15.05q1.65.6 2.85 1.65-.4-1.25-4.9-2.95l-1.65-.75.45-.1.1.05q2.4-1.75 5.6-1.2l.8.15q2.95.75 5.9 2.35l1.6.95-1.55-1.05q-2.6-1.55-6-2.5l-.45-.1-.4-.15q-3.5-1.1-6.95 1l-2.85-2.3h-.1q-2.45-2.5-2.5-6.3 3.75 2.7 8.6 4.35l7 1.05h2.2l-.15.05 4.3.5q4.3 1.05 6.75 4.25L92 55.55l-2.6-3.5q-1.8-1.95-5.45-2.85l-5.55-.8h-.55q-4.2-.2-7.85-1.55l6.95-4.1.7-.4 1.3-.7q2.1 2.5 5.65 3.6l1 .3h.3q.55 2.2 3.9 4.4 2.4 1.15 3.7 3.4-1.55-2.65-3.85-4.05l-.8-.6Q87.2 47.55 87 45.65q2.4.25 4.1.95-1.7-.9-4.5-1.45l-2-.35q-2.55-.9-4.6-3.65 1.95-.8 3.85-1.05l4.65.3q-2.1-.8-4.75-.55-2.7.3-6 1.7l-.25.2q-7.4 4.05-9.3 4.35-4.95-2.15-8.85-6.4 2.2.5 5.35-1.45l1.3-.8.05-.05q3 1.85 6.2 1.45 1.2-.15 2.75-1.45l.8-.7q1.45-1.25 3-1.4-.9-.3-3.1 1.1l-1.1.75q-3 2.05-6.9-.75l6.05-4.65h.05q2.4-2.05 4.35-1.75h.1l1.05.35-1-.5h-.15q-1.9-.35-4.55 1.55-.15 0-.3.15-10.55 8.25-15.1 6.8-2-2.45-3.85-5.5-.8-2.55-2.9-4.6l-1.8-1.75-.25-.2q-2.4-1.7-4.15-1.15-1 .75.15 2.15 1.55-.15 3.15.7" fill="#364800" fill-rule="evenodd" transform="translate(-44.05 -2.45)"/><path d="m67.45 52.8-5 .25-2.9-.4Q71.35 59.9 80.3 55l.85-.95q-2.95-1.6-5.9-2.35l-.8-.15q-2.15 1.2-3.95 1.2h-1.65l-.1-.05-.45.1 1.65.75q4.5 1.7 4.9 2.95-1.2-1.05-2.85-1.65l-.15-.05q-2.4-.85-4.4-2m13.75 1.15q1.85-2.05 2.7-4.4l-4.3-.5.05-.05h-2.1l-1.25 1.35-1.55 1 .45.1q3.4.95 6 2.5m2.75-4.75q.65-1.9.65-3.95-3.55-1.1-5.65-3.6l-1.3.7q1 3.8.2 6.05h.55l5.55.8m.65-4.4q-.1-2.3-.75-4.7-1.9.25-3.85 1.05 2.05 2.75 4.6 3.65m-.85-4.95q-1.5-4.6-5.5-9.85h-.1q-1.95-.3-4.35 1.75l1.15 2.5.75 2.15q2.2-1.4 3.1-1.1-1.55.15-3 1.4l1.55 4.45.15.6.25-.2q3.3-1.4 6-1.7m-5.6-10q-2.85-3.75-6.9-7.75l-.15-.2q-10.45-7.15-20.55 3.65 15.1-8.8 23.05 5.85 2.65-1.9 4.55-1.55" fill="#8ba916" fill-rule="evenodd" transform="translate(-44.05 -2.45)"/><path d="M14.95 50.05q-5.3-4.55-7.8-10.75-.85-2.1-1.55-4.6l-.4-2.35q-.95-3.8-.7-6.8-1.6-.85-3.15-.7-1.15-1.4-.15-2.15 1.75-.55 4.15 1.15 3.2-6.8 9-9.7 14.75-6.9 27.1 9.45 1.4 1.65 2.45 4.7-2.2-.55-5.4 1.15 6.95 3.2 10.9 11.8 3.15 7.3 2.1 12.05-.55 2.6-.35 3.55l-.25-.2q-2.7-2.25-5.65-1.6l-9-.3q.65 2.7.15 4.45v.1q-3.25-2.85-6.45-3.15Q25.3 56 21.1 54.3q-3.45-1.95-6.15-4.25z" fill="none" stroke="#364800" stroke-linecap="round" stroke-linejoin="round" stroke-width="1.5"/></g><g id="g"><path d="M57.75 3.4q2.15 1.35 4.1 3.25 5.2 5.2 6.3 12.1l.3 3.85-.05.2q.65 5.25 2.65 9.45l1.8 3.25q3.8 7.65 3.9 16.9l-.3 3.95.05.15q-.25 2.8-.9 5.4L73.9 67l-.65 1.55-.75 1.5-7 9.4-.1.1-5.2 4.4-1.85 1.2Q67.4 78 71.25 68.7l.05-.1q6.15-15.45-1-30.55Q63.2 24.6 53.25 21.1q-4.05-1.45-2.8-2.4l9.45.3q8.25-4.9-2.2-15.55l.05-.05" fill="#e68a01" fill-rule="evenodd" transform="translate(1.5 1.45)"/><path d="m57.75 3.4-.05.05Q68.15 14.1 59.9 19l-9.45-.3q-1.25.95 2.8 2.4 9.95 3.5 17.05 16.95 7.15 15.1 1 30.55l-.05.1Q67.4 78 58.35 85.15q-3.4 2.15-7.15 3.45l-3.1.95q-4.65 1.15-9.7 1.2h-.1q-5.4 0-10.2-1.3-4.85-1.4-9.15-4l-2.45-1.5-1.95-1.55-3.25-2.95-2.5-2.7-3.6-5.1Q2.65 67.4 1.35 62.6.1 57.75.05 52.4q0-7 2.25-13.2l.3-.85q1.5-3.7 3.75-7.15l1.75-2.15q1.4-2 3.2-3.75 1.65-1.7 3.55-3.1l1.9-1.45 1.3-.85q3.9-2.85 8.5-9l.25-.4.1-.2.85-1.15.9-1.15 1.2-1.3.05-.05 1.8-1.6.6-.5Q38.15 0 45.9 0q3.7.05 6.95 1.05l.1.05 3.75 1.55.8.55.1.1.15.1M48.9 14.25l.05.05q3.85 3.5 7.15 3.5 3.4-.45 3.35-3.05l-.1-.1q-1.1-5.55-7.85-9.4Q46.85 2.8 41.15 3.6q-8.4 1.3-7.95 5.9-.05 1.85 1.95 2.4l1.15.4q2.3.45 6.7-.1 3.25-.6 5.9 2.05M60.75 29.2q-5-4.95-10.8-7.6Q43.7 19 36.3 18.95q-9.95 0-18.05 4.85-3.7 2.2-7.05 5.5Q6.55 34 4.05 39.45l-.5 1.05q-1.6 3.7-2.2 7.85l-.4 3.5h.2l.15 3.6q.35 3.25 1.1 6.25 1.15 3.9 3.1 7.4l3.55 5.05 2.5 2.75q2.25 2.3 4.75 4.05l.6.45 2.3 1.45q7.8 4.5 17.45 4.45 12.1 0 21.25-7.1l2.05-1.85q3.15-3.15 5.3-6.65 5.1-8.2 5.05-18.4.05-12.3-7.25-21.5l-2.3-2.6" fill="#ddbe2d" fill-rule="evenodd" transform="translate(1.5 1.45)"/><path d="M48.9 14.25Q46.25 11.6 43 12.2q-4.4.55-6.7.1l-1.15-.4q-2-.55-1.95-2.4-.45-4.6 7.95-5.9 5.7-.8 10.35 1.65 6.75 3.85 7.85 9.4l.1.1q.05 2.6-3.35 3.05-3.3 0-7.15-3.5l-.05-.05M60.75 29.2l2.3 2.6q7.3 9.2 7.25 21.5.05 10.2-5.05 18.4-2.15 3.5-5.3 6.65L57.9 80.2q-9.15 7.1-21.25 7.1-9.65.05-17.45-4.45l-2.3-1.45-.6-.45q-2.5-1.75-4.75-4.05l-2.5-2.75L5.5 69.1q-1.95-3.5-3.1-7.4-.75-3-1.1-6.25l-.15-3.6h-.2l.4-3.5q.6-4.15 2.2-7.85l.5-1.05Q6.55 34 11.2 29.3q3.35-3.3 7.05-5.5 8.1-4.85 18.05-4.85 7.4.05 13.65 2.65 5.8 2.65 10.8 7.6" fill="#f9d355" fill-rule="evenodd" transform="translate(1.5 1.45)"/><path d="m30.15 9.45 1.2-1.3.05-.05 1.8-1.6" fill="none" stroke="#fff" stroke-linecap="round" stroke-linejoin="round" stroke-width="9"/><path d="M13.05 30.7q8.75-8.75 21.15-8.75 12.35-.05 21.15 8.75 8.75 8.75 8.75 21.15-.05 12.35-8.8 21.1-8.8 8.8-21.1 8.8-12.4 0-21.15-8.75-8.8-8.8-8.75-21.15-.05-12.35 8.75-21.15" fill-rule="evenodd" transform="translate(1.5 1.45)"/><path d="M13 30.65q-8.8 8.8-8.75 21.15 0 12.4 8.75 21.15 8.8 8.8 21.15 8.75 12.35.05 21.15-8.75 8.75-8.75 8.75-21.15.05-12.35-8.75-21.15-8.75-8.75-21.15-8.75-12.4 0-21.15 8.75z" fill="none" stroke="url(#f)" stroke-linecap="round" stroke-linejoin="round" stroke-width="5" transform="translate(1.5 1.45)"/><path d="m51.9.95-.5-.1-3.7-.3q-7.7 0-13.6 4.5-1.2 1-2.3 2.3l-.1.1q-3.15 4.45 0 6.5 1.4.8 2.55 1.05 1.1.2.15.95-1.5 1.2-3.2 1.2l-3.7.5-2.3.7-.4.2-.85.35-.8.3-.45.25q-6.1 2.7-10.4 7.2l-.85.85-.2.3-1.4 1.7-1.7 2.2Q5.6 35.55 4.1 39.75q-2.2 6.1-2.2 13.1v1.5q.15 3.05.65 5.95l.65 2.75q2.5 9.5 9.9 16.9 7.45 7.45 16.9 10-10.65-2.25-18.8-10.4Q3.75 72.1 1.25 62.6L.6 59.85q-.5-2.9-.55-5.95L0 52.45q0-7 2.15-13.15 1.55-4.25 4.15-8.05L7.95 29q1.5-1.9 3.25-3.65 1.7-1.7 3.55-3.15l1.85-1.45 1.35-.85q3.9-2.8 8.5-8.9l.45-.65q1.25-1.95 2.95-3.65l2.35-2.05Q38.05.1 45.8.05l3.75.35 2.35.55" fill="#fff" fill-rule="evenodd" transform="translate(1.5 1.45)"/><path d="M69.55 20.25q-1.1-6.9-6.3-12.1-1.9-1.9-4-3.2l-.05-.05q-5.95-3.35-11.9-3.4-7.75.05-13.6 4.6l-2.35 2.05q-1.7 1.7-2.95 3.65l-.45.65q-4.6 6.1-8.5 8.9l-1.35.85-1.85 1.45Q14.4 25.1 12.7 26.8q-1.75 1.75-3.25 3.65L7.8 32.7q-2.6 3.8-4.15 8.05Q1.5 46.9 1.5 53.9q0 5.3 1.25 10.15 2.5 9.5 9.95 16.95 11.2 11.2 27.1 11.2 6.8 0 12.8-2.1 7.9-2.7 14.3-9.1 9.75-9.75 11.05-23.05v-.1l.15-3.95q.05-9.25-3.8-16.9l-1.75-3.15q-2-4.3-2.7-9.6v-.2l-.3-3.8z" fill="none" stroke="#5e2d0d" stroke-linecap="round" stroke-linejoin="round" stroke-width="3"/><path d="M16.7 33.1q7.9-7.9 19.05-7.85Q46.9 25.2 54.8 33.1q7.9 7.9 7.85 19.05.05 11.15-7.85 19.05-7.9 7.9-19.05 7.85-11.1 0-19-7.9t-7.9-19Q8.8 41 16.7 33.1" fill="#333" fill-rule="evenodd" transform="translate(1.5 1.45)"/><path d="M29.45 29.25q7.35 7.35 7.3 17.7.05 10.35-7.3 17.7-4.6 4.6-10.4 6.35l-1.55-1.45q-7.3-7.3-7.35-17.7 0-10.3 7.35-17.65 4.65-4.6 10.45-6.35l1.5 1.4" fill="#fff" fill-opacity=".502" fill-rule="evenodd" transform="translate(1.5 1.45)"/><path d="M6.1 51.85Q6.15 40.2 14.35 32q8.3-8.3 19.9-8.3 11.65-.05 19.95 8.25 8.25 8.25 8.25 19.95 0 11.6-8.3 19.9-8.2 8.2-19.85 8.25-11.7 0-19.95-8.25-8.3-8.3-8.25-19.95" fill="#fff" fill-opacity="0" fill-rule="evenodd" transform="translate(1.5 1.45)"/></g><g id="d"><path d="M52.6 18.05q.4-5.35-3-9.75Q40.65-2.6 23.15.85q-1.9.3-4.15 1.5 2.05.75 3.9 3.2-7.15-1.5-14.4 1.5-5.9 2.65-7.1 5.9Q.65 14.6 0 15.1l.3-.05.05.05q3.2-.05 5.3 1.75L7.2 18q2.75 1.9 5.95 2.95-1.7 1.2-2.15 2.4v.05q3.95-.05 6.75 1.3 3.85 2.05 8 3.15l.9.1 6.1.3-.55-.05-5.55-1q-8.55-2.15-12.45-7.55l-.25-.95-1.75-.15 1.7.1-.15-.65q-.3-1.7 0-3.15-4-1.45-7.5-.7l-1.85.3 3.65-.8q2.4-.2 5.8 1 .35-1.35 1.25-2.55l-.9-.3-.3-.05q-1.45.95-5.2.55l-4.55.2q2.4-.8 5-.55l.9.1q1.9.1 2.95-.85-2.15-.95-3.85-1.4 1.85.3 4.4 1.35l1.75.65q1.1-1.2 2.85-2.2-1.8-1.35-4-2.05 2.05.5 4.1 1.95 3.35-1.85 9-3l-1.05-.3 1.05.2.15.05 9.25-1.1h.2q11.8.85 15.1 11.75l.25.95h.4" fill="#518602" fill-rule="evenodd" transform="translate(.75 .75)"/><path d="M52.6 18.05h-.4l-2.1.15q-2.75.15-4.6 1.2-2.85.85-5.65 1.3-4.35-1.35-9.25-11l-.15-.2Q29.1 7.15 27.4 6.45l-.15-.05-1.05-.2 1.05.3.1.05q1.75.75 2.75 3.05l.05.05q1.2 2.75 2.85 5.45-4.45-.25-5.95-2.9l-.6-.85Q25.3 9.5 24.4 9.25q1.2.8 1.8 2.2l.35.75q.7 1.45 1.55 2.15 2.5 1.7 5.75 2.15h.05l.7 1.05q1.7 2.65 3.75 3.3l-10.2-.45-1.5-1.6L26 18l-3.5-4.5-.2-.2q-1.95-2.35-4.05-3.8-2.05-1.45-4.1-1.95 2.2.7 4 2.05l2.55 2.35-5.4-.15-1.75-.65Q11 10.1 9.15 9.8q1.7.45 3.85 1.4-1.05.95-2.95.85l-.9-.1q-2.6-.25-5 .55l4.55-.2q3.75.4 5.2-.55l.3.05.9.3q3.4 1.1 6.25.65l.8 1.05.35.5 3.85 5.6q-2.65-.7-5.3-1.9l-1.85-.9-.45-.25q-2.7-1.45-4.9-2.2-3.4-1.2-5.8-1l-3.65.8 1.85-.3q3.5-.75 7.5.7 1.85.65 3.75 1.75l-.05-.05.1.05 1.65.95.85.45 5.35 2.3 1.25.35q4 1.05 7.8 1.3-1.8 2.15-4.95 2.35h-.1l-2.75-.1-.65-.05q-1.85-2.8-5.2-3.8l-.45-.15-.35-.1q-3.25-1.1-6.1-1.45l-1.7-.1 1.75.15q3.15.55 5.9 1.5l.7.3q2.85 1.2 4 3.25l.1.1.35.25-1.65-.35q-4.5-1.2-5.35-.65l3 .4h.2l4.55 1 .9.1 1.65.15q4.8.2 7.7-2.75 5.65 0 10.8-2.15h.35l5.35-.45q1.65.25 2.85 1.05 1.6-.25 1.15-1.1-1.2-1.15-3.9-1.3" fill="#364800" fill-rule="evenodd" transform="translate(.75 .75)"/><path d="M51.95 17.1q-3.3-10.9-15.1-11.75h-.2l-9.25 1.1q1.7.7 3.05 3.05 13.1-4.5 21.5 7.6M27.25 6.5q-5.65 1.15-9 3 2.1 1.45 4.05 3.8l.2.2.45-.25 3.25-1.8q-.6-1.4-1.8-2.2.9.25 2.05 2.1L28 10.5l2.1-.9q-1-2.3-2.75-3.05l-.1-.05m-9.1 3.1q-1.75 1-2.85 2.2l5.4.15-2.55-2.35m-3.05 2.5q-.9 1.2-1.25 2.55 2.2.75 4.9 2.2l.45.25q.35-1.7 2.95-3.3l-.8-1.05q-2.85.45-6.25-.65m-1.35 2.75q-.3 1.45 0 3.15l.15.65q2.85.35 6.1 1.45l.35.1-.7-1.25-.45-.95v-.45l-1.65-.95h-.05q-1.9-1.1-3.75-1.75m.2 3.85.25.95q3.9 5.4 12.45 7.55l5.55 1q-1.3-.4-2.5-1.2l-3.05-1.9-.9-.6-4.55-1H21l-3-.4q.85-.55 5.35.65l1.65.35-.35-.25-.1-.1L23.2 23q-1.45-.85-2.65-2.5l-.7-.3q-2.75-.95-5.9-1.5" fill="#8ba916" fill-rule="evenodd" transform="translate(.75 .75)"/><path d="m52.2 18.05-.25-.95Q43.55 5 30.45 9.5l.15.2q4.9 9.65 9.25 11 2.8-.45 5.65-1.3 1.85-1.05 4.6-1.2l2.1-.15m-20 10.15.55.05q6.45 0 11.3-2.3l3.35-1.85 1.45-1.2q2.45-1.65 3.65-3.5l-5.35.45h-.35Q41.65 22 36 22q-2.9 2.95-7.7 2.75l-1.65-.15-.9-.1.9.6L29.7 27q1.2.8 2.5 1.2m-9.7-14.7L26 18l.65.8 1.5 1.6 10.2.45q-2.05-.65-3.75-3.3l-.7-1.05h-.05q-3.25-.45-5.75-2.15-.85-.7-1.55-2.15l-.35-.75-3.25 1.8-.45.25m3.95-2.15.6.85q1.5 2.65 5.95 2.9-1.65-2.7-2.85-5.45l-.05-.05-2.1.9-1.55.85M19.2 17.1l1.85.9q2.65 1.2 5.3 1.9l-3.85-5.6-.35-.5q-2.6 1.6-2.95 3.3m1.15 3.1.45.15q3.35 1 5.2 3.8l.65.05 2.75.1h.1q3.15-.2 4.95-2.35-3.8-.25-7.8-1.3l-1.25-.35-5.35-2.3-.85-.45V18l.45.95.7 1.25m.2.3q1.2 1.65 2.65 2.5l1.35.75q-1.15-2.05-4-3.25" fill="#dcfd42" fill-rule="evenodd" transform="translate(.75 .75)"/><path d="m33.5 29-6.1-.3-.9-.1q-4.15-1.1-8-3.15-2.8-1.35-6.75-1.3v-.05q.45-1.2 2.15-2.4-3.2-1.05-5.95-2.95L6.4 17.6q-2.1-1.8-5.3-1.75l-.05-.05-.3.05q.65-.5 1.4-2.15 1.2-3.25 7.1-5.9 7.25-3 14.4-1.5-1.85-2.45-3.9-3.2Q22 1.9 23.9 1.6q17.5-3.45 26.45 7.45 3.4 4.4 3 9.75 2.7.15 3.9 1.3.45.85-1.15 1.1-1.2-.8-2.85-1.05-1.2 1.85-3.65 3.5l-1.45 1.2-3.35 1.85Q39.95 29 33.5 29z" fill="none" stroke="#364800" stroke-linecap="round" stroke-linejoin="round" stroke-width="1.5"/></g><g id="e"><path d="M14.75 5.55 15 7.2v.3q0 3.1-2.2 5.3Q10.55 15 7.5 15q-3.1 0-5.3-2.2l-.45-.5L.6 10.5Q0 9.1 0 7.5q0-3.1 2.2-5.3Q4.4 0 7.5 0q3.05 0 5.3 2.2 1.45 1.45 1.95 3.35" fill="#fff" fill-rule="evenodd" transform="translate(.75 .75)"/><path d="m15.5 6.3.25 1.65v.3q0 3.1-2.2 5.3-2.25 2.2-5.3 2.2-3.1 0-5.3-2.2l-.45-.5-1.15-1.8q-.6-1.4-.6-3 0-3.1 2.2-5.3 2.2-2.2 5.3-2.2 3.05 0 5.3 2.2Q15 4.4 15.5 6.3z" fill="none" stroke="#990" stroke-linecap="round" stroke-linejoin="round" stroke-width="1.5"/></g><linearGradient gradientTransform="matrix(-.0319 -.0051 -.006 .0373 35.25 51.9)" gradientUnits="userSpaceOnUse" id="f" spreadMethod="pad" x1="-819.2" x2="819.2"><stop offset="0" stop-color="#fff" stop-opacity="0"/><stop offset="1" stop-color="#fff"/></linearGradient><use ffdec:characterId="129" height="93.7" width="79.6" xlink:href="#g" id="c"/></defs></svg>