<svg xmlns:ffdec="https://www.free-decompiler.com/flash" xmlns:xlink="http://www.w3.org/1999/xlink" ffdec:objectType="frame" height="40.05" width="43.9" xmlns="http://www.w3.org/2000/svg"><g transform="translate(2.1 3)"><use ffdec:characterId="216" height="47.1" transform="translate(-.358 -.358) scale(.7158)" width="47.1" xlink:href="#a"/><use ffdec:characterId="218" height="40" transform="matrix(.9486 0 0 .925 -2.1 -3)" width="37.95" xlink:href="#b"/></g><defs><use ffdec:characterId="215" height="47.1" width="47.1" xlink:href="#c" id="a"/><use ffdec:characterId="217" height="40" width="37.95" xlink:href="#d" id="b"/><path d="M37.95 0v40H0V0h37.95" fill-opacity=".004" fill-rule="evenodd" id="d"/><g id="c"><path d="M38 8.1q-6.2-6.2-15-6.2T7.95 8.1q-6.2 6.3-6.2 15 0 8.8 6.2 15Q14.2 44.3 23 44.3t15-6.2q6.25-6.2 6.25-15 0-8.7-6.25-15m1.3-1.4q6.8 6.8 6.8 16.3 0 9.6-6.8 16.3-6.7 6.8-16.25 6.8-9.6 0-16.35-6.8Q0 32.6 0 23q0-9.5 6.7-16.3Q13.45 0 23.05 0 32.6 0 39.3 6.7" fill="#caffc2" fill-rule="evenodd" transform="translate(.5 .5)"/><path d="M35.8 10.3Q30.5 5 23 5q-7.55 0-12.85 5.3-5.3 5.35-5.3 12.8 0 7.5 5.3 12.8 5.3 5.3 12.85 5.3 7.5 0 12.8-5.3 5.35-5.3 5.35-12.8 0-7.45-5.35-12.8M38 8.1q6.25 6.3 6.25 15 0 8.8-6.25 15-6.2 6.2-15 6.2T7.95 38.1q-6.2-6.2-6.2-15 0-8.7 6.2-15Q14.2 1.9 23 1.9t15 6.2" fill="#7bca4a" fill-rule="evenodd" transform="translate(.5 .5)"/><path d="m36.7 32.25.05-.1q2.75-3.85 2.75-9.05 0-6.8-4.85-11.65-4.8-4.8-11.65-4.8-5 0-8.9 2.55-1.45.95-2.75 2.25Q6.5 16.3 6.5 23.1q0 6.8 4.85 11.6 4.8 4.85 11.65 4.85 6.85 0 11.65-4.85l2.05-2.45m-.9-21.95q5.35 5.35 5.35 12.8 0 7.5-5.35 12.8-5.3 5.3-12.8 5.3-7.55 0-12.85-5.3t-5.3-12.8q0-7.45 5.3-12.8Q15.45 5 23 5q7.5 0 12.8 5.3" fill="#346512" fill-rule="evenodd" transform="translate(.5 .5)"/><path d="M14.1 9.2Q18 6.65 23 6.65q6.85 0 11.65 4.8Q39.5 16.3 39.5 23.1q0 5.2-2.75 9.05l-.05.1q-7.75 1.9-14.45 0-13.4-3.9-8.15-23.05" fill="#b9ddeb" fill-rule="evenodd" transform="translate(.5 .5)"/><path d="m36.7 32.25-2.05 2.45q-4.8 4.85-11.65 4.85-6.85 0-11.65-4.85Q6.5 29.9 6.5 23.1t4.85-11.65q1.3-1.3 2.75-2.25-5.25 19.15 8.15 23.05 6.7 1.9 14.45 0" fill="#d9f7f9" fill-rule="evenodd" transform="translate(.5 .5)"/><path d="M14.1 9.2Q18 6.65 23 6.65q6.85 0 11.65 4.8Q39.5 16.3 39.5 23.1q0 5.2-2.75 9.05l-.05.1-2.05 2.45q-4.8 4.85-11.65 4.85-6.85 0-11.65-4.85Q6.5 29.9 6.5 23.1t4.85-11.65q1.3-1.3 2.75-2.25m25.2-2.5q6.8 6.8 6.8 16.3 0 9.6-6.8 16.3-6.7 6.8-16.25 6.8-9.6 0-16.35-6.8Q0 32.6 0 23q0-9.5 6.7-16.3Q13.45 0 23.05 0 32.6 0 39.3 6.7z" fill="none" stroke="#0f4f15" stroke-linecap="round" stroke-linejoin="round" transform="translate(.5 .5)"/><path d="m29.8 12.15.35.45-.25-.2-.05-.1-.05-.15m-4.6 14.2-.25.2.2-.2h.05M15.1 12.4l.05-.1.05-.05-.1.15" fill="#930" fill-rule="evenodd" transform="translate(.5 .5)"/><path d="M30.4 13.1q.9 2.2.75 3.35v.9l-.05.45h-.05l.1-.45-.1.45q-1.15 4.25-3.2 6.55l-.8.8-.9.6-.25.15-.25.2-.45.25h-.05l-2.2-3.2 2.1-2.35q1.9-2.8 1.1-4.85-.3-.9-1.25-1.6-1.95-1.25-5.05-.05l-.3.3-.6.95q-.75 1.65.2 3.75l.15.25-.15.85q-.55 1.2-3.3 1.85h-.05q-.75-.95-1.2-2.2V20l-.05-.2-.1-.25v-.1l-.1-.25v-.15q-.25-1.25-.25-2.75v-.25l.2-1.65.05-.25.75-1.7v-.05l.1-.15.1-.1v-.1l.05-.05-.65 3.3q-.35 3.65 1.1 5h.7q1.85-.3 1.8-2.95-.2-1.1.2-2.2.8-2.2 3.9-2l1 .15q1.25.3 2.05.85 2.6 1.9.45 6.75-.5 1.5.25 3 1.45-.8 3.15-4.25 1.75-3.4.55-7.35l.05.1.25.2v.05l.2.45h.05m-15.95 6.35-.1-.4.1.4m1.4 2.8q-.8-.95-1.25-2.25.45 1.3 1.25 2.25m5.7 8.75q.9-1 2.2-1 1.3 0 2.2 1 .95.9.95 2.2 0 1.25-.95 2.2-.9.95-2.2.95-1.3 0-2.2-.95-.95-.95-.95-2.2 0-1.3.95-2.2m.4.45q-.7.7-.7 1.75t.7 1.75q.8.85 1.8.85t1.8-.85q.75-.7.75-1.75t-.75-1.75q-.8-.75-1.8-.75t-1.8.75m3.25-5.1.7-.45-.7.45" fill="#dc1b37" fill-rule="evenodd" transform="translate(.5 .5)"/><path d="M29.1 11.45h.05l.15.15.1.1.3.3.05.1.05.05.05.15q1.2 3.95-.55 7.35-1.7 3.45-3.15 4.25-.75-1.5-.25-3 2.15-4.85-.45-6.75-.8-.55-2.05-.85l-1-.15q-3.1-.2-3.9 2-.4 1.1-.2 2.2.05 2.65-1.8 2.95h-.7q-1.45-1.35-1.1-5l.65-3.3v-.05h.05l.05-.1.15-.25.05-.05h.1l.15-.15.05-.05.05-.05.1-.15.35-.25.15-.2.15-.05q2.1-1.5 5.6-1.5 3.5 0 5.9 1.55l.85.75.2.15-.2-.15m.4 2.2q0-.55-.4-1.05-.45-.4-1-.4t-1 .4q-.5.5-.5 1.05 0 .6.5 1.05.45.45 1 .45t1-.45q.4-.45.4-1.05M16.45 10.9l.3-.25-.3.25m8 20.4q-.5 0-.8.35-.3.35-.3.75 0 .45.3.75l.8.3.7-.3.3-.75-.3-.75q-.25-.35-.7-.35m-2.5.15q.8-.75 1.8-.75t1.8.75q.75.7.75 1.75t-.75 1.75q-.8.85-1.8.85t-1.8-.85q-.7-.7-.7-1.75t.7-1.75" fill="#fd2626" fill-rule="evenodd" transform="translate(.5 .5)"/><path d="m24.95 26.55-.05.05h-.15l-.3.2-.7.4-3.15-3.9q2.45-1.1 3.85-3.05 1.3-1.75 1.3-3.45 0-2.45-3.4-2.45-2.9 0-2.9 1.7l.1 2.05q.2 1.35 1.2 2.4L17 23.3l-1.2-1.05h.05q2.75-.65 3.3-1.85l.15-.85-.15-.25q-.95-2.1-.2-3.75l.6-.95.3-.3q3.1-1.2 5.05.05.95.7 1.25 1.6.8 2.05-1.1 4.85l-2.1 2.35 2.2 3.2-.2.2M17 23.3l-1.15-1.05L17 23.3m6.75 6.4q1.4 0 2.4 1 1.05 1.05 1.05 2.5t-1.05 2.45q-1 1-2.4 1-1.45 0-2.5-1-1-1-1-2.45 0-1.45 1-2.5 1.05-1 2.5-1m-2.2 1.3q-.95.9-.95 2.2 0 1.25.95 2.2.9.95 2.2.95 1.3 0 2.2-.95.95-.95.95-2.2 0-1.3-.95-2.2-.9-1-2.2-1-1.3 0-2.2 1" fill="#bd1739" fill-rule="evenodd" transform="translate(.5 .5)"/><path d="M31.05 17.8q-.4 3.9-3.2 6.55 2.05-2.3 3.2-6.55m-1.55-4.15q0 .6-.4 1.05-.45.45-1 .45t-1-.45q-.5-.45-.5-1.05 0-.55.5-1.05.45-.4 1-.4t1 .4q.4.5.4 1.05M24.45 31.3q.45 0 .7.35l.3.75-.3.75-.7.3-.8-.3q-.3-.3-.3-.75 0-.4.3-.75t.8-.35" fill="#fff" fill-rule="evenodd" transform="translate(.5 .5)"/><path d="m16.75 10.65-.3.25" fill="none" stroke="#320101" stroke-linecap="round" stroke-linejoin="round" transform="translate(.5 .5)"/><path d="m29.3 11.6.1.1.3.3.05.1.05.05.05.15.05.1.25.2.1.1.15.4q.9 2.2.75 3.35v.9l-.05.45m-.05 0q-.4 3.9-3.2 6.55l-.8.8-.9.6-.25.15-.7.45-.25.2-.05.05h-.15l-.3.2-.7.4-3.15-3.9q2.45-1.1 3.85-3.05 1.3-1.75 1.3-3.45 0-2.45-3.4-2.45-2.9 0-2.9 1.7l.1 2.05q.2 1.35 1.2 2.4L17 23.3l-1.15-1.05q-.8-.95-1.25-2.25l-.05-.2-.1-.25m-.1-.5q-.25-1.25-.25-2.75v-.25l.2-1.65.05-.25q.25-1 .75-1.75l.1-.15.1-.1v-.1l.05-.05v-.05h.05l.05-.1.15-.25.05-.05h.1l.15-.15.05-.05.05-.05.1-.15.35-.25.15-.2.15-.05q2.1-1.5 5.6-1.5 3.5 0 5.9 1.55l.85.75.2.15m-14.15.7.05-.05m14.95.35v.05l.2.45h.05m.75 4.25-.1.45M15.1 12.45l-.75 1.7m0 4.9.1.4m9.3 10.25q1.4 0 2.4 1 1.05 1.05 1.05 2.5t-1.05 2.45q-1 1-2.4 1-1.45 0-2.5-1-1-1-1-2.45 0-1.45 1-2.5 1.05-1 2.5-1z" fill="none" stroke="#860202" stroke-linecap="round" stroke-linejoin="round" transform="translate(.5 .5)"/></g></defs></svg>