<svg xmlns:ffdec="https://www.free-decompiler.com/flash" xmlns:xlink="http://www.w3.org/1999/xlink" ffdec:objectType="frame" height="37.85" width="78.55" xmlns="http://www.w3.org/2000/svg"><g transform="translate(3.5 1.65)"><use clip-path="url(#clip1)" transform="translate(-1 -1)" xlink:href="#a" ffdec:characterId="9"/><use ffdec:characterId="12" height="30.95" transform="translate(13.143 5.693) scale(.7569)" width="60.3" xlink:href="#b"/></g><defs><linearGradient gradientTransform="matrix(0 -.0198 .0217 0 34.75 16.25)" gradientUnits="userSpaceOnUse" id="c" spreadMethod="pad" x1="-819.2" x2="819.2"><stop offset="0" stop-color="#960"/><stop offset="1" stop-color="#6d0101"/></linearGradient><linearGradient gradientTransform="matrix(0 .018 -.0198 0 34.75 16.25)" gradientUnits="userSpaceOnUse" id="d" spreadMethod="pad" x1="-819.2" x2="819.2"><stop offset="0" stop-color="#ff8f12"/><stop offset=".816" stop-color="#b72704"/><stop offset="1" stop-color="#f43202"/></linearGradient><linearGradient gradientTransform="matrix(-.0034 -.0087 .012 -.0048 35.8 6.2)" gradientUnits="userSpaceOnUse" id="e" spreadMethod="pad" x1="-819.2" x2="819.2"><stop offset="0" stop-color="#ffc" stop-opacity=".302"/><stop offset="1" stop-color="#ffc" stop-opacity=".8"/></linearGradient><linearGradient gradientTransform="matrix(-.0027 -.0069 .0096 -.0038 42.65 7.25)" gradientUnits="userSpaceOnUse" id="f" spreadMethod="pad" x1="-819.2" x2="819.2"><stop offset="0" stop-color="#ffc" stop-opacity=".302"/><stop offset="1" stop-color="#ffc" stop-opacity=".8"/></linearGradient><linearGradient gradientTransform="matrix(-.0048 -.0119 .0166 -.0067 26.6 7.1)" gradientUnits="userSpaceOnUse" id="g" spreadMethod="pad" x1="-819.2" x2="819.2"><stop offset="0" stop-color="#ffc" stop-opacity=".302"/><stop offset="1" stop-color="#ffc" stop-opacity=".8"/></linearGradient><linearGradient gradientTransform="matrix(0 .0083 -.0161 0 -114.9 14.6)" gradientUnits="userSpaceOnUse" id="h" spreadMethod="pad" x1="-819.2" x2="819.2"><stop offset="0" stop-color="#ffc"/><stop offset="1" stop-color="#fee481"/></linearGradient><linearGradient gradientTransform="matrix(0 .0128 -.0189 0 29.2 14.5)" gradientUnits="userSpaceOnUse" id="i" spreadMethod="pad" x1="-819.2" x2="819.2"><stop offset="0" stop-color="#960"/><stop offset="1" stop-color="#6d0101"/></linearGradient><linearGradient gradientTransform="matrix(0 .0083 -.0161 0 -115.4 14.1)" gradientUnits="userSpaceOnUse" id="j" spreadMethod="pad" x1="-819.2" x2="819.2"><stop offset="0" stop-color="#ffc"/><stop offset="1" stop-color="#fee481"/></linearGradient><g id="k"><path d="m-1 9.7.05-1.25Q-.35-1 9.7-1h50.65q9.5.25 10.1 9.45l.05 1.25v13.1q0 10.45-10.15 10.7H9.7Q-1 33.5-1 22.8V9.7" fill="url(#c)" fill-rule="evenodd" transform="translate(1 1)"/><path d="M9.7 1h50.65q7.5.25 8.1 7.45l.05 1.25v13.1q0 8.45-8.15 8.7H9.7Q1 31.5 1 22.8V9.7l.05-1.25Q1.65 1 9.7 1" fill="url(#d)" fill-rule="evenodd" transform="translate(1 1)"/><path d="M10.7 2h50.65q7.5.25 8.1 7.45l.05 1.25v13.1q0 8.45-8.15 8.7H10.7Q2 32.5 2 23.8V10.7l.05-1.25Q2.65 2 10.7 2z" fill="none" stroke="#fc9" stroke-linecap="round" stroke-linejoin="round" stroke-width=".5"/><path d="M62.05 5.4q.6-.6 1.5-.6.85 0 1.45.6.65.65.65 1.5T65 8.35q-.6.65-1.45.65-.9 0-1.5-.65-.6-.6-.6-1.45t.6-1.5" fill="url(#e)" fill-rule="evenodd" transform="translate(1 1)"/><path d="m65.35 11.95-.65.25-.7-.25-.25-.7q0-.35.25-.65.3-.3.7-.3.35 0 .65.3l.3.65-.3.7" fill="url(#f)" fill-rule="evenodd" transform="translate(1 1)"/><path d="M3.55 25.9q0 2.7.85 4.6-3.6-2-3.6-7.6V9.8l.05-1.35Q1.5 1.1 9.5 1.1h50.1l.75.05q5.35.2 7.1 4.05-2-1.1-5.1-1.1h-50.1Q6.1 4.1 4.3 8.5q-.75 1.75-.75 4.3v13.1" fill="url(#g)" fill-rule="evenodd" transform="translate(1 1)"/></g><g id="b"><path d="m6.7 14.1 2.1.15q1.1.3 1.8 1.2 1 .95 1 5.4v1.05l-.3 2.7q-.5 1.45-1.6 2.15-1.15.85-3.35.85H5.6q-2.55 0-3.5-1.35-1.1-1.55-1.15-4 0-3.8 1.25-6.95L.5 13.75 3.85 8.1 1.2 7.8l.8-5 10.3 1.05L11.85 9l-3.1-.35-3.45 5.6 1.4-.15m-1.55 7.55.2 1.7q.3.45 1 .45.65 0 .85-.7.2-.5.2-2.55 0-1.95-.35-2.35l-.85-.25-.5.1q-.55 1.9-.55 3.6M46.1.5q.45 1.45 1.3 2.75l4.05-.2q2.9 0 4.55.75 1.7 1 1.8 3.1-.05 1.8-1.1 4.85l-4.05-.5-.25 2.85-5.9-.35.2 2.05 7.5-.35.5 4.25-7.5.4.3 2.05 9.1 1.4-1 4.65q-10.1-1-17.25-3.6L37.6 28l-4.8-1.1q1.2-6.45 3.7-12.2l4.8 1.1q-.9 2.1-1.65 4.3l2.6.8q-.45-3.7-.75-7.5l-4-.2.05-.5-3.9 1.3q-1.3-4.45-1.9-9.2l4.45-1.3.2 1.55 5.6-1.2-.6-1.45L46.1.5M23.8 3.7q1.65.95 1.65 3.05 0 1.05-.75 2.8 1.4.4 2.4 1.5 1.45 1.75 1.45 4.15v.65l-.5 6.15-1.2 6.35-4.15-.85.7-3.3-1.25.05.15 3.1-3.9.4-.15-3.15-1.3.15.35 3.25-4.4.45q-1.15-8.95-2.05-17.9l4.45-.5.05.5 1.55-.45 3.2-.6q.65-1.2.8-2.2 0-.55-1.35-.55-1.25.15-2.45.8l-.75 2.65-4.2-.95Q13.2 4.8 15.3.85l4.2.95-.65 1.25 1.55-.15q1.9 0 3.4.8m-1.55 9.5h-.65l.15 2.45 2.6.1q0-1.15-.5-1.8-.55-.75-1.6-.75m-6.4 1.9 1.9.2-.05-1.5-1.9.65.05.65m.65 6.1 1.55-.2-.1-2-1.7-.25.25 2.45m7.65-1.8-2.2-.1.05 1.35 2-.05.15-1.2m13.6-7.95.4-2.35-.95.25.55 2.1M39 8.9l13.5.75.35-1.65q0-.8-2.5-.8-6.2.4-11.35 1.7" fill="url(#h)" fill-rule="evenodd" transform="translate(1 1)"/><path d="m6.7 14.1 2.1.15q1.1.3 1.8 1.2 1 .95 1 5.4v1.05l-.3 2.7q-.5 1.45-1.6 2.15-1.15.85-3.35.85H5.6q-2.55 0-3.5-1.35-1.1-1.55-1.15-4 0-3.8 1.25-6.95L.5 13.75 3.85 8.1 1.2 7.8l.8-5 10.3 1.05L11.85 9l-3.1-.35-3.45 5.6 1.4-.15m-1.55 7.55.2 1.7q.3.45 1 .45.65 0 .85-.7.2-.5.2-2.55 0-1.95-.35-2.35l-.85-.25-.5.1q-.55 1.9-.55 3.6M46.1.5q.45 1.45 1.3 2.75l4.05-.2q2.9 0 4.55.75 1.7 1 1.8 3.1-.05 1.8-1.1 4.85l-4.05-.5-.25 2.85-5.9-.35.2 2.05 7.5-.35.5 4.25-7.5.4.3 2.05 9.1 1.4-1 4.65q-10.1-1-17.25-3.6L37.6 28l-4.8-1.1q1.2-6.45 3.7-12.2l4.8 1.1q-.9 2.1-1.65 4.3l2.6.8q-.45-3.7-.75-7.5l-4-.2.05-.5-3.9 1.3q-1.3-4.45-1.9-9.2l4.45-1.3.2 1.55 5.6-1.2-.6-1.45L46.1.5M23.8 3.7q1.65.95 1.65 3.05 0 1.05-.75 2.8 1.4.4 2.4 1.5 1.45 1.75 1.45 4.15v.65l-.5 6.15-1.2 6.35-4.15-.85.7-3.3-1.25.05.15 3.1-3.9.4-.15-3.15-1.3.15.35 3.25-4.4.45q-1.15-8.95-2.05-17.9l4.45-.5.05.5 1.55-.45 3.2-.6q.65-1.2.8-2.2 0-.55-1.35-.55-1.25.15-2.45.8l-.75 2.65-4.2-.95Q13.2 4.8 15.3.85l4.2.95-.65 1.25 1.55-.15q1.9 0 3.4.8m-1.55 9.5h-.65l.15 2.45 2.6.1q0-1.15-.5-1.8-.55-.75-1.6-.75m-6.4 1.9 1.9.2-.05-1.5-1.9.65.05.65m.65 6.1 1.55-.2-.1-2-1.7-.25.25 2.45m7.65-1.8-2.2-.1.05 1.35 2-.05.15-1.2m13.6-7.95.4-2.35-.95.25.55 2.1M39 8.9l13.5.75.35-1.65q0-.8-2.5-.8-6.2.4-11.35 1.7z" fill="none" stroke="url(#i)" stroke-linecap="round" stroke-linejoin="round" stroke-width="3" transform="translate(1 1)"/><path d="m6.2 13.6 2.1.15q1.1.3 1.8 1.2 1 .95 1 5.4v1.05l-.3 2.7q-.5 1.45-1.6 2.15-1.15.85-3.35.85H5.1q-2.55 0-3.5-1.35-1.1-1.55-1.15-4 0-3.8 1.25-6.95L0 13.25 3.35 7.6.7 7.3l.8-5 10.3 1.05-.45 5.15-3.1-.35-3.45 5.6 1.4-.15m-1.55 7.55.2 1.7q.3.45 1 .45.65 0 .85-.7.2-.5.2-2.55 0-1.95-.35-2.35l-.85-.25-.5.1q-.55 1.9-.55 3.6M45.6 0q.45 1.45 1.3 2.75l4.05-.2q2.9 0 4.55.75 1.7 1 1.8 3.1-.05 1.8-1.1 4.85l-4.05-.5-.25 2.85-5.9-.35.2 2.05 7.5-.35.5 4.25-7.5.4.3 2.05 9.1 1.4-1 4.65q-10.1-1-17.25-3.6l-.75 3.4-4.8-1.1q1.2-6.45 3.7-12.2l4.8 1.1q-.9 2.1-1.65 4.3l2.6.8q-.45-3.7-.75-7.5l-4-.2.05-.5-3.9 1.3q-1.3-4.45-1.9-9.2L35.7 3l.2 1.55 5.6-1.2-.6-1.45L45.6 0M23.3 3.2q1.65.95 1.65 3.05 0 1.05-.75 2.8 1.4.4 2.4 1.5 1.45 1.75 1.45 4.15v.65l-.5 6.15-1.2 6.35L22.2 27l.7-3.3-1.25.05.15 3.1-3.9.4-.15-3.15-1.3.15.35 3.25-4.4.45-2.05-17.9 4.45-.5.05.5 1.55-.45 3.2-.6q.65-1.2.8-2.2 0-.55-1.35-.55-1.25.15-2.45.8l-.75 2.65-4.2-.95Q12.7 4.3 14.8.35l4.2.95-.65 1.25 1.55-.15q1.9 0 3.4.8m-2.2 9.5.15 2.45 2.6.1q0-1.15-.5-1.8-.55-.75-1.6-.75h-.65m-5.75 1.9 1.9.2-.05-1.5q-1 .25-1.9.65l.05.65m.65 6.1 1.55-.2-.1-2-1.7-.25.25 2.45m5.45-1.9.05 1.35 2-.05.15-1.2-2.2-.1m15.8-7.85.4-2.35-.95.25.55 2.1M38.5 8.4l13.5.75.35-1.65q0-.8-2.5-.8-6.2.4-11.35 1.7" fill="url(#j)" fill-rule="evenodd" transform="translate(1 1)"/><path d="m55.2 4.1.75 1.55.35 1.4-.2.8-.75.6q-.75 0-.8-.7l.1-.7L54.4 6q-.35-.8-1-.85l-6.85-.35q-1-.05-1-.7 0-.5.65-.7l3.5-.15 4.5.15 1 .7m.1 5.65-.55.25q-.8 0-.8-.8 0-.75.8-.75t.8.8l-.25.5M42.05 23.2q0-.9 1.1-.7l2.55.8 4.7.65q1.4.1 1.4.8 0 .75-1.55.75-2.8 0-5.6-.85-2.6-.8-2.6-1.45m12.65 2.55-.9.25q-1 0-1-.8 0-.75 1.15-.85 1.1-.1 1.1.8l-.35.6M24.2 5.65l-.3 1.2q-.35.85-.9.85-.8 0-.8-.9l.2-.65.2-.4q0-.45-2.1-.85-2.15-.45-2.15-1.2 0-1.2 2.95-.45 2.9.8 2.9 2.4m3 11.3q-1 8-2.2 8-.8 0-.8-.9 1.4-6.15 1.4-7.05l-.2-1.35-.2-1.2q0-.8.55-1 .55-.25 1.1 1.15.35.55.35 2.35m-23.9 6.7q1.2.55 1.2 1.25l-.25.55-.55.25q-.7 0-1.2-.6l-.4-.8q0-1.2 1.2-.65m6.4-2.8q0 2.55-.35 3.45-.85 2.2-3.95 2.2-.8 0-.8-.85 0-.55 1.45-.85 1.6-.25 1.85-1.2l.2-2.85-.5-3.95q0-1.45.9-.75t1 1.6l.2 3.2m15.5 6.1-.55.25q-.5 0-.7-.4l-.1-.45q0-.75.8-.75t.8.8l-.25.55" fill="#fff" fill-rule="evenodd" transform="translate(1 1)"/></g><use ffdec:characterId="8" height="34.5" width="71.5" xlink:href="#k" id="a"/></defs></svg>