<svg xmlns:ffdec="https://www.free-decompiler.com/flash" xmlns:xlink="http://www.w3.org/1999/xlink" ffdec:objectType="frame" height="37.85" width="78.55" xmlns="http://www.w3.org/2000/svg"><g transform="translate(3.5 1.65)"><use clip-path="url(#clip1)" transform="translate(-1 -1)" xlink:href="#a" ffdec:characterId="9"/><use ffdec:characterId="10" height="30.45" transform="translate(12.719 5.867) scale(.7569)" width="61.5" xlink:href="#b"/></g><defs><linearGradient gradientTransform="matrix(0 -.0198 .0217 0 34.75 16.25)" gradientUnits="userSpaceOnUse" id="c" spreadMethod="pad" x1="-819.2" x2="819.2"><stop offset="0" stop-color="#960"/><stop offset="1" stop-color="#6d0101"/></linearGradient><linearGradient gradientTransform="matrix(0 .018 -.0198 0 34.75 16.25)" gradientUnits="userSpaceOnUse" id="d" spreadMethod="pad" x1="-819.2" x2="819.2"><stop offset="0" stop-color="#ff8f12"/><stop offset=".816" stop-color="#b72704"/><stop offset="1" stop-color="#f43202"/></linearGradient><linearGradient gradientTransform="matrix(-.0034 -.0087 .012 -.0048 35.8 6.2)" gradientUnits="userSpaceOnUse" id="e" spreadMethod="pad" x1="-819.2" x2="819.2"><stop offset="0" stop-color="#ffc" stop-opacity=".302"/><stop offset="1" stop-color="#ffc" stop-opacity=".8"/></linearGradient><linearGradient gradientTransform="matrix(-.0027 -.0069 .0096 -.0038 42.65 7.25)" gradientUnits="userSpaceOnUse" id="f" spreadMethod="pad" x1="-819.2" x2="819.2"><stop offset="0" stop-color="#ffc" stop-opacity=".302"/><stop offset="1" stop-color="#ffc" stop-opacity=".8"/></linearGradient><linearGradient gradientTransform="matrix(-.0048 -.0119 .0166 -.0067 26.6 7.1)" gradientUnits="userSpaceOnUse" id="g" spreadMethod="pad" x1="-819.2" x2="819.2"><stop offset="0" stop-color="#ffc" stop-opacity=".302"/><stop offset="1" stop-color="#ffc" stop-opacity=".8"/></linearGradient><linearGradient gradientTransform="matrix(0 .0083 -.0161 0 -228.65 14.25)" gradientUnits="userSpaceOnUse" id="h" spreadMethod="pad" x1="-819.2" x2="819.2"><stop offset="0" stop-color="#ffc"/><stop offset="1" stop-color="#fee481"/></linearGradient><linearGradient gradientTransform="matrix(0 .0144 -.0186 0 29.85 14.1)" gradientUnits="userSpaceOnUse" id="i" spreadMethod="pad" x1="-819.2" x2="819.2"><stop offset="0" stop-color="#960"/><stop offset="1" stop-color="#6d0101"/></linearGradient><linearGradient gradientTransform="matrix(0 .0083 -.0161 0 -229.25 13.85)" gradientUnits="userSpaceOnUse" id="j" spreadMethod="pad" x1="-819.2" x2="819.2"><stop offset="0" stop-color="#ffc"/><stop offset="1" stop-color="#fee481"/></linearGradient><g id="k"><path d="m-1 9.7.05-1.25Q-.35-1 9.7-1h50.65q9.5.25 10.1 9.45l.05 1.25v13.1q0 10.45-10.15 10.7H9.7Q-1 33.5-1 22.8V9.7" fill="url(#c)" fill-rule="evenodd" transform="translate(1 1)"/><path d="M9.7 1h50.65q7.5.25 8.1 7.45l.05 1.25v13.1q0 8.45-8.15 8.7H9.7Q1 31.5 1 22.8V9.7l.05-1.25Q1.65 1 9.7 1" fill="url(#d)" fill-rule="evenodd" transform="translate(1 1)"/><path d="M10.7 2h50.65q7.5.25 8.1 7.45l.05 1.25v13.1q0 8.45-8.15 8.7H10.7Q2 32.5 2 23.8V10.7l.05-1.25Q2.65 2 10.7 2z" fill="none" stroke="#fc9" stroke-linecap="round" stroke-linejoin="round" stroke-width=".5"/><path d="M62.05 5.4q.6-.6 1.5-.6.85 0 1.45.6.65.65.65 1.5T65 8.35q-.6.65-1.45.65-.9 0-1.5-.65-.6-.6-.6-1.45t.6-1.5" fill="url(#e)" fill-rule="evenodd" transform="translate(1 1)"/><path d="m65.35 11.95-.65.25-.7-.25-.25-.7q0-.35.25-.65.3-.3.7-.3.35 0 .65.3l.3.65-.3.7" fill="url(#f)" fill-rule="evenodd" transform="translate(1 1)"/><path d="M3.55 25.9q0 2.7.85 4.6-3.6-2-3.6-7.6V9.8l.05-1.35Q1.5 1.1 9.5 1.1h50.1l.75.05q5.35.2 7.1 4.05-2-1.1-5.1-1.1h-50.1Q6.1 4.1 4.3 8.5q-.75 1.75-.75 4.3v13.1" fill="url(#g)" fill-rule="evenodd" transform="translate(1 1)"/></g><g id="b"><path d="M7.85 6.1 7.7 7.25l3.8.2-.5 4.5-3.65-.15-.05 1.25 3.95-.15.5 4.6-4.65.15-.05 1.45 5.2-1-.65-12.2-3.75.2m-6.65.5L.7 2.05l18.7-.8.45 4.5-3.55.05.6 11.2.7-.15.45 1.65.45-1.5 3 1.35.65-1.35q1.15-2.25 1.15-3.6l-.3-.95q-.3-.35-.7-.35-1.8.15-3.55 1.2L17.2 8.75q2.85-1.2 5.7-1.2 2.05 0 3.65 1.25 1.4 1.55 1.4 3.5v.75q0 2.05-1.35 5.35l-.55 1.2 2.15.4-.95 4.65L23.8 24l-2.15 3.4-3.7-3.45 1.1-1.6-1.4-.7-.5.15.3 5.6-4.65.45-.25-4.9-10.75 1.7L.6 20.1l1.7-.25q.15-6.95.75-13.4L1.2 6.6m43.1-5.25q.75 2.4 2.25 4.55l-3.8 1.8q-1.55-2.1-2.4-4.8l3.95-1.55M51.25.4l.8 6.85q2.4.05 4 .7Q58 8.95 58 12.1q0 6.15-1.75 15.05l-4.9-.85q1.55-6.8 1.9-12.9 0-1.9-3.1-1.9-2.4.2-4.8 1.2l.1.85 5.9.5L51 17.6l-5.15-.4.25 2.4 4.9-1.2 1.2 3.5-5.7 1.4.45 3.85-5.05.5L39.85 8.9l-.6.75-2.3 2.4q-.8.7-.8 1.25 0 .6 3.4 1.3l-1.8 3.6q-3-.25-5.85-2.55-.85-1.1-.85-2.35 0-1.8 1.8-3.5l2.1-2.15.5-.95q0-.3-.7-.55l-2.4-.75 1.8-3.35q1.25.1 4.4 1.55 2.05 1.15 2.05 2.8 0 .95-.35 1.7l4.55-.4.05.55 2.5-.65-.8-6.7 4.7-.5m-19 21.15q3.25-.6 6.1-1.55l1.45 4.75q-2.75 1.15-6.25 1.7l-1.3-4.9M52.9 6.25l2.05-5L59.1 2.7q-1.15 2.5-2 5l-4.2-1.45" fill="url(#h)" fill-rule="evenodd" transform="translate(.9 1.1)"/><path d="M7.85 6.1 7.7 7.25l3.8.2-.5 4.5-3.65-.15-.05 1.25 3.95-.15.5 4.6-4.65.15-.05 1.45 5.2-1-.65-12.2-3.75.2m-6.65.5L.7 2.05l18.7-.8.45 4.5-3.55.05.6 11.2.7-.15.45 1.65.45-1.5 3 1.35.65-1.35q1.15-2.25 1.15-3.6l-.3-.95q-.3-.35-.7-.35-1.8.15-3.55 1.2L17.2 8.75q2.85-1.2 5.7-1.2 2.05 0 3.65 1.25 1.4 1.55 1.4 3.5v.75q0 2.05-1.35 5.35l-.55 1.2 2.15.4-.95 4.65L23.8 24l-2.15 3.4-3.7-3.45 1.1-1.6-1.4-.7-.5.15.3 5.6-4.65.45-.25-4.9-10.75 1.7L.6 20.1l1.7-.25q.15-6.95.75-13.4L1.2 6.6m43.1-5.25q.75 2.4 2.25 4.55l-3.8 1.8q-1.55-2.1-2.4-4.8l3.95-1.55M51.25.4l.8 6.85q2.4.05 4 .7Q58 8.95 58 12.1q0 6.15-1.75 15.05l-4.9-.85q1.55-6.8 1.9-12.9 0-1.9-3.1-1.9-2.4.2-4.8 1.2l.1.85 5.9.5L51 17.6l-5.15-.4.25 2.4 4.9-1.2 1.2 3.5-5.7 1.4.45 3.85-5.05.5L39.85 8.9l-.6.75-2.3 2.4q-.8.7-.8 1.25 0 .6 3.4 1.3l-1.8 3.6q-3-.25-5.85-2.55-.85-1.1-.85-2.35 0-1.8 1.8-3.5l2.1-2.15.5-.95q0-.3-.7-.55l-2.4-.75 1.8-3.35q1.25.1 4.4 1.55 2.05 1.15 2.05 2.8 0 .95-.35 1.7l4.55-.4.05.55 2.5-.65-.8-6.7 4.7-.5m-19 21.15q3.25-.6 6.1-1.55l1.45 4.75q-2.75 1.15-6.25 1.7l-1.3-4.9M52.9 6.25l2.05-5L59.1 2.7q-1.15 2.5-2 5l-4.2-1.45z" fill="none" stroke="url(#i)" stroke-linecap="round" stroke-linejoin="round" stroke-width="3" transform="translate(.9 1.1)"/><path d="M7.25 5.7 7.1 6.85l3.8.2-.5 4.5-3.65-.15-.05 1.25 3.95-.15.5 4.6-4.65.15-.05 1.45 5.2-1L11 5.5l-3.75.2M.6 6.2.1 1.65l18.7-.8.45 4.5-3.55.05.6 11.2.7-.15.45 1.65.45-1.5 3 1.35.65-1.35q1.15-2.25 1.15-3.6l-.3-.95q-.3-.35-.7-.35-1.8.15-3.55 1.2L16.6 8.35q2.85-1.2 5.7-1.2 2.05 0 3.65 1.25 1.4 1.55 1.4 3.5v.75q0 2.05-1.35 5.35l-.55 1.2 2.15.4-.95 4.65-3.45-.65-2.15 3.4-3.7-3.45 1.1-1.6-1.4-.7-.5.15.3 5.6-4.65.45-.25-4.9-10.75 1.7L0 19.7l1.7-.25q.15-6.95.75-13.4L.6 6.2M50.65 0l.8 6.85q2.4.05 4 .7 1.95 1 1.95 4.15 0 6.15-1.75 15.05l-4.9-.85q1.55-6.8 1.9-12.9 0-1.9-3.1-1.9-2.4.2-4.8 1.2l.1.85 5.9.5-.35 3.55-5.15-.4.25 2.4 4.9-1.2 1.2 3.5-5.7 1.4.45 3.85-5.05.5L39.25 8.5l-.6.75-2.3 2.4q-.8.7-.8 1.25 0 .6 3.4 1.3l-1.8 3.6q-3-.25-5.85-2.55-.85-1.1-.85-2.35 0-1.8 1.8-3.5l2.1-2.15.5-.95-.7-.55-2.4-.75 1.8-3.35q1.25.1 4.4 1.55Q40 4.35 40 6q0 .95-.35 1.7l4.55-.4.05.55 2.5-.65-.8-6.7 4.7-.5M43.7.95q.75 2.4 2.25 4.55l-3.8 1.8q-1.55-2.1-2.4-4.8L43.7.95m-12.05 20.2 6.1-1.55 1.45 4.75q-2.75 1.15-6.25 1.7l-1.3-4.9M52.3 5.85l2.05-5L58.5 2.3q-1.15 2.5-2 5l-4.2-1.45" fill="url(#j)" fill-rule="evenodd" transform="translate(.9 1.1)"/><path d="M55.5 6.55q-.8 0-.8-.9 0-1.55 1.35-3 1.3-1.4 1.3.3-1.4 3.6-1.85 3.6M51.05 9.8q-2.75-.35-2.75-1 0-.35.35-.6L50.1 8q4.3-.2 5.55 2.55.45 1 .45 3.7-.15 5.3-1.6 5.3-.5 0-.7-.45l-.1-.5.45-1.7q.4-1.65.4-2.7l-.25-3.1q-.35-.95-3.25-1.3m3.75 12.5-.55.25q-.5 0-.7-.4l-.1-.45q0-.75.8-.75t.8.8l-.25.55M35.95 10.1l-1.4 2.15q0 1 1 1.95l1 1.15q0 .75-.95.75-1.3 0-2.1-1.95l-.55-2q0-1 .55-1.4.9-.65 1.55-2.05l.25-.9.3-.75q.6-.85 1.2-.55.5.25.5.8 0 .8-1.35 2.8M23.3 8.8q2.4 1.3 2.4 3.8-1.1 6.1-2.4 6.1-.55 0-.75-.4l-.1-.45 1.65-5.25q0-2.4-2.3-2.4-.65 0-.85-.4l-.1-.45q0-1.8 2.45-.55m-1.9 13.45q-.8 0-.8-.85 0-.8.8-.8t.8.85l-.25.55-.55.25m13.95.2q2-.55 2 .5 0 .6-.7 1-.75.4-1.85.4T33.4 24l-.1-.45q0-.55 2.05-1.1M18.25 3.6l-.6.35q-.8 0-.8-.9 0-.8.8-.85.8-.05.8.9l-.2.5M16 2.95l-.15.5-.85.5h-4.75L8.4 4.2q-.7 0-.95-.4l-.1-.45q0-.4.65-.5l2.4-.5 4.35-.05 1 .1.25.55m-8.05 17.5q0-.8 1.45-.85l2.15-.4q1.7-.1 2.4 1 .5.65.5 2.6v.9q-.15.75-.8.75-.85 0-1-1.4l-.05-2-3.65.2q-1 0-1-.8" fill="#fff" fill-rule="evenodd" transform="translate(.9 1.1)"/></g><use ffdec:characterId="8" height="34.5" width="71.5" xlink:href="#k" id="a"/></defs></svg>