<svg xmlns="http://www.w3.org/2000/svg" xmlns:ffdec="https://www.free-decompiler.com/flash" xmlns:xlink="http://www.w3.org/1999/xlink" ffdec:objectType="frame" width="98.35" height="37.85"><g transform="translate(4.45 1.65)"><clipPath id="b"><path d="M12 0h48v8H12Z"/></clipPath><clipPath id="c"><path d="M0 8h12v15H0Z"/></clipPath><clipPath id="d"><path d="M12 23h48v11H12Z"/></clipPath><clipPath id="e"><path d="M60 8h10v15H60Z"/></clipPath><clipPath id="f"><path d="M12 8h48v15H12Z"/></clipPath><g ffdec:characterId="9"><use xlink:href="#a" clip-path="url(#clip1)" transform="translate(-1.253 -1)"/><use xlink:href="#a" clip-path="url(#clip2)" transform="translate(-1.253 -1)"/><use xlink:href="#a" clip-path="url(#clip3)" transform="translate(16.726 -1)"/><use xlink:href="#a" clip-path="url(#clip4)" transform="translate(16.726 -1)"/><use xlink:href="#a" clip-path="url(#b)" transform="matrix(1.365 0 0 1 -5.633 -1)"/><use xlink:href="#a" clip-path="url(#c)" transform="translate(-1.253 -1)"/><use xlink:href="#a" clip-path="url(#d)" transform="matrix(1.365 0 0 1 -5.633 -1)"/><use xlink:href="#a" clip-path="url(#e)" transform="translate(16.726 -1)"/><use xlink:href="#a" clip-path="url(#f)" transform="matrix(1.365 0 0 1 -5.633 -1)"/></g><use ffdec:characterId="10" xlink:href="#g" width="89.25" height="30.85" transform="translate(8.226 4.726)scale(.8236)"/></g><defs><linearGradient id="i" x1="-819.2" x2="819.2" gradientTransform="matrix(0 -.0198 .0217 0 34.75 16.25)" gradientUnits="userSpaceOnUse" spreadMethod="pad"><stop offset="0" stop-color="#960"/><stop offset="1" stop-color="#6d0101"/></linearGradient><linearGradient id="j" x1="-819.2" x2="819.2" gradientTransform="matrix(0 .018 -.0198 0 34.75 16.25)" gradientUnits="userSpaceOnUse" spreadMethod="pad"><stop offset="0" stop-color="#ff8f12"/><stop offset=".816" stop-color="#b72704"/><stop offset="1" stop-color="#f43202"/></linearGradient><linearGradient id="k" x1="-819.2" x2="819.2" gradientTransform="matrix(-.0034 -.0087 .012 -.0048 35.8 6.2)" gradientUnits="userSpaceOnUse" spreadMethod="pad"><stop offset="0" stop-color="#ffc" stop-opacity=".302"/><stop offset="1" stop-color="#ffc" stop-opacity=".8"/></linearGradient><linearGradient id="l" x1="-819.2" x2="819.2" gradientTransform="matrix(-.0027 -.0069 .0096 -.0038 42.65 7.25)" gradientUnits="userSpaceOnUse" spreadMethod="pad"><stop offset="0" stop-color="#ffc" stop-opacity=".302"/><stop offset="1" stop-color="#ffc" stop-opacity=".8"/></linearGradient><linearGradient id="m" x1="-819.2" x2="819.2" gradientTransform="matrix(-.0048 -.0119 .0166 -.0067 26.6 7.1)" gradientUnits="userSpaceOnUse" spreadMethod="pad"><stop offset="0" stop-color="#ffc" stop-opacity=".302"/><stop offset="1" stop-color="#ffc" stop-opacity=".8"/></linearGradient><linearGradient id="n" x1="-819.2" x2="819.2" gradientTransform="matrix(0 .0083 -.0161 0 7.3 14.95)" gradientUnits="userSpaceOnUse" spreadMethod="pad"><stop offset="0" stop-color="#ffc"/><stop offset="1" stop-color="#fee481"/></linearGradient><linearGradient id="o" x1="-819.2" x2="819.2" gradientTransform="matrix(0 .0178 -.0176 0 43.65 14.45)" gradientUnits="userSpaceOnUse" spreadMethod="pad"><stop offset="0" stop-color="#960"/><stop offset="1" stop-color="#6d0101"/></linearGradient><linearGradient id="p" x1="-819.2" x2="819.2" gradientTransform="matrix(0 .0083 -.0161 0 6.8 14.45)" gradientUnits="userSpaceOnUse" spreadMethod="pad"><stop offset="0" stop-color="#ffc"/><stop offset="1" stop-color="#fee481"/></linearGradient><g id="h"><path fill="url(#i)" fill-rule="evenodd" d="M9.7-1h50.65q9.5.25 10.1 9.45l.05 1.25v13.1q0 10.45-10.15 10.7H9.7Q-1 33.5-1 22.8V9.7l.05-1.25Q-.35-1 9.7-1" transform="translate(1 1)"/><path fill="url(#j)" fill-rule="evenodd" d="M59.8 31.5H9.7Q1 31.5 1 22.8V9.7l.05-1.25Q1.65 1 9.7 1h50.65q7.5.25 8.1 7.45l.05 1.25v13.1q0 8.45-8.15 8.7z" transform="translate(1 1)"/><path fill="none" stroke="#fc9" stroke-linecap="round" stroke-linejoin="round" stroke-width=".5" d="M60.8 32.5H10.7Q2 32.5 2 23.8V10.7l.05-1.25Q2.65 2 10.7 2h50.65q7.5.25 8.1 7.45l.05 1.25v13.1q0 8.45-8.15 8.7z"/><path fill="url(#k)" fill-rule="evenodd" d="M63.55 4.8q.85 0 1.45.6.65.65.65 1.5T65 8.35q-.6.65-1.45.65-.9 0-1.5-.65-.6-.6-.6-1.45t.6-1.5q.6-.6 1.5-.6" transform="translate(1 1)"/><path fill="url(#l)" fill-rule="evenodd" d="m65.35 11.95-.65.25-.7-.25-.25-.7q0-.35.25-.65.3-.3.7-.3.35 0 .65.3l.3.65z" transform="translate(1 1)"/><path fill="url(#m)" fill-rule="evenodd" d="M62.35 4.1H12.25Q6.1 4.1 4.3 8.5q-.75 1.75-.75 4.3v13.1q0 2.7.85 4.6-3.6-2-3.6-7.6V9.8l.05-1.35Q1.5 1.1 9.5 1.1h50.1l.75.05q5.35.2 7.1 4.05-2-1.1-5.1-1.1" transform="translate(1 1)"/></g><g id="g"><path fill="url(#n)" fill-rule="evenodd" d="M81.8 26.55q-2 1.8-5.1 1.8l-6-.4-.55-5.6 5.6.35 1.4-.3q.6-.3.6-1 0-2.5-.9-4.25-1.75-2.75-4.45-4.7l4.45-3.25.9.75L79.8 7.9q.6-.55.6-.9-.6-.65-2.25-.65Q72.2 6.75 65 9.7l-1.7-4.8q7.45-3.2 15.55-3.3 3.9 0 5.85 1 2.05 1.35 2.05 3.45 0 1.4-.85 2.85-1.05 1.8-4.6 5.1l.45.8q1.6 2.35 1.6 6.95 0 3.3-1.55 4.8m-25.55-16.4q2.4 1.9 2.4 5.9v1.15q0 2.9-2.9 4.85-2.7 1.7-6.7 1.85l.65 3.1q-4.05 1.2-7.65 1.2H40.7q-3.8 0-6.5-1.35-2.95-1.7-2.95-4.85 0-3.9 1.7-8.85l4.65 1.1q-1.65 3.9-1.65 6.95 0 1.5 1.35 2.2 1.3.75 4.25.75l3.75-.4q-2.8-.3-4.8-1.7-2.75-2.05-2.75-5.8 0-3.5 2.35-7.75l1.35.4 1.4-.25.85-1.7-4.9-.1.35-3.85 2.5.05-.35-.9L45.4.5q.45 1.4 1.25 2.7l3.6.2 1.2-2.65L55.9 2.3l-.75 1.45 2.45.2-.4 3.85-8.45-.65-.6 1.1 3.6.2q2.5.3 4.5 1.7m-8.95 1.8q-2.05 0-4.05.65l4.6.3-.2 2.65-5.3-.3-.05.6 5.35.4-.2 2.65-4.55-.35.65.75q1.5.9 3.55.9h1.15q2.6 0 4.3-.95 1.55-1 1.55-2.4v-.65q0-2.5-1.25-3.2-1.1-.7-3.05-.9zM36.65 8.6Q34.25 7.4 32 6.85l1.2-3.95q2.75.55 4.65 1.7zM20.8 9q-.75.2-1.4.5-1 3-1 5.8 0 3.85.55 5.2.6 1.5 2.1 1.5 1.55 0 2.15-1.5.6-1.65.6-4.85 0-5.5-.7-5.9-.45-.6-1.1-.65zM25 5q1.45.5 2.4 2.45 1.1 1.85 1.15 7.4 0 5.55-1.2 8.05-1.9 3.6-5.85 3.6-4.1 0-6.05-2.65-1.8-2.75-1.8-8.05 0-5.9 2.85-11.35l2.35.55 2.2-.55q3.05 0 3.95.55m-13.3 5.6-1 3.15h2.1l.45 4.8-3.95.1-.55 1.9 5 .5-.5 4.75-5.7-.7-.7 3-4.8-1.1q.95-4.05 2-7.7l-2.35.45-.5-4.8 4.25-.7 1.2-4.05-.7-.05-1.05 3L.5 11.6l3.7-9.8 4.4 1.6-.75 1.85 6.25.5-.45 5z" transform="translate(1 1)"/><path fill="none" stroke="url(#o)" stroke-linecap="round" stroke-linejoin="round" stroke-width="3" d="M81.8 26.55q-2 1.8-5.1 1.8l-6-.4-.55-5.6 5.6.35 1.4-.3q.6-.3.6-1 0-2.5-.9-4.25-1.75-2.75-4.45-4.7l4.45-3.25.9.75L79.8 7.9q.6-.55.6-.9-.6-.65-2.25-.65Q72.2 6.75 65 9.7l-1.7-4.8q7.45-3.2 15.55-3.3 3.9 0 5.85 1 2.05 1.35 2.05 3.45 0 1.4-.85 2.85-1.05 1.8-4.6 5.1l.45.8q1.6 2.35 1.6 6.95 0 3.3-1.55 4.8m-25.55-16.4q2.4 1.9 2.4 5.9v1.15q0 2.9-2.9 4.85-2.7 1.7-6.7 1.85l.65 3.1q-4.05 1.2-7.65 1.2H40.7q-3.8 0-6.5-1.35-2.95-1.7-2.95-4.85 0-3.9 1.7-8.85l4.65 1.1q-1.65 3.9-1.65 6.95 0 1.5 1.35 2.2 1.3.75 4.25.75l3.75-.4q-2.8-.3-4.8-1.7-2.75-2.05-2.75-5.8 0-3.5 2.35-7.75l1.35.4 1.4-.25.85-1.7-4.9-.1.35-3.85 2.5.05-.35-.9L45.4.5q.45 1.4 1.25 2.7l3.6.2 1.2-2.65L55.9 2.3l-.75 1.45 2.45.2-.4 3.85-8.45-.65-.6 1.1 3.6.2q2.5.3 4.5 1.7m-8.95 1.8q-2.05 0-4.05.65l4.6.3-.2 2.65-5.3-.3-.05.6 5.35.4-.2 2.65-4.55-.35.65.75q1.5.9 3.55.9h1.15q2.6 0 4.3-.95 1.55-1 1.55-2.4v-.65q0-2.5-1.25-3.2-1.1-.7-3.05-.9zM36.65 8.6Q34.25 7.4 32 6.85l1.2-3.95q2.75.55 4.65 1.7zM20.8 9q-.75.2-1.4.5-1 3-1 5.8 0 3.85.55 5.2.6 1.5 2.1 1.5 1.55 0 2.15-1.5.6-1.65.6-4.85 0-5.5-.7-5.9-.45-.6-1.1-.65zM25 5q1.45.5 2.4 2.45 1.1 1.85 1.15 7.4 0 5.55-1.2 8.05-1.9 3.6-5.85 3.6-4.1 0-6.05-2.65-1.8-2.75-1.8-8.05 0-5.9 2.85-11.35l2.35.55 2.2-.55q3.05 0 3.95.55m-13.3 5.6-1 3.15h2.1l.45 4.8-3.95.1-.55 1.9 5 .5-.5 4.75-5.7-.7-.7 3-4.8-1.1q.95-4.05 2-7.7l-2.35.45-.5-4.8 4.25-.7 1.2-4.05-.7-.05-1.05 3L.5 11.6l3.7-9.8 4.4 1.6-.75 1.85 6.25.5-.45 5z" transform="translate(1 1)"/><path fill="url(#p)" fill-rule="evenodd" d="M81.3 26.05q-2 1.8-5.1 1.8l-6-.4-.55-5.6 5.6.35 1.4-.3q.6-.3.6-1 0-2.5-.9-4.25-1.75-2.75-4.45-4.7l4.45-3.25.9.75L79.3 7.4q.6-.55.6-.9-.6-.65-2.25-.65-5.95.4-13.15 3.35l-1.7-4.8q7.45-3.2 15.55-3.3 3.9 0 5.85 1 2.05 1.35 2.05 3.45 0 1.4-.85 2.85-1.05 1.8-4.6 5.1l.45.8q1.6 2.35 1.6 6.95 0 3.3-1.55 4.8M55.75 9.65q2.4 1.9 2.4 5.9v1.15q0 2.9-2.9 4.85-2.7 1.7-6.7 1.85l.65 3.1q-4.05 1.2-7.65 1.2H40.2q-3.8 0-6.5-1.35-2.95-1.7-2.95-4.85 0-3.9 1.7-8.85l4.65 1.1q-1.65 3.9-1.65 6.95 0 1.5 1.35 2.2 1.3.75 4.25.75l3.75-.4q-2.8-.3-4.8-1.7-2.75-2.05-2.75-5.8 0-3.5 2.35-7.75l1.35.4 1.4-.25.85-1.7-4.9-.1.35-3.85 2.5.05-.35-.9L44.9 0q.45 1.4 1.25 2.7l3.6.2 1.2-2.65L55.4 1.8l-.75 1.45 2.45.2-.4 3.85-8.45-.65-.6 1.1 3.6.2q2.5.3 4.5 1.7m-8.95 1.8q-2.05 0-4.05.65l4.6.3-.2 2.65-5.3-.3-.05.6 5.35.4-.2 2.65-4.55-.35.65.75q1.5.9 3.55.9h1.15q2.6 0 4.3-.95 1.55-1 1.55-2.4v-.65q0-2.5-1.25-3.2-1.1-.7-3.05-.9zM37.35 4.1l-1.2 4q-2.4-1.2-4.65-1.75l1.2-3.95q2.75.55 4.65 1.7M20.3 8.5l-1.4.5q-1 3-1 5.8 0 3.85.55 5.2.6 1.5 2.1 1.5 1.55 0 2.15-1.5.6-1.65.6-4.85 0-5.5-.7-5.9-.45-.6-1.1-.65zm4.2-4q1.45.5 2.4 2.45 1.1 1.85 1.15 7.4 0 5.55-1.2 8.05Q24.95 26 21 26q-4.1 0-6.05-2.65-1.8-2.75-1.8-8.05 0-5.9 2.85-11.35l2.35.55 2.2-.55q3.05 0 3.95.55m-13.3 5.6-1 3.15h2.1l.45 4.8-3.95.1-.55 1.9 5 .5-.5 4.75-5.7-.7-.7 3-4.8-1.1 2-7.7-2.35.45-.5-4.8 4.25-.7 1.2-4.05-.7-.05-1.05 3L0 11.1l3.7-9.8 4.4 1.6-.75 1.85 6.25.5-.45 5z" transform="translate(1 1)"/><path fill="#fff" fill-rule="evenodd" d="M82.55 25.45q-1.3 2.4-3.95 2.55h-5.9q-.6-.25-.6-.8l.2-.5q.25-.3.6-.25h5.3q2 .05 3-1.95.65-1.35.65-2.7l-.5-2.15-.5-1.7q0-1.4.85-.75.7.55 1.25 1.7.1.95.35 1.65l.15 1.35q0 1.9-.9 3.55M48 25.3l-.35.75q-.4.4-1 .4-.8 0-.8-.9 0-.8 1.1-1.05 1.05-.25 1.05.8m5.95-20.7q2.55-.15 2.55.95 0 .9-.75.9-3.8 0-3.8-1.35 0-1.05 1.15-2.2 1.15-1.15 1.15.45zm-11.4 22.35q-4.8 0-7.05-2-1.55-1.4-1.55-3.15 0-.7.65-1.25.65-.6.9.7-.1 1.35.75 2.2 1.65 1.65 5.45 1.8 3.25.1 3.25.75 0 .5-.45.7zM36 7q-.45 0-1.3-.75l-.75-.8q0-1.05 1.4-.6 1.4.4 1.4 1.35 0 .8-.75.8m-8.75 5.25.25 4.35q0 3.65-.4 5.2-1.1 4.3-4.9 4.3-1.3 0-1.65-.45l-.1-.45q0-.7 1.1-.65 1.6.1 2.95-1l.75-1.2.35-1.15q.35-1.2.35-4.65l-.15-3.4-.55-1.8-.4-1.55q0-.75.8-.75t1.05.95zm-13.5-4.7q0 .4-.55.8H8.95l-1.9.05q-1.2.25-1.9-.45-.3-.3-.3-.7 0-1.4.5-2.4.6-1.4 1.15-1.1.45.2.45 1l-.25 1.8 2.5.25H13q.75.1.75.75m-2.8 16.2q0 .8-1.15.8l-1.4-.15-.95-.2q-.4 0-.6 1.45-.2 1.4-.95 1.4-.8 0-.8-1.05 0-3.9 2.95-3.6.95.1 2 .65zm.65.05q0-.75.85-.75.8 0 .8.75 0 .8-.8.8-.85 0-.85-.8m8.1-.05-.2.5-.7.3q-.6 0-1.1-.7l-.35-.6q0-1.1 1.2-.65 1.15.5 1.15 1.15"/></g><use ffdec:characterId="8" xlink:href="#h" id="a" width="71.5" height="34.5"/></defs></svg>