<svg xmlns:ffdec="https://www.free-decompiler.com/flash" ffdec:objectType="shape" height="28.5" width="108.4" xmlns="http://www.w3.org/2000/svg"><path d="M104 6.2q1.4 1.9 1.4 4.45v7.2l-.1 1.2q-.3 2.4-2.15 4.2l-.15.2q-2.2 2.05-5.25 2.05h-87.1q-3.2 0-5.45-2.25l-.7-.85Q3.35 20.9 3.1 19L3 17.85v-7.2q0-1.75.65-3.2.55-1.2 1.55-2.25Q7.45 3 10.65 3h87.1q3.2 0 5.4 2.2l.85 1" fill-rule="evenodd"/><path d="m101 3.2-.85-1Q97.95 0 94.75 0H7.65Q4.45 0 2.2 2.2 1.2 3.25.65 4.45 0 5.9 0 7.65v7.2L.1 16q.25 1.9 1.4 3.4l.7.85q2.25 2.25 5.45 2.25h87.1q3.05 0 5.25-2.05l.15-.2q1.85-1.8 2.15-4.2l.1-1.2v-7.2q0-2.55-1.4-4.45z" fill="none" stroke="url(#a)" stroke-linecap="round" stroke-linejoin="round" stroke-width="6" transform="translate(3 3)"/><path d="M105.4 10.65v7.2l-.1 1.2q-.3 2.4-2.15 4.2l-.15.2q-2.2 2.05-5.25 2.05h-87.1q-3.2 0-5.45-2.25l-.7-.85Q3.35 20.9 3.1 19L3 17.85v-7.2q0-1.75.65-3.2.55-1.2 1.55-2.25Q7.45 3 10.65 3h87.1q3.2 0 5.4 2.2l.85 1q1.4 1.9 1.4 4.45" fill-rule="evenodd"/><path d="M105.4 10.65q0-2.55-1.4-4.45l-.85-1q-2.2-2.2-5.4-2.2h-87.1Q7.45 3 5.2 5.2q-1 1.05-1.55 2.25Q3 8.9 3 10.65v7.2L3.1 19q.25 1.9 1.4 3.4l.7.85q2.25 2.25 5.45 2.25h87.1q3.05 0 5.25-2.05l.15-.2q1.85-1.8 2.15-4.2l.1-1.2v-7.2z" fill="none" stroke="#fc0" stroke-linecap="round" stroke-linejoin="round"/><defs><linearGradient gradientTransform="matrix(0 -.0182 .0175 0 46.7 10.75)" gradientUnits="userSpaceOnUse" id="a" spreadMethod="pad" x1="-819.2" x2="819.2"><stop offset="0" stop-color="#9b5628"/><stop offset="1" stop-color="#4a2d02"/></linearGradient></defs></svg>