<svg xmlns:ffdec="https://www.free-decompiler.com/flash" ffdec:objectType="shape" height="31.95" width="504.95" xmlns="http://www.w3.org/2000/svg"><path d="M503.05 22.6q1.9 1.15 1.9 3.3 0 2.65-1.9 4.05-1.7 1.2-4.4 1.2-3.05 0-4.95-1.05-2.4-1.35-2.4-4.15 0-2.95 2-5.1 2-2.15 4.7-2.45l.65 2.45q-2.1.65-2.8 1.5 1.65-.55 3.25-.55 2.4 0 3.95.8m-2.25 2.25-1.5-.25q-1.3 0-2.8.65-1.75.7-1.75 1.75 0 1.3 4.15 1.3 1.25 0 2.05-.55.9-.65.9-1.85 0-.65-1.05-1.05m-97.7-.4q2 1.3 2 3.55 0 1.2-1.4 3.5l-2.75-1.45q.95-1.25.95-2.15 0-.7-1.2-1.3l-1.8-.4q-1.85 0-3.45.8l-.95.5-.95.3q-1.75 0-1.75-3.4 0-2.75 1.25-5.7l2.8.15-.1.35 3.6-.1 5.35.25-.4 3.05-5.75-.4-3.35.05-.25 2.2q1.7-.8 4.1-.8 2.4 0 4.05 1m-99.45-1.35-.4 2.85 3.05-.8.7 2.6-3.75 1.05v2l-3.1-.05-.1-1.5-2.95-.1q-4-.85-4-3.9 0-1.95 1.65-4.25 1.3-1.9 2.95-2.95l2.1 1.9-2.3 2.35q-1.1 1.65-1.1 2.75 0 1.35 3.65 1.35 0-1.15.5-3.75l.8-4.5 2.85.75-.55 4.2m-97.15-.8q0 1.4-.7 2.5 2.6.65 2.6 2.85 0 2.1-2.25 3.3-1.8 1-4.2 1l-.7-2.85 2.35-.25q1.45-.3 1.45-.8 0-.85-1.55-.85-1.65 0-4.3.85l-.8-2.8 2.7-.75q2.15-.9 2.15-1.6 0-.55-.3-.8l-1-.2q-2.3 0-5.15 2.05l-1.6-2.25q3.2-2.55 6.8-2.55 1.7 0 2.95.6 1.55.9 1.55 2.55m-101.2.35q0-1.1-2.4-1.1-3.25 0-4.3 2.65l-2.8-.65q.65-2.5 2.65-3.75 1.75-1.1 4.35-1.1 2.25 0 3.8.95 1.9 1 1.9 3.1 0 1.6-1.9 3.05l-3.4 1.9q-1.4.65-1.4.8l.45.1q2.35 0 5.15-1.6l1.5 2.55q-3.75 1.9-6.5 1.9-4.2 0-4.2-2.8 0-1.4 2.05-2.7 1.4-.9 3.45-1.9l.95-.65.65-.75M4.35 12.75l-3.4.2L0 .25 3.55 0l.8 12.75" fill="#930" fill-rule="evenodd"/></svg>