<svg xmlns:ffdec="https://www.free-decompiler.com/flash" xmlns:xlink="http://www.w3.org/1999/xlink" ffdec:objectType="frame" height="238.95" width="376.6" xmlns="http://www.w3.org/2000/svg"><g transform="translate(0 2)"><use ffdec:characterId="1" height="69" transform="translate(46.4 -2)" width="69" xlink:href="#a"/><clipPath id="b" transform="translate(48.4)"><path d="M60 0q5 0 5 5v55q0 4.5-4 4.95L60 65H5q-5 0-5-5V5l.05-.7Q.35 0 5 0h55" fill="#fff" fill-opacity="0" fill-rule="evenodd"/></clipPath><g clip-path="url(#b)"><filter id="c"><feConvolveMatrix divisor="25" in="SourceGraphic" kernelMatrix="1 1 1 1 1 1 1 1 1 1 1 1 1 1 1 1 1 1 1 1 1 1 1 1 1" order="5 5" result="filterResult0"/></filter><use ffdec:characterId="4" filter="url(#c)" height="69" transform="translate(46.4 -2)" width="69" xlink:href="#d"/></g><use ffdec:characterId="1" height="69" transform="translate(118.8 -2)" width="69" xlink:href="#a"/><clipPath id="e" transform="translate(120.8)"><path d="M60 0q5 0 5 5v55q0 4.5-4 4.95L60 65H5q-5 0-5-5V5l.05-.7Q.35 0 5 0h55" fill="#fff" fill-opacity="0" fill-rule="evenodd"/></clipPath><g clip-path="url(#e)"><filter id="f"><feConvolveMatrix divisor="25" in="SourceGraphic" kernelMatrix="1 1 1 1 1 1 1 1 1 1 1 1 1 1 1 1 1 1 1 1 1 1 1 1 1" order="5 5" result="filterResult1"/></filter><use ffdec:characterId="4" filter="url(#f)" height="69" transform="translate(118.8 -2)" width="69" xlink:href="#d"/></g><use ffdec:characterId="1" height="69" transform="translate(191.2 -2)" width="69" xlink:href="#a"/><clipPath id="g" transform="translate(193.2)"><path d="M60 0q5 0 5 5v55q0 4.5-4 4.95L60 65H5q-5 0-5-5V5l.05-.7Q.35 0 5 0h55" fill="#fff" fill-opacity="0" fill-rule="evenodd"/></clipPath><g clip-path="url(#g)"><filter id="h"><feConvolveMatrix divisor="25" in="SourceGraphic" kernelMatrix="1 1 1 1 1 1 1 1 1 1 1 1 1 1 1 1 1 1 1 1 1 1 1 1 1" order="5 5" result="filterResult2"/></filter><use ffdec:characterId="4" filter="url(#h)" height="69" transform="translate(191.2 -2)" width="69" xlink:href="#d"/></g><use ffdec:characterId="1" height="69" transform="translate(263.6 -2)" width="69" xlink:href="#a"/><clipPath id="i" transform="translate(265.6)"><path d="M60 0q5 0 5 5v55q0 4.5-4 4.95L60 65H5q-5 0-5-5V5l.05-.7Q.35 0 5 0h55" fill="#fff" fill-opacity="0" fill-rule="evenodd"/></clipPath><g clip-path="url(#i)"><filter id="j"><feConvolveMatrix divisor="25" in="SourceGraphic" kernelMatrix="1 1 1 1 1 1 1 1 1 1 1 1 1 1 1 1 1 1 1 1 1 1 1 1 1" order="5 5" result="filterResult3"/></filter><use ffdec:characterId="4" filter="url(#j)" height="69" transform="translate(263.6 -2)" width="69" xlink:href="#d"/></g><use ffdec:characterId="1" height="69" transform="translate(46.4 71.45)" width="69" xlink:href="#a"/><clipPath id="k" transform="translate(48.4 73.45)"><path d="M60 0q5 0 5 5v55q0 4.5-4 4.95L60 65H5q-5 0-5-5V5l.05-.7Q.35 0 5 0h55" fill="#fff" fill-opacity="0" fill-rule="evenodd"/></clipPath><g clip-path="url(#k)"><filter id="l"><feConvolveMatrix divisor="25" in="SourceGraphic" kernelMatrix="1 1 1 1 1 1 1 1 1 1 1 1 1 1 1 1 1 1 1 1 1 1 1 1 1" order="5 5" result="filterResult4"/></filter><use ffdec:characterId="4" filter="url(#l)" height="69" transform="translate(46.4 71.45)" width="69" xlink:href="#d"/></g><use ffdec:characterId="1" height="69" transform="translate(118.8 71.45)" width="69" xlink:href="#a"/><clipPath id="m" transform="translate(120.8 73.45)"><path d="M60 0q5 0 5 5v55q0 4.5-4 4.95L60 65H5q-5 0-5-5V5l.05-.7Q.35 0 5 0h55" fill="#fff" fill-opacity="0" fill-rule="evenodd"/></clipPath><g clip-path="url(#m)"><filter id="n"><feConvolveMatrix divisor="25" in="SourceGraphic" kernelMatrix="1 1 1 1 1 1 1 1 1 1 1 1 1 1 1 1 1 1 1 1 1 1 1 1 1" order="5 5" result="filterResult5"/></filter><use ffdec:characterId="4" filter="url(#n)" height="69" transform="translate(118.8 71.45)" width="69" xlink:href="#d"/></g><use ffdec:characterId="1" height="69" transform="translate(191.2 71.45)" width="69" xlink:href="#a"/><clipPath id="o" transform="translate(193.2 73.45)"><path d="M60 0q5 0 5 5v55q0 4.5-4 4.95L60 65H5q-5 0-5-5V5l.05-.7Q.35 0 5 0h55" fill="#fff" fill-opacity="0" fill-rule="evenodd"/></clipPath><g clip-path="url(#o)"><filter id="p"><feConvolveMatrix divisor="25" in="SourceGraphic" kernelMatrix="1 1 1 1 1 1 1 1 1 1 1 1 1 1 1 1 1 1 1 1 1 1 1 1 1" order="5 5" result="filterResult6"/></filter><use ffdec:characterId="4" filter="url(#p)" height="69" transform="translate(191.2 71.45)" width="69" xlink:href="#d"/></g><use ffdec:characterId="1" height="69" transform="translate(263.6 71.45)" width="69" xlink:href="#a"/><clipPath id="q" transform="translate(265.6 73.45)"><path d="M60 0q5 0 5 5v55q0 4.5-4 4.95L60 65H5q-5 0-5-5V5l.05-.7Q.35 0 5 0h55" fill="#fff" fill-opacity="0" fill-rule="evenodd"/></clipPath><g clip-path="url(#q)"><filter id="r"><feConvolveMatrix divisor="25" in="SourceGraphic" kernelMatrix="1 1 1 1 1 1 1 1 1 1 1 1 1 1 1 1 1 1 1 1 1 1 1 1 1" order="5 5" result="filterResult7"/></filter><use ffdec:characterId="4" filter="url(#r)" height="69" transform="translate(263.6 71.45)" width="69" xlink:href="#d"/></g><use ffdec:characterId="1" height="69" transform="translate(46.4 144.9)" width="69" xlink:href="#a"/><clipPath id="s" transform="translate(48.4 146.9)"><path d="M60 0q5 0 5 5v55q0 4.5-4 4.95L60 65H5q-5 0-5-5V5l.05-.7Q.35 0 5 0h55" fill="#fff" fill-opacity="0" fill-rule="evenodd"/></clipPath><g clip-path="url(#s)"><filter id="t"><feConvolveMatrix divisor="25" in="SourceGraphic" kernelMatrix="1 1 1 1 1 1 1 1 1 1 1 1 1 1 1 1 1 1 1 1 1 1 1 1 1" order="5 5" result="filterResult8"/></filter><use ffdec:characterId="4" filter="url(#t)" height="69" transform="translate(46.4 144.9)" width="69" xlink:href="#d"/></g><use ffdec:characterId="1" height="69" transform="translate(118.8 144.9)" width="69" xlink:href="#a"/><clipPath id="u" transform="translate(120.8 146.9)"><path d="M60 0q5 0 5 5v55q0 4.5-4 4.95L60 65H5q-5 0-5-5V5l.05-.7Q.35 0 5 0h55" fill="#fff" fill-opacity="0" fill-rule="evenodd"/></clipPath><g clip-path="url(#u)"><filter id="v"><feConvolveMatrix divisor="25" in="SourceGraphic" kernelMatrix="1 1 1 1 1 1 1 1 1 1 1 1 1 1 1 1 1 1 1 1 1 1 1 1 1" order="5 5" result="filterResult9"/></filter><use ffdec:characterId="4" filter="url(#v)" height="69" transform="translate(118.8 144.9)" width="69" xlink:href="#d"/></g><use ffdec:characterId="1" height="69" transform="translate(191.2 144.9)" width="69" xlink:href="#a"/><clipPath id="w" transform="translate(193.2 146.9)"><path d="M60 0q5 0 5 5v55q0 4.5-4 4.95L60 65H5q-5 0-5-5V5l.05-.7Q.35 0 5 0h55" fill="#fff" fill-opacity="0" fill-rule="evenodd"/></clipPath><g clip-path="url(#w)"><filter id="x"><feConvolveMatrix divisor="25" in="SourceGraphic" kernelMatrix="1 1 1 1 1 1 1 1 1 1 1 1 1 1 1 1 1 1 1 1 1 1 1 1 1" order="5 5" result="filterResult10"/></filter><use ffdec:characterId="4" filter="url(#x)" height="69" transform="translate(191.2 144.9)" width="69" xlink:href="#d"/></g><use ffdec:characterId="1" height="69" transform="translate(263.6 144.9)" width="69" xlink:href="#a"/><clipPath id="y" transform="translate(265.6 146.9)"><path d="M60 0q5 0 5 5v55q0 4.5-4 4.95L60 65H5q-5 0-5-5V5l.05-.7Q.35 0 5 0h55" fill="#fff" fill-opacity="0" fill-rule="evenodd"/></clipPath><g clip-path="url(#y)"><filter id="z"><feConvolveMatrix divisor="25" in="SourceGraphic" kernelMatrix="1 1 1 1 1 1 1 1 1 1 1 1 1 1 1 1 1 1 1 1 1 1 1 1 1" order="5 5" result="filterResult11"/></filter><use ffdec:characterId="4" filter="url(#z)" height="69" transform="translate(263.6 144.9)" width="69" xlink:href="#d"/></g><use ffdec:characterId="6" height="18" transform="translate(156.5 218.95)" width="60.35" xlink:href="#text0"/><filter id="A"><feColorMatrix in="SourceGraphic" result="filterResult12" values="0 0 0 0 0.0,0 0 0 0 0.0,0 0 0 0 0.2,0 0 0 1 0"/><feConvolveMatrix divisor="25" in="filterResult12" kernelMatrix="1 1 1 1 1 1 1 1 1 1 1 1 1 1 1 1 1 1 1 1 1 1 1 1 1" order="5 5" result="filterResult13"/><feComposite in="SourceGraphic" in2="filterResult13" result="filterResult14"/></filter><use ffdec:characterId="9" filter="url(#A)" height="31.3" transform="matrix(1.5 0 0 1.5 0 83.45)" width="30" xlink:href="#B"/><filter id="C"><feColorMatrix in="SourceGraphic" result="filterResult15" values="0 0 0 0 0.0,0 0 0 0 0.0,0 0 0 0 0.2,0 0 0 1 0"/><feConvolveMatrix divisor="25" in="filterResult15" kernelMatrix="1 1 1 1 1 1 1 1 1 1 1 1 1 1 1 1 1 1 1 1 1 1 1 1 1" order="5 5" result="filterResult16"/><feComposite in="SourceGraphic" in2="filterResult16" result="filterResult17"/></filter><use ffdec:characterId="9" filter="url(#C)" height="31.3" transform="matrix(-1.5 0 0 1.5 376.6 83.45)" width="30" xlink:href="#B"/></g><defs><linearGradient gradientTransform="rotate(90 0 32.5) scale(.0397)" gradientUnits="userSpaceOnUse" id="D" spreadMethod="pad" x1="-819.2" x2="819.2"><stop offset="0" stop-color="#f5ebc5"/><stop offset="1" stop-color="#fbf1ea"/></linearGradient><linearGradient gradientTransform="matrix(.028 -.028 .028 .028 32.5 32.5)" gradientUnits="userSpaceOnUse" id="E" spreadMethod="pad" x1="-819.2" x2="819.2"><stop offset="0" stop-color="#f5ebc5"/><stop offset="1" stop-color="#eed0b3"/></linearGradient><linearGradient gradientTransform="matrix(0 .0063 -.0099 0 8.6 6.65)" gradientUnits="userSpaceOnUse" id="H" spreadMethod="pad" x1="-819.2" x2="819.2"><stop offset="0" stop-color="#ff0"/><stop offset="1" stop-color="#fc0"/></linearGradient><linearGradient gradientTransform="matrix(0 -.0035 .0099 0 9.05 8.7)" gradientUnits="userSpaceOnUse" id="I" spreadMethod="pad" x1="-819.2" x2="819.2"><stop offset="0" stop-color="#ff0"/><stop offset="1" stop-color="#f90"/></linearGradient><linearGradient gradientTransform="matrix(0 .0063 -.0099 0 8.6 6.65)" gradientUnits="userSpaceOnUse" id="J" spreadMethod="pad" x1="-819.2" x2="819.2"><stop offset="0" stop-color="#fff"/><stop offset="1" stop-color="#fc3"/></linearGradient><g id="a"><path d="M0 6.85h52.65q5 0 5 5V65H5q-5 0-5-5V6.85" fill="url(#D)" fill-rule="evenodd" transform="translate(2 2)"/><path d="M0 6.85V5l.05-.7Q.35 0 5 0h55q5 0 5 5v55q0 4.5-4 4.95L60 65h-2.35V11.85q0-5-5-5H0" fill="url(#E)" fill-rule="evenodd" transform="translate(2 2)"/><path d="M59.65 67H62l1-.05q4-.45 4-4.95V7q0-5-5-5H7Q2.35 2 2.05 6.3L2 7v55q0 5 5 5h52.65z" fill="none" stroke="#b36f2b" stroke-linecap="round" stroke-linejoin="round" stroke-width="4"/></g><g id="K"><path d="M60 0q5 0 5 5v55q0 4.5-4 4.95L60 65H5q-5 0-5-5V5l.05-.7Q.35 0 5 0h55" fill="#fff" fill-opacity="0" fill-rule="evenodd" transform="translate(2 2)"/><path d="M62 2H7Q2.35 2 2.05 6.3L2 7v55q0 5 5 5h55l1-.05q4-.45 4-4.95V7q0-5-5-5z" fill="none" stroke="#6d4201" stroke-linecap="round" stroke-linejoin="round" stroke-opacity=".89" stroke-width="4"/></g><g id="B"><use ffdec:characterId="7" height="14.3" transform="matrix(0 1.4493 1.4471 0 4.676 1.775)" width="18.25" xlink:href="#F"/><use ffdec:characterId="8" height="30" width="30" xlink:href="#G"/></g><g id="F"><path d="M8.15.05v4.7h-.1q-.65.1-1.25.8L1.7 13.3q-2.6-.25-1.25-3.1Q2.5 5.85 6.65.9 7.3.05 8.05.05h.1" fill="url(#H)" fill-rule="evenodd" transform="translate(.5 .5)"/><path d="M8.15 4.75q1.15-.15 2.45 1.6l4.85 6.95H1.7l5.1-7.75q.6-.7 1.25-.8h.1" fill="url(#I)" fill-rule="evenodd" transform="translate(.5 .5)"/><path d="M15.45 13.3 10.6 6.35Q9.3 4.6 8.15 4.75V.05q1.1.05 2.5 1.6 3.7 3.9 5.95 8.8 1.7 2.75-1.05 2.85h-.1" fill="url(#J)" fill-rule="evenodd" transform="translate(.5 .5)"/><path d="M15.45 13.3h.1q2.75-.1 1.05-2.85-2.25-4.9-5.95-8.8Q9.25.1 8.15.05h-.1q-.75 0-1.4.85Q2.5 5.85.45 10.2-.9 13.05 1.7 13.3h13.75z" fill="none" stroke="#960" stroke-linecap="round" stroke-linejoin="round" transform="translate(.5 .5)"/></g><path d="M0 5q0-5 5-5h20q5 0 5 5v20q0 5-5 5H5q-5 0-5-5V5" fill="#e6f8ff" fill-opacity="0" fill-rule="evenodd" id="G"/><use ffdec:characterId="3" height="69" width="69" xlink:href="#K" id="d"/></defs></svg>