<svg width="352.8" height="227.4" xmlns="http://www.w3.org/2000/svg" xmlns:xlink="http://www.w3.org/1999/xlink"><defs><g id="y"><path fill-rule="evenodd" fill="url(#a)" d="M14.5 7.5q0 2.9-2.05 4.95Q10.4 14.5 7.5 14.5q-2.9 0-4.95-2.05Q.5 10.4.5 7.5q0-2.9 2.05-4.95Q4.6.5 7.5.5q2.9 0 4.95 2.05Q14.5 4.6 14.5 7.5" transform="translate(.5 .5)"/><path fill-rule="evenodd" fill="url(#b)" d="M13.15 1.85Q15.5 4.2 15.5 7.5q0 3.3-2.35 5.65Q10.8 15.5 7.5 15.5q-3.3 0-5.65-2.35Q-.5 10.8-.5 7.5q0-3.3 2.35-5.65Q4.2-.5 7.5-.5q3.3 0 5.65 2.35M14.5 7.5q0-2.9-2.05-4.95Q10.4.5 7.5.5 4.6.5 2.55 2.55.5 4.6.5 7.5q0 2.9 2.05 4.95Q4.6 14.5 7.5 14.5q2.9 0 4.95-2.05Q14.5 10.4 14.5 7.5" transform="translate(.5 .5)"/><path stroke-width=".5" stroke-linejoin="round" stroke-linecap="round" stroke="#036" fill="none" d="M15 8q0 2.9-2.05 4.95Q10.9 15 8 15q-2.9 0-4.95-2.05Q1 10.9 1 8q0-2.9 2.05-4.95Q5.1 1 8 1q2.9 0 4.95 2.05Q15 5.1 15 8z"/><path fill-rule="evenodd" fill="#fff" d="M3.75 5.45V5q0-2 2-2h3.5q2 0 2 2v5q0 2-2 2h-3.5q-2 0-2-2v-.45q.95.65 1.9 0 .65-2.75 0-4.1-.95-.75-1.9 0M6.5 8.8l-.1.25.1.25.25.1.25-.1.1-.25L7 8.8l-.25-.1-.25.1m0-1.45-.1.25.1.25.25.1.25-.1.1-.25-.1-.25-.25-.1-.25.1m0-1.55-.1.25.1.25.25.1.25-.1.1-.25L7 5.8l-.25-.1-.25.1" transform="translate(.5 .5)"/><path fill-rule="evenodd" fill="#09c" d="M3.75 5.45q.95-.75 1.9 0 .65 1.35 0 4.1-.95.65-1.9 0v-4.1m2.75.35.25-.1.25.1.1.25-.1.25-.25.1-.25-.1-.1-.25.1-.25m0 1.55.25-.1.25.1.1.25-.1.25-.25.1-.25-.1-.1-.25.1-.25m0 1.45.25-.1.25.1.1.25-.1.25-.25.1-.25-.1-.1-.25.1-.25" transform="translate(.5 .5)"/><path stroke-linejoin="round" stroke-linecap="round" stroke="url(#c)" fill="none" d="M3.75 9.55V10q0 2 2 2h3.5q2 0 2-2V5q0-2-2-2h-3.5q-2 0-2 2v4.55z" transform="translate(.5 .5)"/></g><g id="F"><path fill-rule="evenodd" fill="#ff9" d="m81.55 53.7.15-.2-.2.3.05-.1-.05.1-.4.65-.3.3q-3.55 4.9-9.25 6.85Q66.15 63.45 61 66l-6.85-4.75-2.9-2-1.75-1.2q-5.45-3.9-6.75-10.5l-.15-1.05q-7.55 2.55-14.7 6.1l-9.85-6.85-4.1-2.85-2.55-1.75Q3.5 35.5 1.65 26 .15 18.15 3.9 12.35l.4-.4.05-.05-.05-.1v-.05l.15-.3Q6.2 9.1 8.8 7.1q7.25-5.6 15.5-2.3 2.9 1.15 5.05 3.25 1.3 1.2 3 3.55 2.85-4.15 7.25-5.5 8.55-2.6 15.05 3.6 4.6 4.5 5.65 10.9 1.1 6.6-1.65 12.3 1.9.8 3.35 2.2l2.1 2.45q2-2.85 5-3.8 5.95-1.85 10.45 2.45 3.2 3.15 3.95 7.6.8 4.9-1.45 9.1l-.1.15-.4.65M42.6 46.5l.55-.2 1.9-.7q3.45-1.5 6.3-3.75 2.9-2.3 5.15-5.45l.3-.35.05-.05.35-.5.3-.6.2-.25.1-.1v-.05l.1-.2.05-.05.25-.5.15-.25.3-.6-.3.6-.15.25-.25.5-.05.05-.1.2v.05l-.1.1-.2.25-.3.6-.35.5-.05.05-.3.35q-2.25 3.15-5.15 5.45-2.85 2.25-6.3 3.75l-1.9.7-.55.2" transform="translate(2.8 .4)"/><path stroke-width="8" stroke-linejoin="round" stroke-linecap="round" stroke="#ff9" fill="none" d="m84.35 54.1.15-.2.25-.45.1-.15q2.25-4.2 1.45-9.1-.75-4.45-3.95-7.6-4.5-4.3-10.45-2.45-3 .95-5 3.8l-2.1-2.45q-1.45-1.4-3.35-2.2l-.3.6-.15.25-.25.5-.05.05-.1.2v.05l-.1.1-.2.25-.3.6-.35.5-.05.05-.3.35q-2.25 3.15-5.15 5.45-2.85 2.25-6.3 3.75l-1.9.7-.55.2q-7.55 2.55-14.7 6.1l-9.85-6.85-4.1-2.85-2.55-1.75Q6.3 35.9 4.45 26.4q-1.5-7.85 2.25-13.65l.4-.6v.2l-.4.4M84.35 54.1l-.05.1-.4.65-.3.3q-3.55 4.9-9.25 6.85-5.4 1.85-10.55 4.4l-6.85-4.75-2.9-2-1.75-1.2q-5.45-3.9-6.75-10.5l-.15-1.05M7.1 12.15l.15-.3Q9 9.5 11.6 7.5q7.25-5.6 15.5-2.3 2.9 1.15 5.05 3.25 1.3 1.2 3 3.55Q38 7.85 42.4 6.5q8.55-2.6 15.05 3.6 4.6 4.5 5.65 10.9 1.1 6.6-1.65 12.3m-54.3-21-.05.05"/></g><g id="G"><path fill-rule="evenodd" fill="#fd6868" d="M42.2 9.25q3.3-1.3 4-1.85-.95-1.8-5.15 0-4.15 1.7-4.15 2.95 0 .35.15.45l.35.1 4.8-1.65m.2 7.05.1.2.1.05-.2-.25m17.85 1.55q0-1.2-1.35-1.6-1.35-.35-1.35.95l.25.8q.45.85 1.3.85 1.15 0 1.15-1m-12.6-4.6.65 2.15q1.15 2.25 3.6 2.25 2.55 0 3.75-1.35.85-.95.85-2.4 0-4.05-4.4-4.35-4.45-.3-4.45 3.7M4.25 7.7l.2-.25Q6.55 5 9.6 3.05 17.95-2.4 26.7 1.9q3.1 1.55 5.3 4.05l2.95 4.1q3.5-4.2 8.35-5.3 9.6-2.1 16.2 5.25 4.7 5.35 5.3 12.45.7 7.85-3.4 14.2 1.45-5.65-.55-10.9l-1.25.45-4.2.95q-7.65 0-12.55-6-3.6-4.4-3.6-7.35v-.05L38.6 13q-2.3.45-4.3 1.4-.15.35-.2-.15l-1.7.25q-2.55 0-3.7-2.1l-.65-2.25q0-1.45.4-2.25-2.1-1.6-4.55-2.75-7-3.15-13.1-1.1-3.4 1.1-6.5 3.8l-.05-.1V7.7m16-5.75q1.35 1.1 4.05 2.1l3.3.85q.5 0 .5-.25-.4-1.3-4.05-2.9-3.75-1.6-3.8.2" transform="translate(1.5 1.5)"/><path fill-rule="evenodd" fill="#feabab" d="m42.2 9.25-4.8 1.65-.35-.1q-.15-.1-.15-.45 0-1.25 4.15-2.95 4.2-1.8 5.15 0-.7.55-4 1.85m5.45 4q0-4 4.45-3.7 4.4.3 4.4 4.35 0 1.45-.85 2.4-1.2 1.35-3.75 1.35-2.45 0-3.6-2.25l-.65-2.15m12.6 4.6q0 1-1.15 1-.85 0-1.3-.85l-.25-.8q0-1.3 1.35-.95 1.35.4 1.35 1.6" transform="translate(1.5 1.5)"/><path fill-rule="evenodd" fill="#fd2626" d="m42.4 16.3.2.25-.1-.05-.1-.2m18.65 20.85-.6.8-.35.5-.4.5-.05.05-.35.4-.65.4.45-1.2-7.3.2q-10.75 1.3-17.6-1Q8.55 18.65 16.1 11.4q7.5-7.25-5.3-7.35Q16.9 2 23.9 5.15q2.45 1.15 4.55 2.75-.4.8-.4 2.25l.65 2.25q1.15 2.1 3.7 2.1l1.7-.25q.05.5.2.15 2-.95 4.3-1.4l.65.75v.05q0 2.95 3.6 7.35 4.9 6 12.55 6l4.2-.95 1.25-.45q2 5.25.55 10.9l-.9 1.2.55-.7m-1.35 1.8-.4.45.4-.45m.8-1.1-.4.6.4-.6" transform="translate(1.5 1.5)"/><path fill-rule="evenodd" fill="#bd1739" d="M59.3 39.4q-6.2 7.25-15.4 9.6-8.85 2.15-17.25 5.55l-10.2-8.4q1 .55 1.75.55.5 0 .5-.6-7-5.75-11.4-11.75-4.45-6.15-5.65-11.8H1.5l-.3 1.8q0 2.15 1.65 5.9 1.6 3.7 3.3 5.5l5.15 6 .85.9-2.6-2.15q-8.2-6.9-9.4-17.45-.95-8.7 3.6-14.7l.5-.45Q2.9 10.6 2.8 12.85q-.15 2.2.2 3.85.3 1.6 1.55 5.2t5 8.25q3.65 4.55 7.75 8.35 4.45 4.2 9.9 6.2l3.15.5 10.95-1.1q5.85-.45 11.3-1.8 3.2-.75 6.05-2.5l.65-.4m-21.25 9.15q-1.8-.65-6.7.8-4.8 1.4-4.8 2.4 0 .8 1.15.8 2 0 5.55-1.15 4.1-1.35 4.8-2.85" transform="translate(1.5 1.5)"/><path fill-rule="evenodd" fill="#dc1b37" d="m16.45 46.15-4.3-3.5-.85-.9-5.15-6q-1.7-1.8-3.3-5.5-1.65-3.75-1.65-5.9l.3-1.8h.15q1.2 5.65 5.65 11.8 4.4 6 11.4 11.75 0 .6-.5.6-.75 0-1.75-.55M4.3 7.85q3.1-2.7 6.5-3.8 12.8.1 5.3 7.35-7.55 7.25 18.1 26.4 6.85 2.3 17.6 1l7.3-.2-.45 1.2q-2.85 1.75-6.05 2.5-5.45 1.35-11.3 1.8l-10.95 1.1-3.15-.5q-5.45-2-9.9-6.2-4.1-3.8-7.75-8.35-3.75-4.65-5-8.25Q3.3 18.3 3 16.7q-.35-1.65-.2-3.85.1-2.25 1.45-4.95l.05-.05m33.75 40.7q-.7 1.5-4.8 2.85-3.55 1.15-5.55 1.15-1.15 0-1.15-.8 0-1 4.8-2.4 4.9-1.45 6.7-.8" transform="translate(1.5 1.5)"/><path fill-rule="evenodd" fill="#fd9b9b" d="M20.25 1.95q.05-1.8 3.8-.2 3.65 1.6 4.05 2.9 0 .25-.5.25l-3.3-.85q-2.7-1-4.05-2.1" transform="translate(1.5 1.5)"/><path stroke-width="3" stroke-linejoin="round" stroke-linecap="round" stroke="#fd2626" fill="none" d="m5.75 9.2.2-.25q2.1-2.45 5.15-4.4Q19.45-.9 28.2 3.4q3.1 1.55 5.3 4.05l2.95 4.1q3.5-4.2 8.35-5.3 9.6-2.1 16.2 5.25 4.7 5.35 5.3 12.45.7 7.85-3.4 14.2l-.35.5-.55.7-.4.6-.4.5-.4.45q-6.2 7.25-15.4 9.6-8.85 2.15-17.25 5.55l-10.2-8.4-4.3-3.5-2.6-2.15q-8.2-6.9-9.4-17.45-.95-8.7 3.6-14.7l.5-.65v.2l-.5.45m56.7 29.6-.35.5M5.75 9.4l.05-.05"/></g><g id="I"><path fill-rule="evenodd" fill="#f89e0a" d="M34.85 83.45H20.6q1.7-2.55 4.15-5.35l2.9-3.2L18 72.85l5.95-8.4-15-10.05 15.45-1.6L0 31.15l24.85 7.8-5.9-23.45L41.3 29.8l2-17.7L57 24.5 64.7 0l4.8 15.45 6.75-4.05-2.4 22.3-.45 4.8 1.55-.35 30.95-3L80.35 57.8l27.05 2.85-25.2 13.9 9.85 7.8H65.8q-.7 8.2-.6 10.4l-16.5-9.3h6.25l10.1-6.85H80.3l-9.6-5.9 13.55-7.6-13.55-2.2 10.15-18.4-12 4.2-2.95-24.2-8.05 24-8.3-13.55L47.3 46.5 30.4 30.1l8.45 16.95-9.25-1.4 8.15 6.75-13.25 4.5 11.25 4-8.5 10.65h9.1l-1.5 11.9" transform="translate(3.65 3.65)"/><path fill-rule="evenodd" fill="#f4dd0b" d="m34.85 83.45 1.5-11.9h-9.1l8.5-10.65-11.25-4 13.25-4.5-8.15-6.75 9.25 1.4L30.4 30.1l16.9 16.4 2.25-13.55 8.3 13.55 8.05-24 2.95 24.2 12-4.2L70.7 60.9l13.55 2.2-13.55 7.6 9.6 5.9H65.05l-10.1 6.85h-20.1" transform="translate(3.65 3.65)"/><path stroke-width="7.3" stroke-linejoin="round" stroke-linecap="round" stroke="#ff9" fill="none" d="m52.35 87.1 16.5 9.3q-.1-2.2.6-10.4H95.7l-9.85-7.8 25.2-13.9L84 61.45l25.55-22.65-30.95 3-1.55.35.45-4.8 2.4-22.3-6.75 4.05-4.8-15.45-7.7 24.5-13.7-12.4-2 17.7-22.35-14.3 5.9 23.45-24.85-7.8 24.4 21.65-15.45 1.6 15 10.05-5.95 8.4 9.65 2.05-2.9 3.2q-2.45 2.8-4.15 5.35h28.1M77.5 37.35l1.1 4.45"/><path fill-rule="evenodd" fill="#f89e0a" d="M34.85 83.45H20.6q1.7-2.55 4.15-5.35l2.9-3.2L18 72.85l5.95-8.4-15-10.05 15.45-1.6L0 31.15l24.85 7.8-5.9-23.45L41.3 29.8l2-17.7L57 24.5 64.7 0l4.8 15.45 6.75-4.05-2.4 22.3-.45 4.8 1.55-.35 30.95-3L80.35 57.8l27.05 2.85-25.2 13.9 9.85 7.8H65.8q-.7 8.2-.6 10.4l-16.5-9.3h6.25l10.1-6.85H80.3l-9.6-5.9 13.55-7.6-13.55-2.2 10.15-18.4-12 4.2-2.95-24.2-8.05 24-8.3-13.55L47.3 46.5 30.4 30.1l8.45 16.95-9.25-1.4 8.15 6.75-13.25 4.5 11.25 4-8.5 10.65h9.1l-1.5 11.9" transform="translate(3.65 3.65)"/><path fill-rule="evenodd" fill="#f4dd0b" d="m34.85 83.45 1.5-11.9h-9.1l8.5-10.65-11.25-4 13.25-4.5-8.15-6.75 9.25 1.4L30.4 30.1l16.9 16.4 2.25-13.55 8.3 13.55 8.05-24 2.95 24.2 12-4.2L70.7 60.9l13.55 2.2-13.55 7.6 9.6 5.9H65.05l-10.1 6.85h-20.1" transform="translate(3.65 3.65)"/><path stroke-width="1.5" stroke-linejoin="round" stroke-linecap="round" stroke="#f3470e" fill="none" d="m52.35 87.1 16.5 9.3q-.1-2.2.6-10.4H95.7l-9.85-7.8 25.2-13.9L84 61.45l25.55-22.65-30.95 3-1.55.35.45-4.8 2.4-22.3-6.75 4.05-4.8-15.45-7.7 24.5-13.7-12.4-2 17.7-22.35-14.3 5.9 23.45-24.85-7.8 24.4 21.65-15.45 1.6 15 10.05-5.95 8.4 9.65 2.05-2.9 3.2q-2.45 2.8-4.15 5.35h28.1M77.5 37.35l1.1 4.45"/></g><g id="J"><path fill-rule="evenodd" fill="#8f8181" d="m18.85 67.3-4.95-.1v-.1l4.95.2" transform="translate(3.45 3.8)"/><path fill-rule="evenodd" fill="#f2f1ea" d="m14-.15.05.05H14v-.05" transform="translate(3.45 3.8)"/><path fill-rule="evenodd" fill="#fcfbfa" d="m13.9 67.2-5.45-.25 5.45.15v.1" transform="translate(3.45 3.8)"/><path fill-rule="evenodd" fill="#f12534" d="m12.5 104.15-.3-.1-.25-.1h.7l-.15.2" transform="translate(3.45 3.8)"/><path fill-rule="evenodd" fill="#faeb4f" d="m13.95 100.8.15 1.75h-.05q-.55-.05-.55.55l.05.3.1.2-.45.3-.55.05h-.55l.35-.15q-.15-.15-.4-.15l-.4.2-.15.05h-.05l-.05-.05q-.7-1.3-.55-2.7l.15-.7 1.45.35q.75.2 1.5 0m-1.35.2q-1.05-.5-1.05.35l.45.55.4.35-.15.7q-.05.65.55.65l.55-.75.3-1q0-.4-1.05-.85" transform="translate(3.45 3.8)"/><path fill-rule="evenodd" fill="#c6b106" d="M12.6 101q1.05.45 1.05.85l-.3 1-.55.75q-.6 0-.55-.65l.15-.7-.4-.35-.45-.55q0-.85 1.05-.35" transform="translate(3.45 3.8)"/><path fill-rule="evenodd" d="M14-.1h.05l4.6 7.9 9.25 7.95-.05.15-.5 2L26 22.3q-1.75 5.4-4.2 9l-1.45 36.3 3.75.15-.05.35v4.35L20 72.3l-1.2 18 2.35-.5-1.3 3h-.8l-.1.4q-.35 2.15-1.05 3.65l-1.25 2q-1.25 1.65-2.7 1.95-.75.2-1.5 0l-1.45-.35q-1.2-.5-2.35-2.8-.75-1.4-1.05-3.05-.25-1.25-.2-2.6l-1.2-.05-.75-3.15 1.75.45v-17.3l-4.75-.25v-5l3.55.2v-36Q2.25 25.15.05 14.95l9.4-7.55L14-.1m-.35 103.7.3-.85-.15.95.7.45 2.15 1.4q.55.4 1.05.45l1.5.35 1.25.95q1.1 1.25 1.95 3l.35.9.35 1.7.3 1.05-.25.1-2.55.05-2.55 1.9q-.9.65-1.8.65-1.3.25-2.65-.5-.05-.15-.3-.2-1.3-.8-2.15-2.55-.95-1.85-.95-3.95-.05-2.15.65-3.3l.9-1.4.2-.1.05.1.15.15v-.25q-.1-.15.15-.2l.3-.2-.1-.1.15-.2.55-.05.45-.3M6 66.9l1.45.05L6 66.9m2.45.05h-1l3.9.2h.05l7.9.4-.45-.25-4.95-.2-5.45-.15m10.85.6 1.05.05-1.05-.05m-5.45 36.3-.05-.1v.05l.05.05" transform="translate(3.45 3.8)"/><path stroke-width="7" stroke-linejoin="round" stroke-linecap="round" stroke="#ffc" fill="none" d="M17.45 3.65v.05l-4.55 7.5-9.4 7.55q2.2 10.2 5.95 15.95v36l-3.55-.2v5l4.75.25v17.3L8.9 92.6l.75 3.15 1.2.05q-.05 1.35.2 2.6.3 1.65 1.05 3.05 1.15 2.3 2.35 2.8l-.15.7q-.15 1.4.55 2.7l.05.05h.05m2.55-104v-.2l-.05.15m.05.05 4.6 7.9 9.25 7.95-.05.15-.5 2-1.35 4.4q-1.75 5.4-4.2 9L23.8 71.4l3.75.15-.05.35v4.35l-4.05-.15-1.2 18 2.35-.5-1.3 3h-.8l-.1.4q-.35 2.15-1.05 3.65l-1.25 2q-1.25 1.65-2.7 1.95l.15 1.75m-.45 1.05.3-.85m.55 1.4 2.15 1.4q.55.4 1.05.45l1.5.35 1.25.95q1.1 1.25 1.95 3l.35.9.35 1.7.3 1.05m-.25.1-2.55.05-2.55 1.9q-.9.65-1.8.65-1.3.25-2.65-.5-.05-.15-.3-.2-1.3-.8-2.15-2.55-.95-1.85-.95-3.95-.05-2.15.65-3.3l.9-1.4m.2-.8h.7l.55-.05.45-.3m-6.2-36.65-1.45-.05m13.3.65-.45-.25m1.5.3-1.05-.05"/><path fill-rule="evenodd" fill="#8f8181" d="m14 .2 4.6 7.9 9.25 7.95-.05.15-.5 2-1.35 4.4q-1.75 5.4-4.2 9L20.4 67.65l-1.6-.05-4.95-.1v-.1L14 .2m3.6 10.15-1.35-1.9-.5 57.5h3.05l1-35.1q3.75-6.2 5.5-14.2l-7.7-6.3m1.2 57.25-4.95-.2 4.95.2" transform="translate(3.45 3.8)"/><path fill-rule="evenodd" fill="#e9e3da" d="m10.9 9.45.75-1.15v57.15H8.4L8 30.75q-3.55-5.7-5.2-14.45l8.1-6.85" transform="translate(3.45 3.8)"/><path fill-rule="evenodd" fill="#fcfbfa" d="m13.85 67.5-5.45-.25-1.8-.1-.65-35.95Q2.2 25.45 0 15.25L9.4 7.7 13.95.2H14l-.15 67.2v.1M10.9 9.45 2.8 16.3Q4.45 25.05 8 30.75l.4 34.7h3.25V8.3l-.75 1.15m2.95 57.95-5.45-.15 5.45.15" transform="translate(3.45 3.8)"/><path fill-rule="evenodd" fill="#bdb4b4" d="m17.6 10.35 7.7 6.3q-1.75 8-5.5 14.2l-1 35.1h-3.05l.5-57.5 1.35 1.9" transform="translate(3.45 3.8)"/><path fill-rule="evenodd" fill="#f2f1ea" d="M13.95.2V.15L14 .2h-.05" transform="translate(3.45 3.8)"/><path fill-rule="evenodd" fill="#23877c" d="m21.15 68.75-2.75.2-3.25.3-2.95-.15-.6-.05-2.65-.15-3-.35q-2.5-.4-3.55-1.15V67l8.9.45h.05l12.7.6-.05.35-2.85.35" transform="translate(3.45 3.8)"/><path fill-rule="evenodd" fill="#208277" d="M21.15 72.65v-3.9L24 68.4v4.35l-2.85-.1M2.4 67.4q1.05.75 3.55 1.15L5.9 72.2 2.4 72v-4.6" transform="translate(3.45 3.8)"/><path fill-rule="evenodd" fill="#28a397" d="M21.15 68.75v3.9l-1.2-.05-1.7-.05.15-3.6 2.75-.2m-15.2-.2 3 .35-.05 3.4-1.75-.05-1.25-.05.05-3.65m1.2 21 3.9.35 3.35.3 4.35.4 2.35-.5-1.3 3H19q-5.8.8-11.65-.8l-1.2-.05-.75-3.15 1.75.45m3.85 6.9.15-.45q0-1.45-1.35-1.45t-1.35 1.3l.1.65q.25.75.95.75h.3q.65 1.7 2.15 2.45 2.15 1.05 3.3-2.2.45-.6-.55-.9l-3.7-.15m-.05 4.3q-1.2-.5-2.35-2.8-.75-1.4-1.05-3.05 4.6-2.7 9.25.6l.4.25.65 1.4-1.25 2q-1.25 1.65-2.7 1.95-.75.2-1.5 0l-1.45-.35m.55-5.4q0 .45.4.45l.35-.2.1-.25q0-.35-.4-.45-.45-.15-.45.45" transform="translate(3.45 3.8)"/><path fill-rule="evenodd" fill="#c9bdb3" d="m7.15 72.25 1.75.05 2.05.05.05 5.15v6.4l-3.85-1.45L11 83.9l.05 6-3.9-.35v-17.3M11 77.5l-3.85-1.45L11 77.5" transform="translate(3.45 3.8)"/><path fill-rule="evenodd" fill="#87e6ef" d="m8.95 68.9 2.65.15.6.05-.15 3.3-1.1-.05-2.05-.05.05-3.4" transform="translate(3.45 3.8)"/><path fill-rule="evenodd" fill="#93e3db" d="m12.2 69.1 2.95.15-.05 3.25-3.05-.1.15-3.3M11 96.45l3.7.15q1 .3.55.9-1.15 3.25-3.3 2.2-1.5-.75-2.15-2.45.55-.1.95-.5l.25-.3" transform="translate(3.45 3.8)"/><path fill-rule="evenodd" fill="#958883" d="m10.95 72.35 1.1.05 3.05.1-.2 5.2-3.9-.2 3.9.2-.25 6.55-3.6-.35 3.6.35-.25 5.95-3.35-.3-.05-6h.05H11v-6.4l-.05-5.15" transform="translate(3.45 3.8)"/><path fill-rule="evenodd" fill="#8dcee9" d="m18.4 68.95-.15 3.6-3.15-.05.05-3.25 3.25-.3" transform="translate(3.45 3.8)"/><path fill-rule="evenodd" fill="#4c453c" d="m18.25 72.55 1.7.05-.7 10.6-.8.5q-1.85.8-3.8.55 1.95.25 3.8-.55l.8-.5-.5 7.4-4.35-.4.25-5.95.25-6.55q2 .3 3.6-.8l.8-.55-.8.55q-1.6 1.1-3.6.8l.2-5.2 3.15.05" transform="translate(3.45 3.8)"/><path fill-rule="evenodd" fill="#a8e8e0" d="M9.8 97.25h-.3q-.7 0-.95-.75l-.1-.65q0-1.3 1.35-1.3T11.15 96l-.15.45-.25.3q-.4.4-.95.5m1.7-1.9q0-.6.45-.45.4.1.4.45l-.1.25-.35.2q-.4 0-.4-.45" transform="translate(3.45 3.8)"/><path fill-rule="evenodd" fill="#1f7a71" d="M7.55 94.9q-.25-1.25-.2-2.6 5.85 1.6 11.65.8l-.1.4q-.35 2.15-1.05 3.65l-.65-1.4-.4-.25q-4.65-3.3-9.25-.6" transform="translate(3.45 3.8)"/><path fill-rule="evenodd" fill="#f12534" d="m14.45 104.45 2.15 1.4q.55.4 1.05.45l1.5.35 1.25.95q1.1 1.25 1.95 3l.35.9.35 1.7.3 1.05-.25.1-2.55.05-2.55 1.9q-.9.65-1.8.65-1.3.25-2.65-.5l-.3-.2q-1.3-.8-2.15-2.55-.95-1.85-.95-3.95-.05-2.15.65-3.3l.9-1.4.2-.1-.65 1.1q-.45.8-.15 3.5.3 2.75 2.35 2.85 2.05.05 3.45-.75l-.25-.55 3.85-.45q-2.9-1.1-3.35-2-.5-.95-1.5-1.7t-1.85-2.8l.3.05.35.25m-2 0-.3-.1-.25-.1h.7l-.15.2m-.4 8q.35 2.4 3.05 3.15 2.7.7 5.15-3.25-1.7.65-2.25.95-2.45 1.2-5.95-.85" transform="translate(3.45 3.8)"/><path fill-rule="evenodd" fill="#faeb4f" d="m12.05 104.25.35-.15-.4-.15q-.3 0-.4.2l-.15.05v.05l-.05-.05-.05-.05q-.7-1.3-.55-2.7l.15-.7 1.45.35q.75.2 1.5 0l.15 1.75H14q-.55-.05-.55.55l.05.3.1.2-.45.3-.55.05h-.55m.5-2.95q-1.05-.5-1.05.35l.45.55.4.35-.15.7q-.05.65.55.65l.55-.75.3-1q0-.4-1.05-.85m-1.15 2.9h.05-.05" transform="translate(3.45 3.8)"/><path fill-rule="evenodd" fill="#c6b106" d="M12.55 101.3q1.05.45 1.05.85l-.3 1-.55.75q-.6 0-.55-.65l.15-.7-.4-.35-.45-.55q0-.85 1.05-.35" transform="translate(3.45 3.8)"/><path fill-rule="evenodd" fill="#e71026" d="m11.9 104.95.05.1.15.15v-.25q-.1-.15.15-.2l.3-.2-.1-.1.15-.2.55-.05.45-.3.3-.85q-.25.95-.15 1.05l.05.05q.85 2.05 1.85 2.8t1.5 1.7q.45.9 3.35 2l-3.85.45.25.55q-1.4.8-3.45.75-2.05-.1-2.35-2.85-.3-2.7.15-3.5l.65-1.1" transform="translate(3.45 3.8)"/><path fill-rule="evenodd" fill="#f35868" d="M12.05 112.45q3.5 2.05 5.95.85.55-.3 2.25-.95-2.45 3.95-5.15 3.25-2.7-.75-3.05-3.15" transform="translate(3.45 3.8)"/><path stroke-linejoin="round" stroke-linecap="round" stroke="#7d720b" fill="none" d="m14 .2 4.6 7.9 9.25 7.95-.05.15-.5 2-1.35 4.4q-1.75 5.4-4.2 9L20.4 67.65m-13.8-.5L5.95 31.2Q2.2 25.45 0 15.25L9.4 7.7 13.95.2V.15L14 0v.2" transform="translate(3.45 3.8)"/><path stroke-width=".5" stroke-linejoin="round" stroke-linecap="round" stroke="#1c6c64" fill="none" d="m17.3 71.2 4.95.2m2.35 1.15-2.75.2-3.25.3-2.95-.15-.6-.05-2.65-.15-3-.35q-2.5-.4-3.55-1.15m21.6 1-2.85.35m-12.75-1.5 5.45.15m-2.85 16.5h.05"/><path stroke-linejoin="round" stroke-linecap="round" stroke="#1c6c64" fill="none" d="m20.4 67.65-1.6-.05-4.95-.1-5.45-.25-1.8-.1m11.65 5.4 1.7.05 1.2.05 2.85.1V68.4l.05-.35-12.7-.6m-.05 0L2.4 67v5l3.5.2 1.25.05 1.75.05 2.05.05 1.1.05 3.05.1 3.15.05m-11.1 17 3.9.35 3.35.3 4.35.4 2.35-.5-1.3 3H19q-5.8.8-11.65-.8l-1.2-.05-.75-3.15 1.75.45m3.8 11.2q-1.2-.5-2.35-2.8-.75-1.4-1.05-3.05-.25-1.25-.2-2.6m10.5 4.85q.7-1.5 1.05-3.65l.1-.4m-7.1 11.15h.7l.55-.05.45-.3.3-.85m-2.45 1.2-.05-.05-.05-.05q-.7-1.3-.55-2.7l.15-.7 1.45.35q.75.2 1.5 0 1.45-.3 2.7-1.95l1.25-2m-6.4 7.05h-.05m2.65-1.35-.15-1.75" transform="translate(3.45 3.8)"/><path stroke-linejoin="round" stroke-linecap="round" stroke="#8b7005" fill="none" d="m14 .2-.15 67.2v.1" transform="translate(3.45 3.8)"/><path stroke-width=".5" stroke-linejoin="round" stroke-linecap="round" stroke="#958883" fill="none" d="M18.35 81.5q2 .3 3.6-.8l.8-.55m-8.3 1.15 3.9.2m-3.85 6.2 3.6.35q1.95.25 3.8-.55l.8-.5m-8.25.7-3.85-1.45m0-6.4 3.85 1.45"/><path stroke-linejoin="round" stroke-linecap="round" stroke="#958883" fill="none" d="m19.25 83.2.7-10.6m-12.8 9.85v7.1m0-7.1v-10.2m12.1 10.95-.5 7.4" transform="translate(3.45 3.8)"/><path stroke-linejoin="round" stroke-linecap="round" stroke="#cc1137" fill="none" d="m14.45 104.45 2.15 1.4q.55.4 1.05.45l1.5.35 1.25.95q1.1 1.25 1.95 3l.35.9.35 1.7.3 1.05m-.25.1-2.55.05-2.55 1.9q-.9.65-1.8.65-1.3.25-2.65-.5l-.3-.2q-1.3-.8-2.15-2.55-.95-1.85-.95-3.95-.05-2.15.65-3.3l.9-1.4" transform="translate(3.45 3.8)"/></g><g id="K"><path fill-rule="evenodd" fill="#edd823" d="m67.4 2.2.05 20.75-6.3.7q-2.95 1.15-.8 3.5l7.1 2.6V55.4Q57.7 66.2 45.4 71.6q-5.65 2.55-11.05 3.7-5.85-1.4-10.7-3.7Q11.25 65.8 0 55.4V29.7l7.1-2.55q2.7-1.75-.8-3.55l-6.05-.7L.2 2.15h.05q33.55-4.3 67.05.05h.1m-1.6 1.85Q34.05-.15 3.4 3.2h.55q33-1.4 57.7 2.65 3.9 2.8 4.15 8.1v-9.9m-20.55 3-2.3-.15-.85-.05.05 11.2 14.7.2h.95l2.3.05h.3V8.25l-15.15-1.2m1.5 25.75h-4.5l.3 33.4 2.15-.85q9.1-4.15 17.1-14.45V33l-1.6-.3-13.45.1M25.95 6.65h-1l-2.6.15L6.1 7.9v9.7l19.9.25-.05-11.2m-22.2 25.4-2-1V55.3L1.2 55q14.35 13.05 32.95 19.05l.1-3.3-.65-.7-4.95-10.85-.85 8.5Q16.35 62.75 3.35 54.65q-.75-10.9.4-22.6M4 3.85H2.15v17.4H4.9q-3.3-6.1-.9-17.4M5.65 33v17.4q9.25 10.25 19.3 14.75l1.1.55L26 32.85 5.65 33m39.2 37.2q11.3-4.85 20.65-16.15v-11.6q-.45 6.8-3 12.35-8.55 10.1-17.65 15.4" transform="translate(1.95 1.95)"/><path fill-rule="evenodd" fill="#fbf7d0" d="M65.8 4.05v9.9q-.25-5.3-4.15-8.1Q36.95 1.8 3.95 3.2H3.4q30.65-3.35 62.4.85M44.85 70.2q9.1-5.3 17.65-15.4 2.55-5.55 3-12.35v11.6q-9.35 11.3-20.65 16.15" transform="translate(1.95 1.95)"/><path fill-rule="evenodd" fill="#7d720b" d="m45.25 7.05 15.15 1.2V18.3h-.3l-2.3-.05h-.95l-14.7-.2-.05-11.2.85.05 2.3.15m13.7 10.1v-7.6l-14.8-1.1v8.7h14.8M46.75 32.8l13.45.2v-.3l1.6.3v17.9q-8 10.3-17.1 14.45l-2.15.85-.3-33.4h4.5m13.45 2.35H44.4l.65 28.55q7.7-4.35 15.15-13.35v-15.2M25.95 6.65l.05 11.2-19.9-.25V7.9l16.25-1.1 2.6-.15h1m-2 1.3-16.7 1.2v7.2h16.7v-8.4M5.65 33 26 32.85l.05 32.85-1.1-.55Q14.9 60.65 5.65 50.4V33m1.5 1.9v14.75q7.7 9.1 17.2 13.55l-.6-.3v-28H7.15" transform="translate(1.95 1.95)"/><path fill-rule="evenodd" fill="#c5b310" d="M60.2 32.7v.3l-13.45-.2 13.45-.1" transform="translate(1.95 1.95)"/><path fill-rule="evenodd" fill="#ccb911" d="M4 3.85q-2.4 11.3.9 17.4H2.15V3.85H4m-.25 28.2q-1.15 11.7-.4 22.6 13 8.1 24.45 13.05l.85-8.5 4.95 10.85.65.7-.1 3.3Q15.55 68.05 1.2 55l.55.3V31.05l2 1" transform="translate(1.95 1.95)"/><path fill-rule="evenodd" fill="#f3e469" d="M58.95 17.15h-14.8v-8.7l14.8 1.1v7.6m1.25 18v15.2q-7.45 9-15.15 13.35l-.65-28.55h15.8M23.95 7.95v8.4H7.25v-7.2l16.7-1.2M7.15 34.9h16.6v28l.6.3q-9.5-4.45-17.2-13.55V34.9" transform="translate(1.95 1.95)"/><path stroke-width="3.9" stroke-linejoin="round" stroke-linecap="round" stroke="#0cf" fill="none" d="M69.35 4.15h-.1Q35.75-.2 2.2 4.1h-.05l.05 20.75 6.05.7q3.5 1.8.8 3.55l-7.1 2.55v25.7q11.25 10.4 23.65 16.2 4.85 2.3 10.7 3.7 5.4-1.15 11.05-3.7 12.3-5.4 22.05-16.2V31.7l-7.1-2.6q-2.15-2.35.8-3.5l6.3-.7-.05-20.75z"/></g><g id="z"><path fill-rule="evenodd" fill="#fff" d="M84.45 14.2q0-3.4-2.4-5.8T76.25 6q-3.4 0-5.8 2.4t-2.4 5.8q0 3.4 2.4 5.8t5.8 2.4q3.4 0 5.8-2.4t2.4-5.8m23.5 117.6q-2.45-.3.1-4.3 6.95-8.5 11.6-17.8l.35-1q3.75-8.55 4-18.8 1.35-35-29.15-45.3-16.15-4.05-25.15-8.7-11.65-7.95-15.5-17.6-1.3-3.25-1.7-6.65.2-3.45.9-7.05 1.1-2.25 3.65-2.2l5.8-.2Q72.6-.75 84.1.35q22.25 3.55 38.95 20.25 21.2 21.2 21.2 51.2 0 28.6-19.45 47.7-4.65 4.45-10.35 8l-6.5 4.3m-48-2.55q0-3.4 2.4-5.8t5.8-2.4q3.4 0 5.8 2.4t2.4 5.8q0 3.4-2.4 5.8t-5.8 2.4q-3.4 0-5.8-2.4t-2.4-5.8" transform="translate(1.35 1.45)"/><path fill-rule="evenodd" fill="#35241d" d="M84.45 14.2q0 3.4-2.4 5.8t-5.8 2.4q-3.4 0-5.8-2.4t-2.4-5.8q0-3.4 2.4-5.8t5.8-2.4q3.4 0 5.8 2.4t2.4 5.8m-48-2.55q2.45.3-.1 4.3-6.95 8.5-11.6 17.8l-.35 1q-3.75 8.55-4 18.8-1.35 35 29.15 45.3 16.15 4.05 25.15 8.7 6.3 4.3 10.35 9.15 3.4 4.05 5.15 8.5 1.3 3.2 1.7 6.6-.2 3.45-.9 7.05-1.1 2.25-3.65 2.2l-5.8.2q-9.75 2.95-21.25 1.85-22.25-3.55-38.95-20.25-21.2-21.2-21.2-51.2 0-28.6 19.45-47.7 4.65-4.45 10.35-8 3.75-2.65 6.5-4.3m23.5 117.6q0 3.4 2.4 5.8t5.8 2.4q3.4 0 5.8-2.4t2.4-5.8q0-3.4-2.4-5.8t-5.8-2.4q-3.4 0-5.8 2.4t-2.4 5.8" transform="translate(1.35 1.45)"/><path fill-rule="evenodd" fill="#c1c1c1" d="M53.95 18.4q1.75 4.45 4.45 8.8l.2.2q7.2 11.5 21.25 17.8 27.8 15.05 31.8 39.9l.25.3q4.3 27.7-9.85 45Q111 110 106.1 91.55 99.55 73 80.25 57 51.85 39.85 52.4 13.7l1.55 4.7" transform="translate(1.35 1.45)"/><path fill-rule="evenodd" fill="#ccc" d="M102.05 130.4q14.15-17.3 9.85-45l-.25-.3q-4-24.85-31.8-39.9Q65.8 38.9 58.6 27.4l-.2-.2q-2.7-4.35-4.45-8.8l.25-.1q3.85 9.65 15.5 17.6 9 4.65 25.15 8.7 30.5 10.3 29.15 45.3-.25 10.25-4 18.8l-.35 1q-4.65 9.3-11.6 17.8-2.55 4-.1 4.3-4.75 2.85-6.35 2.55-1.35.35-.45-2.05l.9-1.9" transform="translate(1.35 1.45)"/><path fill-rule="evenodd" fill="#443838" d="M36.45 11.65Q41.2 8.8 42.8 9.1q1.35-.35.45 2.05l-.9 1.9q-14.15 17.3-9.85 45l.15.4q4.1 24.75 31.9 39.8 14.05 6.3 21.25 17.8l.2.2q2.7 4.35 4.45 8.85l1.55 4.65-.1 2.05q-.4-3.4-1.7-6.6-1.75-4.45-5.15-8.5-4.05-4.85-10.35-9.15-9-4.65-25.15-8.7-30.5-10.3-29.15-45.3.25-10.25 4-18.8l.35-1q4.65-9.3 11.6-17.8 2.55-4 .1-4.3" transform="translate(1.35 1.45)"/><path fill-rule="evenodd" fill="#4d4a41" d="m92 129.75-1.55-4.65q-1.75-4.5-4.45-8.85l-.2-.2q-7.2-11.5-21.25-17.8-27.8-15.05-31.9-39.8l-.15-.4q-4.3-27.7 9.85-45-8.95 20.4-4.05 38.85 6.55 18.55 25.65 34.35Q89.9 102 91.85 125l.15 4.75" transform="translate(1.35 1.45)"/><path stroke-width="3" stroke-linejoin="round" stroke-linecap="round" stroke="#544229" fill="none" d="M53.75 15.15Q53.2 41.3 81.6 58.45q19.3 16 25.85 34.55 4.9 18.45-4.05 38.85l-.9 1.9q-.9 2.4.45 2.05 1.6.3 6.35-2.55l6.5-4.3q5.7-3.55 10.35-8 19.45-19.1 19.45-47.7 0-30-21.2-51.2Q107.7 5.35 85.45 1.8 73.95.7 64.2 3.65l-5.8.2q-2.55-.05-3.65 2.2-.7 3.6-.9 7.05l-.1 2.05M43.7 14.5l.9-1.9q.9-2.4-.45-2.05-1.6-.3-6.35 2.55-2.75 1.65-6.5 4.3-5.7 3.55-10.35 8Q1.5 44.5 1.5 73.1q0 30 21.2 51.2 16.7 16.7 38.95 20.25 11.5 1.1 21.25-1.85l5.8-.2q2.55.05 3.65-2.2.7-3.6.9-7.05l.1-2.05-.15-4.75q-1.95-23-27.9-38.75-19.1-15.8-25.65-34.35-4.9-18.45 4.05-38.85z"/></g><g id="M"><path fill-rule="evenodd" d="m97.7 36.35-3.4-2.7-1.45-1.05q-12.9-8.45-24 2.75l-.4.4-.1.1-.7.65-1.95 1.9v.05l-1.9 1.6-.2.25-.95.8-.75.65-1.35 1.05-2.4 1.5q-1.35.85-2.8 1.3l-.6.25-1.55.5-3.3-.1-2.55-.7-1.3-.45-3.55-1.55-.6-.3-.5-.35-.4-.2-2.55-1.95-1.15-1.2-.3-.35-1-1.25-1-1.7-1.05-2.7q-.5-1.7-.7-3.55v-1.3q-.35-7.2 2.8-12.35l.4-.6.35-.35.05-.15.3-.3.9-1.1q1.55-1.8 3.7-3.25.6-.45 1.3-.8l.25-.15q1.15-.75 2.6-1.35l.3-.1.55-.3q1.65-.75 3.3-1.25l3.8-1.2.35-.1 2-.4 2.25-.4 2.85-.3 2.55-.15h2.55l2.05.1.45.05 1.3.1 2.65.4 1.05.15.75.15 1.05.25q6 1.1 11.7 3.25 3.95 1.9 7.25 4.9l.85.75q5.95 5.7 9.65 12.7l1.75 3.6q1.75 4.35 2.85 9.1l.1.35 1.05 5.45.4 2.8.35 5.9-.05 1.25-.1 2q-.2 3.6-1.1 6.7L108.95 57l-.2-1.05-.2-1-.35-1.35q-.9-3.2-2.25-6.1L104 43.95l-1.85-2.65-2.3-2.75-1.45-1.5v-.2h-.1l-.6-.5M49.25 97.4l2.7-.8 1.4-.6q2.25-.95 4.15-2.05 5.45-3.35 7.35-8.35 2.05-5.25.3-12.3l-.05-.25-.5-2.35-.35-1.7h-.05l-.9-4.95q-.9-5.95.9-10.85l.1-.15V53l1.5-1.55q3.05-3.15 6.15-5l1.1-.6q8.05-4.15 16.4.45Q96.7 50.45 99.2 57q.8 2.05 1.1 4.4.4 3.35-.15 7.25-.45 3.3-1.3 6.45l-.5 1.55-.3.9q-2.2 6.3-6.15 11.75l-4.65 5.5-2.5 2.65q-2.9 3-6.15 5.5l-.2.15q-3.65 2.45-7.9 3.65-8.6 2.5-17.05 1.9-6.6-.4-13.15-2.6-14.1-4.7-21.25-12.15l7.8 2.8q5.4 1.95 10.65 2.2 5.5.25 10.85-1.25l.15.1.05-.05.7-.3m-4-69.7.1 1.85.1.7-.15-2.9-.05.35m8.65-16.95h-.8l-.35.2-.55.45.5.55.25.2 1.4-.6-.15-.4-.3-.4m40.45 61.9-.05-1.05-.75.15-.35.15q-.25.9-.15 1.4l.9.05.4-.7M81.65 56l2.25 1.2-.1-.1q-.95-.75-2.15-1.1M19.5 24.7q-.5 2-.7 4.2-1.2 9.9 3.75 15.55 1.5 1.6 3.45 2.9 2.8 1.9 6.8 2.95l4.1 1.3h.05l4.75 1.7q5.7 2.1 9.1 6.05l.1.15q6 17.5-6.5 25.15-2.05 1.25-4.1 2.05-2.45.95-5 1.25-4.15.55-8.25-.85-3.75-1.2-7.4-4.05l-1-.8q-4.5-3.65-7.9-8.1Q7.25 69.5 5 64l-1.75-5q-2-5.8-2.95-11.75-.35-4.45.65-8.7Q3 29.95 7.7 22.75q3.6-5.5 8.7-10.15 4.15-3.75 8.05-6.4 3.15-2.1 6.2-3.65Q34.05.9 37.35.1q-1.5 1.1-6.2 5.35l-.9.8-.9.9q-7.2 7.15-9.6 16.65h-.1l.05.1-.2.8m17.85 49.95.3-.15q1.25-.55 2.15-1.35l-2.45 1.5" transform="translate(4.8 4.9)"/><path stroke-width="10" stroke-linejoin="round" stroke-linecap="round" stroke="#ff6" fill="none" d="m102.5 41.25-3.4-2.7-1.45-1.05q-12.9-8.45-24 2.75l-.4.4-.1.1-.7.65-1.95 1.9v.05l-1.9 1.6-.2.25-.95.8-.75.65-1.35 1.05-2.4 1.5q-1.35.85-2.8 1.3l-.6.25-1.55.5-3.3-.1-2.55-.7-1.3-.45-3.55-1.55-.6-.3-.5-.35-.4-.2-2.55-1.95-1.15-1.2-.3-.35-1-1.25-1-1.7-1.05-2.7q-.5-1.7-.7-3.55v-1.3q-.35-7.2 2.8-12.35l.4-.6.35-.35.05-.15.3-.3.9-1.1q1.55-1.8 3.7-3.25.6-.45 1.3-.8l.25-.15q1.15-.75 2.6-1.35l.3-.1.55-.3q1.65-.75 3.3-1.25l3.8-1.2.35-.1 2-.4 2.25-.4 2.85-.3L68.65 9h2.55l2.05.1.45.05 1.3.1 2.65.4 1.05.15.75.15 1.05.25q6 1.1 11.7 3.25 3.95 1.9 7.25 4.9l.85.75q5.95 5.7 9.65 12.7l1.75 3.6q1.75 4.35 2.85 9.1l.1.35 1.05 5.45.4 2.8.35 5.9-.05 1.25-.1 2q-.2 3.6-1.1 6.7l-1.45-7.05-.2-1.05-.2-1-.35-1.35q-.9-3.2-2.25-6.1l-1.95-3.55-1.85-2.65-2.3-2.75-1.45-1.5M54.05 102.3l2.7-.8 1.4-.6q2.25-.95 4.15-2.05 5.45-3.35 7.35-8.35 2.05-5.25.3-12.3l-.05-.25-.5-2.35-.35-1.7H69l-.9-4.95Q67.2 63 69 58.1l.1-.15v-.05l1.5-1.55q3.05-3.15 6.15-5l1.1-.6q8.05-4.15 16.4.45 7.25 4.15 9.75 10.7.8 2.05 1.1 4.4.4 3.35-.15 7.25-.45 3.3-1.3 6.45l-.5 1.55-.3.9q-2.2 6.3-6.15 11.75l-4.65 5.5-2.5 2.65q-2.9 3-6.15 5.5l-.2.15q-3.65 2.45-7.9 3.65-8.6 2.5-17.05 1.9-6.6-.4-13.15-2.6-14.1-4.7-21.25-12.15l7.8 2.8q5.4 1.95 10.65 2.2 5.5.25 10.85-1.25l.9-.25m-29.5-73.6q2.4-9.5 9.6-16.65l.9-.9.9-.8q4.7-4.25 6.2-5.35-3.3.8-6.7 2.45Q32.4 9 29.25 11.1q-3.9 2.65-8.05 6.4-5.1 4.65-8.7 10.15-4.7 7.2-6.75 15.8-1 4.25-.65 8.7.95 5.95 2.95 11.75l1.75 5q2.25 5.5 5.75 10.15 3.4 4.45 7.9 8.1l1 .8q3.65 2.85 7.4 4.05 4.1 1.4 8.25.85 2.55-.3 5-1.25 2.05-.8 4.1-2.05 12.5-7.65 6.5-25.15l-.1-.15q-3.4-3.95-9.1-6.05l-4.75-1.7h-.05l-4.1-1.3q-4-1.05-6.8-2.95-1.95-1.3-3.45-2.9Q22.4 43.7 23.6 33.8q.2-2.2.7-4.2l.25-.9z"/><path fill-rule="evenodd" fill="#42bcf0" d="m106.45 32.65-.95-2.5q-1.2-2.75-3-5.35v-.1l-.75-1.25 1.65 1.8 1.55 1.55 1.75 3.6q1.75 4.35 2.85 9.1l.1.35 1.05 5.45.4 2.8.35 5.9-.05 1.25-.1 2q-.2 3.6-1.1 6.7l-1.45-7.05-.2-1.05-.2-1-.35-1.35q-.9-3.2-2.25-6.1l-1.95-3.55-1.85-2.65-2.3-2.75-1.45-1.5v-.2q.15-.1-1.65-2.85-1.5-2.35-3.45-4.35-2.6-2.85-6.05-4.9Q79 19.9 71.3 20.2l-.8.05h-.1l-3.8.6-.25.1-1.65.4-2.25.8-1.9.9.8 1.2.45 1.1q1.25 2.7 1.1 4.95l-.45 2.05q-.7 2-2.75 3.45l-2.9 1.6-1.35.55-2.1-2.1 1.3-.25q1.4-.35 2.65-1.45l.2-.25q1.55-1.3 2.15-3.1l.35-1.7q.25-2.15-.7-4l-1-1.5-.95-1.05q-1.2-.9-2.55-1.3l-.25-.1-.6-.1-.25-.05-.45-.05-2.5.1q-.7.2-1.4.5-.85.35-1.55 1-1 .85-1.6 1.85-.8 1.2-1.05 2.75.45-3.55 1.75-6.3.8-1.7 2.05-3l.35-.45 2.1-1.9.6-.45.3-.2q1.1-.7 2.45-1.3l.25-.1 1.5-.55 2.8-.65.15-.05 2.6-.45 2.6-.25 2.1-.15.95-.05.85-.05 3.15.05h.65l.75.1q4.7.3 9.35 1.5 4.35 1.1 8.25 2.95l.65.55.4.1.45.3 4.05 2.95 2.8 2.75q2.25 2.15 3.75 5.4h-.15q-.85.15-.9.95-.1.7.1 1l.2.2 1.5.05.45 1.25.25.75h-.4q-1.8.15-2 1.7-.15 1.6 1.15 2.3l1.6.45 1.05-.15.95 3 .4 1.25q-.05 1.1.45 3.75l.05.25.7 3.1v.1q.4 2.7.8 3.8l.2 2.1.1.35.15.9.05.15q.15 1.1.65 1.95l.2.4.3-.15.15-.2.05-.35-.15-1.45.1-.15v-.3l-.05-.95-.55-3.7.25-.1.2-.8-.15-1.3-.8-2.95-.55-1.65-.35-2.2-.2-1-.15-.45v-.15l-.25-.7-.5-2.35-.65-1.6v-.4q.15-1.4-.6-1.95m-53.2 75.9q-6.6-.4-13.15-2.6-14.1-4.7-21.25-12.15l7.8 2.8q5.4 1.95 10.65 2.2 5.5.25 10.85-1.25l.15.1 3.3.15h.05q6.45-.25 12.25-3.1l.5-.25q12.85-6.9 14.9-19.4l.25-2.45-1.45.15-1.6-.25-1.75-.4-.55-.25q-4.2-1.6-5-5.7-.4-2.4.3-5.6l2.8-.75q-.85 1.95-.6 4.35.35 2.1 1.75 3.65l1.25 1.25.4.3q.85.5 1.7.8l3.4.3 1.9-.5q1.85-.8 3.05-2.45 1.85-2.4 1.45-5.55-.4-2.8-2.7-4.75 8.75 6.85 6.6 16.75l-.7 2.45-.3.75q-2.15 5.9-5.6 11.05-3 4.4-6.8 8.2l-.25.2q-3 3-6.3 5.25l-.45.3-.8.25-.3.3-.5.2-4.65 1.95-2.65.65-1.15.2-6.65.45.15-.15q.35-.75-.3-1.25l-.75-.4H52l-.85 1.35-2-.4.45-1.3q.15-1-.75-1.65-1.95-1.4-3.65.95l-.1.1-.3.85-4.35-1.15-.8-.4-2.75-1.1q-2.3-.8-3.25-1.05-2.55-1.15-3.7-1.4l-2.3-1.05-.95-.35q-1.3-.5-2.4-.45l-.1.25.4.55 1.4.6.25.3 4.35 1.9-.1.3.5.55q1 .75 5.85 1.8l2.15.85.9.35.45.15.85.25 2.35.75 1.75.25v.1l.35.2q1 .8 1.95.45 4 .95 8.65.7h.1l1.45.05-2.4.6-2.15.3M15.4 17.35l3.1-3.1 3.05-2.4L24.1 9.5 27.2 7l.15-.15 1.75-1.3.8-.7.35-.3L31.5 3l-.2-.25-.6.05-.3.2-.95.75-.35.15q-.65.25-3.8 2.75l-.05.05-.05-.05-.2-.15-.25.1-.5.1q-1.1.5-4.35 4.2l-1.85 1.4-.7.6-.3.35-.65.6-1.8 1.7q-.7.6-1.05 1.3l-.05.05-.4.15q-1.2.55-1.3 1.5-2.9 3.05-4.9 7.2l-.1.1-.7 1.25.7-2.4.7-2.05q3.6-5.5 8.7-10.15 4.15-3.75 8.05-6.4 3.15-2.1 6.2-3.65Q33.85.8 37.15 0l-6.2 5.35-.9.8-.9.9q-7.2 7.15-9.6 16.65h-.1q-.2-.05-1.75 2.8-3.15 6.1-3.35 12.85-.35 12 6.5 19.55 1.55 1.6 3.45 3.05l1.6 1.2.65-1.3q6.35-9.05 14.8-1.45l-.8 2.8q-1.2-1.7-3.35-2.6-2.1-.8-4.05-.4-.85.15-1.7.55-2.85 1.2-3.95 4.15l-.4 1.3q-.5 2.2.5 4.35 1.3 2.8 4.15 4 2.7 1 5.4 0Q29.3 77.9 23 74.6l-3.55-2.45-2.4-2.55q-2-2.3-3.65-4.8-4.85-7.2-7.05-15.7-1.25-4.3-1.55-8.6l.2-.85-.15-.4.05-.5.6-5.1L6.7 30q.7-3.1 2.8-5.95l.05.1q.55.7 1.3.35.7-.3.8-.55l.1-.25-.75-1.45 1.4-1.55q1.1 1.95 2.65 1.25 2.2-1 1-3.75l-.65-.85" transform="translate(4.8 4.9)"/><path fill-rule="evenodd" fill="#a9e0f8" d="m104.95 26.8-1.55-1.55-1.65-1.8.75 1.25v.1q1.8 2.6 3 5.35l.95 2.5q-.7-.5-1.8-.6l-.4.05-.25-.75-.45-1.25.55-.1.2-.2.15-.7q.1-1.3-.2-.8l-1.45-.4q-1.5-3.25-3.75-5.4l-2.8-2.75-4.05-2.95-.45-.3-.4-.1-.65-.55Q86.8 14 82.45 12.9q-4.65-1.2-9.35-1.5l-.75-.1h-.65l-3.15-.05-.85.05-.95.05-2.1.15-2.6.25-2.6.45-.15.05-2.8.65-1.5.55-.25.1q-1.35.6-2.45 1.3l-.3.2-.6.45-2.1 1.9-.35.45q-1.25 1.3-2.05 3-1.3 2.75-1.75 6.3l-.05.1-.05.35.1 1.85.1.7.1.3.05.2.4.9.95 1.55.2.25 1.1 1q1.5 1.2 3.5 1.45l.05.05h.2l.05.05 1.5-.05 2.1 2.1.45 1.15.15 1.95-.35 1.75q-.6 1.6-2.25 2.75l-1 .6-2-.25 2.5.45-3.25-.2-2.55-.7-1.3-.45-3.55-1.55-.6-.3-.5-.35-.4-.2-2.55-1.95-1.15-1.2-.3-.35-1-1.25-1-1.7-1.05-2.7q-.5-1.7-.7-3.55v-1.3q-.35-7.2 2.8-12.35l.4-.6.35-.35.05-.15.3-.3.9-1.1q1.55-1.8 3.7-3.25.6-.45 1.3-.8l.25-.15q1.15-.75 2.6-1.35l.3-.1.55-.3q1.65-.75 3.3-1.25l3.8-1.2.35-.1 2-.4 2.25-.4 2.85-.3L63.65 4h2.55l2.05.1.45.05 1.3.1 2.65.4 1.05.15.75.15 1.05.25q6 1.1 11.7 3.25 3.95 1.9 7.25 4.9l.85.75q5.95 5.7 9.65 12.7m2.1 8.15V35l.65 1.6.5 2.35.25.7v.15l.15.45.2 1 .35 2.2.55 1.65.8 2.95.15 1.3-.2.8-.25.1.55 3.7.05.95v.3l-.1.15.15 1.45-.05.35-.15.2-.3.15-.2-.4q-.5-.85-.65-1.95l-.05-.15-.15-.9-.1-.35-.2-2.1q-.4-1.1-.8-3.8v-.1l-.7-3.1-.05-.25q-.5-2.65-.45-3.75l-.4-1.25-.95-3 .35-.2 1.05-1.25M82.6 48.05l-.85-.55q-.85-.2-1.65.95-.5.6-.55 1.1l-.15.6.3.4.6.55.9.5.35.05q3-2.15 1.05-3.6m-18.5 4.9v-.05l1.5-1.55q3.05-3.15 6.15-5 .55-.35 1.1-.6 8.05-4.15 16.4.45Q96.5 50.35 99 56.9q.8 2.05 1.1 4.4.4 3.35-.15 7.25-.45 3.3-1.3 6.45l-.5 1.55-.3.9q-2.2 6.3-6.15 11.75l-4.65 5.5-2.5 2.65q-2.9 3-6.15 5.5l-.2.15q-3.65 2.45-7.9 3.65-8.6 2.5-17.05 1.9l2.15-.3 2.4-.6-1.45-.05h-.1q-4.65.25-8.65-.7l1.3-1.25.25-.35 2 .4-.2.55.1.25.55.55q1.05.75.75.25l1.05-1.15 6.65-.45 1.15-.2 2.65-.65 4.65-1.95.5-.2.3-.3.8-.25.45-.3q3.3-2.25 6.3-5.25l.25-.2q3.8-3.8 6.8-8.2 3.45-5.15 5.6-11.05l.3-.75.7-2.45q2.15-9.9-6.6-16.75l-.05-.05h-.1l-.05-.05-.1-.1q-.95-.75-2.15-1.1l-.3-.1-.2-.1-1-.15h-1.3l-.55.05-1.25.3q-2.25.75-3.7 2.65l-.85 1.25-2.8.75-1.2-.3q-4.95-1.55-4.2-7.3m22.7 2.7h.35l.3-.2q1.1-.95 1.1-1.95.05-.95-.8-1.6l-.8-.55q-.85-.15-1.65.95-.45.5-.4 1.3.1.95 1 1.6l.1.05q.5.4.8.4M44.05 9.7q-.4.65-.55 1.9-.3.75-.2 1.35.25.95 1.4 1.3l.1.05.8.1.85-.05 1-.45.3-.25q.7-.8.8-2.1l-.05-1.25q-.35-1.45-2.1-1.65h-.8q-1 .1-1.55 1.05m54.2 54.25q-.45-.65-1.05-.8-1.2-.45-2.45 1.2-.75 1-.45 2.3.35 1.05 1.3 1.75 2.05 1.6 3.6-.35l.1-.05q1-1.35.25-2.7l-1.3-1.35m-55.8-37.2-.1-1-.25-.35-2.45-.1-.05.05-.25.1q-.65.45-.7 1.4-.15.45-.05.9l.2.35.2.25q.45.35 1.25.4l1.25-.4.4-.25q.5-.5.55-1.35m35 21.9q-.65-.65-1.55-.85-1.65-.35-3 1.45-1.05 1.45-.3 2.65l.3.4 1.35 1.2q1.65 1.25 2.9 0l.7-1q1.4-2.45-.4-3.85M42.3 35.45l-.55.5q-.5.6-.55 1.45-.2.85.1 1.7l.4.75 1.1.75h.05l1.2.25 1.4-.15q.65-.2 1-.9l.45-2.2q.15-1.3-.45-1.9-.65-.75-2.15-.75H44l-.4.1-1.3.4m-.55-2.8-.1-.35-.6-.25q-2.8-1-3 1.25-.2.5-.05 1 .3.8 1.65.95l.75-.05.45-.15.55-.1.3-.5.1-.9-.05-.9M13.5 16.9l.05-.05q.35-.7 1.05-1.3l1.8-1.7.65-.6.3-.35.7-.6 1.85-1.4q3.25-3.7 4.35-4.2l.5-.1.25-.1.2.15.05.05.05-.05q3.15-2.5 3.8-2.75l.35-.15.95-.75.3-.2.6-.05.2.25-1.25 1.55-.35.3-.8.7-1.75 1.3-.15.15-3.1 2.5-2.55 2.35-3.05 2.4-3.1 3.1-.4-.25q-.8-.45-1.5-.2m-1.1 3.8L11 22.25l-.35-.4-.3-.1q-.05-.05-.65.25-1.2.5-.65.6l.45 1.45Q7.4 26.9 6.7 30l-1.2 3.65-.6 5.1-.05.5.15.4-.2.85q.3 4.3 1.55 8.6 2.2 8.5 7.05 15.7 1.65 2.5 3.65 4.8l2.4 2.55L23 74.6q6.3 3.3 14.15-.05l.3-.15 2.15-1.35.15-.25.2-.15.65-.75.85-1.6.55-2.55q0-1.65-.7-3.2l-.75-1.35.8-2.8.8-.95q3.8-3.5 8.55-.05 6 17.5-6.5 25.15-2.05 1.25-4.1 2.05-2.45.95-5 1.25-4.15.55-8.25-.85-3.75-1.2-7.4-4.05l-1-.8q-4.5-3.65-7.9-8.1Q7.05 69.4 4.8 63.9l-1.75-5q-2-5.8-2.95-11.75-.35-4.45.65-8.7 2.05-8.6 6.75-15.8l-.7 2.05-.7 2.4.7-1.25.1-.1q2-4.15 4.9-7.2-.15.8.4 1.75l.2.4m7.9 62q1 2.35 4 1.05.75-.05 1.2-.55.95-.85.1-2.7-.45-1.15-1.7-1.55l-2.2.3q-2.35 1-1.4 3.45m19.55-5.5-1.8.05-.9.55-.15.35q.2 1.7 1.15 2.25.8.45 1.85 0l.75-.4.05-.05q.45-.55.15-1.35l-.15-.4q-.2-.6-.95-1M19.7 75l-.5-.35-.35-.15-.3.35-.15.35.35.7.3.25.8.3.15-.7.1-.4-.4-.35m25.6 31.15-1.75-.25-2.35-.75-.85-.25-.45-.15-.9-.35-2.15-.85Q32 102.5 31 101.75l-.5-.55.1-.3-4.35-1.9-.25-.3-1.4-.6-.4-.55.1-.25q1.1-.05 2.4.45l.95.35 2.3 1.05q1.15.25 3.7 1.4.95.25 3.25 1.05l2.75 1.1.8.4 4.35 1.15-.05.5q.05.8.55 1.4m.3-32.05h-.55l-.8.3q-.7.25-.8.5l-.3.35q.45 3.6 2.7 2.6.5-.1.85-.45.65-.6.05-1.85l-.75-1.1-.4-.35m2.25-1 1.45-.95q1.1-1.2.25-3.3-.75-1.6-2.2-1.55-.65-.05-2.2.6-2.45 1.15-.95 3.6 1.55 2.55 3.65 1.6" transform="translate(4.8 4.9)"/><path fill-rule="evenodd" fill="#e0f4fc" d="M106.45 32.65q.75.55.6 1.95v.35L106 36.2l-.35.2-1.05.15-1.6-.45q-1.3-.7-1.15-2.3.2-1.55 2-1.7h.4l.4-.05q1.1.1 1.8.6m-2.9-2.55-1.5-.05-.2-.2q-.2-.3-.1-1 .05-.8.9-.95h.15l1.45.4q.3-.5.2.8l-.15.7-.2.2-.55.1M82.6 48.05q1.95 1.45-1.05 3.6l-.35-.05-.9-.5-.6-.55-.3-.4.15-.6q.05-.5.55-1.1.8-1.15 1.65-.95l.85.55m-29.2 58.1-1.05 1.15q.3.5-.75-.25l-.55-.55-.1-.25.2-.55.85-1.35h.5l.75.4q.65.5.3 1.25l-.15.15m-4.25-.85-.25.35-1.3 1.25q-.95.35-1.95-.45l-.35-.2v-.1q-.5-.6-.55-1.4l.05-.5.3-.85.1-.1q1.7-2.35 3.65-.95.9.65.75 1.65l-.45 1.3M86.8 55.65q-.3 0-.8-.4l-.1-.05q-.9-.65-1-1.6-.05-.8.4-1.3.8-1.1 1.65-.95l.8.55q.85.65.8 1.6 0 1-1.1 1.95l-.3.2h-.35m11.45 8.3 1.3 1.35q.75 1.35-.25 2.7l-.1.05q-1.55 1.95-3.6.35-.95-.7-1.3-1.75-.3-1.3.45-2.3 1.25-1.65 2.45-1.2.6.15 1.05.8M44.05 9.7q.55-.95 1.55-1.05h.8q1.75.2 2.1 1.65l.05 1.25q-.1 1.3-.8 2.1l-.3.25-1 .45-.85.05-.8-.1-.1-.05q-1.15-.35-1.4-1.3-.1-.6.2-1.35.15-1.25.55-1.9m-1.6 17.05q-.05.85-.55 1.35l-.4.25-1.25.4q-.8-.05-1.25-.4l-.2-.25-.2-.35q-.1-.45.05-.9.05-.95.7-1.4l.25-.1.05-.05 2.45.1.25.35.1 1m-.7 5.9.05.9-.1.9-.3.5-.55.1-.45.15-.75.05Q38.3 35.1 38 34.3q-.15-.5.05-1 .2-2.25 3-1.25l.6.25.1.35m.55 2.8 1.3-.4.4-.1h.3q1.5 0 2.15.75.6.6.45 1.9l-.45 2.2q-.35.7-1 .9l-1.4.15-1.2-.25h-.05l-1.1-.75-.4-.75q-.3-.85-.1-1.7.05-.85.55-1.45l.55-.5m35.15 13.2q1.8 1.4.4 3.85l-.7 1q-1.25 1.25-2.9 0l-1.35-1.2-.3-.4q-.75-1.2.3-2.65 1.35-1.8 3-1.45.9.2 1.55.85M15.4 17.35l.65.85q1.2 2.75-1 3.75-1.55.7-2.65-1.25l-.2-.4q-.55-.95-.4-1.75.1-.95 1.3-1.5l.4-.15q.7-.25 1.5.2l.4.25m-4.4 4.9.75 1.45-.1.25q-.1.25-.8.55-.75.35-1.3-.35l-.05-.1-.45-1.45q-.55-.1.65-.6.6-.3.65-.25l.3.1.35.4M19.7 75l.4.35-.1.4-.15.7-.8-.3-.3-.25-.35-.7.15-.35.3-.35.35.15.5.35m20.15 2.2q.75.4.95 1l.15.4q.3.8-.15 1.35l-.05.05-.75.4q-1.05.45-1.85 0-.95-.55-1.15-2.25l.15-.35.9-.55 1.8-.05M20.3 82.7q-.95-2.45 1.4-3.45l2.2-.3q1.25.4 1.7 1.55.85 1.85-.1 2.7-.45.5-1.2.55-3 1.3-4-1.05m27.55-9.6q-2.1.95-3.65-1.6-1.5-2.45.95-3.6 1.55-.65 2.2-.6 1.45-.05 2.2 1.55.85 2.1-.25 3.3l-1.45.95m-2.25 1 .4.35.75 1.1q.6 1.25-.05 1.85-.35.35-.85.45-2.25 1-2.7-2.6l.3-.35q.1-.25.8-.5l.8-.3h.55" transform="translate(4.8 4.9)"/><path fill-rule="evenodd" fill="#108ec5" d="m55.45 37.95 1.35-.55 2.9-1.6q2.05-1.45 2.75-3.45l.45-2.05q.15-2.25-1.1-4.95l-.45-1.1-.8-1.2 1.9-.9 2.25-.8 1.65-.4.25-.1 3.8-.6h.1l.8-.05q7.7-.3 15.75 4.45 3.45 2.05 6.05 4.9 1.95 2 3.45 4.35 1.8 2.75 1.65 2.85h-.1l-.6-.5-3.4-2.7-1.45-1.05q-12.9-8.45-24 2.75l-.4.4-.1.1-.7.65-1.95 1.9v.05l-1.9 1.6-.2.25-.95.8-.75.65-1.35 1.05q-1.15.85-2.4 1.5-1.35.85-2.8 1.3l-.6.25-1.55.5-.55-.1 1-.6q1.65-1.15 2.25-2.75l.35-1.75-.15-1.95-.45-1.15m-6.4 59.35 2.7-.8 1.4-.6q2.25-.95 4.15-2.05 5.45-3.35 7.35-8.35 2.05-5.25.3-12.3l-.05-.25-.5-2.35-.35-1.7H64l-.9-4.95Q62.2 58 64 53.1l.1-.15q-.75 5.75 4.2 7.3l1.2.3q-.7 3.2-.3 5.6.8 4.1 5 5.7l.55.25 1.75.4 1.6.25 1.45-.15-.25 2.45q-2.05 12.5-14.9 19.4l-.5.25q-5.8 2.85-12.25 3.1h-.05l-3.3-.15.05-.05.7-.3m-7.7-36.9q-8.45-7.6-14.8 1.45l-.65 1.3-1.6-1.2q-1.9-1.45-3.45-3.05-6.85-7.55-6.5-19.55.2-6.75 3.35-12.85 1.55-2.85 1.75-2.8l.05.1-.2.8q-.5 2-.7 4.2-1.2 9.9 3.75 15.55 1.5 1.6 3.45 2.9 2.8 1.9 6.8 2.95l4.1 1.3h.05l4.75 1.7q5.7 2.1 9.1 6.05l.1.15q-4.75-3.45-8.55.05l-.8.95" transform="translate(4.8 4.9)"/><path fill-rule="evenodd" fill="#0d649d" d="M45.15 27.15q.25-1.55 1.05-2.75.6-1 1.6-1.85.7-.65 1.55-1 .7-.3 1.4-.5l2.5-.1.45.05.25.05.6.1.25.1q1.35.4 2.55 1.3l.95 1.05 1 1.5q.95 1.85.7 4l-.35 1.7q-.6 1.8-2.15 3.1l-.2.25q-1.25 1.1-2.65 1.45l-1.3.25-1.5.05-.05-.05h-.2l-.05-.05q-2-.25-3.5-1.45l-1.1-1-.2-.25-.95-1.55-.4-.9-.05-.2-.1-.3-.15-2.9.05-.1M72.3 59.8l.85-1.25q1.45-1.9 3.7-2.65l1.25-.3.55-.05h1.3l1 .15.2.1.3.1 2.25 1.2.05.05h.1l.05.05q2.3 1.95 2.7 4.75.4 3.15-1.45 5.55-1.2 1.65-3.05 2.45l-1.9.5-3.4-.3q-.85-.3-1.7-.8l-.4-.3-1.25-1.25q-1.4-1.55-1.75-3.65-.25-2.4.6-4.35M37.15 74.55q-2.7 1-5.4 0-2.85-1.2-4.15-4-1-2.15-.5-4.35l.4-1.3q1.1-2.95 3.95-4.15.85-.4 1.7-.55 1.95-.4 4.05.4 2.15.9 3.35 2.6l.75 1.35q.7 1.55.7 3.2l-.55 2.55-.85 1.6-.65.75-.2.15-.15.25-2.45 1.5" transform="translate(4.8 4.9)"/><path stroke-width="3.25" stroke-linejoin="round" stroke-linecap="round" stroke="#42bcf0" fill="none" d="m103 41.85 1.45 1.5 2.3 2.75 1.85 2.65 1.95 3.55q1.35 2.9 2.25 6.1l.35 1.35.2 1 .2 1.05 1.45 7.05q.9-3.1 1.1-6.7l.1-2 .05-1.25-.35-5.9-.4-2.8-1.05-5.45-.1-.35q-1.1-4.75-2.85-9.1l-1.75-3.6q-3.7-7-9.65-12.7l-.85-.75q-3.3-3-7.25-4.9-5.7-2.15-11.7-3.25l-1.05-.25-.75-.15-1.05-.15-2.65-.4-1.3-.1-.45-.05L71 8.9h-2.55l-2.55.15-2.85.3-2.25.4-2 .4-.35.1-3.8 1.2q-1.65.5-3.3 1.25l-.55.3-.3.1q-1.45.6-2.6 1.35l-.25.15q-.7.35-1.3.8-2.15 1.45-3.7 3.25l-.9 1.1-.3.3-.05.15-.35.35-.4.6q-3.15 5.15-2.8 12.35v1.3q.2 1.85.7 3.55l1.05 2.7 1 1.7 1 1.25.3.35 1.15 1.2 2.55 1.95.4.2.5.35.6.3 3.55 1.55 1.3.45 2.55.7 3.25.2m44.55-10.1-3.4-2.7-1.45-1.05q-12.9-8.45-24 2.75l-.4.4-.1.1-.7.65-1.95 1.9v.05l-1.9 1.6-.2.25-.95.8-.75.65-1.35 1.05q-1.15.85-2.4 1.5-1.35.85-2.8 1.3l-.6.25-1.55.5m11.1 6.7v-.05l1.5-1.55q3.05-3.15 6.15-5 .55-.35 1.1-.6 8.05-4.15 16.4.45 7.25 4.15 9.75 10.7.8 2.05 1.1 4.4.4 3.35-.15 7.25-.45 3.3-1.3 6.45l-.5 1.55-.3.9q-2.2 6.3-6.15 11.75l-4.65 5.5-2.5 2.65q-2.9 3-6.15 5.5l-.2.15q-3.65 2.45-7.9 3.65-8.6 2.5-17.05 1.9-6.6-.4-13.15-2.6-14.1-4.7-21.25-12.15l7.8 2.8q5.4 1.95 10.65 2.2 5.5.25 10.85-1.25l.9-.25 2.7-.8 1.4-.6q2.25-.95 4.15-2.05 5.45-3.35 7.35-8.35 2.05-5.25.3-12.3l-.05-.25-.5-2.35-.35-1.7h-.05l-.9-4.95Q67 62.9 68.8 58l.1-.15M24.35 28.6q2.4-9.5 9.6-16.65l.9-.9.9-.8 6.2-5.35q-3.3.8-6.7 2.45Q32.2 8.9 29.05 11q-3.9 2.65-8.05 6.4-5.1 4.65-8.7 10.15-4.7 7.2-6.75 15.8-1 4.25-.65 8.7Q5.85 58 7.85 63.8l1.75 5q2.25 5.5 5.75 10.15 3.4 4.45 7.9 8.1l1 .8q3.65 2.85 7.4 4.05 4.1 1.4 8.25.85 2.55-.3 5-1.25 2.05-.8 4.1-2.05 12.5-7.65 6.5-25.15l-.1-.15Q52 60.2 46.3 58.1l-4.75-1.7h-.05l-4.1-1.3q-4-1.05-6.8-2.95-1.95-1.3-3.45-2.9Q22.2 43.6 23.4 33.7q.2-2.2.7-4.2l.25-.9z"/></g><g id="N"><path fill-rule="evenodd" fill="#baabcf" d="m89.4 66.3-.8-5.55 2.5-.35q1.25-.3 1.3-1.45.35-5.35-.3-11.15-4.05.35-6.4-4.95-2.35-5.35-4.1-7.75-1.75-2.4-.95-5.8-7.7-4.95-6.35-6.45 1.35-1.55-2.45-6.9l-3.7 3.75q-2.75 2.6-5-.5-2.3-3.15-2.65.05-.35 3.15-9.15 4.35-.35-11.2-7.4-8.2l-1.3-.8q-.95-.7-1.65-1.75-.7 3.95-4.95 7.15t-3.8 6.5q.45 3.3-2 9.05-2.5 5.75-13.5 10.75l2.6 4.55q.75 1.3.5 2.6-1.45 7.75 3.9 12 5.3 4.2 1.1 5.4-4.2 1.15-4.65 8.95 5.65-.1 6.55 2.45.85 2.55-.85 4.35-1.75 1.8-1.25 2.95 1.35 3.1 2.3 6.35.45 1.65 1.5 2.8 4.1 4.25 8.95-.5l.2 3.75.35 2.6.5 2.4.25.95h-7.15l-.1-.1-.4-.25-.8.35H19.7l-1.95-.95q-1.65-1.05-1.9-2.4-.25-1.2.55-2.6.85-1.65 3.1-3.65-.95-5.05-6.3-5.35l-1.9 1.45-2.45-.5q-13.6-4.85-6.35-17.4 4.65 4.75 8.35-2.15Q5.7 61.8 14.6 55.45q-.25-3.5-2.65-5.6-8.2-7.25-3.05-15.4 6.2 8.3 14.6 2.6-3.65-6.65-2.35-14 .4-2.4 1.8-3.05 13.2-6.35 10.65-20l3.05 1.6q2.85 1.65 3.95 1.35Q59-2.2 69.65 11.6q6.1-1.1 5.7-7.2 2.1.4 4.05 1.4 15.35 8.2 4.9 22.15 3.4 6.15 3.6 12.9l-.5.75q15.65.85 13.7-15.05 3.95 2.55 4.6 7.15 1.2 8.7.25 17.6-.25 2.05 1.5 2.75 9.6 3.9 5.5 13-.85 1.85-.25 3.3 2 5.1-1.1 8.05-4 .35-6.7 3.4.8 3.7 2.3 7.1 5.8 12.95-6.4 15.7-.8-7.8-8.4-7.7-5.05.05-3.65 5.05l.05.25.7 2.35.6 2.4.2.95H78.2l-.05-.95-.35-2.4-.7-2.2 1.85-.4q5.7-1.6 9.35-7.2 4.3-6.55-3.25-10.8-4.4-2.4-2.5-9.2 4.6 2.35 7.15-.85l-.2-.85-.65-.85q-.9-2.45 1.2-4.5l-.6-1.2-.05-.2" transform="translate(.75 .75)"/><path fill-rule="evenodd" fill="#644b98" d="m38.7 107.9-.25-.95-.5-2.4-.35-2.6-.2-3.75q-4.85 4.75-8.95.5-1.05-1.15-1.5-2.8-.95-3.25-2.3-6.35-.5-1.15 1.25-2.95 1.7-1.8.85-4.35-.9-2.55-6.55-2.45.45-7.8 4.65-8.95 4.2-1.2-1.1-5.4-5.35-4.25-3.9-12 .25-1.3-.5-2.6l-2.6-4.55q11-5 13.5-10.75 2.45-5.75 2-9.05-.45-3.3 3.8-6.5T41 12.85q.7 1.05 1.65 1.75l1.3.8q7.05-3 7.4 8.2 8.8-1.2 9.15-4.35.35-3.2 2.65-.05 2.25 3.1 5 .5l3.7-3.75q3.8 5.35 2.45 6.9-1.35 1.5 6.35 6.45-.8 3.4.95 5.8t4.1 7.75q2.35 5.3 6.4 4.95.65 5.8.3 11.15-.05 1.15-1.3 1.45l-2.5.35.8 5.55-.05.25.1-.05.6 1.2q-2.1 2.05-1.2 4.5l.65.85.2.85q-2.55 3.2-7.15.85-1.9 6.8 2.5 9.2 7.55 4.25 3.25 10.8-3.65 5.6-9.35 7.2l-1.85.4.7 2.2.35 2.4.05.95H38.7" transform="translate(.75 .75)"/><path stroke-width="1.5" stroke-linejoin="round" stroke-linecap="round" stroke="#644b98" fill="none" d="m91.05 108.65-.2-.95-.6-2.4-.7-2.35-.05-.25q-1.4-5 3.65-5.05 7.6-.1 8.4 7.7 12.2-2.75 6.4-15.7-1.5-3.4-2.3-7.1 2.7-3.05 6.7-3.4 3.1-2.95 1.1-8.05-.6-1.45.25-3.3 4.1-9.1-5.5-13-1.75-.7-1.5-2.75.95-8.9-.25-17.6-.65-4.6-4.6-7.15 1.95 15.9-13.7 15.05l.5-.75q-.2-6.75-3.6-12.9 10.45-13.95-4.9-22.15-1.95-1-4.05-1.4.4 6.1-5.7 7.2Q59.75-1.45 41.35 3.7q-1.1.3-3.95-1.35L34.35.75q2.55 13.65-10.65 20-1.4.65-1.8 3.05-1.3 7.35 2.35 14-8.4 5.7-14.6-2.6-5.15 8.15 3.05 15.4 2.4 2.1 2.65 5.6-8.9 6.35-3.75 18.9-3.7 6.9-8.35 2.15Q-4 89.8 9.6 94.65l2.45.5 1.9-1.45q5.35.3 6.3 5.35-2.25 2-3.1 3.65-.8 1.4-.55 2.6.25 1.35 1.9 2.4l1.95.95m10.55 0 .8-.35.4.25.1.1"/><path stroke-width="2.5" stroke-linejoin="round" stroke-linecap="round" stroke="#644b98" fill="none" d="M78.95 108.65H90.8m-70.35 0h58.5m-59.35 0h.85"/></g><g id="O"><path fill-rule="evenodd" fill="#f3470e" d="M35.55 16.15q4.9 4.9 4.9 11.8 0 6.95-4.9 11.8l-2.1 1.85-1.25.95 2.1 1.65q4.1 3.4 5.55 5.1 1.45 1.7 1.65 2.85.2 1.15-5.1-1.2-4.15-2.2-4.1-1.9l-.15.15-.35-.35.65 11.2q2.25 13.3-4.7.45l-3.25-4.1-2.9 4.15q-7.1 13.4-4.7-.35l.45-11.2-.3.25-.5.4Q14.85 51 9.5 52.4q1.2-.15-2 .35 2.35-2.4 2.7-3.2.85-2.05 4.8-5.4L16.4 43q-2.4-1.2-4.45-3.25Q7.1 34.9 7.1 27.95q0-6.9 4.85-11.8 4.9-4.85 11.8-4.85 6.95 0 11.8 4.85" transform="translate(1.25 1.25)"/><path fill-rule="evenodd" fill="#f89e0a" d="M40.6 40.3q-1.7 1.75-3.6 3.1l3.45 2.7q6.7 5.5 7.8 8.8l.15 1.7q-1.15 2.15-4.8 1.6-2.45-1.1-4.75-2.65l-2-1.5-.45-.45 1 18.25q-1.75 3.5-7.65.75l-4.95-9.3-5.05 9.4q-5.9 2.9-7.6-.55l.7-18.25-.5.4-.8.65q-2.8 2.2-5.8 3.6-3.7.6-4.9-1.45-.2-1 .35-2.3 1.4-3.4 7.85-8.8l2.35-1.95Q9.15 42.6 7.25 40.7l-.15-.15Q.05 33.7 0 23.9q-.1-9.8 6.8-16.85Q13.7.05 23.5 0q9.8-.1 16.8 6.8 7 6.9 7.1 16.7.05 9.8-6.8 16.8m-5.05-24.15q-4.85-4.85-11.8-4.85-6.9 0-11.8 4.85-4.85 4.9-4.85 11.8 0 6.95 4.85 11.8Q14 41.8 16.4 43L15 44.15q-3.95 3.35-4.8 5.4-.35.8-2.7 3.2 3.2-.5 2-.35 5.35-1.4 7.05-2.75l.5-.4.3-.25-.45 11.2q-2.4 13.75 4.7.35l2.9-4.15 3.25 4.1q6.95 12.85 4.7-.45l-.65-11.2.35.35.15-.15q-.05-.3 4.1 1.9 5.3 2.35 5.1 1.2-.2-1.15-1.65-2.85-1.45-1.7-5.55-5.1l-2.1-1.65 1.25-.95 2.1-1.85q4.9-4.85 4.9-11.8 0-6.9-4.9-11.8" transform="translate(1.25 1.25)"/><path stroke-width="2.5" stroke-linejoin="round" stroke-linecap="round" stroke="#f4dd0b" fill="none" d="M41.85 41.55q-1.7 1.75-3.6 3.1l3.45 2.7q6.7 5.5 7.8 8.8l.15 1.7q-1.15 2.15-4.8 1.6-2.45-1.1-4.75-2.65l-2-1.5-.45-.45 1 18.25q-1.75 3.5-7.65.75l-4.95-9.3-5.05 9.4q-5.9 2.9-7.6-.55l.7-18.25-.5.4-.8.65Q10 58.4 7 59.8q-3.7.6-4.9-1.45-.2-1 .35-2.3 1.4-3.4 7.85-8.8l2.35-1.95q-2.25-1.45-4.15-3.35l-.15-.15q-7.05-6.85-7.1-16.65-.1-9.8 6.8-16.85 6.9-7 16.7-7.05 9.8-.1 16.8 6.8 7 6.9 7.1 16.7.05 9.8-6.8 16.8z"/></g><g id="P"><path stroke-width="3.2" stroke-linejoin="round" stroke-linecap="round" stroke="#0cf" fill="none" d="M55.05 23.35h26.4m-30.4 58.4h18.4m-24.8-8h16m1.6-20h11.2m-31.2 14.4h37.6m-18.4-8h22.4m-27.2-30.4h34.4"/><path fill-rule="evenodd" fill="#3cf7f5" d="m42.05 4.1 3.6 5.35q6.5 9.65 2.75 20.35-3.05 8.75-9.55 15.9-8.5 9.4-4.85 21.55 3.95 13.2 15.9 14.85.65.7.45 1.5-1.35 4.5-5.9 4.65-3.15-.5-5.9-2.15l-3.85-7.3q-3.45-1.75-6.2-1.4l-.3.05-4.3-1.3q-2.45-.5-2.5 1.35.25 3.7 1.75 7 1.05 2.35 2.85 4.35-7.8-4.1-9.35-10.2-1.85-6.9 2.95-7.25 1.75-4.1-.25-7.9l-3.1-5.6-.95-.1-.45-.6q-7.25-6.45-10.3 2.25-5.55-10 8.7-7.75l1.1-.85Q9.85 49.05 8 47.2q-3-3-4.85-6.45l-.25-.55q-1.5-7.6 2.05-14.5 1.85-3.55 4.95-6.2 2.15 6.15 8.6 5.55 4.75-.4 7.2-4.55 3.8-6.6-.85-12.4-.9-1.15-2.55-1.1 2.35-2.05 5.45-3.4 4.7-2.05 9.9-1.7l.85.35q1.8.8 3.55 1.85m13.6 39.3q-.2 15.15-12.95 11.15-2.65-.85-3.75-3.5l.3-.75.7-.45q4.5 4.15 9.6 3.15l.7-.25.6-.2 1-6.5v.4l.1 1.8.4.35.8.15.9-.25.3-.25.1-1.8q0-2.7-1.3-2.7-.8 0-1.1 1.05l.2-1.4q1.7-1.75 3.4 0M4.3 40.85q0 1.25 2.8 4.8 3.6 4.55 7.65 4.55 1.8 0 3-.55l.95-.75q-5.35 0-10.35-4-3.1-2.5-3.9-4.15-.15 0-.15.1m14.85 32.9q-1.75-.4-2.15.35-.15.25-.15 1.35 0 1.7 1.5 2.7l.5-.3.2-.2.15-1.55.15-1.45-.1-.7-.1-.2m-14.6-20.2.1.7.5.1q1.1-.4 2.5-1.8l-.3-.3q-2.8-.3-2.8 1.3m33.8 29.3-.1.9q1.55 2.9 3.3 2.9l1.6-1.1q-.6-.9-1.95-1.75-1.55-.95-2.85-.95" transform="translate(2.05 1.9)"/><path fill-rule="evenodd" fill="#09cdd2" d="M49.9 82.1Q37.95 80.45 34 67.25 30.35 55.1 38.85 45.7q6.5-7.15 9.55-15.9 3.75-10.7-2.75-20.35l-3.6-5.35q2.65 1.7 5 4.05 8.1 8.1 8.1 19.55 0 6.85-3.1 11.75-3.15 4.85-5.35 6.7-2.2 1.85-6.75 3.7l-.7.45-.3.75q1.1 2.65 3.75 3.5 12.75 4 12.95-11.15.75.45 1.65 4.15l.55 2.3.35 2.65v.4-.4l.05.95-.05 1.6V52.9q-.15 1.7-3 4.8-3.15 3.4-13.7 2.45L41 60l-1 1.3q-1.85 3.85-.3 7.8l.45 1.35q.8 2.5 2.1 4.75l.5.65 1 1Q45 79.35 48 80.9q1.3.55 1.9 1.2M4.55 59.45q3.05-8.7 10.3-2.25l.45.6q-2.25-.2-2.95 1l-2.05-.05-.55.7-.3 1.2q-.05 1 .25 1.65l.2.75.1.6q.15 1.15-.1 1.8l-.65 1.4q-1.5-2.1-4.7-7.4M26 88.85q-1.8-2-2.85-4.35-1.5-3.3-1.75-7 .05-1.85 2.5-1.35l4.3 1.3q-1 .2-1.35.9l-.9-.2q-.3.6-.45 1.25-1.2 5.95 4.3 9.5-.25 1.35-1.65.95l-2.15-1m-21.7-48q0-.1.15-.1.8 1.65 3.9 4.15 5 4 10.35 4l-.95.75q-1.2.55-3 .55-4.05 0-7.65-4.55-2.8-3.55-2.8-4.8" transform="translate(2.05 1.9)"/><path fill-rule="evenodd" fill="#a6fbfa" d="M37.65 1.9q-5.2-.35-9.9 1.7-3.1 1.35-5.45 3.4 1.65-.05 2.55 1.1 4.65 5.8.85 12.4-2.45 4.15-7.2 4.55-6.45.6-8.6-5.55-3.1 2.65-4.95 6.2Q1.4 32.6 2.9 40.2-.05 34.55-.05 27.7-.05 16.25 8 8.15q2.65-2.6 5.65-4.4Q19.85.1 27.55.1q5.45 0 10.1 1.8m-25.9 8.75q-.15.75 0 1.35.25 1.25 1.8 1.25 2.55 0 4.4-2 1.5-1.65 1.5-3 0-3.8-3.85-2.3t-3.85 4.7" transform="translate(2.05 1.9)"/><path fill-rule="evenodd" fill="#cefdfc" d="m51.85 46.05.2-1.25q.3-1.05 1.1-1.05 1.3 0 1.3 2.7l-.1 1.8-.3.25-.9.25-.8-.15-.4-.35-.1-1.8v-.4m-40.1-35.4q0-3.2 3.85-4.7t3.85 2.3q0 1.35-1.5 3-1.85 2-4.4 2-1.55 0-1.8-1.25-.15-.6 0-1.35m-7.2 42.9q0-1.6 2.8-1.3l.3.3q-1.4 1.4-2.5 1.8l-.5-.1-.1-.7m14.6 20.2.1.2.1.7-.15 1.45-.15 1.55-.2.2-.5.3q-1.5-1-1.5-2.7 0-1.1.15-1.35.4-.75 2.15-.35m19.2 9.1q1.3 0 2.85.95 1.35.85 1.95 1.75l-1.6 1.1q-1.75 0-3.3-2.9l.1-.9" transform="translate(2.05 1.9)"/><path fill-rule="evenodd" fill="#069b9a" d="m43.75 76.85-1-1-.5-.65q-1.3-2.25-2.1-4.75l-.45-1.35q-1.55-3.95.3-7.8l1-1.3q.45 6.6 1.85 11.8v.85q-.05 2.35.9 4.2m-2.25-16.7q10.55.95 13.7-2.45 2.85-3.1 3-4.8v.9l-.1 1.95q-1.45 8.75-16.6 4.4m-32.25 6.7.65-1.4q.25-.65.1-1.8l-.1-.6-.2-.75q-.3-.65-.25-1.65l.3-1.2.55-.7 2.05.05q-.8 1.35.55 4.55 2.2 3.1-1.2 5.45-.25 1.15-2.45-1.95M29.8 88.9q-5.5-3.55-4.3-9.5.15-.65.45-1.25l.9.2q-.45.9.35 2.7l2.5 5.5q.25 1.5.1 2.35" transform="translate(2.05 1.9)"/><path stroke-width="4" stroke-linejoin="round" stroke-linecap="round" stroke="#fefd81" fill="none" d="M44.1 6q-1.75-1.05-3.55-1.85M4.95 42.1l.25.55q1.85 3.45 4.85 6.45 1.85 1.85 6.35 3.65l-1.1.85q-14.25-2.25-8.7 7.75 3.2 5.3 4.7 7.4 2.2 3.1 2.45 1.95 3.4-2.35 1.2-5.45-1.35-3.2-.55-4.55.7-1.2 2.95-1l.95.1 3.1 5.6q2 3.8.25 7.9-4.8.35-2.95 7.25 1.55 6.1 9.35 10.2l2.15 1q1.4.4 1.65-.95.15-.85-.1-2.35l-2.5-5.5q-.8-1.8-.35-2.7.35-.7 1.35-.9l.3-.05q2.75-.35 6.2 1.4L40.6 88q2.75 1.65 5.9 2.15 4.55-.15 5.9-4.65.2-.8-.45-1.5-.6-.65-1.9-1.2-3-1.55-4.25-4.05-.95-1.85-.9-4.2v-.85q-1.4-5.2-1.85-11.8l.5.15q15.15 4.35 16.6-4.4l.1-1.95v1.25l.05-1.6-.05-.95-.35-2.65-.55-2.3q-.9-3.7-1.65-4.15-1.7-1.75-3.4 0l-.2 1.4-.2 1.25-1 6.5-.6.2-.6.2-.1.05q-5.1 1-9.6-3.15 4.55-1.85 6.75-3.7t5.35-6.7q3.1-4.9 3.1-11.75 0-11.45-8.1-19.55-2.35-2.35-5-4.05m16.15 48.8v-.4M4.95 42.1Q2 36.45 2 29.6q0-11.45 8.05-19.55 2.65-2.6 5.65-4.4Q21.9 2 29.6 2q5.45 0 10.1 1.8m20.55 51v.9"/><path fill-rule="evenodd" fill="#3cf7f5" d="m42.1 4 3.6 5.35Q52.2 19 48.45 29.7q-3.05 8.75-9.55 15.9-8.5 9.4-4.85 21.55Q38 80.35 49.95 82q.65.7.45 1.5-1.35 4.5-5.9 4.65-3.15-.5-5.9-2.15l-3.85-7.3q-3.45-1.75-6.2-1.4l-.3.05-4.3-1.3q-2.45-.5-2.5 1.35.25 3.7 1.75 7 1.05 2.35 2.85 4.35-7.8-4.1-9.35-10.2-1.85-6.9 2.95-7.25 1.75-4.1-.25-7.9l-3.1-5.6-.95-.1-.45-.6q-7.25-6.45-10.3 2.25-5.55-10 8.7-7.75l1.1-.85q-4.5-1.8-6.35-3.65-3-3-4.85-6.45l-.25-.55Q1.45 32.5 5 25.6q1.85-3.55 4.95-6.2 2.15 6.15 8.6 5.55 4.75-.4 7.2-4.55 3.8-6.6-.85-12.4-.9-1.15-2.55-1.1 2.35-2.05 5.45-3.4 4.7-2.05 9.9-1.7l.85.35L42.1 4m13.6 39.3q-.2 15.15-12.95 11.15-2.65-.85-3.75-3.5l.3-.75.7-.45q4.5 4.15 9.6 3.15l.7-.25.6-.2 1-6.5v.4l.1 1.8.4.35.8.15.9-.25.3-.25.1-1.8q0-2.7-1.3-2.7-.8 0-1.1 1.05l.2-1.4q1.7-1.75 3.4 0M4.5 40.65q-.15 0-.15.1 0 1.25 2.8 4.8 3.6 4.55 7.65 4.55 1.8 0 3-.55l.95-.75q-5.35 0-10.35-4-3.1-2.5-3.9-4.15m33.9 42.1-.1.9q1.55 2.9 3.3 2.9l1.6-1.1q-.6-.9-1.95-1.75-1.55-.95-2.85-.95m-19.2-9.1q-1.75-.4-2.15.35-.15.25-.15 1.35 0 1.7 1.5 2.7l.5-.3.2-.2.15-1.55.15-1.45-.1-.7-.1-.2M4.6 53.45l.1.7.5.1q1.1-.4 2.5-1.8l-.3-.3q-2.8-.3-2.8 1.3" transform="translate(2.05 1.9)"/><path fill-rule="evenodd" fill="#09cdd2" d="M49.95 82Q38 80.35 34.05 67.15 30.4 55 38.9 45.6q6.5-7.15 9.55-15.9Q52.2 19 45.7 9.35L42.1 4q2.65 1.7 5 4.05 8.1 8.1 8.1 19.55 0 6.85-3.1 11.75-3.15 4.85-5.35 6.7-2.2 1.85-6.75 3.7l-.7.45-.3.75q1.1 2.65 3.75 3.5 12.75 4 12.95-11.15.75.45 1.65 4.15l.55 2.3.35 2.65v.4-.4l.05.95-.05 1.6V52.8q-.15 1.7-3 4.8-3.15 3.4-13.7 2.45l-.5-.15-1 1.3q-1.85 3.85-.3 7.8l.45 1.35q.8 2.5 2.1 4.75l.5.65 1 1q1.25 2.5 4.25 4.05l1.9 1.2M4.6 59.35q3.05-8.7 10.3-2.25l.45.6q-2.25-.2-2.95 1l-2.05-.05-.55.7-.3 1.2q-.05 1 .25 1.65l.2.75.1.6q.15 1.15-.1 1.8l-.65 1.4-4.7-7.4m21.45 29.4q-1.8-2-2.85-4.35-1.5-3.3-1.75-7 .05-1.85 2.5-1.35l4.3 1.3q-1 .2-1.35.9l-.9-.2-.45 1.25q-1.2 5.95 4.3 9.5-.25 1.35-1.65.95l-2.15-1M4.5 40.65q.8 1.65 3.9 4.15 5 4 10.35 4l-.95.75q-1.2.55-3 .55-4.05 0-7.65-4.55-2.8-3.55-2.8-4.8 0-.1.15-.1" transform="translate(2.05 1.9)"/><path fill-rule="evenodd" fill="#cefdfc" d="M52.1 44.7q.3-1.05 1.1-1.05 1.3 0 1.3 2.7l-.1 1.8-.3.25-.9.25-.8-.15-.4-.35-.1-1.8v-.4l.2-1.25M11.8 11.9q-.15-.6 0-1.35 0-3.2 3.85-4.7t3.85 2.3q0 1.35-1.5 3-1.85 2-4.4 2-1.55 0-1.8-1.25M4.6 53.45q0-1.6 2.8-1.3l.3.3q-1.4 1.4-2.5 1.8l-.5-.1-.1-.7m14.6 20.2.1.2.1.7-.15 1.45-.15 1.55-.2.2-.5.3q-1.5-1-1.5-2.7 0-1.1.15-1.35.4-.75 2.15-.35m19.2 9.1q1.3 0 2.85.95 1.35.85 1.95 1.75l-1.6 1.1q-1.75 0-3.3-2.9l.1-.9" transform="translate(2.05 1.9)"/><path fill-rule="evenodd" fill="#a6fbfa" d="M37.7 1.8q-5.2-.35-9.9 1.7-3.1 1.35-5.45 3.4Q24 6.85 24.9 8q4.65 5.8.85 12.4-2.45 4.15-7.2 4.55-6.45.6-8.6-5.55-3.1 2.65-4.95 6.2-3.55 6.9-2.05 14.5Q0 34.45 0 27.6 0 16.15 8.05 8.05q2.65-2.6 5.65-4.4Q19.9 0 27.6 0q5.45 0 10.1 1.8M11.8 11.9q.25 1.25 1.8 1.25 2.55 0 4.4-2 1.5-1.65 1.5-3 0-3.8-3.85-2.3t-3.85 4.7q-.15.75 0 1.35" transform="translate(2.05 1.9)"/><path fill-rule="evenodd" fill="#069b9a" d="m43.8 76.75-1-1-.5-.65q-1.3-2.25-2.1-4.75L39.75 69q-1.55-3.95.3-7.8l1-1.3q.45 6.6 1.85 11.8v.85q-.05 2.35.9 4.2m-2.25-16.7q10.55.95 13.7-2.45 2.85-3.1 3-4.8v.9l-.1 1.95q-1.45 8.75-16.6 4.4M12.4 58.7q-.8 1.35.55 4.55 2.2 3.1-1.2 5.45-.25 1.15-2.45-1.95l.65-1.4q.25-.65.1-1.8l-.1-.6-.2-.75q-.3-.65-.25-1.65l.3-1.2.55-.7 2.05.05m17.45 30.1q-5.5-3.55-4.3-9.5l.45-1.25.9.2q-.45.9.35 2.7l2.5 5.5q.25 1.5.1 2.35" transform="translate(2.05 1.9)"/><path stroke-width="2" stroke-linejoin="round" stroke-linecap="round" stroke="#058382" fill="none" d="M44.15 5.9 40.6 4.05M5 42l.25.55Q7.1 46 10.1 49q1.85 1.85 6.35 3.65l-1.1.85q-14.25-2.25-8.7 7.75l4.7 7.4q2.2 3.1 2.45 1.95 3.4-2.35 1.2-5.45-1.35-3.2-.55-4.55.7-1.2 2.95-1l.95.1 3.1 5.6q2 3.8.25 7.9-4.8.35-2.95 7.25 1.55 6.1 9.35 10.2l2.15 1q1.4.4 1.65-.95.15-.85-.1-2.35l-2.5-5.5q-.8-1.8-.35-2.7.35-.7 1.35-.9l.3-.05q2.75-.35 6.2 1.4l3.85 7.3q2.75 1.65 5.9 2.15 4.55-.15 5.9-4.65.2-.8-.45-1.5l-1.9-1.2q-3-1.55-4.25-4.05-.95-1.85-.9-4.2v-.85q-1.4-5.2-1.85-11.8l.5.15q15.15 4.35 16.6-4.4l.1-1.95v-.9m0-.4-.35-2.65-.55-2.3q-.9-3.7-1.65-4.15-1.7-1.75-3.4 0l-.2 1.4-.2 1.25-1 6.5-.6.2-.6.2-.1.05q-5.1 1-9.6-3.15 4.55-1.85 6.75-3.7t5.35-6.7q3.1-4.9 3.1-11.75 0-11.45-8.1-19.55-2.35-2.35-5-4.05M5 42q-2.95-5.65-2.95-12.5 0-11.45 8.05-19.55 2.65-2.6 5.65-4.4 6.2-3.65 13.9-3.65 5.45 0 10.1 1.8m20.6 51.55-.05-.95"/><path stroke-width=".5" stroke-linejoin="round" stroke-linecap="round" stroke="#644b98" fill="none" d="M60.3 54.7v-.4m0 1.3v1.25l.05-1.6"/></g><g id="Q"><path fill-rule="evenodd" fill="url(#d)" d="M55.05 7.65q0-.85.5-1.5.65-.6 1.5-.6t1.5.6q.5.65.5 1.5 0 .8-.5 1.4-.65.65-1.5.65t-1.5-.65q-.5-.6-.5-1.4m3.5 8.3q-.65.6-1.5.6t-1.5-.6q-.5-.6-.5-1.45 0-.9.5-1.45.65-.65 1.5-.65t1.5.65q.5.55.5 1.45 0 .85-.5 1.45m-56.6-8.9L.9 7.4 0 4.25Q3 3.1 5.75 2.3l.95 2.8.3-1.75 3.2.25-.2-2.55L13.3.6l.3 3.35 4.5.6-.6 3.1-3.7-.55.15 1.5q1.9.7 4.15.7l-.35 3.1-3.65-.5.15 1.25h2.35l.25 2.75-2.45.05.2 2.05-3.35.35-.1-2.15-2.55.35-.3-2.85 2.6-.25-.15-2.85-2.6 3.05-.8.95-2.4-2.2 4.9-5.7-3.4-.35.15-.9-1.3.4-.5 6.45v.1l-.2 4.95L1.4 17q.05-5.15.55-9.95M43.6 8.2v.45q0 1.75-.55 4.5l-1.45 4.6-3.45-.7q1.1-2.55 1.6-4.9.55-2.05.55-3.3 0-.85-.9-1.25-.9-.55-2.45-.55l-1.7.05q-1.95 5.35-3.45 10.75l-3.45-.75q1.45-5 3-9.35-1.75.45-3.5 1.15L26.7 5.85l4.05-1.2 1.8-.35 1.3-3.45 3.4.8-.85 2.25h1.25q2.7 0 4.35 1.25 1.6 1.3 1.6 3.05" transform="translate(2 1.4)"/><path stroke-width="4" stroke-linejoin="round" stroke-linecap="round" stroke="#6d4201" fill="none" d="M57.05 9.05q0-.85.5-1.5.65-.6 1.5-.6t1.5.6q.5.65.5 1.5 0 .8-.5 1.4-.65.65-1.5.65t-1.5-.65q-.5-.6-.5-1.4m3.5 8.3q-.65.6-1.5.6t-1.5-.6q-.5-.6-.5-1.45 0-.9.5-1.45.65-.65 1.5-.65t1.5.65q.5.55.5 1.45 0 .85-.5 1.45m-56.6-8.9L2.9 8.8 2 5.65Q5 4.5 7.75 3.7l.95 2.8.3-1.75 3.2.25-.2-2.55L15.3 2l.3 3.35 4.5.6-.6 3.1-3.7-.55.15 1.5q1.9.7 4.15.7l-.35 3.1-3.65-.5.15 1.25h2.35l.25 2.75-2.45.05.2 2.05-3.35.35-.1-2.15-2.55.35-.3-2.85 2.6-.25-.15-2.85-2.6 3.05-.8.95-2.4-2.2 4.9-5.7-3.4-.35.15-.9-1.3.4-.5 6.45v.1l-.2 4.95-3.2-.35q.05-5.15.55-9.95M45.6 9.6v.45q0 1.75-.55 4.5l-1.45 4.6-3.45-.7q1.1-2.55 1.6-4.9.55-2.05.55-3.3 0-.85-.9-1.25-.9-.55-2.45-.55l-1.7.05q-1.95 5.35-3.45 10.75l-3.45-.75q1.45-5 3-9.35-1.75.45-3.5 1.15L28.7 7.25l4.05-1.2 1.8-.35 1.3-3.45 3.4.8-.85 2.25h1.25q2.7 0 4.35 1.25 1.6 1.3 1.6 3.05z"/><path fill-rule="evenodd" fill="url(#e)" d="M55.55 8.45q-.5-.6-.5-1.4 0-.85.5-1.5.65-.6 1.5-.6t1.5.6q.5.65.5 1.5 0 .8-.5 1.4-.65.65-1.5.65t-1.5-.65m3.5 5.45q0 .85-.5 1.45-.65.6-1.5.6t-1.5-.6q-.5-.6-.5-1.45 0-.9.5-1.45.65-.65 1.5-.65t1.5.65q.5.55.5 1.45M1.95 6.45.9 6.8 0 3.65Q3 2.5 5.75 1.7l.95 2.8.3-1.75 3.2.25L10 .45 13.3 0l.3 3.35 4.5.6-.6 3.1-3.7-.55.15 1.5q1.9.7 4.15.7l-.35 3.1-3.65-.5.15 1.25h2.35l.25 2.75-2.45.05.2 2.05-3.35.35-.1-2.15-2.55.35-.3-2.85 2.6-.25-.15-2.85-2.6 3.05-.8.95-2.4-2.2 4.9-5.7-3.4-.35.15-.9-1.3.4-.5 6.45v.1l-.2 4.95-3.2-.35q.05-5.15.55-9.95M43.6 7.6v.45q0 1.75-.55 4.5l-1.45 4.6-3.45-.7q1.1-2.55 1.6-4.9.55-2.05.55-3.3 0-.85-.9-1.25-.9-.55-2.45-.55l-1.7.05q-1.95 5.35-3.45 10.75l-3.45-.75q1.45-5 3-9.35-1.75.45-3.5 1.15L26.7 5.25l4.05-1.2 1.8-.35 1.3-3.45 3.4.8-.85 2.25h1.25q2.7 0 4.35 1.25 1.6 1.3 1.6 3.05" transform="translate(2 1.4)"/></g><g id="R"><path fill-rule="evenodd" fill="url(#f)" d="M58.7 7.5q0 .9-.55 1.5-.65.65-1.5.65-.8 0-1.45-.65-.55-.6-.55-1.5 0-.8.55-1.4.65-.6 1.45-.6.85 0 1.5.6.55.6.55 1.4m-3.5 5.45q.65-.6 1.45-.6.85 0 1.5.6.55.6.55 1.45t-.55 1.5q-.65.55-1.5.55-.8 0-1.45-.55-.55-.65-.55-1.5t.55-1.45M33.85.8l3.15.3-.15 1.55 4.75-.05.3 3.2-5.4.05-.05 1.1 6.4-.2.4 3.35-7.1.1-.1 4.3 2.85-.25q.8-.2.8-.6-.05-1.05-.8-1.95l3-.75q.9 1.75.9 3.6 0 1.35-1.1 1.9-.85.6-2.65.9l-4.2.2h-1.5l-5.1-.45q-1.6-.55-1.6-2.4 0-1.6.75-3.55l2.9.65-.7 1.65q0 .65 1 .85l2.15.2.2-4.1-5.55.35h-.35L26.7 7.4l6.4-.35.15-1.05-5.05.35-.4-3.15 5.75-.45.3-1.95m-21.3.9-.6 1.5 5.55.45-.3 3.1-4.05-.35-2.4-.15-1.1 3.15-3.1-1L7 7.2v-.05L9.55.6l3 1.1m-7.6 5.25.45 4.75 1.3-.5.95 3.05Q4.75 15.55 1 16.1l-.75-3 2.05-.5-.65-5.9H0l.3-3.15 6.55.35-.3 3.15-1.6-.1m6.4 4.55L13.1 7l3.15.7-1.7 4.45 2.95.85-.95 3.1-3.05-.85-1 2.95-3.1-.7q.4-1.55.95-2.95l-2.5-.5 1-3.1 2.5.55" transform="translate(2 1.4)"/><path stroke-width="4" stroke-linejoin="round" stroke-linecap="round" stroke="#6d4201" fill="none" d="M60.7 8.9q0 .9-.55 1.5-.65.65-1.5.65-.8 0-1.45-.65-.55-.6-.55-1.5 0-.8.55-1.4.65-.6 1.45-.6.85 0 1.5.6.55.6.55 1.4m-3.5 5.45q.65-.6 1.45-.6.85 0 1.5.6.55.6.55 1.45t-.55 1.5q-.65.55-1.5.55-.8 0-1.45-.55-.55-.65-.55-1.5t.55-1.45M35.85 2.2l3.15.3-.15 1.55L43.6 4l.3 3.2-5.4.05-.05 1.1 6.4-.2.4 3.35-7.1.1-.1 4.3 2.85-.25q.8-.2.8-.6-.05-1.05-.8-1.95l3-.75q.9 1.75.9 3.6 0 1.35-1.1 1.9-.85.6-2.65.9l-4.2.2h-1.5l-5.1-.45q-1.6-.55-1.6-2.4 0-1.6.75-3.55l2.9.65-.7 1.65q0 .65 1 .85l2.15.2.2-4.1-5.55.35h-.35L28.7 8.8l6.4-.35.15-1.05-5.05.35-.4-3.15 5.75-.45.3-1.95m-21.3.9-.6 1.5 5.55.45-.3 3.1-4.05-.35-2.4-.15-1.1 3.15-3.1-1L9 8.6v-.05L11.55 2l3 1.1m-7.6 5.25.45 4.75 1.3-.5.95 3.05Q6.75 16.95 3 17.5l-.75-3L4.3 14l-.65-5.9H2l.3-3.15 6.55.35-.3 3.15-1.6-.1m6.4 4.55 1.75-4.5 3.15.7-1.7 4.45 2.95.85-.95 3.1-3.05-.85-1 2.95-3.1-.7q.4-1.55.95-2.95l-2.5-.5 1-3.1 2.5.55z"/><path fill-rule="evenodd" fill="url(#g)" d="M58.15 8.4q-.65.65-1.5.65-.8 0-1.45-.65-.55-.6-.55-1.5 0-.8.55-1.4.65-.6 1.45-.6.85 0 1.5.6.55.6.55 1.4 0 .9-.55 1.5m-2.95 3.95q.65-.6 1.45-.6.85 0 1.5.6.55.6.55 1.45t-.55 1.5q-.65.55-1.5.55-.8 0-1.45-.55-.55-.65-.55-1.5t.55-1.45M33.85.2 37 .5l-.15 1.55L41.6 2l.3 3.2-5.4.05-.05 1.1 6.4-.2.4 3.35-7.1.1-.1 4.3 2.85-.25q.8-.2.8-.6-.05-1.05-.8-1.95l3-.75q.9 1.75.9 3.6 0 1.35-1.1 1.9-.85.6-2.65.9l-4.2.2h-1.5l-5.1-.45q-1.6-.55-1.6-2.4 0-1.6.75-3.55l2.9.65-.7 1.65q0 .65 1 .85l2.15.2.2-4.1-5.55.35h-.35L26.7 6.8l6.4-.35.15-1.05-5.05.35-.4-3.15 5.75-.45.3-1.95m-21.3.9-.6 1.5 5.55.45-.3 3.1-4.05-.35-2.4-.15-1.1 3.15-3.1-1L7 6.6v-.05L9.55 0l3 1.1m-7.6 5.25.45 4.75 1.3-.5.95 3.05Q4.75 14.95 1 15.5l-.75-3L2.3 12l-.65-5.9H0l.3-3.15 6.55.35-.3 3.15-1.6-.1m6.4 4.55 1.75-4.5 3.15.7-1.7 4.45 2.95.85-.95 3.1-3.05-.85-1 2.95-3.1-.7q.4-1.55.95-2.95l-2.5-.5 1-3.1 2.5.55" transform="translate(2 1.4)"/></g><g id="S"><path fill-rule="evenodd" fill="url(#h)" d="M55.3 6.15q.65-.5 1.45-.5.85 0 1.5.5.55.7.55 1.5 0 .85-.55 1.5-.65.65-1.5.65-.8 0-1.45-.65-.55-.65-.55-1.5 0-.8.55-1.5m1.45 10.45q-.8 0-1.45-.55-.55-.65-.55-1.5 0-.95.55-1.5.65-.65 1.45-.65.85 0 1.5.65.55.55.55 1.5 0 .85-.55 1.5-.65.55-1.5.55M13.2.6q.5 1.65 1.5 3.1l3.55.7-.55 2.9-5.05-.7-.55 1.7 1.6-.05q1.6 0 2.45.55 1.15.65 1.15 2.25l-.55 2.7q-.8 2.2-2.2 4.6l-2.9-1.45q1.7-2.65 2.4-5.25 0-.4-1.15-.4l-1.85.4-1.2 4.55-3.15-.55.35-1.25.1-.65-.55.5q-1.1 1-2.65 1H3.9l.3 2.65-3.1.35L0 7.55l3.05-.35.2 1.7.05-.1.5-.85.15-.8q0-1-.45-1-1.15 0-2.55.8L.7 4.05l3.5-.6q1.25 0 1.95.75.85.95.9 2.1v.05q0 1.25-1.05 2.8 1.7.9 1.75 2.45l1.6-5.3-1.95-.2.55-3 2.65.15-.5-1.4L13.2.6m17.95 7.25L33.8 8l.55-3.15-.6-.05-1 2.7-2.1-.8.5 1.15m-.15-3L32.6.9l2.45.8-.4.85 4.2.4-.2 2.2 2.6-.3q1.25 0 2 .95.85 1.1.85 2.5v.6q-.2 2.1-.9 3.75l-2.3-.4.4 5.45-2.65.2-.1-1.1v-.05l-.15-3.15v-.05L38.15 11l-2.1-.25-.1.9 1.65-.05.2 2-2.05.2v1.15l1.85-.4.45 2.25-4.5.65q-1.65 0-2.4-.5-.75-.55-.9-1.45l-2.35.3-.4-5.5-.6.15-1.05-2.15 4.5-1.95.5-1.2-3.3 1.6-1.1-2.25 3.6-1.6.95 1.95m-.95 4.3L30.4 13l.7-2 2.25.55q-.8 1.8-.8 2.95l.25.45.4.15.3-4.55-3-.25.3-1.5-.75.35m6.7-3.5 1.45-.45-1.35-.15-.1.6m1.3 2.25-.65.2-.75-2-.35 2.15 1.75.2V7.9m3.25-.25q-.3-.3-.7-.35l.3 4.45q.7-1.7.7-2.9 0-.9-.3-1.2M3.45 10.4l.15 2.15h.05q.45 0 .75-.3l.35-.45-.2-.7q-.25-.3-.65-.35l-.45-.35" transform="translate(2 1.4)"/><path stroke-width="4" stroke-linejoin="round" stroke-linecap="round" stroke="#6d4201" fill="none" d="M57.3 7.55q.65-.5 1.45-.5.85 0 1.5.5.55.7.55 1.5 0 .85-.55 1.5-.65.65-1.5.65-.8 0-1.45-.65-.55-.65-.55-1.5 0-.8.55-1.5M58.75 18q-.8 0-1.45-.55-.55-.65-.55-1.5 0-.95.55-1.5.65-.65 1.45-.65.85 0 1.5.65.55.55.55 1.5 0 .85-.55 1.5-.65.55-1.5.55M15.2 2q.5 1.65 1.5 3.1l3.55.7-.55 2.9-5.05-.7-.55 1.7 1.6-.05q1.6 0 2.45.55 1.15.65 1.15 2.25l-.55 2.7q-.8 2.2-2.2 4.6l-2.9-1.45q1.7-2.65 2.4-5.25 0-.4-1.15-.4l-1.85.4-1.2 4.55-3.15-.55.35-1.25.1-.65-.55.5q-1.1 1-2.65 1H5.9l.3 2.65-3.1.35L2 8.95l3.05-.35.2 1.7.05-.1.5-.85.15-.8q0-1-.45-1-1.15 0-2.55.8l-.25-2.9 3.5-.6q1.25 0 1.95.75.85.95.9 2.1v.05Q9.05 9 8 10.55q1.7.9 1.75 2.45l1.6-5.3-1.95-.2.55-3 2.65.15-.5-1.4L15.2 2m17.95 7.25 2.65.15.55-3.15-.6-.05-1 2.7-2.1-.8.5 1.15m-.15-3 1.6-3.95 2.45.8-.4.85 4.2.4-.2 2.2 2.6-.3q1.25 0 2 .95.85 1.1.85 2.5v.6q-.2 2.1-.9 3.75l-2.3-.4.4 5.45-2.65.2-.1-1.1v-.05L40.4 15v-.05l-.25-2.55-2.1-.25-.1.9L39.6 13l.2 2-2.05.2v1.15l1.85-.4.45 2.25-4.5.65q-1.65 0-2.4-.5-.75-.55-.9-1.45l-2.35.3-.4-5.5-.6.15-1.05-2.15 4.5-1.95.5-1.2-3.3 1.6-1.1-2.25 3.6-1.6.95 1.95m-.95 4.3.35 3.85.7-2 2.25.55q-.8 1.8-.8 2.95l.25.45.4.15.3-4.55-3-.25.3-1.5-.75.35m6.7-3.5 1.45-.45-1.35-.15-.1.6m1.3 2.25-.65.2-.75-2-.35 2.15 1.75.2V9.3m3.25-.25q-.3-.3-.7-.35l.3 4.45q.7-1.7.7-2.9 0-.9-.3-1.2M5.45 11.8l.15 2.15h.05q.45 0 .75-.3l.35-.45-.2-.7q-.25-.3-.65-.35l-.45-.35z"/><path fill-rule="evenodd" fill="url(#i)" d="M55.3 5.55q.65-.5 1.45-.5.85 0 1.5.5.55.7.55 1.5 0 .85-.55 1.5-.65.65-1.5.65-.8 0-1.45-.65-.55-.65-.55-1.5 0-.8.55-1.5M56.75 16q-.8 0-1.45-.55-.55-.65-.55-1.5 0-.95.55-1.5.65-.65 1.45-.65.85 0 1.5.65.55.55.55 1.5 0 .85-.55 1.5-.65.55-1.5.55M13.2 0q.5 1.65 1.5 3.1l3.55.7-.55 2.9-5.05-.7-.55 1.7 1.6-.05q1.6 0 2.45.55 1.15.65 1.15 2.25l-.55 2.7q-.8 2.2-2.2 4.6l-2.9-1.45q1.7-2.65 2.4-5.25 0-.4-1.15-.4l-1.85.4-1.2 4.55-3.15-.55.35-1.25.1-.65-.55.5q-1.1 1-2.65 1H3.9l.3 2.65-3.1.35L0 6.95l3.05-.35.2 1.7.05-.1.5-.85.15-.8q0-1-.45-1-1.15 0-2.55.8L.7 3.45l3.5-.6q1.25 0 1.95.75.85.95.9 2.1v.05Q7.05 7 6 8.55q1.7.9 1.75 2.45l1.6-5.3-1.95-.2.55-3 2.65.15-.5-1.4L13.2 0m16.85 8.55.35 3.85.7-2 2.25.55q-.8 1.8-.8 2.95l.25.45.4.15.3-4.55-3-.25.3-1.5-.75.35m.95-4.3L32.6.3l2.45.8-.4.85 4.2.4-.2 2.2 2.6-.3q1.25 0 2 .95.85 1.1.85 2.5v.6q-.2 2.1-.9 3.75l-2.3-.4.4 5.45-2.65.2-.1-1.1v-.05L38.4 13v-.05l-.25-2.55-2.1-.25-.1.9L37.6 11l.2 2-2.05.2v1.15l1.85-.4.45 2.25-4.5.65q-1.65 0-2.4-.5-.75-.55-.9-1.45l-2.35.3-.4-5.5-.6.15-1.05-2.15 4.5-1.95.5-1.2-3.3 1.6-1.1-2.25 3.6-1.6.95 1.95m.15 3 2.65.15.55-3.15-.6-.05-1 2.7-2.1-.8.5 1.15M38.2 4.6l-1.35-.15-.1.6 1.45-.45m-.15 2.7-.65.2-.75-2-.35 2.15 1.75.2V7.3m3.25-.25q-.3-.3-.7-.35l.3 4.45q.7-1.7.7-2.9 0-.9-.3-1.2M3.45 9.8l.15 2.15h.05q.45 0 .75-.3l.35-.45-.2-.7q-.25-.3-.65-.35l-.45-.35" transform="translate(2 1.4)"/></g><g id="T"><path fill-rule="evenodd" fill="#6d4201" d="m40 4.9 3.15.3-.25 2.95-6.85-.4.3 3.2.1 1.3.45-1.35q3.95.55 6.65 1.7l-.9 3.1q-3.1-1.2-6.05-1.7l.3 3.95-3.3.4-.65-9.05v-.15L32.8 7.5l-6.1-.4.45-3.05 5.35.35-.2-3.2 3.2-.3.3 3.75 2.5.1q-.65-1.25-1.05-2.8L39.85.9q.55 1.8 1.5 3.4L40 4.9m-7.55 4.4Q31 12.55 29.5 16.7l-2.9-1q1.35-4.2 2.9-7.3l2.95.9M16.75 6l-3.05-.15.25 1.75 3.5-.05.35 3.05-3.8.1-2.05.15q-1.05 1.45-1.5 2.95 0 .7 1.15.7l1.45-.15-1.1-1.1 2.1-1.95q2.2 1.6 3.8 4.4l-2.2 1.95-.6-.95q-2.5.8-4.15.8h-.7q-1.6 0-2.4-.95-.9-.85-.9-2.2.3-1.65 1.05-3.2l-1.2.15-.3-3 4.15-.45-.3-2.25-2.9-.05.3-3.1 2.3.05L9.75 1l3.3-.4.25 2.1 3.8.2-.35 3.1m-13.1-.45L2.95 5l-2.2-.7 1.1-2.25q1 .05 3.6 1.15 1.65.85 1.65 2.1 0 1.05-1.2 1.85L4 8.55q-.6.4-.6.75 0 .5 3 1.25L5.2 12.9Q2.85 12.8.75 11 0 10.2 0 9.3q0-1 1.5-2L3.25 6l.4-.45m2.5 11.1-4.65 1.1-.75-3.1 4.45-1 .95 3m52.6-8.9q0 .8-.5 1.4-.65.65-1.5.65t-1.5-.65q-.5-.6-.5-1.4 0-.9.5-1.5.65-.6 1.5-.6t1.5.6q.5.6.5 1.5m0 6.85q0 .8-.5 1.45-.65.6-1.5.6t-1.5-.6q-.5-.65-.5-1.45 0-.9.5-1.5.65-.6 1.5-.6t1.5.6q.5.6.5 1.5" transform="translate(2 1.4)"/><path stroke-width="4" stroke-linejoin="round" stroke-linecap="round" stroke="#6d4201" fill="none" d="m42 6.3 3.15.3-.25 2.95-6.85-.4.3 3.2.1 1.3.45-1.35q3.95.55 6.65 1.7l-.9 3.1q-3.1-1.2-6.05-1.7l.3 3.95-3.3.4-.65-9.05v-.15L34.8 8.9l-6.1-.4.45-3.05 5.35.35-.2-3.2 3.2-.3.3 3.75 2.5.1q-.65-1.25-1.05-2.8l2.6-1.05q.55 1.8 1.5 3.4L42 6.3m-7.55 4.4Q33 13.95 31.5 18.1l-2.9-1q1.35-4.2 2.9-7.3l2.95.9m-15.7-3.3-3.05-.15.25 1.75 3.5-.05.35 3.05-3.8.1-2.05.15q-1.05 1.45-1.5 2.95 0 .7 1.15.7l1.45-.15-1.1-1.1 2.1-1.95q2.2 1.6 3.8 4.4l-2.2 1.95-.6-.95q-2.5.8-4.15.8h-.7q-1.6 0-2.4-.95-.9-.85-.9-2.2.3-1.65 1.05-3.2l-1.2.15-.3-3 4.15-.45L12.3 7l-2.9-.05.3-3.1 2.3.05-.25-1.5 3.3-.4.25 2.1 3.8.2-.35 3.1m-13.1-.45-.7-.55-2.2-.7 1.1-2.25q1 .05 3.6 1.15 1.65.85 1.65 2.1 0 1.05-1.2 1.85L6 9.95q-.6.4-.6.75 0 .5 3 1.25L7.2 14.3q-2.35-.1-4.45-1.9Q2 11.6 2 10.7q0-1 1.5-2l1.75-1.3.4-.45m2.5 11.1-4.65 1.1-.75-3.1 4.45-1 .95 3m52.6-8.9q0 .8-.5 1.4-.65.65-1.5.65t-1.5-.65q-.5-.6-.5-1.4 0-.9.5-1.5.65-.6 1.5-.6t1.5.6q.5.6.5 1.5m0 6.85q0 .8-.5 1.45-.65.6-1.5.6t-1.5-.6q-.5-.65-.5-1.45 0-.9.5-1.5.65-.6 1.5-.6t1.5.6q.5.6.5 1.5z"/><path fill-rule="evenodd" fill="url(#j)" d="m6.15 16.05-4.65 1.1-.75-3.1 4.45-1 .95 3" transform="translate(2 1.4)"/><path fill-rule="evenodd" fill="url(#k)" d="m40 4.3 3.15.3-.25 2.95-6.85-.4.3 3.2.1 1.3.45-1.35q3.95.55 6.65 1.7l-.9 3.1q-3.1-1.2-6.05-1.7l.3 3.95-3.3.4-.65-9.05v-.15L32.8 6.9l-6.1-.4.45-3.05 5.35.35-.2-3.2 3.2-.3.3 3.75 2.5.1q-.65-1.25-1.05-2.8L39.85.3q.55 1.8 1.5 3.4L40 4.3m-7.55 4.4Q31 11.95 29.5 16.1l-2.9-1q1.35-4.2 2.9-7.3l2.95.9m-15.7-3.3-3.05-.15.25 1.75 3.5-.05.35 3.05-3.8.1-2.05.15q-1.05 1.45-1.5 2.95 0 .7 1.15.7l1.45-.15-1.1-1.1 2.1-1.95q2.2 1.6 3.8 4.4l-2.2 1.95-.6-.95q-2.5.8-4.15.8h-.7q-1.6 0-2.4-.95-.9-.85-.9-2.2.3-1.65 1.05-3.2l-1.2.15-.3-3 4.15-.45L10.3 5l-2.9-.05.3-3.1 2.3.05L9.75.4l3.3-.4.25 2.1 3.8.2-.35 3.1m-13.1-.45-.7-.55-2.2-.7 1.1-2.25q1 .05 3.6 1.15 1.65.85 1.65 2.1 0 1.05-1.2 1.85L4 7.95q-.6.4-.6.75 0 .5 3 1.25L5.2 12.3q-2.35-.1-4.45-1.9Q0 9.6 0 8.7q0-1 1.5-2l1.75-1.3.4-.45m55.1 2.2q0 .8-.5 1.4-.65.65-1.5.65t-1.5-.65q-.5-.6-.5-1.4 0-.9.5-1.5.65-.6 1.5-.6t1.5.6q.5.6.5 1.5m0 6.85q0 .8-.5 1.45-.65.6-1.5.6t-1.5-.6q-.5-.65-.5-1.45 0-.9.5-1.5.65-.6 1.5-.6t1.5.6q.5.6.5 1.5" transform="translate(2 1.4)"/></g><g id="U"><path fill-rule="evenodd" fill="url(#l)" d="M12.95.6Q13.4 2 14.2 3.25l3.5.45-.35 3.15L6.7 5.75l.55-3.05 3.2.2-.4-1.1 2.9-1.2m-8.2 4.65 1.75-.1.3 2.95-1.75.1.05 1.45 1.25-.35.6 2.05.8-4.25 2.7.2 2.1-.2q1.65 0 2.65.95 1.05 1.1 1.05 2.7l-.1.85-.55 2.2-.1.75q0 .5.55.5.95-.2 1.3-.5l.55 3-2.3.4q-3.2 0-3.2-3.5l.15-.95.65-2.5v-.25q0-.75-1.1-.75l-1.9.4q-.55 3.5-.6 7.25l-3.1-.3q0-2.65.4-5.1l-1.5.5.15 2.7-3.15.35-.15-2.35L1 13.7l-.8-2.95L2 10.4l-.1-1.9-1.6.3L0 5.9l1.6-.35-.15-2.4 3.15-.3.15 2.4M25.85 9q0-2.2 1.25-4.95l2.35.55q-.85 2.2-1.1 3.8 0 1 .75 1.1.25-2.5.65-4.85V4.6l.4-2.15 2.9.35-.9 6.25.85-.25.4 2.4-1.5.35-.25 5.8L28.7 17l.2-5.05h-.3q-1.15 0-2.1-.9-.65-.75-.65-2.05m11.7-5.55L38 .9l3.05.3-.35 2.55 2.5.4-.55 3.05-2.25-.3-.15 2.2h2l.3 3.1-2.55.05-.05 2.2 3.25-.1.3 3-10.8.6-.3-2.95 4.4-.45V12.5l-2.55.25-.3-3.2 1.7-.15 1.3-.1.25-2.65L36 6.5 35.6 9l-2.9-.6q.45-3.7 1.55-7.05l2.9.65-.4 1.4.8.05m19.1 2.2q.85 0 1.5.6.5.6.5 1.4 0 .85-.5 1.5-.65.65-1.5.65t-1.5-.65q-.5-.65-.5-1.5 0-.8.5-1.4.65-.6 1.5-.6m0 6.85q.85 0 1.5.6.5.6.5 1.45t-.5 1.5q-.65.55-1.5.55t-1.5-.55q-.5-.65-.5-1.5t.5-1.45q.65-.6 1.5-.6" transform="translate(2 1.4)"/><path stroke-width="4" stroke-linejoin="round" stroke-linecap="round" stroke="#6d4201" fill="none" d="M14.95 2q.45 1.4 1.25 2.65l3.5.45-.35 3.15L8.7 7.15l.55-3.05 3.2.2-.4-1.1 2.9-1.2m-8.2 4.65 1.75-.1.3 2.95-1.75.1.05 1.45 1.25-.35.6 2.05.8-4.25 2.7.2 2.1-.2q1.65 0 2.65.95 1.05 1.1 1.05 2.7l-.1.85-.55 2.2-.1.75q0 .5.55.5.95-.2 1.3-.5l.55 3-2.3.4q-3.2 0-3.2-3.5l.15-.95.65-2.5v-.25q0-.75-1.1-.75l-1.9.4q-.55 3.5-.6 7.25l-3.1-.3q0-2.65.4-5.1l-1.5.5.15 2.7-3.15.35-.15-2.35L3 15.1l-.8-2.95L4 11.8l-.1-1.9-1.6.3L2 7.3l1.6-.35-.15-2.4 3.15-.3.15 2.4m21.1 3.75q0-2.2 1.25-4.95l2.35.55q-.85 2.2-1.1 3.8 0 1 .75 1.1.25-2.5.65-4.85V6l.4-2.15 2.9.35-.9 6.25.85-.25.4 2.4-1.5.35-.25 5.8-2.95-.35.2-5.05h-.3q-1.15 0-2.1-.9-.65-.75-.65-2.05m11.7-5.55L40 2.3l3.05.3-.35 2.55 2.5.4-.55 3.05-2.25-.3-.15 2.2h2l.3 3.1-2.55.05-.05 2.2 3.25-.1.3 3-10.8.6-.3-2.95 4.4-.45V13.9l-2.55.25-.3-3.2 1.7-.15 1.3-.1.25-2.65L38 7.9l-.4 2.5-2.9-.6q.45-3.7 1.55-7.05l2.9.65-.4 1.4.8.05m19.1 2.2q.85 0 1.5.6.5.6.5 1.4 0 .85-.5 1.5-.65.65-1.5.65t-1.5-.65q-.5-.65-.5-1.5 0-.8.5-1.4.65-.6 1.5-.6m0 6.85q.85 0 1.5.6.5.6.5 1.45t-.5 1.5q-.65.55-1.5.55t-1.5-.55q-.5-.65-.5-1.5t.5-1.45q.65-.6 1.5-.6z"/><path fill-rule="evenodd" fill="url(#m)" d="m14.2 2.65 3.5.45-.35 3.15L6.7 5.15l.55-3.05 3.2.2-.4-1.1 2.9-1.2q.45 1.4 1.25 2.65m-9.45 2 1.75-.1.3 2.95-1.75.1.05 1.45 1.25-.35.6 2.05.8-4.25 2.7.2 2.1-.2q1.65 0 2.65.95 1.05 1.1 1.05 2.7l-.1.85-.55 2.2-.1.75q0 .5.55.5.95-.2 1.3-.5l.55 3-2.3.4q-3.2 0-3.2-3.5l.15-.95.65-2.5v-.25q0-.75-1.1-.75l-1.9.4q-.55 3.5-.6 7.25l-3.1-.3q0-2.65.4-5.1l-1.5.5.15 2.7-3.15.35-.15-2.35L1 13.1l-.8-2.95L2 9.8l-.1-1.9-1.6.3L0 5.3l1.6-.35-.15-2.4 3.15-.3.15 2.4m21.1 3.75q0-2.2 1.25-4.95l2.35.55q-.85 2.2-1.1 3.8 0 1 .75 1.1.25-2.5.65-4.85V4l.4-2.15 2.9.35-.9 6.25.85-.25.4 2.4-1.5.35-.25 5.8-2.95-.35.2-5.05h-.3q-1.15 0-2.1-.9-.65-.75-.65-2.05m11.7-5.55L38 .3l3.05.3-.35 2.55 2.5.4-.55 3.05-2.25-.3-.15 2.2h2l.3 3.1-2.55.05-.05 2.2 3.25-.1.3 3-10.8.6-.3-2.95 4.4-.45V11.9l-2.55.25-.3-3.2 1.7-.15 1.3-.1.25-2.65L36 5.9l-.4 2.5-2.9-.6q.45-3.7 1.55-7.05l2.9.65-.4 1.4.8.05m19.1 2.2q.85 0 1.5.6.5.6.5 1.4 0 .85-.5 1.5-.65.65-1.5.65t-1.5-.65q-.5-.65-.5-1.5 0-.8.5-1.4.65-.6 1.5-.6m0 6.85q.85 0 1.5.6.5.6.5 1.45t-.5 1.5q-.65.55-1.5.55t-1.5-.55q-.5-.65-.5-1.5t.5-1.45q.65-.6 1.5-.6" transform="translate(2 1.4)"/></g><g id="V"><path fill-rule="evenodd" fill="url(#n)" d="M58.2 7.9q0 .85-.5 1.5-.65.6-1.5.6t-1.5-.6q-.5-.65-.5-1.5t.5-1.5q.65-.5 1.5-.5t1.5.5q.5.65.5 1.5m-4 6.9q0-.95.5-1.5.65-.65 1.5-.65t1.5.65q.5.55.5 1.5 0 .85-.5 1.45-.65.55-1.5.55t-1.5-.55q-.5-.6-.5-1.45M0 14.3q0-2.85 1.1-6.45l3 .65Q3 11.45 3 13.8q0 1 .8 1.45.6.4 1.95.45h.5l3.1-.35-.15-2.75h-.7l-.75-.1.7.65-2.6 2.25-2-1.75 2-1.7Q4.4 11.3 4.4 9.8l.1-1.2q.3-1.4 1.35-3.15l2.1.45.9-.15L8.8 4.7l-3.55-.25.35-2.5 3.1.1-.15-.85L11.6.8l.05 1.45 5.25.55-.25 2.55-3.1-.25-1.7-.15.05.65h.05l1.6.05.95.1q1.25.3 1.8 1.1.65.7.65 2.4v.3q0 1.15-.75 2-.45.55-1.55.8 1.35.9 2.3 2.2L15.1 16.4l-2.5-2.35 1.45-1.55-1.75.15.05 1.4.1 2-1.2.05.3 1.5q-2.65.75-4.95.75h-.85q-2.3 0-3.95-.95-1.8-1-1.8-3.1M1.2 2.8q1.85.35 3.1.95L3.5 6.4Q1.9 5.7.4 5.35l.8-2.55m24.6 0 7.1-.65h.1v-.1l-.15-.35 2.7-1.1.85 1.35 6.2-.15.2 2.7h-2.35l.6 1.25h1.55l.15 2.5H41.5l.05.5q0 1.25-1 1.95-.9.6-2.45.75 1.4.1 2.15.6.9.6.9 1.75 0 .7-.7 1.4l-.05.05 2.35.45-.35 2.45-4.95-.9-3.45 1.9-1.7-2.2.95-.35-.9-.15-2.55-.35.4-2.35.5.05-.35-1q2.35-.85 4.9-1.2l-2.55-.15q-1.3-.15-1.95-.65-.9-.65-.9-2h-.65q-.45 4.45-.55 9.05l-2.95-.25q.1-6.3 1-12.1v-.15h-.05l-.5.1-.35-2.65M12 8.1l.1 1.95h.85l.85-.25.35-.55q0-.8-.6-1L12 8.1M7.95 9.85l1.15.2-.1-1.8-1.75.35-.05.45q0 .6.75.8m25.4-3.8 4.6-.15-.4-.9 1.7-.5-7.2.35 1.65.5-.35.7m-.3 2.8 2.2.3q2.45 0 3.05-.5l.25-.35-5.7.3.2.25M29.8 5.1l-.25 1.2h.7L30.7 5l-.9.1m8.2 9.1q-.25-.4-.75-.4l-3.1.4 3.2.5.65-.5" transform="translate(2 1.4)"/><path stroke-width="4" stroke-linejoin="round" stroke-linecap="round" stroke="#6d4201" fill="none" d="M60.2 9.3q0 .85-.5 1.5-.65.6-1.5.6t-1.5-.6q-.5-.65-.5-1.5t.5-1.5q.65-.5 1.5-.5t1.5.5q.5.65.5 1.5m-4 6.9q0-.95.5-1.5.65-.65 1.5-.65t1.5.65q.5.55.5 1.5 0 .85-.5 1.45-.65.55-1.5.55t-1.5-.55q-.5-.6-.5-1.45M2 15.7q0-2.85 1.1-6.45l3 .65Q5 12.85 5 15.2q0 1 .8 1.45.6.4 1.95.45h.5l3.1-.35L11.2 14h-.7l-.75-.1.7.65-2.6 2.25-2-1.75 2-1.7Q6.4 12.7 6.4 11.2l.1-1.2q.3-1.4 1.35-3.15l2.1.45.9-.15-.05-1.05-3.55-.25.35-2.5 3.1.1-.15-.85 3.05-.4.05 1.45 5.25.55-.25 2.55-3.1-.25-1.7-.15.05.65h.05l1.6.05.95.1q1.25.3 1.8 1.1.65.7.65 2.4v.3q0 1.15-.75 2-.45.55-1.55.8 1.35.9 2.3 2.2L17.1 17.8l-2.5-2.35 1.45-1.55-1.75.15.05 1.4.1 2-1.2.05.3 1.5q-2.65.75-4.95.75h-.85q-2.3 0-3.95-.95-1.8-1-1.8-3.1M3.2 4.2q1.85.35 3.1.95L5.5 7.8q-1.6-.7-3.1-1.05l.8-2.55m24.6 0 7.1-.65h.1v-.1l-.15-.35 2.7-1.1.85 1.35 6.2-.15.2 2.7h-2.35l.6 1.25h1.55l.15 2.5H43.5l.05.5q0 1.25-1 1.95-.9.6-2.45.75 1.4.1 2.15.6.9.6.9 1.75 0 .7-.7 1.4l-.05.05 2.35.45-.35 2.45-4.95-.9-3.45 1.9-1.7-2.2.95-.35-.9-.15-2.55-.35.4-2.35.5.05-.35-1q2.35-.85 4.9-1.2l-2.55-.15q-1.3-.15-1.95-.65-.9-.65-.9-2h-.65q-.45 4.45-.55 9.05L27.7 19q.1-6.3 1-12.1v-.15h-.05l-.5.1-.35-2.65M14 9.5l.1 1.95h.85l.85-.25.35-.55q0-.8-.6-1L14 9.5m-4.05 1.75 1.15.2-.1-1.8-1.75.35-.05.45q0 .6.75.8m25.4-3.8 4.6-.15-.4-.9 1.7-.5-7.2.35 1.65.5-.35.7m-.3 2.8 2.2.3q2.45 0 3.05-.5l.25-.35-5.7.3.2.25M31.8 6.5l-.25 1.2h.7l.45-1.3-.9.1m8.2 9.1q-.25-.4-.75-.4l-3.1.4 3.2.5.65-.5z"/><path fill-rule="evenodd" fill="url(#o)" d="M58.2 7.3q0 .85-.5 1.5-.65.6-1.5.6t-1.5-.6q-.5-.65-.5-1.5t.5-1.5q.65-.5 1.5-.5t1.5.5q.5.65.5 1.5m-4 6.9q0-.95.5-1.5.65-.65 1.5-.65t1.5.65q.5.55.5 1.5 0 .85-.5 1.45-.65.55-1.5.55t-1.5-.55q-.5-.6-.5-1.45m-53-12q1.85.35 3.1.95L3.5 5.8Q1.9 5.1.4 4.75l.8-2.55M0 13.7q0-2.85 1.1-6.45l3 .65Q3 10.85 3 13.2q0 1 .8 1.45.6.4 1.95.45h.5l3.1-.35L9.2 12h-.7l-.75-.1.7.65-2.6 2.25-2-1.75 2-1.7Q4.4 10.7 4.4 9.2L4.5 8q.3-1.4 1.35-3.15l2.1.45.9-.15L8.8 4.1l-3.55-.25.35-2.5 3.1.1L8.55.6 11.6.2l.05 1.45 5.25.55-.25 2.55-3.1-.25-1.7-.15.05.65h.05l1.6.05.95.1q1.25.3 1.8 1.1.65.7.65 2.4v.3q0 1.15-.75 2-.45.55-1.55.8 1.35.9 2.3 2.2L15.1 15.8l-2.5-2.35 1.45-1.55-1.75.15.05 1.4.1 2-1.2.05.3 1.5q-2.65.75-4.95.75h-.85q-2.3 0-3.95-.95-1.8-1-1.8-3.1M25.8 2.2l7.1-.65h.1v-.1l-.15-.35 2.7-1.1.85 1.35 6.2-.15.2 2.7h-2.35l.6 1.25h1.55l.15 2.5H41.5l.05.5q0 1.25-1 1.95-.9.6-2.45.75 1.4.1 2.15.6.9.6.9 1.75 0 .7-.7 1.4l-.05.05 2.35.45-.35 2.45-4.95-.9-3.45 1.9-1.7-2.2.95-.35-.9-.15-2.55-.35.4-2.35.5.05-.35-1q2.35-.85 4.9-1.2l-2.55-.15q-1.3-.15-1.95-.65-.9-.65-.9-2h-.65q-.45 4.45-.55 9.05L25.7 17q.1-6.3 1-12.1v-.15h-.05l-.5.1-.35-2.65M12 7.5l.1 1.95h.85l.85-.25.35-.55q0-.8-.6-1L12 7.5M7.95 9.25l1.15.2-.1-1.8L7.25 8l-.05.45q0 .6.75.8m25.1-1 2.2.3q2.45 0 3.05-.5l.25-.35-5.7.3.2.25m.3-2.8 4.6-.15-.4-.9 1.7-.5-7.2.35 1.65.5-.35.7M29.8 4.5l-.25 1.2h.7l.45-1.3-.9.1m8.2 9.1q-.25-.4-.75-.4l-3.1.4 3.2.5.65-.5" transform="translate(2 1.4)"/></g><g transform="translate(5.1 2.4)" id="Y"><filter id="q"/><use xlink:href="#p" width="21.9" transform="matrix(.5718 0 0 .6493 -5.107 -1.817)" height="30.75" filter="url(#q)"/><filter id="r"/><use xlink:href="#p" width="21.9" transform="matrix(.5718 0 0 -.6872 51.993 18.716)" height="30.75" filter="url(#r)"/></g><g transform="translate(.8 -.05)" id="p"><use xlink:href="#s" width="21.9" transform="translate(-.8 .05)" height="30.75"/><filter id="u"/><use xlink:href="#t" width="18.9" transform="translate(-.2 1.55)" height="27.75" filter="url(#u)"/></g><g id="s"><path fill-rule="evenodd" fill="url(#v)" d="M7.85 2.7q2.3-2.3 4.6 0l6 7.1q1.15 1.15 1.15 1.75 0 .65-1.15 1.8l-2.95 1.1V26.7q.15 2.55-5.35 2.6-5.55 0-5.55-2.6V14.45l-2.75-1.1Q.7 12.2.7 11.55q0-.6 1.15-1.75l6-7.1" transform="translate(.8 -.05)"/><path stroke-width="3" stroke-linejoin="round" stroke-linecap="round" stroke="#840" fill="none" d="m8.65 2.65-6 7.1Q1.5 10.9 1.5 11.5q0 .65 1.15 1.8l2.75 1.1v12.25q0 2.6 5.55 2.6 5.5-.05 5.35-2.6V14.4l2.95-1.1q1.15-1.15 1.15-1.8 0-.6-1.15-1.75l-6-7.1q-2.3-2.3-4.6 0z"/></g><g transform="translate(2.85 1.8)" id="Z"><filter id="x"/><use xlink:href="#w" width="69.8" transform="matrix(1.0637 0 0 1.0624 -2.572 -1.809)" height="19.65" filter="url(#x)"/></g><g id="B"><path fill-rule="evenodd" fill="#ff0" d="M5.15-3.5H4.1L2.95 1.05q-.15.3.05.45l1.15 1.05Q5.2.5 5.5-3.15l-.35-.35m-3.85 0q-.6-.05-.7-.85.05-.9.65-.95h1.3l.2-1.65q.05-.75.9-.8 1 .1.95.85l-.2 1.6h1.8q1.1-.05 1.1 1.1-.1 4.9-1.65 8l.9.9q.6.75.1 1.3l-1.35.05-.85-.7q-1.1 1.4-2.5 2.2-.7.35-1.2-.3Q.35 6.5.9 6L3 4.15 1.15 2.4Q.7 1.95 1 .9l1.2-4.4h-.9m-5.1-3.45 2.1 1.9q.6.6.05 1.35-.65.55-1.4 0l-2-1.85q-.65-.65-.15-1.3l1.4-.1m19.15.55q.2.9-.55 1.15-.7.4-2.5.65v3.4h3.1q.7.05.75.85-.05.85-.75.9h-2.9q.95 3 3.45 5.6.4.6 0 1.3-.6.65-1.3.15Q13 5.8 11.5 2.65 10.15 6 8.05 7.75q-.8.35-1.3-.3-.4-.65.25-1.25Q9.95 3.6 10.2.55H7.8q-.65-.05-.65-.9 0-.8.65-.85h2.6v-3.15l-2.05.15q-.6 0-.75-.8 0-.85.65-.9 3.2-.4 6-1.15.8-.2 1.1.65m9 1.45h-5.5q-.75-.05-.8-.9.05-.85.8-.95h12.6q.9.1.95.95-.05.85-.95.9H26.3v3.8h4.6q.8.05.85.9-.05.9-.85.95h-4.6v4.25h5.65q.85.05.95.95-.1.8-.95.85H18.3q-.8-.05-.85-.85.05-.9.8-.95h6.1V.7h-4.6q-.9-.05-.95-.95 0-.85.85-.9h4.7v-3.8m-49.7 6h1.8V-1.4H-25l-.35.3v2.15m3.55 0h1.5l.25-.3V-1.1q0-.35-.25-.3h-1.5v2.45m11-3.5 1.4-.05 1.35-.1-.1-.8-.15-3.2q.1-.8 1-.8.8.05.85.95l.1 1.9.15 1.9 2.1-.05 2.4-.05q.9.05 1.05.9 0 1-.85 1.05l-2.2.05-2.2.1q.55 3.75 2.05 5.75l.6.65q.3 0 .45-.65l.25-2.1q.1-.65.95-.65.8.15.8.8-.05 2.55-.55 3.7-1.1 1.95-3.45 0Q-7 4.95-7.9-.6h-1.15l-1.65.05q-.95-.05-1.05-.9.05-.95.95-1m-2.1-4.35q.25-.85 1.3-.65.9.35.65 1.25l-1.2 3.05V7q-.05.85-1 .9-.95-.05-1.05-.9V0l-.45.7q-.5.6-1.25 0-.55-.5-.15-1.25Q-14.2-3.3-12.9-6.8m-15.05 2.6.55.65q.95-1.05 2.4-3.4.4-.7 1.2-.5l.6.65h3.2q1.5.1 1 1.4l-1 1.95-.1.2h.8q1.15-.05 1.15 1.25v3.3q.1 1.7-1.4 1.6h-5.8v1.95Q-25.4 6.05-24.2 6h3.4q1.5 0 1.45-1.6-.1-1.35.85-1.25 1.05-.05.9 1.25-.05 1.85-.7 2.6-.65.75-2.1.75h-4.05q-2.9.05-2.75-1.75v-.25l-.3.25h-.1l-4.05 1.3q-1 .25-1.2-.5-.25-1 .5-1.1l.3-.05 3.8-1.25q.8-.25 1.05.35V-1.2q-.7.55-1.2-.35L-30.05 1l-.05.3.25.05.3-.05 1-.15q1.05-.15 1.1.8.1.95-.95 1.05l-2.6.25h-.3q-.9.1-1.3-.4-.3-.5.15-1.3l.3-.4 1.4-2.35h-.95q-1.7-.15-.95-2.05l.5-.85 1.55-2.85q.6-.9 1.4-.55.8.4.45 1.1L-29.6-5l-.95 1.6q-.25.65.15.65h.6l.3-.55.55-.65q.4-.55 1-.25m3.45 0-.65.95h2.95l.8-1.5.05-.25-.3-.05h-2.25l-.6.85" transform="translate(34.9 9.75)"/><path stroke-width="4" stroke-linejoin="round" stroke-linecap="round" stroke="#ff5300" fill="none" d="m10.4 5.55.6-.85h2.25l.3.05-.05.25-.8 1.5H9.75l.65-.95m-3.45 0q-.6-.3-1 .25l-.55.65-.3.55h-.6q-.4 0-.15-.65l.95-1.6.85-1.4q.35-.7-.45-1.1-.8-.35-1.4.55L2.75 5.65l-.5.85q-.75 1.9.95 2.05h.95l-1.4 2.35-.3.4q-.45.8-.15 1.3.4.5 1.3.4h.3l2.6-.25q1.05-.1.95-1.05-.05-.95-1.1-.8l-1 .15-.3.05-.25-.05.05-.3L6.5 8.2q.5.9 1.2.35v5.95q-.25-.6-1.05-.35l-3.8 1.25-.3.05q-.75.1-.5 1.1.2.75 1.2.5l4.05-1.3h.1l.3-.25v.25q-.15 1.8 2.75 1.75h4.05q1.45 0 2.1-.75.65-.75.7-2.6.15-1.3-.9-1.25-.95-.1-.85 1.25.05 1.6-1.45 1.6h-3.4q-1.2.05-1.15-1.15v-1.95h5.8q1.5.1 1.4-1.6v-3.3q0-1.3-1.15-1.25h-.8l.1-.2 1-1.95q.5-1.3-1-1.4h-3.2l-.6-.65q-.8-.2-1.2.5-1.45 2.35-2.4 3.4l-.55-.65M22 2.95q-1.3 3.5-3.15 6.25-.4.75.15 1.25.75.6 1.25 0l.45-.7v7q.1.85 1.05.9.95-.05 1-.9V6.6l1.2-3.05q.25-.9-.65-1.25-1.05-.2-1.3.65m2.1 4.35q-.9.05-.95 1 .1.85 1.05.9l1.65-.05H27q.9 5.55 3.1 7.45 2.35 1.95 3.45 0 .5-1.15.55-3.7 0-.65-.8-.8-.85 0-.95.65l-.25 2.1q-.15.65-.45.65l-.6-.65q-1.5-2-2.05-5.75l2.2-.1 2.2-.05q.85-.05.85-1.05-.15-.85-1.05-.9l-2.4.05-2.1.05-.15-1.9-.1-1.9q-.05-.9-.85-.95-.9 0-1 .8l.15 3.2.1.8-1.35.1-1.4.05m-11 3.5V8.35h1.5q.25-.05.25.3v1.85l-.25.3h-1.5m-3.55 0V8.65l.35-.3h1.45v2.45h-1.8m49.7-6v3.8h-4.7q-.85.05-.85.9.05.9.95.95h4.6v4.25h-6.1q-.75.05-.8.95.05.8.85.85h13.65q.85-.05.95-.85-.1-.9-.95-.95H61.2v-4.25h4.6q.8-.05.85-.95-.05-.85-.85-.9h-4.6V4.8h5.15q.9-.05.95-.9-.05-.85-.95-.95h-12.6q-.75.1-.8.95.05.85.8.9h5.5m-9-1.45q-.3-.85-1.1-.65-2.8.75-6 1.15-.65.05-.65.9.15.8.75.8l2.05-.15v3.15h-2.6q-.65.05-.65.85 0 .85.65.9h2.4q-.25 3.05-3.2 5.65-.65.6-.25 1.25.5.65 1.3.3 2.1-1.75 3.45-5.1 1.5 3.15 3.15 4.95.7.5 1.3-.15.4-.7 0-1.3-2.5-2.6-3.45-5.6h2.9q.7-.05.75-.9-.05-.8-.75-.85h-3.1v-3.4q1.8-.25 2.5-.65.75-.25.55-1.15M31.1 2.8l-1.4.1q-.5.65.15 1.3l2 1.85q.75.55 1.4 0 .55-.75-.05-1.35l-2.1-1.9m5.1 3.45h.9l-1.2 4.4q-.3 1.05.15 1.5l1.85 1.75-2.1 1.85q-.55.5-.15 1.25.5.65 1.2.3 1.4-.8 2.5-2.2l.85.7 1.35-.05q.5-.55-.1-1.3l-.9-.9q1.55-3.1 1.65-8 0-1.15-1.1-1.1h-1.8l.2-1.6q.05-.75-.95-.85-.85.05-.9.8l-.2 1.65h-1.3q-.6.05-.65.95.1.8.7.85m3.85 0 .35.35q-.3 3.65-1.35 5.7l-1.15-1.05q-.2-.15-.05-.45L39 6.25h1.05z"/><path fill-rule="evenodd" fill="#ff0" d="M-1.7-5.45q.6.65.05 1.35-.65.6-1.4 0l-2-1.85q-.65-.6-.15-1.3l1.4-.1 2.1 1.9m-10.05 3.6q.05-.95.95-1l1.4-.05 1.35-.1-.1-.75L-8.3-7q.1-.75 1-.75.8.05.85.95l.1 1.85.15 1.9 2.1-.05 2.4-.05q.9.05 1.05.9 0 1-.85 1.05l-2.2.05-2.2.1q.55 3.8 2.05 5.8l.6.6q.3 0 .45-.6l.25-2.1q.1-.7.95-.7.8.15.8.85-.05 2.5-.55 3.65-1.1 1.95-3.45 0Q-7 4.55-7.9-1h-1.15l-1.65.05q-.95-.05-1.05-.9m.15-5.95q.9.3.65 1.25l-1.2 3.05V6.6q-.05.85-1 .9-.95-.05-1.05-.9V-.35l-.45.65q-.5.6-1.25 0-.55-.5-.15-1.25 1.85-2.7 3.15-6.25.25-.85 1.3-.6m-8.7 6h-1.5V.7h1.5l.25-.35v-1.8l-.25-.35m-3.25 0H-25l-.35.35V.7h1.8v-2.5m2.15-3.35.05-.25-.3-.05h-2.25l-.6.9-.65.95h2.95l.8-1.55M-32.65-3.6l.5-.85 1.55-2.9q.6-.9 1.4-.5.8.35.45 1.1l-.85 1.35-.95 1.65q-.25.6.15.6h.6l.3-.5.55-.7q.4-.55 1-.2l.55.6q.95-1.05 2.4-3.4.4-.7 1.2-.45.5.2.6.6h3.2q1.5.1 1 1.45l-1 1.9-.1.25h.8q1.15-.05 1.15 1.25V.9q.1 1.75-1.4 1.65h-5.8v1.9Q-25.4 5.7-24.2 5.6h3.4q1.5 0 1.45-1.6-.1-1.3.85-1.2 1.05-.05.9 1.2-.05 1.9-.7 2.6-.65.75-2.1.75h-4.05q-2.9.05-2.75-1.75v-.25l-.3.25h-.1l-4.05 1.35q-1 .2-1.2-.55-.25-1 .5-1.1l.3-.05 3.8-1.25q.8-.2 1.05.35v-5.9q-.7.5-1.2-.4l-1.65 2.6-.05.25.25.05.3-.05 1-.1q1.05-.15 1.1.8.1.95-.95 1.05l-2.6.25h-.3q-.9.05-1.3-.45-.3-.5.15-1.3l.3-.35 1.4-2.35h-.95q-1.7-.2-.95-2.05m50.7-2.65q.05-.85.8-.95h12.6q.9.1.95.95-.05.85-.95.9H26.3v3.85h4.6q.8.05.85.9-.05.85-.85.9h-4.6v4.25h5.65q.85.1.95.95-.1.8-.95.85H18.3q-.8-.05-.85-.85.05-.85.8-.95h6.1V.3h-4.6q-.9-.05-.95-.9 0-.85.85-.9h4.7v-3.85h-5.5q-.75-.05-.8-.9M5.5-3.5l-.35-.4H4.1L2.95.7q-.15.25.05.4l1.15 1.05Q5.2.1 5.5-3.5M7.15-.75q0-.75.65-.8h2.6V-4.7l-2.05.15q-.6 0-.75-.85 0-.85.65-.9 3.2-.35 6-1.15.8-.15 1.1.7.2.9-.55 1.15-.7.35-2.5.6v3.45h3.1q.7.05.75.8-.05.85-.75.9h-2.9q.95 3 3.45 5.65.4.55 0 1.3l-1.3.1Q13 5.4 11.5 2.25q-1.35 3.35-3.45 5.1-.8.35-1.3-.25-.4-.7.25-1.25Q9.95 3.2 10.2.15H7.8q-.65-.05-.65-.9m-3.5-7.4q1 .1.95.85l-.2 1.65h1.8q1.1-.05 1.1 1.1Q7.2.3 5.65 3.4l.9.9q.6.75.1 1.3l-1.35.1-.85-.7q-1.1 1.35-2.5 2.15-.7.35-1.2-.25-.4-.8.15-1.3L3 3.8 1.15 2Q.7 1.6 1 .55 2-2.6 2.2-3.9h-.9q-.6-.05-.7-.8.05-.9.65-.95h1.3l.2-1.7q.05-.75.9-.8" transform="translate(34.9 9.75)"/><path fill-rule="evenodd" fill="#fff" d="m-1.45-4.6-.2.35q-.65.55-1.35 0l-.35-.35h1.9m-12.6 0h2.25l-.35.9V.45h-2.05v-1l-.4.7q-.55.6-1.3 0-.55-.55-.15-1.25 1.05-1.6 2-3.5m3.35 3.5q-.95-.05-1.05-.9.05-.95.95-1l1.45-.05 1.3-.1-.1-.8v-.65h1.9l.1 1.4 2.1-.05 2.35-.05q.9.05 1.05.9 0 .95-.85 1.05l-2.2.05-2.2.1.3 1.65h-2l-.3-1.6h-1.15l-1.65.05m-20.05-.65h-.95q-1.7-.15-.95-2.05l.5-.8h2l-.4.65q-.25.65.2.65h.55l.3-.55.55-.65.05-.1h1.2l.3.5.45-.5h2.35l-.5.8h2.9l.45-.8h2.15l-.4.6-.1.2h.8q1.15-.05 1.15 1.25v3h-2l.1-.25v-1.85q0-.35-.25-.3h-1.5v2.4h-1.75v-2.4H-25l-.35.3v2.1h-1.8v-2.2q-.75.55-1.25-.35L-30.05.45h-2l1.3-2.2M18.8-.8q0-.85.85-.9h4.7v-2.9h2v2.9h4.55q.8.05.85.9-.05.9-.85.95h-4.55v.3h-2v-.3h-4.6q-.9-.05-.95-.95M7.15-.9q0-.8.65-.85h2.6V-4.6h1.9v2.85h3.1q.7.05.75.85-.05.85-.75.9h-2.9l.2.45h-2.55L10.2 0H7.8q-.65-.05-.65-.9m-2-3.15H4.1L3 .45H1v-.1l1.25-4.4H1.3Q.8-4.1.7-4.6h6.6Q7.25-1.75 6.7.45H4.8q.55-1.7.7-4.15l-.35-.35" transform="translate(34.9 9.75)"/></g><linearGradient y2=".5" y1=".5" x2="1.038" x1="-.038" spreadMethod="pad" id="a"><stop stop-color="#099" offset="0"/><stop stop-color="#039" offset="1"/></linearGradient><linearGradient y2=".5" y1=".5" x2="1.002" x1="-.002" spreadMethod="pad" id="b"><stop stop-color="#0c9" offset="0"/><stop stop-color="#0cf" offset="1"/></linearGradient><linearGradient y2=".5" y1=".5" x2="1.068" x1="-.068" spreadMethod="pad" id="c"><stop stop-color="#036" offset="0"/><stop stop-color="#639" offset="1"/></linearGradient><linearGradient y2=".952" y1=".084" x2="2.417" x1="2.417" spreadMethod="pad" id="d"><stop stop-color="#ff6" offset="0"/><stop stop-color="#fc0" offset="1"/></linearGradient><linearGradient y2=".952" y1=".084" x2="2.417" x1="2.417" spreadMethod="pad" id="e"><stop stop-color="#ff6" offset="0"/><stop stop-color="#fc0" offset="1"/></linearGradient><linearGradient y2=".929" y1=".082" x2=".06" x1=".06" spreadMethod="pad" id="f"><stop stop-color="#ff6" offset="0"/><stop stop-color="#fc0" offset="1"/></linearGradient><linearGradient y2=".929" y1=".082" x2=".06" x1=".06" spreadMethod="pad" id="g"><stop stop-color="#ff6" offset="0"/><stop stop-color="#fc0" offset="1"/></linearGradient><linearGradient y2="1.011" y1="-.014" x2=".154" x1=".154" spreadMethod="pad" id="h"><stop stop-color="#ff6" offset="0"/><stop stop-color="#fc0" offset="1"/></linearGradient><linearGradient y2="1.011" y1="-.014" x2=".154" x1=".154" spreadMethod="pad" id="i"><stop stop-color="#ff6" offset="0"/><stop stop-color="#fc0" offset="1"/></linearGradient><linearGradient y2=".488" y1=".488" x2=".991" x1="-.01" spreadMethod="pad" id="j"><stop stop-color="#ff6" offset="0"/><stop stop-color="#fc0" offset="1"/></linearGradient><linearGradient y2=".99" y1=".002" x2=".094" x1=".094" spreadMethod="pad" id="k"><stop stop-color="#ff6" offset="0"/><stop stop-color="#fc0" offset="1"/></linearGradient><linearGradient y2="1.01" y1="-.019" x2=".131" x1=".131" spreadMethod="pad" id="l"><stop stop-color="#ff6" offset="0"/><stop stop-color="#fc0" offset="1"/></linearGradient><linearGradient y2="1.01" y1="-.019" x2=".131" x1=".131" spreadMethod="pad" id="m"><stop stop-color="#ff6" offset="0"/><stop stop-color="#fc0" offset="1"/></linearGradient><linearGradient y2="1.06" y1="-.062" x2=".131" x1=".131" spreadMethod="pad" id="n"><stop stop-color="#ff6" offset="0"/><stop stop-color="#fc0" offset="1"/></linearGradient><linearGradient y2="1.06" y1="-.062" x2=".131" x1=".131" spreadMethod="pad" id="o"><stop stop-color="#ff6" offset="0"/><stop stop-color="#fc0" offset="1"/></linearGradient><linearGradient y2="NaN" y1="NaN" x2="1.004" x1="-.005" spreadMethod="pad" id="C"><stop stop-opacity=".106" stop-color="#ffcf0c" offset="0"/><stop stop-opacity=".749" stop-color="#ffffc6" offset=".325"/><stop stop-opacity=".745" stop-color="#ffffc6" offset=".651"/><stop stop-opacity=".051" stop-color="#fc0" offset="1"/></linearGradient><linearGradient y2=".039" y1=".901" x2="-1.712" x1="-1.712" spreadMethod="pad" id="v"><stop stop-color="#f60" offset="0"/><stop stop-color="#ffc000" offset=".38"/><stop stop-color="#ff0" offset=".976"/></linearGradient><linearGradient y2=".039" y1=".901" x2="-1.712" x1="-1.712" spreadMethod="pad" id="D"><stop stop-color="#ffa800" offset="0"/><stop stop-color="#ffc000" offset=".38"/><stop stop-color="#ffa800" offset=".976"/></linearGradient><use xlink:href="#y" width="16" height="16" id="E"/><use xlink:href="#z" width="147.1" transform="matrix(.2082 0 0 .2079 .019 -.001)" height="146.35" id="L"/><use xlink:href="#A" width="18.9" height="27.75" id="t"/><use xlink:href="#B" width="69.8" height="19.65" id="w"/><path fill-rule="evenodd" fill-opacity="0" fill="#fff" d="M30 0v30H0V0h30" id="H"/><path stroke-width="2.5" stroke-linejoin="round" stroke-linecap="round" stroke="url(#C)" fill="none" d="M227.8 24.95h118.3" transform="translate(-226.55 -23.7)" id="W"/><path fill-rule="evenodd" fill="url(#D)" d="m45.55 2.95 6 7.1q1.15 1.15 1.15 1.75 0 .65-1.15 1.8l-2.95 1.1v12.25q.15 2.55-5.35 2.6-5.55 0-5.55-2.6V14.7l-2.75-1.1q-1.15-1.15-1.15-1.8 0-.6 1.15-1.75l6-7.1q2.3-2.3 4.6 0" transform="translate(-33.8 -1.8)" id="A"/></defs><g transform="matrix(1.01762 0 0 1.01356 2.305 3.901)"><use x="-4" y="-1" xlink:href="#text0" width="27" transform="translate(104.05 31.45)" height="18"/><use x="-4" y="-1" xlink:href="#text1" width="27" transform="translate(186.95 31.45)" height="18"/><use x="-2.56" y="-.64" xlink:href="#E" width="16" transform="matrix(1.5625 0 0 1.5623 154.319 27.969)" height="16"/><use x="-13.633" y="-3.418" xlink:href="#F" width="90.5" transform="matrix(.2934 0 0 .2926 6.728 30.483)" height="70.4"/><use xlink:href="#G" width="67.9" transform="matrix(.1849 -.0152 .0142 .1845 15.451 38.946)" height="57.55"/><use x="-14.627" y="-4.966" xlink:href="#G" width="67.9" transform="matrix(.2665 -.0219 .0205 .2659 7.12 31.634)" height="57.55"/><use x="-4.8" y="-1.2" xlink:href="#H" width="30" transform="matrix(.8334 0 0 .833 7.55 27.95)" height="30"/><use x="-4" y="-1" xlink:href="#text2" width="27" transform="translate(104.05 64.35)" height="18"/><use x="-4" y="-1" xlink:href="#text3" width="27" transform="translate(186.95 64.35)" height="18"/><use x="-2.56" y="-.64" xlink:href="#E" width="16" transform="matrix(1.5625 0 0 1.5623 154.319 60.869)" height="16"/><use x="-4.645" y="15.038" xlink:href="#I" width="114.7" transform="matrix(.2153 0 0 .1995 4.714 56.122)" height="100.05"/><use x="-14.742" y="9.22" xlink:href="#J" width="34.85" transform="matrix(.2113 .1497 -.096 .1309 19.636 65.336)" height="124"/><use x="-4.8" y="-1.2" xlink:href="#H" width="30" transform="matrix(.8334 0 0 .833 7.55 60.85)" height="30"/><use x="-4" y="-1" xlink:href="#text4" width="27" transform="translate(104.05 97.25)" height="18"/><use x="-4" y="-1" xlink:href="#text5" width="27" transform="translate(186.95 97.25)" height="18"/><use x="-2.56" y="-.64" xlink:href="#E" width="16" transform="matrix(1.5625 0 0 1.5623 154.319 93.769)" height="16"/><use x="-12.055" y="-3.013" xlink:href="#K" width="71.35" transform="matrix(.3318 0 0 .3319 8.253 93.103)" height="79.2"/><use x="-8.094" y="-2.026" xlink:href="#L" width="30.65" transform="matrix(.4942 0 0 .4936 12.902 96.252)" height="30.4"/><use x="-4.8" y="-1.2" xlink:href="#H" width="30" transform="matrix(.8334 0 0 .833 7.55 93.75)" height="30"/><use x="-4" y="-1" xlink:href="#text6" width="27" transform="translate(104.05 130.15)" height="18"/><use x="-4" y="-1" xlink:href="#text7" width="27" transform="translate(186.95 130.15)" height="18"/><use x="-2.56" y="-.64" xlink:href="#E" width="16" transform="matrix(1.5625 0 0 1.5623 154.319 126.669)" height="16"/><use x="-17.857" y="-4.462" xlink:href="#M" width="121.45" transform="matrix(.224 0 0 .2241 6.475 125.902)" height="118.65"/><use x="-4.8" y="-1.2" xlink:href="#H" width="30" transform="matrix(.8334 0 0 .833 7.55 126.65)" height="30"/><use x="-4" y="-1" xlink:href="#text8" width="27" transform="translate(104.05 163.05)" height="18"/><use x="-4" y="-1" xlink:href="#text9" width="27" transform="translate(186.95 163.05)" height="18"/><use x="-2.56" y="-.64" xlink:href="#E" width="16" transform="matrix(1.5625 0 0 1.5623 154.319 159.569)" height="16"/><use x="-4.568" y="13.68" xlink:href="#N" width="115.7" transform="matrix(.2189 0 0 .2193 4.386 156.036)" height="109.9"/><use x="-17.825" y="-4.45" xlink:href="#O" width="50.95" transform="matrix(.2244 0 0 .2247 14.22 166.519)" height="76.5"/><use x="-4.8" y="-1.2" xlink:href="#H" width="30" transform="matrix(.8334 0 0 .833 7.55 159.55)" height="30"/><use x="-4" y="-1" xlink:href="#text10" width="27" transform="translate(104.05 195.95)" height="18"/><use x="-4" y="-1" xlink:href="#text11" width="27" transform="translate(186.95 195.95)" height="18"/><use x="-2.56" y="-.64" xlink:href="#E" width="16" transform="matrix(1.5625 0 0 1.5623 154.319 192.469)" height="16"/><use x="-14.414" y="-3.6" xlink:href="#P" width="92.65" transform="matrix(.2775 0 0 .2778 7.131 191.922)" height="93.85"/><use x="-4.8" y="-1.2" xlink:href="#H" width="30" transform="matrix(.8334 0 0 .833 7.55 192.45)" height="30"/><use x="-4" y="-1" xlink:href="#Q" width="63.05" transform="translate(35.25 30.2)" height="21.75"/><use x="-4" y="-1" xlink:href="#R" width="62.7" transform="translate(35.25 63.15)" height="21.6"/><use x="-4" y="-1" xlink:href="#S" width="62.8" transform="translate(35.25 96)" height="21.75"/><use x="-4" y="-1" xlink:href="#T" width="62.75" transform="translate(35.25 128.9)" height="21.75"/><use x="-4" y="-1" xlink:href="#U" width="62.65" transform="translate(35.25 162)" height="21.35"/><use x="-4" y="-1" xlink:href="#V" width="62.2" transform="translate(35.25 194.3)" height="22.55"/><use x="-4" y="-1" xlink:href="#W" width="120.8" transform="translate(226.55 23.7)" height="2.5"/><use x="-4.184" y="-1.046" xlink:href="#sprite3" width="13.1" transform="matrix(.956 0 0 .9563 136.715 64.807)" height="17.65"/><use x="-4.184" y="-1.046" xlink:href="#sprite3" width="13.1" transform="matrix(.956 0 0 .9563 137.615 97.557)" height="17.65"/><use x="-4.184" y="-1.046" xlink:href="#sprite3" width="13.1" transform="matrix(.956 0 0 .9563 137.615 131.307)" height="17.65"/><use x="-4.184" y="-1.046" xlink:href="#sprite3" width="13.1" transform="matrix(.956 0 0 .9563 137.615 164.257)" height="17.65"/><use x="-4.184" y="-1.046" xlink:href="#sprite3" width="13.1" transform="matrix(.956 0 0 .9563 137.615 197.607)" height="17.65"/><filter id="X"/><use x="-4" y="-1" xlink:href="#text12" width="232.5" transform="translate(-2.35 -2.5)" height="21.7" filter="url(#X)"/><use x="-4" y="-1" xlink:href="#Y" width="69.6" transform="translate(137.45 -2.8)" height="21.1"/><use x="-4" y="-1" xlink:href="#Z" width="75.25" transform="translate(248.85 -3.1)" height="21.4"/></g></svg>